<?xml version="1.0" standalone="no"?>
<!DOCTYPE svg PUBLIC "-//W3C//DTD SVG 1.1//EN" "http://www.w3.org/Graphics/SVG/1.1/DTD/svg11.dtd" >
<svg>
<metadata>
Created by FontForge 20090914 at Sat Oct 29 20:09:33 2016
 By www-data
Des
</metadata>
<defs>
<font id="BlackberryBlues" horiz-adv-x="343" >
  <font-face 
    font-family="BlackberryBlues"
    font-weight="900"
    font-stretch="normal"
    units-per-em="1000"
    panose-1="2 0 10 3 0 0 0 0 0 0"
    ascent="1000"
    descent="0"
    x-height="638"
    cap-height="939.999"
    bbox="-24.1309 -93.3875 974.619 968.845"
    underline-thickness="50"
    underline-position="-100"
    unicode-range="U+0020-U+3000"
  />
<missing-glyph horiz-adv-x="364" 
d="M66 33h199v600h-199v-600zM33 0v666h265v-666h-265z" />
    <glyph glyph-name=".notdef" horiz-adv-x="364" 
d="M66 33h199v600h-199v-600zM33 0v666h265v-666h-265z" />
    <glyph glyph-name="space" unicode=" " horiz-adv-x="300" 
 />
    <glyph glyph-name="exclam" unicode="!" horiz-adv-x="232" 
d="M199 117l4 8h-5zM152 51l-27 85c-6.66699 0.666992 -13 1.33398 -19 2.00098l28 -55c6.66699 -12.667 12.667 -23.334 18 -32.001zM179 867c0.666992 -10.667 1.50293 -22.332 2.50293 -34.999s2.16699 -26.334 3.5 -41.001s2.33301 -26 3 -34
c4 -47.333 5.66699 -85.333 5 -114c-0.666992 -22 -3.66699 -51.667 -9 -89c-6.66699 -40 -10.334 -68 -11.001 -84c-1.33301 -25.333 -1.66602 -58 -0.999023 -98c2 -56 3 -89.667 3 -101c0 -6 -2.16699 -11.167 -6.5 -15.5s-9.5 -6.5 -15.5 -6.5
s-11.167 2.16699 -15.5 6.5s-6.5 9.5 -6.5 15.5c0 10.667 -1 43.667 -3 99c-0.666992 42 -0.333984 76 0.999023 102c1.33301 18 5 47.333 11 88c6 36 9 63.667 9 83c0.666992 30 -1 66.667 -5 110c0 2 -1.33301 17.333 -4 46s-4.33398 50.667 -5.00098 66
c-0.666992 6 1 11.167 5 15.5s9.16699 6.83301 15.5 7.5s11.666 -1 15.999 -5s6.83301 -9.33301 7.5 -16zM39.0029 185.002c56 0 122.666 -7.33105 199.999 -21.998c6 -1.33301 10.667 -4.5 14 -9.5s4.66602 -10.5 3.99902 -16.5
c-1.33301 -4.66699 -3.66602 -8.66699 -6.99902 -12c0 -3.33301 -1 -6.66602 -3 -9.99902c-6.66699 -13.333 -15.667 -35 -27 -65c-12 -32 -22 -55.333 -30 -70c-3.33301 -6 -8.33301 -9.66699 -15 -11c-2 -4.66699 -5 -8.33398 -9 -11.001
c-5.33301 -2.66699 -11 -3.33398 -17 -2.00098s-10.667 4.33301 -14 9c-39.333 63.333 -82.666 119.666 -129.999 168.999c-4 4 -6 9.16699 -6 15.5s2.33301 11.5 7 15.5c3.33301 3.33301 7.33301 5.33301 12 6c4 9.33301 11 14 21 14z" />
    <glyph glyph-name="quotedbl" unicode="&#x22;" horiz-adv-x="165" 
d="M100 802c9.33301 -91.333 11.332 -192.667 5.99902 -304c0 -6 -2.33301 -11 -7 -15s-10 -6 -16 -6s-11 2.33301 -15 7s-6 10 -6 16c4.66699 109.333 2.66699 208.666 -6 297.999c-0.666992 6 1 11.333 5 16s9 7.33398 15 8.00098s11.333 -1 16 -5s7.33398 -9 8.00098 -15
zM177.999 784.999c0.666992 -22 2.66895 -55.1699 6.00195 -99.5029s5.33301 -78.666 6 -102.999s-0.333008 -59.166 -3 -104.499c-0.666992 -6 -3.33398 -11 -8.00098 -15s-10 -5.66699 -16 -5s-11 3.33398 -15 8.00098s-5.66699 10 -5 16c2.66699 44 3.66699 77.333 3 100
s-2.66699 55.667 -6 99s-5.33301 78 -6 104c0 6 2 11.167 6 15.5s9.16699 6.5 15.5 6.5s11.666 -2 15.999 -6s6.5 -9.33301 6.5 -16z" />
    <glyph glyph-name="numbersign" unicode="#" horiz-adv-x="751" 
d="M604 518c-6 -8 -17.667 -22.667 -35 -44l-38 -46c-8 -10 -17.833 -23 -29.5 -39s-21.5 -30.667 -29.5 -44c-21.333 -34 -39.333 -67.667 -54 -101l46 62zM713 609c-1.33301 -3.33301 -3.00195 -5.99902 -5.00195 -7.99902c-44 -71.333 -113.333 -177.666 -208 -318.999
c-8.66699 -12.667 -22.667 -31.667 -42 -57c-19.333 -26 -34.833 -48.5 -46.5 -67.5s-20.5 -38.167 -26.5 -57.5c-2 -5.33301 -5.66699 -9.5 -11 -12.5s-10.833 -3.5 -16.5 -1.5s-10 5.66699 -13 11s-3.5 11 -1.5 17c-7.33301 1.33301 -12.666 5 -15.999 11
c-9.33301 16 -19 34.167 -29 54.5s-18 37.166 -24 50.499l-24 58l-23 51c-38 86.667 -75.333 153 -112 199c-3.33301 4 -5 8.66699 -5 14c-3.33301 2.66699 -5.33301 6.33398 -6 11.001c-6.66699 26 -11.834 48.833 -15.501 68.5s-7 43.5 -10 71.5s-2.5 54.667 1.5 80
s11 48.666 21 69.999c16 31.333 34 55.666 54 72.999c20 18 46.333 26.667 79 26c58 -0.666992 100.667 -30 128 -88c12 -25.333 21.667 -58 29 -98c22.667 47.333 53.5 88.166 92.5 122.499s83.833 57.833 134.5 70.5c40.667 10.667 70.334 12.667 89.001 6
c33.333 -12 54.666 -45.333 63.999 -100c6.66699 -38 7.33398 -74.667 2.00098 -110c-1.33301 -8 -3.66602 -17 -6.99902 -27s-7 -20.333 -11 -31s-6.66699 -18 -8 -22c-2.66699 -7.33301 -8 -12 -16 -14c4 -7.33301 4 -14.666 0 -21.999zM237.998 443.001l25 -51
c-6.66699 15.333 -15 32.333 -25 51zM146.998 830.001c2.66699 10.667 5.33301 20.6689 8 30.002c-4.66699 -7.33301 -9.33398 -16.333 -14.001 -27c-24.667 -48.667 -26 -122.334 -4 -221.001c-3.33301 20.667 -5.66602 40.667 -6.99902 60c-6 28 -8 56.333 -6 85
c1.33301 21.333 9 45.666 23 72.999zM218.997 566.003c-28 70.667 -40.668 136.002 -38.001 196.002c1.33301 31.333 14.333 54.666 39 69.999c23.333 14.667 47.333 14.334 72 -0.999023c-5.33301 9.33301 -11.333 17.666 -18 24.999c-10.667 11.333 -21 16 -31 14
s-21 -9.66699 -33 -23c-8 -9.33301 -15.333 -20.333 -22 -33c-3.33301 -14 -6.66602 -33.667 -9.99902 -59c-4 -24.667 -5.33301 -50.334 -4 -77.001c7.33301 -32 22.333 -69.333 45 -112zM361.996 223.005l11.001 27.999c-8 -2.66699 -15 -1.66699 -21 3
c3.33301 -11.333 6.66602 -21.666 9.99902 -30.999zM502.997 792.004c17.333 17.333 34.6689 32.3359 52.002 45.0029c38 28.667 69 42.667 93 42c19.333 -0.666992 33 -10 41 -28c6 -14 7.33301 -33 4 -57c-2 -12 -5.33301 -23.833 -10 -35.5s-11 -23.834 -19 -36.501
s-14.833 -23 -20.5 -31s-13.5 -18.333 -23.5 -31s-16 -20.667 -18 -24l-54 -71c-27.333 -34.667 -47 -60.334 -59 -77.001s-25.5 -39.334 -40.5 -68.001s-26.167 -56.667 -33.5 -84l19 33c13.333 20.667 29.333 43 48 67l64 80l55 69c66.667 87.333 103.667 162.333 111 225
c3.33301 26 0.666016 45.667 -8.00098 59c-6 10 -16 16.333 -30 19c-14.667 2.66699 -31.834 1 -51.501 -5s-38.167 -15.667 -55.5 -29c-22 -16 -43.333 -36.667 -64 -62zM225 760.007c-0.666992 -16.667 0 -33.666 2 -50.999c4.66699 13.333 11.667 22.666 21 27.999
c10.667 6 22 5.66699 34 -1c4 -2.66699 8 -5.66699 12 -9c-0.666992 7.33301 -1.66699 14 -3 20c-4 22 -9.33301 36 -16 42c-11.333 10 -22 12 -32 6c-11.333 -7.33301 -17.333 -19 -18 -35zM375 309.008c4 -11.333 7.66699 -21 11 -29l12 25c-4 -2 -8 -2.66699 -12 -2
c-4 1.33301 -7.66699 3.33301 -11 6zM375 356.008c-5.33301 2 -9.33301 5.66602 -12 10.999l-28 52l10 -25c5.33301 -12 12.333 -31.333 21 -58l2 -6c2 8.66699 4.33301 17.334 7 26.001zM544 770.007c0.666992 0.666992 1.33105 1.00195 1.99805 1.00195
c10 3.33301 19 1.33301 27 -6c9.33301 -10 11 -22 5 -36c-1.33301 -2 -2.66602 -5 -3.99902 -9c-1.33301 -2 -2.33301 -3.33301 -3 -4c-12.667 -32.667 -35.667 -78.334 -69 -137.001l64 83l20 26c10 12.667 17.5 22.5 22.5 29.5s10.833 15.667 17.5 26
s11.834 20.166 15.501 29.499s6.16699 18.333 7.5 27c2.66699 16 2.66699 27 0 33c-0.666992 1.33301 -1.66699 2 -3 2c-13.333 0 -35 -11 -65 -33c-12 -9.33301 -24.333 -20 -37 -32zM349.997 638.009c23.333 18.667 47.998 37 73.998 55
c1.33301 3.33301 3.33301 6.66602 6 9.99902c-3.33301 0 -6.66602 1 -9.99902 3c-2 0.666992 -3.66699 2 -5 4c-5.33301 -9.33301 -13.333 -12.666 -24 -9.99902c-3.33301 -3.33301 -7.33301 -5.33301 -12 -6c-12 -1.33301 -20 3.66699 -24 15
c-0.666992 0 -1.66699 -0.333008 -3 -1c-4 -0.666992 -8 0 -12 2c0.666992 -8 1.33398 -13.667 2.00098 -17c1.33301 -8.66699 -1.66699 -15.667 -9 -21zM383.995 517.009l-6.00098 4.00098c2 -15.333 5.33301 -28 10 -38c2.66699 -5.33301 3 -10.833 1 -16.5
s-6 -9.83398 -12 -12.501c-3.33301 -1.33301 -6.66602 -2 -9.99902 -2l25 -47l5 11c-11.333 6 -15 15 -11 27c5.33301 14.667 11.333 30 18 46c-5.33301 0.666992 -10 3.16699 -14 7.5s-6 9.5 -6 15.5v5zM321.994 591.01c-8.66699 24.667 -21.668 50.668 -39.001 78.001
c-5.33301 8.66699 -10 15.667 -14 21c0 -2.66699 0.333008 -6 1 -10c1.33301 -9.33301 4.33301 -21 9 -35c8.66699 -24.667 21.667 -56 39 -94l16 -33c-3.33301 21.333 -3.66602 39.666 -0.999023 54.999c0.666992 2 1 4 1 6c-5.33301 2.66699 -9.33301 6.66699 -12 12z
M415.993 602.011c8.66699 -18.667 13 -39.667 13 -63l29 53c29.333 50.667 49 87 59 109l-56 -37c-1.33301 -5.33301 -4.33301 -9.83301 -9 -13.5s-10 -5.16699 -16 -4.5h-1l-44 -32c12 2.66699 20.333 -1.33301 25 -12z" />
    <glyph glyph-name="dollar" unicode="$" horiz-adv-x="909" 
d="M209 407c-9.33301 -2.66699 -20.0029 -4.33301 -32.0029 -5c-30.667 -1.33301 -57.667 5.66699 -81 21c-29.333 19.333 -38.333 43.666 -27 72.999c6.66699 16.667 19.667 32.667 39 48c-11.333 4.66699 -21.333 10.667 -30 18c-17.333 14.667 -30.666 33.5 -39.999 56.5
s-14 47.167 -14 72.5c0.666992 25.333 6.16699 49.166 16.5 71.499s25.833 39.5 46.5 51.5c14.667 8 36.334 12.667 65.001 14c6.66699 7.33301 14.334 15 23.001 23c32.667 28 60.334 46.333 83.001 55c34.667 12.667 71.334 19.334 110.001 20.001
c23.333 0 43.333 -3.33301 60 -10c18.667 12 40 21 64 27c50.667 12 97 10 139 -6c20.667 -8 37 -19.333 49 -34c2 0 4 0.333008 6 1c30 3.33301 59.667 2.33301 89 -3c31.333 -5.33301 54.666 -14.666 69.999 -27.999c27.333 -24 38.666 -50.333 33.999 -79
c-2 -13.333 -7.66699 -26.333 -17 -39c18.667 -8.66699 34.834 -20.167 48.501 -34.5s21.5 -30.833 23.5 -49.5c2 -19.333 -5 -38.333 -21 -57c-8 -9.33301 -18 -18 -30 -26c7.33301 -11.333 11.666 -24.333 12.999 -39c2 -20.667 -1.66699 -38 -11 -52
c-8 -12 -25.667 -24.333 -53 -37c-24 -10.667 -50 -19.334 -78 -26.001c-22.667 -5.33301 -43 -8 -61 -8c-7.33301 -6.66699 -17.333 -12.667 -30 -18c-20.667 -8 -42 -13.833 -64 -17.5s-45.333 -3.66699 -70 0s-46.334 11.5 -65.001 23.5
c-1.33301 -1.33301 -9.66602 -6 -24.999 -14c-21.333 -11.333 -48.333 -18.666 -81 -21.999c-32 -2.66699 -59 -2 -81 2c-25.333 4 -48 13 -68 27zM213.997 449.001l1 1c-0.666992 0 -1 -0.333008 -1 -1zM658.997 467.001c2.66699 -2.66699 6.66699 -4.33301 12 -5
c-3.33301 2 -7.33301 3.66699 -12 5zM661.997 864.002c-13.333 -3.33301 -23.999 -7.66699 -31.999 -13c-10.667 -8 -14.334 -18 -11.001 -30l2 -4c9.33301 -4 18 -4 26 0c7.33301 5.33301 12.333 13.333 15 24c2 7.33301 2 15 0 23zM401.998 827.001
c6.66699 -1.33301 14.667 2 24 10c12 10 16.667 18.333 14 25c-2 5.33301 -5 10 -9 14c-10 -8.66699 -17.667 -18.334 -23 -29.001c-2.66699 -5.33301 -4.66699 -10.666 -6 -15.999v-4zM213.998 785.001c-4.66699 4 -14.333 7 -29 9c-5.33301 0.666992 -10.666 1 -15.999 1
c-1.33301 -2 -2.66602 -3.66699 -3.99902 -5c-4.66699 -8 -6.33398 -14 -5.00098 -18c1.33301 -0.666992 3 -1 5 -1c5.33301 -1.33301 11.666 -1.5 18.999 -0.5s14 2.5 20 4.5l7 4c2 2.66699 3 4.66699 3 6zM178.999 223.001c-2 -8.66699 -3.33301 -16.333 -4 -23
c-3.33301 -26 0 -44.333 10 -55c8.66699 -8.66699 19.667 -12.334 33 -11.001c4.66699 0.666992 7.83398 1.83398 9.50098 3.50098s2.16699 5.16699 1.5 10.5c-1.33301 11.333 -10.333 26.666 -27 45.999c-10.667 12.667 -18.334 22.334 -23.001 29.001zM189.999 275.002
c4.66699 -2.66699 7.66406 -6.66895 8.99707 -12.002c2 -12 11.667 -27.667 29 -47c20.667 -24 32.334 -45.333 35.001 -64c2 -15.333 -1.33301 -28 -10 -38c-8 -8 -18.667 -12.667 -32 -14c-24.667 -2 -44.667 5 -60 21c-18 18.667 -24.667 46.334 -20 83.001
c1.33301 10.667 4 24 8 40c4 19.333 6.33301 30.333 7 33c1.33301 4.66699 3.83301 8.33398 7.5 11.001s7.83398 3.66699 12.501 3c8.66699 -2 13.334 -7.33301 14.001 -16zM358.996 225c2.66699 -0.666992 4.99805 -1.66797 6.99805 -3.00098c0 -0.666992 6 -5 18 -13
s20.333 -13.833 25 -17.5s10.834 -9.66699 18.501 -18s13.5 -16.833 17.5 -25.5c11.333 -26.667 9.33301 -46.334 -6 -59.001s-34.666 -9.66699 -57.999 9c-18 14.667 -31.333 36.334 -40 65.001c-0.666992 4.66699 -2 10.334 -4 17.001s-3.5 12 -4.5 16
s-2.5 8.66699 -4.5 14l-6 14c-2 4 -2.33301 8.33301 -1 13s4 8 8 10s8.33301 2.33301 13 1s8 -4 10 -8c2.66699 -4.66699 5 -9.66699 7 -15zM416.994 115.999c0.666992 4 -0.668945 10.001 -4.00195 18.001c-5.33301 13.333 -18.666 27.333 -39.999 42l1 -3
c6.66699 -22 16.334 -38.333 29.001 -49c6 -4.66699 10.667 -7.33398 14 -8.00098zM624.991 144c2.66699 2.66699 5.33203 6.33203 7.99902 10.999c2 4 0.333008 12 -5 24c-5.33301 10 -15.666 23.333 -30.999 40c4.66699 -17.333 9 -32 13 -44
c5.33301 -15.333 10.333 -25.666 15 -30.999zM558.989 269.998c-2.66699 8 0.00195312 14.333 8.00195 19c4 2 8.16699 2.33301 12.5 1s7.83301 -4 10.5 -8c4.66699 -8.66699 15.334 -22 32.001 -40c18 -19.333 30 -35.666 36 -48.999c11.333 -22 13 -40 5 -54
c-6.66699 -12.667 -14.334 -21.334 -23.001 -26.001c-10.667 -6 -21.334 -5.33301 -32.001 2s-20.667 23.333 -30 48c-4.66699 14 -10 33.667 -16 59l-5 22l-2 8c-2.66699 6.66699 -1.33398 12.667 3.99902 18zM834.991 201.998l-0.000976562 1
c2.66699 4 2.66699 11.333 0 22c-3.33301 10.667 -10 23.667 -20 39c-4 7.33301 -9 15 -15 23c4.66699 -16.667 9.33398 -31 14.001 -43c8 -20.667 15 -34.667 21 -42zM773.99 361.998c8 2.66699 14.3311 0.330078 18.998 -7.00293c2 -3.33301 9.33301 -13.333 22 -30
c12.667 -17.333 22.334 -31.666 29.001 -42.999c11.333 -18 19 -33.667 23 -47c6 -20 5.33301 -36.667 -2 -50c-7.33301 -11.333 -16 -17.666 -26 -18.999s-19.333 2.66699 -28 12c-9.33301 10 -19 28 -29 54c-12 32.667 -22.333 69.667 -31 111
c-0.666992 4 0.333008 8 3 12s6.33398 6.66699 11.001 8c2.66699 0.666992 5.66699 0.333984 9 -0.999023zM205.988 532.994c-26 0 -43.6602 0.332031 -52.9932 0.999023c-28.667 -18 -46 -34.667 -52 -50c-4.66699 -12.667 0 -23.667 14 -33
c16.667 -11.333 37 -16.333 61 -15h6l-1 1c-4 8 -4.66699 15.333 -2 22c3.33301 10 9.5 16.833 18.5 20.5s17.833 4.83398 26.5 3.50098c10 -1.33301 17.667 -5.33301 23 -12c7.33301 -9.33301 8 -20 2 -32c-2 -4 -4.66699 -8 -8 -12c12.667 -6.66699 26 -11 40 -13
c22 -4 46.833 -4.66699 74.5 -2s50.167 8.66699 67.5 18c1.33301 0.666992 3.5 1.66699 6.5 3s5.16699 2.33301 6.5 3c-7.33301 8 -9.66602 16.667 -6.99902 26c2 8 7.33301 12.667 16 14c4.66699 1.33301 9.33398 1 14.001 -1c10 -2.66699 17 -8 21 -16
c2 -5.33301 3 -11 3 -17c20.667 -13.333 46.167 -20.166 76.5 -20.499s57.833 4.83398 82.5 15.501c-10.667 6.66699 -17.334 15.667 -20.001 27c-2 10.667 0 19.667 6 27c5.33301 5.33301 12.666 8.66602 21.999 9.99902c13.333 1.33301 26.333 -2 39 -10
s19.667 -18 21 -30c11.333 1.33301 23.333 3.33301 36 6c26 6 50 14 72 24c21.333 10 34.333 18.667 39 26c4.66699 6.66699 6.33398 16 5.00098 28c-0.666992 10.667 -3.33398 19 -8.00098 25c-16 -7.33301 -31 -13 -45 -17c-9.33301 -2 -17.333 -3 -24 -3
c-10 0.666992 -17.667 4 -23 10c-6.66699 8 -8.66699 16.667 -6 26c2 7.33301 6.66699 13.666 14 18.999c12 8 26.667 12.667 44 14c16 0.666992 30 -2 42 -8c13.333 8 23.666 16.333 30.999 25c10 11.333 14.333 21.666 13 30.999
c-1.33301 13.333 -7.83301 25.5 -19.5 36.5s-26.167 19.167 -43.5 24.5c-17.333 -14 -34.666 -23 -51.999 -27c-11.333 -2.66699 -20.666 -2.33398 -27.999 0.999023c-12 6 -16.667 16.333 -14 31c4 18.667 18 30 42 34c12.667 2.66699 26.667 2.33398 42 -0.999023
c10 11.333 16 22.333 18 33c2.66699 16.667 -4.66602 32.667 -21.999 48c-10.667 9.33301 -28.667 16.333 -54 21c-24 4 -48.667 4.66699 -74 2c3.33301 -12.667 3.33301 -25.334 0 -38.001c-4.66699 -19.333 -15 -34 -31 -44c-18 -10.667 -37 -11 -57 -1
c-10 4.66699 -16.667 12.667 -20 24c-8.66699 27.333 -1 49.666 23 66.999c8.66699 6 19 11 31 15c-6 4.66699 -13.333 8.66699 -22 12c-36 14 -75.667 15.667 -119 5c-14.667 -4 -28.334 -9 -41.001 -15c5.33301 -6 9.66602 -13 12.999 -21
c8 -21.333 0.166992 -42.166 -23.5 -62.499s-45.5 -24.833 -65.5 -13.5c-12.667 8 -17.334 21.333 -14.001 40c1.33301 8 4.33301 16.333 9 25c4.66699 9.33301 11 18.333 19 27c-8.66699 1.33301 -18.334 2 -29.001 2c-34 -0.666992 -66.667 -6.66699 -98 -18
c-18.667 -6.66699 -42.334 -22.667 -71.001 -48c16 -2.66699 28.333 -7.66699 37 -15c8 -6.66699 12 -14.667 12 -24c0.666992 -9.33301 -2.33301 -18.666 -9 -27.999c-4.66699 -6 -12.334 -11.333 -23.001 -16c-8.66699 -3.33301 -18 -5.33301 -28 -6
c-11.333 -1.33301 -21.333 -1.33301 -30 0c-12.667 2.66699 -21.667 8.33398 -27 17.001c-6 11.333 -6.66699 23.666 -2 36.999c-11.333 -2 -19.333 -4.33301 -24 -7c-30.667 -17.333 -46.334 -48.666 -47.001 -93.999c0 -20 3.66699 -39.333 11 -58
s17.666 -33.334 30.999 -44.001c11.333 -9.33301 26.666 -15.666 45.999 -18.999l25 14c4.66699 2 9.16699 2.33301 13.5 1s7.5 -4 9.5 -8c1.33301 -2.66699 2 -5.66699 2 -9h5h5c4.66699 0 8.66699 -1.66699 12 -5s5 -7.33301 5 -12s-1.66699 -8.66699 -5 -12
s-7.33301 -5 -12 -5z" />
    <glyph glyph-name="percent" unicode="%" horiz-adv-x="912" 
d="M726 715c4 8.66699 24.334 55.333 61.001 140l2 4c-20.667 -11.333 -47 -24.666 -79 -39.999c11.333 -2.66699 17.333 -9.66699 18 -21c1.33301 -30.667 0.666016 -58.334 -2.00098 -83.001zM328.001 154.999c16 -5.33301 33.3311 -7.66406 51.998 -6.99707
c38 5.33301 75.333 16.333 112 33c24 12 52 28.667 84 50c63.333 46.667 123 110.667 179 192c34 50 56 91 66 123c34 110 48 202 42 276c-0.666992 10.667 -3 26.334 -7 47.001c-2 13.333 -3.33301 23.333 -4 30c-14 -10 -30 -20.333 -48 -31c4 0.666992 8 0 12 -2
c5.33301 -2 9.16602 -5.83301 11.499 -11.5s2.16602 -11.5 -0.500977 -17.5c-35.333 -82.667 -53.666 -125.667 -54.999 -129c5.33301 1.33301 10 3.33301 14 6c9.33301 6 18.666 19 27.999 39c2.66699 5.33301 6.83398 9 12.501 11s11.334 1.66699 17.001 -1
s9.5 -6.83398 11.5 -12.501s1.66699 -11.5 -1 -17.5c-13.333 -26.667 -28.333 -45.334 -45 -56.001c-15.333 -10 -35.333 -14.667 -60 -14l-10 -17c-16.667 -28 -36.667 -57.333 -60 -88c10 0 19 1 27 3c18 4 36 15.333 54 34c4.66699 4 10 6 16 6
s11.167 -2.16699 15.5 -6.5s6.5 -9.5 6.5 -15.5s-2 -11.333 -6 -16c-24 -23.333 -49.333 -38.333 -76 -45c-17.333 -4 -40.666 -5 -69.999 -3l-75 -89l-9 -11c14.667 -8 27.334 -12 38.001 -12c12 0 28.333 5.33301 49 16c5.33301 2.66699 11 3 17 1s10.333 -5.66699 13 -11
s3 -11 1 -17s-5.66699 -10.333 -11 -13c-27.333 -13.333 -50.666 -20 -69.999 -20s-41 7 -65 21l-42 -53l-29 -36c12.667 -8.66699 25 -13.667 37 -15c16 -2 35.667 1.33301 59 10c6 2 11.833 1.66699 17.5 -1s9.5 -6.83398 11.5 -12.501s1.66699 -11.334 -1 -17.001
s-6.66699 -9.5 -12 -11.5c-30.667 -10.667 -57.667 -14.667 -81 -12c-20.667 2.66699 -40.334 11 -59.001 25l-22 -23l29 -28c4 -4.66699 6 -10 6 -16s-2.16699 -11.167 -6.5 -15.5s-9.5 -6.5 -15.5 -6.5s-11.333 2 -16 6l-28 29l-27 -24zM674.999 671.001
c8 34.667 11.0039 76.3291 9.00391 124.996c0 4 1 8 3 12c-68.667 -32.667 -115 -56 -139 -70c-62.667 -38 -114.5 -87.167 -155.5 -147.5s-69.333 -124.666 -85 -192.999s-21.167 -140.5 -16.5 -216.5l35 31l24 21c-10.667 10 -21.334 19 -32.001 27
c-4.66699 3.33301 -7.33398 8 -8.00098 14s0.833008 11.5 4.5 16.5s8.5 7.83301 14.5 8.5s11.667 -1 17 -5c9.33301 -7.33301 19.333 -15.666 30 -24.999c-3.33301 5.33301 -4 11 -2 17c4.66699 16 8.16699 34 10.5 54s3.5 35.333 3.5 46v58c0 6 2.16699 11.167 6.5 15.5
s9.5 6.5 15.5 6.5s11.167 -2.16699 15.5 -6.5s6.5 -9.5 6.5 -15.5c0 -60.667 -2.33301 -104.334 -7 -131.001l32 41l23 28l-1 1c-5.33301 3.33301 -8.83301 7.83301 -10.5 13.5s-0.833984 11.167 2.49902 16.5c8 13.333 11.333 32 10 56c0 6.66699 -1 18.667 -3 36
c-1.33301 16 -2 28.667 -2 38c0 6 2.16699 11.167 6.5 15.5s9.5 6.5 15.5 6.5s11.167 -2.16699 15.5 -6.5s6.5 -9.5 6.5 -15.5c0 -8 0.666992 -19.333 2 -34c2 -18 3 -30.667 3 -38c0.666992 -12 0.333984 -23 -0.999023 -33l13 16l55 65
c-2.66699 2.66699 -4.33398 6.33398 -5.00098 11.001c-7.33301 70.667 -11.666 115.334 -12.999 134.001c-0.666992 6 1.16602 11.167 5.49902 15.5s9.5 6.83301 15.5 7.5s11.167 -1.16602 15.5 -5.49902s6.83301 -9.5 7.5 -15.5c1.33301 -22.667 4.66602 -57 9.99902 -103
c23.333 29.333 43 57 59 83c-11.333 4.66699 -15.333 13 -12 25zM248.003 153.996c-0.666992 8 -2.49805 22.832 -5.49805 44.499s-5 37 -6 46s-2.16699 25 -3.5 48s-0.666016 39.167 2.00098 48.5c9.33301 77.333 36.833 156.666 82.5 237.999s99.5 144 161.5 188
c7.33301 5.33301 15 10.333 23 15l22 14l26 13l23 11c4.66699 2.66699 13 6.66699 25 12l24 10l25 11c14 6 21.667 9.33301 23 10c80.667 34 139.334 66.667 176.001 98c9.33301 8 18.666 8 27.999 0c2 2.66699 4.66699 4.66699 8 6c6 2 11.667 1.66699 17 -1
s9.33301 -6.66699 12 -12c17.333 -46.667 26 -105 26 -175c0 -118 -28.333 -225.667 -85 -323c-55.333 -96.667 -134 -180 -236 -250l-16 -11c-30 -22 -60.333 -40 -91 -54c-15.333 -7.33301 -30 -13.666 -44 -18.999c-28 -10.667 -54.667 -16.667 -80 -18
c-30 -4 -60.667 -4.66699 -92 -2c-3.33301 0.666992 -6.33301 1.66699 -9 3c-2 -3.33301 -4.66699 -6 -8 -8l-52 -37c-26.667 -20 -49.5 -35.833 -68.5 -47.5s-38.5 -22.5 -58.5 -32.5c-6 -2.66699 -11.833 -3 -17.5 -1s-9.83398 5.83301 -12.501 11.5s-3 11.334 -1 17.001
s5.66699 9.83398 11 12.501c19.333 9.33301 37.666 19.333 54.999 30s39.333 25.667 66 45l53 38c-0.666992 5.33301 -1.33398 11 -2.00098 17c-0.666992 1.33301 -1 2.66602 -1 3.99902z" />
    <glyph glyph-name="ampersand" unicode="&#x26;" horiz-adv-x="564" 
d="M500 572l0.00292969 -0.993164c2 -6 1.5 -11.667 -1.5 -17s-7.5 -8.83301 -13.5 -10.5s-11.667 -1 -17 2s-8.66602 7.5 -9.99902 13.5c-2.66699 10 -5.66699 19.333 -9 28c-20.667 30.667 -42.334 48.667 -65.001 54c-6 2 -12 2.66699 -18 2l-11 -9
c-21.333 -18 -37.833 -44.333 -49.5 -79s-14.167 -67.334 -7.5 -98.001c4 -20 14.667 -38.667 32 -56s37.666 -30.333 60.999 -39c18 -6.66699 35 -9.33398 51 -8.00098c1.33301 11.333 4 22.333 8 33c2 7.33301 4.66699 14.333 8 21
c0.666992 3.33301 1.66699 6.66602 3 9.99902c6 21.333 13.333 38.666 22 51.999c13.333 20 28.333 30.333 45 31c10.667 0.666992 19.667 -2.33301 27 -9c5.33301 -5.33301 9.33301 -12.333 12 -21c2 -8.66699 2 -19.334 0 -32.001c2 -3.33301 3.66699 -7 5 -11
c4 -12 1.66699 -26.333 -7 -43c-4.66699 -8 -10.334 -16.333 -17.001 -25c-14.667 -18.667 -33.667 -32.334 -57 -41.001c5.33301 -18 24.333 -37 57 -57c3.33301 -2 5.66602 -4.33301 6.99902 -7c5.33301 -1.33301 11 -2.83301 17 -4.5s10.667 -5 14 -10
s4.16602 -10.5 2.49902 -16.5s-5 -10.667 -10 -14s-10.5 -4 -16.5 -2c-53.333 12.667 -89.333 38 -108 76c-4 8 -7 16.333 -9 25c-19.333 -0.666992 -39 1.33301 -59 6c-29.333 7.33301 -56.333 20.166 -81 38.499s-42.667 39.833 -54 64.5
c-18.667 43.333 -23.667 86.666 -15 129.999s27 78.333 55 105c18.667 17.333 39.334 28 62.001 32c24.667 12.667 48.334 13.334 71.001 2.00098c26 -12 47.333 -38.667 64 -80c3.33301 -5.33301 6.66602 -11 9.99902 -17s4 -12 2 -18zM495.003 376.007
c4.66699 4 8.66699 8.66699 12 14c2.66699 3.33301 6 12.333 10 27c-6.66699 -6 -12.667 -14.333 -18 -25zM429.003 846.007v-100c0 -6 -2.16699 -11.167 -6.5 -15.5s-9.5 -6.5 -15.5 -6.5s-11.167 2.16699 -15.5 6.5s-6.5 9.5 -6.5 15.5v100c0 6 2.16699 11.167 6.5 15.5
s9.5 6.5 15.5 6.5s11.167 -2.16699 15.5 -6.5s6.5 -9.5 6.5 -15.5zM434.003 187.007c8 -48 12.6689 -83.332 14.002 -105.999c0 -6 -2 -11.333 -6 -16s-9 -7 -15 -7s-11.333 2 -16 6s-7 9 -7 15c-0.666992 21.333 -5.33398 54.666 -14.001 99.999
c-0.666992 6 0.666016 11.5 3.99902 16.5s8 8 14 9s11.5 -0.166992 16.5 -3.5s8.16699 -8 9.5 -14z" />
    <glyph glyph-name="quotesingle" unicode="'" horiz-adv-x="115" 
d="M140 772c-7.33301 -62.667 -11.001 -136.665 -11.001 -221.998c0 -6 -2.16699 -11.167 -6.5 -15.5s-9.5 -6.5 -15.5 -6.5s-11.167 2.16699 -15.5 6.5s-6.5 9.5 -6.5 15.5c0 86.667 3.66699 162.667 11 228c0.666992 6 3.33398 10.833 8.00098 14.5
s10.167 5.16699 16.5 4.5s11.333 -3.33398 15 -8.00098s5.16699 -10.334 4.5 -17.001z" />
    <glyph glyph-name="parenleft" unicode="(" horiz-adv-x="295" 
d="M312 766c-21.333 -16.667 -38.5 -37.667 -51.5 -63s-25.833 -57 -38.5 -95c-22 -66.667 -34.833 -130.834 -38.5 -192.501s4.33301 -123.167 24 -184.5s52.167 -116 97.5 -164c4 -4 6 -9.16699 6 -15.5s-2.16699 -11.5 -6.5 -15.5s-9.66602 -6 -15.999 -6
s-11.5 2.33301 -15.5 7c-50 52.667 -85.833 112.834 -107.5 180.501s-30.5 134.5 -26.5 200.5s17.667 134 41 204c8.66699 26 16.5 47.5 23.5 64.5s17.667 36.667 32 59s30.5 40.5 48.5 54.5c5.33301 4 11 5.66699 17 5s10.833 -3.5 14.5 -8.5s5.16699 -10.5 4.5 -16.5
s-3.33398 -10.667 -8.00098 -14z" />
    <glyph glyph-name="parenright" unicode=")" horiz-adv-x="270" 
d="M146 746c23.333 -32.667 47.5 -78.667 72.5 -138s44.5 -113 58.5 -161c16 -54.667 21.333 -125 16 -211c-6 -96.667 -24.333 -165.334 -55 -206.001c-4 -4.66699 -8.5 -9.16699 -13.5 -13.5s-9 -7.5 -12 -9.5s-7.83301 -4.83301 -14.5 -8.5
s-10.334 -5.83398 -11.001 -6.50098c-5.33301 -3.33301 -10.833 -4.16602 -16.5 -2.49902s-10.167 5.16699 -13.5 10.5s-4.16602 10.833 -2.49902 16.5s5.16699 10.167 10.5 13.5c2.66699 1.33301 6.66699 3.66602 12 6.99902s9 5.5 11 6.5s4.33301 2.66699 7 5
s5 4.83301 7 7.5c26.667 34.667 42.667 95.334 48 182.001c4.66699 80.667 -0.333008 146.334 -15 197.001c-13.333 46 -32 97.5 -56 154.5s-47 100.5 -69 130.5c-3.33301 5.33301 -4.5 11 -3.5 17s4 10.667 9 14s10.5 4.5 16.5 3.5s10.667 -3.83301 14 -8.5z" />
    <glyph glyph-name="asterisk" unicode="*" horiz-adv-x="919" 
d="M744 469c-6 -18.667 -11.332 -37 -15.999 -55l122 -182c31.333 -48.667 54.333 -87.667 69 -117c9.33301 -18 16 -33 20 -45c2.66699 -7.33301 4.33398 -13.666 5.00098 -18.999c1.33301 -8.66699 0 -16.167 -4 -22.5s-10 -9.83301 -18 -10.5
c-2.66699 -0.666992 -5.33398 -0.333984 -8.00098 0.999023c-2 0 -4.33301 0.666992 -7 2s-6.66699 3.66602 -12 6.99902c-11.333 6.66699 -18.333 10.667 -21 12h-1c-11.333 1.33301 -25.333 5.33301 -42 12c-22.667 10 -54.334 27.667 -95.001 53
c-40 18.667 -73 35.667 -99 51c-1.33301 0.666992 -14 9 -38 25l-5 3c-0.666992 -0.666992 -1.66699 -1.33398 -3 -2.00098c-6 -6.66699 -13 -16 -21 -28c-10 -14 -23.333 -35.667 -40 -65l-17 -31c-26.667 -48.667 -46.334 -82.334 -59.001 -101.001
c-10.667 -15.333 -20 -27 -28 -35c-14 -13.333 -27.333 -18 -40 -14c-5.33301 1.33301 -9.66602 4.66602 -12.999 9.99902c-1.33301 1.33301 -2.66602 3.33301 -3.99902 6s-2.66602 6.66699 -3.99902 12l-5 21c-0.666992 1.33301 -1.33398 2.33301 -2.00098 3
c-5.33301 10 -10 23.333 -14 40c-5.33301 23.333 -9.66602 58.333 -12.999 105c-0.666992 8 -1.33398 18.333 -2.00098 31l-19 122c-6.66699 1.33301 -17.334 2.33301 -32.001 3l-97 5c-48 2.66699 -82.333 5.33398 -103 8.00098c-16.667 2.66699 -30.667 5.66699 -42 9
c-14.667 4.66699 -25.334 11 -32.001 19c-10.667 12 -13.334 27 -8.00098 45c4 12 12 25 24 39c16.667 20.667 44.667 46.334 84 77.001l93 71c15.333 11.333 26.666 20.333 33.999 27c8 6.66699 12.667 11 14 13c4 6.66699 7.33301 18 10 34
c4.66699 24 7.66699 38.667 9 44c8 27.333 23.333 68 46 122c12 30 22.667 53.667 32 71c5.33301 11.333 10.333 20 15 26c2.66699 4 5.33398 7.33301 8.00098 10c4.66699 4.66699 9.66699 7.33398 15 8.00098c7.33301 2 14.333 1.33301 21 -2
c7.33301 0.666992 14.333 -1.66602 21 -6.99902c4 -2.66699 7.66699 -6.66699 11 -12c5.33301 -6.66699 11.333 -16.667 18 -30c11.333 -21.333 25 -51.333 41 -90l42 -107c6.66699 1.33301 15.334 4 26.001 8c20.667 7.33301 51.334 22 92.001 44
c63.333 34 96 51.333 98 52c16.667 7.33301 30.667 13 42 17c15.333 4.66699 28 5.66699 38 3c8.66699 -2 16.167 -6.83301 22.5 -14.5s9.5 -16.167 9.5 -25.5c0 -14.667 -6 -30.334 -18 -47.001c-13.333 -18.667 -20.333 -28 -21 -28l-3 -6c-2.66699 -12 -6 -25 -10 -39
c-18.667 -66 -33.667 -108 -45 -126c-5.33301 -7.33301 -12.333 -10.666 -21 -9.99902zM422.001 303c-10.667 -26.667 -18.335 -47.3369 -23.002 -62.0039c-1.33301 -6 -4.66602 -10.5 -9.99902 -13.5s-11 -3.5 -17 -1.5c-2 0.666992 -4 1.66699 -6 3
c0.666992 -4.66699 1.33398 -9.66699 2.00098 -15c1.33301 -13.333 3 -37.666 5 -72.999l10 -61l17 -100c1.33301 0.666992 3 1.66699 5 3c6 4.66699 13 12.334 21 23.001c12 14.667 29.667 42.334 53 83.001l12 21l38 71l20 36c3.33301 4.66699 6 8.66699 8 12
c2 2 4 3.66699 6 5c3.33301 3.33301 7.33301 5.66602 12 6.99902c2.66699 0 5 -0.166992 7 -0.5s3.66699 -0.5 5 -0.5l2 -1l4 -2c1.33301 -0.666992 3.66602 -2 6.99902 -4c4 0 8.33301 -0.666992 13 -2c4 -2 9 -4.33301 15 -7c9.33301 -4.66699 21.333 -11.667 36 -21
l93 -59l14 -7l85 -39v1l-32 56l-56 94c-30 51.333 -52.667 91.333 -68 120h-3c-6 1.33301 -10.667 4.5 -14 9.5s-4.66602 10.5 -3.99902 16.5l2 10l-4 9c-6.66699 -4.66699 -13.667 -5.33398 -21 -2.00098c-6 2 -10.167 5.83301 -12.5 11.5s-2.16602 11.167 0.500977 16.5
c2.66699 8.66699 6.33398 17.334 11.001 26.001c-1.33301 5.33301 -0.833008 10.333 1.5 15s6.16602 8 11.499 10v1c7.33301 12.667 21.666 35.334 42.999 68.001c27.333 41.333 46 71.666 56 90.999c-10 -4 -25.667 -11 -47 -21l-54 -23c-14 -6 -31 -12 -51 -18
s-38.667 -10 -56 -12h-2c-0.666992 -8.66699 -5 -14.667 -13 -18c-6 -2.66699 -11.833 -2.83398 -17.5 -0.500977s-9.66699 6.33301 -12 12s-6.5 16.834 -12.5 33.501c-3.33301 1.33301 -6 3.33301 -8 6c-8 8.66699 -18.333 28.334 -31 59.001l-34 84
c-12 28 -21.667 49.667 -29 65l-5 -11c-13.333 -27.333 -29.333 -63 -48 -107c-40.667 -98.667 -64.667 -161 -72 -187c-1.33301 -5.33301 -4.33301 -9.5 -9 -12.5s-9.66699 -4.16699 -15 -3.5c-10.667 -5.33301 -25 -15 -43 -29c-20.667 -15.333 -44 -34.333 -70 -57
c-22 -19.333 -41.667 -37.333 -59 -54l70 -16c75.333 -16.667 128 -28 158 -34l1 -1c4 4.66699 8.66699 7.66699 14 9c6 0.666992 11.5 -0.666016 16.5 -3.99902s8.16699 -8 9.5 -14l2 -11c4 -5.33301 7.33301 -13 10 -23c4.66699 14 12.667 34.667 24 62l-40 22
c-5.33301 2.66699 -9 6.83398 -11 12.501s-1.5 11.167 1.5 16.5s7.33301 9 13 11s11.167 1.33301 16.5 -2l36 -19c4 11.333 7.33301 21.666 10 30.999c1.33301 6 4.66602 10.5 9.99902 13.5s11 3.66699 17 2s10.5 -5.16699 13.5 -10.5s3.5 -11 1.5 -17
c-3.33301 -12 -7.66602 -25.667 -12.999 -41l41 -26c5.33301 -3.33301 8.5 -7.83301 9.5 -13.5s-0.166992 -11.167 -3.5 -16.5s-7.83301 -8.5 -13.5 -9.5s-11.167 0.166992 -16.5 3.5zM560 373.997c-4.66699 -15.333 -8.66895 -31.334 -12.002 -48.001
c-1.33301 -6 -4.66602 -10.667 -9.99902 -14s-10.833 -4.5 -16.5 -3.5s-10.167 4.16699 -13.5 9.5s-4.66602 10.666 -3.99902 15.999c5.33301 24 11.666 46.667 18.999 68c-8 5.33301 -16 10.333 -24 15c-5.33301 2.66699 -8.83301 7 -10.5 13s-1 11.667 2 17
s7.5 8.83301 13.5 10.5s11.667 0.833984 17 -2.49902l19 -11c6.66699 14 14 28 22 42c3.33301 5.33301 7.83301 8.83301 13.5 10.5s11.167 0.833984 16.5 -2.49902s8.83301 -7.83301 10.5 -13.5s0.833984 -11.167 -2.49902 -16.5c-8.66699 -15.333 -16.667 -31 -24 -47
c34.667 -26 53 -39.667 55 -41c4.66699 -3.33301 7.5 -8 8.5 -14s-0.166992 -11.5 -3.5 -16.5s-8 -8 -14 -9s-11.667 0.166992 -17 3.5z" />
    <glyph glyph-name="plus" unicode="+" horiz-adv-x="950" 
d="M179 341l-6 -4c2 0.666992 4 1 6 1v3zM138 502l4 -2l-1 3l-1 3zM54 338l0.000976562 -1h2c-0.666992 0 -1.33398 0.333008 -2.00098 1zM387.001 536c-2.66699 -8.66699 -7.33203 -22.666 -13.999 -41.999c-7.33301 -24 -13.333 -42.333 -18 -55
c-15.333 -40.667 -33 -71.667 -53 -93c37.333 1.33301 86 0.666016 146 -2.00098c-16.667 62.667 -29.334 106.667 -38.001 132c-8 25.333 -15.667 45.333 -23 60zM888.003 486.001l-3 -10.001c-17.333 -60 -36 -111.333 -56 -154c4.66699 0 18 -0.166992 40 -0.5
s39 -0.833008 51 -1.5l-2 6c0 2.66699 -2.66699 19.334 -8 50.001s-10.333 56 -15 76zM-2.99707 319c11.333 26.667 32.333 69.999 63 129.999c16.667 32.667 30 57.334 40 74.001c6 10.667 11 19 15 25c3.33301 4 6 7 8 9c6 6 12.667 9 20 9s13.666 -3 18.999 -9
c3.33301 -2.66699 6.33301 -6.66699 9 -12c4 -6.66699 8 -16 12 -28c7.33301 -19.333 14.666 -45 21.999 -77c6.66699 -28.667 11.667 -54.667 15 -78c2 -11.333 3.33301 -20.666 4 -27.999v-11c0 -2 -0.333008 -4 -1 -6c-1.33301 -5.33301 -3.66602 -9.33301 -6.99902 -12
c-4.66699 -4 -11.334 -7 -20.001 -9c-5.33301 -0.666992 -11.666 -1.33398 -18.999 -2.00098c-12.667 -1.33301 -29.334 -2 -50.001 -2c-13.333 0 -30 0.166992 -50 0.5s-30.667 0.5 -32 0.5c-4 0 -7.66699 1 -11 3c-7.33301 -8.66699 -16 -10.667 -26 -6
c-5.33301 2 -9.16602 5.83301 -11.499 11.5s-2.16602 11.5 0.500977 17.5zM264.003 369.999c18.667 17.333 35.333 45.665 50 84.998l18 52c7.33301 24.667 13 42.334 17 53.001c0.666992 0 1 0.333008 1 1c0 2.66699 0.333008 5.66699 1 9c2 14 8.66699 23 20 27
c12.667 5.33301 24.667 2.33301 36 -9c5.33301 -6 11 -14.667 17 -26c8.66699 -16 18 -40 28 -72c7.33301 -24 20.333 -69.667 39 -137c2 -6.66699 1 -13 -3 -19c2.66699 -4 4 -8.66699 4 -14c0 -6 -2.33301 -11 -7 -15s-10 -6 -16 -6c-84 4 -148 4.33301 -192 1
c-6.66699 -0.666992 -12.167 1 -16.5 5s-6.83301 9 -7.5 15c-0.666992 8.66699 2.33301 15.334 9 20.001c-3.33301 4 -5 9 -5 15s2.33301 11 7 15zM524.002 364.998c28.667 28 59.001 78.333 91.001 151c0.666992 2 1.16699 4 1.5 6s1 4.83301 2 8.5s1.83301 7.5 2.5 11.5
c4.66699 18.667 14 31 28 37c13.333 4.66699 25.333 1.66699 36 -9c6 -6 12 -14.667 18 -26c8 -16.667 16 -41 24 -73c4.66699 -17.333 11 -43.333 19 -78c6.66699 -29.333 10.667 -46.333 12 -51c2 -5.33301 1.66699 -10.666 -1 -15.999h1
c6 -0.666992 11 -3.33398 15 -8.00098s5.66699 -10 5 -16s-3.33398 -11 -8.00098 -15s-10 -5.66699 -16 -5c-26 2.66699 -59.333 5 -100 7c-53.333 2 -87 3.33301 -101 4c-6.66699 0.666992 -12 3.16699 -16 7.5s-5.66699 9.5 -5 15.5c0 4 1.33301 7.66699 4 11
c-4.66699 1.33301 -8.66699 3.33301 -12 6c-4 4.66699 -6 10 -6 16s2 11.333 6 16zM781.003 324.998c22 44 42.668 98.3311 62.001 162.998c0 0.666992 2 7.66699 6 21s7 23 9 29l-1 2v4v5c0 6 1 11 3 15c4.66699 12 13.667 17.333 27 16
c6.66699 -1.33301 12.667 -4.66602 18 -9.99902c2 -3.33301 4.33301 -7 7 -11c2.66699 -6.66699 5.66699 -15.334 9 -26.001c5.33301 -17.333 11 -41.333 17 -72c4.66699 -20.667 9.66699 -46.334 15 -77.001s8.33301 -47.334 9 -50.001
c1.33301 -7.33301 -0.666992 -13.666 -6 -18.999l2 -1c6 -1.33301 10.5 -4.5 13.5 -9.5s3.83301 -10.5 2.5 -16.5s-4.5 -10.5 -9.5 -13.5s-10.5 -3.83301 -16.5 -2.5c-12 2.66699 -25.333 4.33398 -40 5.00098s-28.334 0.833984 -41.001 0.500977
s-27.667 -0.166016 -45 0.500977c-10 0.666992 -16.667 5.66699 -20 15c-4 0 -7.66699 0.666992 -11 2c-5.33301 2.66699 -9 7 -11 13s-1.66699 11.667 1 17z" />
    <glyph glyph-name="comma" unicode="," horiz-adv-x="145" 
d="M156 115c0.666992 -9.33301 2.66602 -22.002 5.99902 -38.002l7 -40c4 -34 -1 -63.667 -15 -89c-2.66699 -5.33301 -6.83398 -9 -12.501 -11s-11.167 -1.5 -16.5 1.5s-9 7.33301 -11 13s-1.33301 11.167 2 16.5c9.33301 17.333 12.333 38.666 9 63.999
c-0.666992 6.66699 -2.66699 18.834 -6 36.501s-5.66602 31.834 -6.99902 42.501c-0.666992 6 1 11.333 5 16s9 7.33398 15 8.00098s11.333 -1 16 -5s7.33398 -9 8.00098 -15z" />
    <glyph glyph-name="hyphen" unicode="-" horiz-adv-x="193" 
d="M46 346c56 13.333 106 20 150 20c6 0 11.167 -2.16699 15.5 -6.5s6.5 -9.5 6.5 -15.5s-2.16699 -11.167 -6.5 -15.5s-9.5 -6.5 -15.5 -6.5c-39.333 0 -86 -6 -140 -18c-6 -1.33301 -11.5 -0.5 -16.5 2.5s-8.16699 7.5 -9.5 13.5s-0.5 11.5 2.5 16.5s7.5 8.16699 13.5 9.5
z" />
    <glyph glyph-name="period" unicode="." horiz-adv-x="200" 
d="M148 60l3 -4l5 9l-5 -4c-1.33301 0 -2.33301 -0.333008 -3 -1zM52 127c16 2.66699 41.002 5.66699 75.002 9l73 7c6 0.666992 11.5 -0.833008 16.5 -4.5s7.83301 -8.5 8.5 -14.5s-1 -11.333 -5 -16c7.33301 -9.33301 7.33301 -18.666 0 -27.999
c-8.66699 -10.667 -19.667 -27 -33 -49c-14.667 -24.667 -26.667 -42.667 -36 -54c-4 -4.66699 -9 -7.33398 -15 -8.00098s-11.333 1 -16 5c-3.33301 2.66699 -5.66602 6 -6.99902 10l-3 3c-32 36 -56.667 61 -74 75c-4.66699 4 -7.33398 9 -8.00098 15s1 11.333 5 16
c0.666992 1.33301 1.66699 2.33301 3 3c-0.666992 1.33301 -1.33398 3 -2.00098 5c-0.666992 6 0.666016 11.5 3.99902 16.5s8 8.16699 14 9.5z" />
    <glyph glyph-name="slash" unicode="/" horiz-adv-x="378" 
d="M38 39c15.333 48 34.166 96.334 56.499 145.001s50.833 106 85.5 172l70 136c42 85.333 79.667 152.666 113 201.999c3.33301 5.33301 8 8.5 14 9.5s11.5 -0.166992 16.5 -3.5s8 -8 9 -14s-0.166992 -11.333 -3.5 -16c-32 -48 -68.333 -114 -109 -198l-72 -138
c-34 -64.667 -61.667 -120.5 -83 -167.5s-39.666 -94.167 -54.999 -141.5c-2 -5.33301 -5.66699 -9.5 -11 -12.5s-10.833 -3.5 -16.5 -1.5s-10 5.66699 -13 11s-3.5 11 -1.5 17z" />
    <glyph glyph-name="zero" unicode="0" horiz-adv-x="592" 
d="M313 487c-4 -2.66699 -7.66602 -6.00098 -10.999 -10.001c-2.66699 -2.66699 -10.334 -14.334 -23.001 -35.001c-18 -28 -31.167 -57.833 -39.5 -89.5s-10.166 -60.167 -5.49902 -85.5c10.667 -57.333 52 -87.666 124 -90.999c46 -2 81 1.33301 105 10
c52 18.667 86 48.334 102 89.001c14 36 12 74 -6 114c-18.667 40.667 -48.834 71 -90.501 91s-87.167 21.333 -136.5 4c-6.66699 -2 -13 -1 -19 3zM338.001 531.999c57.333 14.667 109.667 9.33105 157 -16.002s82 -61.333 104 -108
c23.333 -51.333 25.666 -101 6.99902 -149c-20.667 -53.333 -63.667 -91.666 -129 -114.999c-29.333 -10 -69.666 -14 -120.999 -12c-48 2 -85.833 14.5 -113.5 37.5s-44.834 52.833 -51.501 89.5c-6 32 -4.33301 66.333 5 103c10 36.667 25 71.334 45 104.001
c14 22 23.333 35.667 28 41c10.667 12 26 21.667 46 29c8.66699 4 16.334 2.66699 23.001 -4z" />
    <glyph glyph-name="one" unicode="1" horiz-adv-x="317" 
d="M328 442c0 -7.33301 1.00098 -77.332 3.00098 -209.999c1.33301 -84 5 -153.333 11 -208c0.666992 -6 -1 -11.333 -5 -16s-9 -7.33398 -15 -8.00098s-11.333 1 -16 5s-7.33398 9 -8.00098 15c-6 56 -9.66699 126.333 -11 211c-2 132 -3 201.667 -3 209c0 6 2 11.333 6 16
s9 7 15 7s11.333 -2 16 -6s7 -9 7 -15z" />
    <glyph glyph-name="two" unicode="2" horiz-adv-x="422" 
d="M173 45c2.66699 0.666992 5.99902 1.99805 9.99902 3.99805c11.333 6 25.333 16.667 42 32c14.667 13.333 28.334 27.333 41.001 42c-4 2.66699 -8.33301 4.33398 -13 5.00098c-8 1.33301 -18.167 -1.16699 -30.5 -7.5s-23.5 -15.166 -33.5 -26.499
c-18 -20.667 -23.333 -37 -16 -49zM155.999 476.998c26 32 42.0049 50.3359 48.0049 55.0029c14.667 12 33.667 23.5 57 34.5s46.333 18.5 69 22.5c28.667 4.66699 52.667 2 72 -8c24 -12.667 38.333 -35 43 -67c7.33301 -55.333 -1.33398 -118.166 -26.001 -188.499
s-55 -135.5 -91 -195.5c-1.33301 -2.66699 -3.66602 -6 -6.99902 -10c4 -8 7.33301 -17.333 10 -28c2.66699 -10 4.66699 -20.833 6 -32.5s2.5 -24 3.5 -37s1.83301 -20.833 2.5 -23.5c0.666992 -6.66699 -0.833008 -12.334 -4.5 -17.001s-8.66699 -7.33398 -15 -8.00098
s-11.833 0.833008 -16.5 4.5s-7.33398 8.5 -8.00098 14.5c-0.666992 5.33301 -1.5 14.166 -2.5 26.499s-2.16699 23.5 -3.5 33.5s-3 19.667 -5 29c-11.333 -12 -22.666 -23.333 -33.999 -34c-19.333 -17.333 -36.333 -30 -51 -38c-10 -5.33301 -19 -8.33301 -27 -9
c-12.667 -1.33301 -23.334 2 -32.001 10c-10.667 11.333 -16.5 24.5 -17.5 39.5s1.33301 28.167 7 39.5s13.167 22.333 22.5 33c14 15.333 30.5 28 49.5 38s36.833 13.667 53.5 11c13.333 -2 24.666 -6.66699 33.999 -14c34 57.333 62.167 118.166 84.5 182.499
s30.166 120.166 23.499 167.499c-2 16.667 -8.33301 27.834 -19 33.501s-25.667 6.83398 -45 3.50098c-18.667 -2.66699 -37.834 -8.83398 -57.501 -18.501s-35.5 -19.167 -47.5 -28.5c-4 -3.33301 -18 -19.666 -42 -48.999c-4 -4.66699 -9 -7.33398 -15 -8.00098
s-11.333 1 -16 5s-7.33398 9 -8.00098 15s1 11.333 5 16z" />
    <glyph glyph-name="three" unicode="3" horiz-adv-x="481" 
d="M373 262c-5.33301 0.666992 -11.667 0.666992 -19 0c-15.333 -1.33301 -30.666 -4.83301 -45.999 -10.5s-26 -12.167 -32 -19.5c-2.66699 -3.33301 -3 -7 -1 -11l1 -1l3 -0.5c2 -0.333008 4.66699 -0.166016 8 0.500977c11.333 1.33301 25.666 6.66602 42.999 15.999
c14 7.33301 28.333 16 43 26zM229.999 566c62 28.667 116.34 38.667 163.007 30c44.667 -8 76.667 -32 96 -72c17.333 -34.667 21.5 -75.667 12.5 -123s-29.5 -92.666 -61.5 -135.999c6.66699 -10 13 -23 19 -39c22 -55.333 9.66699 -108.666 -37 -159.999
c-32.667 -36 -77.334 -66.667 -134.001 -92c-5.33301 -2.66699 -10.833 -2.83398 -16.5 -0.500977s-9.83398 6.16602 -12.501 11.499s-2.83398 10.833 -0.500977 16.5s6.16602 9.83398 11.499 12.501c51.333 23.333 91 50.333 119 81c34.667 38 44.667 76.333 30 115
c-4 9.33301 -7.66699 17 -11 23c-18.667 -14 -38 -26 -58 -36c-22 -11.333 -41 -18.333 -57 -21c-26.667 -3.33301 -45.334 4.33398 -56.001 23.001c-12.667 21.333 -11 42 5 62c10.667 12.667 27.334 23.334 50.001 32.001c19.333 7.33301 39 11.666 59 12.999
c22.667 2 40 -0.666992 52 -8l5 -3c26.667 38 43.5 76.667 50.5 116s4.16699 70.666 -8.5 93.999c-13.333 26.667 -35 42.667 -65 48c-37.333 6.66699 -83 -2.33301 -137 -27c-5.33301 -2.66699 -10.833 -2.83398 -16.5 -0.500977s-9.83398 6.16602 -12.501 11.499
s-2.83398 10.833 -0.500977 16.5s6.16602 9.83398 11.499 12.501z" />
    <glyph glyph-name="four" unicode="4" horiz-adv-x="609" 
d="M458 568c-30.667 -32.667 -78.666 -96.667 -143.999 -192c-29.333 -43.333 -52.333 -79 -69 -107c-7.33301 -13.333 -13 -24.333 -17 -33c1.33301 0 2.66602 -0.333008 3.99902 -1c10.667 -2.66699 24.667 -4.66699 42 -6c30.667 -3.33301 72.667 -5.33301 126 -6
c40 -0.666992 81.333 -0.333984 124 0.999023c1.33301 94.667 2 191 2 289c0 6 2.16699 11.167 6.5 15.5s9.5 6.5 15.5 6.5s11.167 -2.16699 15.5 -6.5s6.5 -9.5 6.5 -15.5c0 -97.333 -0.666992 -193.333 -2 -288c17.333 0.666992 31.666 1.33398 42.999 2.00098
c6 0 11.333 -2 16 -6s7 -9 7 -15s-2 -11.333 -6 -16s-9 -7 -15 -7c-11.333 -0.666992 -26.666 -1.33398 -45.999 -2.00098c-0.666992 -58.667 -1.66699 -116.667 -3 -174c0 -6 -2.16699 -11 -6.5 -15s-9.66602 -6 -15.999 -6s-11.5 2.16699 -15.5 6.5s-6 9.83301 -6 16.5
c1.33301 56 2.33301 113 3 171c-42.667 -1.33301 -84 -1.66602 -124 -0.999023c-54.667 0.666992 -97.667 2.66699 -129 6c-20 2 -36.333 4.66699 -49 8c-16.667 4 -28.334 10 -35.001 18c-5.33301 6.66699 -7 15 -5 25c1.33301 4.66699 3.33301 10 6 16
c4 10 10.667 23 20 39c17.333 29.333 41 66 71 110c66.667 97.333 116 163 148 197c4 4.66699 9 7 15 7s11.333 -2 16 -6s7 -9 7 -15s-2 -11.333 -6 -16z" />
    <glyph glyph-name="five" unicode="5" horiz-adv-x="525" 
d="M527 488c-28.667 1.33301 -79.3369 -3 -152.004 -13c-37.333 -5.33301 -67.666 -10.666 -90.999 -15.999c-12 -3.33301 -21.667 -6.66602 -29 -9.99902c-3.33301 -1.33301 -6 -2.66602 -8 -3.99902c-0.666992 -3.33301 -1 -7.33301 -1 -12
c-0.666992 -8.66699 -1 -20.334 -1 -35.001c0.666992 -7.33301 1.33398 -19.333 2.00098 -36s1 -27.334 1 -32.001v-11v-13c8 4 15.667 7.33301 23 10c48 16 90.667 7.33301 128 -26c32 -28.667 50 -66.334 54 -113.001c5.33301 -66 -17.667 -113 -69 -141
c-35.333 -19.333 -86 -29 -152 -29c-6 0 -11.167 2.16699 -15.5 6.5s-6.5 9.5 -6.5 15.5s2.16699 11.167 6.5 15.5s9.5 6.5 15.5 6.5c58.667 0 102.334 8 131.001 24c34.667 18.667 50 51.334 46 98.001c-2.66699 35.333 -16 63.666 -40 84.999s-52 26.666 -84 15.999
c-8.66699 -2.66699 -20 -8 -34 -16c-7.33301 -4 -12.333 -6.33301 -15 -7c-2.66699 -1.33301 -5.33398 -2.33301 -8.00098 -3c-5.33301 -1.33301 -10.666 -1.33301 -15.999 0c-11.333 4.66699 -17 13 -17 25c0.666992 4.66699 2 9.66699 4 15
c0.666992 0.666992 1.33398 1.83398 2.00098 3.50098s1.33398 2.83398 2.00098 3.50098v1c0.666992 2.66699 1 14 1 34c0 5.33301 -0.333008 15.833 -1 31.5s-1.33398 27.5 -2.00098 35.5c0 16 0.333008 29 1 39c1.33301 15.333 4.33301 26.666 9 33.999s13.667 14 27 20
c9.33301 4 21.333 7.66699 36 11c24.667 6.66699 56.334 12.667 95.001 18c75.333 10 128.666 14.333 159.999 13c6 0 11 -2.33301 15 -7s6 -10 6 -16s-2.33301 -11 -7 -15s-10 -6 -16 -6z" />
    <glyph glyph-name="six" unicode="6" horiz-adv-x="608" 
d="M514 54c32 5.33301 54.335 21.667 67.002 49c3.33301 7.33301 5.66602 14.333 6.99902 21s1.66602 11 0.999023 13c-5.33301 12.667 -12 19.667 -20 21c-8 0.666992 -17 -3 -27 -11c-12 -9.33301 -21 -22.5 -27 -39.5s-6.33301 -34.5 -1 -52.5v-1zM427.002 583.001
c-7.33301 -2.66699 -13.832 -5.66602 -19.499 -8.99902s-11.334 -9 -17.001 -17s-9.66699 -13.833 -12 -17.5s-6.83301 -12.334 -13.5 -26.001s-11.334 -22.5 -14.001 -26.5c-26 -50 -43.333 -98.167 -52 -144.5s-5.66699 -92.5 9 -138.5s43 -85.333 85 -118
c22 -16.667 47.333 -27.334 76 -32.001c-4.66699 25.333 -2.66699 49.5 6 72.5s21.667 41.167 39 54.5c20 16.667 40.333 23.334 61 20.001c24.667 -3.33301 42.667 -18.666 54 -45.999c4.66699 -11.333 5.33398 -24.666 2.00098 -39.999c-2 -10 -5.33301 -20 -10 -30
c-11.333 -24.667 -27.666 -43.334 -48.999 -56.001s-45 -19.667 -71 -21c-50 -2 -95.333 12.667 -136 44c-37.333 28.667 -65.5 62 -84.5 100s-28.667 77.333 -29 118s4.66699 80.5 15 119.5s25.833 78.167 46.5 117.5c0.666992 2 4.5 10 11.5 24s12.167 23.833 15.5 29.5
s8.83301 13.667 16.5 24s16.167 18.666 25.5 24.999s19.666 11.5 30.999 15.5c6 2 11.667 1.66699 17 -1s9 -7 11 -13s1.66699 -11.667 -1 -17s-7 -9 -13 -11z" />
    <glyph glyph-name="seven" unicode="7" horiz-adv-x="469" 
d="M178 544c4.66699 0 14.3301 1.33301 28.9971 4l58 10c24 4.66699 45 8.33398 63 11.001c39.333 6.66699 70.333 10.334 93 11.001c14.667 0.666992 26.334 0.333984 35.001 -0.999023c16 -2.66699 26.333 -9 31 -19c8 -14 9.66699 -36.333 5 -67
c-1.33301 -8 -3.33301 -18.833 -6 -32.5s-4 -20.834 -4 -21.501c-22.667 -125.333 -28.667 -252.666 -18 -381.999c0.666992 -6 -1 -11.333 -5 -16s-9 -7.33398 -15 -8.00098s-11.333 1 -16 5s-7.33398 9 -8.00098 15c-11.333 133.333 -5.33301 264.666 18 393.999
c0.666992 0.666992 2.33398 7.5 5.00098 20.5s4.33398 23.833 5.00098 32.5c2.66699 16 3.33398 27.667 2.00098 35h-1c-6 1.33301 -14.667 1.66602 -26 0.999023c-20.667 -0.666992 -50 -4 -88 -10l-61 -10l-61 -12c-16 -2.66699 -27 -4 -33 -4s-11.333 2 -16 6s-7 9 -7 15
s2 11.333 6 16s9 7 15 7z" />
    <glyph glyph-name="eight" unicode="8" horiz-adv-x="612" 
d="M236 494c0.666992 -2 6.00195 -16.668 16.002 -44.001c9.33301 -26.667 15.666 -48.667 18.999 -66c5.33301 -21.333 12 -55.666 20 -102.999c4 -0.666992 8.33301 -1 13 -1h12c8 8 15.333 14.667 22 20c4.66699 3.33301 10 4.5 16 3.5s11 -3.83301 15 -8.5
c2 -2.66699 3.33301 -6 4 -10c24 4.66699 46 11.667 66 21c21.333 9.33301 39.666 21 54.999 35c-0.666992 6 -2.66699 18.333 -6 37l-6 38c-1.33301 8 -3.5 19.667 -6.5 35s-5.66699 28 -8 38s-5.33301 21.5 -9 34.5s-7.5 25.5 -11.5 37.5
c0 1.33301 -0.333008 2.33301 -1 3c-2.66699 1.33301 -5.33398 2.33301 -8.00098 3c-32.667 7.33301 -64.167 4.5 -94.5 -8.5s-66.166 -34.5 -107.499 -64.5zM512.002 248.999c-22 6 -45.665 8.00293 -70.998 6.00293c-3.33301 0 -6.33301 0.333008 -9 1
c-30.667 -10.667 -62.334 -17.334 -95.001 -20.001c-10.667 -13.333 -20.667 -28.333 -30 -45c13.333 -58 31.333 -104.333 54 -139c4 -5.33301 5 -11 3 -17c5.33301 -0.666992 10.333 -1 15 -1c48 -2.66699 87 1 117 11c4.66699 1.33301 8.16699 2.66602 10.5 3.99902
s4.16602 2.66602 5.49902 3.99902s4 3.66602 8 6.99902l12 11c6 4.66699 11.333 9.33398 16 14.001c-4.66699 25.333 -12.667 62 -24 110zM202.004 459.002l-1 3l-2 -6zM204.004 368.002c-3.33301 24 -6.66602 44.667 -9.99902 62c-4.66699 -27.333 -5.66699 -51 -3 -71
c3.33301 4.66699 7.66602 7.66699 12.999 9zM563.004 342.002c6.66699 -3.33301 10.6689 -9.00195 12.002 -17.002c2.66699 -18.667 6.66699 -39.334 12 -62.001c15.333 -11.333 27.666 -24.666 36.999 -39.999c16 -28 18.5 -58.667 7.5 -92s-34.833 -64.666 -71.5 -93.999
l-11 -11c-6 -5.33301 -11.833 -9.83301 -17.5 -13.5s-12.834 -6.83398 -21.501 -9.50098c-35.333 -11.333 -79.666 -15.666 -132.999 -12.999c-66.667 3.33301 -110.334 19.666 -131.001 48.999c-18 26 -20.333 61.333 -7 106c-4 18.667 -14 57.667 -30 117
c-21.333 13.333 -37.666 31 -48.999 53c-10 22 -14.667 47 -14 75c0 26.667 4.33301 55.334 13 86.001s20.667 58 36 82s33 40 53 48c6 2 11.833 1.66699 17.5 -1s9.5 -6.66699 11.5 -12c2 -6.66699 1.33301 -13 -2 -19c61.333 36.667 119 48.334 173 35.001
c26.667 -6 54 -22.667 82 -50c53.333 -52 70.666 -107.667 51.999 -167c-4.66699 -14.667 -11.667 -28.667 -21 -42zM526.006 483c0.666992 -2 1.33301 -3.66602 2 -4.99902l16 -55c3.33301 25.333 -3.33398 50.666 -20.001 75.999c0.666992 -6 1.33398 -11.333 2.00098 -16
z" />
    <glyph glyph-name="nine" unicode="9" horiz-adv-x="586" 
d="M544 376c-36.667 -38.667 -82 -68.335 -136 -89.002c-44.667 -16.667 -100 -18.334 -166 -5.00098c-73.333 14.667 -122 42.667 -146 84c-15.333 26 -23 52.167 -23 78.5s6.16699 51 18.5 74s27.833 44.167 46.5 63.5c19.333 18.667 41.333 35.667 66 51
c36.667 22.667 76 40.667 118 54s81.333 19.333 118 18c4 8.66699 10.667 13 20 13c35.333 0 64.666 -8.66699 87.999 -26s40.333 -40.333 51 -69l1 -4c2.66699 -3.33301 4 -7.33301 4 -12c12.667 -49.333 9.33398 -101 -9.99902 -155
c-2.66699 -24 -4.33398 -44.667 -5.00098 -62c-0.666992 -8.66699 -1.16699 -25.5 -1.5 -50.5s-1 -50.333 -2 -76s-2.83301 -49.5 -5.5 -71.5c-4 -44 -10.333 -80.667 -19 -110c-11.333 -37.333 -27 -64 -47 -80c-4.66699 -4 -10 -5.66699 -16 -5s-11 3.33398 -15 8.00098
s-5.66699 10 -5 16s3.33398 11 8.00098 15c13.333 10.667 24.333 30.334 33 59.001c8 26.667 14 60.334 18 101.001c2 22.667 4.33301 82.667 7 180zM492 651.999c-30 12 -70.3311 12.6689 -120.998 2.00195c-50 -10.667 -97.667 -30 -143 -58
c-31.333 -19.333 -56 -40.333 -74 -63c-18.667 -22.667 -30.334 -46.334 -35.001 -71.001s0.333008 -49.334 15 -74.001c17.333 -29.333 56 -50.333 116 -63c58.667 -11.333 106 -10 142 4c34.667 12.667 66.834 31 96.501 55s50.167 50 61.5 78l4 39
c4 41.333 6 74.666 6 99.999c-0.666992 2.66699 -1.33398 5 -2.00098 7c-8.66699 23.333 -22 40.333 -40 51c-6.66699 -9.33301 -15.334 -11.666 -26.001 -6.99902z" />
    <glyph glyph-name="colon" unicode=":" horiz-adv-x="172" 
d="M136 52c-4.66699 3.33301 -8.66699 7.00195 -12 11.002c-8 10 -12.667 20.333 -14 31c-0.666992 13.333 3.66602 26 12.999 38c8.66699 10.667 20.334 13.334 35.001 8.00098c6 -2 11.667 -5.33301 17 -10c10 -6.66699 16.333 -14.334 19 -23.001c4 -8.66699 4 -18 0 -28
c-0.666992 -2.66699 -2 -5.33398 -4 -8.00098c6.66699 -6.66699 8.66699 -14.334 6 -23.001c-2 -5.33301 -5.66699 -9.5 -11 -12.5s-11 -3.5 -17 -1.5c-4 1.33301 -8 3 -12 5c-4 0 -7.83301 1.16699 -11.5 3.5s-6.5 5.5 -8.5 9.5zM162 479.002
c0 -6 -2.16699 -11.167 -6.5 -15.5s-9.5 -6.5 -15.5 -6.5s-11.333 2.33301 -16 7c-1.33301 1.33301 -2.33301 3 -3 5c-0.666992 0 -1.66699 0.333008 -3 1c-4 4.66699 -6 10 -6 16s2.16699 11.167 6.5 15.5s9.5 6.5 15.5 6.5s11.333 -2 16 -6c1.33301 -2 2.33301 -4 3 -6
c0.666992 0 1.66699 -0.666992 3 -2c4 -4 6 -9 6 -15z" />
    <glyph glyph-name="semicolon" unicode=";" horiz-adv-x="214" 
d="M155 441c0 0.666992 -0.333008 1.00195 -1 1.00195c-6 1.33301 -10.5 4.83301 -13.5 10.5s-3.5 11.167 -1.5 16.5c0 1.33301 0.333008 2.66602 1 3.99902c0 2.66699 0.333008 5 1 7l1 5c-0.666992 5.33301 -0.666992 11 0 17s3 10.667 7 14l1 3
c0.666992 2 1.33398 3.66699 2.00098 5c0 0.666992 0.333008 1.33398 1 2.00098c2 3.33301 4.33301 6 7 8c6.66699 4 13.667 4.66699 21 2c5.33301 -2.66699 9 -6.66699 11 -12c1.33301 -2.66699 2 -5.33398 2 -8.00098v-4c-0.666992 -2 -1.33398 -4.66699 -2.00098 -8
c-0.666992 -5.33301 -2 -12 -4 -20l9 18c2 6 5.83301 10.167 11.5 12.5s11.334 2.33301 17.001 0s9.66699 -6.33301 12 -12s2.16602 -11.167 -0.500977 -16.5c-7.33301 -18.667 -15.333 -32.667 -24 -42c-12.667 -12.667 -26 -17.334 -40 -14.001
c-6.66699 2 -12.667 5.66699 -18 11zM209 79.002c-0.666992 -8 -1.66504 -15.332 -2.99805 -21.999s-3.33301 -13 -6 -19l-8 -16c-2 -4.66699 -5.5 -10.167 -10.5 -16.5s-8.33301 -10.666 -10 -12.999s-5.83398 -7 -12.501 -14s-10.334 -11.5 -11.001 -13.5
c-4 -4 -9.16699 -6.33301 -15.5 -7s-11.666 1 -15.999 5s-6.83301 9.16699 -7.5 15.5s1 11.833 5 16.5c2 1.33301 5.66699 5.16602 11 11.499s8.66602 10.166 9.99902 11.499s4 4.5 8 9.5s6.5 8.5 7.5 10.5s2.83301 5 5.5 9s4.33398 7.66699 5.00098 11l3 10
c0.666992 4.66699 1 9 1 13c0.666992 6.66699 3.16699 12 7.5 16s9.66602 5.66699 15.999 5s11.5 -3.16699 15.5 -7.5s5.66699 -9.5 5 -15.5z" />
    <glyph glyph-name="less" unicode="&#x3c;" horiz-adv-x="609" 
d="M567 444c-7.33301 -2 -26.999 -11.668 -58.999 -29.001l-102 -58l-95 -57l-10 -6c4 0 9 -0.333008 15 -1c4 0 8.5 -0.166992 13.5 -0.5s9.16699 -0.666016 12.5 -0.999023s5.33301 -0.5 6 -0.5c126 -12 215.667 -24.667 269 -38c6 -1.33301 10.667 -4.5 14 -9.5
s4.16602 -10.5 2.49902 -16.5s-5 -10.667 -10 -14s-10.5 -4 -16.5 -2c-51.333 12 -139 24 -263 36c-1.33301 0 -3.33301 0.166992 -6 0.5s-6.5 0.666016 -11.5 0.999023s-9.5 0.5 -13.5 0.5c-8 0.666992 -14.333 1.33398 -19 2.00098
c-8 0.666992 -13.333 1.33398 -16 2.00098c-0.666992 0 -3 0.666992 -7 2l-12 3c-18.667 6.66699 -27 18 -25 34c0.666992 4 2 7.66699 4 11l4 3c0.666992 1.33301 2 2.66602 4 3.99902c2 2 5.33301 4.66699 10 8l31 20l97 57l103 58c34.667 18.667 56.667 29.667 66 33
c6 2 11.667 1.5 17 -1.5s9 -7.33301 11 -13s1.5 -11.167 -1.5 -16.5s-7.16699 -9 -12.5 -11z" />
    <glyph glyph-name="equal" unicode="=" horiz-adv-x="518" 
d="M198 294c38 -5.33301 90.668 -5.66602 158.001 -0.999023c90.667 6 145.667 9 165 9c6 0 11.167 -2.16699 15.5 -6.5s6.5 -9.5 6.5 -15.5s-2.16699 -11.167 -6.5 -15.5s-9.5 -6.5 -15.5 -6.5c-18.667 0 -72.667 -3 -162 -9
c-68.667 -4.66699 -124.334 -4.33398 -167.001 0.999023c-6 0.666992 -10.833 3.5 -14.5 8.5s-5.16699 10.5 -4.5 16.5s3.5 10.833 8.5 14.5s10.5 5.16699 16.5 4.5zM243.001 449c21.333 1.33301 43.834 1 67.501 -1s50.334 -5.33301 80.001 -10s50.167 -7.66699 61.5 -9
c6 -0.666992 11 -3.33398 15 -8.00098s5.66699 -10 5 -16s-3.33398 -11 -8.00098 -15s-10 -5.66699 -16 -5c-15.333 2 -37.333 5.16699 -66 9.5s-53.5 7.5 -74.5 9.5s-41.167 2.33301 -60.5 1c-6 -0.666992 -11.333 1 -16 5s-7.33398 9 -8.00098 15s1 11.333 5 16
s9 7.33398 15 8.00098z" />
    <glyph glyph-name="greater" unicode="&#x3e;" horiz-adv-x="511" 
d="M189 605c4.66699 -2.66699 16.334 -8.00293 35.001 -16.0029l68 -30l76 -34c46 -20.667 81.667 -37.667 107 -51c16 -8 28.333 -15 37 -21c5.33301 -3.33301 9.66602 -6.33301 12.999 -9c6 -6 9.66699 -12 11 -18c2 -11.333 -2.33301 -24.333 -13 -39
c-6.66699 -9.33301 -16.667 -20 -30 -32c-21.333 -20 -52 -44.333 -92 -73c-70 -50 -126 -86 -168 -108c-5.33301 -3.33301 -10.833 -4 -16.5 -2s-10 5.66699 -13 11s-3.5 10.833 -1.5 16.5s5.66699 9.83398 11 12.501c41.333 22.667 95.666 58 162.999 106
c37.333 26.667 66.333 49.667 87 69c11.333 10 19.666 18.667 24.999 26l1 2l-1 1c-7.33301 5.33301 -18.333 11.666 -33 18.999c-25.333 12.667 -60.666 29.334 -105.999 50.001c-22 10.667 -47 22 -75 34l-70 31c-18 8 -29.667 13 -35 15
c-5.33301 2.66699 -9 6.83398 -11 12.501s-1.66699 11.334 1 17.001s6.83398 9.5 12.501 11.5s11.5 1.66699 17.5 -1z" />
    <glyph glyph-name="question" unicode="?" horiz-adv-x="659" 
d="M121 544c-6 40 -4.00195 78.1689 5.99805 114.502s26 67.666 48 93.999s47 48.833 75 67.5c28.667 18.667 59.667 33 93 43c32.667 10 65.5 15 98.5 15s64.5 -4.66699 94.5 -14s56.833 -25.333 80.5 -48s40.5 -51 50.5 -85c13.333 -49.333 18.833 -97.5 16.5 -144.5
s-15.666 -92.333 -39.999 -136s-57.833 -79.5 -100.5 -107.5c-16.667 -11.333 -54 -27 -112 -47l-56 -19c-8 -2.66699 -14 -5 -18 -7c-2 -0.666992 -3.33301 -1 -4 -1c-2.66699 -4 -4.66699 -10.333 -6 -19c-1.33301 -6.66699 -2 -17.334 -2 -32.001
c0 -6 -2.16699 -11.167 -6.5 -15.5s-9.5 -6.5 -15.5 -6.5s-11.167 2.16699 -15.5 6.5s-6.5 9.5 -6.5 15.5c0 17.333 0.666992 30.333 2 39c3.33301 20 10.333 35 21 45c3.33301 2.66699 8.66602 5.66699 15.999 9c4.66699 2 11.334 4.33301 20.001 7l56 20
c54.667 18.667 89 32.334 103 41.001c36.667 24.667 65.334 55.667 86.001 93s32.167 76.666 34.5 117.999s-2.5 84.333 -14.5 129c-10.667 33.333 -30 60 -58 80s-60 31.333 -96 34s-74.333 -1.33301 -115 -12c-62 -18.667 -111.833 -52 -149.5 -100s-51.5 -105 -41.5 -171
c0.666992 -6 -0.833008 -11.333 -4.5 -16s-8.5 -7.5 -14.5 -8.5s-11.333 0.333008 -16 4s-7.66699 8.5 -9 14.5zM267.998 140.002c8 -1.33301 28.9971 -3.66699 62.9971 -7c28 -2.66699 50.333 -6 67 -10c6 -1.33301 10.5 -4.5 13.5 -9.5s3.83301 -10.5 2.5 -16.5
s-4.5 -10.5 -9.5 -13.5s-10.5 -3.83301 -16.5 -2.5c-2.66699 0.666992 -5.66699 1 -9 1c2.66699 -0.666992 5.33398 -2 8.00098 -4c4.66699 -4 7.33398 -9 8.00098 -15s-1 -11.333 -5 -16c-2 -2 -5.66699 -7.66699 -11 -17c-6 -11.333 -12 -19.666 -18 -24.999
c-14 -13.333 -30.333 -14.333 -49 -3c-9.33301 5.33301 -19.666 15 -30.999 29l-24 34c-8 12 -13.333 19.333 -16 22c-4 4 -6 9.16699 -6 15.5s2.33301 11.5 7 15.5v4c1.33301 6 4.5 10.667 9.5 14s10.5 4.66602 16.5 3.99902zM374.995 83.001
c-1.33301 0 -2.66699 0.333008 -4 1v-1h4z" />
    <glyph glyph-name="at" unicode="@" horiz-adv-x="617" 
d="M467 587l1 1h-1v-1zM266 565l9.00098 9l8 7c-6.66699 -4.66699 -13.334 -10 -20.001 -16h3zM206.001 671c-3.33301 -6 -8.66504 -9.66504 -15.998 -10.998c-25.333 -3.33301 -44 -6.66602 -56 -9.99902c-20.667 -5.33301 -34.334 -12.333 -41.001 -21
c-4.66699 -6 -5 -20 -1 -42c0 -2.66699 0.833008 -7.83398 2.5 -15.501s3 -14 4 -19s1.83301 -11 2.5 -18s0.666992 -12.833 0 -17.5c-2 -17.333 -10.667 -38 -26 -62c-11.333 -17.333 -17.333 -31 -18 -41c-2 -20.667 0 -44.667 6 -72
c11.333 -49.333 17.333 -75.333 18 -78c1.33301 -9.33301 1.33301 -22 0 -38c-0.666992 -14.667 -0.666992 -25 0 -31c4.66699 -42 24.667 -74.167 60 -96.5s74.666 -28.833 117.999 -19.5c14.667 3.33301 36 13.666 64 30.999c32 20 57.333 32 76 36
c11.333 2.66699 30 4.66699 56 6c30 0.666992 50.667 1.66699 62 3c44.667 5.33301 71.334 18.333 80.001 39c1.33301 4.66699 1.33301 13.334 0 26.001c-1.33301 11.333 -4.66602 27.333 -9.99902 48c-12.667 54 -19 87.333 -19 100c0 23.333 5.66699 62 17 116
c9.33301 44 12.666 79 9.99902 105c-4.66699 47.333 -21.334 82 -50.001 104c-25.333 19.333 -60 29.666 -104 30.999c-66 1.33301 -144.333 -16.334 -235 -53.001zM543.002 588.002c-12 -108 -17.998 -229.335 -17.998 -364.002c0 -6 -2.16699 -11.167 -6.5 -15.5
s-9.5 -6.5 -15.5 -6.5s-11.167 2.16699 -15.5 6.5s-6.5 9.5 -6.5 15.5v22c-6 0 -11 2.16699 -15 6.5s-6 9.5 -6 15.5v14c-10.667 -18 -23.334 -33.333 -38.001 -46c-42 -36 -98.333 -44.333 -169 -25c-40.667 10.667 -70.334 30.334 -89.001 59.001
c-18 26.667 -26 64.667 -24 114c2 48.667 14.167 94.5 36.5 137.5s51.833 76.833 88.5 101.5c24 16 49.333 26.833 76 32.5s55 4.83398 85 -2.49902s59 -21.666 87 -42.999c3.33301 1.33301 6.66602 2 9.99902 2c6.66699 -0.666992 11.834 -3.33398 15.501 -8.00098
s5.16699 -10 4.5 -16zM173.004 705c102 44 191.669 64.998 269.002 62.998c54 -1.33301 97.333 -14.666 130 -39.999c38.667 -30 61 -75 67 -135c3.33301 -29.333 -0.333984 -69 -11.001 -119s-16 -85.333 -16 -106c0 -8.66699 6 -38.667 18 -90
c6 -24 9.66699 -41.667 11 -53c2 -20 0.666992 -35.667 -4 -47c-15.333 -37.333 -53.666 -59.333 -114.999 -66c-12.667 -2 -34.334 -3.33301 -65.001 -4c-23.333 -1.33301 -39.333 -2.66602 -48 -3.99902c-14 -3.33301 -35 -13.666 -63 -30.999
c-31.333 -20 -57 -32 -77 -36c-35.333 -8 -69.833 -7.16699 -103.5 2.5s-62.5 27.834 -86.5 54.501s-38 59 -42 97c-0.666992 8 -0.666992 20.333 0 37c1.33301 13.333 1.33301 23.333 0 30c0 0.666992 -5.33301 25.667 -16 75c-7.33301 31.333 -10 59.666 -8 84.999
c1.33301 17.333 9.66602 37.666 24.999 60.999c12 18 18.333 32 19 42c0.666992 4 -2.33301 23.333 -9 58c-6 35.333 -2.33301 61.333 11 78c12.667 15.333 33.667 27 63 35c12.667 4 27.667 7 45 9c2 2 4 3.33301 6 4z" />
    <glyph glyph-name="A" unicode="A" horiz-adv-x="482" 
d="M19 742c54 41.333 117.663 65.002 190.996 71.002c70 5.33301 126.333 -14.667 169 -60c34.667 -36.667 60 -90 76 -160c5.33301 -23.333 9.5 -47.833 12.5 -73.5s5 -52.667 6 -81s1.66699 -51.833 2 -70.5s0.333008 -42.834 0 -72.501s-0.5 -48.167 -0.5 -55.5
c0 -14 -1.66699 -35 -5 -63s-5 -48 -5 -60c-1.33301 -39.333 10 -68.333 34 -87c4.66699 -3.33301 7.33398 -8 8.00098 -14s-0.833008 -11.5 -4.5 -16.5s-8.5 -7.83301 -14.5 -8.5s-11.667 1 -17 5c-24.667 19.333 -40.334 44.666 -47.001 75.999
c-38.667 -22.667 -72.334 -35.667 -101.001 -39c-26 -2.66699 -54.167 -0.333984 -84.5 6.99902s-57.166 18.666 -80.499 33.999c-17.333 12 -31.333 25.5 -42 40.5s-17.667 32.833 -21 53.5s0.333984 42.334 11.001 65.001c20.667 46 63.334 89.333 128.001 130
c34.667 21.333 67.5 36.833 98.5 46.5s63.833 11.167 98.5 4.5c-2 66 -8.33301 122.333 -19 169c-14 62.667 -35.667 109.334 -65 140.001c-33.333 35.333 -77.666 50.666 -132.999 45.999c-65.333 -5.33301 -121.666 -25.666 -168.999 -60.999
c-4.66699 -4 -10 -5.66699 -16 -5s-10.833 3.5 -14.5 8.5s-5.16699 10.5 -4.5 16.5s3.66699 10.667 9 14zM428.996 370.002c-28.667 6 -56.334 5.33594 -83.001 -1.99707c-25.333 -8 -54.666 -22.333 -87.999 -43c-58 -36.667 -95.333 -73.334 -112 -110.001
c-18 -40.667 -5.66699 -75.334 37 -104.001c18.667 -12.667 40.667 -22.334 66 -29.001c25.333 -6 48 -7.66699 68 -5c24 2.66699 58.667 17.334 104 44.001c0 13.333 1.66699 33.666 5 60.999s5 46.666 5 57.999c0 8 0.166992 26.833 0.5 56.5s0.5 53.834 0.5 72.501
c-1.33301 0 -2.33301 0.333008 -3 1z" />
    <glyph glyph-name="B" unicode="B" horiz-adv-x="541" 
d="M88 109l5.99707 3.00488l19 8c21.333 8.66699 35.333 15 42 19c44.667 22.667 94 56 148 100c31.333 26 60.333 53.667 87 83s50.834 61.166 72.501 95.499s37.834 70.5 48.501 108.5s13.667 75.333 9 112c-6 52 -34.167 98.5 -84.5 139.5s-103.5 63.833 -159.5 68.5
c-10 0.666992 -20.167 1.16699 -30.5 1.5s-21.666 0.166016 -33.999 -0.500977s-22.5 -1.33398 -30.5 -2.00098l-35 -3c-15.333 -1.33301 -26.333 -2.33301 -33 -3c2 -39.333 2.66699 -68.5 2 -87.5s-2.66699 -48 -6 -87s-5.33301 -66.833 -6 -83.5l-7 -109l-6.5 -122
c-1.66699 -30.667 -3 -71.834 -4 -123.501s-0.166992 -90.834 2.5 -117.501zM290.997 71.0049c-2 0.666992 -4.33496 1.66992 -7.00195 3.00293c-7.33301 3.33301 -20.666 5 -39.999 5c-15.333 -0.666992 -35.333 -2.33398 -60 -5.00098
c-7.33301 -0.666992 -17.333 -1.83398 -30 -3.50098s-21.334 -2.83398 -26.001 -3.50098c-9.33301 -1.33301 -16.333 -2 -21 -2h-9c-2.66699 0.666992 -5 1 -7 1c2 -17.333 4.33301 -33.666 7 -48.999c2.66699 0.666992 5.33398 1 8.00098 1
c7.33301 0 25.833 3.16699 55.5 9.5s56.834 13.5 81.501 21.5c22.667 7.33301 38.667 14.666 48 21.999zM106.995 883.008c3.33301 0 17.168 1.16699 41.501 3.5s38.833 3.5 43.5 3.5s19.334 0.5 44.001 1.5s39.334 0.5 44.001 -1.5
c41.333 -3.33301 82.5 -15.833 123.5 -37.5s76.667 -51.167 107 -88.5s48.166 -77.333 53.499 -120c4.66699 -42.667 1.16699 -85.5 -10.5 -128.5s-29.5 -83.333 -53.5 -121s-50 -71.834 -78 -102.501c-27.333 -30.667 -57.666 -59.667 -90.999 -87
c-42.667 -35.333 -81.667 -63.333 -117 -84c10.667 0.666992 20.667 1.33398 30 2.00098c24.667 0 44 -3 58 -9c17.333 -7.33301 28.666 -16.666 33.999 -27.999c6.66699 -14 4 -27.667 -8 -41s-35.667 -26 -71 -38c-26 -8.66699 -55 -16.334 -87 -23.001
s-53.333 -10 -64 -10c-3.33301 0 -6.33301 0.666992 -9 2c-3.33301 -3.33301 -7 -5.33301 -11 -6c-6 -1.33301 -11.5 -0.5 -16.5 2.5s-8.16699 7.5 -9.5 13.5c-8.66699 38 -14 85.667 -16 143c-2.66699 58 -3.16699 107.333 -1.5 148s4.66699 97.5 9 170.5
s6.83301 118.167 7.5 135.5c0.666992 20.667 3 51 7 91c3.33301 40.667 5.16602 69.5 5.49902 86.5s-0.833984 45.5 -3.50098 85.5c-0.666992 6 0.833008 11.5 4.5 16.5s8.5 7.83301 14.5 8.5h2c4 7.33301 10 11.333 18 12z" />
    <glyph glyph-name="C" unicode="C" horiz-adv-x="403" 
d="M384 546c0 25.333 -7.00488 52.498 -21.0049 81.498s-31.667 53.167 -53 72.5c-22 20.667 -44 32 -66 34c-24 2.66699 -46.333 -6 -67 -26c-28 -26.667 -47 -65.334 -57 -116.001s-11.333 -107.667 -4 -171c6.66699 -58.667 19.334 -115.667 38.001 -171
c18 -55.333 38 -99.666 60 -132.999l10 -13c3.33301 -4.66699 7.83301 -9.66699 13.5 -15s9.83398 -9 12.501 -11l15 -14c8 -6.66699 13 -11 15 -13c4 -4 6.33301 -9 7 -15s-1.16602 -11.167 -5.49902 -15.5s-9.5 -6.83301 -15.5 -7.5s-11.333 1.33301 -16 6
c-0.666992 0.666992 -5.16699 4.5 -13.5 11.5s-13.833 12.167 -16.5 15.5l-14 13c-6 6 -11.167 11.667 -15.5 17s-8.5 11 -12.5 17c-24.667 36.667 -46.667 84.334 -66 143.001s-32.666 118.667 -39.999 180c-7.33301 67.333 -5.5 129.833 5.5 187.5
s34.167 103.167 69.5 136.5c30.667 28.667 64.334 41.334 101.001 38.001c32 -3.33301 62.667 -18.333 92 -45c25.333 -23.333 46.333 -52.333 63 -87s25 -68 25 -100c0 -6 -2.16699 -11.167 -6.5 -15.5s-9.5 -6.5 -15.5 -6.5s-11.167 2.16699 -15.5 6.5s-6.5 9.5 -6.5 15.5
z" />
    <glyph glyph-name="D" unicode="D" horiz-adv-x="427" 
d="M131 36c43.333 14.667 83.832 35.5 121.499 62.5s68.167 57.833 91.5 92.5c40.667 61.333 62.5 132 65.5 212s-12.5 156 -46.5 228s-81.667 127.333 -143 166c-56.667 36.667 -101.667 57.667 -135 63c5.33301 -44.667 8 -102 8 -172
c0.666992 -10.667 0.666992 -30 0 -58c0.666992 -16 1.33398 -30.333 2.00098 -43c3.33301 -60 9.33301 -151.333 18 -274s14.667 -215 18 -277zM70.999 905c20 -0.666992 41.501 -5.16797 64.501 -13.501s41.5 -16.5 55.5 -24.5s31.667 -18.667 53 -32
c68 -44 120.667 -105.5 158 -184.5s54.333 -162.5 51 -250.5c-3.33301 -87.333 -27.666 -165 -72.999 -233c-28 -41.333 -63.667 -77 -107 -107c-44 -30.667 -90.667 -54 -140 -70c-5.33301 -1.33301 -10.333 -1 -15 1c-2 -1.33301 -4.33301 -2 -7 -2
c-6.66699 0 -12.334 2.33301 -17.001 7h-4c-6 0 -11.167 2.16699 -15.5 6.5s-6.5 9.5 -6.5 15.5c0 20 0.166992 51.833 0.5 95.5s0.5 82 0.5 115s-0.666992 64.833 -2 95.5c-0.666992 18 -3.33398 48.333 -8.00098 91c-4.66699 42 -7.33398 73.333 -8.00098 94
c-1.33301 28 -2 67.333 -2 118c0 7.33301 -0.333008 27.333 -1 60s-1.16699 55.834 -1.5 69.501s-1.66602 32.167 -3.99902 55.5s-5.5 44.333 -9.5 63c-1.33301 6 -0.5 11.667 2.5 17s7.5 8.33301 13.5 9c0.666992 0.666992 3.66699 1 9 1c4 2 8.33301 3 13 3z" />
    <glyph glyph-name="E" unicode="E" horiz-adv-x="447" 
d="M178 185l36.001 8.00098l35 11c42 14 75.333 27.333 100 40c28 14 45.333 26.667 52 38c11.333 19.333 16.666 53.333 15.999 102c0 50.667 -6 101.667 -18 153c-13.333 55.333 -31 98 -53 128s-45.667 42.667 -71 38c-28.667 -4.66699 -51 -27.334 -67 -68.001
c-9.33301 -24 -18.333 -63 -27 -117c-20 -125.333 -23.333 -226.333 -10 -303c2 -10.667 4.33301 -20.667 7 -30zM192.001 141.001c28.667 -66 77.665 -102.001 146.998 -108.001c6 -0.666992 11 -3.33398 15 -8.00098s5.66699 -10 5 -16
c0 -0.666992 -0.333008 -1.66699 -1 -3c2 -3.33301 3 -6.66602 3 -9.99902c0 -6 -2.16699 -11.167 -6.5 -15.5s-9.5 -6.5 -15.5 -6.5c-74.667 0 -132.667 40 -174 120c-5.33301 10.667 -10.666 22 -15.999 34c-41.333 -12 -68 -20 -80 -24
c-5.33301 -2 -10.833 -1.66699 -16.5 1s-9.5 6.83398 -11.5 12.501s-1.66699 11.334 1 17.001s7 9.5 13 11.5c4 1.33301 8.66699 3 14 5c2.66699 5.33301 7.33398 9 14.001 11c10.667 3.33301 27.667 7.66602 51 12.999c-14 50.667 -22 107 -24 169
c-2.66699 94.667 8.33301 180 33 256c28 85.333 66.667 134 116 146c48 12 90 -3.66699 126 -47c29.333 -34 52 -82.333 68 -145c14 -56.667 20.667 -113.334 20 -170.001c-1.33301 -59.333 -11 -104 -29 -134c-12 -20 -35 -37.667 -69 -53
c-24.667 -11.333 -58 -22.666 -100 -33.999l-49 -13z" />
    <glyph glyph-name="F" unicode="F" 
d="M82 19c0 16 -1.33398 46.333 -4.00098 91c-2.66699 42.667 -3.33398 74.334 -2.00098 95.001c1.33301 20 6.16602 88.333 14.499 205s12.5 206.334 12.5 269.001c0 5.33301 -1.33301 19.333 -4 42c-3.33301 34 -5.33301 56.333 -6 67c-2.66699 28 -4 50 -4 66
c0.666992 10.667 1.33398 19.667 2.00098 27c2 10.667 5.66699 18.667 11 24c12.667 12.667 32 20.667 58 24c18.667 2.66699 41.667 3 69 1c18 -1.33301 41 -4 69 -8c28.667 -3.33301 45.334 -5.33301 50.001 -6c6 -0.666992 11 -3.33398 15 -8.00098s5.66699 -10 5 -16
s-3.33398 -11 -8.00098 -15s-10 -5.66699 -16 -5c-5.33301 0.666992 -22.666 3 -51.999 7c-26 3.33301 -48 5.66602 -66 6.99902c-24.667 2 -45 2 -61 0c-14 -2 -24 -5.33301 -30 -10v-3c-1.33301 -4.66699 -2 -11 -2 -19c0 -15.333 1.33301 -36 4 -62
c0.666992 -10.667 2.66699 -32.667 6 -66c2.66699 -24 4 -39.667 4 -47c0 -40.667 -1.33301 -86 -4 -136c7.33301 0 18.333 1 33 3c6 0.666992 11.5 -0.833008 16.5 -4.5s7.83301 -8.5 8.5 -14.5s-0.833008 -11.5 -4.5 -16.5s-8.5 -7.83301 -14.5 -8.5
c-17.333 -2 -31 -3 -41 -3l-11 -139l-10 -157c-1.33301 -22.667 -0.666016 -52.667 2.00098 -90c2.66699 -46 4 -77.333 4 -94c0 -6 -2.16699 -11.167 -6.5 -15.5s-9.5 -6.5 -15.5 -6.5s-11.167 2.16699 -15.5 6.5s-6.5 9.5 -6.5 15.5z" />
    <glyph glyph-name="G" unicode="G" horiz-adv-x="504" 
d="M481 683c5.33301 2.66699 11.001 3.33008 17.001 1.99707c6 -2 11 -5.66699 15 -11c2.66699 -4.66699 5 -11 7 -19c3.33301 -10.667 5.66602 -26.667 6.99902 -48c2.66699 -38 3.33398 -73.333 2.00098 -106c-2 -51.333 -4 -87 -6 -107
c2.66699 -77.333 3 -139.333 1 -186c-4 -104 -19.667 -174 -47 -210c-4 -5.33301 -8.16699 -10.166 -12.5 -14.499s-8.33301 -8.16602 -12 -11.499s-8.5 -6.66602 -14.5 -9.99902s-10.5 -6 -13.5 -8s-8 -4.16699 -15 -6.5s-11.667 -4 -14 -5s-7.5 -2.5 -15.5 -4.5
s-12.667 -3.33301 -14 -4l-16 -2c-8.66699 -2 -13 -3.33301 -13 -4c-66.667 -14 -138.334 -13.333 -215.001 2c-6 1.33301 -10.667 4.5 -14 9.5s-4.5 10.5 -3.5 16.5s4 10.667 9 14s10.5 4.66602 16.5 3.99902c71.333 -14.667 137 -15.334 197 -2.00098
c23.333 4.66699 39.5 8.16699 48.5 10.5s20.167 7 33.5 14s24 16.167 32 27.5c22 29.333 35 91.333 39 186c0.666992 4 1 8.33301 1 13c-9.33301 -19.333 -20.333 -36.666 -33 -51.999c-16.667 -20 -36.667 -35.167 -60 -45.5s-47 -15.5 -71 -15.5
c-24 0.666992 -48.333 4 -73 10c-36 8.66699 -70.167 23.334 -102.5 44.001s-57.833 43.667 -76.5 69c-23.333 30 -39.833 64.167 -49.5 102.5s-12.5 76.5 -8.5 114.5c4 36.667 13.667 73 29 109c23.333 54.667 58 100 104 136s98.333 54.667 157 56
c78.667 2 140 -20.667 184 -68zM459.001 640.996c-20 25.333 -42.8359 42.833 -68.5029 52.5s-56.167 14.167 -91.5 13.5c-50 -1.33301 -94.5 -17.166 -133.5 -47.499s-68.833 -69.833 -89.5 -118.5c-20.667 -45.333 -29.167 -94 -25.5 -146s19.834 -97.333 48.501 -136
c16 -20.667 38.333 -40 67 -58c27.333 -18 57 -31 89 -39c70.667 -18.667 123.667 -6.33398 159 36.999c34.667 42.667 56.334 108.334 65.001 197.001c-0.666992 10.667 -1 18.667 -1 24c0 4.66699 -0.333008 13.5 -1 26.5s-1.66699 30.167 -3 51.5
s-2.66602 39 -3.99902 53c-2 33.333 -3.33301 58.666 -4 75.999v8c-2.66699 1.33301 -5 3.33301 -7 6z" />
    <glyph glyph-name="H" unicode="H" horiz-adv-x="412" 
d="M101 510l1.99512 -45.9951c0.666992 -14.667 -1 -88 -5 -220c-2.66699 -92 0.333008 -161 9 -207c0.666992 -6 -0.666016 -11.5 -3.99902 -16.5s-8 -8 -14 -9s-11.5 0.166992 -16.5 3.5s-8.16699 8 -9.5 14c-8.66699 49.333 -11.667 121.666 -9 216.999
c4 132.667 5.66699 204.667 5 216c-1.33301 46.667 -4.33301 91.667 -9 135c-4.66699 45.333 -11.5 101 -20.5 167s-14.833 110.333 -17.5 133c-0.666992 6 0.833008 11.5 4.5 16.5s8.5 7.83301 14.5 8.5s11.5 -0.833008 16.5 -4.5s7.83301 -8.5 8.5 -14.5
c3.33301 -26.667 8.16602 -63.334 14.499 -110.001s11.833 -89.334 16.5 -128.001s8.33398 -75.334 11.001 -110.001c14 29.333 41.333 50.333 82 63c44 14 85 14.667 123 2c35.333 -12 64.333 -39.667 87 -83c13.333 -27.333 23.833 -58.5 31.5 -93.5s12.5 -67 14.5 -96
s1.83301 -64.5 -0.5 -106.5s-4.66602 -74 -6.99902 -96s-6.16602 -53.333 -11.499 -94c-0.666992 -6 -3.5 -10.833 -8.5 -14.5s-10.5 -5.16699 -16.5 -4.5s-10.833 3.5 -14.5 8.5s-5.16699 10.5 -4.5 16.5c6.66699 49.333 11.334 89.166 14.001 119.499
s4.66699 68.333 6 114s-1.66699 87.167 -9 124.5s-18.666 71.333 -33.999 102c-16.667 32.667 -37 53 -61 61c-29.333 10 -61.333 9.33301 -96 -2c-34.667 -10.667 -54.334 -28 -59.001 -52c-1.33301 -6 -4.66602 -10.5 -9.99902 -13.5s-11 -4.16699 -17 -3.5
c-2 0.666992 -4 1.66699 -6 3z" />
    <glyph glyph-name="I" unicode="I" horiz-adv-x="251" 
d="M210 902c8 -3.33301 15.333 -7.66895 22 -13.002c30 -23.333 45 -52 45 -86c0 -30 -11 -58 -33 -84c-13.333 -15.333 -29.333 -28 -48 -38s-38.834 -15.5 -60.501 -16.5s-43.167 4.5 -64.5 16.5c-20.667 12 -37 29 -49 51c-11.333 22 -17.666 45 -18.999 69
c-3.33301 54.667 17.667 94.334 63 119.001c36 19.333 80 26 132 20c6 -0.666992 10.833 -3.5 14.5 -8.5s5.16699 -10.5 4.5 -16.5c-0.666992 -5.33301 -3 -9.66602 -7 -12.999zM143 737.997c-49.333 10.667 -80.002 28.998 -92.002 54.998
c-2 3.33301 -3.33301 6.66602 -4 9.99902c1.33301 -18 6 -34.5 14 -49.5s18.667 -26.5 32 -34.5c20 -10.667 40.667 -13.167 62 -7.5s40 17.834 56 36.501c14.667 17.333 22 35.333 22 54c0 20.667 -9.66699 38.334 -29 53.001c-13.333 10 -30.666 13 -51.999 9
c-21.333 -3.33301 -38.666 -12 -51.999 -26c-10 -10 -13.333 -18.667 -10 -26c6.66699 -12.667 27.667 -22.667 63 -30c6 -1.33301 10.5 -4.66602 13.5 -9.99902s4 -11 3 -17s-4.16699 -10.5 -9.5 -13.5s-11 -4.16699 -17 -3.5zM152.998 634.995
c20 -68.667 26.668 -171.666 20.001 -308.999c-0.666992 -18 -3.66699 -65.667 -9 -143s-8 -133.333 -8 -168c0 -6 -2.16699 -11.167 -6.5 -15.5s-9.5 -6.5 -15.5 -6.5s-11.167 2.16699 -15.5 6.5s-6.5 9.5 -6.5 15.5c0 34.667 2.66699 91.167 8 169.5
s8.33301 126.166 9 143.499c6.66699 132.667 0.666992 231 -18 295c-2 6 -1.5 11.667 1.5 17s7.5 8.83301 13.5 10.5s11.667 1 17 -2s8.66602 -7.5 9.99902 -13.5z" />
    <glyph glyph-name="J" unicode="J" horiz-adv-x="262" 
d="M272 850c8 -64 12.833 -130.834 14.5 -200.501s1.33398 -153.334 -0.999023 -251.001s-3.5 -163.834 -3.5 -198.501c0 -58 -1.33301 -95.667 -4 -113c-9.33301 -56.667 -33.333 -90.334 -72 -101.001c-28.667 -8 -54.334 -5.66699 -77.001 7
c-19.333 12 -36 31.333 -50 58c-21.333 41.333 -36 103.333 -44 186c-6 55.333 -9 125.333 -9 210v45v40c-0.666992 26 -1.33398 44 -2.00098 54c-0.666992 6 1 11.333 5 16s9 7.33398 15 8.00098s11.333 -1 16 -5s7.33398 -9 8.00098 -15
c0.666992 -11.333 1.33398 -30.666 2.00098 -57.999v-40v-45c0 -83.333 3 -151.666 9 -204.999c7.33301 -77.333 20.333 -134.333 39 -171c10 -19.333 21 -32.333 33 -39c12 -7.33301 26.333 -8.66602 43 -3.99902c20.667 6 34 28 40 66c2.66699 14.667 4 50 4 106
c0 36.667 1.16699 103.5 3.5 200.5s2.66602 179.5 0.999023 247.5s-6.5 133.333 -14.5 196c-0.666992 6 0.833008 11.5 4.5 16.5s8.5 7.83301 14.5 8.5s11.5 -0.833008 16.5 -4.5s7.83301 -8.5 8.5 -14.5z" />
    <glyph glyph-name="K" unicode="K" 
d="M118 759c10.667 -66 15.6689 -160.332 15.002 -282.999l19 41l25 49c40.667 73.333 90.667 156.666 150 249.999c3.33301 4.66699 8 7.66699 14 9s11.5 0.5 16.5 -2.5s8.16699 -7.5 9.5 -13.5s0.666016 -11.667 -2.00098 -17
c-59.333 -92.667 -109.333 -175.334 -150 -248.001c-4 -7.33301 -12.333 -24.166 -25 -50.499s-23 -46.166 -31 -59.499c47.333 -14.667 92.666 -34 135.999 -58c5.33301 -2.66699 8.83301 -7 10.5 -13s1 -11.667 -2 -17s-7.5 -8.83301 -13.5 -10.5
s-11.667 -0.833984 -17 2.49902c-44 24 -91 43.333 -141 58v-2v-3c0 -42 0.666992 -105 2 -189s2 -147 2 -189c0 -6 -2.16699 -11.167 -6.5 -15.5s-9.5 -6.5 -15.5 -6.5s-11.167 2.16699 -15.5 6.5s-6.5 9.5 -6.5 15.5c0 42 -0.666992 105 -2 189s-2 147 -2 189
c0 9.33301 0.166992 38.166 0.5 86.499s0.333008 81.833 0 100.5s-1.66602 45.334 -3.99902 80.001s-5.83301 65.667 -10.5 93c-0.666992 6 0.666016 11.5 3.99902 16.5s8 8 14 9s11.5 -0.166992 16.5 -3.5s8.16699 -8 9.5 -14z" />
    <glyph glyph-name="L" unicode="L" horiz-adv-x="115" 
d="M132 816c2.66699 -39.333 4.16797 -80.502 4.50098 -123.502s0 -93.167 -1 -150.5s-1.5 -98.666 -1.5 -123.999c0 -43.333 1 -108.5 3 -195.5s3 -152.167 3 -195.5c0 -6 -2.16699 -11.167 -6.5 -15.5s-9.5 -6.5 -15.5 -6.5s-11.167 2.16699 -15.5 6.5s-6.5 9.5 -6.5 15.5
c0 43.333 -1 108.5 -3 195.5s-3 152.167 -3 195.5c0 26 0.5 67.167 1.5 123.5s1.33301 106 1 149s-1.83301 84.167 -4.5 123.5c-0.666992 6 1.16602 11.167 5.49902 15.5s9.5 6.83301 15.5 7.5s11.167 -1.16602 15.5 -5.49902s6.83301 -9.5 7.5 -15.5z" />
    <glyph glyph-name="M" unicode="M" horiz-adv-x="592" 
d="M276 620c-8.66699 47.333 -21.6709 81.335 -39.0039 102.002s-42 20.334 -74 -0.999023c-15.333 -10.667 -27.833 -23.334 -37.5 -38.001s-14.167 -27.334 -13.5 -38.001c0 -6 -2 -11.333 -6 -16s-9 -7 -15 -7c-5.33301 0 -10 1.33301 -14 4
c16.667 -89.333 26.334 -167.333 29.001 -234c1.33301 -30.667 1 -89.334 -1 -176.001c-2 -74.667 -0.666992 -131.667 4 -171c0.666992 -6 -1 -11.333 -5 -16s-9 -7.33398 -15 -8.00098s-11.333 1 -16 5s-7.33398 9 -8.00098 15c-4.66699 42 -6 100.667 -4 176
c2 84 2.33301 141.667 1 173c-3.33301 72.667 -15.333 161.667 -36 267c-0.666992 6 0.666016 11.5 3.99902 16.5s8 8 14 9s11.5 -0.166992 16.5 -3.5s8.16699 -8 9.5 -14c3.33301 16.667 11.333 33.334 24 50.001s27.334 30.667 44.001 42
c14 9.33301 28.333 16.166 43 20.499s30.334 4.5 47.001 0.5s31 -13.333 43 -28c8.66699 -10 16.334 -22 23.001 -36c24 74 67.333 110 130 108c20 -0.666992 32.667 -2 38 -4c8 -2.66699 19 -10 33 -22c41.333 -36.667 70.333 -85 87 -145
c16.667 -59.333 26.334 -129 29.001 -209c2 -54 2.33301 -100.333 1 -139c-1.33301 -40.667 -1.83301 -83.5 -1.5 -128.5s2.5 -81.833 6.5 -110.5c0.666992 -6 -0.833008 -11.5 -4.5 -16.5s-8.5 -7.83301 -14.5 -8.5s-11.5 0.833008 -16.5 4.5s-7.83301 8.5 -8.5 14.5
c-4 29.333 -6.16699 67.5 -6.5 114.5s0.166992 91.167 1.5 132.5s1 86.333 -1 135c-2 76.667 -10.5 142 -25.5 196s-39.833 96 -74.5 126c-10 8.66699 -16.333 13.334 -19 14.001c-1.33301 0.666992 -10 1.33398 -26 2.00098c-24 0.666992 -43.667 -7.83301 -59 -25.5
s-27 -43.834 -35 -78.501c-3.33301 -16 -6 -33.333 -8 -52c4 -21.333 7 -47.666 9 -78.999c2 -29.333 3 -65 3 -107c0 -0.666992 0.166992 -1.83398 0.5 -3.50098s0.666016 -4 0.999023 -7s0.833008 -5.83301 1.5 -8.5c0.666992 -6.66699 0.666992 -12 0 -16
c-2 -10 -8 -16.333 -18 -19c-8 -1.33301 -15.333 1 -22 7c-3.33301 3.33301 -6.33301 8 -9 14c-1.33301 3.33301 -2.33301 7.33301 -3 12c-1.33301 7.33301 -2.66602 16.666 -3.99902 27.999c-0.666992 4.66699 -1.16699 10 -1.5 16s-0.666016 11.333 -0.999023 16
s-0.5 7.33398 -0.5 8.00098c-4 49.333 -4 95 0 137z" />
    <glyph glyph-name="N" unicode="N" horiz-adv-x="565" 
d="M125 654c0.666992 -8.66699 1.33887 -23.499 2.00586 -44.499s1.33398 -36.5 2.00098 -46.5c3.33301 -50 5 -135 5 -255c0 -109.333 2.66699 -193 8 -251c0.666992 -6 -1 -11.333 -5 -16s-9 -7.33398 -15 -8.00098s-11.333 1 -16 5s-7.33398 9 -8.00098 15
c-5.33301 59.333 -8 144.333 -8 255c0 124 -1.66699 207.667 -5 251c-0.666992 13.333 -1.33398 32 -2.00098 56s-1.83398 44.833 -3.50098 62.5s-4.16699 34.5 -7.5 50.5c-1.33301 6 -0.5 11.5 2.5 16.5s7.5 8.16699 13.5 9.5s11.5 0.5 16.5 -2.5s8.16699 -7.5 9.5 -13.5
c2.66699 -10 4.66699 -20.667 6 -32c39.333 34 91.666 53 156.999 57c81.333 5.33301 145.666 -14.667 192.999 -60c39.333 -37.333 67.666 -92.666 84.999 -165.999c10.667 -46 18.334 -113.333 23.001 -202c5.33301 -102 9.33301 -163 12 -183
c0.666992 -6 -0.833008 -11.5 -4.5 -16.5s-8.5 -7.83301 -14.5 -8.5s-11.5 0.833008 -16.5 4.5s-7.83301 8.5 -8.5 14.5c-2.66699 21.333 -6.66699 83.666 -12 186.999c-4.66699 84 -12 148.667 -22 194c-15.333 64.667 -39.333 112.667 -72 144
c-38.667 36.667 -92.334 52.667 -161.001 48c-63.333 -4 -111 -23.667 -143 -59c-2.66699 -3.33301 -6.33398 -5.33301 -11.001 -6z" />
    <glyph glyph-name="O" unicode="O" horiz-adv-x="611" 
d="M154 713c0.666992 -7.33301 -1.66895 -13.335 -7.00195 -18.002c-16 -14 -25.667 -30.333 -29 -49c-5.33301 -34 -7.66602 -73.5 -6.99902 -118.5s6.16699 -96.5 16.5 -154.5s24.5 -110.333 42.5 -157c30.667 -79.333 67.667 -132.666 111 -159.999
c48.667 -30.667 104.334 -25.667 167.001 15c38 24 69.5 63.333 94.5 118s40.833 115.334 47.5 182.001c6 67.333 1.66699 130 -13 188s-38.667 102 -72 132c-41.333 36.667 -101.333 55 -180 55c-60.667 0 -117.667 -11 -171 -33zM116.997 744.998
c64.667 30 134.002 44.9971 208.002 44.9971c90 0 160 -22.333 210 -67c40 -35.333 68.333 -85.666 85 -150.999c16 -64.667 20.667 -133 14 -205c-7.33301 -71.333 -24.833 -137.5 -52.5 -198.5s-64.167 -106.167 -109.5 -135.5c-78.667 -50 -150 -54.667 -214 -14
c-52 32.667 -95 93 -129 181c-18.667 48.667 -33.5 103.334 -44.5 164.001s-17 115 -18 163s1.5 90.333 7.5 127c5.33301 24 16 44.667 32 62c-2.66699 5.33301 -2.83398 10.833 -0.500977 16.5s6.16602 9.83398 11.499 12.501z" />
    <glyph glyph-name="P" unicode="P" horiz-adv-x="515" 
d="M160 463c146 32 245.666 90.665 298.999 175.998c30 48 42 90.667 36 128c-5.33301 32.667 -23.333 61 -54 85c-29.333 22 -67 38 -113 48s-92.333 12.333 -139 7h-2c-0.666992 -21.333 -0.666992 -58.5 0 -111.5s0.333984 -90.167 -0.999023 -111.5
c-0.666992 -17.333 -2 -36.666 -4 -57.999s-4 -38.666 -6 -51.999l-9 -60c-4 -26 -6.33301 -43 -7 -51zM184.999 950.998c50.667 5.33301 101.67 2.50195 153.003 -8.49805s94.666 -29.5 129.999 -55.5c40 -30.667 63.333 -68.334 70 -113.001
c8 -48.667 -5.66699 -101.667 -41 -159c-60.667 -98.667 -175 -165 -343 -199c-4.66699 -39.333 -10 -94 -16 -164c-7.33301 -96 -13.333 -165.333 -18 -208c-0.666992 -6 -3.5 -10.833 -8.5 -14.5s-10.5 -5.16699 -16.5 -4.5s-10.833 3.5 -14.5 8.5
s-5.16699 10.5 -4.5 16.5c5.33301 48 11.666 116.333 18.999 205c8.66699 103.333 15.334 172.666 20.001 207.999c2 11.333 5 29.666 9 54.999l8 59c2 14 4 31.333 6 52s3.33301 39.667 4 57c1.33301 26.667 1.66602 64.834 0.999023 114.501s-0.666992 88.167 0 115.5
c0 6 2.16699 11 6.5 15s9.83301 6 16.5 6c3.33301 8 9.66602 12.667 18.999 14z" />
    <glyph glyph-name="Q" unicode="Q" horiz-adv-x="482" 
d="M361 47l-28.001 20c-4.66699 3.33301 -7.5 8 -8.5 14s0.166992 11.5 3.5 16.5s8 8 14 9s11.667 -0.166992 17 -3.5l30 -22c15.333 24 28.666 53.333 39.999 88c22.667 70 34 148.333 34 235c0 5.33301 0.166992 24.833 0.5 58.5s0.333008 59.167 0 76.5
s-1.5 40.666 -3.5 69.999s-5 55.333 -9 78c-21.333 112 -68.666 173.333 -141.999 184c-32.667 4.66699 -71.667 3 -117 -5c-2 -8.66699 -7.66699 -14 -17 -16c-49.333 -11.333 -87.666 -51.333 -114.999 -120c-24.667 -64 -38 -145 -40 -243
c-1.33301 -89.333 7.33398 -176.666 26.001 -261.999c18.667 -84 41.667 -142.667 69 -176c19.333 -23.333 47 -38.666 83 -45.999c35.333 -7.33301 68.666 -6 99.999 4c23.333 7.33301 44.333 20.666 63 39.999zM89.999 889l8.99805 3.00098l41 9l41.5 8
c17.667 3.33301 32.834 5.66602 45.501 6.99902s27 2 43 2s31 -1 45 -3c94 -14 153.667 -87.333 179 -220c4.66699 -24.667 8 -52 10 -82c2 -30.667 3.16699 -55 3.5 -73s0.333008 -44.167 0 -78.5s-0.5 -53.5 -0.5 -57.5c0 -91.333 -12 -174 -36 -248
c-12.667 -39.333 -28.334 -73.333 -47.001 -102l30 -24c4.66699 -4 7.33398 -9 8.00098 -15s-1 -11.333 -5 -16s-9 -7.33398 -15 -8.00098s-11.333 1 -16 5l-29 24c-25.333 -27.333 -54.333 -45.666 -87 -54.999c-26 -6.66699 -52.5 -10 -79.5 -10s-54.333 5.66699 -82 17
s-50.167 27.666 -67.5 48.999c-32.667 38.667 -58.667 103.334 -78 194.001c-19.333 88.667 -28.333 179.667 -27 273c2 103.333 16.667 189.333 44 258c16.667 43.333 38.334 77.666 65.001 102.999c-6 2.66699 -9.66699 7.33398 -11 14.001c-2 6 -1.33301 11.5 2 16.5
s8 8.16699 14 9.5z" />
    <glyph glyph-name="R" unicode="R" horiz-adv-x="328" 
d="M102 649c11.333 -77.333 18.8359 -187.829 22.5029 -331.496s6.83398 -235.167 9.50098 -274.5c0.666992 -6 -1 -11.333 -5 -16s-9 -7.33398 -15 -8.00098s-11.333 1 -16 5s-7.33398 9 -8.00098 15c-4 54 -6.66699 125.667 -8 215s-4.33301 171.166 -9 245.499
s-13.667 144.166 -27 209.499c-0.666992 5.33301 0.666016 10.666 3.99902 15.999s7.83301 8.5 13.5 9.5s11.167 -0.166992 16.5 -3.5s8.66602 -8 9.99902 -14l3 -16c28.667 28 64.667 48.5 108 61.5s86.666 19.5 129.999 19.5c6 0 11.167 -2.16699 15.5 -6.5
s6.5 -9.5 6.5 -15.5s-2.16699 -11.167 -6.5 -15.5s-9.5 -6.5 -15.5 -6.5c-44 0 -86.333 -7 -127 -21s-72 -34.667 -94 -62c-2 -2.66699 -4.66699 -4.66699 -8 -6z" />
    <glyph glyph-name="S" unicode="S" horiz-adv-x="473" 
d="M455 763c-10 42.667 -34.4971 77.332 -73.4971 103.999s-82.833 40.667 -131.5 42c-48 2 -88.833 -9.16699 -122.5 -33.5s-51.834 -60.166 -54.501 -107.499c-2 -33.333 12.667 -70.666 44 -111.999c11.333 -14.667 27 -32.667 47 -54c24 -26.667 39.333 -44 46 -52
c49.333 -60 96.666 -130 141.999 -210c46.667 -80.667 74 -151.334 82 -212.001c3.33301 -27.333 -2.83398 -51.166 -18.501 -71.499s-36.5 -35.833 -62.5 -46.5c-23.333 -10 -48 -15.333 -74 -16s-49.667 3.66602 -71 12.999c-14.667 6.66699 -26.334 14.667 -35.001 24
s-18.334 21.333 -29.001 36c-3.33301 5.33301 -4.5 11 -3.5 17s4 10.667 9 14s10.5 4.5 16.5 3.5s10.667 -3.83301 14 -8.5c10 -14.667 17.667 -24.667 23 -30c6 -6.66699 13.667 -12 23 -16c14 -6.66699 31.333 -9.66699 52 -9s40.334 5 59.001 13
c39.333 16.667 57 40.334 53 71.001c-7.33301 55.333 -33 121.666 -77 198.999s-89.667 144.333 -137 201c-2.66699 3.33301 -17.667 20 -45 50c-20.667 22.667 -37 41.667 -49 57c-38 50.667 -55.667 97.667 -53 141c2.66699 42 15.334 77.5 38.001 106.5s50 49.5 82 61.5
s66.333 17 103 15c56.667 -2 108.667 -19 156 -51s77 -75 89 -129c1.33301 -6 0.5 -11.5 -2.5 -16.5s-7.5 -8.16699 -13.5 -9.5s-11.5 -0.5 -16.5 2.5s-8.16699 7.5 -9.5 13.5z" />
    <glyph glyph-name="T" unicode="T" horiz-adv-x="564" 
d="M79 910c37.333 -4.66699 78.499 -7.99805 123.499 -9.99805s83.5 -3 115.5 -3s75 0.333008 129 1s94 1 120 1c6 0 11.167 -2.16699 15.5 -6.5s6.5 -9.5 6.5 -15.5s-2.16699 -11.167 -6.5 -15.5s-9.5 -6.5 -15.5 -6.5c-25.333 0 -63.166 -0.333008 -113.499 -1
s-87.833 -1 -112.5 -1c0.666992 -48 1 -80.333 1 -97s-1.66699 -49 -5 -97c-3.33301 -46.667 -5.33301 -78 -6 -94c-4.66699 -96.667 -4.33398 -216.667 0.999023 -360c0 -6 -2 -11.333 -6 -16s-9 -7 -15 -7s-11.333 2 -16 6s-7 9 -7 15
c-5.33301 142 -5.66602 263.333 -0.999023 364c0.666992 19.333 2.66699 51.666 6 96.999c3.33301 48 5 79.667 5 95s-0.333008 46.666 -1 93.999c-85.333 0.666992 -160 5 -224 13c-6 0.666992 -10.833 3.5 -14.5 8.5s-5.16699 10.5 -4.5 16.5s3.5 10.833 8.5 14.5
s10.5 5.16699 16.5 4.5z" />
    <glyph glyph-name="U" unicode="U" horiz-adv-x="466" 
d="M101 615c0 -17.333 -5.66504 -76.668 -16.998 -178.001c-10 -89.333 -14.333 -159 -13 -209c2.66699 -72.667 17 -126.334 43 -161.001c28.667 -39.333 75.667 -55.666 141 -48.999s112.666 57 141.999 151c10.667 32 18.667 69.333 24 112c2 66 5.33301 133 10 201
c0 2.66699 0.666992 8.16699 2 16.5s2.83301 19.166 4.5 32.499s3.16699 24.333 4.5 33l1 12c-1.33301 2.66699 -1.33301 13.334 0 32.001v6c-0.666992 6 -1 9.66699 -1 11c0 6.66699 0.666992 11.667 2 15c3.33301 9.33301 9.66602 14.666 18.999 15.999
c8 0.666992 15 -1.66602 21 -6.99902c3.33301 -4 5.66602 -9 6.99902 -15v-8c0.666992 -4.66699 0.666992 -11 0 -19c-0.666992 -9.33301 -2 -21.333 -4 -36c0 -4 -0.333008 -8.33301 -1 -13c-4.66699 -53.333 -8 -101.333 -10 -144
c-2.66699 -58 -6.33398 -103.667 -11.001 -137c-2 -89.333 -1 -178.666 3 -267.999c0 -6 -2 -11.333 -6 -16s-9 -7 -15 -7s-11.333 2 -16 6s-7 9 -7 15c-1.33301 33.333 -2.33301 66.666 -3 99.999c-36.667 -81.333 -90.667 -125.666 -162 -132.999
c-81.333 -8.66699 -141.666 13.666 -180.999 66.999c-30.667 42 -47.667 103.667 -51 185c-1.33301 50 3.33398 122 14.001 216c10.667 94.667 16 152.334 16 173.001c0 6 2.16699 11.167 6.5 15.5s9.5 6.5 15.5 6.5s11.167 -2.16699 15.5 -6.5s6.5 -9.5 6.5 -15.5z" />
    <glyph glyph-name="V" unicode="V" horiz-adv-x="345" 
d="M63 653c18 -42 33.4971 -85.8359 46.4971 -131.503s26.333 -99 40 -160s23.834 -104.5 30.501 -130.5c2 -7.33301 5.16699 -20.166 9.5 -38.499s7.83301 -32.5 10.5 -42.5c0.666992 -2 1.66699 -5.66699 3 -11s3.33301 -12.333 6 -21s4.66699 -15.667 6 -21
c3.33301 11.333 5.33301 18.333 6 21c12 31.333 29.333 85 52 161s41 130.667 55 164c2 6 5.83301 10.167 11.5 12.5s11.334 2.33301 17.001 0s9.66699 -6.33301 12 -12s2.16602 -11.167 -0.500977 -16.5c-14.667 -37.333 -32.334 -90.666 -53.001 -159.999
c-24.667 -82.667 -42 -137.667 -52 -165c-0.666992 -1.33301 -5.33398 -16.333 -14.001 -45c-3.33301 -12 -6 -21 -8 -27c-1.33301 -4.66699 -2.66602 -8.33398 -3.99902 -11.001l-2 -4l-2 -4c-2.66699 -4 -6.33398 -6.66699 -11.001 -8
c-8.66699 -2.66699 -16.334 -0.666992 -23.001 6c-1.33301 1.33301 -2.66602 3 -3.99902 5l-3 6c-1.33301 2.66699 -2.66602 7 -3.99902 13l-11 37l-11 38c-4.66699 16.667 -7.33398 26.667 -8.00098 30c-3.33301 10 -7.16602 24.333 -11.499 43
s-7.16602 31.334 -8.49902 38.001c-8 29.333 -18.667 74 -32 134s-26.166 112 -38.499 156s-27.166 86 -44.499 126c-2.66699 6 -2.83398 11.833 -0.500977 17.5s6.33301 9.66699 12 12s11.334 2.33301 17.001 0s9.5 -6.16602 11.5 -11.499z" />
    <glyph glyph-name="W" unicode="W" horiz-adv-x="553" 
d="M50 650c17.333 -56.667 36.0039 -133.33 56.0039 -229.997c26 -124.667 42.333 -201 49 -229l5 -17l7.5 -34.5c3 -13.667 5.5 -25.5 7.5 -35.5l8 -31c2.66699 5.33301 5.66699 11.666 9 18.999c9.33301 20 26.333 63.667 51 131l50 135c8 20.667 14.333 36.334 19 47.001
c3.33301 6.66699 6.33301 12 9 16c5.33301 8 11 13 17 15c10 3.33301 19.333 1.66602 28 -5.00098c4.66699 -4 9.33398 -9.33301 14.001 -16c5.33301 -9.33301 11 -23.666 17 -42.999c8 -25.333 17.667 -66.333 29 -123l18 -92c4 27.333 8.33301 50.333 13 69
c6 30 18.5 82 37.5 156s32.167 131.333 39.5 172c1.33301 6 4.5 10.667 9.5 14s10.5 4.5 16.5 3.5s10.667 -4 14 -9s4.66602 -10.5 3.99902 -16.5c-8 -40.667 -21.5 -98.334 -40.5 -173.001s-31.833 -127 -38.5 -157c-4 -18.667 -10 -54.667 -18 -108
c-3.33301 -18 -5.66602 -31 -6.99902 -39c-1.33301 -6 -2.83301 -10.667 -4.5 -14s-3.83398 -6.33301 -6.50098 -9c-6.66699 -6.66699 -14.334 -8.66699 -23.001 -6c-5.33301 1.33301 -10 4.33301 -14 9l-4 8l-5 15c-2.66699 10 -6 24.667 -10 44
c-2.66699 12 -6.66699 32 -12 60l-12 64c-10.667 54 -20 93.667 -28 119c-2 7.33301 -4.33301 13.666 -7 18.999l-14 -36l-49 -134c-22.667 -62.667 -40.334 -107.334 -53.001 -134.001c-8.66699 -20 -16.667 -35 -24 -45c-4 -6.66699 -8.33301 -12 -13 -16
c-8.66699 -7.33301 -17.667 -9.66602 -27 -6.99902c-4.66699 0.666992 -8.33398 2.66699 -11.001 6c-1.33301 1.33301 -2.33301 2.66602 -3 3.99902s-1.33398 2.83301 -2.00098 4.5s-1.66699 3.83398 -3 6.50098c-0.666992 4 -2 9.66699 -4 17
c-3.33301 11.333 -7.33301 28 -12 50c-2.66699 10 -5.66699 22 -9 36l-7 33c-2 8.66699 -3.33301 14.667 -4 18c-5.33301 21.333 -22 98 -50 230c-20 95.333 -38.333 171 -55 227c-2 5.33301 -1.5 10.666 1.5 15.999s7.33301 9 13 11s11.167 1.5 16.5 -1.5s9 -7.5 11 -13.5z
" />
    <glyph glyph-name="X" unicode="X" horiz-adv-x="450" 
d="M91 66l13 29.999c4 10 8.66699 20.667 14 32l15 30c4 8 9.66699 18.333 17 31l16 28c3.33301 6 9.5 16.167 18.5 30.5s14.667 23.5 17 27.5s8.5 13.667 18.5 29l17 27l6 8c-39.333 70 -78.333 127 -117 171c-4.66699 4.66699 -6.66699 10 -6 16s3.16699 11.167 7.5 15.5
s9.5 6.16602 15.5 5.49902s11 -3 15 -7c38 -43.333 75 -96 111 -158l25 40l28 46l24 38c12.667 20 22.667 35.333 30 46l28 37c10.667 14.667 21.334 28.334 32.001 41.001c4 4.66699 9 7.33398 15 8.00098s11.333 -1 16 -5s7.33398 -9 8.00098 -15s-1 -11.333 -5 -16
c-16 -19.333 -32.667 -41.333 -50 -66l-40 -59c-10 -14.667 -25.333 -39 -46 -73l-40 -67l28 -54c21.333 -23.333 43.333 -49.333 66 -78c4 -5.33301 5.66699 -11 5 -17s-3.5 -10.833 -8.5 -14.5s-10.5 -5.16699 -16.5 -4.5s-10.667 3.33398 -14 8.00098
c-20.667 26 -39.667 48.667 -57 68c-4 2 -7.33301 5.33301 -10 10l-1 3l-17 18c-3.33301 3.33301 -5.33301 7.66602 -6 12.999l-51 -81c-11.333 -18.667 -25 -43.167 -41 -73.5s-28.667 -58.5 -38 -84.5c-2 -5.33301 -5.83301 -9.33301 -11.5 -12s-11.334 -3 -17.001 -1
s-9.83398 5.83301 -12.501 11.5s-3 11.5 -1 17.5z" />
    <glyph glyph-name="Y" unicode="Y" horiz-adv-x="510" 
d="M87 742c0.666992 -8 1.66406 -21.3379 2.99707 -40.0049s2.5 -31.834 3.5 -39.501s2.66699 -19 5 -34s5 -26.833 8 -35.5s7.16699 -19 12.5 -31s11.666 -23 18.999 -33c32 -46 76.333 -74.333 133 -85c76 -14.667 134.667 18 176 98c17.333 34 29.666 72.5 36.999 115.5
s9.33301 83.167 6 120.5c-0.666992 6 1 11.333 5 16s9 7.33398 15 8.00098s11.333 -1 16 -5s7.33398 -9 8.00098 -15c3.33301 -41.333 1 -85.666 -7 -132.999c-8 -46.667 -21.667 -89 -41 -127c-37.333 -72 -87.666 -113 -150.999 -123c4.66699 -30 7.33398 -63 8.00098 -99
s0 -68.333 -2 -97s-4.16699 -61.667 -6.5 -99s-3.5 -68.333 -3.5 -93c0 -6 -2.16699 -11.167 -6.5 -15.5s-9.5 -6.5 -15.5 -6.5s-11.167 2.16699 -15.5 6.5s-6.5 9.5 -6.5 15.5c0 28 1.16699 61 3.5 99s4.5 70.667 6.5 98s2.83301 58.333 2.5 93
s-3.16602 66.667 -8.49902 96c-9.33301 0.666992 -18.666 1.66699 -27.999 3c-32.667 6.66699 -63 18.834 -91 36.501s-51.333 39.834 -70 66.501c-8.66699 12.667 -16.167 26 -22.5 40s-11.333 26.333 -15 37s-6.83398 24.334 -9.50098 41.001s-4.5 29.167 -5.5 37.5
s-2.16699 22 -3.5 41s-2.33301 31.833 -3 38.5c-0.666992 6 1 11.333 5 16s9 7.33398 15 8.00098s11.333 -1 16 -5s7.33398 -9 8.00098 -15z" />
    <glyph glyph-name="Z" unicode="Z" horiz-adv-x="518" 
d="M90 763c25.333 2.66699 65.001 5.3291 119.001 7.99609c55.333 2.66699 94 5.66699 116 9c60 8 91.667 12.333 95 13c23.333 2.66699 41.666 4.33398 54.999 5.00098c8.66699 0.666992 15.667 1 21 1c3.33301 -0.666992 6.33301 -1 9 -1
c6.66699 -1.33301 11.667 -4.66602 15 -9.99902c8 -10 9.66699 -25 5 -45c-2.66699 -12 -8 -26.333 -16 -43c-10.667 -24.667 -22 -47 -34 -67c-16.667 -28 -36 -65 -58 -111l-54 -113c-12.667 -34 -24.667 -63.667 -36 -89c-0.666992 -2 -6 -13.333 -16 -34l-25 -53
c-9.33301 -21.333 -16.333 -38.333 -21 -51l-1 -3c6 -0.666992 13 -1 21 -1c20.667 0 49 1.66699 85 5h2c4 0.666992 7 1.33398 9 2.00098c14.667 2 31.334 3 50.001 3c54.667 6 84.334 9 89.001 9c6 0 11.333 -2 16 -6s7 -9 7 -15s-2 -11.333 -6 -16s-9 -7 -15 -7
c-3.33301 0 -8.66602 -0.333008 -15.999 -1c-4.66699 -5.33301 -10.334 -8 -17.001 -8c-6 0 -15.167 0.166992 -27.5 0.5s-21.5 0.5 -27.5 0.5c-21.333 -2.66699 -40 -4.66699 -56 -6c-4.66699 -0.666992 -15.334 -3 -32.001 -7l-38 -8
c-19.333 -4.66699 -35.333 -7.66699 -48 -9c-18 -2.66699 -31.667 -2.66699 -41 0c-8 2 -15.167 6.66699 -21.5 14s-9.5 15.666 -9.5 24.999c0 4 1.33301 9.33301 4 16l7 17l22 43l35 69c7.33301 17.333 18.333 39 33 65c18.667 34 29.667 54.667 33 62l1 1l29 80
c27.333 73.333 50.666 130.333 69.999 171l15 24c6.66699 11.333 11.667 20.333 15 27c3.33301 8 5 14 5 18v1h-1h-2c-4.66699 0 -11.334 -0.666992 -20.001 -2c-14.667 -1.33301 -35.667 -3.66602 -63 -6.99902c-72 -10 -108.333 -15 -109 -15
c-9.33301 -0.666992 -22.833 -1.5 -40.5 -2.5s-29.5 -1.83301 -35.5 -2.5c-28.667 -2 -52.667 -4.66699 -72 -8c-8.66699 -1.33301 -15.667 1.33398 -21 8.00098c-5.33301 0 -10.166 1.83301 -14.499 5.5s-6.83301 8.16699 -7.5 13.5c-0.666992 6 0.833008 11.5 4.5 16.5
s8.5 7.83301 14.5 8.5z" />
    <glyph glyph-name="bracketleft" unicode="[" horiz-adv-x="348" 
d="M348 708c-29.333 4 -64.3301 6.33301 -104.997 7c-25.333 0 -45.666 -1 -60.999 -3c-7.33301 -1.33301 -13 -2.66602 -17 -3.99902l-1 -1c-2 -7.33301 -2.66699 -19 -2 -35c0 -3.33301 0.333008 -12.333 1 -27c0.666992 -10.667 1 -19 1 -25
c-1.33301 -38 -5.16602 -106.667 -11.499 -206s-9.5 -176.333 -9.5 -231c0 -12.667 0.333008 -38.667 1 -78c0.666992 -20 1 -36 1 -48c0.666992 -4.66699 1 -8.66699 1 -12h3c6.66699 -1.33301 15 -1.33301 25 0c6 0 16 1 30 3c12.667 2 21.667 3 27 3
c6 0 11.167 -2.16699 15.5 -6.5s6.5 -9.5 6.5 -15.5s-2.16699 -11.167 -6.5 -15.5s-9.5 -6.5 -15.5 -6.5c-3.33301 0 -10.333 -0.666992 -21 -2c-14.667 -2 -25.334 -3.33301 -32.001 -4c-14 -1.33301 -25.667 -1.33301 -35 0c-15.333 2.66699 -27 8.66699 -35 18
c-2 2 -3.33301 4.66699 -4 8c-0.666992 0.666992 -1 1.66699 -1 3v3c0 1.33301 -0.333008 3 -1 5v17c-0.666992 12 -1.33398 28.333 -2.00098 49c-0.666992 40 -1 66.333 -1 79c0 54.667 3.16699 132 9.5 232s10.166 169 11.499 207c0 4 -0.333008 11 -1 21
c-0.666992 14.667 -1 23.667 -1 27c-0.666992 25.333 1.66602 44.666 6.99902 57.999c3.33301 8.66699 11 15.334 23 20.001c7.33301 3.33301 16.666 5.66602 27.999 6.99902c17.333 2.66699 40 4 68 4c42 -0.666992 78.667 -3 110 -7c6 -0.666992 10.833 -3.5 14.5 -8.5
s5.16699 -10.5 4.5 -16.5s-3.5 -10.833 -8.5 -14.5s-10.5 -5.16699 -16.5 -4.5z" />
    <glyph glyph-name="backslash" unicode="\" horiz-adv-x="409" 
d="M147 654c12 -17.333 22.4971 -37.168 31.4971 -59.501s17.833 -47.666 26.5 -75.999s15.334 -47.833 20.001 -58.5c24 -62.667 61.667 -147 113 -253c8.66699 -17.333 24.334 -53.666 47.001 -108.999c19.333 -46.667 35 -81.667 47 -105c2.66699 -5.33301 3 -11 1 -17
s-5.66699 -10.333 -11 -13s-11 -3 -17 -1s-10.333 5.66699 -13 11c-12 24 -27.833 60.167 -47.5 108.5s-35.167 83.5 -46.5 105.5c-49.333 100 -87.666 185.667 -114.999 257c-5.33301 14.667 -12.166 35.5 -20.499 62.5s-16.333 50.167 -24 69.5
s-16.834 36.666 -27.501 51.999c-3.33301 5.33301 -4.5 11 -3.5 17s4 10.667 9 14s10.5 4.5 16.5 3.5s10.667 -3.83301 14 -8.5z" />
    <glyph glyph-name="bracketright" unicode="]" horiz-adv-x="293" 
d="M100 808c4.66699 -1.33301 18.3311 -2.99707 40.998 -4.99707c25.333 -2.66699 47.333 -5.33398 66 -8.00098c27.333 -3.33301 48.333 -7.33301 63 -12c10 -3.33301 18.333 -6.66602 25 -9.99902c10.667 -6.66699 17 -14.667 19 -24c6 -24.667 5.33301 -55.667 -2 -93
c-0.666992 -0.666992 -4 -15 -10 -43c-3.33301 -16 -5.66602 -29 -6.99902 -39c-14 -118.667 -19.667 -209.667 -17 -273c0 -6.66699 5.33301 -61 16 -163c4.66699 -44.667 8 -78 10 -100c1.33301 -14.667 2.33301 -26 3 -34v-11v-4
c0 -2.66699 -0.333008 -5.33398 -1 -8.00098c-2.66699 -8 -8.66699 -14.333 -18 -19c-4.66699 -2.66699 -11 -5.33398 -19 -8.00098c-12 -3.33301 -27.667 -6.66602 -47 -9.99902c-14 -2.66699 -40.333 -6.33398 -79 -11.001c-6 -0.666992 -11.5 0.833008 -16.5 4.5
s-7.83301 8.5 -8.5 14.5s0.833008 11.5 4.5 16.5s8.5 7.83301 14.5 8.5c38.667 4.66699 64.667 8 78 10c17.333 3.33301 31 6.33301 41 9c2.66699 0.666992 5 1.66699 7 3v2c-0.666992 8 -1.66699 19 -3 33l-10 100c-10.667 102 -16 157 -16 165
c-2.66699 66 3 159.667 17 281c1.33301 11.333 4 25.666 8 42.999c6 27.333 9 41.333 9 42c6 28.667 7.33301 52 4 70c-3.33301 2 -8 4 -14 6c-13.333 4 -32.333 7.66699 -57 11c-15.333 2 -36.666 4.33301 -63.999 7c-24.667 2.66699 -39.667 4.33398 -45 5.00098
c-6 1.33301 -10.667 4.5 -14 9.5s-4.5 10.5 -3.5 16.5s4 10.667 9 14s10.5 4.66602 16.5 3.99902z" />
    <glyph glyph-name="asciicircum" unicode="^" horiz-adv-x="500" 
d="M402 856l-2 3c0 -1.33301 0.666992 -2.33301 2 -3zM205 600c7.33301 6 20.3311 23.999 38.998 53.999l57 99l55 94c9.33301 14 17 24.667 23 32c4 5.33301 7.66699 9.33301 11 12c6 5.33301 12.333 8 19 8c8.66699 0 16 -3 22 -9c4 -4 7.33301 -8.66699 10 -14
c4.66699 -8.66699 9.33398 -20.667 14.001 -36c8 -23.333 17 -57.666 27 -102.999l24 -114c8.66699 -40.667 14.667 -67 18 -79c2 -5.33301 1.5 -10.666 -1.5 -15.999s-7.33301 -9 -13 -11s-11.167 -1.5 -16.5 1.5s-9 7.5 -11 13.5c-3.33301 10 -9.66602 37.333 -18.999 82
l-24 113c-10 44 -18.333 77.333 -25 100l-7 17c-4 -5.33301 -8.33301 -12 -13 -20c-10.667 -16.667 -28.667 -47.667 -54 -93l-59 -100c-21.333 -34.667 -38 -56.334 -50 -65.001c-4.66699 -4 -10 -5.66699 -16 -5s-10.833 3.5 -14.5 8.5s-5.16699 10.5 -4.5 16.5
s3.66699 10.667 9 14z" />
    <glyph glyph-name="underscore" unicode="_" horiz-adv-x="534" 
d="M131 51c41.333 4.66699 83.334 7.66699 126.001 9c43.333 0.666992 95.5 0.333984 156.5 -0.999023s102.167 -2 123.5 -2c6 0 11.167 -2.16699 15.5 -6.5s6.5 -9.5 6.5 -15.5s-2.16699 -11.167 -6.5 -15.5s-9.5 -6.5 -15.5 -6.5c-22.667 0 -64.334 0.666992 -125.001 2
s-112 1.66602 -154 0.999023c-38 -1.33301 -78.333 -4.33301 -121 -9c-6 -0.666992 -11.5 0.833008 -16.5 4.5s-7.83301 8.5 -8.5 14.5s0.833008 11.5 4.5 16.5s8.5 7.83301 14.5 8.5z" />
    <glyph glyph-name="grave" unicode="`" horiz-adv-x="179" 
d="M87 856c11.333 -12.667 22.668 -27.167 34.001 -43.5s20.333 -29.833 27 -40.5l28 -48l25 -42c3.33301 -4.66699 4.16602 -10 2.49902 -16s-5 -10.667 -10 -14s-10.5 -4.16602 -16.5 -2.49902s-10.667 5.16699 -14 10.5l-25 43l-28 45c-6 10.667 -14.167 23.5 -24.5 38.5
s-20.5 28.167 -30.5 39.5c-4.66699 4.66699 -6.66699 10 -6 16s3.16699 11.167 7.5 15.5s9.5 6.16602 15.5 5.49902s11 -3 15 -7z" />
    <glyph glyph-name="a" unicode="a" horiz-adv-x="482" 
d="M19 742c54 41.333 117.663 65.002 190.996 71.002c70 5.33301 126.333 -14.667 169 -60c34.667 -36.667 60 -90 76 -160c5.33301 -23.333 9.5 -47.833 12.5 -73.5s5 -52.667 6 -81s1.66699 -51.833 2 -70.5s0.333008 -42.834 0 -72.501s-0.5 -48.167 -0.5 -55.5
c0 -14 -1.66699 -35 -5 -63s-5 -48 -5 -60c-1.33301 -39.333 10 -68.333 34 -87c4.66699 -3.33301 7.33398 -8 8.00098 -14s-0.833008 -11.5 -4.5 -16.5s-8.5 -7.83301 -14.5 -8.5s-11.667 1 -17 5c-24.667 19.333 -40.334 44.666 -47.001 75.999
c-38.667 -22.667 -72.334 -35.667 -101.001 -39c-26 -2.66699 -54.167 -0.333984 -84.5 6.99902s-57.166 18.666 -80.499 33.999c-17.333 12 -31.333 25.5 -42 40.5s-17.667 32.833 -21 53.5s0.333984 42.334 11.001 65.001c20.667 46 63.334 89.333 128.001 130
c34.667 21.333 67.5 36.833 98.5 46.5s63.833 11.167 98.5 4.5c-2 66 -8.33301 122.333 -19 169c-14 62.667 -35.667 109.334 -65 140.001c-33.333 35.333 -77.666 50.666 -132.999 45.999c-65.333 -5.33301 -121.666 -25.666 -168.999 -60.999
c-4.66699 -4 -10 -5.66699 -16 -5s-10.833 3.5 -14.5 8.5s-5.16699 10.5 -4.5 16.5s3.66699 10.667 9 14zM428.996 370.002c-28.667 6 -56.334 5.33594 -83.001 -1.99707c-25.333 -8 -54.666 -22.333 -87.999 -43c-58 -36.667 -95.333 -73.334 -112 -110.001
c-18 -40.667 -5.66699 -75.334 37 -104.001c18.667 -12.667 40.667 -22.334 66 -29.001c25.333 -6 48 -7.66699 68 -5c24 2.66699 58.667 17.334 104 44.001c0 13.333 1.66699 33.666 5 60.999s5 46.666 5 57.999c0 8 0.166992 26.833 0.5 56.5s0.5 53.834 0.5 72.501
c-1.33301 0 -2.33301 0.333008 -3 1z" />
    <glyph glyph-name="b" unicode="b" horiz-adv-x="541" 
d="M88 109l5.99707 3.00488l19 8c21.333 8.66699 35.333 15 42 19c44.667 22.667 94 56 148 100c31.333 26 60.333 53.667 87 83s50.834 61.166 72.501 95.499s37.834 70.5 48.501 108.5s13.667 75.333 9 112c-6 52 -34.167 98.5 -84.5 139.5s-103.5 63.833 -159.5 68.5
c-10 0.666992 -20.167 1.16699 -30.5 1.5s-21.666 0.166016 -33.999 -0.500977s-22.5 -1.33398 -30.5 -2.00098l-35 -3c-15.333 -1.33301 -26.333 -2.33301 -33 -3c2 -39.333 2.66699 -68.5 2 -87.5s-2.66699 -48 -6 -87s-5.33301 -66.833 -6 -83.5l-7 -109l-6.5 -122
c-1.66699 -30.667 -3 -71.834 -4 -123.501s-0.166992 -90.834 2.5 -117.501zM290.997 71.0049c-2 0.666992 -4.33496 1.66992 -7.00195 3.00293c-7.33301 3.33301 -20.666 5 -39.999 5c-15.333 -0.666992 -35.333 -2.33398 -60 -5.00098
c-7.33301 -0.666992 -17.333 -1.83398 -30 -3.50098s-21.334 -2.83398 -26.001 -3.50098c-9.33301 -1.33301 -16.333 -2 -21 -2h-9c-2.66699 0.666992 -5 1 -7 1c2 -17.333 4.33301 -33.666 7 -48.999c2.66699 0.666992 5.33398 1 8.00098 1
c7.33301 0 25.833 3.16699 55.5 9.5s56.834 13.5 81.501 21.5c22.667 7.33301 38.667 14.666 48 21.999zM106.995 883.008c3.33301 0 17.168 1.16699 41.501 3.5s38.833 3.5 43.5 3.5s19.334 0.5 44.001 1.5s39.334 0.5 44.001 -1.5
c41.333 -3.33301 82.5 -15.833 123.5 -37.5s76.667 -51.167 107 -88.5s48.166 -77.333 53.499 -120c4.66699 -42.667 1.16699 -85.5 -10.5 -128.5s-29.5 -83.333 -53.5 -121s-50 -71.834 -78 -102.501c-27.333 -30.667 -57.666 -59.667 -90.999 -87
c-42.667 -35.333 -81.667 -63.333 -117 -84c10.667 0.666992 20.667 1.33398 30 2.00098c24.667 0 44 -3 58 -9c17.333 -7.33301 28.666 -16.666 33.999 -27.999c6.66699 -14 4 -27.667 -8 -41s-35.667 -26 -71 -38c-26 -8.66699 -55 -16.334 -87 -23.001
s-53.333 -10 -64 -10c-3.33301 0 -6.33301 0.666992 -9 2c-3.33301 -3.33301 -7 -5.33301 -11 -6c-6 -1.33301 -11.5 -0.5 -16.5 2.5s-8.16699 7.5 -9.5 13.5c-8.66699 38 -14 85.667 -16 143c-2.66699 58 -3.16699 107.333 -1.5 148s4.66699 97.5 9 170.5
s6.83301 118.167 7.5 135.5c0.666992 20.667 3 51 7 91c3.33301 40.667 5.16602 69.5 5.49902 86.5s-0.833984 45.5 -3.50098 85.5c-0.666992 6 0.833008 11.5 4.5 16.5s8.5 7.83301 14.5 8.5h2c4 7.33301 10 11.333 18 12z" />
    <glyph glyph-name="c" unicode="c" horiz-adv-x="403" 
d="M384 546c0 25.333 -7.00488 52.498 -21.0049 81.498s-31.667 53.167 -53 72.5c-22 20.667 -44 32 -66 34c-24 2.66699 -46.333 -6 -67 -26c-28 -26.667 -47 -65.334 -57 -116.001s-11.333 -107.667 -4 -171c6.66699 -58.667 19.334 -115.667 38.001 -171
c18 -55.333 38 -99.666 60 -132.999l10 -13c3.33301 -4.66699 7.83301 -9.66699 13.5 -15s9.83398 -9 12.501 -11l15 -14c8 -6.66699 13 -11 15 -13c4 -4 6.33301 -9 7 -15s-1.16602 -11.167 -5.49902 -15.5s-9.5 -6.83301 -15.5 -7.5s-11.333 1.33301 -16 6
c-0.666992 0.666992 -5.16699 4.5 -13.5 11.5s-13.833 12.167 -16.5 15.5l-14 13c-6 6 -11.167 11.667 -15.5 17s-8.5 11 -12.5 17c-24.667 36.667 -46.667 84.334 -66 143.001s-32.666 118.667 -39.999 180c-7.33301 67.333 -5.5 129.833 5.5 187.5
s34.167 103.167 69.5 136.5c30.667 28.667 64.334 41.334 101.001 38.001c32 -3.33301 62.667 -18.333 92 -45c25.333 -23.333 46.333 -52.333 63 -87s25 -68 25 -100c0 -6 -2.16699 -11.167 -6.5 -15.5s-9.5 -6.5 -15.5 -6.5s-11.167 2.16699 -15.5 6.5s-6.5 9.5 -6.5 15.5
z" />
    <glyph glyph-name="d" unicode="d" horiz-adv-x="427" 
d="M131 36c43.333 14.667 83.832 35.5 121.499 62.5s68.167 57.833 91.5 92.5c40.667 61.333 62.5 132 65.5 212s-12.5 156 -46.5 228s-81.667 127.333 -143 166c-56.667 36.667 -101.667 57.667 -135 63c5.33301 -44.667 8 -102 8 -172
c0.666992 -10.667 0.666992 -30 0 -58c0.666992 -16 1.33398 -30.333 2.00098 -43c3.33301 -60 9.33301 -151.333 18 -274s14.667 -215 18 -277zM70.999 905c20 -0.666992 41.501 -5.16797 64.501 -13.501s41.5 -16.5 55.5 -24.5s31.667 -18.667 53 -32
c68 -44 120.667 -105.5 158 -184.5s54.333 -162.5 51 -250.5c-3.33301 -87.333 -27.666 -165 -72.999 -233c-28 -41.333 -63.667 -77 -107 -107c-44 -30.667 -90.667 -54 -140 -70c-5.33301 -1.33301 -10.333 -1 -15 1c-2 -1.33301 -4.33301 -2 -7 -2
c-6.66699 0 -12.334 2.33301 -17.001 7h-4c-6 0 -11.167 2.16699 -15.5 6.5s-6.5 9.5 -6.5 15.5c0 20 0.166992 51.833 0.5 95.5s0.5 82 0.5 115s-0.666992 64.833 -2 95.5c-0.666992 18 -3.33398 48.333 -8.00098 91c-4.66699 42 -7.33398 73.333 -8.00098 94
c-1.33301 28 -2 67.333 -2 118c0 7.33301 -0.333008 27.333 -1 60s-1.16699 55.834 -1.5 69.501s-1.66602 32.167 -3.99902 55.5s-5.5 44.333 -9.5 63c-1.33301 6 -0.5 11.667 2.5 17s7.5 8.33301 13.5 9c0.666992 0.666992 3.66699 1 9 1c4 2 8.33301 3 13 3z" />
    <glyph glyph-name="e" unicode="e" horiz-adv-x="447" 
d="M178 185l36.001 8.00098l35 11c42 14 75.333 27.333 100 40c28 14 45.333 26.667 52 38c11.333 19.333 16.666 53.333 15.999 102c0 50.667 -6 101.667 -18 153c-13.333 55.333 -31 98 -53 128s-45.667 42.667 -71 38c-28.667 -4.66699 -51 -27.334 -67 -68.001
c-9.33301 -24 -18.333 -63 -27 -117c-20 -125.333 -23.333 -226.333 -10 -303c2 -10.667 4.33301 -20.667 7 -30zM192.001 141.001c28.667 -66 77.665 -102.001 146.998 -108.001c6 -0.666992 11 -3.33398 15 -8.00098s5.66699 -10 5 -16
c0 -0.666992 -0.333008 -1.66699 -1 -3c2 -3.33301 3 -6.66602 3 -9.99902c0 -6 -2.16699 -11.167 -6.5 -15.5s-9.5 -6.5 -15.5 -6.5c-74.667 0 -132.667 40 -174 120c-5.33301 10.667 -10.666 22 -15.999 34c-41.333 -12 -68 -20 -80 -24
c-5.33301 -2 -10.833 -1.66699 -16.5 1s-9.5 6.83398 -11.5 12.501s-1.66699 11.334 1 17.001s7 9.5 13 11.5c4 1.33301 8.66699 3 14 5c2.66699 5.33301 7.33398 9 14.001 11c10.667 3.33301 27.667 7.66602 51 12.999c-14 50.667 -22 107 -24 169
c-2.66699 94.667 8.33301 180 33 256c28 85.333 66.667 134 116 146c48 12 90 -3.66699 126 -47c29.333 -34 52 -82.333 68 -145c14 -56.667 20.667 -113.334 20 -170.001c-1.33301 -59.333 -11 -104 -29 -134c-12 -20 -35 -37.667 -69 -53
c-24.667 -11.333 -58 -22.666 -100 -33.999l-49 -13z" />
    <glyph glyph-name="f" unicode="f" 
d="M82 19c0 16 -1.33398 46.333 -4.00098 91c-2.66699 42.667 -3.33398 74.334 -2.00098 95.001c1.33301 20 6.16602 88.333 14.499 205s12.5 206.334 12.5 269.001c0 5.33301 -1.33301 19.333 -4 42c-3.33301 34 -5.33301 56.333 -6 67c-2.66699 28 -4 50 -4 66
c0.666992 10.667 1.33398 19.667 2.00098 27c2 10.667 5.66699 18.667 11 24c12.667 12.667 32 20.667 58 24c18.667 2.66699 41.667 3 69 1c18 -1.33301 41 -4 69 -8c28.667 -3.33301 45.334 -5.33301 50.001 -6c6 -0.666992 11 -3.33398 15 -8.00098s5.66699 -10 5 -16
s-3.33398 -11 -8.00098 -15s-10 -5.66699 -16 -5c-5.33301 0.666992 -22.666 3 -51.999 7c-26 3.33301 -48 5.66602 -66 6.99902c-24.667 2 -45 2 -61 0c-14 -2 -24 -5.33301 -30 -10v-3c-1.33301 -4.66699 -2 -11 -2 -19c0 -15.333 1.33301 -36 4 -62
c0.666992 -10.667 2.66699 -32.667 6 -66c2.66699 -24 4 -39.667 4 -47c0 -40.667 -1.33301 -86 -4 -136c7.33301 0 18.333 1 33 3c6 0.666992 11.5 -0.833008 16.5 -4.5s7.83301 -8.5 8.5 -14.5s-0.833008 -11.5 -4.5 -16.5s-8.5 -7.83301 -14.5 -8.5
c-17.333 -2 -31 -3 -41 -3l-11 -139l-10 -157c-1.33301 -22.667 -0.666016 -52.667 2.00098 -90c2.66699 -46 4 -77.333 4 -94c0 -6 -2.16699 -11.167 -6.5 -15.5s-9.5 -6.5 -15.5 -6.5s-11.167 2.16699 -15.5 6.5s-6.5 9.5 -6.5 15.5z" />
    <glyph glyph-name="g" unicode="g" horiz-adv-x="504" 
d="M481 683c5.33301 2.66699 11.001 3.33008 17.001 1.99707c6 -2 11 -5.66699 15 -11c2.66699 -4.66699 5 -11 7 -19c3.33301 -10.667 5.66602 -26.667 6.99902 -48c2.66699 -38 3.33398 -73.333 2.00098 -106c-2 -51.333 -4 -87 -6 -107
c2.66699 -77.333 3 -139.333 1 -186c-4 -104 -19.667 -174 -47 -210c-4 -5.33301 -8.16699 -10.166 -12.5 -14.499s-8.33301 -8.16602 -12 -11.499s-8.5 -6.66602 -14.5 -9.99902s-10.5 -6 -13.5 -8s-8 -4.16699 -15 -6.5s-11.667 -4 -14 -5s-7.5 -2.5 -15.5 -4.5
s-12.667 -3.33301 -14 -4l-16 -2c-8.66699 -2 -13 -3.33301 -13 -4c-66.667 -14 -138.334 -13.333 -215.001 2c-6 1.33301 -10.667 4.5 -14 9.5s-4.5 10.5 -3.5 16.5s4 10.667 9 14s10.5 4.66602 16.5 3.99902c71.333 -14.667 137 -15.334 197 -2.00098
c23.333 4.66699 39.5 8.16699 48.5 10.5s20.167 7 33.5 14s24 16.167 32 27.5c22 29.333 35 91.333 39 186c0.666992 4 1 8.33301 1 13c-9.33301 -19.333 -20.333 -36.666 -33 -51.999c-16.667 -20 -36.667 -35.167 -60 -45.5s-47 -15.5 -71 -15.5
c-24 0.666992 -48.333 4 -73 10c-36 8.66699 -70.167 23.334 -102.5 44.001s-57.833 43.667 -76.5 69c-23.333 30 -39.833 64.167 -49.5 102.5s-12.5 76.5 -8.5 114.5c4 36.667 13.667 73 29 109c23.333 54.667 58 100 104 136s98.333 54.667 157 56
c78.667 2 140 -20.667 184 -68zM459.001 640.996c-20 25.333 -42.8359 42.833 -68.5029 52.5s-56.167 14.167 -91.5 13.5c-50 -1.33301 -94.5 -17.166 -133.5 -47.499s-68.833 -69.833 -89.5 -118.5c-20.667 -45.333 -29.167 -94 -25.5 -146s19.834 -97.333 48.501 -136
c16 -20.667 38.333 -40 67 -58c27.333 -18 57 -31 89 -39c70.667 -18.667 123.667 -6.33398 159 36.999c34.667 42.667 56.334 108.334 65.001 197.001c-0.666992 10.667 -1 18.667 -1 24c0 4.66699 -0.333008 13.5 -1 26.5s-1.66699 30.167 -3 51.5
s-2.66602 39 -3.99902 53c-2 33.333 -3.33301 58.666 -4 75.999v8c-2.66699 1.33301 -5 3.33301 -7 6z" />
    <glyph glyph-name="h" unicode="h" horiz-adv-x="412" 
d="M101 510l1.99512 -45.9951c0.666992 -14.667 -1 -88 -5 -220c-2.66699 -92 0.333008 -161 9 -207c0.666992 -6 -0.666016 -11.5 -3.99902 -16.5s-8 -8 -14 -9s-11.5 0.166992 -16.5 3.5s-8.16699 8 -9.5 14c-8.66699 49.333 -11.667 121.666 -9 216.999
c4 132.667 5.66699 204.667 5 216c-1.33301 46.667 -4.33301 91.667 -9 135c-4.66699 45.333 -11.5 101 -20.5 167s-14.833 110.333 -17.5 133c-0.666992 6 0.833008 11.5 4.5 16.5s8.5 7.83301 14.5 8.5s11.5 -0.833008 16.5 -4.5s7.83301 -8.5 8.5 -14.5
c3.33301 -26.667 8.16602 -63.334 14.499 -110.001s11.833 -89.334 16.5 -128.001s8.33398 -75.334 11.001 -110.001c14 29.333 41.333 50.333 82 63c44 14 85 14.667 123 2c35.333 -12 64.333 -39.667 87 -83c13.333 -27.333 23.833 -58.5 31.5 -93.5s12.5 -67 14.5 -96
s1.83301 -64.5 -0.5 -106.5s-4.66602 -74 -6.99902 -96s-6.16602 -53.333 -11.499 -94c-0.666992 -6 -3.5 -10.833 -8.5 -14.5s-10.5 -5.16699 -16.5 -4.5s-10.833 3.5 -14.5 8.5s-5.16699 10.5 -4.5 16.5c6.66699 49.333 11.334 89.166 14.001 119.499
s4.66699 68.333 6 114s-1.66699 87.167 -9 124.5s-18.666 71.333 -33.999 102c-16.667 32.667 -37 53 -61 61c-29.333 10 -61.333 9.33301 -96 -2c-34.667 -10.667 -54.334 -28 -59.001 -52c-1.33301 -6 -4.66602 -10.5 -9.99902 -13.5s-11 -4.16699 -17 -3.5
c-2 0.666992 -4 1.66699 -6 3z" />
    <glyph glyph-name="i" unicode="i" horiz-adv-x="251" 
d="M210 902c8 -3.33301 15.333 -7.66895 22 -13.002c30 -23.333 45 -52 45 -86c0 -30 -11 -58 -33 -84c-13.333 -15.333 -29.333 -28 -48 -38s-38.834 -15.5 -60.501 -16.5s-43.167 4.5 -64.5 16.5c-20.667 12 -37 29 -49 51c-11.333 22 -17.666 45 -18.999 69
c-3.33301 54.667 17.667 94.334 63 119.001c36 19.333 80 26 132 20c6 -0.666992 10.833 -3.5 14.5 -8.5s5.16699 -10.5 4.5 -16.5c-0.666992 -5.33301 -3 -9.66602 -7 -12.999zM143 737.997c-49.333 10.667 -80.002 28.998 -92.002 54.998
c-2 3.33301 -3.33301 6.66602 -4 9.99902c1.33301 -18 6 -34.5 14 -49.5s18.667 -26.5 32 -34.5c20 -10.667 40.667 -13.167 62 -7.5s40 17.834 56 36.501c14.667 17.333 22 35.333 22 54c0 20.667 -9.66699 38.334 -29 53.001c-13.333 10 -30.666 13 -51.999 9
c-21.333 -3.33301 -38.666 -12 -51.999 -26c-10 -10 -13.333 -18.667 -10 -26c6.66699 -12.667 27.667 -22.667 63 -30c6 -1.33301 10.5 -4.66602 13.5 -9.99902s4 -11 3 -17s-4.16699 -10.5 -9.5 -13.5s-11 -4.16699 -17 -3.5zM152.998 634.995
c20 -68.667 26.668 -171.666 20.001 -308.999c-0.666992 -18 -3.66699 -65.667 -9 -143s-8 -133.333 -8 -168c0 -6 -2.16699 -11.167 -6.5 -15.5s-9.5 -6.5 -15.5 -6.5s-11.167 2.16699 -15.5 6.5s-6.5 9.5 -6.5 15.5c0 34.667 2.66699 91.167 8 169.5
s8.33301 126.166 9 143.499c6.66699 132.667 0.666992 231 -18 295c-2 6 -1.5 11.667 1.5 17s7.5 8.83301 13.5 10.5s11.667 1 17 -2s8.66602 -7.5 9.99902 -13.5z" />
    <glyph glyph-name="j" unicode="j" horiz-adv-x="262" 
d="M272 850c8 -64 12.833 -130.834 14.5 -200.501s1.33398 -153.334 -0.999023 -251.001s-3.5 -163.834 -3.5 -198.501c0 -58 -1.33301 -95.667 -4 -113c-9.33301 -56.667 -33.333 -90.334 -72 -101.001c-28.667 -8 -54.334 -5.66699 -77.001 7
c-19.333 12 -36 31.333 -50 58c-21.333 41.333 -36 103.333 -44 186c-6 55.333 -9 125.333 -9 210v45v40c-0.666992 26 -1.33398 44 -2.00098 54c-0.666992 6 1 11.333 5 16s9 7.33398 15 8.00098s11.333 -1 16 -5s7.33398 -9 8.00098 -15
c0.666992 -11.333 1.33398 -30.666 2.00098 -57.999v-40v-45c0 -83.333 3 -151.666 9 -204.999c7.33301 -77.333 20.333 -134.333 39 -171c10 -19.333 21 -32.333 33 -39c12 -7.33301 26.333 -8.66602 43 -3.99902c20.667 6 34 28 40 66c2.66699 14.667 4 50 4 106
c0 36.667 1.16699 103.5 3.5 200.5s2.66602 179.5 0.999023 247.5s-6.5 133.333 -14.5 196c-0.666992 6 0.833008 11.5 4.5 16.5s8.5 7.83301 14.5 8.5s11.5 -0.833008 16.5 -4.5s7.83301 -8.5 8.5 -14.5z" />
    <glyph glyph-name="k" unicode="k" 
d="M118 759c10.667 -66 15.6689 -160.332 15.002 -282.999l19 41l25 49c40.667 73.333 90.667 156.666 150 249.999c3.33301 4.66699 8 7.66699 14 9s11.5 0.5 16.5 -2.5s8.16699 -7.5 9.5 -13.5s0.666016 -11.667 -2.00098 -17
c-59.333 -92.667 -109.333 -175.334 -150 -248.001c-4 -7.33301 -12.333 -24.166 -25 -50.499s-23 -46.166 -31 -59.499c47.333 -14.667 92.666 -34 135.999 -58c5.33301 -2.66699 8.83301 -7 10.5 -13s1 -11.667 -2 -17s-7.5 -8.83301 -13.5 -10.5
s-11.667 -0.833984 -17 2.49902c-44 24 -91 43.333 -141 58v-2v-3c0 -42 0.666992 -105 2 -189s2 -147 2 -189c0 -6 -2.16699 -11.167 -6.5 -15.5s-9.5 -6.5 -15.5 -6.5s-11.167 2.16699 -15.5 6.5s-6.5 9.5 -6.5 15.5c0 42 -0.666992 105 -2 189s-2 147 -2 189
c0 9.33301 0.166992 38.166 0.5 86.499s0.333008 81.833 0 100.5s-1.66602 45.334 -3.99902 80.001s-5.83301 65.667 -10.5 93c-0.666992 6 0.666016 11.5 3.99902 16.5s8 8 14 9s11.5 -0.166992 16.5 -3.5s8.16699 -8 9.5 -14z" />
    <glyph glyph-name="l" unicode="l" horiz-adv-x="115" 
d="M132 816c2.66699 -39.333 4.16797 -80.502 4.50098 -123.502s0 -93.167 -1 -150.5s-1.5 -98.666 -1.5 -123.999c0 -43.333 1 -108.5 3 -195.5s3 -152.167 3 -195.5c0 -6 -2.16699 -11.167 -6.5 -15.5s-9.5 -6.5 -15.5 -6.5s-11.167 2.16699 -15.5 6.5s-6.5 9.5 -6.5 15.5
c0 43.333 -1 108.5 -3 195.5s-3 152.167 -3 195.5c0 26 0.5 67.167 1.5 123.5s1.33301 106 1 149s-1.83301 84.167 -4.5 123.5c-0.666992 6 1.16602 11.167 5.49902 15.5s9.5 6.83301 15.5 7.5s11.167 -1.16602 15.5 -5.49902s6.83301 -9.5 7.5 -15.5z" />
    <glyph glyph-name="m" unicode="m" horiz-adv-x="592" 
d="M276 620c-8.66699 47.333 -21.6709 81.335 -39.0039 102.002s-42 20.334 -74 -0.999023c-15.333 -10.667 -27.833 -23.334 -37.5 -38.001s-14.167 -27.334 -13.5 -38.001c0 -6 -2 -11.333 -6 -16s-9 -7 -15 -7c-5.33301 0 -10 1.33301 -14 4
c16.667 -89.333 26.334 -167.333 29.001 -234c1.33301 -30.667 1 -89.334 -1 -176.001c-2 -74.667 -0.666992 -131.667 4 -171c0.666992 -6 -1 -11.333 -5 -16s-9 -7.33398 -15 -8.00098s-11.333 1 -16 5s-7.33398 9 -8.00098 15c-4.66699 42 -6 100.667 -4 176
c2 84 2.33301 141.667 1 173c-3.33301 72.667 -15.333 161.667 -36 267c-0.666992 6 0.666016 11.5 3.99902 16.5s8 8 14 9s11.5 -0.166992 16.5 -3.5s8.16699 -8 9.5 -14c3.33301 16.667 11.333 33.334 24 50.001s27.334 30.667 44.001 42
c14 9.33301 28.333 16.166 43 20.499s30.334 4.5 47.001 0.5s31 -13.333 43 -28c8.66699 -10 16.334 -22 23.001 -36c24 74 67.333 110 130 108c20 -0.666992 32.667 -2 38 -4c8 -2.66699 19 -10 33 -22c41.333 -36.667 70.333 -85 87 -145
c16.667 -59.333 26.334 -129 29.001 -209c2 -54 2.33301 -100.333 1 -139c-1.33301 -40.667 -1.83301 -83.5 -1.5 -128.5s2.5 -81.833 6.5 -110.5c0.666992 -6 -0.833008 -11.5 -4.5 -16.5s-8.5 -7.83301 -14.5 -8.5s-11.5 0.833008 -16.5 4.5s-7.83301 8.5 -8.5 14.5
c-4 29.333 -6.16699 67.5 -6.5 114.5s0.166992 91.167 1.5 132.5s1 86.333 -1 135c-2 76.667 -10.5 142 -25.5 196s-39.833 96 -74.5 126c-10 8.66699 -16.333 13.334 -19 14.001c-1.33301 0.666992 -10 1.33398 -26 2.00098c-24 0.666992 -43.667 -7.83301 -59 -25.5
s-27 -43.834 -35 -78.501c-3.33301 -16 -6 -33.333 -8 -52c4 -21.333 7 -47.666 9 -78.999c2 -29.333 3 -65 3 -107c0 -0.666992 0.166992 -1.83398 0.5 -3.50098s0.666016 -4 0.999023 -7s0.833008 -5.83301 1.5 -8.5c0.666992 -6.66699 0.666992 -12 0 -16
c-2 -10 -8 -16.333 -18 -19c-8 -1.33301 -15.333 1 -22 7c-3.33301 3.33301 -6.33301 8 -9 14c-1.33301 3.33301 -2.33301 7.33301 -3 12c-1.33301 7.33301 -2.66602 16.666 -3.99902 27.999c-0.666992 4.66699 -1.16699 10 -1.5 16s-0.666016 11.333 -0.999023 16
s-0.5 7.33398 -0.5 8.00098c-4 49.333 -4 95 0 137z" />
    <glyph glyph-name="n" unicode="n" horiz-adv-x="565" 
d="M125 654c0.666992 -8.66699 1.33887 -23.499 2.00586 -44.499s1.33398 -36.5 2.00098 -46.5c3.33301 -50 5 -135 5 -255c0 -109.333 2.66699 -193 8 -251c0.666992 -6 -1 -11.333 -5 -16s-9 -7.33398 -15 -8.00098s-11.333 1 -16 5s-7.33398 9 -8.00098 15
c-5.33301 59.333 -8 144.333 -8 255c0 124 -1.66699 207.667 -5 251c-0.666992 13.333 -1.33398 32 -2.00098 56s-1.83398 44.833 -3.50098 62.5s-4.16699 34.5 -7.5 50.5c-1.33301 6 -0.5 11.5 2.5 16.5s7.5 8.16699 13.5 9.5s11.5 0.5 16.5 -2.5s8.16699 -7.5 9.5 -13.5
c2.66699 -10 4.66699 -20.667 6 -32c39.333 34 91.666 53 156.999 57c81.333 5.33301 145.666 -14.667 192.999 -60c39.333 -37.333 67.666 -92.666 84.999 -165.999c10.667 -46 18.334 -113.333 23.001 -202c5.33301 -102 9.33301 -163 12 -183
c0.666992 -6 -0.833008 -11.5 -4.5 -16.5s-8.5 -7.83301 -14.5 -8.5s-11.5 0.833008 -16.5 4.5s-7.83301 8.5 -8.5 14.5c-2.66699 21.333 -6.66699 83.666 -12 186.999c-4.66699 84 -12 148.667 -22 194c-15.333 64.667 -39.333 112.667 -72 144
c-38.667 36.667 -92.334 52.667 -161.001 48c-63.333 -4 -111 -23.667 -143 -59c-2.66699 -3.33301 -6.33398 -5.33301 -11.001 -6z" />
    <glyph glyph-name="o" unicode="o" horiz-adv-x="611" 
d="M154 713c0.666992 -7.33301 -1.66895 -13.335 -7.00195 -18.002c-16 -14 -25.667 -30.333 -29 -49c-5.33301 -34 -7.66602 -73.5 -6.99902 -118.5s6.16699 -96.5 16.5 -154.5s24.5 -110.333 42.5 -157c30.667 -79.333 67.667 -132.666 111 -159.999
c48.667 -30.667 104.334 -25.667 167.001 15c38 24 69.5 63.333 94.5 118s40.833 115.334 47.5 182.001c6 67.333 1.66699 130 -13 188s-38.667 102 -72 132c-41.333 36.667 -101.333 55 -180 55c-60.667 0 -117.667 -11 -171 -33zM116.997 744.998
c64.667 30 134.002 44.9971 208.002 44.9971c90 0 160 -22.333 210 -67c40 -35.333 68.333 -85.666 85 -150.999c16 -64.667 20.667 -133 14 -205c-7.33301 -71.333 -24.833 -137.5 -52.5 -198.5s-64.167 -106.167 -109.5 -135.5c-78.667 -50 -150 -54.667 -214 -14
c-52 32.667 -95 93 -129 181c-18.667 48.667 -33.5 103.334 -44.5 164.001s-17 115 -18 163s1.5 90.333 7.5 127c5.33301 24 16 44.667 32 62c-2.66699 5.33301 -2.83398 10.833 -0.500977 16.5s6.16602 9.83398 11.499 12.501z" />
    <glyph glyph-name="p" unicode="p" horiz-adv-x="515" 
d="M160 463c146 32 245.666 90.665 298.999 175.998c30 48 42 90.667 36 128c-5.33301 32.667 -23.333 61 -54 85c-29.333 22 -67 38 -113 48s-92.333 12.333 -139 7h-2c-0.666992 -21.333 -0.666992 -58.5 0 -111.5s0.333984 -90.167 -0.999023 -111.5
c-0.666992 -17.333 -2 -36.666 -4 -57.999s-4 -38.666 -6 -51.999l-9 -60c-4 -26 -6.33301 -43 -7 -51zM184.999 950.998c50.667 5.33301 101.67 2.50195 153.003 -8.49805s94.666 -29.5 129.999 -55.5c40 -30.667 63.333 -68.334 70 -113.001
c8 -48.667 -5.66699 -101.667 -41 -159c-60.667 -98.667 -175 -165 -343 -199c-4.66699 -39.333 -10 -94 -16 -164c-7.33301 -96 -13.333 -165.333 -18 -208c-0.666992 -6 -3.5 -10.833 -8.5 -14.5s-10.5 -5.16699 -16.5 -4.5s-10.833 3.5 -14.5 8.5
s-5.16699 10.5 -4.5 16.5c5.33301 48 11.666 116.333 18.999 205c8.66699 103.333 15.334 172.666 20.001 207.999c2 11.333 5 29.666 9 54.999l8 59c2 14 4 31.333 6 52s3.33301 39.667 4 57c1.33301 26.667 1.66602 64.834 0.999023 114.501s-0.666992 88.167 0 115.5
c0 6 2.16699 11 6.5 15s9.83301 6 16.5 6c3.33301 8 9.66602 12.667 18.999 14z" />
    <glyph glyph-name="q" unicode="q" horiz-adv-x="482" 
d="M361 47l-28.001 20c-4.66699 3.33301 -7.5 8 -8.5 14s0.166992 11.5 3.5 16.5s8 8 14 9s11.667 -0.166992 17 -3.5l30 -22c15.333 24 28.666 53.333 39.999 88c22.667 70 34 148.333 34 235c0 5.33301 0.166992 24.833 0.5 58.5s0.333008 59.167 0 76.5
s-1.5 40.666 -3.5 69.999s-5 55.333 -9 78c-21.333 112 -68.666 173.333 -141.999 184c-32.667 4.66699 -71.667 3 -117 -5c-2 -8.66699 -7.66699 -14 -17 -16c-49.333 -11.333 -87.666 -51.333 -114.999 -120c-24.667 -64 -38 -145 -40 -243
c-1.33301 -89.333 7.33398 -176.666 26.001 -261.999c18.667 -84 41.667 -142.667 69 -176c19.333 -23.333 47 -38.666 83 -45.999c35.333 -7.33301 68.666 -6 99.999 4c23.333 7.33301 44.333 20.666 63 39.999zM89.999 889l8.99805 3.00098l41 9l41.5 8
c17.667 3.33301 32.834 5.66602 45.501 6.99902s27 2 43 2s31 -1 45 -3c94 -14 153.667 -87.333 179 -220c4.66699 -24.667 8 -52 10 -82c2 -30.667 3.16699 -55 3.5 -73s0.333008 -44.167 0 -78.5s-0.5 -53.5 -0.5 -57.5c0 -91.333 -12 -174 -36 -248
c-12.667 -39.333 -28.334 -73.333 -47.001 -102l30 -24c4.66699 -4 7.33398 -9 8.00098 -15s-1 -11.333 -5 -16s-9 -7.33398 -15 -8.00098s-11.333 1 -16 5l-29 24c-25.333 -27.333 -54.333 -45.666 -87 -54.999c-26 -6.66699 -52.5 -10 -79.5 -10s-54.333 5.66699 -82 17
s-50.167 27.666 -67.5 48.999c-32.667 38.667 -58.667 103.334 -78 194.001c-19.333 88.667 -28.333 179.667 -27 273c2 103.333 16.667 189.333 44 258c16.667 43.333 38.334 77.666 65.001 102.999c-6 2.66699 -9.66699 7.33398 -11 14.001c-2 6 -1.33301 11.5 2 16.5
s8 8.16699 14 9.5z" />
    <glyph glyph-name="r" unicode="r" horiz-adv-x="328" 
d="M102 649c11.333 -77.333 18.8359 -187.829 22.5029 -331.496s6.83398 -235.167 9.50098 -274.5c0.666992 -6 -1 -11.333 -5 -16s-9 -7.33398 -15 -8.00098s-11.333 1 -16 5s-7.33398 9 -8.00098 15c-4 54 -6.66699 125.667 -8 215s-4.33301 171.166 -9 245.499
s-13.667 144.166 -27 209.499c-0.666992 5.33301 0.666016 10.666 3.99902 15.999s7.83301 8.5 13.5 9.5s11.167 -0.166992 16.5 -3.5s8.66602 -8 9.99902 -14l3 -16c28.667 28 64.667 48.5 108 61.5s86.666 19.5 129.999 19.5c6 0 11.167 -2.16699 15.5 -6.5
s6.5 -9.5 6.5 -15.5s-2.16699 -11.167 -6.5 -15.5s-9.5 -6.5 -15.5 -6.5c-44 0 -86.333 -7 -127 -21s-72 -34.667 -94 -62c-2 -2.66699 -4.66699 -4.66699 -8 -6z" />
    <glyph glyph-name="s" unicode="s" horiz-adv-x="473" 
d="M455 763c-10 42.667 -34.4971 77.332 -73.4971 103.999s-82.833 40.667 -131.5 42c-48 2 -88.833 -9.16699 -122.5 -33.5s-51.834 -60.166 -54.501 -107.499c-2 -33.333 12.667 -70.666 44 -111.999c11.333 -14.667 27 -32.667 47 -54c24 -26.667 39.333 -44 46 -52
c49.333 -60 96.666 -130 141.999 -210c46.667 -80.667 74 -151.334 82 -212.001c3.33301 -27.333 -2.83398 -51.166 -18.501 -71.499s-36.5 -35.833 -62.5 -46.5c-23.333 -10 -48 -15.333 -74 -16s-49.667 3.66602 -71 12.999c-14.667 6.66699 -26.334 14.667 -35.001 24
s-18.334 21.333 -29.001 36c-3.33301 5.33301 -4.5 11 -3.5 17s4 10.667 9 14s10.5 4.5 16.5 3.5s10.667 -3.83301 14 -8.5c10 -14.667 17.667 -24.667 23 -30c6 -6.66699 13.667 -12 23 -16c14 -6.66699 31.333 -9.66699 52 -9s40.334 5 59.001 13
c39.333 16.667 57 40.334 53 71.001c-7.33301 55.333 -33 121.666 -77 198.999s-89.667 144.333 -137 201c-2.66699 3.33301 -17.667 20 -45 50c-20.667 22.667 -37 41.667 -49 57c-38 50.667 -55.667 97.667 -53 141c2.66699 42 15.334 77.5 38.001 106.5s50 49.5 82 61.5
s66.333 17 103 15c56.667 -2 108.667 -19 156 -51s77 -75 89 -129c1.33301 -6 0.5 -11.5 -2.5 -16.5s-7.5 -8.16699 -13.5 -9.5s-11.5 -0.5 -16.5 2.5s-8.16699 7.5 -9.5 13.5z" />
    <glyph glyph-name="t" unicode="t" horiz-adv-x="240" 
d="M125 600c-28.667 -0.666992 -52.333 -0.999023 -71 -0.999023c-6 0 -11.167 2.16699 -15.5 6.5s-6.5 9.5 -6.5 15.5s2.16699 11.167 6.5 15.5s9.5 6.5 15.5 6.5c18 0 40.333 0.333008 67 1l-6 64l-6 64c-0.666992 6 1 11.333 5 16s9 7.33398 15 8.00098s11.333 -1 16 -5
s7.33398 -9 8.00098 -15l12 -130c32 0.666992 58 1 78 1c6 0 11.167 -2.16699 15.5 -6.5s6.5 -9.5 6.5 -15.5s-2.16699 -11.167 -6.5 -15.5s-9.5 -6.5 -15.5 -6.5c-19.333 0 -44 -0.333008 -74 -1c2.66699 -36.667 4.66699 -69.667 6 -99
c1.33301 -26.667 2.33301 -107 3 -241c0.666992 -98.667 3.33398 -178.334 8.00098 -239.001c0.666992 -6 -1 -11.333 -5 -16s-9 -7.33398 -15 -8.00098s-11.333 1 -16 5s-7.33398 9 -8.00098 15c-4.66699 62 -7.33398 142.667 -8.00098 242
c-0.666992 133.333 -1.66699 213.333 -3 240c-1.33301 30 -3.33301 63 -6 99z" />
    <glyph glyph-name="u" unicode="u" horiz-adv-x="466" 
d="M101 615c0 -17.333 -5.66504 -76.668 -16.998 -178.001c-10 -89.333 -14.333 -159 -13 -209c2.66699 -72.667 17 -126.334 43 -161.001c28.667 -39.333 75.667 -55.666 141 -48.999s112.666 57 141.999 151c10.667 32 18.667 69.333 24 112c2 66 5.33301 133 10 201
c0 2.66699 0.666992 8.16699 2 16.5s2.83301 19.166 4.5 32.499s3.16699 24.333 4.5 33l1 12c-1.33301 2.66699 -1.33301 13.334 0 32.001v6c-0.666992 6 -1 9.66699 -1 11c0 6.66699 0.666992 11.667 2 15c3.33301 9.33301 9.66602 14.666 18.999 15.999
c8 0.666992 15 -1.66602 21 -6.99902c3.33301 -4 5.66602 -9 6.99902 -15v-8c0.666992 -4.66699 0.666992 -11 0 -19c-0.666992 -9.33301 -2 -21.333 -4 -36c0 -4 -0.333008 -8.33301 -1 -13c-4.66699 -53.333 -8 -101.333 -10 -144
c-2.66699 -58 -6.33398 -103.667 -11.001 -137c-2 -89.333 -1 -178.666 3 -267.999c0 -6 -2 -11.333 -6 -16s-9 -7 -15 -7s-11.333 2 -16 6s-7 9 -7 15c-1.33301 33.333 -2.33301 66.666 -3 99.999c-36.667 -81.333 -90.667 -125.666 -162 -132.999
c-81.333 -8.66699 -141.666 13.666 -180.999 66.999c-30.667 42 -47.667 103.667 -51 185c-1.33301 50 3.33398 122 14.001 216c10.667 94.667 16 152.334 16 173.001c0 6 2.16699 11.167 6.5 15.5s9.5 6.5 15.5 6.5s11.167 -2.16699 15.5 -6.5s6.5 -9.5 6.5 -15.5z" />
    <glyph glyph-name="v" unicode="v" horiz-adv-x="345" 
d="M63 653c18 -42 33.4971 -85.8359 46.4971 -131.503s26.333 -99 40 -160s23.834 -104.5 30.501 -130.5c2 -7.33301 5.16699 -20.166 9.5 -38.499s7.83301 -32.5 10.5 -42.5c0.666992 -2 1.66699 -5.66699 3 -11s3.33301 -12.333 6 -21s4.66699 -15.667 6 -21
c3.33301 11.333 5.33301 18.333 6 21c12 31.333 29.333 85 52 161s41 130.667 55 164c2 6 5.83301 10.167 11.5 12.5s11.334 2.33301 17.001 0s9.66699 -6.33301 12 -12s2.16602 -11.167 -0.500977 -16.5c-14.667 -37.333 -32.334 -90.666 -53.001 -159.999
c-24.667 -82.667 -42 -137.667 -52 -165c-0.666992 -1.33301 -5.33398 -16.333 -14.001 -45c-3.33301 -12 -6 -21 -8 -27c-1.33301 -4.66699 -2.66602 -8.33398 -3.99902 -11.001l-2 -4l-2 -4c-2.66699 -4 -6.33398 -6.66699 -11.001 -8
c-8.66699 -2.66699 -16.334 -0.666992 -23.001 6c-1.33301 1.33301 -2.66602 3 -3.99902 5l-3 6c-1.33301 2.66699 -2.66602 7 -3.99902 13l-11 37l-11 38c-4.66699 16.667 -7.33398 26.667 -8.00098 30c-3.33301 10 -7.16602 24.333 -11.499 43
s-7.16602 31.334 -8.49902 38.001c-8 29.333 -18.667 74 -32 134s-26.166 112 -38.499 156s-27.166 86 -44.499 126c-2.66699 6 -2.83398 11.833 -0.500977 17.5s6.33301 9.66699 12 12s11.334 2.33301 17.001 0s9.5 -6.16602 11.5 -11.499z" />
    <glyph glyph-name="w" unicode="w" horiz-adv-x="553" 
d="M50 650c17.333 -56.667 36.0039 -133.33 56.0039 -229.997c26 -124.667 42.333 -201 49 -229l5 -17l7.5 -34.5c3 -13.667 5.5 -25.5 7.5 -35.5l8 -31c2.66699 5.33301 5.66699 11.666 9 18.999c9.33301 20 26.333 63.667 51 131l50 135c8 20.667 14.333 36.334 19 47.001
c3.33301 6.66699 6.33301 12 9 16c5.33301 8 11 13 17 15c10 3.33301 19.333 1.66602 28 -5.00098c4.66699 -4 9.33398 -9.33301 14.001 -16c5.33301 -9.33301 11 -23.666 17 -42.999c8 -25.333 17.667 -66.333 29 -123l18 -92c4 27.333 8.33301 50.333 13 69
c6 30 18.5 82 37.5 156s32.167 131.333 39.5 172c1.33301 6 4.5 10.667 9.5 14s10.5 4.5 16.5 3.5s10.667 -4 14 -9s4.66602 -10.5 3.99902 -16.5c-8 -40.667 -21.5 -98.334 -40.5 -173.001s-31.833 -127 -38.5 -157c-4 -18.667 -10 -54.667 -18 -108
c-3.33301 -18 -5.66602 -31 -6.99902 -39c-1.33301 -6 -2.83301 -10.667 -4.5 -14s-3.83398 -6.33301 -6.50098 -9c-6.66699 -6.66699 -14.334 -8.66699 -23.001 -6c-5.33301 1.33301 -10 4.33301 -14 9l-4 8l-5 15c-2.66699 10 -6 24.667 -10 44
c-2.66699 12 -6.66699 32 -12 60l-12 64c-10.667 54 -20 93.667 -28 119c-2 7.33301 -4.33301 13.666 -7 18.999l-14 -36l-49 -134c-22.667 -62.667 -40.334 -107.334 -53.001 -134.001c-8.66699 -20 -16.667 -35 -24 -45c-4 -6.66699 -8.33301 -12 -13 -16
c-8.66699 -7.33301 -17.667 -9.66602 -27 -6.99902c-4.66699 0.666992 -8.33398 2.66699 -11.001 6c-1.33301 1.33301 -2.33301 2.66602 -3 3.99902s-1.33398 2.83301 -2.00098 4.5s-1.66699 3.83398 -3 6.50098c-0.666992 4 -2 9.66699 -4 17
c-3.33301 11.333 -7.33301 28 -12 50c-2.66699 10 -5.66699 22 -9 36l-7 33c-2 8.66699 -3.33301 14.667 -4 18c-5.33301 21.333 -22 98 -50 230c-20 95.333 -38.333 171 -55 227c-2 5.33301 -1.5 10.666 1.5 15.999s7.33301 9 13 11s11.167 1.5 16.5 -1.5s9 -7.5 11 -13.5z
" />
    <glyph glyph-name="x" unicode="x" horiz-adv-x="450" 
d="M91 66l13 29.999c4 10 8.66699 20.667 14 32l15 30c4 8 9.66699 18.333 17 31l16 28c3.33301 6 9.5 16.167 18.5 30.5s14.667 23.5 17 27.5s8.5 13.667 18.5 29l17 27l6 8c-39.333 70 -78.333 127 -117 171c-4.66699 4.66699 -6.66699 10 -6 16s3.16699 11.167 7.5 15.5
s9.5 6.16602 15.5 5.49902s11 -3 15 -7c38 -43.333 75 -96 111 -158l25 40l28 46l24 38c12.667 20 22.667 35.333 30 46l28 37c10.667 14.667 21.334 28.334 32.001 41.001c4 4.66699 9 7.33398 15 8.00098s11.333 -1 16 -5s7.33398 -9 8.00098 -15s-1 -11.333 -5 -16
c-16 -19.333 -32.667 -41.333 -50 -66l-40 -59c-10 -14.667 -25.333 -39 -46 -73l-40 -67l28 -54c21.333 -23.333 43.333 -49.333 66 -78c4 -5.33301 5.66699 -11 5 -17s-3.5 -10.833 -8.5 -14.5s-10.5 -5.16699 -16.5 -4.5s-10.667 3.33398 -14 8.00098
c-20.667 26 -39.667 48.667 -57 68c-4 2 -7.33301 5.33301 -10 10l-1 3l-17 18c-3.33301 3.33301 -5.33301 7.66602 -6 12.999l-51 -81c-11.333 -18.667 -25 -43.167 -41 -73.5s-28.667 -58.5 -38 -84.5c-2 -5.33301 -5.83301 -9.33301 -11.5 -12s-11.334 -3 -17.001 -1
s-9.83398 5.83301 -12.501 11.5s-3 11.5 -1 17.5z" />
    <glyph glyph-name="y" unicode="y" horiz-adv-x="510" 
d="M87 742c0.666992 -8 1.66406 -21.3379 2.99707 -40.0049s2.5 -31.834 3.5 -39.501s2.66699 -19 5 -34s5 -26.833 8 -35.5s7.16699 -19 12.5 -31s11.666 -23 18.999 -33c32 -46 76.333 -74.333 133 -85c76 -14.667 134.667 18 176 98c17.333 34 29.666 72.5 36.999 115.5
s9.33301 83.167 6 120.5c-0.666992 6 1 11.333 5 16s9 7.33398 15 8.00098s11.333 -1 16 -5s7.33398 -9 8.00098 -15c3.33301 -41.333 1 -85.666 -7 -132.999c-8 -46.667 -21.667 -89 -41 -127c-37.333 -72 -87.666 -113 -150.999 -123c4.66699 -30 7.33398 -63 8.00098 -99
s0 -68.333 -2 -97s-4.16699 -61.667 -6.5 -99s-3.5 -68.333 -3.5 -93c0 -6 -2.16699 -11.167 -6.5 -15.5s-9.5 -6.5 -15.5 -6.5s-11.167 2.16699 -15.5 6.5s-6.5 9.5 -6.5 15.5c0 28 1.16699 61 3.5 99s4.5 70.667 6.5 98s2.83301 58.333 2.5 93
s-3.16602 66.667 -8.49902 96c-9.33301 0.666992 -18.666 1.66699 -27.999 3c-32.667 6.66699 -63 18.834 -91 36.501s-51.333 39.834 -70 66.501c-8.66699 12.667 -16.167 26 -22.5 40s-11.333 26.333 -15 37s-6.83398 24.334 -9.50098 41.001s-4.5 29.167 -5.5 37.5
s-2.16699 22 -3.5 41s-2.33301 31.833 -3 38.5c-0.666992 6 1 11.333 5 16s9 7.33398 15 8.00098s11.333 -1 16 -5s7.33398 -9 8.00098 -15z" />
    <glyph glyph-name="z" unicode="z" horiz-adv-x="518" 
d="M90 763c25.333 2.66699 65.001 5.3291 119.001 7.99609c55.333 2.66699 94 5.66699 116 9c60 8 91.667 12.333 95 13c23.333 2.66699 41.666 4.33398 54.999 5.00098c8.66699 0.666992 15.667 1 21 1c3.33301 -0.666992 6.33301 -1 9 -1
c6.66699 -1.33301 11.667 -4.66602 15 -9.99902c8 -10 9.66699 -25 5 -45c-2.66699 -12 -8 -26.333 -16 -43c-10.667 -24.667 -22 -47 -34 -67c-16.667 -28 -36 -65 -58 -111l-54 -113c-12.667 -34 -24.667 -63.667 -36 -89c-0.666992 -2 -6 -13.333 -16 -34l-25 -53
c-9.33301 -21.333 -16.333 -38.333 -21 -51l-1 -3c6 -0.666992 13 -1 21 -1c20.667 0 49 1.66699 85 5h2c4 0.666992 7 1.33398 9 2.00098c14.667 2 31.334 3 50.001 3c54.667 6 84.334 9 89.001 9c6 0 11.333 -2 16 -6s7 -9 7 -15s-2 -11.333 -6 -16s-9 -7 -15 -7
c-3.33301 0 -8.66602 -0.333008 -15.999 -1c-4.66699 -5.33301 -10.334 -8 -17.001 -8c-6 0 -15.167 0.166992 -27.5 0.5s-21.5 0.5 -27.5 0.5c-21.333 -2.66699 -40 -4.66699 -56 -6c-4.66699 -0.666992 -15.334 -3 -32.001 -7l-38 -8
c-19.333 -4.66699 -35.333 -7.66699 -48 -9c-18 -2.66699 -31.667 -2.66699 -41 0c-8 2 -15.167 6.66699 -21.5 14s-9.5 15.666 -9.5 24.999c0 4 1.33301 9.33301 4 16l7 17l22 43l35 69c7.33301 17.333 18.333 39 33 65c18.667 34 29.667 54.667 33 62l1 1l29 80
c27.333 73.333 50.666 130.333 69.999 171l15 24c6.66699 11.333 11.667 20.333 15 27c3.33301 8 5 14 5 18v1h-1h-2c-4.66699 0 -11.334 -0.666992 -20.001 -2c-14.667 -1.33301 -35.667 -3.66602 -63 -6.99902c-72 -10 -108.333 -15 -109 -15
c-9.33301 -0.666992 -22.833 -1.5 -40.5 -2.5s-29.5 -1.83301 -35.5 -2.5c-28.667 -2 -52.667 -4.66699 -72 -8c-8.66699 -1.33301 -15.667 1.33398 -21 8.00098c-5.33301 0 -10.166 1.83301 -14.499 5.5s-6.83301 8.16699 -7.5 13.5c-0.666992 6 0.833008 11.5 4.5 16.5
s8.5 7.83301 14.5 8.5z" />
    <glyph glyph-name="braceleft" unicode="{" horiz-adv-x="348" 
d="M352 883c-20.667 -0.666992 -43.666 -11.1729 -68.999 -31.5059s-50.333 -47.5 -75 -81.5c-22.667 -32 -41.5 -65 -56.5 -99s-23.5 -62.333 -25.5 -85c-1.33301 -17.333 3.66699 -47 15 -89c5.33301 -23.333 9 -38.666 11 -45.999c4 -17.333 5.33301 -30.333 4 -39
c-2 -10 -6.83301 -19 -14.5 -27s-13.5 -13.333 -17.5 -16s-10.667 -6.33398 -20 -11.001c-10 -5.33301 -16.667 -9.33301 -20 -12c-2 -2 -3 -3.66699 -3 -5c0 -9.33301 5.66699 -25 17 -47c17.333 -33.333 27.333 -53.333 30 -60c10 -29.333 17.5 -59.5 22.5 -90.5
s8.16699 -49.167 9.5 -54.5c4 -13.333 13 -27 27 -41s39 -32.333 75 -55c4.66699 -3.33301 7.66699 -8 9 -14s0.5 -11.5 -2.5 -16.5s-7.5 -8.16699 -13.5 -9.5s-11.667 -0.666016 -17 2.00098c-38.667 24.667 -66.834 45.834 -84.501 63.501s-29.5 36.834 -35.5 57.501
c-1.33301 5.33301 -5 25.666 -11 60.999c-4.66699 28 -11.667 55.667 -21 83c-1.33301 4.66699 -10.333 22.334 -27 53.001c-14.667 28 -22 50.667 -22 68c0 14.667 6 27.334 18 38.001c5.33301 4.66699 14.666 10.667 27.999 18c18.667 10 28.334 17.667 29.001 23
c0.666992 3.33301 -0.333008 10.666 -3 21.999c-0.666992 4 -4.33398 18.667 -11.001 44c-12.667 46.667 -18 81.334 -16 104.001c2.66699 27.333 12.334 59.833 29.001 97.5s37 73.834 61 108.501c26.667 37.333 55.5 68.333 86.5 93s61.5 37.334 91.5 38.001
c6 0 11.333 -2 16 -6s7 -9 7 -15s-2 -11.333 -6 -16s-9 -7 -15 -7z" />
    <glyph glyph-name="bar" unicode="|" horiz-adv-x="112" 
d="M111 889c9.33301 -56.667 14.332 -121.333 14.999 -194c0.666992 -71.333 -1 -136 -5 -194s-5.16699 -121.667 -3.5 -191s8.16699 -131.666 19.5 -186.999c0.666992 -6 -0.666016 -11.5 -3.99902 -16.5s-8 -8 -14 -9s-11.5 0.166992 -16.5 3.5s-8.16699 8 -9.5 14
c-11.333 57.333 -17.833 122 -19.5 194s-0.5 136.667 3.5 194c3.33301 57.333 4.83301 121.166 4.5 191.499s-5.16602 132.5 -14.499 186.5c-0.666992 6 0.666016 11.5 3.99902 16.5s8 8 14 9s11.5 -0.166992 16.5 -3.5s8.16699 -8 9.5 -14z" />
    <glyph glyph-name="braceright" unicode="}" horiz-adv-x="337" 
d="M42 924c36.667 -18.667 66.8281 -36.667 90.4951 -54s43.167 -36.666 58.5 -57.999c31.333 -41.333 49.333 -101.666 54 -180.999c2.66699 -45.333 3.33398 -74.333 2.00098 -87c-0.666992 -5.33301 -2.16699 -13.666 -4.5 -24.999s-3.83301 -20 -4.5 -26
c-2.66699 -18 -2.66699 -31 0 -39c4.66699 -10.667 18.667 -19 42 -25c0.666992 0 3.83398 -0.5 9.50098 -1.5s9.33398 -1.83301 11.001 -2.5s5.33398 -1.83398 11.001 -3.50098s9.83398 -3.5 12.501 -5.5l10 -6c4.66699 -2.66699 8.5 -5.66699 11.5 -9s5.83301 -7 8.5 -11
c13.333 -22 10.333 -48.333 -9 -79l-10 -15l-9 -12c-2 -2.66699 -3.83301 -5.66699 -5.5 -9s-2.5 -6.66602 -2.5 -9.99902c-3.33301 -17.333 -0.666016 -46.333 8.00098 -87c14 -70 11.333 -123.333 -8 -160c-10 -18 -24.333 -34.667 -43 -50s-44 -33.333 -76 -54
c-5.33301 -2.66699 -11 -3.33398 -17 -2.00098s-10.5 4.5 -13.5 9.5s-3.83301 10.5 -2.5 16.5s4.33301 10.667 9 14c30.667 18.667 53.834 34.5 69.501 47.5s27.167 26.167 34.5 39.5c14.667 26.667 15.667 70.334 3 131.001c-9.33301 45.333 -12 79.666 -8 102.999
c1.33301 5.33301 3.5 11.333 6.5 18s5.83301 12.167 8.5 16.5s6.16699 9.66602 10.5 15.999s7.16602 10.166 8.49902 11.499c9.33301 15.333 12 26.333 8 33c-2.66699 4 -7 7.16699 -13 9.5s-17 5.5 -33 9.5c-10.667 2 -19.5 4.33301 -26.5 7s-15.333 7.83398 -25 15.501
s-16.5 17.167 -20.5 28.5c-6.66699 15.333 -8 36 -4 62c0.666992 6 2.33398 15.333 5.00098 28c2 10 3.33301 17.333 4 22c1.33301 9.33301 0.666016 35.666 -2.00098 78.999c-4.66699 70 -19.667 122.333 -45 157c-22.667 31.333 -67.334 64.666 -134.001 99.999
c-5.33301 2.66699 -9 6.83398 -11 12.501s-1.5 11.167 1.5 16.5s7.33301 9 13 11s11.167 1.33301 16.5 -2z" />
    <glyph glyph-name="asciitilde" unicode="~" horiz-adv-x="518" 
d="M86 302c7.33301 24 16 41.6689 26 53.002c12 14 29.333 24.667 52 32c34 10.667 62.333 12.667 85 6c17.333 -5.33301 41.666 -18 72.999 -38c38.667 -24.667 62.667 -39.334 72 -44.001c24 -12 44.333 -17.333 61 -16c18 1.33301 34 12 48 32
c3.33301 5.33301 8 8.5 14 9.5s11.5 -0.166992 16.5 -3.5s8 -8 9 -14s-0.166992 -11.333 -3.5 -16c-22 -32 -49 -49.333 -81 -52c-24.667 -2 -52.667 5 -84 21c-14 6.66699 -39.333 22 -76 46c-27.333 18 -47.666 29 -60.999 33c-14 4 -33.667 2 -59 -6
c-15.333 -4.66699 -26.333 -11 -33 -19c-6 -6.66699 -11.667 -18.667 -17 -36c-2 -6 -5.66699 -10.5 -11 -13.5s-10.833 -3.5 -16.5 -1.5s-10 5.66699 -13 11s-3.5 10.666 -1.5 15.999z" />
    <glyph glyph-name="egrave" unicode="&#xe8;" horiz-adv-x="503" 
d="M169 269c48 24 104.334 57.335 169.001 100.002c45.333 30 80.666 55.667 105.999 77c14 12 24.667 22.333 32 31l8 13c0 3.33301 -1.33301 7.66602 -4 12.999l-6 9c-4 5.33301 -6.66699 9.33301 -8 12c-23.333 40.667 -52.666 66.334 -87.999 77.001
c-36 11.333 -69.667 1.66602 -101 -29.001c-36.667 -36 -65.334 -82.333 -86.001 -139s-28 -111.334 -22 -164.001zM178.001 224.002c0.666992 -3.33301 1.66895 -6.66699 3.00195 -10c9.33301 -26 25 -50 47 -72s47.333 -39 76 -51c27.333 -12 55.5 -16.833 84.5 -14.5
s54.5 12.833 76.5 31.5c4.66699 4 10 5.66699 16 5s11 -3.33398 15 -8.00098s5.66699 -10 5 -16s-3.33398 -11 -8.00098 -15c-28.667 -24 -62.167 -37.667 -100.5 -41s-73.166 2.33398 -104.499 17.001c-34 14 -64.5 34.333 -91.5 61s-46.167 56.334 -57.5 89.001
c-22.667 64.667 -23 136 -1 214c22.667 77.333 59 140.666 109 189.999c43.333 42.667 91.666 55.667 144.999 39c45.333 -14 82.666 -46.333 111.999 -97l6 -9c3.33301 -5.33301 6 -9.33301 8 -12c6.66699 -12 10 -23.667 10 -35c0 -12 -6 -25.333 -18 -40
c-8.66699 -10.667 -21 -23 -37 -37c-27.333 -23.333 -64 -50.333 -110 -81c-74 -48 -135.667 -84 -185 -108zM290.003 713.001c-13.333 22 -32.001 44.667 -56.001 68c-4 4.66699 -6 10 -6 16s2.16699 11.167 6.5 15.5s9.5 6.5 15.5 6.5s11.333 -2 16 -6
c25.333 -26 46 -51.333 62 -76c2.66699 -5.33301 3.33398 -11 2.00098 -17s-4.5 -10.5 -9.5 -13.5s-10.5 -3.83301 -16.5 -2.5s-10.667 4.33301 -14 9z" />
    <glyph glyph-name="eacute" unicode="&#xe9;" horiz-adv-x="466" 
d="M108 302c18.667 4 43.3301 11.333 73.9971 22c38.667 14 64.334 22.667 77.001 26c12.667 4 29.834 8.5 51.501 13.5s40.834 9.83301 57.501 14.5s31.667 10.334 45 17.001c14 6.66699 23.333 17 28 31c8 24 9 54.167 3 90.5s-18 69.5 -36 99.5
c-18.667 30.667 -40 51.667 -64 63c-25.333 11.333 -52.333 9.66602 -81 -5.00098c-34.667 -17.333 -64 -43.333 -88 -78c-24 -35.333 -42 -76 -54 -122c-14.667 -56.667 -19 -114 -13 -172zM113.996 258c3.33301 -14.667 6.99902 -28.332 10.999 -40.999
c16.667 -51.333 39 -85 67 -101c20.667 -12 54.334 -18.667 101.001 -20c20.667 -2 41.334 -2.33301 62.001 -1s38 5.66602 52 12.999c5.33301 2.66699 11 3 17 1s10.333 -5.66699 13 -11s3 -11 1 -17s-5.66699 -10.333 -11 -13c-19.333 -9.33301 -42.5 -14.833 -69.5 -16.5
s-49.167 -1.5 -66.5 0.5c-54 2 -94.333 10.667 -121 26c-38 21.333 -67 63 -87 125c-13.333 41.333 -20.5 86.666 -21.5 135.999s4.5 98 16.5 146c13.333 50.667 33.833 96.167 61.5 136.5s62.167 71.166 103.5 92.499c41.333 20.667 81 22.334 119 5.00098
c32.667 -15.333 60.667 -42.333 84 -81c20.667 -34.667 34.5 -72.834 41.5 -114.501s5.5 -78.834 -4.5 -111.501c-8.66699 -26 -25.334 -45 -50.001 -57c-15.333 -7.33301 -32.5 -13.666 -51.5 -18.999s-39.667 -10.666 -62 -15.999s-38.5 -9.33301 -48.5 -12
c-12 -3.33301 -37 -11.666 -75 -24.999c-32.667 -11.333 -59 -19.333 -79 -24c-0.666992 -0.666992 -1.66699 -1 -3 -1zM234.995 799.002l42.999 59.998c12 16.667 19.333 26.334 22 29.001l4 4c0.666992 0.666992 1.66699 1.33398 3 2.00098
c6 3.33301 12.333 3.66602 19 0.999023c9.33301 -4 13.666 -11 12.999 -21c0 -2 -0.166992 -4 -0.5 -6s-1.5 -4.5 -3.5 -7.5s-5 -7.83301 -9 -14.5l-48 -70c-3.33301 -6 -8.66602 -9.33301 -15.999 -10c-7.33301 -3.33301 -14.666 -2.66602 -21.999 2.00098
c-4.66699 3.33301 -7.5 8 -8.5 14s0.166992 11.667 3.5 17z" />
    <glyph glyph-name="quoteleft" unicode="&#x2018;" horiz-adv-x="150" 
d="M162 805c-13.333 -11.333 -22.332 -36.999 -26.999 -76.999c-4 -38 -2.66699 -69.667 4 -95c0.666992 -2.66699 1.66699 -5.33398 3 -8.00098s3.33301 -5.66699 6 -9l6 -8c1.33301 -2.66699 3.83301 -6.16699 7.5 -10.5s6.5 -7.5 8.5 -9.5c4 -4.66699 5.66699 -10 5 -16
s-3.33398 -11 -8.00098 -15s-10 -5.66699 -16 -5s-11 3.33398 -15 8.00098c-0.666992 0.666992 -3 3.33398 -7 8.00098s-7 8.66699 -9 12l-9 12c-3.33301 4.66699 -6.16602 9.5 -8.49902 14.5s-4.16602 9.83301 -5.49902 14.5
c-8.66699 31.333 -10.334 68.666 -5.00098 111.999c5.33301 52 19.333 87.333 42 106c4.66699 4 10 5.66699 16 5s11 -3.33398 15 -8.00098s5.66699 -10 5 -16s-3.33398 -11 -8.00098 -15z" />
    <glyph glyph-name="quoteright" unicode="&#x2019;" horiz-adv-x="157" 
d="M154 832c20.667 -44.667 30 -88.334 28 -131.001s-18.333 -84.667 -49 -126c-4 -4.66699 -9 -7.5 -15 -8.5s-11.333 0.333008 -16 4s-7.5 8.5 -8.5 14.5s0.166992 11.333 3.5 16c25.333 34.667 39 68.834 41 102.501s-6 71.167 -24 112.5
c-2.66699 5.33301 -2.83398 10.833 -0.500977 16.5s6.33301 9.66699 12 12s11.334 2.33301 17.001 0s9.5 -6.5 11.5 -12.5z" />
    <glyph glyph-name="quotedblleft" unicode="&#x201c;" horiz-adv-x="243" 
d="M122 827c-6 -24.667 -10.002 -55.667 -12.002 -93c-2 -42 0 -70 6 -84c2 -4.66699 7.33301 -11.667 16 -21c2 -2.66699 4.5 -5.33398 7.5 -8.00098s6 -5.5 9 -8.5s5.16699 -4.83301 6.5 -5.5c4 -4.66699 6 -10 6 -16s-2.16699 -11.167 -6.5 -15.5s-9.5 -6.5 -15.5 -6.5
s-11.333 2 -16 6c-0.666992 1.33301 -2.66699 3.66602 -6 6.99902s-6.5 6.33301 -9.5 9s-5.5 5.33398 -7.5 8.00098c-12 12.667 -20 23.667 -24 33c-9.33301 20.667 -12.666 55.334 -9.99902 104.001c2.66699 40.667 7.33398 74.334 14.001 101.001
c1.33301 6 4.5 10.667 9.5 14s10.5 4.16602 16.5 2.49902s10.667 -5 14 -10s4 -10.5 2 -16.5zM249.998 823c-2.66699 -59.333 3.33203 -132.668 17.999 -220.001c0.666992 -6 -0.666016 -11.5 -3.99902 -16.5s-8 -8 -14 -9s-11.5 0.166992 -16.5 3.5s-8.16699 8 -9.5 14
c-14.667 90.667 -20.667 167.334 -18 230.001c0 6 2.33301 11 7 15s10 6 16 6s11 -2.33301 15 -7s6 -10 6 -16z" />
    <glyph glyph-name="quotedblright" unicode="&#x201d;" horiz-adv-x="244" 
d="M142 849c5.33301 -54 4.49902 -102.001 -2.50098 -144.001s-26.5 -79.667 -58.5 -113c-4 -4.66699 -9 -7 -15 -7s-11.333 2 -16 6s-7 9 -7 15s2 11.333 6 16c25.333 27.333 41 58.833 47 94.5s6.66699 78.5 2 128.5c-0.666992 6 1 11.333 5 16s9 7.33398 15 8.00098
s11.333 -1 16 -5s7.33398 -9 8.00098 -15zM267.999 826.999c2.66699 -42.667 1.00098 -81.999 -4.99902 -117.999s-16.667 -75 -32 -117c-2.66699 -5.33301 -6.66699 -9.33301 -12 -12s-10.833 -2.83398 -16.5 -0.500977s-9.83398 6.16602 -12.501 11.499s-3 11 -1 17
c14.667 39.333 24.834 75.333 30.501 108s7.16699 68.334 4.5 107.001c-0.666992 6.66699 1 12.167 5 16.5s9.16699 6.83301 15.5 7.5s11.666 -1 15.999 -5s6.83301 -9 7.5 -15z" />
    <glyph glyph-name="uni3000" unicode="&#x3000;" horiz-adv-x="1000" 
 />
    <glyph glyph-name=".null" horiz-adv-x="0" 
 />
    <glyph glyph-name="nonmarkingreturn" horiz-adv-x="333" 
 />
  </font>
</defs>
</svg>
