<?xml version="1.0" standalone="no"?>
<!DOCTYPE svg PUBLIC "-//W3C//DTD SVG 1.1//EN" "http://www.w3.org/Graphics/SVG/1.1/DTD/svg11.dtd" >
<svg>
<metadata>
Created by FontForge 20090914 at Sat Oct 29 19:43:49 2016
 By www-data
Des
</metadata>
<defs>
<font id="DinosaursAreAlive" horiz-adv-x="366" >
  <font-face 
    font-family="DinosaursAreAlive"
    font-weight="500"
    font-stretch="normal"
    units-per-em="1000"
    panose-1="2 0 6 3 0 0 0 0 0 0"
    ascent="1000"
    descent="0"
    x-height="496.502"
    cap-height="872.999"
    bbox="-57.9924 -117.002 927.504 998.012"
    underline-thickness="50"
    underline-position="-100"
    unicode-range="U+0020-U+3000"
  />
<missing-glyph horiz-adv-x="364" 
d="M66 33h199v600h-199v-600zM33 0v666h265v-666h-265z" />
    <glyph glyph-name=".notdef" horiz-adv-x="364" 
d="M66 33h199v600h-199v-600zM33 0v666h265v-666h-265z" />
    <glyph glyph-name="space" unicode=" " horiz-adv-x="300" 
 />
    <glyph glyph-name="exclam" unicode="!" horiz-adv-x="254" 
d="M246 128c6.66699 -13.333 9.66797 -25.3359 9.00098 -36.0029c-0.666992 -15.333 -7.66699 -25.666 -21 -30.999c-11.333 -4.66699 -22.5 -3.16699 -33.5 4.5s-15.833 18.834 -14.5 33.501c0.666992 8.66699 4.33398 17.667 11.001 27l6 8
c1.33301 2.66699 2.66602 4.66699 3.99902 6c2.66699 5.33301 6.66699 8.83301 12 10.5s10.666 0.833984 15.999 -2.49902c8 -4 11.667 -10.667 11 -20zM217.001 784.997c8 -68.667 10.6641 -168.335 7.99707 -299.002c-2.66699 -135.333 -1 -233.333 5 -294
c0.666992 -6 -0.833008 -11.167 -4.5 -15.5s-8.5 -6.83301 -14.5 -7.5s-11.167 0.833008 -15.5 4.5s-6.83301 8.5 -7.5 14.5c-6 62.667 -7.66699 162.334 -5 299.001c2.66699 124.667 0 222 -8 292c-0.666992 6 0.833008 11.333 4.5 16s8.33398 7.33398 14.001 8.00098
s10.834 -0.833008 15.501 -4.5s7.33398 -8.16699 8.00098 -13.5z" />
    <glyph glyph-name="quotedbl" unicode="&#x22;" horiz-adv-x="259" 
d="M163 799c0.666992 -6 1.50195 -16.5 2.50195 -31.5s1.83301 -25.833 2.5 -32.5s1.83398 -16.5 3.50098 -29.5s3.16699 -23.667 4.5 -32s3.16602 -17.666 5.49902 -27.999s5.16602 -19.833 8.49902 -28.5c2 -6 1.66699 -11.5 -1 -16.5s-6.83398 -8.5 -12.501 -10.5
s-11 -1.66699 -16 1s-8.5 6.66699 -10.5 12c-4 12 -7.33301 24.167 -10 36.5s-5.16699 26.666 -7.5 42.999s-3.83301 28.166 -4.5 35.499l-4 42c-2 20.667 -3 32.334 -3 35.001c-0.666992 6 0.833008 11.167 4.5 15.5s8.5 6.83301 14.5 7.5s11.167 -0.833008 15.5 -4.5
s6.83301 -8.5 7.5 -14.5zM230.002 803c6 -18 10.668 -37.3291 14.001 -57.9961s6.33301 -43.334 9 -68.001s5 -43 7 -55c0.666992 -5.33301 -0.666016 -10.333 -3.99902 -15s-7.83301 -7.5 -13.5 -8.5s-10.834 0.166992 -15.501 3.5s-7.66699 8 -9 14
c-2.66699 15.333 -5.16699 34.666 -7.5 57.999s-4.83301 44.166 -7.5 62.499s-7 35.833 -13 52.5c-2 5.33301 -1.66699 10.666 1 15.999s6.66699 9 12 11s10.666 1.66699 15.999 -1s9 -6.66699 11 -12z" />
    <glyph glyph-name="numbersign" unicode="#" horiz-adv-x="926" 
d="M610 301c2 -2.66699 4.33398 -5.33301 7.00098 -8c5.33301 -6 11.333 -11.667 18 -17c1.33301 3.33301 3.66602 6 6.99902 8l26 25l-19 -5c-12.667 -2.66699 -23 -3.66699 -31 -3h-8zM572.001 379.001c2.66699 -10.667 6 -20.332 10 -28.999c1.33301 2 3.33301 4 6 6
c2.66699 2.66699 7 6 13 10l20 13c-16 -2.66699 -29 -3.33398 -39 -2.00098c-4 0 -7.33301 0.666992 -10 2zM552.001 483.003c1.33301 -12.667 2.66797 -24.667 4.00098 -36c3.33301 2.66699 7.33301 5.33398 12 8.00098c2 1.33301 6.66699 4.16602 14 8.49902
s13 7.83301 17 10.5c3.33301 2 6.33301 4.33301 9 7c-7.33301 -1.33301 -12 -2 -14 -2c-14.667 -2 -26.334 -1.66699 -35.001 1c-2.66699 1.33301 -5 2.33301 -7 3zM544.003 637.003c0 -31.333 0.666992 -58.333 2 -81c2.66699 2.66699 6 5.33398 10 8.00098
c4 4 11.333 9.33301 22 16l21 15c14.667 11.333 25 20.666 31 27.999c-3.33301 0 -8 -0.333008 -14 -1h-19c-18.667 -0.666992 -33 2 -43 8c-4 2 -7.33301 4.33301 -10 7zM542.003 752.003c0.666992 -13.333 0.999023 -30.332 0.999023 -50.999c4 6 10 11.333 18 16
c4.66699 3.33301 15.334 9.66602 32.001 18.999c8 4 14 7.66699 18 11h-23c-20 -0.666992 -35.333 1 -46 5zM518.002 877.004c5.33301 -6.66699 9.33301 -14.667 12 -24c1.33301 -2 2.33301 -4.33301 3 -7l24 24l10 12c-24 -2 -40.333 -3.66699 -49 -5zM20.002 274.004
c-5.33301 6.66699 -6.99902 14.333 -4.99902 23c-2.66699 -6 -2.33398 -15 0.999023 -27c2 -2 4.33301 -4 7 -6c-0.666992 2 -1.66699 5.33301 -3 10zM94.0029 246.003l-2 2l2 -6v4zM497.003 42.0029l9.00098 -24.998c2.66699 -6.66699 2.5 -13.334 -0.5 -20.001
s-7.83301 -11.167 -14.5 -13.5s-13.334 -2 -20.001 1s-11 7.83301 -13 14.5l-2 5c-2 -3.33301 -6.33301 -10 -13 -20s-12.334 -19.667 -17.001 -29c-2.66699 -6.66699 -7.5 -11.167 -14.5 -13.5s-13.667 -2 -20 1s-10.666 8 -12.999 15s-1.83301 13.5 1.5 19.5
c5.33301 12 12 24 20 36l11 17c2.66699 6 1.66699 19 -3 39c-18 7.33301 -34.667 15.666 -50 24.999c0 -5.33301 -0.333008 -10.333 -1 -15c1.33301 0.666992 3 1 5 1c7.33301 0 13.5 -2.5 18.5 -7.5s7.5 -11.167 7.5 -18.5v-30c0 -7.33301 -2.5 -13.5 -7.5 -18.5
s-11.167 -7.5 -18.5 -7.5s-13.5 2.5 -18.5 7.5s-7.5 11.167 -7.5 18.5v6l-9 -7h-1c-4 -4.66699 -9.66699 -10.334 -17 -17.001l-5 -5c-2 -2 -4 -3.33301 -6 -4l-12 -12c-5.33301 -4.66699 -11.5 -7 -18.5 -7s-13 2.66699 -18 8s-7.5 11.5 -7.5 18.5s2.66699 13.167 8 18.5
l23 21c7.33301 8 12 13 14 15c1.33301 0.666992 3 1.66699 5 3c3.33301 3.33301 6 6.66602 8 9.99902c6 10.667 7.66699 30 5 58v6c-56.667 57.333 -81.334 130.666 -74.001 219.999c4 47.333 22.333 94.333 55 141c-2 0 -8 1 -18 3l-20 5
c-3.33301 0.666992 -9.5 2.16699 -18.5 4.5s-15.5 4.33301 -19.5 6s-10 4 -18 7s-14.667 6.16699 -20 9.5l-17 12c-6.66699 4.66699 -12.667 9.83398 -18 15.501s-10.666 11.834 -15.999 18.501c-16.667 22 -26.667 48.333 -30 79s-1 59 7 85c8 28 20.667 53.833 38 77.5
s38 41.5 62 53.5c56.667 28.667 120.667 38.667 192 30c1.33301 1.33301 2.66602 2.33301 3.99902 3c2.66699 3.33301 6.66699 6 12 8l8 2c4.66699 1.33301 11 2.66602 19 3.99902c12.667 2 29.667 4 51 6c8 0.666992 35 3.33398 81 8.00098h1
c2 0.666992 5.33301 1.66699 10 3c16 4 28.667 0.666992 38 -10c14.667 -16 17.334 -34.333 8.00098 -55c-4.66699 -11.333 -14 -24 -28 -38c-2.66699 -3.33301 -7.33398 -8 -14.001 -14l-14 -14c-2 -2 -3.66699 -4 -5 -6
c4.66699 -1.33301 13.334 -1.66602 26.001 -0.999023c20.667 0 35 -0.666992 43 -2c23.333 -5.33301 36.333 -19.333 39 -42c2 -16 -4.33301 -30.667 -19 -44c-6.66699 -6 -17.667 -13 -33 -21c-14.667 -8 -23.667 -13.333 -27 -16c2.66699 -0.666992 4.66699 -0.666992 6 0
h18c8 0.666992 14.333 1 19 1c21.333 -0.666992 36 -7 44 -19c14 -19.333 12.333 -40.333 -5 -63c-8 -11.333 -22.333 -24.333 -43 -39l-30 -22c8 0.666992 13.667 1.33398 17 2.00098c17.333 0.666992 30.333 -3.66602 39 -12.999c15.333 -18.667 17.333 -38 6 -58
c-5.33301 -10 -14.666 -19.667 -27.999 -29c11.333 2.66699 19.333 4.33398 24 5.00098c8 1.33301 15 1.66602 21 0.999023c12 -0.666992 21 -5.33398 27 -14.001c12.667 -16.667 10.334 -34.667 -6.99902 -54l-3 -3h1c13.333 2.66699 23.666 2.66699 30.999 0
c10.667 -2.66699 17.667 -8.66699 21 -18c3.33301 -8 3.33301 -16.667 0 -26c-4 -8.66699 -12 -19.667 -24 -33c-10.667 -11.333 -25.667 -26 -45 -44c34.667 -16 69.667 -22 105 -18c2 0 8.5 0.666992 19.5 2s19.667 2.33301 26 3s14.5 1 24.5 1s18.667 -1 26 -3
c11.333 -2 17.333 -3.33301 18 -4c14.667 -4.66699 24 -13 28 -25c4 -14 0 -26.667 -12 -38c-4 -3.33301 -6.66699 -5.33301 -8 -6c0 -0.666992 -0.333008 -1 -1 -1c-28.667 -36 -71.667 -64.333 -129 -85c-56.667 -20 -111.334 -31.667 -164.001 -35
c-40 -2.66699 -78.667 -1 -116 5c0.666992 -0.666992 1 -1.33398 1 -2.00098zM307.004 247.005l36.999 21c18 10.667 32 18.667 42 24c4 2 8.33301 3 13 3l-11 31c-11.333 25.333 -23.666 41 -36.999 47c-14.667 6.66699 -34.334 2.66699 -59.001 -12
c-2.66699 -1.33301 -5.66699 -2.33301 -9 -3v-6c-0.666992 -6 -1 -12 -1 -18c17.333 2 38.333 8.66699 63 20c6.66699 2.66699 13.334 2.83398 20.001 0.500977s11.5 -6.83301 14.5 -13.5s3.33301 -13.334 1 -20.001s-6.83301 -11.667 -13.5 -15
c-30.667 -13.333 -57.667 -21.333 -81 -24c2.66699 -15.333 6.66699 -30 12 -44c2.66699 4 5.66699 7 9 9zM356.003 192.005l21.002 3.00195c3.33301 0.666992 5.66602 1.16699 6.99902 1.5s3.66602 1.16602 6.99902 2.49902l21 8c2 0.666992 4 1 6 1
c-2.66699 15.333 -5 28 -7 38h-1l-40 -24l-37 -21c-4 -2 -8 -3 -12 -3c4.66699 -6.66699 10 -13.334 16 -20.001c4 8 10.333 12.667 19 14zM494.005 408.007c2 -18 7.00098 -41 15.001 -69c11.333 -37.333 18 -61.666 20 -72.999c2 -9.33301 3.16699 -20.333 3.5 -33
s0 -26 -1 -40s-1.5 -23 -1.5 -27c0 -7.33301 -2.5 -13.5 -7.5 -18.5s-11.167 -7.5 -18.5 -7.5c-8 0 -14.667 3.33301 -20 10c-3.33301 -7.33301 -8.33301 -12.333 -15 -15c-3.33301 -1.33301 -6.66602 -2.33301 -9.99902 -3c-6.66699 -2 -13 -1 -19 3
s-9.66699 9.66699 -11 17l-1 5l-19 -7c-5.33301 -2 -9.33301 -3.33301 -12 -4s-6.66699 -1.33398 -12 -2.00098l-6 -1c60.667 -40.667 137 -58 229 -52c46.667 2.66699 94 12.334 142 29.001s84 38 108 64c-5.33301 0.666992 -28 -1.33301 -68 -6
c-38 -4 -76 1.16699 -114 15.5s-70.333 35.5 -97 63.5c-46 49.333 -73.667 136.666 -83 261.999c-2.66699 35.333 -4.33398 84.333 -5.00098 147c-0.666992 60 -1.66699 101 -3 123c-1.33301 22.667 -3.66602 38.334 -6.99902 47.001c-4 11.333 -10.667 19 -20 23
c-8.66699 2.66699 -19.667 3.33398 -33 2.00098c-1.33301 0 -3.33301 -0.333008 -6 -1c-6.66699 -8.66699 -15.334 -12.334 -26.001 -11.001c-66 10 -124 2.66699 -174 -22c-16.667 -8.66699 -31.5 -21.834 -44.5 -39.501s-22.833 -37.5 -29.5 -59.5
c-13.333 -48.667 -8.33301 -88 15 -118c16 -22 37.333 -37.333 64 -46v2c0 7.33301 2.5 13.5 7.5 18.5s11.167 7.5 18.5 7.5c16.667 0 31 2.83301 43 8.5s26.667 15.834 44 30.501l-16 16c-5.33301 4.66699 -8 10.667 -8 18s2.5 13.5 7.5 18.5s11.167 7.5 18.5 7.5
s13.333 -2.66699 18 -8c15.333 -14.667 26 -24.667 32 -30c12 1.33301 21 -3 27 -13l13 -23c3.33301 -6.66699 4 -13.334 2 -20.001s-6.16699 -11.834 -12.5 -15.501s-12.833 -4.5 -19.5 -2.5s-12 6 -16 12l-4 7h-1c-1.33301 -2 -3 -3.66699 -5 -5
c-28.667 -24 -53.667 -39.333 -75 -46l11 -3h3c4.66699 0 8 -0.333008 10 -1c18 -2 28.667 -11 32 -27c2.66699 -14 -2.66602 -26.333 -15.999 -37c-4 -3.33301 -6.66699 -5.33301 -8 -6v-1c-12 -15.333 -22 -31.666 -30 -48.999c25.333 8 48.666 7 69.999 -3
c25.333 -12 46 -36.667 62 -74c13.333 -30 25.666 -78.333 36.999 -145l4 -6l3 -9c1.33301 38 1.33301 61.333 0 70l-20 68c-8.66699 30.667 -14.334 56.667 -17.001 78c-0.666992 7.33301 1.33301 13.833 6 19.5s10.5 8.83398 17.5 9.50098s13.333 -1.33301 19 -6
s8.83398 -10.334 9.50098 -17.001zM290.006 768.007c0 -7.33301 -2.5 -13.5 -7.5 -18.5s-11.167 -7.5 -18.5 -7.5s-13.5 2.5 -18.5 7.5s-7.5 11.167 -7.5 18.5s2.5 13.5 7.5 18.5s11.167 7.5 18.5 7.5s13.5 -2.5 18.5 -7.5s7.5 -11.167 7.5 -18.5zM165.006 186.007
c0 -7.33301 -2.33496 -13.334 -7.00195 -18.001c-4 -4 -8.66699 -6.66699 -14 -8c0 -7.33301 -3.33301 -13.666 -10 -18.999c-5.33301 -4.66699 -11.5 -6.66699 -18.5 -6s-12.833 4 -17.5 10c-7.33301 8.66699 -29.333 24.667 -66 48c-17.333 11.333 -30.333 20.333 -39 27
c-14.667 12.667 -23.667 24.667 -27 36c-6 23.333 -6 43.333 0 60c7.33301 18.667 20.666 30 39.999 34c14 3.33301 28.667 2.33301 44 -3l16 27c4 6.66699 10.833 14.834 20.5 24.501s19.834 17.167 30.501 22.5c0.666992 0 2.66699 0.666992 6 2
c3.33301 2 6.33301 3.66699 9 5c12.667 5.33301 24.334 5.66602 35.001 0.999023c10 -4.66699 17 -13.334 21 -26.001c2.66699 -7.33301 4.33398 -16.333 5.00098 -27c1.33301 -16 1 -37 -1 -63c-1.33301 -12.667 -2.83301 -26.167 -4.5 -40.5s-3.5 -27.666 -5.5 -39.999
s-3 -19.833 -3 -22.5c-0.666992 -6.66699 -3.66699 -12 -9 -16c-1.33301 -2 -3 -3.33301 -5 -4v-4zM139.004 373.006c0.666992 0 1.33398 -0.333008 2.00098 -1v2c-0.666992 0 -1.33398 -0.333008 -2.00098 -1z" />
    <glyph glyph-name="dollar" unicode="$" horiz-adv-x="919" 
d="M258 911c17.333 5.33301 34.332 8.66797 50.999 10.001v2c-2 15.333 -4 25 -6 29c-1.33301 1.33301 -3.33301 1.66602 -6 0.999023c-13.333 -2 -25.666 -14.667 -36.999 -38zM831.999 120.002l-7.99902 4l-14 6h-1c4 -10 7.33301 -19.333 10 -28
c1.33301 2 4.33301 5.33301 9 10c1.33301 3.33301 2.66602 6 3.99902 8zM838 117.002l1 -1zM802 379.002c-2.66699 0 -8.99902 -0.333008 -18.999 -1c-18.667 -0.666992 -32.667 1 -42 5c-4.66699 2 -9 4.33301 -13 7l38 -124c-0.666992 8 -1.33398 15 -2.00098 21v21
c0 8.66699 1 15 3 19c3.33301 8.66699 11.333 20.667 24 36c6 6.66699 9.66699 12 11 16zM708.001 696.002l-5.99902 0.00292969c-6 0 -17.667 -1.33301 -35 -4c-19.333 -3.33301 -34.333 -5 -45 -5c-3.33301 0 -7 0.333008 -11 1
c35.333 -65.333 69.333 -148.666 102 -249.999c2.66699 9.33301 9.33398 21.333 20.001 36c2.66699 4 7.66699 10.667 15 20s12.666 16.666 15.999 21.999c10.667 15.333 17.334 27 20.001 35c1.33301 5.33301 0.666016 8.66602 -2.00098 9.99902
c-2 1.33301 -6 1.66602 -12 0.999023l-15 -3c-10 -2 -15.667 -3 -17 -3c-17.333 -3.33301 -31.333 -3.33301 -42 0c-17.333 4.66699 -29.333 16.667 -36 36c-4 11.333 -1 25 9 41c1.33301 1.33301 8.66602 11.666 21.999 30.999c8 11.333 13.333 20 16 26
c0.666992 2.66699 1 4.66699 1 6zM615.002 845.005c-7.33301 -0.666992 -18 -3.66797 -32 -9.00098c-4.66699 -1.33301 -11.667 -4 -21 -8s-16 -6.66699 -20 -8c-6 -2 -11.333 -3.66699 -16 -5l11 -14l37 -50c2.66699 8.66699 8.66699 22.334 18 41.001
c9.33301 19.333 15.333 33 18 41zM491.002 944.004c-3.33301 -0.666992 -7.33301 -2.33301 -12 -5c-8.66699 -4.66699 -20 -12.334 -34 -23.001l-19 -15c12.667 -6 25 -13.667 37 -23c2.66699 8 8 18.667 16 32c9.33301 16.667 14.333 27.334 15 32.001v1
c-0.666992 0 -1.66699 0.333008 -3 1zM131.002 885.005c0 -1.33301 -0.333008 -2.66699 -1 -4c-1.33301 -10 -2 -23.333 -2 -40v-9c6.66699 7.33301 14 14.333 22 21c-2 2.66699 -4.33301 7 -7 13c-6 10 -10 16.333 -12 19zM353.002 135.004
c-4.66699 16.667 -8.33203 31.0029 -10.999 43.0029c-32 -18.667 -62.333 -32.167 -91 -40.5s-60.334 -11.833 -95.001 -10.5c2.66699 -12.667 5.66699 -24.334 9 -35.001v-2c3.33301 2 7 3.33301 11 4c40.667 3.33301 74.667 7.66602 102 12.999s52.333 14.666 75 27.999z
M454.004 402.007c11.333 -78.667 48.667 -157.667 112 -237c-1.33301 6 -5.33301 27 -12 63c-10 53.333 -18 91.666 -24 114.999c-11.333 38.667 -23.333 63.667 -36 75c-4 3.33301 -7.66699 5 -11 5c-6.66699 -1.33301 -14.667 -7 -24 -17
c-1.33301 -1.33301 -3 -2.66602 -5 -3.99902zM126.005 605.007c0.666992 3.33301 1.66797 6.66797 3.00098 10.001c5.33301 11.333 13.666 18.333 24.999 21s22.666 0 33.999 -8c9.33301 -7.33301 14.833 -16.833 16.5 -28.5s-1.16602 -21.834 -8.49902 -30.501
c-5.33301 -6 -12 -9.66699 -20 -11c-1.33301 -2 -3 -4 -5 -6c-4.66699 -4 -10 -5.66699 -16 -5s-11 3.33398 -15 8.00098c-8.66699 10 -13.667 21.333 -15 34c-2 5.33301 -1.66699 10.666 1 15.999zM804.006 -10.9912c-7.33301 -0.666992 -17.3262 -2.33301 -29.9932 -5
c-17.333 -4 -28.333 -6.33301 -33 -7c-29.333 -5.33301 -53.666 -5.66602 -72.999 -0.999023c-10.667 2 -23.667 7.33301 -39 16c-20 10.667 -30.667 16.334 -32 17.001c-22.667 10.667 -48.834 18.5 -78.501 23.5s-55.834 5.83301 -78.501 2.5
c-10.667 -1.33301 -22.167 -4.33301 -34.5 -9s-26.833 -11 -43.5 -19l-42 -19c-59.333 -23.333 -109.333 -23.333 -150 0c-10.667 6 -20.667 19 -30 39c-6 13.333 -12 31 -18 53s-13 53 -21 93c-8.66699 46 -15.167 97.167 -19.5 153.5s-6.83301 101.333 -7.5 135
s-1 84.834 -1 153.501c0 5.33301 -0.333008 21.5 -1 48.5s-0.666992 49.5 0 67.5s2.66699 35.333 6 52c1.33301 5.33301 4 9.66602 8 12.999c-1.33301 16 -2 30.667 -2 44c0 20 1 36.333 3 49c2 8 4.33301 15 7 21c4.66699 9.33301 11 15.666 19 18.999
c18.667 6.66699 35 2.66699 49 -12c5.33301 -5.33301 12 -15.666 20 -30.999l4 -7l9 5c0.666992 0.666992 9 17.334 25 50.001c18.667 37.333 41.667 58.333 69 63c24 4 41.333 -4 52 -24c4.66699 -8.66699 8.66699 -23.334 12 -44.001l1 -8
c7.33301 -0.666992 14.666 -1.66699 21.999 -3l6 5l36 28c16.667 13.333 30.334 22.333 41.001 27c18.667 10 34.167 12.667 46.5 8s21.5 -11.667 27.5 -21c5.33301 -9.33301 6.66602 -19.666 3.99902 -30.999c-1.33301 -10 -8 -25.333 -20 -46
c-8.66699 -14 -13 -23.333 -13 -28c2 -1.33301 5 -2.66602 9 -3.99902v1c3.33301 0.666992 8 2.33398 14 5.00098c4 1.33301 10.667 3.83301 20 7.5s16.333 6.5 21 8.5c19.333 6.66699 34.666 10.334 45.999 11.001c10 0.666992 18.333 -1 25 -5
c10 -4.66699 16.333 -12.334 19 -23.001s0.333984 -25.334 -6.99902 -44.001c-3.33301 -9.33301 -9.66602 -24 -18.999 -44c-8.66699 -18 -14.334 -30.667 -17.001 -38c-0.666992 -0.666992 -1 -1.66699 -1 -3c2.66699 -0.666992 5.66699 -1 9 -1
c7.33301 0 19.333 1.33301 36 4c20.667 3.33301 34.667 5 42 5c20 0.666992 34.333 -5 43 -17c9.33301 -13.333 10.666 -29.333 3.99902 -48c-4 -10 -11 -22 -21 -36c-13.333 -18.667 -20 -28.334 -20 -29.001c-2 -2.66699 -3.33301 -5 -4 -7
c1.33301 -2.66699 3 -4.33398 5 -5.00098c4.66699 -1.33301 12 -1 22 1c1.33301 0 7 1.33301 17 4c7.33301 1.33301 13.333 2.33301 18 3c18 1.33301 32.333 -1.66699 43 -9c18.667 -14 24.667 -33 18 -57c-3.33301 -13.333 -12 -30 -26 -50
c-4 -4.66699 -9.66699 -11.834 -17 -21.501s-12.333 -16.5 -15 -20.5c-8 -11.333 -12 -18 -12 -20l1 -4c3.33301 -1.33301 11.333 -2 24 -2c19.333 0.666992 32.666 0 39.999 -2c10 -2.66699 17.333 -8 22 -16s6 -17.667 4 -29c-2.66699 -11.333 -10.334 -25 -23.001 -41
c-8.66699 -10.667 -14 -18 -16 -22v-4v-18c1.33301 -14.667 3.33301 -31.667 6 -51s5.66699 -36 9 -50c1.33301 -7.33301 3 -13 5 -17v-2h1c2 -1.33301 6.33301 -3.33301 13 -6c6 -3.33301 10.667 -5.66602 14 -6.99902l6 -3c4 -2.66699 7 -5.66699 9 -9
c10.667 -16.667 9.66699 -34 -3 -52h2c2.66699 0.666992 4.66699 1 6 1h4c3.33301 0.666992 7 0 11 -2c16 -8.66699 25.333 -26.334 28 -53.001c0.666992 -6 1 -14 1 -24v-16c0.666992 -6 -1 -11.333 -5 -16s-9 -7.33398 -15 -8.00098s-11.333 1 -16 5
s-7.33398 9 -8.00098 15v20c0 8.66699 -0.333008 15.334 -1 20.001c-0.666992 6 -1.33398 10.667 -2.00098 14c-5.33301 -0.666992 -9.33301 -1.33398 -12 -2.00098c-6 -0.666992 -11.333 -1 -16 -1c6.66699 -12 13.667 -23 21 -33c3.33301 -5.33301 4.5 -10.833 3.5 -16.5
s-4 -10.334 -9 -14.001s-10.333 -5 -16 -4s-10.5 3.83301 -14.5 8.5c-3.33301 4.66699 -6.33301 9.33398 -9 14.001c-4 -6.66699 -9.66699 -10.667 -17 -12zM132.013 335.01c48 20 89.3369 26.3301 124.004 18.9971c32.667 -6.66699 59.667 -25 81 -55
c5.33301 -7.33301 10.166 -15 14.499 -23s8.66602 -17.5 12.999 -28.5s7.66602 -20 9.99902 -27s5.5 -17.833 9.5 -32.5l8 -28c1.33301 -4.66699 4 -15.5 8 -32.5s6 -26.5 6 -28.5c2 -6 1.33301 -11.5 -2 -16.5s-8 -8.33301 -14 -10s-11.5 -0.833984 -16.5 2.49902
s-8.16699 8 -9.5 14l-1 2c-18 -9.33301 -38.667 -17 -62 -23s-43 -10 -59 -12s-36.667 -4 -62 -6h-2l2 -5c5.33301 -11.333 9.33301 -17.666 12 -18.999c28.667 -16 65.667 -15 111 3c7.33301 2.66699 20.166 8.33398 38.499 17.001s35 15.834 50 21.501
s29.167 9.5 42.5 11.5c27.333 4 57.833 3 91.5 -3s63.5 -15 89.5 -27c2 -0.666992 13.333 -6.66699 34 -18c12.667 -6.66699 22.334 -11 29.001 -13c13.333 -2.66699 31.666 -2 54.999 2c4.66699 0.666992 15.334 3 32.001 7c14 2.66699 25 4.66699 33 6h4
c-6.66699 13.333 -13.334 28.333 -20.001 45s-12 30.667 -16 42l-14 47l-14 42l-36 118c-16 52 -29.167 93.333 -39.5 124s-23.5 66.834 -39.5 108.501s-34 80 -54 115s-42 68.5 -66 100.5c-40.667 52 -80 84 -118 96c-2.66699 -1.33301 -5 -2.33301 -7 -3
c-11.333 -4.66699 -21.666 -6.33398 -30.999 -5.00098c-9.33301 2 -17.333 7 -24 15c-33.333 -1.33301 -66.333 -10.666 -99 -27.999c-2 -2.66699 -4 -4.66699 -6 -6c-8 -7.33301 -16 -12 -24 -14h-2c-24 -17.333 -43.333 -37.666 -58 -60.999
c0.666992 -5.33301 -0.666016 -10.333 -3.99902 -15s-7.66602 -7.66699 -12.999 -9c-1.33301 -12.667 -2 -26 -2 -40s0.333008 -30 1 -48s1 -32 1 -42c0 -72.667 0.333008 -125 1 -157c6 -0.666992 10.667 -3.66699 14 -9l11 -14l2 5h1
c-0.666992 0.666992 -0.333984 3.33398 0.999023 8.00098c4.66699 15.333 13.667 23.333 27 24c10 0.666992 18.333 0.666992 25 0c10 -1.33301 17.333 -5.33301 22 -12c6.66699 5.33301 14 8 22 8c7.33301 0 14 -2.66699 20 -8c4 4.66699 8.66699 8 14 10
c10.667 4.66699 26 5.66699 46 3l35 -7c6 -1.33301 10.667 -4.5 14 -9.5s4.5 -10.5 3.5 -16.5s-4 -10.667 -9 -14s-10.5 -4.66602 -16.5 -3.99902c-2 0.666992 -5 1.5 -9 2.5s-8.33301 1.83301 -13 2.5l-12 2c-9.33301 1.33301 -16.333 1.66602 -21 0.999023l-3 -3
c-7.33301 -10.667 -16 -16.334 -26 -17.001c-8 -0.666992 -15.333 1.66602 -22 6.99902c-2.66699 -4.66699 -5.33398 -8.66699 -8.00098 -12c-7.33301 -8 -16 -12 -26 -12s-17.667 1 -23 3c-4.66699 1.33301 -9 3.66602 -13 6.99902c-2 -4 -4.33301 -7.33301 -7 -10
c-10.667 -10 -22.334 -12.333 -35.001 -7c-4 1.33301 -8 4 -12 8l4 -64c2 2.66699 4.66699 4.33398 8 5.00098zM134.017 258.007c35.333 -3.33301 64.5 -2.83496 87.5 1.49805s43.5 15.833 61.5 34.5c-10.667 8.66699 -22.667 14.334 -36 17.001c-26 5.33301 -59 0 -99 -16
c-7.33301 -3.33301 -14.333 -2.66602 -21 2.00098c2 -13.333 3.66699 -26.333 5 -39h2zM151.017 171.005c33.333 -2 63.168 1 89.501 9s55.5 21.667 87.5 41c-6 14.667 -12 27.334 -18 38.001c-22.667 -22 -47.834 -35.833 -75.501 -41.5s-59.5 -7.16699 -95.5 -4.5
c1.33301 -10.667 3.33301 -21.334 6 -32.001l2 -10h4zM427.019 436.005c16 17.333 32.3301 27.332 48.9971 29.999c17.333 2.66699 33.333 -2.33301 48 -15c18.667 -17.333 34.667 -49.333 48 -96c8 -29.333 16.667 -69.333 26 -120c9.33301 -49.333 14.333 -75.333 15 -78
c2 -6 1.66699 -11.667 -1 -17s-7 -9 -13 -11c-6.66699 -2 -13 -1 -19 3c-1.33301 -4.66699 -3.66602 -8.33398 -6.99902 -11.001c-4.66699 -4 -10 -5.66699 -16 -5s-11 3.33398 -15 8.00098c-37.333 45.333 -67.166 90.333 -89.499 135s-36.833 93 -43.5 145
c-1.33301 10.667 3 18.334 13 23.001c0.666992 3.33301 2.33398 6.33301 5.00098 9z" />
    <glyph glyph-name="percent" unicode="%" horiz-adv-x="657" 
d="M557 599c6 -12 13 -24.332 21 -36.999c-6 13.333 -13 25.666 -21 36.999zM362 766.001c37.333 -3.33301 76.668 -16.667 118.001 -40c53.333 -30.667 95.333 -72.667 126 -126c30 -54 47.167 -110.333 51.5 -169s-2.5 -117.834 -20.5 -177.501s-46 -110.5 -84 -152.5
c-30.667 -33.333 -70.834 -54.666 -120.501 -63.999s-98 -5.16602 -145 12.501s-82.833 45.5 -107.5 83.5c-39.333 62 -55.333 152.333 -48 271c6.66699 106 28.334 192 65.001 258c-1.33301 7.33301 0.666992 13.666 6 18.999c3.33301 2.66699 8.33301 7 15 13l18 18
c5.33301 6 10.666 11 15.999 15c23.333 20.667 45 33 65 37c8.66699 1.33301 18 2 28 2c6 2.66699 11.667 2.66699 17 0zM479.002 662c2.66699 4 6.66699 6.66699 12 8c-10 6.66699 -20 13 -30 19c-2 -9.33301 -3 -19 -3 -29c2.66699 2 5.66699 3.33301 9 4
c4 0.666992 8 0 12 -2zM580.002 489c-33.333 42 -57.665 81.6689 -72.998 119.002c-0.666992 -4.66699 -1 -9.33398 -1 -14.001c9.33301 -25.333 19.333 -47.333 30 -66l3 -7c7.33301 -6 15.666 -11.333 24.999 -16c8 -4.66699 11.667 -11.334 11 -20.001h1
c1.33301 0.666992 2.66602 2 3.99902 4zM178.003 373.002l-4.99902 3.00098c-0.666992 -22.667 -0.333984 -44.334 0.999023 -65.001v50c0 4 1.33301 8 4 12zM216.004 319.003c0 -30.667 0.330078 -56.334 0.99707 -77.001c0 -6 -2 -11.167 -6 -15.5s-8.66699 -6.5 -14 -6.5
c-3.33301 0 -6.33301 0.666992 -9 2c7.33301 -26.667 16.666 -49 27.999 -67c19.333 -30 48.5 -52.167 87.5 -66.5s79 -17.833 120 -10.5s73.5 24.333 97.5 51c38 41.333 65 91.333 81 150s19.333 117 10 175c-3.33301 -8 -9.66602 -12 -18.999 -12h-13
c-8.66699 -1.33301 -17.667 0.333984 -27 5.00098c-49.333 11.333 -86.666 42 -111.999 92c-26 52.667 -32.333 109 -19 169c-20.667 8 -39.667 13 -57 15c-7.33301 -14.667 -12.666 -28 -15.999 -40v-7c-0.666992 -12 -1 -19.333 -1 -22c-2 -24 -4.66699 -43.667 -8 -59
c-4.66699 -26 -12.667 -43.667 -24 -53c-10 -8.66699 -21.333 -10.667 -34 -6c-9.33301 2.66699 -18.666 10 -27.999 22c-8 10 -17 27.333 -27 52l-4 10c-25.333 -56 -41.333 -123.333 -48 -202c6 0.666992 11.333 -0.333008 16 -3l17 -12c8 0.666992 14 -2.33301 18 -9
l5 -8c16.667 -12 29.334 -22.333 38.001 -31c16.667 -18 23.667 -36.333 21 -55c-0.666992 -8.66699 -6.33398 -25.334 -17.001 -50.001l-4 -9v-16c0 -8.66699 -4 -15 -12 -19c-2 -8 -3.66699 -16 -5 -24c-1.33301 -5.33301 -4.33301 -9.66602 -9 -12.999
s-9.83398 -4.5 -15.501 -3.5s-10.167 3.83301 -13.5 8.5s-4.66602 10 -3.99902 16c4 20 9.66699 39.333 17 58c-1.33301 28 -5 51.667 -11 71zM506.001 256.003c-14 -24 -23.332 -54 -27.999 -90c7.33301 26.667 16.666 56.667 27.999 90zM265.002 626.003
c6.66699 27.333 15.333 53.667 26 79c-4 -2.66699 -8 -5.66699 -12 -9l-20 -18c2.66699 -1.33301 5 -3 7 -5c4 -4 6 -9 6 -15s-2 -11 -6 -15c-2 -2 -4 -3.33301 -6 -4c2 -4 3.66699 -8.33301 5 -13zM596.001 286.004c-8 -38 -22.6631 -74.999 -43.9961 -110.999
c-2.66699 -4 -6.33398 -7 -11.001 -9c-6 -10.667 -12 -20.334 -18 -29.001c-2.66699 -4 -6.33398 -6.66699 -11.001 -8c-1.33301 -5.33301 -4.5 -9.33301 -9.5 -12s-10.167 -3.33398 -15.5 -2.00098c-4.66699 0.666992 -8.66699 3 -12 7v-12c0 -6 -2 -11 -6 -15
s-9 -6 -15 -6s-11 2 -15 6s-6 9 -6 15c0 26 1.83301 50.5 5.5 73.5s10.167 46.667 19.5 71s23.5 45.666 42.5 63.999s42.167 31.5 69.5 39.5c5.33301 2 10.666 1.5 15.999 -1.5s8.83301 -7.16699 10.5 -12.5s1 -10.666 -2 -15.999s-7.16699 -8.66602 -12.5 -9.99902
c-7.33301 -2 -14 -4.66699 -20 -8c5.33301 2.66699 10.666 3 15.999 1h1c6 -1.33301 10.5 -4.5 13.5 -9.5s4.16699 -10.167 3.5 -15.5zM511.005 348.005c-8 -18 -22.998 -40.3291 -44.998 -66.9961c-22.667 -28 -37.334 -47.667 -44.001 -59
c-2.66699 -5.33301 -6.83398 -8.83301 -12.501 -10.5s-10.834 -0.833984 -15.501 2.49902c-4 -6.66699 -8.66699 -13 -14 -19c-3.33301 -4.66699 -8 -7.33398 -14 -8.00098s-11.167 0.833008 -15.5 4.5s-6.83301 8.5 -7.5 14.5s1 11 5 15l9 13l7 12
c2 3.33301 3.5 7.5 4.5 12.5s2 8.83301 3 11.5s1.5 6.66699 1.5 12v10c0 2 -0.333008 6.16699 -1 12.5s-1.16699 10.166 -1.5 11.499s-1.16602 5.33301 -2.49902 12s-2 10.667 -2 12c-5.33301 28 -4.66602 50.333 2.00098 67c9.33301 24 31 44.667 65 62
c10 5.33301 18.667 3.33301 26 -6c5.33301 -4.66699 8 -10.334 8 -17.001v-17c4 0 8 -1 12 -3c4.66699 -2.66699 7.66699 -6.83398 9 -12.501s0.666016 -11.167 -2.00098 -16.5l-26 -41c-0.666992 -4.66699 -3 -8.66699 -7 -12c-8.66699 -12.667 -15.667 -24 -21 -34
c-4 -6.66699 -9.66699 -10 -17 -10v-15l18 22c20.667 24.667 34 44.334 40 59.001c2 5.33301 5.83301 9 11.5 11s11.167 1.83301 16.5 -0.5s9 -6.33301 11 -12s1.66699 -11.167 -1 -16.5zM408.007 393.009l-0.998047 -1.00195c-3.33301 -9.33301 -3.33301 -23.333 0 -42
l13 21c0.666992 2.66699 1 5.33398 1 8.00098c-2.66699 0.666992 -5.33398 2.33398 -8.00098 5.00098s-4.33398 5.66699 -5.00098 9z" />
    <glyph glyph-name="ampersand" unicode="&#x26;" horiz-adv-x="423" 
d="M377 388c-6 -0.666992 -12.667 -4.33398 -20 -11.001s-14 -14.667 -20 -24c4.66699 2 9 4.66699 13 8c13.333 8.66699 22.333 17.334 27 26.001v1zM360 752c0 -27.333 3 -79.668 9 -157.001c0.666992 -6 -1 -11.167 -5 -15.5s-8.83301 -6.83301 -14.5 -7.5
s-10.667 1 -15 5s-6.83301 8.66699 -7.5 14c-6 78.667 -9 132.334 -9 161.001c0 6 2 11 6 15s9 6 15 6s11 -2 15 -6s6 -9 6 -15zM376 507.998c-12.667 2 -27.499 -2.50293 -44.499 -13.5029s-31.5 -26.5 -43.5 -46.5c-12.667 -20 -19.5 -39 -20.5 -57
s4.16699 -32.333 15.5 -43l3 -3c10 25.333 24 46.333 42 63c28 24.667 53.333 29.334 76 14.001c10 -6.66699 15.333 -16 16 -28c1.33301 -8.66699 -0.666992 -17.667 -6 -27c-8.66699 -14.667 -22.334 -28.334 -41.001 -41.001c-18 -12 -36 -20 -54 -24
c-0.666992 -12.667 2.33301 -23.334 9 -32.001c12 -16.667 37 -25 75 -25c6 0 11 -2 15 -6s6 -9 6 -15s-2 -11 -6 -15s-9 -6 -15 -6c-52 0 -88.333 14 -109 42c-12 16.667 -17.667 36.334 -17 59.001c-8.66699 2.66699 -16.667 7.33398 -24 14.001
c-14 13.333 -22.667 29.5 -26 48.5s-2.5 37 2.5 54s12.5 33.833 22.5 50.5c15.333 24.667 35 44.834 59 60.501s47.667 21.834 71 18.501c6 -1.33301 10.667 -4.33301 14 -9s4.5 -9.83398 3.5 -15.501s-3.83301 -10.167 -8.5 -13.5s-9.66699 -4.66602 -15 -3.99902z
M392.001 143.995c2 -12.667 6.6709 -45.999 14.0039 -99.999c0.666992 -6 -0.833008 -11.333 -4.5 -16s-8.33398 -7.33398 -14.001 -8.00098s-10.834 0.833008 -15.501 4.5s-7.33398 8.16699 -8.00098 13.5c-6.66699 53.333 -11.334 86 -14.001 98
c-0.666992 6 0.5 11.333 3.5 16s7.5 7.5 13.5 8.5s11.333 0 16 -3s7.66699 -7.5 9 -13.5z" />
    <glyph glyph-name="quotesingle" unicode="'" horiz-adv-x="171" 
d="M153 794c2 -15.333 4.33398 -47.002 7.00098 -95.002c2 -38 5.66699 -68 11 -90c1.33301 -6 0.5 -11.333 -2.5 -16s-7.33301 -7.66699 -13 -9s-10.834 -0.5 -15.501 2.5s-7.66699 7.16699 -9 12.5c-6 24.667 -10.333 57 -13 97c-2.66699 47.333 -5 78 -7 92
c-0.666992 6 0.666016 11.333 3.99902 16s8 7.33398 14 8.00098s11.333 -0.666016 16 -3.99902s7.33398 -8 8.00098 -14z" />
    <glyph glyph-name="parenleft" unicode="(" horiz-adv-x="252" 
d="M226 635l-21.001 -75.002l-21 -73c-4.66699 -16.667 -9.16699 -36.667 -13.5 -60s-7.16602 -44.333 -8.49902 -63c-2.66699 -42 2.5 -83 15.5 -123s36.833 -83 71.5 -129c3.33301 -4.66699 4.66602 -10 3.99902 -16s-3.33398 -10.667 -8.00098 -14
s-10 -4.66602 -16 -3.99902s-10.667 3.33398 -14 8.00098c-37.333 50 -63.166 97.5 -77.499 142.5s-20.166 90.833 -17.499 137.5c1.33301 20 4.33301 42.5 9 67.5s9.66699 46.5 15 64.5l21 75l21 74c1.33301 5.33301 4.5 9.5 9.5 12.5s10.333 3.66699 16 2s10 -5 13 -10
s3.5 -10.5 1.5 -16.5z" />
    <glyph glyph-name="parenright" unicode=")" horiz-adv-x="255" 
d="M162 631c26 -36.667 47.165 -81.835 63.498 -135.502s26.166 -108.5 29.499 -164.5c3.33301 -59.333 -2 -115.166 -16 -167.499s-37.667 -95.5 -71 -129.5c-4 -4 -9 -6 -15 -6s-11 2 -15 6s-6 9 -6 15s2 11 6 15c28.667 28 49.334 65.333 62.001 112
c12 46 16.333 97 13 153c-2.66699 53.333 -11.667 104.333 -27 153c-15.333 50 -34.666 91.667 -57.999 125c-3.33301 4.66699 -4.5 9.83398 -3.5 15.501s3.83301 10.167 8.5 13.5s9.83398 4.5 15.501 3.5s10.167 -3.83301 13.5 -8.5z" />
    <glyph glyph-name="asterisk" unicode="*" horiz-adv-x="684" 
d="M33 342c40 56 85.334 114.668 136.001 176.001c-2 -0.666992 -4.33301 -1 -7 -1h-1c-33.333 -28 -65 -56.667 -95 -86c-28.667 -28.667 -50.334 -52.334 -65.001 -71.001c-6.66699 -9.33301 -11.667 -17.333 -15 -24h11c10 0.666992 22 2.66699 36 6zM561.001 389.001
c0 -1.33301 -0.333008 -3 -1 -5c0.666992 0 6 -0.333008 16 -1zM363.001 388.001l-30.998 -56c27.333 12.667 54 22.667 80 30c-14.667 6.66699 -30.334 15 -47.001 25c-0.666992 0.666992 -1.33398 1 -2.00098 1zM296.003 406.001l-4 -21l-8 -38
c2.66699 0.666992 5.66699 1 9 1c42 76 70 124.333 84 145v1l-7 -8zM239.003 339.001c-10 -12.667 -19.001 -25.333 -27.001 -38l-11 -100c-2 -20 -3.66699 -37.667 -5 -53l4 11c4.66699 12.667 10.334 27 17.001 43c4.66699 39.333 12 85 22 137zM460.002 595.002
c12.667 5.33301 28.999 15.333 48.999 30c0.666992 0.666992 1.33398 1 2.00098 1l34 35c-41.333 -24.667 -71.333 -41.667 -90 -51c4 -4 5.66699 -9 5 -15zM317.001 506.002l-4 -18.998l25 27c5.33301 5.33301 19 21.666 41 48.999l29 32
c-6 1.33301 -10.333 4.66602 -13 9.99902c-20 -27.333 -46 -60.333 -78 -99zM234.001 408.004l-18.999 -24c1.33301 -1.33301 2.33301 -3 3 -5l18 23c-0.666992 1.33301 -1.33398 3.33301 -2.00098 6zM307.002 607.004h6c10 -2 16 -8 18 -18l11 15
c-2.66699 1.33301 -4.66699 3.33301 -6 6l-11 20l-17 -18zM246.002 507.004c-4 -2.66699 -7.99805 -3.99805 -11.998 -3.99805c-6.66699 0 -12 2.33301 -16 7l-13 -16l-55 -96c-2.66699 -5.33301 -6.83398 -8.83301 -12.501 -10.5s-10.834 -0.833984 -15.501 2.49902h-1
l-22 -29l29 10l20 7c2.66699 1.33301 5.66699 1.66602 9 0.999023c20 26 48.333 60.667 85 104zM281.004 693.006c1.33301 4 4 7.33301 8 10l-9 22l-1 -1zM239.004 761.006c4 5.33301 9.00293 8.33301 15.0029 9c3.33301 0 6.33301 -0.333008 9 -1l-8 26l-6 20l-1 3
c-3.33301 -5.33301 -6 -9.33301 -8 -12c-12.667 -19.333 -22.834 -43.5 -30.501 -72.5s-12.5 -52.5 -14.5 -70.5s-4.33301 -47 -7 -87c2.66699 -1.33301 5 -3.33301 7 -6c3.33301 -4 4.66602 -8.66699 3.99902 -14c1.33301 0.666992 2.66602 1 3.99902 1l12 14
c1.33301 28 6.33301 86.333 15 175c0.666992 6.66699 3.66699 11.667 9 15zM470.007 416.006c12.667 -2 26.334 -3.33398 41.001 -4.00098l-78 40c7.33301 -9.33301 17.333 -18.666 30 -27.999c3.33301 -2 5.66602 -4.66699 6.99902 -8zM420.007 405.005
c-10 8.66699 -19.333 19.668 -28 33.001l-8 -13c0.666992 -0.666992 1.66699 -1.33398 3 -2.00098c12 -7.33301 23 -13.333 33 -18zM406.007 634.006c17.333 7.33301 35.3379 16.0029 54.0049 26.0029l60 34c22 13.333 40 23.666 54 30.999c29.333 16 51 27 65 33
c7.33301 3.33301 13 5.33301 17 6c3.33301 0.666992 6.66602 1 9.99902 1c4.66699 -1.33301 8.66699 -3.33301 12 -6c4.66699 -4 7 -9.33301 7 -16c0 -4 -1 -8 -3 -12c-0.666992 -1.33301 -1.66699 -3 -3 -5l-7 -7c-4.66699 -4.66699 -10.667 -10.334 -18 -17.001l-11 -9
l-10 -9c-2.66699 -2 -4.33398 -3.33301 -5.00098 -4c-75.333 -68 -131.333 -127.667 -168 -179c-3.33301 -4.66699 -7.66602 -7.66699 -12.999 -9c40 -21.333 80.333 -41.333 121 -60c1.33301 -0.666992 4.66602 -2 9.99902 -4l20 -8c9.33301 -4 17 -7 23 -9l32 -14
c5.33301 -2.66699 9 -4.33398 11 -5.00098s3.66699 -1.33398 5 -2.00098c0.666992 -0.666992 1.66699 -1.33398 3 -2.00098l4 -4c4 -6 5 -12.333 3 -19c-2.66699 -8 -8.33398 -14 -17.001 -18c-4 -1.33301 -9 -2.66602 -15 -3.99902c-8.66699 -1.33301 -20 -2 -34 -2
c-9.33301 0 -20.666 0.333008 -33.999 1h-20c-12 0 -24 -0.333008 -36 -1c-1.33301 -0.666992 -3 -1 -5 -1h-3c-66 -6 -134.333 -28 -205 -66c-4 -2 -8.33301 -2.66699 -13 -2c-2 -3.33301 -5 -6 -9 -8l-13 -33l-17 -39v-3c-0.666992 -5.33301 -2.66699 -9.66602 -6 -12.999
l-12 -31l-21 -55c-6 -14.667 -11.333 -26 -16 -34c-2.66699 -6 -5.33398 -10.333 -8.00098 -13c-2.66699 -3.33301 -5.66699 -6 -9 -8c-8.66699 -4.66699 -17 -3.66699 -25 3c-4 4 -7 9.66699 -9 17c-0.666992 3.33301 -1 8 -1 14c-0.666992 8.66699 -0.666992 20.667 0 36
c1.33301 24 4 57.333 8 100c1.33301 16 6 59.333 14 130c-6.66699 -2.66699 -13 -2.33398 -19 0.999023c-42.667 -14.667 -73.334 -24.667 -92.001 -30c-25.333 -6.66699 -46 -10.667 -62 -12c-10.667 -0.666992 -19.667 0 -27 2c-12 2.66699 -20.667 8.33398 -26 17.001
c-6.66699 10 -6.66699 22.667 0 38c4 10 10.667 21.333 20 34c16 20.667 39 46 69 76c36 35.333 72.333 67.666 109 96.999c0 2.66699 0.666992 14.834 2 36.501s2.33301 35.5 3 41.5l4 38c2 19.333 4.33301 34 7 44l10 37c4 15.333 9 29 15 41s12.667 23.333 20 34
c10 15.333 16.667 24.333 20 27c9.33301 7.33301 19.333 9.66602 30 6.99902c9.33301 -2 18 -8.66699 26 -20c1.33301 -1.33301 2.33301 -3 3 -5c0 -0.666992 0.333008 -1.66699 1 -3c0.666992 -2 1.66699 -4.66699 3 -8l6 -21c6.66699 -21.333 10.667 -33.666 12 -36.999
c11.333 -30 23 -57.667 35 -83c1.33301 -0.666992 2.66602 -1.66699 3.99902 -3c5.33301 -4.66699 7.66602 -10.667 6.99902 -18c4.66699 -9.33301 9.66699 -18.333 15 -27c3.33301 4.66699 7.83301 7.5 13.5 8.5s10.834 -0.166992 15.501 -3.5c4 -2.66699 6.66699 -6 8 -10
h1z" />
    <glyph glyph-name="plus" unicode="+" horiz-adv-x="685" 
d="M210 351c2 5.33301 7.33105 21.999 15.998 49.999c7.33301 22.667 14 41.334 20 56.001c4 11.333 15.667 36.666 35 75.999c12 24.667 20.667 45 26 61c-9.33301 8 -19 15 -29 21c-6 -17.333 -16.333 -40.666 -31 -69.999c-14.667 -30.667 -25 -54 -31 -70
c-2 -5.33301 -5.66699 -9.33301 -11 -12s-10.666 -3 -15.999 -1s-9.33301 5.66699 -12 11s-3 10.666 -1 15.999c6 16.667 17.333 41.667 34 75c14.667 29.333 24.667 52.666 30 69.999c0 0.666992 0.333008 1 1 1l-3 1c-25.333 10.667 -44.666 12.334 -57.999 5.00098
c-16.667 -9.33301 -26 -32.666 -28 -69.999c-2 -35.333 2 -70.333 12 -105c10.667 -34 26 -72.333 46 -115zM399.998 563.999c2.66699 0 5 -0.333984 7 -1.00098s3.66699 -1.33398 5 -2.00098c22.667 24.667 46 45.334 70 62.001
c54.667 36.667 107.334 47.334 158.001 32.001c14 -4 24.667 -10.333 32 -19s12 -20 14 -34c3.33301 -30 -5.33398 -76.333 -26.001 -139c-20.667 -58.667 -47.334 -119.667 -80.001 -183c-35.333 -67.333 -70.666 -122.333 -105.999 -165
c-42.667 -51.333 -81.667 -78.333 -117 -81c-36.667 -2.66699 -66.667 22.333 -90 75c-6.66699 14 -13.667 32.667 -21 56c-8 23.333 -12.667 37.333 -14 42c-7.33301 17.333 -20 44.5 -38 81.5s-32.5 68 -43.5 93s-21 55.333 -30 91s-12.5 69.167 -10.5 100.5
c3.33301 53.333 19.666 88.333 48.999 105c25.333 14 57 13 95 -3c26.667 -10.667 52.667 -26.334 78 -47.001c26.667 -21.333 49.334 -42.666 68.001 -63.999zM624.998 561.998c-21.333 -43.333 -61.002 -110.668 -119.002 -202.001
c-55.333 -86.667 -94.333 -153.667 -117 -201c-5.33301 -10.667 -13.333 -14.334 -24 -11.001c-9.33301 -16 -17 -39 -23 -69v-1c4 -1.33301 8.33301 -2 13 -2c15.333 1.33301 34.333 12.333 57 33c-2.66699 6 -2.66699 12 0 18c56 115.333 100.667 202 134 260
c2.66699 5.33301 6.83398 8.83301 12.501 10.5s10.834 0.833984 15.501 -2.49902c4.66699 -2.66699 8 -6 10 -10c14 32 26 62.667 36 92c18.667 56.667 26.667 96.334 24 119.001c-0.666992 6 -2 10.167 -4 12.5s-6 4.5 -12 6.5c-38.667 11.333 -79.667 2.33301 -123 -27
c-34 -23.333 -66.667 -57 -98 -101c-2 -2.66699 -4.33301 -5 -7 -7l-38 -76c-31.333 -60.667 -52 -102.667 -62 -126c-2 -5.33301 -5.66699 -9.16602 -11 -11.499s-10.666 -2.33301 -15.999 0s-9.16602 6.16602 -11.499 11.499s-2.16602 10.666 0.500977 15.999
c8.66699 23.333 29.667 66.666 63 129.999c22.667 43.333 39 78.333 49 105c-8.66699 11.333 -19.667 23.333 -33 36c-4.66699 -12.667 -12.334 -29.667 -23.001 -51c-18 -36.667 -29.333 -61 -34 -73l-18 -52c-8.66699 -29.333 -14.334 -48 -17.001 -56
c-4 -11.333 -11.667 -16 -23 -14c20.667 -43.333 35.334 -75.333 44.001 -96c2 -4 7.33301 -19 16 -45c7.33301 -22 13.666 -39.333 18.999 -52l3 -7c8.66699 31.333 24 60 46 86c4 4 9 6.33301 15 7c16.667 32.667 50.667 89.334 102 170.001
c54 84.667 92.667 150.667 116 198c2.66699 5.33301 6.66699 9 12 11s10.666 1.66699 15.999 -1s9 -6.66699 11 -12s1.66699 -10.666 -1 -15.999zM560.996 568.996l-25 -29c-5.33301 -6 -8.66602 -9.66699 -9.99902 -11
c-0.666992 -1.33301 -8.33398 -14.666 -23.001 -39.999c-5.33301 -8.66699 -13 -11.667 -23 -9l-126 -264c-2.66699 -5.33301 -6.66699 -9 -12 -11s-10.666 -1.66699 -15.999 1s-9 6.66699 -11 12s-1.66699 10.666 1 15.999c53.333 116 101 215 143 297
c5.33301 10 13.666 13.333 24.999 10l8 13c2 2.66699 6 7.33398 12 14.001l25 29c4 4 8.83301 6.33301 14.5 7s10.667 -1 15 -5s6.83301 -8.83301 7.5 -14.5s-1 -10.834 -5 -15.501z" />
    <glyph glyph-name="comma" unicode="," horiz-adv-x="138" 
d="M139 82c-2 -14.667 -3.50488 -24.8301 -4.50488 -30.4971s-3 -15.167 -6 -28.5s-6.33301 -23.333 -10 -30s-8.66699 -14.667 -15 -24s-14.166 -17 -23.499 -23c-9.33301 -6.66699 -20.333 -12.334 -33 -17.001c-5.33301 -2 -10.666 -1.66699 -15.999 1s-9 6.66699 -11 12
s-1.66699 10.666 1 15.999s6.66699 9 12 11c22.667 8 37.667 20.333 45 37c8 16.667 14.333 44 19 82c0.666992 5.33301 3.33398 9.83301 8.00098 13.5s9.83398 5.16699 15.501 4.5s10.334 -3.33398 14.001 -8.00098s5.16699 -10 4.5 -16z" />
    <glyph glyph-name="hyphen" unicode="-" horiz-adv-x="247" 
d="M82 365c10 -1.33301 52.668 -3.33496 128.001 -6.00195c8.66699 0 14.334 -0.333008 17.001 -1h1h1c1.33301 0 2.66602 -0.333008 3.99902 -1c2 0 4 -0.666992 6 -2c3.33301 -2.66699 5.66602 -6 6.99902 -10c3.33301 -7.33301 2.66602 -14 -2.00098 -20
c-1.33301 -2 -2.83301 -3.66699 -4.5 -5s-3.16699 -2 -4.5 -2l-2 -1h-3c-1.33301 -0.666992 -3 -1 -5 -1h-15h-22c-22 0 -40 -0.333008 -54 -1c-18 -0.666992 -28.667 -1.33398 -32 -2.00098c-10.667 -3.33301 -18.667 0 -24 10h-2
c-5.33301 0.666992 -9.83301 3.33398 -13.5 8.00098s-5.16699 9.83398 -4.5 15.501s3.33398 10.334 8.00098 14.001s10 5.16699 16 4.5z" />
    <glyph glyph-name="period" unicode="." horiz-adv-x="246" 
d="M150 13c-4 -4 -8.83008 -5.66797 -14.4971 -5.00098s-10.5 3 -14.5 7c-2 2.66699 -3.33301 5.33398 -4 8.00098l-17 8c-12 6 -22 9.66699 -30 11c-6.66699 1.33301 -12.667 2.33301 -18 3c6 -4.66699 12.667 -9.33398 20 -14.001c26 -16.667 52.667 -30.667 80 -42
c13.333 -5.33301 24.333 -9 33 -11c1.33301 0 2.66602 -0.333008 3.99902 -1c2 4.66699 4 10.334 6 17.001c6 20 9.33301 36.333 10 49c0.666992 4.66699 0.666992 8.66699 0 12c-0.666992 0 -1.33398 -0.333008 -2.00098 -1c-7.33301 -3.33301 -17 -10.333 -29 -21l-10 -8
c-2.66699 -6.66699 -7.33398 -10.667 -14.001 -12zM139.003 58.999l6.99902 6c14.667 12.667 27.667 21.667 39 27c14 6.66699 26.333 8.33398 37 5.00098c11.333 -4.66699 19 -13.667 23 -27c2 -8 2.66699 -17.667 2 -29c-0.666992 -17.333 -4.66699 -37 -12 -59
c-2.66699 -8.66699 -5.33398 -16.334 -8.00098 -23.001c-1.33301 -3.33301 -2.33301 -6 -3 -8c-1.33301 -1.33301 -2.33301 -2.66602 -3 -3.99902c-2 -2.66699 -4.33301 -5 -7 -7c-8.66699 -5.33301 -21 -6.33301 -37 -3c-11.333 2 -24.666 6.33301 -39.999 13
c-30.667 12 -60 27 -88 45c-14 9.33301 -25.333 18 -34 26c-12 11.333 -18.667 21.666 -20 30.999c-1.33301 10 1.66699 18.333 9 25c4.66699 4.66699 11.334 7.66699 20.001 9c12 2 29.333 1.33301 52 -2c12.667 -2 27 -7 43 -15z" />
    <glyph glyph-name="slash" unicode="/" horiz-adv-x="295" 
d="M135 166c-13.333 -49.333 -24.333 -95.998 -33 -139.998c-1.33301 -6 -4.5 -10.5 -9.5 -13.5s-10.333 -4 -16 -3s-10 4 -13 9s-4.16699 10.167 -3.5 15.5c6 29.333 12.667 58.666 20 87.999s15.833 60.666 25.5 93.999l24.5 82l29 92l27 84c4 13.333 12.333 33.333 25 60
l23 77c1.33301 2.66699 3.33301 9 6 19l7 22c2.66699 8.66699 5 14.667 7 18c1.33301 2.66699 3 5 5 7c8.66699 8.66699 18 9.33398 28 2.00098c4.66699 -3.33301 7.66699 -8.33301 9 -15v-6c0 -22.667 -10 -57 -30 -103l-16 -36l-5 -15l-97 -324
c-2 -6.66699 -6.33301 -11.334 -13 -14.001z" />
    <glyph glyph-name="zero" unicode="0" horiz-adv-x="377" 
d="M166 631c2 4.66699 5.16895 7.99902 9.50195 9.99902s8.83301 3.66699 13.5 5c11.333 6.66699 23.333 12.334 36 17.001c5.33301 2 10.666 1.66699 15.999 -1s9 -6.66699 11 -12c0.666992 -2.66699 1 -5.66699 1 -9c14 -6 27.667 -15.667 41 -29
c28.667 -28 49.667 -61.667 63 -101c10 -29.333 16.667 -69.333 20 -120s2.33301 -103 -3 -157c-6.66699 -58.667 -18.334 -108 -35.001 -148c-20.667 -50 -48 -82.667 -82 -98c-42 -19.333 -83.667 -4 -125 46c-27.333 32.667 -48 69.667 -62 111
c-13.333 39.333 -21.333 84.5 -24 135.5s1 102.167 11 153.5c18.667 90 55 155.667 109 197zM205.002 606.999c-53.333 -33.333 -89.001 -93.9971 -107.001 -181.997c-9.33301 -48 -12.833 -95.5 -10.5 -142.5s9.83301 -88.167 22.5 -123.5
c12.667 -36.667 30.667 -69.334 54 -98.001c28 -33.333 53 -45 75 -35c24.667 11.333 45 36.666 61 75.999c15.333 37.333 26 83 32 137c5.33301 52 6.5 101.5 3.5 148.5s-9.16699 83.5 -18.5 109.5c-11.333 33.333 -28.666 61.666 -51.999 84.999
c-21.333 20.667 -41.333 29 -60 25z" />
    <glyph glyph-name="one" unicode="1" horiz-adv-x="365" 
d="M330 620c-4.66699 -76 -0.999023 -172.003 11.001 -288.003c1.33301 -16 4.66602 -40.5 9.99902 -73.5s9 -57.5 11 -73.5c7.33301 -64 5.66602 -115.667 -5.00098 -155c-1.33301 -5.33301 -4.5 -9.5 -9.5 -12.5s-10.333 -3.66699 -16 -2s-10 5 -13 10
s-3.5 10.5 -1.5 16.5c9.33301 33.333 10.333 79.333 3 138c-2 16 -5.5 40.667 -10.5 74s-8.5 58 -10.5 74c-12 118 -15.667 216 -11 294c0.666992 6 3.16699 10.833 7.5 14.5s9.33301 5.33398 15 5.00098s10.334 -2.66602 14.001 -6.99902s5.5 -9.16602 5.5 -14.499z" />
    <glyph glyph-name="two" unicode="2" horiz-adv-x="495" 
d="M328 292c-26.667 -0.666992 -51.665 -8.83301 -74.998 -24.5s-42.666 -35.834 -57.999 -60.501c-22.667 -35.333 -32.334 -68.666 -29.001 -99.999c2.66699 -27.333 17.667 -43.333 45 -48c19.333 -3.33301 36.666 6.66699 51.999 30
c9.33301 14.667 20.666 41.667 33.999 81c12 33.333 22.333 74 31 122zM107.002 608.001c4 2 10.3389 6.00195 19.0059 12.002l26 18c8.66699 5.33301 16.667 9.66602 24 12.999c23.333 10 46.166 13.833 68.499 11.5s43.5 -9.16602 63.5 -20.499c32 -18 54 -50.667 66 -98
c9.33301 -38 12.666 -84.333 9.99902 -139c-1.33301 -24 -4 -49.667 -8 -77c18 -4.66699 35.667 -12 53 -22c9.33301 -5.33301 17 -10.333 23 -15s12.833 -11.5 20.5 -20.5s12.834 -19.167 15.501 -30.5c3.33301 -10.667 5.66602 -23.167 6.99902 -37.5s2 -26.333 2 -36
s-0.166992 -22.834 -0.5 -39.501s-0.5 -27.667 -0.5 -33c0 -6 -2 -11 -6 -15s-9 -6 -15 -6s-11 2 -15 6s-6 9 -6 15c0 7.33301 0.166992 19 0.5 35s0.5 28.333 0.5 37s-0.666992 19 -2 31s-3 23 -5 33c-3.33301 12.667 -17 26 -41 40c-12 7.33301 -24.667 13 -38 17
c-8.66699 -50.667 -19.334 -94.334 -32.001 -131.001c-15.333 -43.333 -28.333 -73 -39 -89c-25.333 -39.333 -57 -56 -95 -50c-23.333 4 -41.833 13.833 -55.5 29.5s-21.5 34.5 -23.5 56.5c-4 40.667 7.66699 82.667 35 126c20 31.333 45.333 57 76 77s64 29.667 100 29
c3.33301 25.333 5.66602 49.333 6.99902 72c2.66699 50.667 -0.333008 93 -9 127c-8.66699 36 -23.667 60 -45 72c-33.333 18.667 -64.666 21 -93.999 7c-6.66699 -3.33301 -13.334 -7 -20.001 -11s-14.334 -9 -23.001 -15l-22 -15
c-4.66699 -2.66699 -9.83398 -3.5 -15.501 -2.5s-10 4 -13 9s-4 10.333 -3 16s4.16699 10.167 9.5 13.5z" />
    <glyph glyph-name="three" unicode="3" horiz-adv-x="522" 
d="M374 357c-16.667 4 -32.999 4.33398 -48.999 1.00098c-22 -4 -45 -14.667 -69 -32c-23.333 -16.667 -32.333 -30.667 -27 -42c3.33301 -8 9.33301 -12.333 18 -13c10.667 -0.666992 24.334 2.66602 41.001 9.99902c15.333 7.33301 30.166 16.5 44.499 27.5
s24.166 20.167 29.499 27.5c4 6 8 13 12 21zM156.001 646.001l13.9971 7l14 7c2 1.33301 6.66699 3.66602 14 6.99902s12.5 5.5 15.5 6.5s8 2.83301 15 5.5s12.5 4.33398 16.5 5.00098s9.16699 1.66699 15.5 3s12.166 2.16602 17.499 2.49902s11.166 0.5 17.499 0.5
s12.5 -0.333008 18.5 -1c40.667 -4.66699 71.334 -22.667 92.001 -54s32.667 -68.666 36 -111.999c4 -48.667 -1 -96 -15 -142c34.667 -20.667 60.834 -50.667 78.501 -90s22.834 -78.666 15.501 -117.999c-10.667 -52 -38.5 -96.833 -83.5 -134.5
s-93.833 -61.5 -146.5 -71.5c-22.667 -4 -38 -6 -46 -6c-23.333 -1.33301 -42 2.66699 -56 12c-24.667 16.667 -36 48.334 -34 95.001c0.666992 24 5.33398 53 14.001 87c1.33301 6 4.5 10.333 9.5 13s10.333 3.33398 16 2.00098s9.83398 -4.5 12.501 -9.5
s3.33398 -10.167 2.00098 -15.5c-7.33301 -30.667 -11.333 -57 -12 -79c-1.33301 -30.667 4 -50.334 16 -59.001c6 -4 15.667 -5.66699 29 -5c6.66699 0.666992 20.334 3 41.001 7c46 8 88.333 28 127 60c38 32 61 69.333 69 112c6 30.667 2.33301 60.667 -11 90
c-12.667 29.333 -31.334 52.333 -56.001 69c-4.66699 -10.667 -10 -20 -16 -28c-7.33301 -10.667 -19.666 -22.834 -36.999 -36.501s-35.333 -24.5 -54 -32.5c-22.667 -10.667 -43 -15.334 -61 -14.001c-25.333 2 -43 14.333 -53 37c-14.667 33.333 -1 65 41 95
c28.667 20.667 57 33.667 85 39c24.667 4.66699 48.334 3.66699 71.001 -3c11.333 40.667 15.333 81.334 12 122.001c-2.66699 37.333 -11.667 67.166 -27 89.499s-36.333 35.166 -63 38.499c-16 2 -32.333 1 -49 -3s-29.334 -8 -38.001 -12s-25 -12 -49 -24
c-4.66699 -2.66699 -9.83398 -3 -15.501 -1s-9.83398 5.5 -12.501 10.5s-3 10.333 -1 16s5.66699 9.83398 11 12.501z" />
    <glyph glyph-name="four" unicode="4" horiz-adv-x="499" 
d="M438 576c4.66699 -48 6.99805 -109.004 6.99805 -183.004c0 -97.333 0.333008 -151.666 1 -162.999c12.667 -4 26.667 -9.66699 42 -17c5.33301 -2 9 -5.83301 11 -11.5s1.83301 -11.167 -0.5 -16.5s-6.33301 -9 -12 -11s-11.167 -1.66699 -16.5 1
c-8 4 -15.667 7.33301 -23 10c1.33301 -23.333 3.83301 -63 7.5 -119s5.83398 -99 6.50098 -129c0 -6 -2 -11.167 -6 -15.5s-8.83301 -6.5 -14.5 -6.5s-10.667 2 -15 6s-6.5 8.66699 -6.5 14c-0.666992 30.667 -3 75.334 -7 134.001s-6.66699 101.667 -8 129
c-4.66699 0.666992 -9.66699 1.33398 -15 2.00098s-20.333 1 -45 1c-33.333 0.666992 -57.666 1.33398 -72.999 2.00098c-29.333 0.666992 -53 3 -71 7c-12 2.66699 -21.667 6 -29 10c-11.333 6 -18 14.333 -20 25c-1.33301 4.66699 -1.33301 10.667 0 18l5 15
c4 10 9.66699 23 17 39l55 105c58.667 107.333 90.334 168 95.001 182c2 5.33301 5.66699 9.33301 11 12s10.666 3 15.999 1s9.33301 -5.66699 12 -11s3 -10.666 1 -15.999c-4.66699 -11.333 -37.334 -74 -98.001 -188c-24.667 -46 -42.667 -80.667 -54 -104
c-7.33301 -14.667 -12.666 -26.334 -15.999 -35.001c-0.666992 -2.66699 -1.33398 -5 -2.00098 -7c4 -2 9.33301 -3.66699 16 -5c14.667 -3.33301 35.667 -5.33301 63 -6c15.333 -0.666992 39.333 -1.33398 72 -2.00098c26.667 0 43.667 -0.333008 51 -1
c2.66699 -0.666992 5.33398 -1 8.00098 -1v152c0 72.667 -2.33301 132.334 -7 179.001c-0.666992 6 0.833008 11.167 4.5 15.5s8.5 6.83301 14.5 7.5s11.167 -0.833008 15.5 -4.5s6.83301 -8.5 7.5 -14.5z" />
    <glyph glyph-name="five" unicode="5" horiz-adv-x="417" 
d="M310 622c-11.333 -2 -29.5049 -3.16895 -54.5049 -3.50195s-39.5 -0.5 -43.5 -0.5c-33.333 -2.66699 -56.666 -11.667 -69.999 -27c-3.33301 -4.66699 -6.33301 -17.667 -9 -39c-2 -20 -3 -46 -3 -78c0 -35.333 1.33301 -75.333 4 -120
c10 9.33301 26.667 19.666 50 30.999c22.667 11.333 46.834 17.333 72.501 18s50.5 -4.66602 74.5 -15.999s43 -28.666 57 -51.999c26 -46 35.667 -89.667 29 -131s-26 -76.333 -58 -105s-69.833 -45.167 -113.5 -49.5s-89.167 6.5 -136.5 32.5
c-4.66699 2.66699 -7.66699 6.83398 -9 12.501s-0.666016 11 2.00098 16s6.83398 8.16699 12.501 9.5s11.167 0.666016 16.5 -2.00098c39.333 -21.333 76.166 -30.333 110.499 -27s63.833 16.333 88.5 39c25.333 22.667 40.5 49.667 45.5 81s-2.83301 65.333 -23.5 102
c-14.667 24 -36.667 39.167 -66 45.5s-57.333 2.5 -84 -11.5c-15.333 -7.33301 -25.166 -12.5 -29.499 -15.5s-12.166 -10.167 -23.499 -21.5c-0.666992 -0.666992 -2 -3 -4 -7c-8.66699 -13.333 -19.334 -18.333 -32.001 -15c-14 3.33301 -20.667 13.333 -20 30
c0 1.33301 0.333008 4 1 8v2c-4 54.667 -6 103.334 -6 146.001c0 33.333 1 61 3 83c3.33301 29.333 9.66602 49.333 18.999 60c20.667 25.333 53.667 39.333 99 42c10.667 0.666992 26.334 1 47.001 1c20.667 0.666992 36 2 46 4c6 0.666992 11.333 -0.666016 16 -3.99902
s7.5 -7.83301 8.5 -13.5s-0.166992 -10.834 -3.5 -15.501s-7.66602 -7.66699 -12.999 -9z" />
    <glyph glyph-name="six" unicode="6" horiz-adv-x="532" 
d="M246 48c37.333 -15.333 81.666 -7.00098 132.999 24.999c32 19.333 58.5 43.333 79.5 72s31.833 55.334 32.5 80.001c0.666992 25.333 -12.333 47.333 -39 66c-27.333 18 -53.666 22 -78.999 12c-30 -12.667 -59.333 -50.667 -88 -114
c-23.333 -52.667 -36.333 -99.667 -39 -141zM164 614.999c-20 -108.667 -28.668 -204.334 -26.001 -287.001c3.33301 -112 26.666 -195 69.999 -249c6.66699 41.333 19.667 83.666 39 126.999c32.667 73.333 69.334 118.333 110.001 135c21.333 8 42 10.333 62 7
s38.833 -10.833 56.5 -22.5s31.834 -26.5 42.501 -44.5s15.667 -37.333 15 -58c-1.33301 -33.333 -14.666 -67.166 -39.999 -101.499s-55.666 -62.5 -90.999 -84.5c-24.667 -15.333 -49.334 -26.166 -74.001 -32.499s-50.334 -6.66602 -77.001 -0.999023
s-49.667 19.167 -69 40.5c-53.333 60.667 -82 155 -86 283c-2.66699 86 6 184.667 26 296c1.33301 5.33301 4.33301 9.66602 9 12.999s9.83398 4.5 15.501 3.5s10.167 -3.83301 13.5 -8.5s4.66602 -10 3.99902 -16z" />
    <glyph glyph-name="seven" unicode="7" horiz-adv-x="359" 
d="M81 642c6 0 22.999 1.33301 50.999 4c35.333 3.33301 61.333 5.66602 78 6.99902c31.333 2 56.666 2.33301 75.999 1c12 -0.666992 22 -2 30 -4c12.667 -4 21.334 -9.66699 26.001 -17c6 -8.66699 10.333 -24 13 -46c2 -18 3.66699 -41.333 5 -70
c0.666992 -46.667 -0.333008 -110 -3 -190c-1.33301 -42 -3 -85.667 -5 -131l-7 -128c-2 -38 -3.33301 -62.333 -4 -73c0 -6 -2.16699 -10.833 -6.5 -14.5s-9.5 -5.5 -15.5 -5.5s-10.833 2.16699 -14.5 6.5s-5.5 9.5 -5.5 15.5c0.666992 10.667 2 35 4 73l7 128
c2 46 3.66699 89.333 5 130c2.66699 79.333 3.66699 142 3 188c-1.33301 27.333 -3 49.333 -5 66c-1.33301 12.667 -3 21.334 -5 26.001c-0.666992 0.666992 -1.66699 1 -3 1c-5.33301 1.33301 -12.666 2.33301 -21.999 3c-17.333 1.33301 -40.666 1 -69.999 -1
c-8.66699 -0.666992 -34.334 -3 -77.001 -7c-28.667 -2.66699 -47 -4 -55 -4c-6 0 -11 2 -15 6s-6 9 -6 15s2 11 6 15s9 6 15 6z" />
    <glyph glyph-name="eight" unicode="8" horiz-adv-x="511" 
d="M182 717c-20.667 -30 -37.332 -70.001 -49.999 -120.001c-13.333 -49.333 -18.333 -97.666 -15 -144.999c3.33301 -50.667 16 -90.667 38 -120c24 -32 59 -48.667 105 -50c55.333 -1.33301 104.333 21.334 147 68.001c24 26 41 55 51 87c10.667 32 14.5 62.333 11.5 91
s-11.167 55 -24.5 79c-10 17.333 -22.333 31.833 -37 43.5s-31.334 20.167 -50.001 25.5s-39.834 6 -63.501 2s-48.5 -13.333 -74.5 -28c-4.66699 -3.33301 -9.83398 -4.16602 -15.501 -2.49902s-10 5 -13 10s-3.66699 10.333 -2 16s5.16699 9.83398 10.5 12.501
c30 17.333 59.667 28.5 89 33.5s55.833 4.16699 79.5 -2.5s45.167 -17.667 64.5 -33s35.333 -34 48 -56c16.667 -29.333 26.834 -61.333 30.501 -96s-0.666016 -70.667 -12.999 -108s-32.166 -71.333 -59.499 -102c-14.667 -16 -31 -30 -49 -42
c28 -5.33301 51.333 -15.333 70 -30c31.333 -24 46.666 -57 45.999 -99c-0.666992 -36 -13.5 -70.667 -38.5 -104s-55.5 -55 -91.5 -65c-45.333 -12.667 -83 -8 -113 14c-26 19.333 -41.667 47.666 -47 84.999c-4.66699 32.667 -0.166992 64.834 13.5 96.501
s35.167 53.167 64.5 64.5c-12 -1.33301 -24 -2 -36 -2c-58.667 1.33301 -104.334 23.666 -137.001 66.999c-26.667 35.333 -42 82.666 -46 141.999c-3.33301 51.333 2 104.333 16 159s33 99 57 133c3.33301 4.66699 7.83301 7.5 13.5 8.5s10.834 -0.166992 15.501 -3.5
s7.5 -7.83301 8.5 -13.5s-0.166992 -10.834 -3.5 -15.501zM315.002 204.999c-20 -6 -35.4971 -20.5 -46.4971 -43.5s-14.5 -47.833 -10.5 -74.5c4 -26 14 -45 30 -57c19.333 -14 44.666 -16.667 75.999 -8c27.333 8 50.666 24.833 69.999 50.5s29.333 52.167 30 79.5
s-9.33301 49 -30 65c-24.667 19.333 -62.334 27.666 -113.001 24.999c4 -2.66699 6.66699 -6.33398 8 -11.001c2 -5.33301 1.5 -10.666 -1.5 -15.999s-7.16699 -8.66602 -12.5 -9.99902z" />
    <glyph glyph-name="nine" unicode="9" horiz-adv-x="410" 
d="M344 291c-5.33301 90 -10.332 157.668 -14.999 203.001c-3.33301 36 -5.33301 61.667 -6 77c-1.33301 20 -2 36.333 -2 49c0 7.33301 0.333008 13.666 1 18.999c0.666992 3.33301 1.66699 6.33301 3 9c-38 1.33301 -75.667 -12.667 -113 -42
c-37.333 -28.667 -69 -66.667 -95 -114c-28 -52 -41 -100.667 -39 -146c1.33301 -46 19 -79 53 -99c36 -21.333 75.667 -28 119 -20s74.666 29.333 93.999 64zM369.001 650.001c1.33301 -3.33301 2.00293 -7.33203 2.00293 -11.999c0 -2.66699 0.166992 -5 0.5 -7
s0.333008 -3 0 -3s-0.166016 -0.666992 0.500977 -2l11 -57c10.667 -60.667 17 -108.334 19 -143.001c3.33301 -66 -2 -114 -16 -144l2 -37c6.66699 -104 14.334 -187.667 23.001 -251c0.666992 -6 -0.833008 -11.333 -4.5 -16s-8.33398 -7.33398 -14.001 -8.00098
s-10.834 0.833008 -15.501 4.5s-7.33398 8.16699 -8.00098 13.5c-8.66699 62.667 -16 143 -22 241c-30.667 -28 -69 -43.333 -115 -46s-86.333 6.66602 -121 27.999c-48 27.333 -73 72 -75 134c-2 52.667 12.667 108.334 44 167.001s72 105.334 122 140.001
c51.333 35.333 103.666 46.333 156.999 33c5.33301 -1.33301 9.5 -4.33301 12.5 -9s3.83301 -10 2.5 -16c-0.666992 -4 -2.33398 -7.33301 -5.00098 -10z" />
    <glyph glyph-name="colon" unicode=":" horiz-adv-x="219" 
d="M178 394c1.33301 5.33301 1 11.333 -1 18c0 -7.33301 0.333008 -13.333 1 -18zM174 461c10 6 18.999 4.33398 26.999 -4.99902c14.667 -21.333 21.167 -42.833 19.5 -64.5s-10.5 -36.834 -26.5 -45.501c-10 -6 -20 -7 -30 -3c-9.33301 4 -16.333 11.333 -21 22
c-8 18.667 -9.66699 46.667 -5 84c0.666992 5.33301 3.33398 9.83301 8.00098 13.5s10 5.16699 16 4.5c4.66699 -0.666992 8.66699 -2.66699 12 -6zM152.999 84.001c9.33301 14 13.334 25.332 12.001 33.999c-0.666992 7.33301 -7 20.333 -19 39
c-2.66699 4.66699 -3.5 9.83398 -2.5 15.501s4 10 9 13s10.333 4 16 3s10.167 -4.16699 13.5 -9.5c14.667 -23.333 23 -42 25 -56c2 -18.667 -4.66699 -39.667 -20 -63c-2.66699 -4.66699 -6.83398 -7.5 -12.501 -8.5s-11 0 -16 3s-8 7.33301 -9 13
s0.166992 11.167 3.5 16.5z" />
    <glyph glyph-name="semicolon" unicode=";" horiz-adv-x="198" 
d="M131 407c8.66699 10.667 13.001 16.998 13.001 18.998c0 1.33301 -3.33301 6.66602 -10 15.999c-4 4.66699 -5.66699 9.83398 -5 15.501s3.33398 10.167 8.00098 13.5c4.66699 4 10 5.66699 16 5c0.666992 0.666992 1.66699 1.33398 3 2.00098
c4.66699 2.66699 9.83398 3.5 15.501 2.5s10.167 -4.16699 13.5 -9.5l8 -11c4 -6 6.33301 -11.667 7 -17s-1 -11.333 -5 -18l-6 -12c-2 -4 -5 -7.33301 -9 -10c-2.66699 -4.66699 -7.66699 -12 -15 -22c-4 -4.66699 -8.83301 -7.33398 -14.5 -8.00098
s-10.834 0.833008 -15.501 4.5s-7.33398 8.33398 -8.00098 14.001s0.666016 10.834 3.99902 15.501zM178.001 135.998c2.66699 -42.667 2.66504 -70.9912 -0.00195312 -84.9912c-6.66699 -36.667 -26 -61.334 -58 -74.001
c-5.33301 -2.66699 -10.666 -2.83398 -15.999 -0.500977s-9.16602 6.16602 -11.499 11.499s-2.33301 10.666 0 15.999s6.16602 9 11.499 11c18 7.33301 29 21.666 33 42.999c1.33301 11.333 1 36.666 -1 75.999c0 5.33301 1.83301 10.166 5.5 14.499
s8.33398 6.66602 14.001 6.99902s10.667 -1.33398 15 -5.00098s6.83301 -8.5 7.5 -14.5z" />
    <glyph glyph-name="less" unicode="&#x3c;" horiz-adv-x="570" 
d="M229 297l6.99805 -1.00293c8.66699 -2 43.334 -9.33301 104.001 -22c115.333 -24 187.666 -41.333 216.999 -52c5.33301 -2 9.33301 -5.66699 12 -11s3 -10.666 1 -15.999s-5.66699 -9.33301 -11 -12s-10.666 -3 -15.999 -1c-31.333 11.333 -101.666 28.333 -210.999 51
l-105 22c-15.333 3.33301 -26.666 6 -33.999 8c-4.66699 1.33301 -8.33398 2.33301 -11.001 3s-4.66699 1.66699 -6 3c-4.66699 2 -8 5.33301 -10 10c-4 9.33301 -3.33301 18 2 26c2.66699 4 6.66699 7.33301 12 10c1.33301 1.33301 4 3 8 5l3 1
c62.667 50 150.334 97.333 263.001 142c5.33301 2 10.666 1.83301 15.999 -0.5s9.16602 -6.16602 11.499 -11.499s2.33301 -10.666 0 -15.999s-6.16602 -9.33301 -11.499 -12c-102.667 -40 -183 -82 -241 -126z" />
    <glyph glyph-name="equal" unicode="=" horiz-adv-x="535" 
d="M164 186c30 1.33301 88 6 174 14c78.667 7.33301 137.667 11 177 11c6 0 11 -2 15 -6s6 -9 6 -15s-2 -11 -6 -15s-9 -6 -15 -6c-43.333 0 -101 -3.33301 -173 -10c-100 -9.33301 -158.667 -14.333 -176 -15c-6 0 -11.167 1.83301 -15.5 5.5s-6.5 8.5 -6.5 14.5
s1.83301 11.167 5.5 15.5s8.5 6.5 14.5 6.5zM222 301c44 -0.666992 70.834 -1 80.501 -1s36.667 1 81 3s71.166 3.33301 80.499 4c6 0 11.167 -2 15.5 -6s6.5 -8.83301 6.5 -14.5s-2 -10.667 -6 -15s-8.66699 -6.5 -14 -6.5c-8.66699 0 -36 -1.16699 -82 -3.5
s-73.333 -3.33301 -82 -3s-36 0.5 -82 0.5c-6 0 -10.833 2.16699 -14.5 6.5s-5.5 9.5 -5.5 15.5s2.16699 10.833 6.5 14.5s9.5 5.5 15.5 5.5z" />
    <glyph glyph-name="greater" unicode="&#x3e;" horiz-adv-x="553" 
d="M255 485c11.333 -5.33301 61.002 -19.002 149.002 -41.002l89 -22c12.667 -4 22.667 -7 30 -9c4 -1.33301 7.33301 -2.33301 10 -3c2 -1.33301 3.66699 -2.33301 5 -3c3.33301 -2 6 -4.33301 8 -7c10.667 -15.333 11.667 -30.666 3 -45.999
c-7.33301 -12.667 -27.333 -30.334 -60 -53.001c-23.333 -16 -56.333 -36.667 -99 -62l-53 -31l-53 -31l-38 -23c-13.333 -8.66699 -23.333 -15.667 -30 -21c-4.66699 -3.33301 -9.83398 -4.66602 -15.501 -3.99902s-10.334 3.33398 -14.001 8.00098
s-5.16699 9.83398 -4.5 15.501s3.33398 10.5 8.00098 14.5c7.33301 5.33301 18 12.333 32 21l41 26l53 31l52 30c40.667 24.667 73 45 97 61s39.333 28.333 46 37h-1c-6 2 -15.333 4.66699 -28 8l-88 22c-92 23.333 -144.333 38 -157 44c-5.33301 2.66699 -9 6.66699 -11 12
s-1.66699 10.666 1 15.999s6.66699 9 12 11s10.666 1.66699 15.999 -1z" />
    <glyph glyph-name="question" unicode="?" horiz-adv-x="560" 
d="M172 723c30 30 64.835 52.3359 104.502 67.0029s78.5 19.667 116.5 15c41.333 -5.33301 76.666 -21.5 105.999 -48.5s48.333 -64.5 57 -112.5c20 -113.333 -11.333 -200.333 -94 -261c-40 -30 -84.667 -48 -134 -54c-4 -0.666992 -9.33301 -0.333984 -16 0.999023v-11
c0 -0.666992 2.33301 -11.334 7 -32.001c0.666992 -5.33301 -0.5 -10.5 -3.5 -15.5s-7.33301 -8 -13 -9s-11 0 -16 3s-8.16699 7.5 -9.5 13.5c-4 22 -6.33301 34 -7 36c-2 24.667 4.66699 42 20 52c6.66699 4 15 5.66699 25 5c2 -0.666992 4 -1 6 -1h1
c42.667 5.33301 81.334 20.666 116.001 45.999c67.333 50 92.666 123 75.999 219c-6.66699 38.667 -21.334 68.667 -44.001 90c-22.667 20.667 -50 33 -82 37c-31.333 4 -63.833 -0.166992 -97.5 -12.5s-63.167 -31.5 -88.5 -57.5c-4 -4 -9 -6 -15 -6s-11 2 -15 6
s-6 9 -6 15s2 11 6 15zM346.002 110.003c0 -6 -2 -11 -6 -15s-9 -6 -15 -6s-11 2 -15 6s-6 9 -6 15s2 11 6 15s9 6 15 6s11 -2 15 -6s6 -9 6 -15z" />
    <glyph glyph-name="at" unicode="@" horiz-adv-x="692" 
d="M316 395c-3.33301 3.33301 -10.667 7.66797 -22 13.001c-4.66699 2 -11.334 4.66699 -20.001 8s-13.667 5.33301 -15 6c-5.33301 2 -9.16602 5.66699 -11.499 11s-2.16602 10.666 0.500977 15.999c1.33301 3.33301 3.33301 6.33301 6 9c-12 6 -23 11 -33 15
c-11.333 4 -20.333 6.33301 -27 7c0.666992 -3.33301 2 -7 4 -11c9.33301 -24.667 36.666 -57.334 81.999 -98.001l30 -27c0.666992 4.66699 1.66699 12.334 3 23.001c1.33301 10 2.33301 17 3 21v7zM357.999 391.002l33.001 40c14.667 17.333 27.667 30.333 39 39
c6.66699 6 13 10.667 19 14l2 1c-8 6.66699 -17.333 9.66699 -28 9c-24 -1.33301 -49 -19.666 -75 -54.999c-2 -2 -4.33301 -3.66699 -7 -5l-2 -4c5.33301 -4.66699 9.66602 -9.33398 12.999 -14.001c4 -6 6 -14.333 6 -25zM459 393.002l-9 -20
c-16 -36 -25.667 -59.667 -29 -71v-1c32 38.667 49 77.667 51 117l-10 -19zM378 226.002c-29.333 5.33301 -51.1631 9.50293 -65.4961 12.5029s-33.833 9.16699 -58.5 18.5s-45.667 20.333 -63 33c-38.667 28 -68.334 63 -89.001 105c-20 42 -29 85 -27 129
c2 45.333 16.667 85.833 44 121.5s66.666 61.167 117.999 76.5c58 17.333 117.667 17.333 179 0c62 -16.667 116.333 -46 163 -88c31.333 -28 56.666 -59.333 75.999 -94s31.666 -72.667 36.999 -114s0 -83 -16 -125c-27.333 -75.333 -86 -147.333 -176 -216
c-4.66699 -3.33301 -9.83398 -4.66602 -15.501 -3.99902s-10.334 3.33398 -14.001 8.00098s-5.16699 9.83398 -4.5 15.501s3.33398 10.5 8.00098 14.5c83.333 63.333 137.333 128.666 162 195.999c13.333 36 18 71.667 14 107c-4 34.667 -14.5 67.167 -31.5 97.5
s-39.5 58.166 -67.5 83.499c-42 37.333 -90.333 63.5 -145 78.5s-107 15.167 -157 0.5c-42.667 -12.667 -75 -33.334 -97 -62.001s-33.667 -61.334 -35 -98.001c-2 -36.667 5.83301 -72.834 23.5 -108.501s42.5 -65.5 74.5 -89.5c25.333 -18.667 59.666 -33 102.999 -43
l-66 58c-50.667 45.333 -82 83.333 -94 114c-5.33301 14.667 -7.33301 27 -6 37c2.66699 14 10.334 23.667 23.001 29c14 5.33301 34.333 3 61 -7s54 -24.333 82 -43c32.667 42.667 66.667 65 102 67c18 1.33301 34.167 -2.66699 48.5 -12s25.5 -22.333 33.5 -39
c7.33301 -16 11.333 -34 12 -54s-2.16602 -40.833 -8.49902 -62.5s-17.333 -44.334 -33 -68.001s-35.167 -45.834 -58.5 -66.501c-6 -4.66699 -12.667 -6 -20 -4c-4.66699 -3.33301 -10 -4.66602 -16 -3.99902zM381.003 314.005c3.33301 12.667 13.667 38.333 31 77l-48 -59
l-1 -1c-2 -4 -3 -6.33301 -3 -7c-2.66699 -4.66699 -5.66699 -8 -9 -10c-1.33301 -1.33301 -2.66602 -2.33301 -3.99902 -3c17.333 -15.333 30.666 -29 39.999 -41l2 -2c7.33301 6.66699 14.333 13.667 21 21c-4.66699 -2 -9.66699 -2.33301 -15 -1s-9.5 4.5 -12.5 9.5
s-3.5 10.5 -1.5 16.5z" />
    <glyph glyph-name="A" unicode="A" horiz-adv-x="351" 
d="M306 212c-50 -1.33301 -85.3311 -13.334 -105.998 -36.001c-16.667 -19.333 -21.667 -43.333 -15 -72c6.66699 -28 20.667 -49.333 42 -64c20 -13.333 40 -13.666 60 -0.999023c3.33301 2 6.66602 8.33301 9.99902 19c3.33301 11.333 5.66602 26.333 6.99902 45
c0.666992 13.333 1 30.333 1 51v40zM100.002 659.999c67.333 34 122.337 34.999 165.004 2.99902c34.667 -26 59 -72.333 73 -139c2 -12 4 -24.667 6 -38s3.5 -27.333 4.5 -42s1.83301 -28 2.5 -40s1 -26 1 -42v-39c0 -10 -0.333008 -23 -1 -39s-1 -27.167 -1 -33.5
s-0.5 -17.166 -1.5 -32.499s-1.5 -24 -1.5 -26v-38c0 -21.333 -0.333008 -39 -1 -53c-1.33301 -22 -4.33301 -40 -9 -54c-6 -20.667 -15.333 -35.334 -28 -44.001c-34.667 -22 -70 -21 -106 3c-30.667 20 -50.334 49.667 -59.001 89c-10 42.667 -1.66699 78.667 25 108
c28.667 32.667 75 49.667 139 51c5.33301 112 1.33301 199 -12 261c-11.333 56.667 -30 94.667 -56 114c-28.667 21.333 -69.334 19 -122.001 -7c-4.66699 -2.66699 -9.83398 -3 -15.501 -1s-9.83398 5.5 -12.501 10.5s-3 10.333 -1 16s5.66699 9.83398 11 12.501z" />
    <glyph glyph-name="B" unicode="B" horiz-adv-x="492" 
d="M116 349c4 -46.667 7.00098 -88.6689 9.00098 -126.002c0 -4.66699 0.333008 -18.167 1 -40.5s1 -39.5 1 -51.5c0.666992 -22 1.66699 -39.333 3 -52c0.666992 -14 1.66699 -22 3 -24c2.66699 -5.33301 8 -7.66602 16 -6.99902c11.333 1.33301 26.333 7.33301 45 18
c23.333 14 49.666 34 78.999 60c48 42.667 91 99 129 169c43.333 80 58.666 144.333 45.999 193c-2.66699 8.66699 -8.66699 17.834 -18 27.501s-19.666 17.167 -30.999 22.5c-52 26.667 -108.333 14.667 -169 -36c-48 -40.667 -86 -91.667 -114 -153zM74.001 355.998
c-2 19.333 -6.00195 63.002 -12.002 131.002s-10.333 120.667 -13 158c-0.666992 5.33301 1 10.166 5 14.499s8.83301 6.83301 14.5 7.5s10.667 -1 15 -5s6.83301 -9 7.5 -15c2 -31.333 8.33301 -105.333 19 -222c27.333 43.333 58.333 79.666 93 108.999
c74.667 63.333 146.667 77.333 216 42c14.667 -8 28.834 -18.833 42.501 -32.5s22.5 -28.834 26.5 -45.501c16 -58.667 -0.333008 -133 -49 -223c-40 -74 -86 -134.333 -138 -181c-31.333 -28 -60 -49.333 -86 -64c-24 -14 -44.667 -22 -62 -24
c-27.333 -2.66699 -46.666 7.66602 -57.999 30.999c-3.33301 6.66699 -5.66602 19.334 -6.99902 38.001c-1.33301 14 -2.33301 32 -3 54c0 12.667 -0.333008 29.834 -1 51.501s-1 35.167 -1 40.5c-2 34 -4.66699 71.333 -8 112
c-4.66699 6.66699 -5.33398 13.667 -2.00098 21z" />
    <glyph glyph-name="C" unicode="C" 
d="M313 93c-59.333 14 -109.331 40.667 -149.998 80s-68.334 86.333 -83.001 141s-14.334 111.667 0.999023 171c16 64.667 46.667 119.667 92 165c55.333 55.333 115 74 179 56c5.33301 -1.33301 9.5 -4.5 12.5 -9.5s3.66699 -10.333 2 -16s-5 -10 -10 -13
s-10.5 -3.5 -16.5 -1.5c-47.333 13.333 -93 -2 -137 -46c-40 -40 -67.333 -88.333 -82 -145c-19.333 -79.333 -10 -151.333 28 -216s96 -106.667 174 -126c5.33301 -1.33301 9.5 -4.5 12.5 -9.5s3.83301 -10.167 2.5 -15.5s-4.5 -9.5 -9.5 -12.5
s-10.167 -3.83301 -15.5 -2.5z" />
    <glyph glyph-name="D" unicode="D" horiz-adv-x="398" 
d="M346 25l-1 4c-2 8 -4.33301 18.667 -7 32l-5 31c-2 12.667 -3.33301 19.334 -4 20.001c0 2.66699 -2.33301 15.667 -7 39l-11 63c-3.33301 18 -8.33301 40.833 -15 68.5s-13.667 52.834 -21 75.501c-17.333 53.333 -36 91.666 -56 114.999
c-10 11.333 -19.833 18.333 -29.5 21s-20.167 1 -31.5 -5c-24 -13.333 -41.667 -50.333 -53 -111c-12 -62.667 -10.667 -126.334 4 -191.001c16 -70 43.667 -119.333 83 -148c40.667 -29.333 92 -34 154 -14zM369 683
c-0.666992 -21.333 -0.667969 -37.1689 -0.000976562 -47.502s2 -26.166 4 -47.499s3.33301 -38.666 4 -51.999c1.33301 -32.667 4.33301 -81.334 9 -146.001c5.33301 -65.333 8.66602 -117.666 9.99902 -156.999c0.666992 -17.333 1.33398 -41 2.00098 -71
c0 -31.333 0.333008 -54 1 -68v-7v-15c0 -7.33301 -0.333008 -13.666 -1 -18.999c-0.666992 -11.333 -1.33398 -20.333 -2.00098 -27c0.666992 -0.666992 1 -1.66699 1 -3c2.66699 -5.33301 2.83398 -10.666 0.500977 -15.999s-6.16602 -9 -11.499 -11
c-87.333 -36.667 -160.333 -33.667 -219 9c-48.667 35.333 -81.667 93 -99 173c-15.333 69.333 -16.666 138.666 -3.99902 207.999c13.333 73.333 38 119.666 74 138.999c21.333 12 42 15 62 9c18 -4.66699 35 -16 51 -34c23.333 -27.333 44.666 -70.333 63.999 -129
c14 -44.667 27.333 -98.667 40 -162c-0.666992 8 -1 15.333 -1 22c-1.33301 36.667 -4.5 89 -9.5 157s-8.16699 116.667 -9.5 146c-0.666992 10 -2 26.167 -4 48.5s-3.33301 39.5 -4 51.5s-0.666992 29.667 0 53c0.666992 5.33301 3.16699 10 7.5 14s9.33301 5.66699 15 5
s10.5 -3.16699 14.5 -7.5s5.66699 -9.5 5 -15.5z" />
    <glyph glyph-name="E" unicode="E" horiz-adv-x="435" 
d="M71 333c55.333 -10.667 105.5 -6.16797 150.5 13.499s77.833 53.834 98.5 102.501c15.333 38 22 78.333 20 121c-2 48 -17.667 78 -47 90c-26 10 -55.333 2 -88 -24c-28.667 -24 -51.667 -53 -69 -87c-34 -68 -55.667 -140 -65 -216zM67 290.999
c-2 -49.333 3.6709 -91.333 17.0039 -126c8.66699 -24 23.667 -42.5 45 -55.5s46 -20.167 74 -21.5c26.667 -0.666992 52.834 4.16602 78.501 14.499s46.167 24.833 61.5 43.5c20 25.333 37.333 65.333 52 120c1.33301 6 4.5 10.5 9.5 13.5s10.333 3.66699 16 2
s10 -5 13 -10s3.5 -10.167 1.5 -15.5c-15.333 -60.667 -35.333 -106 -60 -136c-19.333 -24.667 -44.833 -43.5 -76.5 -56.5s-64.167 -18.833 -97.5 -17.5c-34.667 2 -66.334 11.667 -95.001 29s-49.334 42.666 -62.001 75.999c-16 40 -22.333 86.333 -19 139
s11.5 102.334 24.5 149.001s29.167 89.334 48.5 128.001c20 40 47 73.667 81 101c45.333 37.333 88.666 47.333 129.999 30c45.333 -18 69.666 -60 72.999 -126c2.66699 -48.667 -5.33301 -95 -24 -139c-16 -40 -40 -72 -72 -96s-66.333 -39.5 -103 -46.5
s-75.334 -6.83301 -116.001 0.5z" />
    <glyph glyph-name="F" unicode="F" horiz-adv-x="276" 
d="M120 390c4 -30 8.83105 -63.332 14.498 -99.999s10.834 -67.334 15.501 -92.001l19 -99l16 -84c0.666992 -6 -0.666016 -11.333 -3.99902 -16s-7.83301 -7.5 -13.5 -8.5s-10.834 0.166992 -15.501 3.5s-7.66699 7.66602 -9 12.999l-15 83l-19 99
c-4.66699 25.333 -10 56.666 -16 93.999s-10.667 71.333 -14 102l-20 -2c-5.33301 -0.666992 -10.333 0.833008 -15 4.5s-7.33398 8.33398 -8.00098 14.001s0.833008 10.834 4.5 15.501s8.5 7.33398 14.5 8.00098l19 2c-6.66699 76 -7.33398 140.667 -2.00098 194
c3.33301 33.333 14.833 63.333 34.5 90s41.834 43.667 66.501 51c30 9.33301 55 3.33301 75 -18c19.333 -21.333 29 -55 29 -101c0 -6 -2 -11 -6 -15s-9 -6 -15 -6s-11 2 -15 6s-6 9 -6 15c0 35.333 -6 59.333 -18 72c-8 8.66699 -18.333 11 -31 7
c-16.667 -4.66699 -32.167 -16.834 -46.5 -36.501s-22.833 -42.5 -25.5 -68.5c-5.33301 -51.333 -4.66602 -113 2.00098 -185c8 1.33301 15.333 2.66602 22 3.99902c6 0.666992 11.333 -0.666016 16 -3.99902s7.5 -7.83301 8.5 -13.5s-0.166992 -10.834 -3.5 -15.501
s-7.66602 -7.66699 -12.999 -9c-8 -1.33301 -16.667 -2.66602 -26 -3.99902z" />
    <glyph glyph-name="G" unicode="G" 
d="M312 414c-7.33301 94 -14.334 165.666 -21.001 214.999c-43.333 12.667 -78.833 11 -106.5 -5s-44.167 -38.333 -49.5 -67c-6 -30 1 -59 21 -87c20.667 -27.333 54.334 -45.666 101.001 -54.999c22.667 -4.66699 41 -5 55 -1zM285.999 673.999
c2 7.33301 6.66602 12 13.999 14c6 2 11.5 1.5 16.5 -1.5s8.16699 -7.16699 9.5 -12.5c7.33301 -26 16.333 -108.667 27 -248c4 -1.33301 7 -3.66602 9 -6.99902c3.33301 -4.66699 4.5 -9.83398 3.5 -15.501s-3.83301 -10.167 -8.5 -13.5l-1 -1l1 -11
c4.66699 -72.667 7.66699 -133 9 -181c1.33301 -27.333 1.66602 -49 0.999023 -65c-0.666992 -8.66699 -1.33398 -16 -2.00098 -22c-0.666992 -8 -2.33398 -14 -5.00098 -18c-7.33301 -14 -20.666 -25.333 -39.999 -34c-10.667 -4.66699 -24.667 -9 -42 -13
c-41.333 -10.667 -77.333 -7.66699 -108 9s-54.667 42 -72 76c-14.667 30 -23.5 64 -26.5 102s0.166992 72.333 9.5 103c1.33301 5.33301 4.5 9.5 9.5 12.5s10.333 3.66699 16 2s10 -5 13 -10s3.5 -10.5 1.5 -16.5c-8 -26 -10.667 -55.333 -8 -88
s10.334 -61.334 23.001 -86.001c28 -57.333 72 -78.666 132 -63.999c15.333 4 27 7.66699 35 11c10 4.66699 16.667 9.66699 20 15c0 1.33301 0.333008 2.66602 1 3.99902c0 4.66699 0.333008 11 1 19c0.666992 14.667 0.333984 35 -0.999023 61
c-1.33301 47.333 -4.33301 106 -9 176c-18 -3.33301 -40 -2.66602 -66 2.00098c-57.333 12 -99.666 36.5 -126.999 73.5s-37 76.5 -29 118.5c8 39.333 29.5 70 64.5 92s77.833 27.667 128.5 17z" />
    <glyph glyph-name="H" unicode="H" horiz-adv-x="273" 
d="M94 764c3.33301 -58.667 7.16602 -143.497 11.499 -254.497s7.83301 -191.833 10.5 -242.5c0 -1.33301 0.333008 -10.5 1 -27.5s1.33398 -32.167 2.00098 -45.5c7.33301 8 16 14.333 26 19c35.333 16.667 66 12.667 92 -12c18 -17.333 30.333 -42.666 37 -75.999
c0.666992 -6 -0.5 -11.333 -3.5 -16s-7.5 -7.5 -13.5 -8.5s-11.333 0 -16 3s-7.66699 7.5 -9 13.5c-4.66699 24.667 -13 42.667 -25 54c-11.333 11.333 -26 12.666 -44 3.99902c-20 -9.33301 -30 -36.333 -30 -81v-2c0 -1.33301 0.166992 -3 0.5 -5s0.833008 -4 1.5 -6
c0.666992 -5.33301 0.666992 -9.66602 0 -12.999c-2 -10 -8 -16 -18 -18c-7.33301 -0.666992 -14 1.66602 -20 6.99902c-2.66699 3.33301 -5 7.33301 -7 12c-0.666992 2.66699 -1.33398 5.66699 -2.00098 9c-1.33301 6 -2.66602 13.667 -3.99902 23
c-1.33301 15.333 -3 36 -5 62c-0.666992 13.333 -1.33398 27.5 -2.00098 42.5s-1.33398 28.167 -2.00098 39.5s-1 18 -1 20c-2.66699 50.667 -6.16699 131.5 -10.5 242.5s-8.16602 195.833 -11.499 254.5c0 5.33301 1.83301 10.166 5.5 14.499
s8.33398 6.66602 14.001 6.99902s10.667 -1.33398 15 -5.00098s6.83301 -8.5 7.5 -14.5z" />
    <glyph glyph-name="I" unicode="I" horiz-adv-x="220" 
d="M153 559c14 -154 25 -319.667 33 -497c0 -6 -1.83301 -11.167 -5.5 -15.5s-8.5 -6.5 -14.5 -6.5s-11.167 1.83301 -15.5 5.5s-6.5 8.5 -6.5 14.5c-8 177.333 -19 342.333 -33 495c-0.666992 6 0.833008 11.167 4.5 15.5s8.5 6.83301 14.5 7.5s11.167 -0.833008 15.5 -4.5
s6.83301 -8.5 7.5 -14.5zM79 748c10.667 -9.33301 20.999 -12.001 30.999 -8.00098c10.667 4.66699 19.334 14.334 26.001 29.001c6.66699 15.333 8 29 4 41c-4 11.333 -13.667 18.333 -29 21c-24 4 -46.667 -3.66699 -68 -23c-12.667 -11.333 -21.334 -23.333 -26.001 -36
c-6.66699 -19.333 -5.66699 -35.666 3 -48.999c8 -13.333 22.333 -23.666 43 -30.999c21.333 -8 43.833 -11.333 67.5 -10s43.167 6.66602 58.5 15.999c4.66699 2.66699 9.83398 3.33398 15.501 2.00098s10 -4.33301 13 -9s3.83301 -9.83398 2.5 -15.501
s-4.33301 -10.167 -9 -13.5c-21.333 -12.667 -47.5 -19.834 -78.5 -21.501s-58.833 2.16602 -83.5 11.499c-29.333 10.667 -51 26.667 -65 48c-16 25.333 -18.333 54 -7 86c7.33301 20 20 38 38 54c31.333 28 65.333 39 102 33c32.667 -5.33301 53.667 -21.666 63 -48.999
c7.33301 -22.667 5.5 -46.5 -5.5 -71.5s-27.167 -42.167 -48.5 -51.5c-26.667 -10.667 -51.667 -5 -75 17c-4.66699 4 -7 8.83301 -7 14.5s2 10.667 6 15s8.83301 6.5 14.5 6.5s10.5 -2 14.5 -6z" />
    <glyph glyph-name="J" unicode="J" horiz-adv-x="285" 
d="M213 730c34 -212 55.334 -381 64.001 -507c0 -1.33301 1.16699 -13.5 3.5 -36.5s3.83301 -41.833 4.5 -56.5c1.33301 -22.667 1.33301 -41.334 0 -56.001c-1.33301 -22 -5.66602 -37.333 -12.999 -46c-13.333 -16.667 -29.666 -25.334 -48.999 -26.001
c-15.333 -0.666992 -31.333 4 -48 14c-21.333 12 -43 30.667 -65 56c-34.667 40.667 -59.834 92 -75.501 154s-16.834 118.667 -3.50098 170c1.33301 6 4.5 10.5 9.5 13.5s10.333 3.66699 16 2s10 -5 13 -10s3.5 -10.167 1.5 -15.5c-11.333 -44.667 -10 -94.667 4 -150
s36.333 -100.666 67 -135.999c18.667 -22.667 36.667 -38.667 54 -48c10 -6 18.333 -8.66699 25 -8c7.33301 0 13.666 3.33301 18.999 10c1.33301 2 2.66602 9.66699 3.99902 23c0.666992 12.667 0.333984 29.334 -0.999023 50.001
c-0.666992 15.333 -2.16699 34.333 -4.5 57s-3.5 35 -3.5 37c-8.66699 124 -30 291.667 -64 503c-0.666992 5.33301 0.666016 10.333 3.99902 15s7.83301 7.5 13.5 8.5s10.834 -0.166992 15.501 -3.5s7.66699 -8 9 -14z" />
    <glyph glyph-name="K" unicode="K" horiz-adv-x="345" 
d="M139 162l-7.00293 -10.0029c0.666992 -45.333 1 -92.333 1 -141c0 -6 -2 -11 -6 -15s-9 -6 -15 -6s-11 2 -15 6s-6 9 -6 15c0 34.667 -0.333008 68 -1 100c-3.33301 0.666992 -6.33301 2 -9 4c-4.66699 3.33301 -7.5 7.83301 -8.5 13.5s0.166992 10.834 3.5 15.501l14 20
c-4 169.333 -14 324 -30 464c-0.666992 5.33301 0.833008 10.333 4.5 15s8.33398 7.33398 14.001 8.00098s10.834 -0.833008 15.501 -4.5s7.33398 -8.5 8.00098 -14.5c14 -125.333 23.333 -260.666 28 -405.999l49 80c49.333 82.667 83 138 101 166
c3.33301 5.33301 7.83301 8.5 13.5 9.5s11 0 16 -3s8 -7.33301 9 -13s0.166992 -10.834 -2.5 -15.501l-101 -165l-53 -87l72 -23c41.333 -13.333 74.666 -26 99.999 -38c5.33301 -2.66699 9 -6.66699 11 -12s1.66699 -10.666 -1 -15.999s-6.66699 -9 -12 -11
s-10.666 -1.66699 -15.999 1c-24 10.667 -55.667 22.667 -95 36c-48 15.333 -75.333 24.333 -82 27z" />
    <glyph glyph-name="L" unicode="L" horiz-adv-x="305" 
d="M110 629c6 -55.333 11.8252 -135.502 17.4922 -240.502s9.16699 -166.833 10.5 -185.5c0 -2 0.333008 -12.167 1 -30.5s1.66699 -33.166 3 -44.499c0.666992 -17.333 2 -31 4 -41c0.666992 -5.33301 1.66699 -9.66602 3 -12.999
c0 -0.666992 0.333008 -1.33398 1 -2.00098c8.66699 -7.33301 27 -9.66602 55 -6.99902c10.667 1.33301 24.334 3.66602 41.001 6.99902c20 4 32 6.33301 36 7c6 0.666992 11.333 -0.666016 16 -3.99902s7.33398 -8 8.00098 -14s-0.666016 -11.333 -3.99902 -16
s-8 -7.33398 -14 -8.00098c-3.33301 0 -14.666 -2 -33.999 -6c-18 -3.33301 -32.667 -5.66602 -44 -6.99902c-42.667 -4.66699 -73 1.66602 -91 18.999c-4 4 -7.33301 10 -10 18c-1.33301 4 -2.66602 10.333 -3.99902 19c-2 12 -3.66699 27 -5 45
c-1.33301 12 -2.33301 27 -3 45s-1 28.333 -1 31c-1.33301 18 -4.83301 79.333 -10.5 184s-11.5 184.667 -17.5 240c-0.666992 5.33301 0.833008 10.333 4.5 15s8.33398 7.33398 14.001 8.00098s10.834 -0.833008 15.501 -4.5s7.33398 -8.5 8.00098 -14.5z" />
    <glyph glyph-name="M" unicode="M" horiz-adv-x="559" 
d="M325 38c2 12 3.66602 27.333 4.99902 46c0.666992 14.667 1 30.5 1 47.5s-0.166992 33.5 -0.5 49.5s-0.5 25 -0.5 27c0 81.333 -4.33301 156.333 -13 225c-5.33301 42.667 -12 78 -20 106c-11.333 -19.333 -19.666 -42.333 -24.999 -69c-12 -54.667 -12.333 -129 -1 -223
c11.333 -94.667 29 -164 53 -208zM26.999 630c0 -2 9.66309 -66.6738 28.9961 -194.007l7 -49c10 59.333 26.333 111 49 155c16.667 30.667 36.334 56.667 59.001 78c36.667 34.667 71.667 44.334 105 29.001c12.667 -6 24 -16.667 34 -32c8.66699 6 17.667 11 27 15
c38.667 16.667 76.334 7.33398 113.001 -27.999c20 -18.667 41.333 -48.667 64 -90c24.667 -45.333 39.667 -124.666 45 -237.999c5.33301 -111.333 -0.666992 -192 -18 -242c-2 -5.33301 -5.66699 -9.33301 -11 -12s-10.666 -3 -15.999 -1s-9.33301 5.66699 -12 11
s-3 10.666 -1 15.999c15.333 44.667 20.666 120 15.999 226c-5.33301 108.667 -18.333 182 -39 220c-20.667 36.667 -39.667 63.334 -57 80.001c-23.333 22.667 -46 29.334 -68 20.001c-8.66699 -4 -16.667 -9.33301 -24 -16c1.33301 -3.33301 2.66602 -7 3.99902 -11
c10.667 -33.333 19.334 -76 26.001 -128c8.66699 -70.667 13 -147.667 13 -231c0 -2 0.166992 -11.333 0.5 -28s0.5 -33.667 0.5 -51s-0.333008 -33.333 -1 -48c-2 -30 -5.33301 -52.667 -10 -68c-4 -12 -9 -20.667 -15 -26c-11.333 -9.33301 -23.666 -10.333 -36.999 -3
c-8 4 -14 11.667 -18 23c-0.666992 2 -1.33398 3.66699 -2.00098 5s-1 2.33301 -1 3s-0.166992 1.33398 -0.5 2.00098s-0.5 1.33398 -0.5 2.00098c-27.333 48.667 -47 123 -59 223c-12 98.667 -11.667 177.334 1 236.001c10 44.667 26.333 81 49 109
c-7.33301 12.667 -14.333 20.667 -21 24c-16 7.33301 -35.333 0.333008 -58 -21c-19.333 -18.667 -36 -41.334 -50 -68.001c-42 -79.333 -60.667 -196 -56 -350c0 -4.66699 0.333008 -10.834 1 -18.501s1.66699 -16.834 3 -27.501s2.33301 -20 3 -28
c1.33301 -17.333 2 -32 2 -44c0 -16 -1.66699 -28.333 -5 -37c-0.666992 -2 -1.66699 -4 -3 -6c-3.33301 -4 -7.33301 -6.66699 -12 -8c-7.33301 -1.33301 -13.666 0.333984 -18.999 5.00098c-2 2 -3.66699 4.33301 -5 7c-2 2.66699 -3.33301 6.33398 -4 11.001
c-0.666992 2 -1.16699 4.83301 -1.5 8.5s-0.833008 6.16699 -1.5 7.5c-2 12.667 -4.66699 32.667 -8 60c-0.666992 6.66699 -3.33398 51.667 -8.00098 135c-2.66699 46 -10 110.333 -22 193c-18.667 127.333 -28.334 192 -29.001 194c-0.666992 6 0.833008 11.333 4.5 16
s8.33398 7.33398 14.001 8.00098s10.834 -0.833008 15.501 -4.5s7.33398 -8.16699 8.00098 -13.5z" />
    <glyph glyph-name="N" unicode="N" horiz-adv-x="320" 
d="M116 610c25.333 -43.333 54.668 -110.67 88.001 -202.003l55 -150c5.33301 -12 12 -29 20 -51c0.666992 18 0.666992 32 0 42c-0.666992 10.667 -2.66699 40.334 -6 89.001l-7 104c-1.33301 20.667 -2.66602 49.334 -3.99902 86.001s-2 69.667 -2 99c0 6 2 11 6 15
s9 6 15 6s11 -2 15 -6s6 -9 6 -15c0 -29.333 0.666992 -62.166 2 -98.499s2.66602 -64.833 3.99902 -85.5s3.66602 -54.667 6.99902 -102s5.33301 -77.333 6 -90c1.33301 -17.333 1 -40 -1 -68c-1.33301 -16.667 -3 -30.334 -5 -41.001
c-1.33301 -7.33301 -3.33301 -13 -6 -17c-4.66699 -10 -11.667 -15.667 -21 -17c-6.66699 -0.666992 -12.334 1.33301 -17.001 6c-1.33301 0.666992 -2.33301 1.66699 -3 3c-0.666992 0.666992 -1.33398 1.66699 -2.00098 3v1l-1 1l-1 3l-4 10l-11 32
c-12 33.333 -21.333 58.333 -28 75c-10.667 24.667 -29 73.334 -55 146.001s-48 127.334 -66 164.001c0.666992 -38 4.66699 -102.333 12 -193c8.66699 -106 13 -186 13 -240c0 -6 -2 -11 -6 -15s-9 -6 -15 -6s-11 2 -15 6s-6 9 -6 15c0 51.333 -4.33301 130.333 -13 237
s-13 186.667 -13 240c0 6 2 11 6 15s9 6 15 6c2 0 4 -0.333008 6 -1l4 2c4.66699 3.33301 9.83398 4.16602 15.501 2.49902s9.83398 -5.16699 12.501 -10.5z" />
    <glyph glyph-name="O" unicode="O" horiz-adv-x="263" 
d="M133 656c-0.666992 -0.666992 -1.66895 -1.33398 -3.00195 -2.00098l-9 -6l-8 -6l-7 -6c-3.33301 -2 -5.66602 -3.66699 -6.99902 -5l-5 -5c-2 -2 -3.5 -4 -4.5 -6s-2.16699 -4 -3.5 -6c-18 -41.333 -22.667 -103.666 -14 -186.999
c2.66699 -22 5.83398 -44.5 9.50098 -67.5s8 -48.5 13 -76.5s8.5 -46.333 10.5 -55c6 -37.333 14.667 -66.333 26 -87c14 -26 31.333 -36.667 52 -32c15.333 2.66699 26 16.667 32 42c4 16 6.33301 42 7 78c2 108.667 -1.66699 194.667 -11 258c-8 52.667 -20 94 -36 124
c-12 22 -26 37 -42 45zM115.998 704c40 -4.66699 72 -29.001 96 -73.001c18 -34 31.333 -80 40 -138c10 -65.333 14 -153.333 12 -264c-0.666992 -40 -3.33398 -69.333 -8.00098 -88c-10.667 -42.667 -32.334 -67.334 -65.001 -74.001c-40.667 -8 -73 10 -97 54
c-13.333 24.667 -23.666 57.667 -30.999 99c-1.33301 8.66699 -4.66602 27.334 -9.99902 56.001s-9.83301 54.834 -13.5 78.501s-6.83398 46.5 -9.50098 68.5c-9.33301 90 -3.33301 159 18 207c7.33301 17.333 22.333 34 45 50v5c0.666992 6 3.33398 10.833 8.00098 14.5
s9.66699 5.16699 15 4.5z" />
    <glyph glyph-name="P" unicode="P" horiz-adv-x="429" 
d="M145 158c14.667 -1.33301 32.665 -0.000976562 53.998 3.99902c64.667 11.333 112.834 35 144.501 71s46.834 75 45.501 117c-2 41.333 -19 76.333 -51 105s-74.667 42 -128 40c-20 -0.666992 -35.333 -2.33398 -46 -5.00098c-10 -2 -20 -6.33301 -30 -13
c2 -15.333 3.33301 -31.666 4 -48.999s1 -36 1 -56v-46l3 -92c1.33301 -39.333 2.33301 -64.666 3 -75.999zM117.998 515.999c20 12.667 50.002 19.667 90.002 21c65.333 2.66699 118 -14.333 158 -51c40.667 -36 62 -80.667 64 -134
c2.66699 -54 -15.333 -102.833 -54 -146.5s-95 -72.167 -169 -85.5c-23.333 -4 -43.666 -5.33301 -60.999 -4c2.66699 -82.667 4 -153.334 4 -212.001c0 -6 -2 -11 -6 -15s-9 -6 -15 -6s-11 2 -15 6s-6 9 -6 15c0 60.667 -1.33301 133.667 -4 219
c-15.333 5.33301 -29.666 13 -42.999 23c-4.66699 3.33301 -7.5 7.83301 -8.5 13.5s0.166992 10.834 3.5 15.501s7.83301 7.5 13.5 8.5s10.834 -0.166992 15.501 -3.5l17 -11c0 12 -0.333008 28.333 -1 49s-1.33398 39.667 -2.00098 57s-1.33398 33.666 -2.00098 48.999
c-0.666992 12 -0.833984 30.333 -0.500977 55s0 45.834 -1 63.501s-3.16699 34.5 -6.5 50.5c-0.666992 6 0.666016 11.333 3.99902 16s7.66602 7.66699 12.999 9c4 0.666992 8 0 12 -2z" />
    <glyph glyph-name="Q" unicode="Q" horiz-adv-x="376" 
d="M281 149c-6.66699 10.667 -15.498 25.8311 -26.498 45.498s-19.167 33.5 -24.5 41.5c-2.66699 4.66699 -3.5 9.83398 -2.5 15.501s4 10 9 13s10.333 4 16 3s10.167 -4.16699 13.5 -9.5c5.33301 -8 17.333 -28.667 36 -62c3.33301 8.66699 6.33301 17.667 9 27
c17.333 60 25.666 125.667 24.999 197c-1.33301 76 -12.333 138.333 -33 187c-22 50.667 -52 78 -90 82c-22 2 -41 -1.66699 -57 -11c1.33301 -7.33301 -1 -13.666 -7 -18.999c-42.667 -40.667 -65.334 -107.334 -68.001 -200.001c-1.33301 -41.333 2 -81 10 -119
c8 -39.333 19.333 -72.666 34 -99.999c16 -30.667 36.333 -59.667 61 -87c15.333 -16.667 29 -28.334 41 -35.001c10 -5.33301 17.667 -6.66602 23 -3.99902c10.667 6 21 17.667 31 35zM119.002 705.997c17.333 10.667 33 17.9971 47 21.9971s31 5 51 3
c54.667 -5.33301 96.334 -41.333 125.001 -108c22.667 -53.333 34.667 -120.666 36 -201.999c0.666992 -76 -8.33301 -146 -27 -210c-6 -22 -13 -41.667 -21 -59c9.33301 -14 19 -25.667 29 -35c4.66699 -4 7 -8.83301 7 -14.5s-2 -10.667 -6 -15s-8.83301 -6.5 -14.5 -6.5
s-10.5 2 -14.5 6c-8 7.33301 -16 15.666 -24 24.999c-11.333 -15.333 -23.666 -26.666 -36.999 -33.999c-18.667 -10.667 -40 -9.33398 -64 3.99902c-16 8.66699 -33 23 -51 43c-27.333 30.667 -50 62.334 -68 95.001c-16 30.667 -28.333 67.334 -37 110.001
c-8.66699 43.333 -12.334 87 -11.001 131c2.66699 96.667 27 169.667 73 219c-4.66699 10.667 -2.33398 19.334 6.99902 26.001z" />
    <glyph glyph-name="R" unicode="R" horiz-adv-x="345" 
d="M89 456c-5.33301 45.333 -12 87.332 -20 125.999c-0.666992 6 0.5 11.333 3.5 16s7.5 7.5 13.5 8.5s11.333 0 16 -3s7.66699 -7.5 9 -13.5c4.66699 -25.333 9 -52.333 13 -81c45.333 50.667 111.666 80.334 198.999 89.001c6 0.666992 11.167 -0.833008 15.5 -4.5
s6.83301 -8.5 7.5 -14.5s-0.833008 -11.167 -4.5 -15.5s-8.5 -6.83301 -14.5 -7.5c-91.333 -8.66699 -155.333 -43 -192 -103l-3 -6c3.33301 -27.333 11 -125.666 23 -294.999l6 -84l3 -39v-13v-5v-3c-0.666992 -1.33301 -1 -2.66602 -1 -3.99902
c-2 -4.66699 -5.33301 -8.33398 -10 -11.001c-12.667 -7.33301 -25 -5 -37 7c-5.33301 5.33301 -10.666 13 -15.999 23c-4 7.33301 -9 18.666 -15 33.999c-23.333 56 -35.333 113.333 -36 172c-1.33301 96 12 171.667 40 227zM118 87.999l-5 60
c-0.666992 14 -2.66699 44.667 -6 92s-6 84 -8 110c-6 -34.667 -8.66699 -75 -8 -121c0.666992 -48.667 9.66699 -95.667 27 -141z" />
    <glyph glyph-name="S" unicode="S" horiz-adv-x="372" 
d="M305 591c-26 28.667 -51.665 42.6689 -76.998 42.002c-22 0 -42.667 -11.333 -62 -34c-20 -22 -34.667 -50.333 -44 -85c-9.33301 -34 -11 -65.667 -5 -95c4 -20 14.5 -38 31.5 -54s41.833 -34.333 74.5 -55c2.66699 -1.33301 6.33398 -3.66602 11.001 -6.99902
c22.667 -14 40.167 -25.5 52.5 -34.5s26.666 -21.667 42.999 -38s28.166 -33.166 35.499 -50.499c9.33301 -24.667 10.833 -47 4.5 -67s-18.5 -37.333 -36.5 -52c-16.667 -13.333 -35.834 -22.333 -57.501 -27s-43.167 -3.66699 -64.5 3c-5.33301 2 -9.33301 5.66699 -12 11
s-3 10.666 -1 15.999s5.66699 9.33301 11 12s10.666 3 15.999 1c13.333 -4.66699 27.333 -5.5 42 -2.5s27.667 9.5 39 19.5c25.333 20 32.333 43.333 21 70c-6 13.333 -16.5 27.166 -31.5 41.499s-28.167 25.166 -39.5 32.499l-55 36l-41 28
c-10 6.66699 -21.833 16 -35.5 28s-24.5 24.667 -32.5 38s-13.667 27.666 -17 42.999c-7.33301 36 -5.33301 74.333 6 115s29 74.334 53 101.001c28 31.333 59 47.333 93 48c38.667 1.33301 75.334 -17.334 110.001 -56.001c3.33301 -4 5 -9 5 -15
s-2.16699 -10.833 -6.5 -14.5s-9.5 -5.5 -15.5 -5.5s-11 2.33301 -15 7z" />
    <glyph glyph-name="T" unicode="T" horiz-adv-x="240" 
d="M96 538c-26 0.666992 -49.998 2.00195 -71.998 4.00195c-6 0.666992 -10.833 3.16699 -14.5 7.5s-5.16699 9.5 -4.5 15.5s3.16699 10.833 7.5 14.5s9.5 5.16699 15.5 4.5c20.667 -2 43 -3.33301 67 -4c-0.666992 19.333 -1.33398 37.333 -2.00098 54
c0 6 1.83301 11.167 5.5 15.5s8.5 6.5 14.5 6.5s11.167 -1.83301 15.5 -5.5s6.5 -8.5 6.5 -14.5l2 -56c22 0 49.333 0.666992 82 2c6 0 11.167 -1.83301 15.5 -5.5s6.5 -8.5 6.5 -14.5s-1.83301 -11.167 -5.5 -15.5s-8.5 -6.5 -14.5 -6.5
c-32.667 -1.33301 -60.334 -2 -83.001 -2c0.666992 -18.667 1.33398 -51.334 2.00098 -98.001s1.33398 -82.167 2.00098 -106.5s1.83398 -55.5 3.50098 -93.5s4 -73.167 7 -105.5s6.83301 -64.166 11.5 -95.499c0.666992 -6 -0.666016 -11.333 -3.99902 -16
s-8 -7.33398 -14 -8.00098s-11.333 0.666016 -16 3.99902s-7.33398 8 -8.00098 14c-4.66699 31.333 -8.5 63.5 -11.5 96.5s-5.33301 69 -7 108s-2.83398 70.667 -3.50098 95s-1.33398 60.333 -2.00098 108s-1.33398 80.167 -2.00098 97.5z" />
    <glyph glyph-name="U" unicode="U" horiz-adv-x="401" 
d="M89 493c0.666992 -8 1.33691 -25.998 2.00391 -53.998s1.33398 -50 2.00098 -66c3.33301 -66.667 9 -122.667 17 -168c10 -60.667 25 -104.334 45 -131.001c20 -27.333 45.667 -34.666 77 -21.999c43.333 16.667 75 61 95 133c4.66699 17.333 8.66699 36 12 56
c-2 16.667 -3.66699 34.667 -5 54c-5.33301 67.333 -8.33301 119.333 -9 156c0 22.667 0.666992 41 2 55c0.666992 8 1.66699 14.667 3 20c2 8 5.33301 14.333 10 19c8.66699 7.33301 18 7.66602 28 0.999023c2.66699 -2 5 -4.66699 7 -8s4 -8 6 -14
c4 -10.667 7.33301 -24.334 10 -41.001c5.33301 -33.333 6.33301 -72 3 -116c-4.66699 -58 -9 -100.333 -13 -127c8 -89.333 15 -155.666 21 -198.999c0.666992 -6 -0.833008 -11.333 -4.5 -16s-8.33398 -7.33398 -14.001 -8.00098s-10.834 0.833008 -15.501 4.5
s-7.33398 8.16699 -8.00098 13.5l-10 88c-24 -56.667 -58 -93.667 -102 -111c-52 -20 -94.333 -7.66699 -127 37c-23.333 32 -41 81.667 -53 149c-8 46.667 -13.667 104.334 -17 173.001c-0.666992 16.667 -1.33398 38.667 -2.00098 66s-1.33398 44.666 -2.00098 51.999
c-0.666992 6 1 11.167 5 15.5s8.83301 6.83301 14.5 7.5s10.667 -1 15 -5s6.83301 -8.66699 7.5 -14z" />
    <glyph glyph-name="V" unicode="V" horiz-adv-x="432" 
d="M66 562c13.333 -38.667 32.166 -97.6631 56.499 -176.996s43.5 -139 57.5 -179c0.666992 -2.66699 2 -7.33398 4 -14.001l8 -24l7 -26l3 6c2 7.33301 5 16.666 9 27.999l9 28l5 13l37 101l40 108c10 27.333 23.5 59.833 40.5 97.5s34.167 71.5 51.5 101.5
c2.66699 5.33301 6.83398 8.83301 12.501 10.5s11 1 16 -2s8.33301 -7.33301 10 -13s0.833984 -10.834 -2.49902 -15.501c-16.667 -30 -33.167 -63.167 -49.5 -99.5s-29.5 -67.833 -39.5 -94.5l-39 -107l-37 -101c-1.33301 -2.66699 -3 -7.66699 -5 -15l-10 -26
c-3.33301 -11.333 -6.33301 -20.333 -9 -27c-6 -17.333 -10.667 -30.333 -14 -39c-2 -6 -3.66699 -10.667 -5 -14c-0.666992 -2 -1.5 -3.66699 -2.5 -5s-1.83301 -2.66602 -2.5 -3.99902c-3.33301 -4 -7.33301 -6.33301 -12 -7c-8 -2 -15 0 -21 6c-2 2 -4 4.33301 -6 7
c-2 3.33301 -4 8 -6 14c-3.33301 8 -7.33301 20 -12 36c-2.66699 8 -6.33398 19.667 -11.001 35s-7.66699 24.666 -9 27.999c-14 40 -33.167 99.833 -57.5 179.5s-43.166 138.5 -56.499 176.5c-2 5.33301 -1.66699 10.666 1 15.999s6.66699 9 12 11
s10.666 1.66699 15.999 -1s9 -6.66699 11 -12z" />
    <glyph glyph-name="W" unicode="W" horiz-adv-x="604" 
d="M276 453c-2.66699 -6.66699 -4.33105 -16.333 -4.99805 -29c-0.666992 -8.66699 -0.666992 -34.667 0 -78c1.33301 -51.333 17.666 -106 48.999 -164c0 9.33301 -0.333008 20 -1 32c-2 40 -7 83 -15 129c-4 25.333 -8.66699 48.333 -14 69c-4 15.333 -8 27.333 -12 36
c-0.666992 2 -1.33398 3.66699 -2.00098 5zM80.0029 461.001c0.666992 -8 3.66602 -38.665 8.99902 -91.998c4 -36.667 8.33301 -65.667 13 -87c16.667 -69.333 28.667 -113 36 -131c7.33301 -20 19.166 -39.333 35.499 -58s33.166 -32 50.499 -40s32.333 -9.33301 45 -4
c16 6 29.333 21.667 40 47c2 5.33301 3.66699 11.333 5 18l-13 18c-21.333 32.667 -38.5 68.667 -51.5 108s-19.833 74.666 -20.5 105.999c-0.666992 44 -0.666992 71.333 0 82c2 20.667 5.66699 36.667 11 48c4.66699 8.66699 11 15 19 19
c8.66699 4.66699 18.5 5.16699 29.5 1.5s20.167 -14.167 27.5 -31.5c5.33301 -10.667 10 -24.667 14 -42c6 -21.333 11.333 -46 16 -74c8 -48 13 -92.333 15 -133c2 -36.667 1.33301 -67 -2 -91c40 -46.667 82.667 -64.334 128 -53.001c10 2.66699 20.167 9.5 30.5 20.5
s18.166 22.5 23.499 34.5c2 5.33301 3.83301 10.666 5.5 15.999s3.16699 11.333 4.5 18s2.33301 12.167 3 16.5s1.5 10.833 2.5 19.5s1.5 14.667 1.5 18s0.5 10 1.5 20s1.5 16.333 1.5 19c4.66699 56.667 3.66699 114.334 -3 173.001
c-0.666992 5.33301 0.833008 10.333 4.5 15s8.33398 7.33398 14.001 8.00098s10.834 -0.833008 15.501 -4.5s7.33398 -8.5 8.00098 -14.5c6.66699 -60.667 7.66699 -121 3 -181c0 -2 -0.333008 -7.83301 -1 -17.5s-1.33398 -16.5 -2.00098 -20.5
s-1.33398 -10.5 -2.00098 -19.5s-1.5 -16.167 -2.5 -21.5s-2.33301 -11.833 -4 -19.5s-3.5 -14.834 -5.5 -21.501s-4.33301 -13 -7 -19c-6.66699 -16.667 -17.5 -32.834 -32.5 -48.501s-31.5 -25.834 -49.5 -30.501c-53.333 -14 -103.666 1 -150.999 45
c-14.667 -34.667 -35 -57 -61 -67c-24.667 -10 -51 -8.33301 -79 5c-22.667 10.667 -43.834 27.334 -63.501 50.001s-34.5 46 -44.5 70c-6.66699 17.333 -18.667 63 -36 137c-6 25.333 -11 56.333 -15 93c-4.66699 53.333 -7.66699 83.333 -9 90
c-0.666992 6 0.833008 11.333 4.5 16s8.33398 7.33398 14.001 8.00098s10.834 -0.833008 15.501 -4.5s7.33398 -8.16699 8.00098 -13.5z" />
    <glyph glyph-name="X" unicode="X" horiz-adv-x="363" 
d="M359 586c-9.33301 -17.333 -33.0029 -58.666 -71.0029 -123.999l-35 -62c20 -49.333 38.667 -98.333 56 -147c4 -12 12.667 -40.333 26 -85c10 -34 19 -61 27 -81c2.66699 -5.33301 2.83398 -10.666 0.500977 -15.999s-6.16602 -9.16602 -11.499 -11.499
s-10.666 -2.33301 -15.999 0s-9 6.16602 -11 11.499c-9.33301 21.333 -19.333 49.666 -30 84.999c-12 42.667 -20.333 70.334 -25 83.001c-12.667 36.667 -26.334 73.667 -41.001 111l-6 -13c-11.333 -24.667 -26 -63.667 -44 -117c-20 -58.667 -35 -99.334 -45 -122.001
c-2 -5.33301 -5.83301 -9 -11.5 -11s-11.167 -1.83301 -16.5 0.5s-9 6.33301 -11 12s-1.66699 11.167 1 16.5c11.333 25.333 26 64.333 44 117c18 54.667 33 95.334 45 122.001c6.66699 14.667 14.334 30.334 23.001 47.001c-24 56.667 -49 112 -75 166
c-2.66699 5.33301 -3 10.666 -1 15.999s5.66699 9.33301 11 12s10.666 3 15.999 1s9.33301 -5.66699 12 -11c21.333 -44.667 42 -90.334 62 -137.001l19 34c38 64.667 61.333 105.667 70 123c2.66699 4.66699 6.83398 8 12.501 10s11 1.66699 16 -1
s8.5 -6.83398 10.5 -12.501s1.66699 -11.167 -1 -16.5z" />
    <glyph glyph-name="Y" unicode="Y" horiz-adv-x="415" 
d="M69 588c0 -78.667 11.666 -142.667 34.999 -192c14 -29.333 31.667 -49.666 53 -60.999c24 -13.333 53.333 -15.666 88 -6.99902c17.333 4.66699 32.666 13 45.999 25s24.333 26.833 33 44.5s15.5 35.334 20.5 53.001s9.5 37.834 13.5 60.501l2 7
c0 12 0.333008 22.667 1 32c0.666992 22 2 39.333 4 52c0.666992 7.33301 1.66699 13.333 3 18c2.66699 8.66699 6.33398 14.667 11.001 18c6 5.33301 12.667 7 20 5c8.66699 -2 14 -7.66699 16 -17c1.33301 -4 1.33301 -8.66699 0 -14c0 -2 -0.333008 -5.66699 -1 -11
c-0.666992 -3.33301 -1 -5.33301 -1 -6c-0.666992 -16 -4.33398 -43 -11.001 -81c-1.33301 -31.333 -2 -69.333 -2 -114c0 -112.667 1.66699 -196 5 -250l3 -66c0.666992 -16.667 1 -29.667 1 -39v-15c0 -2.66699 -0.333008 -4.66699 -1 -6c-0.666992 -4 -2 -7.66699 -4 -11
c-4.66699 -6.66699 -12 -11.667 -22 -15c-2 -0.666992 -4.33301 -1 -7 -1c-0.666992 -0.666992 -1.66699 -1 -3 -1c-5.33301 -2.66699 -10.666 -2.83398 -15.999 -0.500977s-9.16602 6.16602 -11.499 11.499s-2.33301 10.666 0 15.999s6.16602 9 11.499 11
c2.66699 1.33301 6.33398 2.66602 11.001 3.99902v6c0 9.33301 -0.333008 22 -1 38l-3 66c-2.66699 45.333 -4.33398 120 -5.00098 224c-24.667 -44.667 -59 -72.667 -103 -84c-45.333 -12 -84.666 -8.66699 -117.999 10c-29.333 16 -53 42.667 -71 80
c-26 54.667 -39 124.667 -39 210c0 6 2 11 6 15s9 6 15 6s11 -2 15 -6s6 -9 6 -15z" />
    <glyph glyph-name="Z" unicode="Z" horiz-adv-x="427" 
d="M119 686c4 0 37.332 2.33008 99.999 6.99707c28.667 2 48.667 3.33301 60 4c10 0 18 -0.333008 24 -1c10 -1.33301 17.333 -4 22 -8c7.33301 -5.33301 11.333 -13.666 12 -24.999c0.666992 -6.66699 0.333984 -14.667 -0.999023 -24c-2.66699 -14 -8 -32 -16 -54
c-5.33301 -16.667 -17.333 -45.667 -36 -87c-62.667 -140.667 -105 -250.334 -127 -329.001c-0.666992 -2 -4 -11 -10 -27c-5.33301 -14.667 -9.33301 -26.667 -12 -36c-3.33301 -13.333 -5 -24 -5 -32c0 -2.66699 0.333008 -4.66699 1 -6
c4.66699 -1.33301 12.334 -2 23.001 -2c12.667 0 29 1 49 3c24 2.66699 53.667 7 89 13c34.667 5.33301 70 16.333 106 33c5.33301 2.66699 10.833 3 16.5 1s9.66699 -5.66699 12 -11s2.5 -10.833 0.5 -16.5s-5.66699 -9.5 -11 -11.5c-40 -18 -79.333 -30.333 -118 -37
c-36 -6 -66.333 -10.333 -91 -13c-21.333 -2 -39.333 -3 -54 -3c-20 0 -34.333 2.66699 -43 8c-14 7.33301 -21.333 21 -22 41c0 12 2.33301 26.667 7 44c2.66699 10.667 7 23.667 13 39c5.33301 14.667 8.33301 23 9 25c22 80.667 65 192.334 129 335.001
c17.333 39.333 29 67 35 83c6.66699 20 11.334 35.667 14.001 47c0 3.33301 0.333008 6 1 8c-4.66699 0.666992 -10 1 -16 1c-13.333 -0.666992 -32.333 -2 -57 -4c-65.333 -5.33301 -100.666 -7.66602 -105.999 -6.99902c-6 0.666992 -10.833 3.16699 -14.5 7.5
s-5.33398 9.33301 -5.00098 15s2.66602 10.334 6.99902 14.001s9.16602 5.5 14.499 5.5z" />
    <glyph glyph-name="bracketleft" unicode="[" horiz-adv-x="284" 
d="M123 684c47.333 4.66699 87.6689 4.00098 121.002 -1.99902c5.33301 -1.33301 9.66602 -4.33301 12.999 -9s4.5 -9.83398 3.5 -15.501s-3.83301 -10.167 -8.5 -13.5s-10 -4.66602 -16 -3.99902c-21.333 4 -45 5.66699 -71 5c6 -43.333 10.833 -87.166 14.5 -131.499
s7.66699 -100.833 12 -169.5s7.16602 -112.667 8.49902 -132c0 -1.33301 0.333008 -6.66602 1 -15.999s1.33398 -20 2.00098 -32l2 -36l5 -50c0.666992 -5.33301 1.33398 -9.33301 2.00098 -12c4 -0.666992 9.66699 -1 17 -1c24.667 -0.666992 37.334 -1 38.001 -1
c6 -0.666992 10.667 -3.33398 14 -8.00098s4.66602 -10 3.99902 -16s-3.33398 -10.667 -8.00098 -14s-10 -4.66602 -16 -3.99902c-1.33301 0.666992 -3.66602 1 -6.99902 1h-12h-15c-8.66699 0 -16 0.666992 -22 2c-10.667 1.33301 -18.667 4.33301 -24 9
c-3.33301 3.33301 -5.66602 7.33301 -6.99902 12c-0.666992 2 -1.33398 4.66699 -2.00098 8c-1.33301 4.66699 -2.33301 11 -3 19c-2 12.667 -3.66699 30 -5 52c-1.33301 10.667 -2.33301 22.334 -3 35.001s-1.33398 23.667 -2.00098 33s-1 15 -1 17
c-1.33301 19.333 -4.16602 63.166 -8.49902 131.499s-8.33301 124.666 -12 168.999s-8.5 88.166 -14.5 131.499c-4.66699 0.666992 -8.83398 2.66699 -12.501 6s-5.83398 7.66602 -6.50098 12.999c-0.666992 6 0.833008 11.167 4.5 15.5s8.5 6.83301 14.5 7.5z" />
    <glyph glyph-name="backslash" unicode="\" horiz-adv-x="387" 
d="M122 594c10.667 -10.667 20.3301 -22.668 28.9971 -36.001s18.334 -30 29.001 -50l19 -37c29.333 -50 62.333 -117 99 -201l37 -86l51 -117c2.66699 -5.33301 3 -10.666 1 -15.999s-5.66699 -9.33301 -11 -12s-10.666 -3 -15.999 -1s-9.33301 5.66699 -12 11l-52 118
c-22 51.333 -34 80 -36 86c-35.333 80 -67.666 146 -96.999 198c-4 6.66699 -11 19.5 -21 38.5s-18.5 34 -25.5 45s-15.167 20.833 -24.5 29.5c-4 4 -6 9 -6 15s2 11 6 15s9 6 15 6s11 -2 15 -6z" />
    <glyph glyph-name="bracketright" unicode="]" horiz-adv-x="254" 
d="M123 661c2.66699 0 7.66895 0.334961 15.002 1.00195c9.33301 0.666992 16.666 1 21.999 1c20.667 0.666992 36.334 -3 47.001 -11c9.33301 -6.66699 17 -18.334 23 -35.001c4 -12.667 7.33301 -29.334 10 -50.001c5.33301 -33.333 8.66602 -77 9.99902 -131
c0.666992 -39.333 1 -70.666 1 -93.999s-0.166992 -50.666 -0.5 -81.999s-0.5 -49.666 -0.5 -54.999c0 -3.33301 0.166992 -9 0.5 -17s0.833008 -18.5 1.5 -31.5s1.33398 -23.833 2.00098 -32.5c0.666992 -20.667 1 -36.667 1 -48c0 -7.33301 -0.333008 -13.333 -1 -18v-7
c-1.33301 -5.33301 -3.33301 -9.33301 -6 -12c-5.33301 -7.33301 -14 -12.333 -26 -15c-6.66699 -1.33301 -15.334 -2 -26.001 -2c-6 -0.666992 -14 -0.666992 -24 0h-15c-6 0 -11.167 1.83301 -15.5 5.5s-6.5 8.5 -6.5 14.5s1.83301 11.167 5.5 15.5s8.5 6.5 14.5 6.5h19
c8.66699 -0.666992 15.667 -0.666992 21 0c7.33301 0 13.333 0.333008 18 1v11c0 10.667 -0.333008 26 -1 46c-0.666992 8.66699 -1.33398 19.667 -2.00098 33s-1.16699 24.166 -1.5 32.499s-0.5 14.166 -0.5 17.499c0 5.33301 0.166992 23.5 0.5 54.5s0.5 58.167 0.5 81.5
s-0.333008 54.333 -1 93c-1.33301 53.333 -4.33301 95.666 -9 126.999c-2.66699 18 -5.66699 32 -9 42l-7 15c-3.33301 2 -11 3 -23 3c-3.33301 0 -9.33301 -0.333008 -18 -1s-15 -1 -19 -1c-6 0 -11 2 -15 6s-6 9 -6 15s2 11 6 15s9 6 15 6z" />
    <glyph glyph-name="asciicircum" unicode="^" horiz-adv-x="441" 
d="M211 478c12.667 56.667 28.3369 112.334 47.0039 167.001c12.667 36.667 24.667 64.667 36 84c7.33301 12.667 14.666 22 21.999 28c12.667 10 25.667 12 39 6c6.66699 -3.33301 12.667 -10 18 -20c3.33301 -6 7.33301 -14.333 12 -25
c6.66699 -17.333 14.667 -40.333 24 -69c16 -49.333 26.667 -86.666 32 -111.999c1.33301 -6 0.5 -11.5 -2.5 -16.5s-7.33301 -8 -13 -9s-11 0 -16 3s-7.83301 7.16699 -8.5 12.5c-6 24 -16.667 60.333 -32 109c-8.66699 27.333 -16.334 49.333 -23.001 66
c-2.66699 7.33301 -5.33398 13 -8.00098 17c-2.66699 -2.66699 -5.33398 -6.33398 -8.00098 -11.001c-10 -17.333 -20.667 -43 -32 -77c-18.667 -52.667 -33.667 -106.334 -45 -161.001c-1.33301 -6 -4.5 -10.5 -9.5 -13.5s-10.333 -4 -16 -3s-10 4 -13 9
s-4.16699 10.167 -3.5 15.5z" />
    <glyph glyph-name="underscore" unicode="_" horiz-adv-x="601" 
d="M189 62c28.667 0 69.6709 -0.5 123.004 -1.5s101.666 -1.5 144.999 -1.5s84.333 1 123 3c6 0 11.167 -1.83301 15.5 -5.5s6.5 -8.5 6.5 -14.5s-1.83301 -11.167 -5.5 -15.5s-8.5 -6.5 -14.5 -6.5c-38.667 -2 -79.834 -3 -123.501 -3s-92.334 0.5 -146.001 1.5
s-94.834 1.5 -123.501 1.5c-6 0 -11 2 -15 6s-6 9 -6 15s2 11 6 15s9 6 15 6z" />
    <glyph glyph-name="grave" unicode="`" horiz-adv-x="234" 
d="M163 787c6 -10.667 16.334 -31.3311 31.001 -61.998s27 -53.667 37 -69c3.33301 -4.66699 4.5 -9.83398 3.5 -15.501s-3.83301 -10.167 -8.5 -13.5s-9.83398 -4.5 -15.501 -3.5s-10.167 3.83301 -13.5 8.5c-11.333 16 -25 41.333 -41 76l-29 59
c-3.33301 5.33301 -4.16602 10.666 -2.49902 15.999s5.16699 9.5 10.5 12.5s10.666 3.66699 15.999 2s9.33301 -5.16699 12 -10.5z" />
    <glyph glyph-name="a" unicode="a" horiz-adv-x="351" 
d="M306 212c-50 -1.33301 -85.3311 -13.334 -105.998 -36.001c-16.667 -19.333 -21.667 -43.333 -15 -72c6.66699 -28 20.667 -49.333 42 -64c20 -13.333 40 -13.666 60 -0.999023c3.33301 2 6.66602 8.33301 9.99902 19c3.33301 11.333 5.66602 26.333 6.99902 45
c0.666992 13.333 1 30.333 1 51v40zM100.002 659.999c67.333 34 122.337 34.999 165.004 2.99902c34.667 -26 59 -72.333 73 -139c2 -12 4 -24.667 6 -38s3.5 -27.333 4.5 -42s1.83301 -28 2.5 -40s1 -26 1 -42v-39c0 -10 -0.333008 -23 -1 -39s-1 -27.167 -1 -33.5
s-0.5 -17.166 -1.5 -32.499s-1.5 -24 -1.5 -26v-38c0 -21.333 -0.333008 -39 -1 -53c-1.33301 -22 -4.33301 -40 -9 -54c-6 -20.667 -15.333 -35.334 -28 -44.001c-34.667 -22 -70 -21 -106 3c-30.667 20 -50.334 49.667 -59.001 89c-10 42.667 -1.66699 78.667 25 108
c28.667 32.667 75 49.667 139 51c5.33301 112 1.33301 199 -12 261c-11.333 56.667 -30 94.667 -56 114c-28.667 21.333 -69.334 19 -122.001 -7c-4.66699 -2.66699 -9.83398 -3 -15.501 -1s-9.83398 5.5 -12.501 10.5s-3 10.333 -1 16s5.66699 9.83398 11 12.501z" />
    <glyph glyph-name="b" unicode="b" horiz-adv-x="492" 
d="M116 349c4 -46.667 7.00098 -88.6689 9.00098 -126.002c0 -4.66699 0.333008 -18.167 1 -40.5s1 -39.5 1 -51.5c0.666992 -22 1.66699 -39.333 3 -52c0.666992 -14 1.66699 -22 3 -24c2.66699 -5.33301 8 -7.66602 16 -6.99902c11.333 1.33301 26.333 7.33301 45 18
c23.333 14 49.666 34 78.999 60c48 42.667 91 99 129 169c43.333 80 58.666 144.333 45.999 193c-2.66699 8.66699 -8.66699 17.834 -18 27.501s-19.666 17.167 -30.999 22.5c-52 26.667 -108.333 14.667 -169 -36c-48 -40.667 -86 -91.667 -114 -153zM74.001 355.998
c-2 19.333 -6.00195 63.002 -12.002 131.002s-10.333 120.667 -13 158c-0.666992 5.33301 1 10.166 5 14.499s8.83301 6.83301 14.5 7.5s10.667 -1 15 -5s6.83301 -9 7.5 -15c2 -31.333 8.33301 -105.333 19 -222c27.333 43.333 58.333 79.666 93 108.999
c74.667 63.333 146.667 77.333 216 42c14.667 -8 28.834 -18.833 42.501 -32.5s22.5 -28.834 26.5 -45.501c16 -58.667 -0.333008 -133 -49 -223c-40 -74 -86 -134.333 -138 -181c-31.333 -28 -60 -49.333 -86 -64c-24 -14 -44.667 -22 -62 -24
c-27.333 -2.66699 -46.666 7.66602 -57.999 30.999c-3.33301 6.66699 -5.66602 19.334 -6.99902 38.001c-1.33301 14 -2.33301 32 -3 54c0 12.667 -0.333008 29.834 -1 51.501s-1 35.167 -1 40.5c-2 34 -4.66699 71.333 -8 112
c-4.66699 6.66699 -5.33398 13.667 -2.00098 21z" />
    <glyph glyph-name="c" unicode="c" 
d="M313 93c-59.333 14 -109.331 40.667 -149.998 80s-68.334 86.333 -83.001 141s-14.334 111.667 0.999023 171c16 64.667 46.667 119.667 92 165c55.333 55.333 115 74 179 56c5.33301 -1.33301 9.5 -4.5 12.5 -9.5s3.66699 -10.333 2 -16s-5 -10 -10 -13
s-10.5 -3.5 -16.5 -1.5c-47.333 13.333 -93 -2 -137 -46c-40 -40 -67.333 -88.333 -82 -145c-19.333 -79.333 -10 -151.333 28 -216s96 -106.667 174 -126c5.33301 -1.33301 9.5 -4.5 12.5 -9.5s3.83301 -10.167 2.5 -15.5s-4.5 -9.5 -9.5 -12.5
s-10.167 -3.83301 -15.5 -2.5z" />
    <glyph glyph-name="d" unicode="d" horiz-adv-x="398" 
d="M346 25l-1 4c-2 8 -4.33301 18.667 -7 32l-5 31c-2 12.667 -3.33301 19.334 -4 20.001c0 2.66699 -2.33301 15.667 -7 39l-11 63c-3.33301 18 -8.33301 40.833 -15 68.5s-13.667 52.834 -21 75.501c-17.333 53.333 -36 91.666 -56 114.999
c-10 11.333 -19.833 18.333 -29.5 21s-20.167 1 -31.5 -5c-24 -13.333 -41.667 -50.333 -53 -111c-12 -62.667 -10.667 -126.334 4 -191.001c16 -70 43.667 -119.333 83 -148c40.667 -29.333 92 -34 154 -14zM369 683
c-0.666992 -21.333 -0.667969 -37.1689 -0.000976562 -47.502s2 -26.166 4 -47.499s3.33301 -38.666 4 -51.999c1.33301 -32.667 4.33301 -81.334 9 -146.001c5.33301 -65.333 8.66602 -117.666 9.99902 -156.999c0.666992 -17.333 1.33398 -41 2.00098 -71
c0 -31.333 0.333008 -54 1 -68v-7v-15c0 -7.33301 -0.333008 -13.666 -1 -18.999c-0.666992 -11.333 -1.33398 -20.333 -2.00098 -27c0.666992 -0.666992 1 -1.66699 1 -3c2.66699 -5.33301 2.83398 -10.666 0.500977 -15.999s-6.16602 -9 -11.499 -11
c-87.333 -36.667 -160.333 -33.667 -219 9c-48.667 35.333 -81.667 93 -99 173c-15.333 69.333 -16.666 138.666 -3.99902 207.999c13.333 73.333 38 119.666 74 138.999c21.333 12 42 15 62 9c18 -4.66699 35 -16 51 -34c23.333 -27.333 44.666 -70.333 63.999 -129
c14 -44.667 27.333 -98.667 40 -162c-0.666992 8 -1 15.333 -1 22c-1.33301 36.667 -4.5 89 -9.5 157s-8.16699 116.667 -9.5 146c-0.666992 10 -2 26.167 -4 48.5s-3.33301 39.5 -4 51.5s-0.666992 29.667 0 53c0.666992 5.33301 3.16699 10 7.5 14s9.33301 5.66699 15 5
s10.5 -3.16699 14.5 -7.5s5.66699 -9.5 5 -15.5z" />
    <glyph glyph-name="e" unicode="e" horiz-adv-x="435" 
d="M71 333c55.333 -10.667 105.5 -6.16797 150.5 13.499s77.833 53.834 98.5 102.501c15.333 38 22 78.333 20 121c-2 48 -17.667 78 -47 90c-26 10 -55.333 2 -88 -24c-28.667 -24 -51.667 -53 -69 -87c-34 -68 -55.667 -140 -65 -216zM67 290.999
c-2 -49.333 3.6709 -91.333 17.0039 -126c8.66699 -24 23.667 -42.5 45 -55.5s46 -20.167 74 -21.5c26.667 -0.666992 52.834 4.16602 78.501 14.499s46.167 24.833 61.5 43.5c20 25.333 37.333 65.333 52 120c1.33301 6 4.5 10.5 9.5 13.5s10.333 3.66699 16 2
s10 -5 13 -10s3.5 -10.167 1.5 -15.5c-15.333 -60.667 -35.333 -106 -60 -136c-19.333 -24.667 -44.833 -43.5 -76.5 -56.5s-64.167 -18.833 -97.5 -17.5c-34.667 2 -66.334 11.667 -95.001 29s-49.334 42.666 -62.001 75.999c-16 40 -22.333 86.333 -19 139
s11.5 102.334 24.5 149.001s29.167 89.334 48.5 128.001c20 40 47 73.667 81 101c45.333 37.333 88.666 47.333 129.999 30c45.333 -18 69.666 -60 72.999 -126c2.66699 -48.667 -5.33301 -95 -24 -139c-16 -40 -40 -72 -72 -96s-66.333 -39.5 -103 -46.5
s-75.334 -6.83301 -116.001 0.5z" />
    <glyph glyph-name="f" unicode="f" horiz-adv-x="276" 
d="M120 390c4 -30 8.83105 -63.332 14.498 -99.999s10.834 -67.334 15.501 -92.001l19 -99l16 -84c0.666992 -6 -0.666016 -11.333 -3.99902 -16s-7.83301 -7.5 -13.5 -8.5s-10.834 0.166992 -15.501 3.5s-7.66699 7.66602 -9 12.999l-15 83l-19 99
c-4.66699 25.333 -10 56.666 -16 93.999s-10.667 71.333 -14 102l-20 -2c-5.33301 -0.666992 -10.333 0.833008 -15 4.5s-7.33398 8.33398 -8.00098 14.001s0.833008 10.834 4.5 15.501s8.5 7.33398 14.5 8.00098l19 2c-6.66699 76 -7.33398 140.667 -2.00098 194
c3.33301 33.333 14.833 63.333 34.5 90s41.834 43.667 66.501 51c30 9.33301 55 3.33301 75 -18c19.333 -21.333 29 -55 29 -101c0 -6 -2 -11 -6 -15s-9 -6 -15 -6s-11 2 -15 6s-6 9 -6 15c0 35.333 -6 59.333 -18 72c-8 8.66699 -18.333 11 -31 7
c-16.667 -4.66699 -32.167 -16.834 -46.5 -36.501s-22.833 -42.5 -25.5 -68.5c-5.33301 -51.333 -4.66602 -113 2.00098 -185c8 1.33301 15.333 2.66602 22 3.99902c6 0.666992 11.333 -0.666016 16 -3.99902s7.5 -7.83301 8.5 -13.5s-0.166992 -10.834 -3.5 -15.501
s-7.66602 -7.66699 -12.999 -9c-8 -1.33301 -16.667 -2.66602 -26 -3.99902z" />
    <glyph glyph-name="g" unicode="g" 
d="M312 414c-7.33301 94 -14.334 165.666 -21.001 214.999c-43.333 12.667 -78.833 11 -106.5 -5s-44.167 -38.333 -49.5 -67c-6 -30 1 -59 21 -87c20.667 -27.333 54.334 -45.666 101.001 -54.999c22.667 -4.66699 41 -5 55 -1zM285.999 673.999
c2 7.33301 6.66602 12 13.999 14c6 2 11.5 1.5 16.5 -1.5s8.16699 -7.16699 9.5 -12.5c7.33301 -26 16.333 -108.667 27 -248c4 -1.33301 7 -3.66602 9 -6.99902c3.33301 -4.66699 4.5 -9.83398 3.5 -15.501s-3.83301 -10.167 -8.5 -13.5l-1 -1l1 -11
c4.66699 -72.667 7.66699 -133 9 -181c1.33301 -27.333 1.66602 -49 0.999023 -65c-0.666992 -8.66699 -1.33398 -16 -2.00098 -22c-0.666992 -8 -2.33398 -14 -5.00098 -18c-7.33301 -14 -20.666 -25.333 -39.999 -34c-10.667 -4.66699 -24.667 -9 -42 -13
c-41.333 -10.667 -77.333 -7.66699 -108 9s-54.667 42 -72 76c-14.667 30 -23.5 64 -26.5 102s0.166992 72.333 9.5 103c1.33301 5.33301 4.5 9.5 9.5 12.5s10.333 3.66699 16 2s10 -5 13 -10s3.5 -10.5 1.5 -16.5c-8 -26 -10.667 -55.333 -8 -88
s10.334 -61.334 23.001 -86.001c28 -57.333 72 -78.666 132 -63.999c15.333 4 27 7.66699 35 11c10 4.66699 16.667 9.66699 20 15c0 1.33301 0.333008 2.66602 1 3.99902c0 4.66699 0.333008 11 1 19c0.666992 14.667 0.333984 35 -0.999023 61
c-1.33301 47.333 -4.33301 106 -9 176c-18 -3.33301 -40 -2.66602 -66 2.00098c-57.333 12 -99.666 36.5 -126.999 73.5s-37 76.5 -29 118.5c8 39.333 29.5 70 64.5 92s77.833 27.667 128.5 17z" />
    <glyph glyph-name="h" unicode="h" horiz-adv-x="273" 
d="M94 764c3.33301 -58.667 7.16602 -143.497 11.499 -254.497s7.83301 -191.833 10.5 -242.5c0 -1.33301 0.333008 -10.5 1 -27.5s1.33398 -32.167 2.00098 -45.5c7.33301 8 16 14.333 26 19c35.333 16.667 66 12.667 92 -12c18 -17.333 30.333 -42.666 37 -75.999
c0.666992 -6 -0.5 -11.333 -3.5 -16s-7.5 -7.5 -13.5 -8.5s-11.333 0 -16 3s-7.66699 7.5 -9 13.5c-4.66699 24.667 -13 42.667 -25 54c-11.333 11.333 -26 12.666 -44 3.99902c-20 -9.33301 -30 -36.333 -30 -81v-2c0 -1.33301 0.166992 -3 0.5 -5s0.833008 -4 1.5 -6
c0.666992 -5.33301 0.666992 -9.66602 0 -12.999c-2 -10 -8 -16 -18 -18c-7.33301 -0.666992 -14 1.66602 -20 6.99902c-2.66699 3.33301 -5 7.33301 -7 12c-0.666992 2.66699 -1.33398 5.66699 -2.00098 9c-1.33301 6 -2.66602 13.667 -3.99902 23
c-1.33301 15.333 -3 36 -5 62c-0.666992 13.333 -1.33398 27.5 -2.00098 42.5s-1.33398 28.167 -2.00098 39.5s-1 18 -1 20c-2.66699 50.667 -6.16699 131.5 -10.5 242.5s-8.16602 195.833 -11.499 254.5c0 5.33301 1.83301 10.166 5.5 14.499
s8.33398 6.66602 14.001 6.99902s10.667 -1.33398 15 -5.00098s6.83301 -8.5 7.5 -14.5z" />
    <glyph glyph-name="i" unicode="i" horiz-adv-x="220" 
d="M153 559c14 -154 25 -319.667 33 -497c0 -6 -1.83301 -11.167 -5.5 -15.5s-8.5 -6.5 -14.5 -6.5s-11.167 1.83301 -15.5 5.5s-6.5 8.5 -6.5 14.5c-8 177.333 -19 342.333 -33 495c-0.666992 6 0.833008 11.167 4.5 15.5s8.5 6.83301 14.5 7.5s11.167 -0.833008 15.5 -4.5
s6.83301 -8.5 7.5 -14.5zM79 748c10.667 -9.33301 20.999 -12.001 30.999 -8.00098c10.667 4.66699 19.334 14.334 26.001 29.001c6.66699 15.333 8 29 4 41c-4 11.333 -13.667 18.333 -29 21c-24 4 -46.667 -3.66699 -68 -23c-12.667 -11.333 -21.334 -23.333 -26.001 -36
c-6.66699 -19.333 -5.66699 -35.666 3 -48.999c8 -13.333 22.333 -23.666 43 -30.999c21.333 -8 43.833 -11.333 67.5 -10s43.167 6.66602 58.5 15.999c4.66699 2.66699 9.83398 3.33398 15.501 2.00098s10 -4.33301 13 -9s3.83301 -9.83398 2.5 -15.501
s-4.33301 -10.167 -9 -13.5c-21.333 -12.667 -47.5 -19.834 -78.5 -21.501s-58.833 2.16602 -83.5 11.499c-29.333 10.667 -51 26.667 -65 48c-16 25.333 -18.333 54 -7 86c7.33301 20 20 38 38 54c31.333 28 65.333 39 102 33c32.667 -5.33301 53.667 -21.666 63 -48.999
c7.33301 -22.667 5.5 -46.5 -5.5 -71.5s-27.167 -42.167 -48.5 -51.5c-26.667 -10.667 -51.667 -5 -75 17c-4.66699 4 -7 8.83301 -7 14.5s2 10.667 6 15s8.83301 6.5 14.5 6.5s10.5 -2 14.5 -6z" />
    <glyph glyph-name="j" unicode="j" horiz-adv-x="285" 
d="M213 730c34 -212 55.334 -381 64.001 -507c0 -1.33301 1.16699 -13.5 3.5 -36.5s3.83301 -41.833 4.5 -56.5c1.33301 -22.667 1.33301 -41.334 0 -56.001c-1.33301 -22 -5.66602 -37.333 -12.999 -46c-13.333 -16.667 -29.666 -25.334 -48.999 -26.001
c-15.333 -0.666992 -31.333 4 -48 14c-21.333 12 -43 30.667 -65 56c-34.667 40.667 -59.834 92 -75.501 154s-16.834 118.667 -3.50098 170c1.33301 6 4.5 10.5 9.5 13.5s10.333 3.66699 16 2s10 -5 13 -10s3.5 -10.167 1.5 -15.5c-11.333 -44.667 -10 -94.667 4 -150
s36.333 -100.666 67 -135.999c18.667 -22.667 36.667 -38.667 54 -48c10 -6 18.333 -8.66699 25 -8c7.33301 0 13.666 3.33301 18.999 10c1.33301 2 2.66602 9.66699 3.99902 23c0.666992 12.667 0.333984 29.334 -0.999023 50.001
c-0.666992 15.333 -2.16699 34.333 -4.5 57s-3.5 35 -3.5 37c-8.66699 124 -30 291.667 -64 503c-0.666992 5.33301 0.666016 10.333 3.99902 15s7.83301 7.5 13.5 8.5s10.834 -0.166992 15.501 -3.5s7.66699 -8 9 -14z" />
    <glyph glyph-name="k" unicode="k" horiz-adv-x="345" 
d="M139 162l-7.00293 -10.0029c0.666992 -45.333 1 -92.333 1 -141c0 -6 -2 -11 -6 -15s-9 -6 -15 -6s-11 2 -15 6s-6 9 -6 15c0 34.667 -0.333008 68 -1 100c-3.33301 0.666992 -6.33301 2 -9 4c-4.66699 3.33301 -7.5 7.83301 -8.5 13.5s0.166992 10.834 3.5 15.501l14 20
c-4 169.333 -14 324 -30 464c-0.666992 5.33301 0.833008 10.333 4.5 15s8.33398 7.33398 14.001 8.00098s10.834 -0.833008 15.501 -4.5s7.33398 -8.5 8.00098 -14.5c14 -125.333 23.333 -260.666 28 -405.999l49 80c49.333 82.667 83 138 101 166
c3.33301 5.33301 7.83301 8.5 13.5 9.5s11 0 16 -3s8 -7.33301 9 -13s0.166992 -10.834 -2.5 -15.501l-101 -165l-53 -87l72 -23c41.333 -13.333 74.666 -26 99.999 -38c5.33301 -2.66699 9 -6.66699 11 -12s1.66699 -10.666 -1 -15.999s-6.66699 -9 -12 -11
s-10.666 -1.66699 -15.999 1c-24 10.667 -55.667 22.667 -95 36c-48 15.333 -75.333 24.333 -82 27z" />
    <glyph glyph-name="l" unicode="l" horiz-adv-x="305" 
d="M110 629c6 -55.333 11.8252 -135.502 17.4922 -240.502s9.16699 -166.833 10.5 -185.5c0 -2 0.333008 -12.167 1 -30.5s1.66699 -33.166 3 -44.499c0.666992 -17.333 2 -31 4 -41c0.666992 -5.33301 1.66699 -9.66602 3 -12.999
c0 -0.666992 0.333008 -1.33398 1 -2.00098c8.66699 -7.33301 27 -9.66602 55 -6.99902c10.667 1.33301 24.334 3.66602 41.001 6.99902c20 4 32 6.33301 36 7c6 0.666992 11.333 -0.666016 16 -3.99902s7.33398 -8 8.00098 -14s-0.666016 -11.333 -3.99902 -16
s-8 -7.33398 -14 -8.00098c-3.33301 0 -14.666 -2 -33.999 -6c-18 -3.33301 -32.667 -5.66602 -44 -6.99902c-42.667 -4.66699 -73 1.66602 -91 18.999c-4 4 -7.33301 10 -10 18c-1.33301 4 -2.66602 10.333 -3.99902 19c-2 12 -3.66699 27 -5 45
c-1.33301 12 -2.33301 27 -3 45s-1 28.333 -1 31c-1.33301 18 -4.83301 79.333 -10.5 184s-11.5 184.667 -17.5 240c-0.666992 5.33301 0.833008 10.333 4.5 15s8.33398 7.33398 14.001 8.00098s10.834 -0.833008 15.501 -4.5s7.33398 -8.5 8.00098 -14.5z" />
    <glyph glyph-name="m" unicode="m" horiz-adv-x="559" 
d="M325 38c2 12 3.66602 27.333 4.99902 46c0.666992 14.667 1 30.5 1 47.5s-0.166992 33.5 -0.5 49.5s-0.5 25 -0.5 27c0 81.333 -4.33301 156.333 -13 225c-5.33301 42.667 -12 78 -20 106c-11.333 -19.333 -19.666 -42.333 -24.999 -69c-12 -54.667 -12.333 -129 -1 -223
c11.333 -94.667 29 -164 53 -208zM26.999 630c0 -2 9.66309 -66.6738 28.9961 -194.007l7 -49c10 59.333 26.333 111 49 155c16.667 30.667 36.334 56.667 59.001 78c36.667 34.667 71.667 44.334 105 29.001c12.667 -6 24 -16.667 34 -32c8.66699 6 17.667 11 27 15
c38.667 16.667 76.334 7.33398 113.001 -27.999c20 -18.667 41.333 -48.667 64 -90c24.667 -45.333 39.667 -124.666 45 -237.999c5.33301 -111.333 -0.666992 -192 -18 -242c-2 -5.33301 -5.66699 -9.33301 -11 -12s-10.666 -3 -15.999 -1s-9.33301 5.66699 -12 11
s-3 10.666 -1 15.999c15.333 44.667 20.666 120 15.999 226c-5.33301 108.667 -18.333 182 -39 220c-20.667 36.667 -39.667 63.334 -57 80.001c-23.333 22.667 -46 29.334 -68 20.001c-8.66699 -4 -16.667 -9.33301 -24 -16c1.33301 -3.33301 2.66602 -7 3.99902 -11
c10.667 -33.333 19.334 -76 26.001 -128c8.66699 -70.667 13 -147.667 13 -231c0 -2 0.166992 -11.333 0.5 -28s0.5 -33.667 0.5 -51s-0.333008 -33.333 -1 -48c-2 -30 -5.33301 -52.667 -10 -68c-4 -12 -9 -20.667 -15 -26c-11.333 -9.33301 -23.666 -10.333 -36.999 -3
c-8 4 -14 11.667 -18 23c-0.666992 2 -1.33398 3.66699 -2.00098 5s-1 2.33301 -1 3s-0.166992 1.33398 -0.5 2.00098s-0.5 1.33398 -0.5 2.00098c-27.333 48.667 -47 123 -59 223c-12 98.667 -11.667 177.334 1 236.001c10 44.667 26.333 81 49 109
c-7.33301 12.667 -14.333 20.667 -21 24c-16 7.33301 -35.333 0.333008 -58 -21c-19.333 -18.667 -36 -41.334 -50 -68.001c-42 -79.333 -60.667 -196 -56 -350c0 -4.66699 0.333008 -10.834 1 -18.501s1.66699 -16.834 3 -27.501s2.33301 -20 3 -28
c1.33301 -17.333 2 -32 2 -44c0 -16 -1.66699 -28.333 -5 -37c-0.666992 -2 -1.66699 -4 -3 -6c-3.33301 -4 -7.33301 -6.66699 -12 -8c-7.33301 -1.33301 -13.666 0.333984 -18.999 5.00098c-2 2 -3.66699 4.33301 -5 7c-2 2.66699 -3.33301 6.33398 -4 11.001
c-0.666992 2 -1.16699 4.83301 -1.5 8.5s-0.833008 6.16699 -1.5 7.5c-2 12.667 -4.66699 32.667 -8 60c-0.666992 6.66699 -3.33398 51.667 -8.00098 135c-2.66699 46 -10 110.333 -22 193c-18.667 127.333 -28.334 192 -29.001 194c-0.666992 6 0.833008 11.333 4.5 16
s8.33398 7.33398 14.001 8.00098s10.834 -0.833008 15.501 -4.5s7.33398 -8.16699 8.00098 -13.5z" />
    <glyph glyph-name="n" unicode="n" horiz-adv-x="320" 
d="M116 610c25.333 -43.333 54.668 -110.67 88.001 -202.003l55 -150c5.33301 -12 12 -29 20 -51c0.666992 18 0.666992 32 0 42c-0.666992 10.667 -2.66699 40.334 -6 89.001l-7 104c-1.33301 20.667 -2.66602 49.334 -3.99902 86.001s-2 69.667 -2 99c0 6 2 11 6 15
s9 6 15 6s11 -2 15 -6s6 -9 6 -15c0 -29.333 0.666992 -62.166 2 -98.499s2.66602 -64.833 3.99902 -85.5s3.66602 -54.667 6.99902 -102s5.33301 -77.333 6 -90c1.33301 -17.333 1 -40 -1 -68c-1.33301 -16.667 -3 -30.334 -5 -41.001
c-1.33301 -7.33301 -3.33301 -13 -6 -17c-4.66699 -10 -11.667 -15.667 -21 -17c-6.66699 -0.666992 -12.334 1.33301 -17.001 6c-1.33301 0.666992 -2.33301 1.66699 -3 3c-0.666992 0.666992 -1.33398 1.66699 -2.00098 3v1l-1 1l-1 3l-4 10l-11 32
c-12 33.333 -21.333 58.333 -28 75c-10.667 24.667 -29 73.334 -55 146.001s-48 127.334 -66 164.001c0.666992 -38 4.66699 -102.333 12 -193c8.66699 -106 13 -186 13 -240c0 -6 -2 -11 -6 -15s-9 -6 -15 -6s-11 2 -15 6s-6 9 -6 15c0 51.333 -4.33301 130.333 -13 237
s-13 186.667 -13 240c0 6 2 11 6 15s9 6 15 6c2 0 4 -0.333008 6 -1l4 2c4.66699 3.33301 9.83398 4.16602 15.501 2.49902s9.83398 -5.16699 12.501 -10.5z" />
    <glyph glyph-name="o" unicode="o" horiz-adv-x="263" 
d="M133 656c-0.666992 -0.666992 -1.66895 -1.33398 -3.00195 -2.00098l-9 -6l-8 -6l-7 -6c-3.33301 -2 -5.66602 -3.66699 -6.99902 -5l-5 -5c-2 -2 -3.5 -4 -4.5 -6s-2.16699 -4 -3.5 -6c-18 -41.333 -22.667 -103.666 -14 -186.999
c2.66699 -22 5.83398 -44.5 9.50098 -67.5s8 -48.5 13 -76.5s8.5 -46.333 10.5 -55c6 -37.333 14.667 -66.333 26 -87c14 -26 31.333 -36.667 52 -32c15.333 2.66699 26 16.667 32 42c4 16 6.33301 42 7 78c2 108.667 -1.66699 194.667 -11 258c-8 52.667 -20 94 -36 124
c-12 22 -26 37 -42 45zM115.998 704c40 -4.66699 72 -29.001 96 -73.001c18 -34 31.333 -80 40 -138c10 -65.333 14 -153.333 12 -264c-0.666992 -40 -3.33398 -69.333 -8.00098 -88c-10.667 -42.667 -32.334 -67.334 -65.001 -74.001c-40.667 -8 -73 10 -97 54
c-13.333 24.667 -23.666 57.667 -30.999 99c-1.33301 8.66699 -4.66602 27.334 -9.99902 56.001s-9.83301 54.834 -13.5 78.501s-6.83398 46.5 -9.50098 68.5c-9.33301 90 -3.33301 159 18 207c7.33301 17.333 22.333 34 45 50v5c0.666992 6 3.33398 10.833 8.00098 14.5
s9.66699 5.16699 15 4.5z" />
    <glyph glyph-name="p" unicode="p" horiz-adv-x="429" 
d="M145 158c14.667 -1.33301 32.665 -0.000976562 53.998 3.99902c64.667 11.333 112.834 35 144.501 71s46.834 75 45.501 117c-2 41.333 -19 76.333 -51 105s-74.667 42 -128 40c-20 -0.666992 -35.333 -2.33398 -46 -5.00098c-10 -2 -20 -6.33301 -30 -13
c2 -15.333 3.33301 -31.666 4 -48.999s1 -36 1 -56v-46l3 -92c1.33301 -39.333 2.33301 -64.666 3 -75.999zM117.998 515.999c20 12.667 50.002 19.667 90.002 21c65.333 2.66699 118 -14.333 158 -51c40.667 -36 62 -80.667 64 -134
c2.66699 -54 -15.333 -102.833 -54 -146.5s-95 -72.167 -169 -85.5c-23.333 -4 -43.666 -5.33301 -60.999 -4c2.66699 -82.667 4 -153.334 4 -212.001c0 -6 -2 -11 -6 -15s-9 -6 -15 -6s-11 2 -15 6s-6 9 -6 15c0 60.667 -1.33301 133.667 -4 219
c-15.333 5.33301 -29.666 13 -42.999 23c-4.66699 3.33301 -7.5 7.83301 -8.5 13.5s0.166992 10.834 3.5 15.501s7.83301 7.5 13.5 8.5s10.834 -0.166992 15.501 -3.5l17 -11c0 12 -0.333008 28.333 -1 49s-1.33398 39.667 -2.00098 57s-1.33398 33.666 -2.00098 48.999
c-0.666992 12 -0.833984 30.333 -0.500977 55s0 45.834 -1 63.501s-3.16699 34.5 -6.5 50.5c-0.666992 6 0.666016 11.333 3.99902 16s7.66602 7.66699 12.999 9c4 0.666992 8 0 12 -2z" />
    <glyph glyph-name="q" unicode="q" horiz-adv-x="376" 
d="M281 149c-6.66699 10.667 -15.498 25.8311 -26.498 45.498s-19.167 33.5 -24.5 41.5c-2.66699 4.66699 -3.5 9.83398 -2.5 15.501s4 10 9 13s10.333 4 16 3s10.167 -4.16699 13.5 -9.5c5.33301 -8 17.333 -28.667 36 -62c3.33301 8.66699 6.33301 17.667 9 27
c17.333 60 25.666 125.667 24.999 197c-1.33301 76 -12.333 138.333 -33 187c-22 50.667 -52 78 -90 82c-22 2 -41 -1.66699 -57 -11c1.33301 -7.33301 -1 -13.666 -7 -18.999c-42.667 -40.667 -65.334 -107.334 -68.001 -200.001c-1.33301 -41.333 2 -81 10 -119
c8 -39.333 19.333 -72.666 34 -99.999c16 -30.667 36.333 -59.667 61 -87c15.333 -16.667 29 -28.334 41 -35.001c10 -5.33301 17.667 -6.66602 23 -3.99902c10.667 6 21 17.667 31 35zM119.002 705.997c17.333 10.667 33 17.9971 47 21.9971s31 5 51 3
c54.667 -5.33301 96.334 -41.333 125.001 -108c22.667 -53.333 34.667 -120.666 36 -201.999c0.666992 -76 -8.33301 -146 -27 -210c-6 -22 -13 -41.667 -21 -59c9.33301 -14 19 -25.667 29 -35c4.66699 -4 7 -8.83301 7 -14.5s-2 -10.667 -6 -15s-8.83301 -6.5 -14.5 -6.5
s-10.5 2 -14.5 6c-8 7.33301 -16 15.666 -24 24.999c-11.333 -15.333 -23.666 -26.666 -36.999 -33.999c-18.667 -10.667 -40 -9.33398 -64 3.99902c-16 8.66699 -33 23 -51 43c-27.333 30.667 -50 62.334 -68 95.001c-16 30.667 -28.333 67.334 -37 110.001
c-8.66699 43.333 -12.334 87 -11.001 131c2.66699 96.667 27 169.667 73 219c-4.66699 10.667 -2.33398 19.334 6.99902 26.001z" />
    <glyph glyph-name="r" unicode="r" horiz-adv-x="345" 
d="M89 456c-5.33301 45.333 -12 87.332 -20 125.999c-0.666992 6 0.5 11.333 3.5 16s7.5 7.5 13.5 8.5s11.333 0 16 -3s7.66699 -7.5 9 -13.5c4.66699 -25.333 9 -52.333 13 -81c45.333 50.667 111.666 80.334 198.999 89.001c6 0.666992 11.167 -0.833008 15.5 -4.5
s6.83301 -8.5 7.5 -14.5s-0.833008 -11.167 -4.5 -15.5s-8.5 -6.83301 -14.5 -7.5c-91.333 -8.66699 -155.333 -43 -192 -103l-3 -6c3.33301 -27.333 11 -125.666 23 -294.999l6 -84l3 -39v-13v-5v-3c-0.666992 -1.33301 -1 -2.66602 -1 -3.99902
c-2 -4.66699 -5.33301 -8.33398 -10 -11.001c-12.667 -7.33301 -25 -5 -37 7c-5.33301 5.33301 -10.666 13 -15.999 23c-4 7.33301 -9 18.666 -15 33.999c-23.333 56 -35.333 113.333 -36 172c-1.33301 96 12 171.667 40 227zM118 87.999l-5 60
c-0.666992 14 -2.66699 44.667 -6 92s-6 84 -8 110c-6 -34.667 -8.66699 -75 -8 -121c0.666992 -48.667 9.66699 -95.667 27 -141z" />
    <glyph glyph-name="s" unicode="s" horiz-adv-x="372" 
d="M305 591c-26 28.667 -51.665 42.6689 -76.998 42.002c-22 0 -42.667 -11.333 -62 -34c-20 -22 -34.667 -50.333 -44 -85c-9.33301 -34 -11 -65.667 -5 -95c4 -20 14.5 -38 31.5 -54s41.833 -34.333 74.5 -55c2.66699 -1.33301 6.33398 -3.66602 11.001 -6.99902
c22.667 -14 40.167 -25.5 52.5 -34.5s26.666 -21.667 42.999 -38s28.166 -33.166 35.499 -50.499c9.33301 -24.667 10.833 -47 4.5 -67s-18.5 -37.333 -36.5 -52c-16.667 -13.333 -35.834 -22.333 -57.501 -27s-43.167 -3.66699 -64.5 3c-5.33301 2 -9.33301 5.66699 -12 11
s-3 10.666 -1 15.999s5.66699 9.33301 11 12s10.666 3 15.999 1c13.333 -4.66699 27.333 -5.5 42 -2.5s27.667 9.5 39 19.5c25.333 20 32.333 43.333 21 70c-6 13.333 -16.5 27.166 -31.5 41.499s-28.167 25.166 -39.5 32.499l-55 36l-41 28
c-10 6.66699 -21.833 16 -35.5 28s-24.5 24.667 -32.5 38s-13.667 27.666 -17 42.999c-7.33301 36 -5.33301 74.333 6 115s29 74.334 53 101.001c28 31.333 59 47.333 93 48c38.667 1.33301 75.334 -17.334 110.001 -56.001c3.33301 -4 5 -9 5 -15
s-2.16699 -10.833 -6.5 -14.5s-9.5 -5.5 -15.5 -5.5s-11 2.33301 -15 7z" />
    <glyph glyph-name="t" unicode="t" horiz-adv-x="240" 
d="M96 538c-26 0.666992 -49.998 2.00195 -71.998 4.00195c-6 0.666992 -10.833 3.16699 -14.5 7.5s-5.16699 9.5 -4.5 15.5s3.16699 10.833 7.5 14.5s9.5 5.16699 15.5 4.5c20.667 -2 43 -3.33301 67 -4c-0.666992 19.333 -1.33398 37.333 -2.00098 54
c0 6 1.83301 11.167 5.5 15.5s8.5 6.5 14.5 6.5s11.167 -1.83301 15.5 -5.5s6.5 -8.5 6.5 -14.5l2 -56c22 0 49.333 0.666992 82 2c6 0 11.167 -1.83301 15.5 -5.5s6.5 -8.5 6.5 -14.5s-1.83301 -11.167 -5.5 -15.5s-8.5 -6.5 -14.5 -6.5
c-32.667 -1.33301 -60.334 -2 -83.001 -2c0.666992 -18.667 1.33398 -51.334 2.00098 -98.001s1.33398 -82.167 2.00098 -106.5s1.83398 -55.5 3.50098 -93.5s4 -73.167 7 -105.5s6.83301 -64.166 11.5 -95.499c0.666992 -6 -0.666016 -11.333 -3.99902 -16
s-8 -7.33398 -14 -8.00098s-11.333 0.666016 -16 3.99902s-7.33398 8 -8.00098 14c-4.66699 31.333 -8.5 63.5 -11.5 96.5s-5.33301 69 -7 108s-2.83398 70.667 -3.50098 95s-1.33398 60.333 -2.00098 108s-1.33398 80.167 -2.00098 97.5z" />
    <glyph glyph-name="u" unicode="u" horiz-adv-x="401" 
d="M89 493c0.666992 -8 1.33691 -25.998 2.00391 -53.998s1.33398 -50 2.00098 -66c3.33301 -66.667 9 -122.667 17 -168c10 -60.667 25 -104.334 45 -131.001c20 -27.333 45.667 -34.666 77 -21.999c43.333 16.667 75 61 95 133c4.66699 17.333 8.66699 36 12 56
c-2 16.667 -3.66699 34.667 -5 54c-5.33301 67.333 -8.33301 119.333 -9 156c0 22.667 0.666992 41 2 55c0.666992 8 1.66699 14.667 3 20c2 8 5.33301 14.333 10 19c8.66699 7.33301 18 7.66602 28 0.999023c2.66699 -2 5 -4.66699 7 -8s4 -8 6 -14
c4 -10.667 7.33301 -24.334 10 -41.001c5.33301 -33.333 6.33301 -72 3 -116c-4.66699 -58 -9 -100.333 -13 -127c8 -89.333 15 -155.666 21 -198.999c0.666992 -6 -0.833008 -11.333 -4.5 -16s-8.33398 -7.33398 -14.001 -8.00098s-10.834 0.833008 -15.501 4.5
s-7.33398 8.16699 -8.00098 13.5l-10 88c-24 -56.667 -58 -93.667 -102 -111c-52 -20 -94.333 -7.66699 -127 37c-23.333 32 -41 81.667 -53 149c-8 46.667 -13.667 104.334 -17 173.001c-0.666992 16.667 -1.33398 38.667 -2.00098 66s-1.33398 44.666 -2.00098 51.999
c-0.666992 6 1 11.167 5 15.5s8.83301 6.83301 14.5 7.5s10.667 -1 15 -5s6.83301 -8.66699 7.5 -14z" />
    <glyph glyph-name="v" unicode="v" horiz-adv-x="432" 
d="M66 562c13.333 -38.667 32.166 -97.6631 56.499 -176.996s43.5 -139 57.5 -179c0.666992 -2.66699 2 -7.33398 4 -14.001l8 -24l7 -26l3 6c2 7.33301 5 16.666 9 27.999l9 28l5 13l37 101l40 108c10 27.333 23.5 59.833 40.5 97.5s34.167 71.5 51.5 101.5
c2.66699 5.33301 6.83398 8.83301 12.501 10.5s11 1 16 -2s8.33301 -7.33301 10 -13s0.833984 -10.834 -2.49902 -15.501c-16.667 -30 -33.167 -63.167 -49.5 -99.5s-29.5 -67.833 -39.5 -94.5l-39 -107l-37 -101c-1.33301 -2.66699 -3 -7.66699 -5 -15l-10 -26
c-3.33301 -11.333 -6.33301 -20.333 -9 -27c-6 -17.333 -10.667 -30.333 -14 -39c-2 -6 -3.66699 -10.667 -5 -14c-0.666992 -2 -1.5 -3.66699 -2.5 -5s-1.83301 -2.66602 -2.5 -3.99902c-3.33301 -4 -7.33301 -6.33301 -12 -7c-8 -2 -15 0 -21 6c-2 2 -4 4.33301 -6 7
c-2 3.33301 -4 8 -6 14c-3.33301 8 -7.33301 20 -12 36c-2.66699 8 -6.33398 19.667 -11.001 35s-7.66699 24.666 -9 27.999c-14 40 -33.167 99.833 -57.5 179.5s-43.166 138.5 -56.499 176.5c-2 5.33301 -1.66699 10.666 1 15.999s6.66699 9 12 11
s10.666 1.66699 15.999 -1s9 -6.66699 11 -12z" />
    <glyph glyph-name="w" unicode="w" horiz-adv-x="604" 
d="M276 453c-2.66699 -6.66699 -4.33105 -16.333 -4.99805 -29c-0.666992 -8.66699 -0.666992 -34.667 0 -78c1.33301 -51.333 17.666 -106 48.999 -164c0 9.33301 -0.333008 20 -1 32c-2 40 -7 83 -15 129c-4 25.333 -8.66699 48.333 -14 69c-4 15.333 -8 27.333 -12 36
c-0.666992 2 -1.33398 3.66699 -2.00098 5zM80.0029 461.001c0.666992 -8 3.66602 -38.665 8.99902 -91.998c4 -36.667 8.33301 -65.667 13 -87c16.667 -69.333 28.667 -113 36 -131c7.33301 -20 19.166 -39.333 35.499 -58s33.166 -32 50.499 -40s32.333 -9.33301 45 -4
c16 6 29.333 21.667 40 47c2 5.33301 3.66699 11.333 5 18l-13 18c-21.333 32.667 -38.5 68.667 -51.5 108s-19.833 74.666 -20.5 105.999c-0.666992 44 -0.666992 71.333 0 82c2 20.667 5.66699 36.667 11 48c4.66699 8.66699 11 15 19 19
c8.66699 4.66699 18.5 5.16699 29.5 1.5s20.167 -14.167 27.5 -31.5c5.33301 -10.667 10 -24.667 14 -42c6 -21.333 11.333 -46 16 -74c8 -48 13 -92.333 15 -133c2 -36.667 1.33301 -67 -2 -91c40 -46.667 82.667 -64.334 128 -53.001c10 2.66699 20.167 9.5 30.5 20.5
s18.166 22.5 23.499 34.5c2 5.33301 3.83301 10.666 5.5 15.999s3.16699 11.333 4.5 18s2.33301 12.167 3 16.5s1.5 10.833 2.5 19.5s1.5 14.667 1.5 18s0.5 10 1.5 20s1.5 16.333 1.5 19c4.66699 56.667 3.66699 114.334 -3 173.001
c-0.666992 5.33301 0.833008 10.333 4.5 15s8.33398 7.33398 14.001 8.00098s10.834 -0.833008 15.501 -4.5s7.33398 -8.5 8.00098 -14.5c6.66699 -60.667 7.66699 -121 3 -181c0 -2 -0.333008 -7.83301 -1 -17.5s-1.33398 -16.5 -2.00098 -20.5
s-1.33398 -10.5 -2.00098 -19.5s-1.5 -16.167 -2.5 -21.5s-2.33301 -11.833 -4 -19.5s-3.5 -14.834 -5.5 -21.501s-4.33301 -13 -7 -19c-6.66699 -16.667 -17.5 -32.834 -32.5 -48.501s-31.5 -25.834 -49.5 -30.501c-53.333 -14 -103.666 1 -150.999 45
c-14.667 -34.667 -35 -57 -61 -67c-24.667 -10 -51 -8.33301 -79 5c-22.667 10.667 -43.834 27.334 -63.501 50.001s-34.5 46 -44.5 70c-6.66699 17.333 -18.667 63 -36 137c-6 25.333 -11 56.333 -15 93c-4.66699 53.333 -7.66699 83.333 -9 90
c-0.666992 6 0.833008 11.333 4.5 16s8.33398 7.33398 14.001 8.00098s10.834 -0.833008 15.501 -4.5s7.33398 -8.16699 8.00098 -13.5z" />
    <glyph glyph-name="x" unicode="x" horiz-adv-x="363" 
d="M359 586c-9.33301 -17.333 -33.0029 -58.666 -71.0029 -123.999l-35 -62c20 -49.333 38.667 -98.333 56 -147c4 -12 12.667 -40.333 26 -85c10 -34 19 -61 27 -81c2.66699 -5.33301 2.83398 -10.666 0.500977 -15.999s-6.16602 -9.16602 -11.499 -11.499
s-10.666 -2.33301 -15.999 0s-9 6.16602 -11 11.499c-9.33301 21.333 -19.333 49.666 -30 84.999c-12 42.667 -20.333 70.334 -25 83.001c-12.667 36.667 -26.334 73.667 -41.001 111l-6 -13c-11.333 -24.667 -26 -63.667 -44 -117c-20 -58.667 -35 -99.334 -45 -122.001
c-2 -5.33301 -5.83301 -9 -11.5 -11s-11.167 -1.83301 -16.5 0.5s-9 6.33301 -11 12s-1.66699 11.167 1 16.5c11.333 25.333 26 64.333 44 117c18 54.667 33 95.334 45 122.001c6.66699 14.667 14.334 30.334 23.001 47.001c-24 56.667 -49 112 -75 166
c-2.66699 5.33301 -3 10.666 -1 15.999s5.66699 9.33301 11 12s10.666 3 15.999 1s9.33301 -5.66699 12 -11c21.333 -44.667 42 -90.334 62 -137.001l19 34c38 64.667 61.333 105.667 70 123c2.66699 4.66699 6.83398 8 12.501 10s11 1.66699 16 -1
s8.5 -6.83398 10.5 -12.501s1.66699 -11.167 -1 -16.5z" />
    <glyph glyph-name="y" unicode="y" horiz-adv-x="415" 
d="M69 588c0 -78.667 11.666 -142.667 34.999 -192c14 -29.333 31.667 -49.666 53 -60.999c24 -13.333 53.333 -15.666 88 -6.99902c17.333 4.66699 32.666 13 45.999 25s24.333 26.833 33 44.5s15.5 35.334 20.5 53.001s9.5 37.834 13.5 60.501l2 7
c0 12 0.333008 22.667 1 32c0.666992 22 2 39.333 4 52c0.666992 7.33301 1.66699 13.333 3 18c2.66699 8.66699 6.33398 14.667 11.001 18c6 5.33301 12.667 7 20 5c8.66699 -2 14 -7.66699 16 -17c1.33301 -4 1.33301 -8.66699 0 -14c0 -2 -0.333008 -5.66699 -1 -11
c-0.666992 -3.33301 -1 -5.33301 -1 -6c-0.666992 -16 -4.33398 -43 -11.001 -81c-1.33301 -31.333 -2 -69.333 -2 -114c0 -112.667 1.66699 -196 5 -250l3 -66c0.666992 -16.667 1 -29.667 1 -39v-15c0 -2.66699 -0.333008 -4.66699 -1 -6c-0.666992 -4 -2 -7.66699 -4 -11
c-4.66699 -6.66699 -12 -11.667 -22 -15c-2 -0.666992 -4.33301 -1 -7 -1c-0.666992 -0.666992 -1.66699 -1 -3 -1c-5.33301 -2.66699 -10.666 -2.83398 -15.999 -0.500977s-9.16602 6.16602 -11.499 11.499s-2.33301 10.666 0 15.999s6.16602 9 11.499 11
c2.66699 1.33301 6.33398 2.66602 11.001 3.99902v6c0 9.33301 -0.333008 22 -1 38l-3 66c-2.66699 45.333 -4.33398 120 -5.00098 224c-24.667 -44.667 -59 -72.667 -103 -84c-45.333 -12 -84.666 -8.66699 -117.999 10c-29.333 16 -53 42.667 -71 80
c-26 54.667 -39 124.667 -39 210c0 6 2 11 6 15s9 6 15 6s11 -2 15 -6s6 -9 6 -15z" />
    <glyph glyph-name="z" unicode="z" horiz-adv-x="427" 
d="M119 686c4 0 37.332 2.33008 99.999 6.99707c28.667 2 48.667 3.33301 60 4c10 0 18 -0.333008 24 -1c10 -1.33301 17.333 -4 22 -8c7.33301 -5.33301 11.333 -13.666 12 -24.999c0.666992 -6.66699 0.333984 -14.667 -0.999023 -24c-2.66699 -14 -8 -32 -16 -54
c-5.33301 -16.667 -17.333 -45.667 -36 -87c-62.667 -140.667 -105 -250.334 -127 -329.001c-0.666992 -2 -4 -11 -10 -27c-5.33301 -14.667 -9.33301 -26.667 -12 -36c-3.33301 -13.333 -5 -24 -5 -32c0 -2.66699 0.333008 -4.66699 1 -6
c4.66699 -1.33301 12.334 -2 23.001 -2c12.667 0 29 1 49 3c24 2.66699 53.667 7 89 13c34.667 5.33301 70 16.333 106 33c5.33301 2.66699 10.833 3 16.5 1s9.66699 -5.66699 12 -11s2.5 -10.833 0.5 -16.5s-5.66699 -9.5 -11 -11.5c-40 -18 -79.333 -30.333 -118 -37
c-36 -6 -66.333 -10.333 -91 -13c-21.333 -2 -39.333 -3 -54 -3c-20 0 -34.333 2.66699 -43 8c-14 7.33301 -21.333 21 -22 41c0 12 2.33301 26.667 7 44c2.66699 10.667 7 23.667 13 39c5.33301 14.667 8.33301 23 9 25c22 80.667 65 192.334 129 335.001
c17.333 39.333 29 67 35 83c6.66699 20 11.334 35.667 14.001 47c0 3.33301 0.333008 6 1 8c-4.66699 0.666992 -10 1 -16 1c-13.333 -0.666992 -32.333 -2 -57 -4c-65.333 -5.33301 -100.666 -7.66602 -105.999 -6.99902c-6 0.666992 -10.833 3.16699 -14.5 7.5
s-5.33398 9.33301 -5.00098 15s2.66602 10.334 6.99902 14.001s9.16602 5.5 14.499 5.5z" />
    <glyph glyph-name="braceleft" unicode="{" horiz-adv-x="276" 
d="M262 741c-38 -10.667 -68.8398 -35.335 -92.5068 -74.002s-32.167 -77.667 -25.5 -117c1.33301 -10 4 -21.667 8 -35c0.666992 -2.66699 2.33398 -8.33398 5.00098 -17.001l6 -20c8 -31.333 10.667 -59.333 8 -84c-4 -33.333 -19.667 -56.666 -47 -69.999l-10 -4
c-3.33301 -2 -5.66602 -3.33301 -6.99902 -4s-3 -1.66699 -5 -3s-3.33301 -2.5 -4 -3.5s-1.5 -2.16699 -2.5 -3.5s-1.83301 -3 -2.5 -5c-2 -4.66699 -3.33301 -8.33398 -4 -11.001c-0.666992 -1.33301 -1 -2.33301 -1 -3c0.666992 -6 2.66699 -11 6 -15
c10 -12.667 15.667 -20.667 17 -24c8 -14.667 15 -41 21 -79c4 -28 11 -47.667 21 -59c14.667 -18 44 -34.333 88 -49c6 -2 10.333 -5.5 13 -10.5s3 -10.333 1 -16s-5.5 -9.83398 -10.5 -12.501s-10.167 -3 -15.5 -1c-51.333 16.667 -87.333 37 -108 61
c-14.667 18 -24.667 44.667 -30 80c-5.33301 34 -10.666 56 -15.999 66c-1.33301 1.33301 -6 7.33301 -14 18c-8 10 -13 22.333 -15 37c-0.666992 6 1.66602 16.667 6.99902 32c2 6 4.66699 11.333 8 16s7.33301 8.83398 12 12.501s8.33398 6.33398 11.001 8.00098
s6.66699 3.83398 12 6.50098l9 3c4.66699 2.66699 8.33398 5 11.001 7s5.33398 5.66699 8.00098 11s4.33398 12.333 5.00098 21c2.66699 18.667 0.333984 41 -6.99902 67l-6 19c-2 8.66699 -3.33301 14.334 -4 17.001c-4.66699 15.333 -8 28.333 -10 39
c-8 50 2.5 98.833 31.5 146.5s67.833 78.5 116.5 92.5c6 2 11.5 1.5 16.5 -1.5s8.33301 -7.33301 10 -13s1 -11 -2 -16s-7.16699 -8.16699 -12.5 -9.5z" />
    <glyph glyph-name="bar" unicode="|" horiz-adv-x="152" 
d="M149 638c2 -34.667 3.16406 -59.001 3.49707 -73.001s-0.5 -38.333 -2.5 -73s-3 -58 -3 -70c-2.66699 -110.667 -0.666992 -240.334 6 -389.001c0 -6 -1.83301 -11.167 -5.5 -15.5s-8.5 -6.5 -14.5 -6.5s-11.167 1.83301 -15.5 5.5s-6.5 8.5 -6.5 14.5
c-6.66699 150 -8.66699 280.333 -6 391c0 14.667 1 38.834 3 72.501s2.83301 57 2.5 70s-1.5 36.167 -3.5 69.5c-0.666992 5.33301 0.833008 10.333 4.5 15s8.33398 7.33398 14.001 8.00098s10.834 -0.833008 15.501 -4.5s7.33398 -8.5 8.00098 -14.5z" />
    <glyph glyph-name="braceright" unicode="}" horiz-adv-x="315" 
d="M279 375h1h-1zM21 744c49.333 18 95.665 14.6709 138.998 -9.99609c34.667 -19.333 56.334 -46 65.001 -80c5.33301 -24.667 4 -55.334 -4 -92.001c-1.33301 -7.33301 -4.66602 -21.333 -9.99902 -42c-4 -16.667 -6.66699 -29.334 -8 -38.001
c-4 -22.667 -3 -38.667 3 -48c2 -2 6 -4 12 -6c6.66699 -2.66699 16.334 -4.66699 29.001 -6c2 0 7 -0.5 15 -1.5s13.667 -1.83301 17 -2.5c6 -0.666992 11 -1.66699 15 -3c7.33301 -2.66699 12.666 -6.66699 15.999 -12c5.33301 -7.33301 7.33301 -17.333 6 -30
c-0.666992 -6.66699 -2.66699 -14.667 -6 -24l-7 -22c-2.66699 -6.66699 -4 -10.667 -4 -12c-0.666992 -2.66699 -2.33398 -10 -5.00098 -22l-4 -26c-1.33301 -5.33301 -3.33301 -13.833 -6 -25.5s-5 -21.334 -7 -29.001s-4.66699 -16.334 -8 -26.001s-7 -18.5 -11 -26.5
c-28.667 -65.333 -73 -98 -133 -98c-6 0 -11 2 -15 6s-6 9 -6 15s2 11 6 15s9 6 15 6c41.333 0 73 24.333 95 73c3.33301 7.33301 6.5 15.333 9.5 24s5.5 16.5 7.5 23.5s4.16699 15.833 6.5 26.5s3.83301 18.334 4.5 23.001l6 26c2 12 3 19.667 3 23
c0.666992 3.33301 2.66699 9.33301 6 18c3.33301 10 5.66602 16.667 6.99902 20c2 6 3.33301 11 4 15l-2 1c-3.33301 0 -8.66602 0.5 -15.999 1.5s-12 1.5 -14 1.5c-15.333 2 -27.666 4.66699 -36.999 8c-15.333 4.66699 -26.333 12 -33 22
c-12.667 18.667 -16.334 45 -11.001 79c2 10 5.33301 23.667 10 41c4.66699 20 7.66699 33.667 9 41c6.66699 30.667 8 55 4 73c-5.33301 22.667 -20 40.667 -44 54c-32 18 -67 20 -105 6c-5.33301 -2 -10.666 -1.66699 -15.999 1s-9 6.66699 -11 12
s-1.66699 10.666 1 15.999s6.66699 9 12 11z" />
    <glyph glyph-name="asciitilde" unicode="~" horiz-adv-x="546" 
d="M61 267c14.667 40.667 48.665 66.001 101.998 76.001c34 6 65 4 93 -6s57.667 -25.333 89 -46c34 -22.667 55.333 -36.334 64 -41.001c18.667 -9.33301 34.667 -12.333 48 -9c6.66699 2 15 7.33301 25 16c3.33301 3.33301 8.33301 8 15 14
c6.66699 6.66699 11.667 11.334 15 14.001c4.66699 4 9.83398 5.66699 15.501 5s10.5 -3.16699 14.5 -7.5s5.66699 -9.33301 5 -15s-3 -10.5 -7 -14.5c-2.66699 -2 -7.33398 -6 -14.001 -12c-6.66699 -6.66699 -12 -11.667 -16 -15c-15.333 -14 -29.666 -22.333 -42.999 -25
c-23.333 -6 -49 -2 -77 12c-8 3.33301 -30.667 17.666 -68 42.999c-28 18.667 -53.667 32.167 -77 40.5s-48 9.83301 -74 4.5c-20 -3.33301 -35.5 -8.66602 -46.5 -15.999s-18.833 -18 -23.5 -32c-2 -5.33301 -5.66699 -9.33301 -11 -12s-10.666 -3 -15.999 -1
s-9.33301 5.66699 -12 11s-3 10.666 -1 15.999z" />
    <glyph glyph-name="quoteleft" unicode="&#x2018;" horiz-adv-x="190" 
d="M152 796c-11.333 -31.333 -14.668 -63.165 -10.001 -95.498s18.334 -57.833 41.001 -76.5c4.66699 -3.33301 7.33398 -7.83301 8.00098 -13.5s-0.833008 -10.834 -4.5 -15.501s-8.33398 -7.33398 -14.001 -8.00098s-10.834 1 -15.501 5c-22 17.333 -37.667 39 -47 65
s-13.333 51.333 -12 76s6 49.667 14 75c2 6 5.5 10.333 10.5 13s10.333 3 16 1s9.83398 -5.5 12.501 -10.5s3 -10.167 1 -15.5z" />
    <glyph glyph-name="quoteright" unicode="&#x2019;" horiz-adv-x="185" 
d="M162 748c35.333 -80 31.6699 -145.331 -10.9971 -195.998c-3.33301 -4.66699 -8 -7.33398 -14 -8.00098s-11.167 0.833008 -15.5 4.5s-6.83301 8.5 -7.5 14.5s1 11 5 15c31.333 38 33 89.333 5 154c-2.66699 5.33301 -2.83398 10.666 -0.500977 15.999
s6.16602 9.16602 11.499 11.499s10.666 2.33301 15.999 0s9 -6.16602 11 -11.499z" />
    <glyph glyph-name="quotedblleft" unicode="&#x201c;" horiz-adv-x="266" 
d="M157 809c-10.667 -28.667 -11.3301 -60.333 -1.99707 -95c8.66699 -35.333 25 -59 49 -71c5.33301 -2.66699 9 -6.83398 11 -12.501s1.66699 -11 -1 -16s-6.83398 -8.5 -12.501 -10.5s-10.834 -1.66699 -15.501 1c-35.333 18 -59.333 50.667 -72 98
c-11.333 43.333 -10.333 83.333 3 120c2 5.33301 5.66699 9.33301 11 12s10.666 3 15.999 1s9.33301 -5.66699 12 -11s3 -10.666 1 -15.999zM236.004 823.001c0.666992 -4 1.66113 -13.001 2.99414 -27.001s2.33301 -23.5 3 -28.5s1.83398 -13.167 3.50098 -24.5
s3.16699 -20.166 4.5 -26.499s3.33301 -14 6 -23s5.66699 -17.5 9 -25.5c2.66699 -5.33301 2.83398 -10.666 0.500977 -15.999s-6.16602 -9.16602 -11.499 -11.499s-10.666 -2.33301 -15.999 0s-9 6.16602 -11 11.499c-4 8.66699 -7.66699 18 -11 28l-7 27
c-2 7.33301 -3.83301 17.166 -5.5 29.499s-2.83398 21.166 -3.50098 26.499s-1.66699 15 -3 29s-2.33301 23 -3 27c-0.666992 5.33301 0.833008 10.333 4.5 15s8.33398 7.33398 14.001 8.00098s10.834 -0.833008 15.501 -4.5s7.33398 -8.5 8.00098 -14.5z" />
    <glyph glyph-name="quotedblright" unicode="&#x201d;" horiz-adv-x="230" 
d="M109 838c21.333 -26 34.3291 -56.168 38.9961 -90.501s5.33398 -72.5 2.00098 -114.5c-0.666992 -5.33301 -3.16699 -10 -7.5 -14s-9.33301 -5.66699 -15 -5s-10.5 3.16699 -14.5 7.5s-5.66699 9.5 -5 15.5c6.66699 82 -3.66602 140.333 -30.999 175
c-4 4.66699 -5.66699 9.83398 -5 15.501s3.33398 10.334 8.00098 14.001s9.83398 5.16699 15.501 4.5s10.167 -3.33398 13.5 -8.00098zM217.996 828.999c16.667 -70.667 17.3301 -131.667 1.99707 -183c-1.33301 -5.33301 -4.66602 -9.5 -9.99902 -12.5
s-10.666 -3.66699 -15.999 -2s-9.5 5.16699 -12.5 10.5s-3.5 10.666 -1.5 15.999c12.667 42.667 12 96.334 -2 161.001c-1.33301 6 -0.5 11.333 2.5 16s7.33301 7.66699 13 9s10.834 0.5 15.501 -2.5s7.66699 -7.16699 9 -12.5z" />
    <glyph glyph-name="uni3000" unicode="&#x3000;" horiz-adv-x="1000" 
 />
    <glyph glyph-name=".null" horiz-adv-x="0" 
 />
    <glyph glyph-name="nonmarkingreturn" horiz-adv-x="333" 
 />
  </font>
</defs>
</svg>
