<?xml version="1.0" standalone="no"?>
<!DOCTYPE svg PUBLIC "-//W3C//DTD SVG 1.1//EN" "http://www.w3.org/Graphics/SVG/1.1/DTD/svg11.dtd" >
<svg>
<metadata>
Created by FontForge 20090914 at Sat Oct 29 19:57:46 2016
 By www-data
Des
</metadata>
<defs>
<font id="LittleMuffins" horiz-adv-x="479" >
  <font-face 
    font-family="LittleMuffins"
    font-weight="500"
    font-stretch="normal"
    units-per-em="1000"
    panose-1="2 0 6 3 0 0 0 0 0 0"
    ascent="1000"
    descent="0"
    x-height="762.001"
    cap-height="965"
    bbox="-57.0825 -114.999 926.001 1067.99"
    underline-thickness="50"
    underline-position="-100"
    unicode-range="U+0020-U+3000"
  />
<missing-glyph horiz-adv-x="364" 
d="M66 33h199v600h-199v-600zM33 0v666h265v-666h-265z" />
    <glyph glyph-name=".notdef" horiz-adv-x="364" 
d="M66 33h199v600h-199v-600zM33 0v666h265v-666h-265z" />
    <glyph glyph-name="space" unicode=" " horiz-adv-x="300" 
 />
    <glyph glyph-name="exclam" unicode="!" horiz-adv-x="376" 
d="M224 568c3.33301 45.333 5.66797 85.667 7.00098 121c0.666992 18.667 0 48.334 -2 89.001c-2.66699 40.667 -3.33398 72 -2.00098 94c-4.66699 -0.666992 -8.66699 -1.33398 -12 -2.00098c6 -63.333 9 -164 9 -302zM231.002 320.001c1.33301 -16.667 3 -32.667 5 -48v48
h-5zM159.002 923.001c5.33301 -0.666992 11.1699 -1.33398 17.5029 -2.00098s10.666 -1.16699 12.999 -1.5s6.16602 -0.166016 11.499 0.500977c1.33301 0 8 1.33301 20 4l40 10c17.333 4 31.333 6.66699 42 8c7.33301 0.666992 13.333 1 18 1
c10.667 -0.666992 19 -3.66699 25 -9c12.667 -12.667 19.334 -31 20.001 -55c0.666992 -15.333 -1.66602 -34.666 -6.99902 -57.999c-2.66699 -12.667 -7.33398 -31 -14.001 -55c-5.33301 -20 -8.33301 -32.667 -9 -38c-1.33301 -8.66699 -8.66602 -44.334 -21.999 -107.001
c-8.66699 -40 -14.334 -74 -17.001 -102c-2.66699 -26.667 -4.66699 -51.667 -6 -75c-1.33301 -24.667 -2.16602 -51.5 -2.49902 -80.5s-0.666016 -53 -0.999023 -72s-0.333008 -46.167 0 -81.5s0.5 -60 0.5 -74c0 -7.33301 -2.5 -13.5 -7.5 -18.5s-11.167 -7.5 -18.5 -7.5
s-13.5 2.5 -18.5 7.5s-7.5 11.167 -7.5 18.5v65c-2.66699 -2.66699 -5.33398 -4.66699 -8.00098 -6c3.33301 -22.667 6 -43.667 8 -63c0.666992 -7.33301 -1.33301 -13.833 -6 -19.5s-10.5 -8.83398 -17.5 -9.50098s-13.333 1.33301 -19 6s-8.83398 10.334 -9.50098 17.001
c-4 39.333 -12.333 91 -25 155c-18.667 94 -29 146.667 -31 158c-6.66699 40.667 -12.667 82.667 -18 126s-10.833 95.666 -16.5 156.999s-9.83398 103.666 -12.501 126.999c-0.666992 7.33301 1.33301 13.833 6 19.5s10.5 8.83398 17.5 9.50098s13.333 -1.33301 19 -6
s8.83398 -10.334 9.50098 -17.001l11 -113c4.66699 -49.333 9.16699 -93.666 13.5 -132.999s9.16602 -76.666 14.499 -111.999v57c0 150 -3 255.333 -9 316c-3.33301 0.666992 -6 1 -8 1c-6.66699 0.666992 -12.5 3.66699 -17.5 9s-7.16699 11.5 -6.5 18.5s3.66699 13 9 18
s11.666 7.16699 18.999 6.5zM279.006 869.001c-1.33301 -20 -1.00195 -49.333 0.998047 -88c2 -24 3 -41.333 3 -52l1 7c1.33301 7.33301 5 22 11 44c6.66699 22.667 11.334 40 14.001 52c4 18.667 5.66699 34 5 46c0 4.66699 -0.333008 9 -1 13
c-1.33301 0 -2.66602 -0.333008 -3.99902 -1c-8 -0.666992 -19.333 -2.66699 -34 -6c2.66699 -4.66699 4 -9.66699 4 -15zM151.004 122.001c19.333 -12.667 37.9971 -20.334 55.9971 -23.001s40 -2 66 2c7.33301 0.666992 13.833 -1.16602 19.5 -5.49902
s8.83398 -10.166 9.50098 -17.499s-1.16602 -13.833 -5.49902 -19.5s-10.166 -8.83398 -17.499 -9.50098c-27.333 -4.66699 -53.833 -5 -79.5 -1s-51.167 14 -76.5 30c-6 4 -9.83301 9.5 -11.5 16.5s-0.5 13.5 3.5 19.5s9.5 9.83301 16.5 11.5s13.5 0.5 19.5 -3.5z
M153.001 23.001c31.333 -12.667 79.666 -15.6689 144.999 -9.00195c7.33301 0.666992 13.833 -1.33301 19.5 -6s8.83398 -10.5 9.50098 -17.5s-1.33301 -13.333 -6 -19s-10.334 -8.83398 -17.001 -9.50098c-74 -7.33301 -131 -3 -171 13
c-6.66699 2.66699 -11.334 7.33398 -14.001 14.001s-2.66699 13.334 0 20.001s7.33398 11.334 14.001 14.001s13.334 2.66699 20.001 0z" />
    <glyph glyph-name="quotedbl" unicode="&#x22;" horiz-adv-x="281" 
d="M150 850c6.66699 -27.333 11.668 -58.1699 15.001 -92.5029s5 -62.666 5 -84.999s-0.333008 -54.166 -1 -95.499s-1 -69.333 -1 -84c0 -7.33301 -2.5 -13.5 -7.5 -18.5s-11.167 -7.5 -18.5 -7.5s-13.5 2.5 -18.5 7.5s-7.5 11.167 -7.5 18.5
c0 16.667 0.333008 45.334 1 86.001s1 71.667 1 93s-1.5 47.833 -4.5 79.5s-7.5 60.5 -13.5 86.5c-2 6.66699 -1.16699 13.167 2.5 19.5s9 10.333 16 12s13.667 0.666992 20 -3s10.166 -9.16699 11.499 -16.5zM269.001 841.996
c-1.33301 -18.667 -1.00195 -48.666 0.998047 -89.999c2 -43.333 2.33301 -75.333 1 -96c-0.666992 -16 -2.66699 -37 -6 -63c-4 -32.667 -6.33301 -52.667 -7 -60s-3.66699 -13.333 -9 -18s-11.666 -6.66699 -18.999 -6s-13.333 3.66699 -18 9s-6.66699 11.666 -6 18.999
l7 62c3.33301 25.333 5.33301 45 6 59c0.666992 19.333 0.333984 49.666 -0.999023 90.999c-2 42 -2.33301 74.333 -1 97c0.666992 6.66699 3.66699 12.5 9 17.5s11.5 7.16699 18.5 6.5s13 -3.66699 18 -9s7.16699 -11.666 6.5 -18.999z" />
    <glyph glyph-name="numbersign" unicode="#" horiz-adv-x="922" 
d="M256 267c-45.333 -11.333 -80.332 -18.667 -104.999 -22c-22.667 -3.33301 -42 -5 -58 -5c5.33301 -43.333 14 -77 26 -101c18 -34 45 -51.333 81 -52c18 0 32 4 42 12c10 9.33301 17.333 27.333 22 54c2.66699 20.667 3.66699 41.667 3 63
c-0.666992 -4.66699 -3 -8.66699 -7 -12c-4.66699 -5.33301 -10.667 -8 -18 -8c-5.33301 0 -10 1.33301 -14 4v-4c0.666992 -2.66699 1.33398 -6.33398 2.00098 -11.001c0.666992 -8 1.33398 -14.333 2.00098 -19c0.666992 -7.33301 -1.33301 -13.833 -6 -19.5
s-10.5 -8.83398 -17.5 -9.50098s-13.333 1.33301 -19 6s-8.83398 10.334 -9.50098 17.001c-0.666992 4.66699 -1.33398 11.334 -2.00098 20.001c0 3.33301 -0.166992 5.33301 -0.5 6s-0.833008 2.66699 -1.5 6l-6 19c-2 6.66699 -1.33301 13.167 2 19.5s8.5 10.5 15.5 12.5
s13.833 1.33301 20.5 -2c4 -2 7.33301 -5.33301 10 -10c0.666992 3.33301 2.66699 6.33301 6 9c4.66699 5.33301 10.667 8 18 8s13.333 -2.66699 18 -8c1.33301 -0.666992 2.33301 -1.66699 3 -3l-2 8c-2.66699 8 -4.33398 15.333 -5.00098 22zM288.001 317.999
c4 2.66699 10.665 5.99902 19.998 9.99902c16.667 6 26 10.333 28 13c9.33301 12 14.333 31.5 15 58.5s-3.66602 56.833 -12.999 89.5c-8.66699 32.667 -20.5 60.834 -35.5 84.501s-29.5 38.834 -43.5 45.501c-7.33301 4 -25 6.33301 -53 7
c-37.333 1.33301 -62.666 -3 -75.999 -13c-15.333 -10 -32.333 -30 -51 -60s-33.667 -62.667 -45 -98c-12.667 -38 -18 -70.667 -16 -98c1.33301 -26.667 9.66602 -45.334 24.999 -56.001s49 -12 101 -4c14 2 28.667 4.5 44 7.5s31.333 6.5 48 10.5s27.334 6.33301 32.001 7
c7.33301 2 14 0.666992 20 -4zM307.999 269.998c0 -2 0.664062 -5.00293 1.99707 -9.00293c5.33301 -17.333 8.33301 -28.666 9 -33.999c2 -28.667 0.666992 -56.334 -4 -83.001c-6.66699 -38.667 -19.667 -66.334 -39 -83.001c-19.333 -18 -44.666 -26.667 -75.999 -26
c-57.333 0.666992 -99.666 27.334 -126.999 80.001c-16 31.333 -27 75 -33 131c-10 3.33301 -19 7.66602 -27 12.999c-28.667 19.333 -44.334 51 -47.001 95c-2 34 4 73 18 117c12.667 39.333 29.834 76.5 51.501 111.5s43.167 59.833 64.5 74.5
c23.333 15.333 59.333 22.333 108 21c34.667 -1.33301 59 -5 73 -11c24 -11.333 45.333 -32.166 64 -62.499s33 -64.166 43 -101.499c10.667 -31.333 15.667 -66.166 15 -104.499s-9.66699 -68.166 -27 -89.499c-7.33301 -10 -23.666 -20 -48.999 -30
c-10.667 -4 -17 -7 -19 -9zM830.996 403.995l-0.000976562 -16.001c-2 -23.333 -5.33301 -52 -10 -86c-4.66699 -34.667 -9.66699 -64 -15 -88c-3.33301 -14 -6.33301 -25.333 -9 -34c-4 -12.667 -8.66699 -21.667 -14 -27c-22 -23.333 -58 -29.666 -108 -18.999
c-2 0 -3.33301 0.333008 -4 1c-73.333 14.667 -118 55 -134 121c-5.33301 20.667 -8.33301 49 -9 85c0 3.33301 -0.166992 11.166 -0.5 23.499s-0.833008 21.833 -1.5 28.5h-5c-52.667 10 -85.667 38 -99 84c-10.667 36.667 -6.33398 80.334 12.999 131.001
c18 46.667 44 89.334 78 128.001c34.667 39.333 70.667 65 108 77c45.333 12.667 85.333 14.5 120 5.5s65 -27.167 91 -54.5c24 -25.333 42.667 -55.833 56 -91.5s21 -72.834 23 -111.501c2 -9.33301 2.33301 -25.666 1 -48.999s-5.66602 -42 -12.999 -56
c-9.33301 -16.667 -23.666 -30.334 -42.999 -41.001c-4.66699 -2.66699 -12 -6 -22 -10zM567.995 445.994c4.66699 0.666992 9.66504 1.33398 14.998 2.00098c10 1.33301 25.167 3.5 45.5 6.5s33.5 4.83301 39.5 5.5c36.667 6 65 9 85 9
c30.667 0.666992 52.334 -4.33301 65.001 -15l14 7c10 5.33301 17 11.666 21 18.999c6 11.333 8 37.666 6 78.999c-3.33301 71.333 -24.666 127.666 -63.999 168.999c-42 44 -94.667 55.667 -158 35c-28.667 -8.66699 -57.667 -29.834 -87 -63.501
s-51.666 -70.167 -66.999 -109.5c-14.667 -40 -18.334 -73 -11.001 -99c7.33301 -25.333 27 -40.666 59 -45.999c4.66699 4.66699 10 7.33398 16 8.00098c8 0.666992 15 -1.66602 21 -6.99902zM161.993 221.994c6 -24 9.99902 -45.3291 11.999 -63.9961
c0.666992 -7.33301 -1.16602 -13.833 -5.49902 -19.5s-10.166 -8.83398 -17.499 -9.50098s-13.833 1.16602 -19.5 5.49902s-8.83398 10.166 -9.50098 17.499c-2 17.333 -5.33301 36.666 -10 57.999c-2 7.33301 -1 14 3 20s9.5 9.83301 16.5 11.5s13.5 0.5 19.5 -3.5
s9.66699 -9.33301 11 -16zM659.992 366.998c-4 -24 -6 -68.6689 -6 -134.002c0 -7.33301 -2.5 -13.5 -7.5 -18.5s-11.167 -7.5 -18.5 -7.5h-2c14 -10 32.333 -17.333 55 -22c16 -3.33301 29.167 -5 39.5 -5s18.166 2.66699 23.499 8
c1.33301 2.66699 2.33301 5.33398 3 8.00098c2.66699 7.33301 5.33398 17 8.00098 29c5.33301 23.333 10.333 51.333 15 84s7.66699 60.334 9 83.001c0 6.66699 0.333008 12 1 16c-1.33301 2.66699 -2.33301 5.33398 -3 8.00098c-6 1.33301 -13.667 1.66602 -23 0.999023
c-18 0 -44.333 -2.66699 -79 -8c-5.33301 -0.666992 -18.333 -2.66699 -39 -6s-36 -5.66602 -46 -6.99902c-4 -0.666992 -8 -1 -12 -1c0.666992 -7.33301 1.16699 -17.333 1.5 -30s0.5 -20.334 0.5 -23.001c0.666992 -32 3 -56.667 7 -74c4 -14 9 -26 15 -36v1
c0 68 2 115.333 6 142c1.33301 7.33301 4.83301 13 10.5 17s12.167 5.5 19.5 4.5s13 -4.33301 17 -10s5.66699 -12.167 5 -19.5zM760.992 345.996l0.000976562 -68.999c0 -7.33301 -2.5 -13.5 -7.5 -18.5s-11.167 -7.5 -18.5 -7.5s-13.666 2.66699 -18.999 8v-15
c0 -7.33301 -2.5 -13.5 -7.5 -18.5s-11.167 -7.5 -18.5 -7.5s-13.5 2.5 -18.5 7.5s-7.5 11.167 -7.5 18.5c0 26 -1 65.333 -3 118c0 7.33301 2.33301 13.666 7 18.999s10.667 8 18 8s13.666 -2.33301 18.999 -7s8 -10.667 8 -18v-4c5.33301 8 12.666 12 21.999 12
c7.33301 0 13.5 -2.5 18.5 -7.5s7.5 -11.167 7.5 -18.5zM157.993 517.997c0 -7.33301 -2.5 -13.5 -7.5 -18.5s-11.167 -7.5 -18.5 -7.5s-13.5 2.5 -18.5 7.5s-7.5 11.167 -7.5 18.5s2.5 13.5 7.5 18.5s11.167 7.5 18.5 7.5s13.5 -2.5 18.5 -7.5s7.5 -11.167 7.5 -18.5z
M93.9932 368.997c0 -7.33301 -2.5 -13.5 -7.5 -18.5s-11.167 -7.5 -18.5 -7.5s-13.5 2.5 -18.5 7.5s-7.5 11.167 -7.5 18.5s2.5 13.5 7.5 18.5s11.167 7.5 18.5 7.5s13.5 -2.5 18.5 -7.5s7.5 -11.167 7.5 -18.5zM232.993 357.997c0 -7.33301 -2.5 -13.5 -7.5 -18.5
s-11.167 -7.5 -18.5 -7.5s-13.5 2.5 -18.5 7.5s-7.5 11.167 -7.5 18.5s2.5 13.5 7.5 18.5s11.167 7.5 18.5 7.5s13.5 -2.5 18.5 -7.5s7.5 -11.167 7.5 -18.5zM304.993 415.997c0 -7.33301 -2.5 -13.5 -7.5 -18.5s-11.167 -7.5 -18.5 -7.5s-13.5 2.5 -18.5 7.5
s-7.5 11.167 -7.5 18.5s2.5 13.5 7.5 18.5s11.167 7.5 18.5 7.5s13.5 -2.5 18.5 -7.5s7.5 -11.167 7.5 -18.5zM276.993 542.997c0 -7.33301 -2.5 -13.5 -7.5 -18.5s-11.167 -7.5 -18.5 -7.5s-13.5 2.5 -18.5 7.5s-7.5 11.167 -7.5 18.5s2.5 13.5 7.5 18.5
s11.167 7.5 18.5 7.5s13.5 -2.5 18.5 -7.5s7.5 -11.167 7.5 -18.5zM210.993 470.997c0 -7.33301 -2.5 -13.5 -7.5 -18.5s-11.167 -7.5 -18.5 -7.5s-13.5 2.5 -18.5 7.5s-7.5 11.167 -7.5 18.5s2.5 13.5 7.5 18.5s11.167 7.5 18.5 7.5s13.5 -2.5 18.5 -7.5
s7.5 -11.167 7.5 -18.5zM570.993 520.997c0 -7.33301 -2.5 -13.5 -7.5 -18.5s-11.167 -7.5 -18.5 -7.5s-13.5 2.5 -18.5 7.5s-7.5 11.167 -7.5 18.5s2.5 13.5 7.5 18.5s11.167 7.5 18.5 7.5s13.5 -2.5 18.5 -7.5s7.5 -11.167 7.5 -18.5zM610.993 648.997
c0 -7.33301 -2.5 -13.5 -7.5 -18.5s-11.167 -7.5 -18.5 -7.5s-13.5 2.5 -18.5 7.5s-7.5 11.167 -7.5 18.5s2.5 13.5 7.5 18.5s11.167 7.5 18.5 7.5s13.5 -2.5 18.5 -7.5s7.5 -11.167 7.5 -18.5zM728.993 654.997c0 -7.33301 -2.5 -13.5 -7.5 -18.5s-11.167 -7.5 -18.5 -7.5
s-13.5 2.5 -18.5 7.5s-7.5 11.167 -7.5 18.5s2.5 13.5 7.5 18.5s11.167 7.5 18.5 7.5s13.5 -2.5 18.5 -7.5s7.5 -11.167 7.5 -18.5zM715.993 542.997c0 -7.33301 -2.5 -13.5 -7.5 -18.5s-11.167 -7.5 -18.5 -7.5s-13.5 2.5 -18.5 7.5s-7.5 11.167 -7.5 18.5
s2.5 13.5 7.5 18.5s11.167 7.5 18.5 7.5s13.5 -2.5 18.5 -7.5s7.5 -11.167 7.5 -18.5zM782.993 528.997c0 -7.33301 -2.5 -13.5 -7.5 -18.5s-11.167 -7.5 -18.5 -7.5s-13.5 2.5 -18.5 7.5s-7.5 11.167 -7.5 18.5s2.5 13.5 7.5 18.5s11.167 7.5 18.5 7.5s13.5 -2.5 18.5 -7.5
s7.5 -11.167 7.5 -18.5zM828.993 565.997c0 -7.33301 -2.5 -13.5 -7.5 -18.5s-11.167 -7.5 -18.5 -7.5s-13.5 2.5 -18.5 7.5s-7.5 11.167 -7.5 18.5s2.5 13.5 7.5 18.5s11.167 7.5 18.5 7.5s13.5 -2.5 18.5 -7.5s7.5 -11.167 7.5 -18.5zM832.993 659.997
c0 -7.33301 -2.5 -13.5 -7.5 -18.5s-11.167 -7.5 -18.5 -7.5s-13.5 2.5 -18.5 7.5s-7.5 11.167 -7.5 18.5s2.5 13.5 7.5 18.5s11.167 7.5 18.5 7.5s13.5 -2.5 18.5 -7.5s7.5 -11.167 7.5 -18.5zM701.993 724.997c0 -7.33301 -2.5 -13.5 -7.5 -18.5s-11.167 -7.5 -18.5 -7.5
s-13.5 2.5 -18.5 7.5s-7.5 11.167 -7.5 18.5s2.5 13.5 7.5 18.5s11.167 7.5 18.5 7.5s13.5 -2.5 18.5 -7.5s7.5 -11.167 7.5 -18.5z" />
    <glyph glyph-name="dollar" unicode="$" horiz-adv-x="746" 
d="M569 643l60.999 24c8 3.33301 15.333 3 22 -1l3 7l-31 20l-48 33c-3.33301 -22.667 -4.66602 -46 -3.99902 -70c0 -4.66699 -1 -9 -3 -13zM595.999 598c4.66699 -4.66699 7.33301 -9.66699 8 -15c1.33301 -13.333 4 -30 8 -50l24 80zM169.998 405
c26.667 -8 61.333 -29.332 104 -63.999l94 -78c10.667 -6.66699 21.334 -14.334 32.001 -23.001l-2 4c-20 44 -37.333 78.333 -52 103l-30 44c-14.667 21.333 -25 37 -31 47c-4.66699 8 -5.33398 16 -2.00098 24zM132.997 594.001l-5.00098 -8
c-3.33301 -21.333 -9 -49 -17 -83c-12 -45.333 -19 -72.333 -21 -81c62.667 34 130.334 68 203.001 102c-7.33301 3.33301 -15 7.33301 -23 12l-28 14l-23 12c-32 16 -59 26.333 -81 31c-2 0 -3.66699 0.333008 -5 1zM407.996 704.001
c-14.667 -72 -23.333 -118.668 -26 -140.001l151 64c-3.33301 0.666992 -6.33301 2 -9 4c-10 6 -28 17.833 -54 35.5s-46.667 29.834 -62 36.501zM520.997 696c1.33301 20 4.33496 40.668 9.00195 62.001l-37 24c-9.33301 6 -17 10.333 -23 13c-3.33301 2 -5.33301 3 -6 3
c-2.66699 0 -7.33398 -1.33301 -14.001 -4c-9.33301 -3.33301 -21.333 -8.66602 -36 -15.999c-20.667 -10.667 -53.667 -29.334 -99 -56.001c-54 -32 -89.333 -52.333 -106 -61s-31.334 -16 -44.001 -22c22 -6 47.667 -16.333 77 -31c53.333 -26.667 81 -40.334 83 -41.001
s3.66699 -1.66699 5 -3c2 22 11.667 74.333 29 157c2 12.667 9.66699 19.667 23 21c2 6.66699 6.33301 11.5 13 14.5s13.334 3.16699 20.001 0.5c23.333 -8 58.666 -28.333 105.999 -61zM587.999 444.001c-8.66699 4 -14 10.668 -16 20.001
c-1.33301 10.667 -4.66602 28.667 -9.99902 54c-4.66699 24 -8 43 -10 57v5l-52 -22c3.33301 -3.33301 5.66602 -7 6.99902 -11c24 -92.667 39 -181.667 45 -267l26 118c2.66699 15.333 6 30.666 10 45.999zM136.999 687.002c44 40.667 90.3311 76.9971 138.998 108.997
c97.333 63.333 175.333 87.666 234 72.999c9.33301 -2 18.666 -5.16699 27.999 -9.5s18.666 -9.83301 27.999 -16.5s17 -12.334 23 -17.001l23 -20c8.66699 -8 14.334 -13 17.001 -15l52 -44l32 -27l10 -9l4 -3l1 -2l2 -1c0.666992 -0.666992 1.33398 -1.66699 2.00098 -3
c2 -3.33301 3.33301 -7.33301 4 -12c0.666992 -10 -2.66602 -23.667 -9.99902 -41c-4 -11.333 -10.667 -26 -20 -44l-37 -71c-4.66699 -12 -9 -25 -13 -39c-9.33301 -35.333 -18.333 -71.333 -27 -108v-2c-2 -8 -3.66699 -19 -5 -33l-6 -50c-2.66699 -20 -5 -36.667 -7 -50
c-4 -31.333 -8.33301 -56.666 -13 -75.999c-6 -27.333 -13 -46.666 -21 -57.999l-2 -3l-1 -9c-2 -10 -7.66699 -16.667 -17 -20l-2 -4c-4 -6 -9.5 -9.5 -16.5 -10.5s-13.5 0.5 -19.5 4.5c-18 12.667 -41.667 31.667 -71 57l-67 51l-44 37l-18 10
c-22 12.667 -65.333 34.334 -130 65.001c-45.333 21.333 -79.666 38.333 -102.999 51c-12 -2 -23 -0.333008 -33 5c-26.667 14 -38.334 40.667 -35.001 80c2 25.333 10.667 57 26 95c8.66699 22.667 20 47.667 34 75c1.33301 8.66699 2.33301 16.834 3 24.501
s4.33398 13.834 11.001 18.501h-1c-1.33301 7.33301 0.166992 14 4.5 20s9.83301 9.66699 16.5 11c2 0 4.33301 0.333008 7 1c4.66699 6 10.667 9.33301 18 10zM328.997 465.999c6 -10 15.998 -24.999 29.998 -44.999s24.333 -36 31 -48c16 -26 34.333 -61.667 55 -107
c25.333 -52.667 42 -86.667 50 -102c11.333 -8 21 -14 29 -18c1.33301 -0.666992 2.33301 -1.33398 3 -2.00098l12 64c-3.33301 -1.33301 -6.33301 -2 -9 -2c-7.33301 0 -13.666 2.33301 -18.999 7s-8 10.667 -8 18c-3.33301 91.333 -18.666 192 -45.999 302
c-0.666992 2.66699 -1 5 -1 7l-141 -63c6 -2 10.667 -5.66699 14 -11z" />
    <glyph glyph-name="percent" unicode="%" horiz-adv-x="935" 
d="M567 572c-23.333 -32.667 -44.332 -60.3379 -62.999 -83.0049l-37 -45c28 -26 56.667 -43.833 86 -53.5s65.666 -14.5 108.999 -14.5c26.667 36.667 53 78.334 79 125.001l17 30c-17.333 -5.33301 -34.5 -8.16602 -51.5 -8.49902s-33.5 1.83398 -49.5 6.50098
s-31 10.334 -45 17.001s-29 15.334 -45 26.001zM669.001 712.996l-89 -123.004c23.333 -14.667 44.166 -25.667 62.499 -33s39 -11.166 62 -11.499s45.833 4.5 68.5 14.5c29.333 56.667 52.666 109.667 69.999 159c16.667 97.333 9.33398 183.666 -21.999 258.999
c-2 4.66699 -6 11.334 -12 20.001l-33 -6l-2 -1l-20 -11c-18.667 -10 -45 -22.667 -79 -38c-18.667 -64.667 -23.334 -116.667 -14.001 -156c25.333 30 50 56.667 74 80c10 9.33301 20.667 10.333 32 3l4 -2c2.66699 -2 4.33398 -4.66699 5.00098 -8
c6 -11.333 4.33301 -21.666 -5 -30.999c-28.667 -27.333 -58 -60 -88 -98c22.667 -14 43 -23.333 61 -28c14.667 -4 27.334 -4.66699 38.001 -2c10.667 3.33301 19 11 25 23c3.33301 6.66699 8.33301 8.33398 15 5.00098s8.33398 -8.33301 5.00098 -15
c-8.66699 -17.333 -21.667 -28.666 -39 -33.999c-14.667 -4 -31.334 -3.33301 -50.001 2c-20.667 5.33301 -43.667 16 -69 32zM190.001 207.992c-1.33301 22 -2.00098 43.668 -2.00098 65.001c-1.33301 -24.667 -0.666016 -46.334 2.00098 -65.001zM838 1002.99l-6 -1.00098
c4 -5.33301 7 -10.666 9 -15.999c18 -42.667 28.333 -89 31 -139c1.33301 15.333 2 30.666 2 45.999c-6 48.667 -18 85.334 -36 110.001zM243 163.992c0.666992 -3.33301 0.999023 -6.66797 0.999023 -10.001c44 -11.333 91 -7.66602 141 11.001s103.333 47.334 160 86.001
c30 20 63.667 54.333 101 103c-41.333 1.33301 -76.666 7.33301 -105.999 18s-58.333 29 -87 55c-8.66699 -10.667 -24.334 -29 -47.001 -55l-59 -68l-45 -56c21.333 -8.66699 40.333 -14.667 57 -18s34.334 -3.5 53.001 -0.5s35.667 10.5 51 22.5
c6 4 11.167 3.16699 15.5 -2.5s3.83301 -10.834 -1.5 -15.501c-19.333 -14.667 -40.5 -23.667 -63.5 -27s-43.833 -2.83301 -62.5 1.5s-39.667 11.5 -63 21.5c-17.333 -23.333 -32.333 -45.333 -45 -66zM517.999 598.99c-29.333 95.333 -29.3301 172.334 0.00292969 231.001
c3.33301 6.66699 8.33301 8.33398 15 5.00098s8.33398 -8.33301 5.00098 -15c-26 -52 -26.667 -119.333 -2 -202c51.333 72 87.333 121 108 147c-14.667 44.667 -13.334 99.667 3.99902 165l-3 -2c-106.667 -48.667 -170 -80 -190 -94c-22.667 -17.333 -44 -36 -64 -56
c-68 -70 -116.5 -154.667 -145.5 -254s-40.167 -203.333 -33.5 -312c11.333 17.333 24.333 35.666 39 54.999c-4.66699 34.667 -3.33398 72 3.99902 112s19 74.333 35 103c4 6.66699 9.16699 8.16699 15.5 4.5s7.83301 -8.5 4.5 -14.5
c-13.333 -24 -23.666 -52.5 -30.999 -85.5s-10 -64.5 -8 -94.5c11.333 14.667 58.666 70.667 141.999 168c-18.667 26 -32.334 52.667 -41.001 80c-14 44.667 -12.333 82.667 5 114c4 6.66699 9.16699 8.16699 15.5 4.5s7.83301 -8.5 4.5 -14.5
c-14.667 -26.667 -16 -59.334 -4 -98.001c7.33301 -22.667 19 -45.667 35 -69l36 44c16 20 34.667 45 56 75c-0.666992 0.666992 -1.33398 1.66699 -2.00098 3zM30.002 78.9912c15.333 6 35.998 17.332 61.998 33.999c31.333 20 54.333 33.333 69 40
c0.666992 2 1.33398 3.66699 2.00098 5c-12 12 -21.333 28 -28 48c-10.667 31.333 -14.667 72.333 -12 123c2.66699 40.667 9 82 19 124c9.33301 42 19 74.333 29 97c101.333 231.333 249 383.333 443 456c30 11.333 75.333 22.666 136 33.999c61.333 11.333 96 18 104 20
c2 0.666992 4 1 6 1c4 3.33301 8.33301 5.33301 13 6c6.66699 2 13 1 19 -3s9.66699 -9.66699 11 -17c6 -26 10.5 -47.5 13.5 -64.5s5.5 -36.5 7.5 -58.5s2.5 -43.667 1.5 -65s-3.5 -43.666 -7.5 -66.999c-7.33301 -39.333 -23 -87.666 -47 -144.999
c-23.333 -56 -51.666 -113.333 -84.999 -172c-76.667 -135.333 -147 -224.666 -211 -267.999l-65 -41c-20 -11.333 -44.167 -23.333 -72.5 -36s-55 -21.834 -80 -27.501s-52 -7.66699 -81 -6s-56.167 8.16699 -81.5 19.5c-2.66699 -4.66699 -6.33398 -8 -11.001 -10
c-13.333 -6 -34.333 -18 -63 -36c-13.333 -8.66699 -24.333 -15.334 -33 -20.001c-11.333 -10 -21.666 -17.667 -30.999 -23c-6 -4 -11 -3.33301 -15 2c-13.333 -1.33301 -22.333 4.33398 -27 17.001c-2.66699 6.66699 -2.5 13.167 0.5 19.5s7.83301 10.833 14.5 13.5z" />
    <glyph glyph-name="ampersand" unicode="&#x26;" horiz-adv-x="481" 
d="M379 305h1h-1zM460 568l5.99609 -9.00684c4 -6 5.5 -12.5 4.5 -19.5s-4.5 -12.5 -10.5 -16.5s-12.5 -5.5 -19.5 -4.5s-12.5 4.5 -16.5 10.5c-40 56 -69 93 -87 111c-30 18.667 -58 32.334 -84 41.001c-40 12.667 -64.333 10 -73 -8c-18 -36 -6.33301 -94 35 -174
c30.667 -59.333 65.334 -109.666 104.001 -150.999l22 -17c2 -1.33301 9.66699 -4.66602 23 -9.99902c16 -7.33301 27.667 -15.666 35 -24.999c4.66699 -6 6.33398 -12.667 5.00098 -20c-2 -11.333 -8 -18.333 -18 -21l-13 -1c-2 0 -5 0.666992 -9 2
c-10 2 -17.333 3.33301 -22 4c-17.333 3.33301 -27.666 3.33301 -30.999 0c-11.333 -10.667 -15 -21 -11 -31c4 -10.667 15.667 -24 35 -40c5.33301 -4.66699 8.33301 -10.667 9 -18s-1.33301 -13.666 -6 -18.999s-10.667 -8.33301 -18 -9s-13.666 1.33301 -18.999 6
c-25.333 22 -42 42.333 -50 61c-12.667 32.667 -4.66699 62 24 88c4 3.33301 8 6 12 8l-3 3c-70 56 -118.667 121 -146 195c-20 54 -29 103.333 -27 148c1.33301 32 9.33301 57.333 24 76c18.667 24 45.667 34.333 81 31c44 -4 85.667 -21.667 125 -53
c10 -7.33301 19.667 -15.666 29 -24.999l15 -9c13.333 -9.33301 27 -24 41 -44l15 -22l13 -19c4.66699 -5.33301 6.66699 -11.666 6 -18.999zM267.996 786.993c-1.33301 4 -2.66504 8.33105 -3.99805 12.998l-3 12c-0.666992 2.66699 -1.33398 5 -2.00098 7v31
c0 7.33301 2.5 13.5 7.5 18.5s11.167 7.5 18.5 7.5s13.5 -2.5 18.5 -7.5s7.5 -11.167 7.5 -18.5v-9v-6v-4v-3v-1c0 -0.666992 0.166992 -1.5 0.5 -2.5s0.666016 -2.16699 0.999023 -3.5s0.833008 -3.66602 1.5 -6.99902l4 -13c2 -7.33301 1.16699 -14 -2.5 -20
s-9 -10 -16 -12s-13.5 -1.16699 -19.5 2.5s-10 8.83398 -12 15.501zM323.997 76.9912c2.66699 -34.667 6.33398 -69.9971 11.001 -105.997c0.666992 -6.66699 -1.16602 -12.834 -5.49902 -18.501s-10 -9 -17 -10s-13.333 0.666992 -19 5s-9.16699 10.166 -10.5 17.499
c-4.66699 36 -8.33398 72 -11.001 108c-0.666992 7.33301 1.33301 13.666 6 18.999s10.667 8.33301 18 9s13.666 -1.33301 18.999 -6s8.33301 -10.667 9 -18z" />
    <glyph glyph-name="quotesingle" unicode="'" horiz-adv-x="211" 
d="M196 837c2 -21.333 3.66895 -61.667 5.00195 -121c0.666992 -30 0.666992 -54.333 0 -73c0 -10.667 -0.333008 -19.334 -1 -26.001c-0.666992 -4 -1.33398 -7.66699 -2.00098 -11c-0.666992 -2 -1.66699 -4.33301 -3 -7c-2.66699 -5.33301 -6.66699 -9.33301 -12 -12
c-6 -2.66699 -11.5 -3.5 -16.5 -2.5s-8.83301 2.83301 -11.5 5.5l-4 4c-2 2 -3.33301 4 -4 6c-0.666992 1.33301 -1 2.33301 -1 3s-0.166992 1.16699 -0.5 1.5s-0.5 0.833008 -0.5 1.5v2l-1 4l-2 16l-6 56c-6 61.333 -9 115.333 -9 162c0 7.33301 2.5 13.5 7.5 18.5
s11.167 7.5 18.5 7.5c9.33301 0 16.666 -3.66699 21.999 -11c5.33301 -1.33301 10 -4.16602 14 -8.49902s6.33301 -9.5 7 -15.5z" />
    <glyph glyph-name="parenleft" unicode="(" horiz-adv-x="353" 
d="M181 -33c-10.667 0.666992 -18.333 5.66699 -23 15c-76 165.333 -72 386 12 662c1.33301 4.66699 3.66602 10.667 6.99902 18c13.333 47.333 29 91 47 131l35 73c5.33301 9.33301 9.33301 16 12 20c3.33301 5.33301 6.66602 9 9.99902 11c10 6 19.667 6 29 0
c6 2 12 1.66699 18 -1s10.333 -7 13 -13c2.66699 -6.66699 2.83398 -13.334 0.500977 -20.001s-6.83301 -11.667 -13.5 -15c-4.66699 -2 -9.66699 -6 -15 -12c-2 -4.66699 -4 -9.66699 -6 -15c-6.66699 -16.667 -17.334 -40.334 -32.001 -71.001l-22 -45
c-10 -35.333 -19.667 -76 -29 -122c-15.333 -75.333 -27 -152.666 -35 -231.999c0.666992 -63.333 6.66699 -143.333 18 -240c0.666992 -7.33301 5.33398 -28.333 14.001 -63c8.66699 -32 12.334 -55.667 11.001 -71c0 -2 -0.333008 -4 -1 -6
c-2 -7.33301 -6 -12.666 -12 -15.999c-10.667 -6.66699 -20.667 -6 -30 2c-2.66699 2 -5 4.33301 -7 7c0 0.666992 -0.333008 1.66699 -1 3z" />
    <glyph glyph-name="parenright" unicode=")" horiz-adv-x="262" 
d="M122 843c-6.66699 12 -13.668 22.333 -21.001 31c-4.66699 6 -6.66699 12.5 -6 19.5s3.83398 12.833 9.50098 17.5s12 6.66699 19 6s12.833 -3.66699 17.5 -9c8.66699 -10.667 17 -23 25 -37l3 -3c1.33301 -2 2.66602 -4.33301 3.99902 -7l3 -9c6 -12 11.333 -25 16 -39
c8 -14.667 14.667 -31.667 20 -51c18.667 -64 31 -130.667 37 -200c8.66699 -97.333 -2.33301 -221.333 -33 -372c-8.66699 -74.667 -22.667 -134.334 -42 -179.001l-1 -3c-0.666992 -6 -1.33398 -9.33301 -2.00098 -10c-1.33301 -6.66699 -3.66602 -12 -6.99902 -16
c-4.66699 -6 -10.667 -9.66699 -18 -11c-6.66699 -1.33301 -13.334 0 -20.001 4c-6 3.33301 -10 8 -12 14c-0.666992 2 -1 4.33301 -1 7v6c0 1.33301 0.333008 3.33301 1 6c1.33301 3.33301 2.66602 8.33301 3.99902 15l7 23c0 2.66699 0.333008 5.33398 1 8.00098
c24 86.667 40 186.667 48 300c4 62 1.33301 136 -8 222c-1.33301 10.667 -3.16602 28.667 -5.49902 54s-4.66602 47.333 -6.99902 66s-5.16602 36.667 -8.49902 54c-0.666992 5.33301 -4.66699 20.333 -12 45c-6 19.333 -9.66699 35.333 -11 48z" />
    <glyph glyph-name="asterisk" unicode="*" horiz-adv-x="709" 
d="M572 84l-0.00488281 3.00293l-36 71l-14 30c-15.333 19.333 -27.333 35 -36 47c-19.333 27.333 -30.333 48.333 -33 63c-2.66699 20 5 42.333 23 67c12 16 29.667 35 53 57l57 50c-8 -2 -16.667 -4.66699 -26 -8l-46 -22c-42 -20 -75.667 -33.667 -101 -41
c-41.333 -11.333 -71.333 -9.33301 -90 6c-4 3.33301 -7.66699 9 -11 17c-1.33301 3.33301 -2.66602 8 -3.99902 14c-2.66699 9.33301 -6 22 -10 38l-9 38c-2.66699 12 -4.33398 19 -5.00098 21c-10 32.667 -29 82.334 -57 149.001l-28 64
c-1.33301 -23.333 -3.33301 -61.333 -6 -114l-5 -98c-1.33301 -36.667 -2.66602 -66.834 -3.99902 -90.501s-2 -38.834 -2 -45.501v-2c0 -2 -0.166992 -4.5 -0.5 -7.5s-0.5 -6.33301 -0.5 -10s-0.166992 -8 -0.5 -13s-0.833008 -9.5 -1.5 -13.5
c0 -9.33301 -0.333008 -17.333 -1 -24c6.66699 -2 11.667 -5.66699 15 -11c4 -6 5.16699 -12.5 3.5 -19.5s-5.5 -12.5 -11.5 -16.5c-5.33301 -3.33301 -16.666 -11.666 -33.999 -24.999v-4c0 -7.33301 -2.66699 -13.333 -8 -18s-11.666 -7 -18.999 -7h-2
c-12.667 -14.667 -23.334 -27.667 -32.001 -39l-12 -17c24.667 2.66699 42 4 52 4h3c22 7.33301 39 11.666 51 12.999s22 1 30 -1c14 -4 23.333 -12.333 28 -25c2 -4 2.66699 -8.66699 2 -14c0 -1.33301 -0.333008 -3 -1 -5
c-0.666992 -2.66699 -1.66699 -6.33398 -3 -11.001l-1 -2c0.666992 -0.666992 1.33398 -1.66699 2.00098 -3c2.66699 -2 4.5 -4.33301 5.5 -7s1.83301 -4.66699 2.5 -6v-3v-4v-4c-0.666992 -2 -1.33398 -4.33301 -2.00098 -7c-0.666992 -3.33301 -2 -9.66602 -4 -18.999
c-6.66699 -32 -10.667 -51 -12 -57c-1.33301 -8.66699 -2.66602 -16.334 -3.99902 -23.001l12 7l36 40c23.333 28 43 48.667 59 62c25.333 21.333 49.333 32.666 72 33.999c4.66699 0 10.334 -0.333008 17.001 -1c6.66699 2 12.667 3 18 3c2.66699 0 6 -0.666992 10 -2
c4.66699 1.33301 9.33398 2 14.001 2c10.667 -0.666992 23.667 -5.66699 39 -15c6.66699 -4 18.667 -12 36 -24c14 -10 24 -16.667 30 -20zM381.995 462.003h1.99805c7.33301 0.666992 16.666 2.66699 27.999 6c16 4 43.667 13 83 27l45 17c19.333 9.33301 34 16 44 20
c15.333 6.66699 27.333 11.334 36 14.001c6.66699 2 12.334 3 17.001 3c9.33301 0.666992 17.333 -1.33301 24 -6c3.33301 -2.66699 6 -5.66699 8 -9c17.333 -5.33301 27.333 -16 30 -32c2 -12 -1.66699 -25 -11 -39c-10 -16 -29.667 -37.333 -59 -64l-71 -61l-4 -3
c0 -5.33301 0.333008 -10 1 -14s6 -20 16 -48c15.333 -40 25.666 -69.333 30.999 -88c3.33301 -8.66699 6 -17 8 -25l25 -33c8 -11.333 14 -21 18 -29c6.66699 -12.667 9.33398 -23.667 8.00098 -33c-2 -14 -7.66699 -25 -17 -33c-1.33301 -4.66699 -4 -8.66699 -8 -12
c-4.66699 -5.33301 -10.667 -8 -18 -8c-2 -0.666992 -4.5 -0.666992 -7.5 0s-6.5 1.66699 -10.5 3l-22 9l-14 6c-10 3.33301 -21.333 8 -34 14l-33 16c-18.667 8 -34.667 14.333 -48 19l-5 2l-22 -14l-93 -64l-30 -20l-44 -37l-25 -21l-9 -6
c-1.33301 -1.33301 -2.66602 -2.33301 -3.99902 -3c-2 -1.33301 -3.66699 -2 -5 -2c-4 -1.33301 -7.66699 -2 -11 -2c-2.66699 -0.666992 -5 -1 -7 -1c-12.667 -2.66699 -24 -1 -34 5c-4 0.666992 -7.66699 1.66699 -11 3c-23.333 9.33301 -34 29.666 -32 60.999
c1.33301 14 6.33301 35.333 15 64c8.66699 26.667 14 44.667 16 54c-7.33301 0 -15.333 -0.333008 -24 -1c-6.66699 -0.666992 -16.5 -1.33398 -29.5 -2.00098s-22.167 -1.33398 -27.5 -2.00098h-23c-3.33301 0 -6.66602 0.333008 -9.99902 1c-6 1.33301 -11 3.33301 -15 6
l-2 2c-25.333 8.66699 -39.666 23.334 -42.999 44.001c-0.666992 6.66699 0.666016 13.334 3.99902 20.001c1.33301 2.66699 3 5.66699 5 9l2 4c1.33301 2.66699 3.33301 6 6 10c4 4.66699 9.66699 10.667 17 18l47 45l45 41c1.33301 32.667 3.5 77.5 6.5 134.5
s5.33301 109.167 7 156.5s2.5 92 2.5 134l-1 16c-0.666992 11.333 -1 21.333 -1 30s0.666992 19.334 2 32.001c2 22 7.66699 38 17 48c8 8.66699 17.667 13.334 29 14.001c5.33301 6.66699 12 10.167 20 10.5s15 -2.5 21 -8.5c4 -4 7.33301 -9.33301 10 -16l2 -6
c0.666992 -2 1.16699 -3.33301 1.5 -4s0.5 -1.33398 0.5 -2.00098s0.333008 -1 1 -1l11 -21c30 -42 59.333 -102.333 88 -181c33.333 -90.667 55 -146.334 65 -167.001z" />
    <glyph glyph-name="plus" unicode="+" horiz-adv-x="824" 
d="M461 481c4.66699 -11.333 2.33008 -21.0039 -7.00293 -29.0039c2 -3.33301 3.66699 -6.66602 5 -9.99902c4 -6 5 -12.5 3 -19.5s-6 -12.167 -12 -15.5c-12 -7.33301 -22.667 -6 -32 4c-6.66699 -2 -13 -1.66699 -19 1c-6.66699 3.33301 -11.167 8.33301 -13.5 15
s-2.16602 13.334 0.500977 20.001l3 6c-1.33301 5.33301 -1.33301 10.333 0 15c-1.33301 4 -4.83301 13.167 -10.5 27.5s-10.167 24.833 -13.5 31.5c-29.333 66 -64.5 126.167 -105.5 180.5s-86.833 96.833 -137.5 127.5c-1.33301 0.666992 -3 1.66699 -5 3
c-6.66699 -1.33301 -11.667 -4.66602 -15 -9.99902c-12 -18 -13.667 -53 -5 -105c2.66699 -17.333 6.33398 -35.333 11.001 -54c12 -29.333 30.667 -71.833 56 -127.5s43.666 -97.167 54.999 -124.5c6 -14.667 23.5 -62 52.5 -142s54.833 -139 77.5 -177
c0.666992 4 2 7.66699 4 11l25 43l3 7c16.667 37.333 30.334 66 41.001 86c28.667 55.333 71.334 131.666 128.001 228.999c57.333 98.667 98.333 171.334 123 218.001c1.33301 2.66699 3.66602 6.66699 6.99902 12l11 19c4.66699 8 8.66699 15.333 12 22
c3.33301 9.33301 6.33301 18.333 9 27c6.66699 22.667 10.334 41.334 11.001 56.001l-45 -46c-88 -94 -160.333 -194.333 -217 -301zM416.996 585.996c10.667 32 25.3311 64.6689 43.998 98.002c40 73.333 83 129.333 129 168c26 21.333 48.667 36.666 68 45.999
c20.667 10 39.334 14.667 56.001 14c4 1.33301 7.66699 2.33301 11 3c8.66699 2 17 2.33301 25 1c5.33301 3.33301 10.333 5.66602 15 6.99902c13.333 4 24.666 2 33.999 -6s14.333 -19.667 15 -35c0 -9.33301 -1.66699 -20.333 -5 -33c-5.33301 -18 -15 -41.333 -29 -70
c-6 -12.667 -13.333 -26.667 -22 -42l-10 -20c-6.66699 -20 -16 -43.333 -28 -70c-85.333 -196 -187.666 -377.667 -306.999 -545c-9.33301 -20 -17.666 -37 -24.999 -51c-3.33301 -6 -8.33301 -10.167 -15 -12.5s-13.334 -1.83301 -20.001 1.5
c-6 -3.33301 -12.333 -4.16602 -19 -2.49902s-12 5.5 -16 11.5c-7.33301 11.333 -14.333 23 -21 35c-12 -0.666992 -20.333 4.66602 -25 15.999c-11.333 26 -25.666 63 -42.999 111l-5 14c-49.333 98 -90.333 188.667 -123 272
c-32.667 84.667 -54.334 155.334 -65.001 212.001c-10.667 30 -18 56.333 -22 79c-5.33301 28 -6 51 -2 69c6.66699 28 22.667 45.667 48 53c8 2 18.333 1 31 -3c6.66699 -2 14.334 -5 23.001 -9c10.667 -1.33301 22.667 -4.33301 36 -9
c7.33301 -2.66699 15.333 -6.33398 24 -11.001c29.333 -12 58.5 -31.333 87.5 -58s52.167 -55 69.5 -85c8 -12.667 21.5 -36.167 40.5 -70.5s34.167 -60.5 45.5 -78.5z" />
    <glyph glyph-name="comma" unicode="," horiz-adv-x="207" 
d="M197 98c2.66699 -38.667 -1 -71.333 -11 -98l-2 -20c-8 -51.333 -37.333 -82.666 -88 -93.999c-7.33301 -2 -14 -1 -20 3s-9.66699 9.33301 -11 16c-3.33301 13.333 1 23 13 29c-0.666992 8.66699 2.33301 16 9 22c22.667 18.667 38.334 37.334 47.001 56.001
c0 1.33301 -2 29.666 -6 84.999c-0.666992 7.33301 1.33301 13.666 6 18.999s10.667 8.33301 18 9c5.33301 0.666992 10.333 -0.333008 15 -3h2c7.33301 0.666992 13.666 -1.5 18.999 -6.5s8.33301 -10.833 9 -17.5z" />
    <glyph glyph-name="hyphen" unicode="-" horiz-adv-x="362" 
d="M93 381c64 7.33301 112.667 11.666 146 12.999c38.667 2 65.334 2.33301 80.001 1c4 -0.666992 7.33301 -1 10 -1c7.33301 -2 13 -5.33301 17 -10c7.33301 -8 8.66602 -17.333 3.99902 -28c-2 -4.66699 -5.33301 -8.66699 -10 -12
c-2.66699 -1.33301 -6 -2.66602 -10 -3.99902c-10 -2.66699 -26.667 -4.33398 -50 -5.00098c-26.667 -0.666992 -41.334 -1 -44.001 -1c-14 -1.33301 -37 -4.33301 -69 -9c-31.333 -5.33301 -55.666 -8.66602 -72.999 -9.99902
c-7.33301 -0.666992 -13.666 1.33301 -18.999 6s-8.33301 10.667 -9 18c-0.666992 6 0.666016 11.333 3.99902 16c0 6.66699 2.16699 12.5 6.5 17.5s9.83301 7.83301 16.5 8.5z" />
    <glyph glyph-name="period" unicode="." horiz-adv-x="247" 
d="M142 126c1.33301 0.666992 4.66699 1.33203 10 1.99902l12 3c19.333 3.33301 35.333 2.33301 48 -3c23.333 -8.66699 31 -27.667 23 -57c-4 -14 -12.333 -31.667 -25 -53c-18.667 -30.667 -37 -56.334 -55 -77.001c-5.33301 -5.33301 -11.5 -8.33301 -18.5 -9
s-13.167 1.33301 -18.5 6c-6.66699 6 -9.66699 13.667 -9 23c-2 0.666992 -3.66699 1.33398 -5 2.00098l-35 23c-18 12 -29.667 20.667 -35 26c-11.333 11.333 -19.833 25.833 -25.5 43.5s-7.16699 34.5 -4.5 50.5c3.33301 20.667 13.333 35.334 30 44.001
c17.333 8.66699 38 8.33398 62 -0.999023c18 -6.66699 33.333 -14.334 46 -23.001zM165.001 43.998c-4 0.666992 -7.66699 2.33008 -11 4.99707c-19.333 16.667 -29.333 25.334 -30 26.001c-4 1.33301 -7.33301 4 -10 8c-10 6 -22 12 -36 18
c-10 3.33301 -16.667 4.33301 -20 3c-2 -2.66699 -3 -5 -3 -7c-1.33301 -7.33301 -0.333008 -15.833 3 -25.5s8 -17.5 14 -23.5c2 -2 10.667 -8.33301 26 -19l34 -22c2 -1.33301 3.66699 -2.66602 5 -3.99902c10.667 14.667 20 28.334 28 41.001z" />
    <glyph glyph-name="slash" unicode="/" horiz-adv-x="442" 
d="M97 55c-6 2.66699 -10.667 7.00098 -14 13.001s-4 12.333 -2 19l62 211c15.333 51.333 36.333 115 63 191s53.334 144.667 80.001 206c28.667 74.667 50.667 129 66 163c0.666992 0.666992 1.66699 2.66699 3 6s3.33301 8 6 14s5 11 7 15l10 23l3 8
c0.666992 1.33301 1.33398 2.33301 2.00098 3s1 1.66699 1 3l5 5c4 3.33301 8.66699 5.33301 14 6c12 1.33301 20.667 -3.33398 26 -14.001c2.66699 -6 3.66699 -12.667 3 -20c-0.666992 -3.33301 -1.33398 -7 -2.00098 -11c-2 -7.33301 -5.33301 -16.333 -10 -27
c-6.66699 -18 -16.334 -41.667 -29.001 -71l-52 -113l-5 -10l-9 -23c-44.667 -116.667 -82.167 -220.5 -112.5 -311.5s-55.5 -180.833 -75.5 -269.5c-1.33301 -6.66699 -5 -12 -11 -16s-12.667 -5 -20 -3c-2.66699 0.666992 -5.66699 1.66699 -9 3z" />
    <glyph glyph-name="zero" unicode="0" horiz-adv-x="417" 
d="M53 269c-35.333 150.667 -25.334 303.332 29.999 457.999c16 46 33.333 83.333 52 112c-1.33301 2.66699 -2 5.66699 -2 9c0 7.33301 2.5 13.666 7.5 18.999s10.833 8 17.5 8h5c29.333 30.667 60.666 42.334 93.999 35.001
c38.667 -8.66699 69.334 -37.334 92.001 -86.001c12.667 -28 23.667 -65 33 -111c4 -21.333 7 -47.666 9 -78.999c9.33301 -51.333 15 -105.333 17 -162c2 -91.333 -5.66699 -172 -23 -242c-16.667 -67.333 -41 -114.666 -73 -141.999c-40 -50.667 -83 -72 -129 -64
c-61.333 10.667 -100.666 56.667 -117.999 138c-6.66699 29.333 -10.667 65 -12 107zM188.999 800.998l-10.001 -27c-3.33301 -9.33301 -6.66602 -19.666 -9.99902 -30.999l-8 -28c-2 -7.33301 -4.33301 -17.666 -7 -30.999l-7 -28c-1.33301 -6 -3.5 -16.833 -6.5 -32.5
s-4.83301 -25.5 -5.5 -29.5s-2.66699 -14.833 -6 -32.5s-5 -27.834 -5 -30.501c-12.667 -68 -19 -133.333 -19 -196v-60c4.66699 -18 10 -36 16 -54c11.333 -34 31.333 -62.667 60 -86c30.667 -24 59.334 -29 86.001 -15c2.66699 1.33301 5 3 7 5c34 47.333 56 139 66 275
c5.33301 79.333 5.33301 155 0 227c-4.66699 25.333 -10.334 48.666 -17.001 69.999c-19.333 66 -43 106 -71 120c-12.667 6 -34 8.33301 -64 7c4 -7.33301 4.33301 -15 1 -23z" />
    <glyph glyph-name="one" unicode="1" horiz-adv-x="170" 
d="M152 8c0 -6 -0.333984 -11.334 -1.00098 -16.001l-2 -6c-2.66699 -6.66699 -7.33398 -11.667 -14.001 -15c-11.333 -4.66699 -21.333 -2.66699 -30 6c-2 2.66699 -3.66699 5.5 -5 8.5s-2.66602 7.16699 -3.99902 12.5s-2.66602 12.666 -3.99902 21.999
c-0.666992 8 -1.33398 16.667 -2.00098 26s-1 19.333 -1 30v23l-1 26c-1.33301 10.667 -2 19.334 -2 26.001c-0.666992 19.333 -1 39 -1 59l-1 29c-5.33301 150.667 -7.33301 256 -6 316c0 13.333 0.833008 32.666 2.5 57.999s2.83398 45.666 3.50098 60.999
s0 32.833 -2 52.5s-5.66699 37.167 -11 52.5c-2.66699 6.66699 -2.5 13.167 0.5 19.5s7.83301 10.833 14.5 13.5c-0.666992 4.66699 -1 7.66699 -1 9v12c0 2 0.333008 4 1 6c1.33301 4 3.33301 7.33301 6 10c4 4.66699 9 7.66699 15 9
c6.66699 0.666992 12.667 -0.666016 18 -3.99902c4 -2.66699 7 -6 9 -10l2 -4c0.666992 -1.33301 1 -2.66602 1 -3.99902c5.33301 -20.667 9 -44.5 11 -71.5s3 -50.333 3 -70s-0.333008 -45 -1 -76s-1 -52.5 -1 -64.5c0 -23.333 -0.166992 -65.666 -0.5 -126.999
s-0.5 -108 -0.5 -140s1 -72.833 3 -122.5s5 -94.5 9 -134.5c0.666992 -8.66699 -2 -16 -8 -22z" />
    <glyph glyph-name="two" unicode="2" 
d="M105 833l25.0078 21.999c12.667 12 22 20.333 28 25c24.667 21.333 48 35 70 41c35.333 10 66.333 7.66699 93 -7c23.333 -12 41.333 -32.667 54 -62c20.667 -45.333 27.667 -99 21 -161c-3.33301 -28.667 -12 -64.334 -26 -107.001
c-12.667 -54.667 -32.334 -115.334 -59.001 -182.001c-23.333 -70 -46.666 -135 -69.999 -195c-1.33301 -4 -4.66602 -11.667 -9.99902 -23l-21 -46l-21 -47l-23 -54c-0.666992 -9.33301 0.666016 -16 3.99902 -20c1.33301 -1.33301 3 -2.66602 5 -3.99902
c13.333 0.666992 29.666 3 48.999 7c16 2.66699 39.333 7.33398 70 14.001c28 6 45 9.33301 51 10c16 1.33301 37.667 1.66602 65 0.999023c9.33301 -0.666992 17.666 -1.33398 24.999 -2.00098c3.33301 0 6.33301 -0.333008 9 -1h3
c1.33301 -0.666992 2.66602 -1 3.99902 -1c2 -0.666992 4.33301 -2 7 -4c4.66699 -3.33301 8 -7.66602 10 -12.999c3.33301 -10.667 1 -19.667 -7 -27c-4.66699 -4 -10.667 -7.33301 -18 -10l-17 -5c-10.667 -2 -24.334 -4.33301 -41.001 -7
c-10 -1.33301 -23.167 -2.83301 -39.5 -4.5s-26.166 -2.83398 -29.499 -3.50098c-48.667 -7.33301 -86.334 -11 -113.001 -11c-14 0 -26.333 1.66699 -37 5h-4c-12.667 0 -23 1.33301 -31 4c-14 4 -23.667 11.667 -29 23c-2 6 -2.66699 12.667 -2 20
c0.666992 2.66699 1.66699 6 3 10c2 6.66699 5 15 9 25l3 7c1.33301 8.66699 3.66602 18.834 6.99902 30.501s6.16602 21 8.49902 28s6.16602 16.833 11.499 29.5s8.33301 19.667 9 21c12.667 31.333 31.667 76 57 134l55 128l38 120
c1.33301 3.33301 7.66602 22.666 18.999 57.999c8.66699 37.333 14 74.333 16 111c1.33301 22.667 -0.833984 46.834 -6.50098 72.501s-14.167 46.834 -25.5 63.501c-10.667 15.333 -22.334 24 -35.001 26c-16 2 -35 -5.66699 -57 -23c-4.66699 -4 -10.334 -6 -17.001 -6
l-4 -3c-5.33301 -4 -14 -11.667 -26 -23c-12 -10.667 -21.333 -18.667 -28 -24c-5.33301 -4.66699 -11.666 -6.66699 -18.999 -6s-13.166 3.83398 -17.499 9.50098s-6.16602 12.167 -5.49902 19.5s4 13 10 17z" />
    <glyph glyph-name="three" unicode="3" horiz-adv-x="527" 
d="M179 834c-41.333 -24 -70.335 -49.3359 -87.002 -76.0029c-4 -6 -9.5 -9.83301 -16.5 -11.5s-13.5 -0.5 -19.5 3.5s-9.83301 9.5 -11.5 16.5s-0.5 13.5 3.5 19.5c13.333 21.333 33.333 42.333 60 63c1.33301 10.667 7 18 17 22l33 11c23.333 13.333 47.333 24.333 72 33
c26.667 8.66699 52.5 14.334 77.5 17.001s50.5 0 76.5 -8s47.333 -22 64 -42l5 -6c30 -16.667 49.333 -39 58 -67c12.667 -37.333 5.33398 -83 -21.999 -137c-18.667 -36 -47 -77 -85 -123c-18.667 -25.333 -44 -55.666 -76 -90.999c-11.333 -13.333 -34 -37.333 -68 -72
l-6 -8c30.667 4.66699 53 6.66699 67 6c38 -1.33301 67.333 -13.333 88 -36c25.333 -28 38.666 -71 39.999 -129c1.33301 -53.333 -23.334 -103.333 -74.001 -150c-39.333 -36 -86 -63.667 -140 -83c-10.667 -4 -29.667 -8.33301 -57 -13
c-13.333 -2.66699 -24 -4.33398 -32 -5.00098h-15c-3.33301 0.666992 -6.33301 1.33398 -9 2.00098c-7.33301 2.66699 -12.666 7.33398 -15.999 14.001c-6.66699 12.667 -6 26 2 40c4 6 9.33301 12.333 16 19c6 5.33301 14 9.66602 24 12.999c2 0.666992 4 1.16699 6 1.5
s3.33301 0.5 4 0.5s1.33398 0.333008 2.00098 1c6 2.66699 16.667 7 32 13l32 13c32 12.667 57.333 24 76 34c54.667 28.667 84.334 56 89.001 82c2.66699 13.333 -1.66602 26 -12.999 38c-12 12 -31 24 -57 36l-39 16l-32 13c-12.667 5.33301 -22.334 10.333 -29.001 15
c-3.33301 2 -6.33301 4.33301 -9 7c-14 2.66699 -24.333 9.33398 -31 20.001c-4.66699 6.66699 -5.66699 14 -3 22c0.666992 2 1.66699 3.66699 3 5l2 4c0.666992 1.33301 1.66699 2.66602 3 3.99902l10 10l10 11c5.33301 8.66699 12.666 18.334 21.999 29.001
c6.66699 8 16.334 17.667 29.001 29c10.667 10 17 16 19 18c52.667 60 82.334 94.333 89.001 103c23.333 31.333 41.666 60.333 54.999 87c30.667 66 30.667 121.667 0 167c-12.667 6 -27.667 11 -45 15c-14 2.66699 -43.333 4 -88 4c-30 0 -65.333 -6.66699 -106 -20z
M378.998 301.997c-2.66699 4 -5.33301 7.33203 -8 9.99902c-11.333 12.667 -28.333 19.334 -51 20.001h-2c8 -3.33301 15.333 -6.66602 22 -9.99902c15.333 -6.66699 28.333 -13.334 39 -20.001z" />
    <glyph glyph-name="four" unicode="4" horiz-adv-x="506" 
d="M255 376l64.998 9.99707c39.333 6.66699 62.333 10.334 69 11.001c15.333 1.33301 43 0.333008 83 -3c7.33301 -0.666992 13.333 -3.66699 18 -9s6.66699 -11.666 6 -18.999c-0.666992 -8.66699 -4.66699 -15.334 -12 -20.001c1.33301 -3.33301 2 -7 2 -11
c-0.666992 -7.33301 -3.5 -13.333 -8.5 -18s-11.167 -7 -18.5 -7c-93.333 4.66699 -155 6.33398 -185 5.00098c-4 0 -10.667 -0.666992 -20 -2c-0.666992 -27.333 -1 -42.666 -1 -45.999c0.666992 -66 2 -125.333 4 -178c3.33301 -33.333 7.66602 -64.666 12.999 -93.999
c2 -9.33301 -0.333008 -17.333 -7 -24c0 -6.66699 -2.33301 -12.334 -7 -17.001s-10.334 -7.33398 -17.001 -8.00098c-7.33301 -0.666992 -13.666 1.5 -18.999 6.5s-8.33301 10.833 -9 17.5l-6 116c-2.66699 37.333 -4 99 -4 185v34c-25.333 -3.33301 -46.666 -6 -63.999 -8
c-35.333 -3.33301 -63.666 -3.66602 -84.999 -0.999023c-14 1.33301 -25.667 4 -35 8c-14.667 6 -24.334 15 -29.001 27c-5.33301 12.667 -6 30.334 -2 53.001c2.66699 17.333 8 38.666 16 63.999c13.333 41.333 34 94.666 62 159.999l72 160
c30 63.333 47.333 100.333 52 111c0 10.667 4.66699 18.334 14 23.001c4.66699 9.33301 12.334 14 23.001 14c7.33301 0 13.5 -2.5 18.5 -7.5s7.5 -11.167 7.5 -18.5v-5c4.66699 -7.33301 5.33398 -15.333 2.00098 -24l-2 -5c0 -47.333 0.666992 -123 2 -227
s2 -183.333 2 -238v-15zM71.998 364.997c1.33301 -0.666992 3.66699 -1.33496 7 -2.00195c8 -1.33301 19 -2 33 -2c22.667 0.666992 52.334 3.33398 89.001 8.00098c-0.666992 194 -1.33398 309.333 -2.00098 346c0 8 -0.333008 16.667 -1 26
c-25.333 -54 -47.333 -104 -66 -150c-27.333 -65.333 -45.333 -116.666 -54 -153.999c-6 -22.667 -9 -40.667 -9 -54c0 -8.66699 1 -14.667 3 -18z" />
    <glyph glyph-name="five" unicode="5" horiz-adv-x="557" 
d="M206 465c8.66699 -0.666992 19.998 -1.33301 33.998 -2h49c6.66699 0 12.334 -0.333008 17.001 -1c-19.333 8.66699 -39.333 12.667 -60 12h-24c-5.33301 -3.33301 -10.666 -6.33301 -15.999 -9zM186.998 738.001l3 1l9 4l-6 -1l-6 -2v-2zM477.998 764.001
c-10 1.33301 -30.333 1.32812 -61 -0.00488281l-110 -36c-40 -14.667 -72.333 -27 -97 -37c-12 -4.66699 -21.333 -8.66699 -28 -12l-1 -1c0 -1.33301 -2.33301 -12 -7 -32l5 -74c1.33301 -18.667 2.66602 -36 3.99902 -52c3.33301 1.33301 6 2.33301 8 3
c4.66699 1.33301 10.667 2 18 2l5 2c32 13.333 63 15.833 93 7.5s55.333 -24.5 76 -48.5c36.667 -40 61 -86.667 73 -140c12.667 -53.333 12.334 -104 -0.999023 -152c-14 -51.333 -40.333 -94.333 -79 -129c-39.333 -34.667 -89 -55 -149 -61
c-20.667 -2 -50.334 -1 -89.001 3c-20.667 2.66699 -36.667 5.66699 -48 9c-9.33301 3.33301 -16.666 7.33301 -21.999 12c-5.33301 5.33301 -8.66602 11.333 -9.99902 18c-1.33301 8 0.333984 15.333 5.00098 22c2.66699 4.66699 6.33398 8 11.001 10l6 2
c2 0.666992 4.33301 1 7 1c4 0.666992 9 1.33398 15 2.00098c7.33301 0 20.666 0.333008 39.999 1c38.667 1.33301 60 2 64 2c2 9.33301 7 16 15 20c31.333 14.667 62 32.334 92 53.001c38 27.333 62.333 59.333 73 96s2.66699 72.334 -24 107.001
c-4 5.33301 -11.333 13.333 -22 24c-6.66699 6.66699 -12.334 12 -17.001 16l-7 6c-5.33301 2 -15 3 -29 3h-48c-20.667 0.666992 -37 1.66699 -49 3c-9.33301 2 -17.666 4.33301 -24.999 7l1 -1c1.33301 -3.33301 2.33301 -6.66602 3 -9.99902c0 -4 -0.666992 -8 -2 -12
c-4 -9.33301 -11 -14.666 -21 -15.999c-5.33301 -0.666992 -10.666 0.333008 -15.999 3c-1.33301 0.666992 -2.66602 1.66699 -3.99902 3c-2 2 -3.66699 4 -5 6c-0.666992 0.666992 -1.33398 1.66699 -2.00098 3c-2.66699 3.33301 -6.33398 7 -11.001 11
c-12 11.333 -15 27 -9 47c1.33301 4 2.5 7.66699 3.5 11s1.83301 5 2.5 5c-1.33301 3.33301 -2.33301 6.66602 -3 9.99902c-2 8 -2.66699 17.667 -2 29c0 17.333 2.33301 40.333 7 69c2 8 3.66699 16.667 5 26c0 2.66699 -0.166992 6.16699 -0.5 10.5s-1 11.833 -2 22.5
s-1.5 18.667 -1.5 24c-3.33301 44 -3 72.667 1 86c4 12.667 14.333 23 31 31c6 2.66699 13.333 5.33398 22 8.00098c8.66699 6 20.334 11.333 35.001 16c19.333 5.33301 45.333 10.333 78 15c20 2.66699 47 5.66699 81 9c30.667 3.33301 49.667 5.66602 57 6.99902
c6.66699 0.666992 13.5 1.66699 20.5 3s11.5 2.33301 13.5 3c9.33301 1.33301 23 2.66602 41 3.99902c1.33301 0 4.66602 0.333008 9.99902 1s9.66602 1 12.999 1c6 0 10.5 -0.166992 13.5 -0.5s6.16699 -1.16602 9.5 -2.49902c10.667 -6 15 -15.333 13 -28
c-0.666992 -6.66699 -4 -12.334 -10 -17.001c-2 -1.33301 -4 -2.33301 -6 -3c-6.66699 -3.33301 -14.667 -6 -24 -8c-0.666992 -7.33301 -3.83398 -13.166 -9.50098 -17.499s-12.167 -6.16602 -19.5 -5.49902z" />
    <glyph glyph-name="six" unicode="6" horiz-adv-x="536" 
d="M451 256l-3 -4.00195c-8.66699 -14.667 -18 -35.667 -28 -63c-6 -15.333 -11.5 -31.5 -16.5 -48.5s-9.66699 -33.667 -14 -50s-6.83301 -25.166 -7.5 -26.499s-1 -2.66602 -1 -3.99902c8 4.66699 16.333 10.667 25 18c22.667 28 37 69.333 43 124
c2 18 2.66699 34.333 2 49v5zM230 829.998c-14.667 -37.333 -27.0039 -90 -37.0039 -158s-17 -132.667 -21 -194c-0.666992 -5.33301 -1.5 -16.166 -2.5 -32.499s-1.83301 -29.166 -2.5 -38.499c2 -28 5 -54.667 9 -80c8 -59.333 19 -109.333 33 -150
c16 -44 34.333 -74 55 -90c16.667 -13.333 32.667 -23.333 48 -30c7.33301 56.667 18.666 106.667 33.999 150c14.667 44 32 74.333 52 91c12.667 10 25.667 15.667 39 17c8 4 16.333 5.66699 25 5c16.667 -1.33301 28.334 -11.666 35.001 -30.999
c0.666992 -0.666992 1 -1.33398 1 -2.00098c15.333 -16 24.333 -35.333 27 -58s1 -44.5 -5 -65.5s-15 -41.5 -27 -61.5c-14 -22.667 -30.333 -42.667 -49 -60c-6 -7.33301 -12.667 -14 -20 -20c-22.667 -18 -48 -26.667 -76 -26c-4.66699 -2.66699 -9.66699 -4 -15 -4
c-8 0 -14.333 3 -19 9c-4 1.33301 -7.66699 2.66602 -11 3.99902c-95.333 22.667 -154.666 85.334 -177.999 188.001c-12 52 -15.333 123.333 -10 214c-6 80 -6.33301 148.333 -1 205c2 18 7.66699 54.667 17 110c7.33301 43.333 11 77.666 11 102.999
c0 7.33301 2.5 13.5 7.5 18.5s11.167 7.5 18.5 7.5c4.66699 0 9 -1 13 -3l1 2c2.66699 6.66699 7.33398 11.334 14.001 14.001s13.334 2.66699 20.001 0s11.334 -7.33398 14.001 -14.001s2.66699 -13.334 0 -20.001z" />
    <glyph glyph-name="seven" unicode="7" horiz-adv-x="438" 
d="M206 830c-12.667 -1.33301 -28.0029 -3.16211 -46.0029 -5.49512s-32.667 -4 -44 -5s-19.666 -1.83301 -24.999 -2.5c-7.33301 -0.666992 -13.666 1.5 -18.999 6.5s-8.33301 11 -9 18s1.5 13.167 6.5 18.5s10.833 8.33301 17.5 9l29 3
c13.333 1.33301 29.833 3.16602 49.5 5.49902s37.167 4.16602 52.5 5.49902c29.333 6.66699 53.333 10.667 72 12c24 2 44.667 0.333008 62 -5l14 -2c13.333 -1.33301 23.666 -4.33301 30.999 -9c12.667 -8.66699 21.334 -23.334 26.001 -44.001
c3.33301 -14.667 5 -33 5 -55c0 -36 -4.66699 -82.333 -14 -139c-7.33301 -42.667 -24 -118.667 -50 -228c-6 -26.667 -13.667 -67 -23 -121c-10 -58.667 -18 -100 -24 -124c-8 -36.667 -13 -71.334 -15 -104.001v-22c0 -4.66699 -0.333008 -8 -1 -10v-4
c-0.666992 -2.66699 -1.66699 -5.33398 -3 -8.00098c-4 -7.33301 -10.333 -11.666 -19 -12.999c-10 -1.33301 -18 2 -24 10l-5 10c0 0.666992 -0.166992 1.5 -0.5 2.5s-0.5 1.83301 -0.5 2.5c-0.666992 20.667 -1.16699 37.667 -1.5 51s1 30 4 50s5.66699 36.333 8 49
s5.5 28.667 9.5 48s6.66699 34.333 8 45c25.333 151.333 43 274 53 368c0.666992 7.33301 3.33398 23.333 8.00098 48c5.33301 30 9 52 11 66c3.33301 25.333 5 44.666 5 57.999c0 7.33301 -0.666992 13 -2 17v1c-2.66699 2 -6 3.66699 -10 5h-12
c-21.333 0 -50 -1.66699 -86 -5l-18 -1l-8 -2c-4 -1.33301 -8 -1.33301 -12 0z" />
    <glyph glyph-name="eight" unicode="8" horiz-adv-x="555" 
d="M174 809c8.66699 7.33301 17 13.666 25 18.999h-6c-6.66699 -5.33301 -13 -11.666 -19 -18.999zM142 732c-1.33301 0.666992 -2.33301 1.33301 -3 2l-6 -21c2.66699 6.66699 5.66699 13 9 19zM286 333.999l-43.999 -21.999
c-18.667 -12.667 -35.334 -29.834 -50.001 -51.501s-25.667 -44.5 -33 -68.5c-10.667 -36 -9.66699 -65.667 3 -89c13.333 -25.333 40.333 -40.333 81 -45c42.667 -4.66699 75.334 -4 98.001 2c33.333 9.33301 65.333 27.333 96 54c32.667 28 49 55.333 49 82
c0 27.333 -17.333 57.333 -52 90c-29.333 28.667 -59.333 48 -90 58c-12.667 0.666992 -24.334 -0.333008 -35.001 -3c-4 -3.33301 -8.66699 -5.33301 -14 -6c-2.66699 0 -5.66699 -0.333008 -9 -1zM180.001 342c-2.66699 2.66699 -4.33203 5.66504 -4.99902 8.99805v1
c-10.667 2.66699 -20.334 6.33398 -29.001 11.001c-31.333 16 -54.333 42.333 -69 79c-21.333 53.333 -24 126.666 -8 219.999c4 20.667 7.66699 38.167 11 52.5s8.5 32.333 15.5 54s16.167 41.167 27.5 58.5s24.666 32 39.999 44c7.33301 5.33301 17 8.33301 29 9h6h3h2
c7.33301 0.666992 13.833 -1.16602 19.5 -5.49902s9.16699 -9.83301 10.5 -16.5c0.666992 -4 0.333984 -8 -0.999023 -12h3l12 4c52.667 14 107 4 163 -30c25.333 -15.333 47.333 -34 66 -56s32.334 -45.667 41.001 -71c11.333 -34.667 10.666 -71 -2.00098 -109
s-30.667 -73 -54 -105c-24.667 -34.667 -53.667 -63.667 -87 -87c18 -4 36 -10 54 -18c46.667 -22 79.334 -50.333 98.001 -85c19.333 -34.667 24.333 -71.667 15 -111c-8 -34.667 -25.833 -67.5 -53.5 -98.5s-60.5 -55.5 -98.5 -73.5c-47.333 -22.667 -102 -30 -164 -22
c-50 7.33301 -87 28 -111 62c-20 29.333 -28 66 -24 110c3.33301 32.667 13.166 65.834 29.499 99.501s36.5 62.5 60.5 86.5zM250.003 794.998c-36.667 -37.333 -63.332 -80.999 -79.999 -130.999c-20.667 -61.333 -26.667 -117 -18 -167c4 -27.333 13 -48.333 27 -63
c14.667 -15.333 35.667 -23 63 -23c28 0 55.667 8.66699 83 26c36.667 23.333 66 62.333 88 117c23.333 55.333 28.333 102.666 15 141.999c-10.667 34 -33.167 60 -67.5 78s-70.5 25.333 -108.5 22c-0.666992 -0.666992 -1.33398 -1 -2.00098 -1z" />
    <glyph glyph-name="nine" unicode="9" horiz-adv-x="547" 
d="M459 818l0.00195312 6.00488c0 0.666992 -0.333008 1 -1 1c-20.667 8.66699 -43 13.667 -67 15c-36.667 -2 -78.167 -13.833 -124.5 -35.5s-87.5 -48.834 -123.5 -81.501c-21.333 -25.333 -40 -51 -56 -77c-9.33301 -16 -16.666 -31.333 -21.999 -46
c-0.666992 -0.666992 -1 -1.66699 -1 -3c-5.33301 -40.667 12 -77.667 52 -111c44.667 -36 103 -34.333 175 5c31.333 17.333 60.333 39.166 87 65.499s46 51.5 58 75.5c4 8.66699 7.33301 18 10 28c0 1.33301 0.666992 13.166 2 35.499s2.66602 40.166 3.99902 53.499v6
c0.666992 7.33301 1 14 1 20v3c-1.33301 6 -2 9.33301 -2 10c-0.666992 7.33301 -0.333984 13.666 0.999023 18.999c1.33301 4 3.66602 7.66699 6.99902 11zM421.002 889.005c20 -3.33301 39 -8.66992 57 -16.0029c3.33301 -1.33301 6.33301 -3.33301 9 -6h6
c8 0 15 -3 21 -9c4 -4.66699 7.33301 -11.334 10 -20.001c3.33301 -9.33301 6 -22.666 8 -39.999c4 -30 6 -51.667 6 -65c-0.666992 -35.333 -9.66699 -73 -27 -113c-1.33301 -58.667 -5.33301 -122.334 -12 -191.001c-2 -20.667 -7 -50.667 -15 -90
s-13 -67.666 -15 -84.999c-4 -30 -7 -71.667 -9 -125c-3.33301 -60.667 -6 -103.334 -8 -128.001c-0.666992 -6.66699 -3.83398 -12.334 -9.50098 -17.001s-12 -6.66699 -19 -6s-12.833 3.83398 -17.5 9.50098s-6.66699 12.167 -6 19.5c0.666992 3.33301 1 7 1 11
c-6 5.33301 -9 12 -9 20v45c-6 5.33301 -8.66699 12 -8 20c2 46.667 9 129.667 21 249c4 38 11.667 86 23 144c-32 -33.333 -65 -58.333 -99 -75c-31.333 -15.333 -65.666 -24.666 -102.999 -27.999s-75 1.33398 -113 14.001s-68.333 33.334 -91 62.001
c-21.333 26 -28.333 59.333 -21 100c2.66699 14.667 7 30 13 46c9.33301 46 37 91.333 83 136l9 8c24 28.667 46 50 66 64c31.333 22.667 66.333 40.334 105 53.001s77 18 115 16h18c4 0 7.66699 -1 11 -3z" />
    <glyph glyph-name="colon" unicode=":" horiz-adv-x="217" 
d="M149 533l10.998 14.998c4 6 9.66699 9.5 17 10.5s13.833 -0.5 19.5 -4.5s9 -9.66699 10 -17s-0.5 -13.666 -4.5 -18.999l-2 -4c1.33301 -1.33301 2.33301 -2.66602 3 -3.99902c3.33301 -5.33301 5 -11.333 5 -18c0 -3.33301 -0.333008 -7.66602 -1 -12.999
c0 -7.33301 -1 -16.333 -3 -27c-1.33301 -10 -3 -19 -5 -27c-0.666992 -4 -1.66699 -7.33301 -3 -10c0 -2 -0.333008 -3.66699 -1 -5c-2 -4.66699 -5 -8.33398 -9 -11.001c-11.333 -9.33301 -23 -10 -35 -2c-5.33301 3.33301 -9.66602 8 -12.999 14
c-3.33301 5.33301 -6.33301 12.333 -9 21c-6 19.333 -6 39 0 59c-5.33301 8 -6.66602 16.333 -3.99902 25c4 11.333 12 17 24 17zM189.998 163.998c-1.33301 -5.33301 -3.3291 -12.666 -5.99609 -21.999c-0.666992 -3.33301 -1.33398 -5.66602 -2.00098 -6.99902
c-0.666992 -2 -1.33398 -3.66699 -2.00098 -5c-2.66699 -6.66699 -7.66699 -11.334 -15 -14.001c-14.667 -4.66699 -25.334 -0.333984 -32.001 12.999c-1.33301 2 -2.33301 4.33301 -3 7c-0.666992 2 -1 4.66699 -1 8l-4 20c-0.666992 7.33301 1 14 5 20
s9.33301 9.66699 16 11h8c6 2.66699 12 3 18 1c7.33301 -2 12.666 -6.16699 15.999 -12.5s4 -12.833 2 -19.5z" />
    <glyph glyph-name="semicolon" unicode=";" horiz-adv-x="204" 
d="M153 388l0.000976562 -4.00195l-2 -29c-0.666992 -7.33301 -3.83398 -13.333 -9.50098 -18s-12 -6.66699 -19 -6s-12.833 3.83398 -17.5 9.50098s-6.66699 11.834 -6 18.501l2 27c0 8.66699 0.666992 15 2 19c2 6 6 12.333 12 19l16 16c5.33301 5.33301 11.5 8 18.5 8
s13.167 -2.5 18.5 -7.5s8 -11 8 -18s-2.33301 -13.167 -7 -18.5zM192.001 70.998c-11.333 -29.333 -25.999 -52.832 -43.999 -70.499s-41.667 -34.167 -71 -49.5c-6.66699 -3.33301 -13.334 -3.83301 -20.001 -1.5s-11.667 6.66602 -15 12.999s-3.83301 12.833 -1.5 19.5
s6.5 11.667 12.5 15c24.667 12.667 43.667 25.667 57 39c14 13.333 25.333 31 34 53c2.66699 6.66699 7.16699 11.5 13.5 14.5s12.833 3.16699 19.5 0.5s11.5 -7.16699 14.5 -13.5s3.16699 -12.833 0.5 -19.5z" />
    <glyph glyph-name="less" unicode="&#x3c;" horiz-adv-x="609" 
d="M336 321l43.9971 23.9951c45.333 24.667 87.666 42.667 126.999 54c6.66699 2 13.167 1.33301 19.5 -2s10.5 -8.5 12.5 -15.5s1.33301 -13.667 -2 -20s-8.66602 -10.5 -15.999 -12.5l-3 -1c-2 -9.33301 -7.66699 -15.666 -17 -18.999
c-14.667 -5.33301 -38.334 -15.333 -71.001 -30c-34.667 -15.333 -67 -31.333 -97 -48c-29.333 -16.667 -52 -31.334 -68 -44.001c5.33301 0 37 0.666992 95 2c60.667 0.666992 106 0.333984 136 -0.999023c22 -1.33301 39.667 -3.33301 53 -6
c19.333 -3.33301 33.333 -9 42 -17c5.33301 -5.33301 8 -11.666 8 -18.999s-2.66699 -13.666 -8 -18.999c-2.66699 -2.66699 -6 -4.66699 -10 -6c-1.33301 -0.666992 -3 -1 -5 -1h-3c-2.66699 -0.666992 -5.66699 -1 -9 -1c-7.33301 0 -16.666 -0.333008 -27.999 -1
c-26 -0.666992 -48.667 -1 -68 -1c-3.33301 0 -20 -0.333008 -50 -1s-55.667 -1 -77 -1c-31.333 0 -56.666 0.333008 -75.999 1c-12 0.666992 -22 1.66699 -30 3c-11.333 2 -19.666 5 -24.999 9c-3.33301 2.66699 -6.33301 5.33398 -9 8.00098
c-6 0.666992 -11.333 1.33398 -16 2.00098c-7.33301 0.666992 -13.666 1.66699 -18.999 3c-9.33301 3.33301 -16.166 8.66602 -20.499 15.999s-4.83301 15 -1.5 23c0.666992 2 1.66699 4 3 6c1.33301 1.33301 2.66602 2.33301 3.99902 3
c0.666992 1.33301 1.66699 2.33301 3 3l4 3l13 9l41 26c39.333 24.667 63.333 39.334 72 44.001z" />
    <glyph glyph-name="equal" unicode="=" horiz-adv-x="615" 
d="M286 321c0 6.66699 2.49902 12.667 7.49902 18s10.833 8 17.5 8c10 0.666992 24.667 1 44 1c16.667 4.66699 30.667 7.66699 42 9c43.333 8 79 5 107 -9c3.33301 -2 6.33301 -4.66699 9 -8c6.66699 -9.33301 7 -18.666 1 -27.999c-2 -4.66699 -5.33301 -8 -10 -10l-4 -2
l-5 -1h-2h-1h-2h-8h-5c-6.66699 -4.66699 -16.667 -4.66699 -30 0h-9h-8h-3c-15.333 -0.666992 -36.666 -1.33398 -63.999 -2.00098l-3 -1c-21.333 -5.33301 -36.333 -9 -45 -11c-7.33301 -1.33301 -14 0.166992 -20 4.5s-9.66699 9.83301 -11 16.5
c-0.666992 5.33301 0 10.333 2 15zM265.999 187c24.667 1.33301 71 7.99902 139 19.999c10.667 2 25 1 43 -3c4 0 8 0.333008 12 1c10 0.666992 26.333 0.333984 49 -0.999023c11.333 -0.666992 19.333 -1 24 -1c7.33301 4 14.666 9.66699 21.999 17h3
c5.33301 0.666992 8.66602 1 9.99902 1c7.33301 0 13.333 -1 18 -3c12.667 -5.33301 19 -14.666 19 -27.999c0 -17.333 -9.66699 -28.666 -29 -33.999c-3.33301 -0.666992 -7.33301 -1.33398 -12 -2.00098h-3c-2 0 -3.33301 -0.333008 -4 -1
c-12.667 -2 -29.667 -2.33301 -51 -1c-20.667 1.33301 -34.667 1.66602 -42 0.999023c-16.667 -1.33301 -41 -5.33301 -73 -12c-35.333 -7.33301 -62 -11.666 -80 -12.999c-8.66699 -0.666992 -15.667 2 -21 8c-7.33301 -0.666992 -14.666 -1 -21.999 -1
s-13.666 2.33301 -18.999 7s-8 10.667 -8 18s2.33301 13.666 7 18.999s10.667 8 18 8z" />
    <glyph glyph-name="greater" unicode="&#x3e;" horiz-adv-x="661" 
d="M580 340l-19 13l-14 9l8 -8c4 -3.33301 7 -6.33301 9 -9s3.33301 -5 4 -7l1 -2l8 2zM151 599c18.667 -4 37.1689 -8.66504 55.502 -13.998s34.166 -10.166 47.499 -14.499s29.333 -10.5 48 -18.5l42 -18c9.33301 -4 24 -11.333 44 -22l41 -22l47 -26
c24 -14 39.333 -22.667 46 -26l67 -41c16.667 -11.333 29.667 -21 39 -29c6 -5.33301 11 -10 15 -14c7.33301 -10 9.66602 -20.333 6.99902 -31c-1.33301 -4.66699 -3.66602 -8.66699 -6.99902 -12c-1.33301 -1.33301 -2.66602 -2.33301 -3.99902 -3
c-2 -1.33301 -3.66699 -2.33301 -5 -3c-2.66699 -1.33301 -6 -2.66602 -10 -3.99902c-6.66699 -3.33301 -16.334 -7 -29.001 -11l-9 -4c0 -0.666992 -0.333008 -1.66699 -1 -3c-0.666992 -2.66699 -1.83398 -5.16699 -3.50098 -7.5s-3.16699 -3.83301 -4.5 -4.5l-1 -2
c-1.33301 -0.666992 -2.33301 -1.33398 -3 -2.00098c-0.666992 0 -1.5 -0.333008 -2.5 -1s-2.5 -1.33398 -4.5 -2.00098l-11 -5l-39 -15l-119 -44c-48 -16.667 -88.667 -29.667 -122 -39c-19.333 -5.33301 -34.333 -9 -45 -11c-7.33301 -0.666992 -13.666 -1 -18.999 -1
c-10.667 0.666992 -19 4.66699 -25 12c-8 10 -8.66699 20 -2 30c2 2.66699 4 4.66699 6 6l3 3c0.666992 0 1.5 0.166992 2.5 0.5s2.16699 0.833008 3.5 1.5l7 3l27 11l9 3c-7.33301 4.66699 -11.333 11.667 -12 21c0 7.33301 2.33301 13.666 7 18.999s10.667 8 18 8
c6 0 12.667 0.166992 20 0.5s12.333 0.5 15 0.5s6.16699 0.166992 10.5 0.5s8.5 0.833008 12.5 1.5l14 4c14 3.33301 50.667 15.666 110 36.999l47 16c-20.667 15.333 -57.334 40 -110.001 74l-122 79l-42 29c-6 4 -10.333 7.66699 -13 11c-2.66699 2 -4.66699 4 -6 6
c-3.33301 3.33301 -5.33301 7 -6 11l-46 12c-6.66699 1.33301 -12 5 -16 11s-5.16699 12.5 -3.5 19.5s5.5 12.5 11.5 16.5s12.667 5 20 3z" />
    <glyph glyph-name="question" unicode="?" horiz-adv-x="638" 
d="M504 642l-22 -28l-23 -30c-5.33301 -6.66699 -11.666 -15.167 -18.999 -25.5s-13.333 -19.833 -18 -28.5l-15 -26c-6.66699 -14.667 -11.334 -31 -14.001 -49c9.33301 18.667 22.333 42 39 70zM357 217c36.667 -19.333 65.333 -20.332 86 -2.99902
c6 4.66699 12.5 6.66699 19.5 6s12.833 -3.83398 17.5 -9.50098s6.66699 -12 6 -19s-3.66699 -12.833 -9 -17.5c-39.333 -32.667 -87.333 -33.667 -144 -3c-6.66699 3.33301 -11 8.5 -13 15.5s-1.33301 13.667 2 20s8.5 10.5 15.5 12.5s13.5 1.33301 19.5 -2z
M339.999 116.001c28 -10 61.002 -15 99.002 -15c7.33301 0 13.5 -2.5 18.5 -7.5s7.5 -11.167 7.5 -18.5s-2.5 -13.5 -7.5 -18.5s-11.167 -7.5 -18.5 -7.5c-44 0 -83 5.66699 -117 17c-6.66699 2.66699 -11.5 7.16699 -14.5 13.5s-3.33301 13 -1 20s6.66602 12 12.999 15
s13.166 3.5 20.499 1.5zM348.001 31.001c28.667 -3.33301 55.333 -1.66797 80 4.99902c7.33301 2 14 1.16699 20 -2.5s10 -9 12 -16s1.16699 -13.5 -2.5 -19.5s-8.83398 -10 -15.501 -12c-31.333 -8 -64.666 -10.333 -99.999 -7
c-6.66699 0.666992 -12.334 3.83398 -17.001 9.50098s-6.66699 12 -6 19s3.83398 12.833 9.50098 17.5s12.167 6.66699 19.5 6zM350 253.999c-0.666992 14 -2.33398 35.0039 -5.00098 63.0039c-3.33301 31.333 -5.33301 54 -6 68c-2.66699 58 4.66602 105 21.999 141
c11.333 24.667 36 62 74 112s58.667 77.333 62 82c48.667 71.333 67 132.333 55 183v1c-21.333 24 -56.666 32.333 -105.999 25c-26 -3.33301 -53.333 -11 -82 -23c-93.333 -55.333 -140 -135.333 -140 -240c0 -8.66699 -3.33301 -15.667 -10 -21l9 -13
c4.66699 -5.33301 6.66699 -11.5 6 -18.5s-3.83398 -12.833 -9.50098 -17.5s-12 -6.66699 -19 -6s-12.833 4 -17.5 10c-44 53.333 -54.333 111.333 -31 174c19.333 51.333 58.333 97.333 117 138c22.667 15.333 46.667 28.666 72 39.999c14 8.66699 29.667 16.667 47 24
c38.667 17.333 76 24.666 112 21.999c52.667 -2.66699 85.667 -26.334 99 -71.001c26.667 -35.333 35.334 -79.333 26.001 -132c-7.33301 -42 -27.666 -92.667 -60.999 -152c-8 -14.667 -17 -30.334 -27 -47.001l-33 -54l-27 -44c-32 -52.667 -50.667 -90.334 -56 -113.001
c-4.66699 -19.333 -5.66699 -47 -3 -83c0.666992 -13.333 -5 -22 -17 -26c0.666992 -7.33301 1 -14 1 -20c0 -7.33301 -2.5 -13.666 -7.5 -18.999s-11 -8 -18 -8s-13.167 2.5 -18.5 7.5s-8 10.833 -8 17.5z" />
    <glyph glyph-name="at" unicode="@" horiz-adv-x="555" 
d="M214 630c-0.666992 -4 -2.33301 -7.65723 -5 -10.9902l-45 -49c-16.667 -18.667 -29 -34 -37 -46c-22 -32 -29.333 -65.667 -22 -101c0.666992 -4.66699 3 -12.667 7 -24l1 -4c6.66699 31.333 21.667 64.666 45 99.999c22.667 34 48.334 64.333 77.001 91
c30.667 28.667 57.667 46 81 52c8 2 16.333 3.16699 25 3.5s16 0.166016 22 -0.500977s13.333 -2.33398 22 -5.00098s14.834 -4.66699 18.501 -6s9.5 -3.66602 17.5 -6.99902c6.66699 -2.66699 11.5 -7.16699 14.5 -13.5s3.16699 -12.833 0.5 -19.5
c-2 -6.66699 -6.16699 -11.5 -12.5 -14.5s-12.833 -3.5 -19.5 -1.5c1.33301 -4 2.66602 -10 3.99902 -18c0.666992 -4.66699 1.66699 -15.334 3 -32.001c2 -20.667 4.33301 -50.667 7 -90c6.66699 -98.667 10.334 -150 11.001 -154
c0.666992 -7.33301 -1.16602 -13.833 -5.49902 -19.5s-10.166 -8.83398 -17.499 -9.50098s-13.833 1.16602 -19.5 5.49902s-8.83398 10.166 -9.50098 17.499c-1.33301 11.333 -4 51 -8 119c-20 -40.667 -45.333 -73.667 -76 -99c-24.667 -20.667 -49 -32.334 -73 -35.001
c-30 -3.33301 -57.333 6.66699 -82 30c-6.66699 6.66699 -12 13.667 -16 21v-3c-0.666992 -18 1.66602 -31 6.99902 -39c6.66699 -11.333 24.667 -20.666 54 -27.999c30 -6.66699 66 -9.66699 108 -9c40.667 0 78.667 3.66699 114 11c34 7.33301 57 15.666 69 24.999
s18.333 19.333 19 30c0.666992 9.33301 -2.33301 21.666 -9 36.999c-2.66699 6.66699 -7 15.667 -13 27s-10 19.333 -12 24c-11.333 24 -17 44.667 -17 62c0 15.333 3.33301 41.666 10 78.999c5.33301 28 6.66602 50.333 3.99902 67c-4.66699 32 -16.334 54.667 -35.001 68
c-16.667 12 -39 17.333 -67 16c-44 -2.66699 -90.667 -18.334 -140 -47.001zM156.001 654.01c26.667 19.333 57.667 36.1709 93 50.5039s69.333 22.5 102 24.5c40.667 2 74 -6.66699 100 -26c30.667 -22 49.667 -56 57 -102c3.33301 -22.667 2 -50.667 -4 -84
c-6.66699 -34.667 -10 -58 -10 -70c0 -10 4 -23.333 12 -40c2 -4.66699 6.16699 -12.834 12.5 -24.501s10.833 -20.834 13.5 -27.501c10.667 -23.333 15 -44.333 13 -63c-2.66699 -25.333 -15.667 -47 -39 -65c-18.667 -14.667 -49 -26.334 -91 -35.001
c-38.667 -8 -79.667 -12.333 -123 -13c-46.667 -0.666992 -87 3 -121 11c-43.333 10 -72 26.667 -86 50c-10.667 17.333 -15.667 40 -15 68c0 30 -0.333008 47 -1 51c-0.666992 4.66699 -2.66699 12.334 -6 23.001c-4.66699 13.333 -8 23.666 -10 30.999
c-9.33301 49.333 1 96 31 140c9.33301 14 23.333 31.333 42 52l20 21c-3.33301 11.333 0 20.666 10 27.999z" />
    <glyph glyph-name="A" unicode="A" horiz-adv-x="467" 
d="M172 75c0 -1.33301 0.667969 -3.66699 2.00098 -7c1.33301 -2 6.33301 -4.66699 15 -8c11.333 -3.33301 25.666 -5.66602 42.999 -6.99902c10 -0.666992 20 -0.333984 30 0.999023c-24 14 -52.333 21.333 -85 22h-2c-1.33301 -0.666992 -2.33301 -1 -3 -1z
M3.00098 697.999c14 31.333 38.3271 62.6611 72.9941 93.9941c35.333 31.333 73 55 113 71c21.333 8.66699 42 14 62 16c58 12 103.667 6 137 -18c38 -27.333 60.333 -77 67 -149l2 -34c0.666992 -11.333 0.833984 -23.333 0.500977 -36s-0.666016 -23.667 -0.999023 -33
s-1.16602 -21 -2.49902 -35l-3 -33c-0.666992 -7.33301 -2.16699 -19 -4.5 -35s-3.83301 -26.667 -4.5 -32s-2.33398 -16.666 -5.00098 -33.999l-5 -33c-2 -12.667 -6.5 -44.5 -13.5 -95.5s-13.5 -92.833 -19.5 -125.5c-6 -31.333 -13 -63.333 -21 -96
c-6 -24 -13.667 -41.333 -23 -52c-8.66699 -18.667 -27.334 -32.334 -56.001 -41.001c-22 -6.66699 -48 -9.66699 -78 -9c-29.333 0 -55.333 3.66699 -78 11c-29.333 9.33301 -48.666 22.333 -57.999 39c-8 14.667 -10 28.334 -6 41.001
c3.33301 12.667 11.333 22.834 24 30.501s29.334 12.5 50.001 14.5c4.66699 2.66699 10.334 5 17.001 7c28.667 8.66699 56 9.33398 82 2.00098c17.333 -4.66699 41 -18.667 71 -42c2.66699 12.667 5 27 7 43s3.83301 34 5.5 54s3.16699 35.667 4.5 47
c1.33301 10.667 4.66602 35.5 9.99902 74.5l14 104.5c3.33301 30.667 6 61.334 8 92.001c8 116 2.33301 202.667 -17 260c-11.333 34 -30.333 55 -57 63c-4.66699 1.33301 -9.66699 2.33301 -15 3c-20.667 -2.66699 -42.667 -8.33398 -66 -17.001
c-28.667 -11.333 -54.667 -25.166 -78 -41.499s-39.666 -32.166 -48.999 -47.499c-4.66699 -8 -11.667 -12 -21 -12c-10 -12.667 -17.333 -24.667 -22 -36c-2.66699 -6 -7 -10.167 -13 -12.5s-12.167 -2.16602 -18.5 0.500977s-10.666 7 -12.999 13
s-2.16602 12.333 0.500977 19z" />
    <glyph glyph-name="B" unicode="B" horiz-adv-x="413" 
d="M132 339l12.998 7.99512c14.667 15.333 30.667 27.333 48 36c22.667 14 48.667 19.333 78 16s56 -17 80 -41c22 -22.667 37.167 -51 45.5 -85s9.83301 -67.667 4.5 -101s-15.666 -63 -30.999 -89c-22 -38.667 -65.667 -67.667 -131 -87c-41.333 -12 -76 -14.333 -104 -7
c-7.33301 0 -13.666 2.33301 -18.999 7c-14 7.33301 -23.667 16.333 -29 27c-4.66699 8.66699 -7.66699 25.334 -9 50.001c-1.33301 16.667 -2 38.667 -2 66c0 18 0.333008 40.333 1 67s1 42 1 46v420c0 12 0.666992 31 2 57s1.66602 45.333 0.999023 58
c-1.33301 18.667 -3.33301 35.667 -6 51v2l-4 10c-1.33301 4 -3.5 8.66699 -6.5 14s-5.5 10.666 -7.5 15.999c-2.66699 6.66699 -2.66699 13.334 0 20.001s7.33398 11.334 14.001 14.001c10 4 19 2.66699 27 -4c8 -2.66699 13.667 -8.33398 17 -17.001
c4 -13.333 7.66699 -27.666 11 -42.999c4 -16 6.33301 -35 7 -57c0.666992 -15.333 1 -31.666 1 -48.999s-0.166992 -36.166 -0.5 -56.499s-0.5 -35.166 -0.5 -44.499c0 -16 -0.333008 -66.667 -1 -152s-0.666992 -136 0 -152zM156.998 45.9951
c1.33301 0 2.66309 0.333008 3.99609 1c68 11.333 117.333 29 148 53c18.667 15.333 30.334 41 35.001 77c4 38 -1 72.667 -15 104c-14 30.667 -34 48 -60 52c-25.333 4 -55.666 -4.66699 -90.999 -26c-16.667 -18.667 -28.667 -38.667 -36 -60
c-1.33301 -4 -3.66602 -7.66699 -6.99902 -11c1.33301 -27.333 5 -63 11 -107c6.66699 -49.333 10.334 -77 11.001 -83z" />
    <glyph glyph-name="C" unicode="C" horiz-adv-x="365" 
d="M279 782c-4.66699 0.666992 -11.002 -0.000976562 -19.002 -2.00098c-28.667 -6.66699 -58 -29.667 -88 -69c-49.333 -62.667 -78.666 -136.334 -87.999 -221.001l-2 -21v-3c-0.666992 -62.667 7.66602 -123.667 24.999 -183c7.33301 -26 16.333 -50 27 -72
c19.333 -38 43.333 -72 72 -102c17.333 -18.667 40.666 -35.334 69.999 -50.001c2.66699 -1.33301 11.334 -3.33301 26.001 -6c20 -3.33301 34.667 -10 44 -20c4 -3.33301 6.66699 -7.33301 8 -12c2.66699 -11.333 -0.333008 -20.666 -9 -27.999
c-4 -2.66699 -8.66699 -4.33398 -14 -5.00098c-2 -0.666992 -4 -1 -6 -1c-4 0.666992 -9.66699 1.66699 -17 3c-8 1.33301 -19.667 4.33301 -35 9h-1l-11 3c-39.333 10.667 -71 27.667 -95 51c-52 50.667 -92.333 128.334 -121 233.001c-14.667 53.333 -19.667 114 -15 182
c0.666992 52.667 7.33398 101.334 20.001 146.001c33.333 117.333 78.333 192 135 224c9.33301 4.66699 20.333 8 33 10c10 6 20 10 30 12c27.333 6.66699 58 1.33398 92 -15.999c6.66699 -2.66699 11.167 -7.5 13.5 -14.5s1.83301 -13.5 -1.5 -19.5
c-2.66699 -6 -6.66699 -10.333 -12 -13c-1.33301 -6 -4.66602 -11.333 -9.99902 -16c-8 -8.66699 -17.667 -11.667 -29 -9c-4.66699 0.666992 -9.66699 2.66699 -15 6z" />
    <glyph glyph-name="D" unicode="D" horiz-adv-x="451" 
d="M421 116l11.999 -86.001c0.666992 -6.66699 -1.16602 -12.834 -5.49902 -18.501s-10.166 -9.16699 -17.499 -10.5c-12.667 -1.33301 -21.667 3.66699 -27 15c-1.33301 2.66699 -2.33301 5.33398 -3 8.00098c-4 22.667 -7.33301 46 -10 70
c-28 -10.667 -64.333 -19.334 -109 -26.001l-22 -7c-42 -11.333 -77.333 -17.333 -106 -18c-40 -0.666992 -71 8.33301 -93 27c-32.667 28.667 -45.667 60.667 -39 96c5.33301 27.333 22.666 54 51.999 80c22.667 20 49.5 37.667 80.5 53s57.833 25.333 80.5 30
c22 5.33301 44 7.33301 66 6c22.667 6 42.667 10 60 12l-4 41c-3.33301 36 -7.33301 124.333 -12 265c0 16.667 -0.333008 31.667 -1 45c-4.66699 62 -9.66699 120.667 -15 176c-1.33301 12.667 -3.33301 25.334 -6 38.001c-0.666992 4 0 8.33301 2 13l-1 5
c-0.666992 6.66699 1.33301 12.834 6 18.501s10.5 8.83398 17.5 9.50098s13.333 -1.33301 19 -6s8.83398 -10.667 9.50098 -18l5 -55c6.66699 -50 11.667 -109.333 15 -178c6 -79.333 13 -178.333 21 -297l15 -213l3 -24c6.66699 0 12.5 -2 17.5 -6
s8.16699 -9.33301 9.5 -16c0.666992 -6.66699 -0.833008 -12.834 -4.5 -18.501s-8.83398 -9.16699 -15.501 -10.5zM348.999 267.999c-22 8 -43.332 13 -63.999 15c-38 -10.667 -74.333 -23.667 -109 -39c-41.333 -18.667 -72 -37.667 -92 -57
c-18.667 -17.333 -25.667 -32.333 -21 -45c4 -10 16.667 -17.667 38 -23c23.333 -6 53.666 -8 90.999 -6c18.667 0.666992 38 2.66699 58 6c12.667 3.33301 38 11.333 76 24l36 11c-0.666992 10.667 -1.66699 21.334 -3 32.001c-4.66699 39.333 -8 66.666 -10 81.999z" />
    <glyph glyph-name="E" unicode="E" horiz-adv-x="409" 
d="M33 655c-4 4 -6.66797 8.99805 -8.00098 14.998c-1.33301 12.667 3.33398 21.667 14.001 27c2.66699 18.667 5.66699 36.334 9 53.001c14.667 66.667 39 113.334 73 140.001l3 1c26 30 56 48.667 90 56c34.667 8 67 5.66699 97 -7s53 -32 69 -58
c16.667 -24.667 22.834 -53.334 18.501 -86.001s-19.833 -62 -46.5 -88c-4 -4 -8.66699 -8 -14 -12c-26.667 -20 -67 -33 -121 -39c-20 -2 -50.333 -3.66699 -91 -5c-19.333 -0.666992 -32.333 -1 -39 -1c-2.66699 -30 -4 -62.333 -4 -97
c0.666992 -53.333 4 -109.333 10 -168c21.333 -125.333 60.666 -240.666 117.999 -345.999c15.333 -2 23.666 -3 24.999 -3c6.66699 -1.33301 12 -5 16 -11s5.5 -12.5 4.5 -19.5s-4.5 -12.5 -10.5 -16.5s-12.667 -5.66699 -20 -5c-1.33301 0.666992 -3.66602 1 -6.99902 1
c-1.33301 -1.33301 -3 -2.33301 -5 -3c-6 -4 -12.5 -5 -19.5 -3s-12.167 6 -15.5 12l-3 4c-10.667 4.66699 -19.334 10.667 -26.001 18c-18 17.333 -35 48 -51 92c-9.33301 26 -18.666 58 -27.999 96c-12 46 -21.667 105 -29 177c-16.667 98.667 -19.667 190.667 -9 276z
M96.999 712.998c5.33301 0 16.333 -0.333008 33 -1c32 0 57 0.666992 75 2c47.333 2.66699 81 10.667 101 24c8.66699 6 14.667 13.333 18 22c10 20.667 11 39.334 3 56.001c-8 15.333 -23 28 -45 38c-20.667 9.33301 -42.5 13.833 -65.5 13.5s-42.167 -5.5 -57.5 -15.5
c-6.66699 -7.33301 -13 -16 -19 -26c-18 -30.667 -32.333 -68.334 -43 -113.001z" />
    <glyph glyph-name="F" unicode="F" horiz-adv-x="331" 
d="M100 32c0 47.333 -2.49902 121.502 -7.49902 222.502s-7 191.667 -6 272s7.5 155.833 19.5 226.5c10.667 61.333 27.334 108.333 50.001 141c16.667 24 37 39.667 61 47c26.667 8.66699 56.334 5.66699 89.001 -9c6.66699 -3.33301 11.167 -8.33301 13.5 -15
s2 -13.334 -1 -20.001s-7.83301 -11.167 -14.5 -13.5s-13.334 -2.16602 -20.001 0.500977c-6 3.33301 -11.667 5.66602 -17 6.99902c-2.66699 -1.33301 -5.33398 -2.33301 -8.00098 -3c-32.667 -7.33301 -55 -30.333 -67 -69c-2 -7.33301 -3.83301 -14.833 -5.5 -22.5
s-3.16699 -16.5 -4.5 -26.5l-2 -24c-0.666992 -6 -1.5 -15 -2.5 -27s-1.5 -20.333 -1.5 -25c-14 -180 -20.667 -321 -20 -423h19c5.33301 5.33301 11.666 7.66602 18.999 6.99902c11.333 -0.666992 19.666 -1.33398 24.999 -2.00098
c3.33301 -0.666992 6 -1.33398 8 -2.00098c3.33301 -0.666992 6.33301 -1.66699 9 -3c4.66699 -3.33301 8 -8 10 -14c3.33301 -9.33301 1.66602 -17.666 -5.00098 -24.999c-1.33301 -2 -3.16602 -3.83301 -5.49902 -5.5s-3.83301 -2.5 -4.5 -2.5l-2 -1
c-2 0 -3.66699 -0.333008 -5 -1c-2 0 -4.33301 -0.333008 -7 -1c-4 0 -9.66699 -0.333008 -17 -1c-5.33301 0 -20 -0.333008 -44 -1c0.666992 -7.33301 1 -14.666 1 -21.999c0.666992 -18 2.66699 -42.667 6 -74c4.66699 -36.667 7.33398 -62.334 8.00098 -77.001
c0.666992 -7.33301 -1.33301 -13.666 -6 -18.999s-10.334 -8.33301 -17.001 -9c-5.33301 -8 -12.666 -12 -21.999 -12c-7.33301 0 -13.5 2.5 -18.5 7.5s-7.5 11.167 -7.5 18.5z" />
    <glyph glyph-name="G" unicode="G" horiz-adv-x="486" 
d="M341 317c34 4.66699 61.3291 2.99805 81.9961 -5.00195h4c6.66699 0 12.5 -2 17.5 -6s8.16699 -9.33301 9.5 -16c9.33301 -11.333 15 -25.333 17 -42c4.66699 -6.66699 6 -13.667 4 -21c-1.33301 -6.66699 -3.33301 -14 -6 -22
c-7.33301 -33.333 -23.666 -69.333 -48.999 -108c0.666992 -27.333 1 -44 1 -50c0 -7.33301 -2.5 -13.5 -7.5 -18.5s-11.167 -7.5 -18.5 -7.5c-8 0 -14.667 3 -20 9l-5 -4c-18 -21.333 -35 -35.333 -51 -42c-52 -21.333 -107 -14.333 -165 21
c-46.667 28.667 -84 67 -112 115c-32.667 57.333 -56 124.5 -70 201.5s-18.167 153.167 -12.5 228.5s19.167 144.666 40.5 207.999c24 68.667 62.333 123.334 115 164.001c64 49.333 130.667 61 200 35c10.667 -4 16.334 -11.667 17.001 -23
c2.66699 -5.33301 3.66699 -11 3 -17c-1.33301 -6.66699 -5 -12 -11 -16s-12.667 -5.66699 -20 -5c-57.333 10.667 -104.333 1.33398 -141 -27.999c-32 -26 -57 -67.667 -75 -125c-25.333 -82.667 -34.666 -194.334 -27.999 -335.001
c0.666992 -14 1.33398 -37.833 2.00098 -71.5s1.5 -59.167 2.5 -76.5s4.5 -38 10.5 -62s14.333 -44.667 25 -62c12 -18.667 29.667 -36.167 53 -52.5s48 -27.833 74 -34.5c44.667 -11.333 80.334 -6.33301 107.001 15c3.33301 4 6.66602 8.33301 9.99902 13
c0.666992 6 2.66699 11 6 15c5.33301 5.33301 10.333 11.333 15 18l2 6v20c0.666992 40 6 72 16 96c0 0.666992 1 3.33398 3 8.00098s3.66699 8.33398 5 11.001c0.666992 2.66699 1.66699 4.66699 3 6c-7.33301 -0.666992 -15.333 -1.66699 -24 -3l-29 -6l-27 -5
c-6.66699 -0.666992 -13 1 -19 5s-9.5 9.5 -10.5 16.5s0.5 13.5 4.5 19.5s9.66699 9.66699 17 11l14 2c2.66699 11.333 9.66699 18 21 20z" />
    <glyph glyph-name="H" unicode="H" horiz-adv-x="378" 
d="M113 860c28 -158 38.6621 -332.332 31.9951 -522.999c18.667 17.333 38.667 28.666 60 33.999c30 7.33301 57.333 2.5 82 -14.5s44 -45.167 58 -84.5c12 -33.333 19 -66.333 21 -99c3.33301 -57.333 3.33301 -109.333 0 -156c-0.666992 -6.66699 -3.66699 -12.5 -9 -17.5
s-11.666 -7.16699 -18.999 -6.5c-6 0.666992 -11 3 -15 7c-2 -6 -5.66699 -10.667 -11 -14s-11 -4.66602 -17 -3.99902c-7.33301 0.666992 -13.166 3.83398 -17.499 9.50098s-6.16602 12.167 -5.49902 19.5c8.66699 76.667 10.334 137.667 5.00098 183
c-3.33301 35.333 -10.666 61.333 -21.999 78c-10.667 16 -25 23 -43 21c-19.333 -2 -37 -8.33301 -53 -19c-7.33301 -10 -13.666 -21 -18.999 -33l-2 -30c-5.33301 -76.667 -8 -117.334 -8 -122.001v-43v-14v-13v-9v-3v-1v-1v-3l-2 -4c-0.666992 -2.66699 -1.66699 -5 -3 -7
c-5.33301 -6.66699 -12.333 -10 -21 -10c-10 0 -17.667 4.33301 -23 13c-1.33301 1.33301 -2.33301 3 -3 5c-5.33301 5.33301 -8 11.666 -8 18.999c0 20 -0.666992 62 -2 126c-2 61.333 -2.33301 110.333 -1 147c5.33301 154 8 252 8 294
c0 65.333 -1.66699 119.666 -5 162.999c-4 49.333 -10 83 -18 101c-2.66699 6.66699 -2.83398 13.334 -0.500977 20.001s6.83301 11.667 13.5 15c10 4 19 3 27 -3c11.333 -2.66699 18.333 -9.66699 21 -21z" />
    <glyph glyph-name="I" unicode="I" horiz-adv-x="157" 
d="M88 965c11.333 7.33301 21.6689 6 31.002 -4c12.667 -12 20.667 -23.333 24 -34c2.66699 -9.33301 1.66699 -18 -3 -26c-4 -7.33301 -10.333 -12 -19 -14c-2 -7.33301 -6.33301 -12.666 -13 -15.999s-13.334 -3.83301 -20.001 -1.5s-11.667 6.5 -15 12.5l-12 24
c-3.33301 6 -4 12 -2 18c-1.33301 1.33301 -2.33301 2.66602 -3 3.99902c-3.33301 6.66699 -4 13.334 -2 20.001s6 12 12 16c7.33301 3.33301 14.666 3.66602 21.999 0.999023zM138.003 796c8 -99.333 10.667 -222.332 8 -368.999
c-0.666992 -27.333 -1.66699 -65.666 -3 -114.999s-2.5 -94.333 -3.5 -135s-1.5 -79.334 -1.5 -116.001c0 -7.33301 -2.5 -13.5 -7.5 -18.5s-11.167 -7.5 -18.5 -7.5s-13.5 2.5 -18.5 7.5s-7.5 11.167 -7.5 18.5v33v3v385c0 12.667 0.166992 33.167 0.5 61.5
s0.333008 50.5 0 66.5s-0.666016 35.667 -0.999023 59s-1.5 45 -3.5 65s-4.66699 39.667 -8 59c-0.666992 6.66699 1 13 5 19s9.66699 9.66699 17 11c5.33301 0.666992 10.666 -0.333008 15.999 -3c6.66699 0 12.5 -2.33301 17.5 -7s7.83301 -10.334 8.5 -17.001z" />
    <glyph glyph-name="J" unicode="J" horiz-adv-x="232" 
d="M203 851c6 -18.667 9.83301 -38.6748 11.5 -60.0078s2.16699 -47.666 1.5 -78.999s-1 -49.666 -1 -54.999c2 -128 3 -257.333 3 -388c0 -9.33301 0.666992 -27 2 -53s2 -46 2 -60c1.33301 -56 -3 -95.667 -13 -119c-15.333 -36.667 -43.666 -56.667 -84.999 -60
c-6 -0.666992 -12 -0.666992 -18 0c-22.667 -0.666992 -49 5 -79 17c-6.66699 2.66699 -11.334 7.33398 -14.001 14.001s-2.66699 13.334 0 20.001s7.33398 11.334 14.001 14.001c10.667 10.667 22 11.667 34 3c13.333 -9.33301 28.333 -14.666 45 -15.999
c2.66699 0 5.33398 0.333008 8.00098 1c11.333 2.66699 20 10 26 22c11.333 21.333 16.666 64 15.999 128c-0.666992 30.667 -2.33398 83.667 -5.00098 159s-4 133.333 -4 174c0 20.667 0.333008 50.334 1 89.001s1 64.667 1 78c0.666992 65.333 -1 120.333 -5 165
c-0.666992 6.66699 1.33301 12.834 6 18.501s10.667 8.83398 18 9.50098c6 0.666992 11.667 -1 17 -5c8.66699 -2.66699 14.667 -8.33398 18 -17.001z" />
    <glyph glyph-name="K" unicode="K" horiz-adv-x="342" 
d="M243 62l-2 -0.00292969c-4 -6 -9.66699 -10 -17 -12c-6.66699 -2 -13.167 -1.16699 -19.5 2.5s-10.166 9.16699 -11.499 16.5c-21.333 83.333 -43.666 146.333 -66.999 189l-16 -19c-0.666992 -1.33301 -1.33398 -2.33301 -2.00098 -3l-3 -52
c-0.666992 -5.33301 -0.333984 -28.333 0.999023 -69c1.33301 -34 -0.666992 -60 -6 -78c-0.666992 -2 -1.33398 -3.66699 -2.00098 -5c-4 -7.33301 -9.66699 -11.666 -17 -12.999c-5.33301 -1.33301 -10 -1.33301 -14 0c-2 -0.666992 -4 -1 -6 -1
c-7.33301 -0.666992 -13.666 1.33301 -18.999 6s-8.33301 10.667 -9 18c-10 117.333 -12.667 282 -8 494c0.666992 22.667 2.5 54.834 5.5 96.501s4.5 71.834 4.5 90.501s-1.66699 49.334 -5 92.001c-1.33301 11.333 3 20 13 26l-1 7
c-0.666992 7.33301 1.16602 13.833 5.49902 19.5s10 9 17 10s13.333 -0.666992 19 -5s9.16699 -9.83301 10.5 -16.5c4.66699 -33.333 7 -69 7 -107l4 -29c6.66699 -44.667 10.334 -81 11.001 -109c2.66699 -76.667 2 -163.334 -2 -260.001l56 54l64 65l54 55
c4.66699 5.33301 10.667 8 18 8s13.333 -2.66699 18 -8c6 -5.33301 8.66699 -12 8 -20c0.666992 -8.66699 -2 -16 -8 -22c-46.667 -44 -101 -104.333 -163 -181l1 -2c56 -45.333 100.667 -123.666 134 -234.999c2 -6.66699 1.33301 -13.167 -2 -19.5s-8.5 -10.5 -15.5 -12.5
s-13.667 -1.33301 -20 2s-10.5 8.66602 -12.5 15.999z" />
    <glyph glyph-name="L" unicode="L" horiz-adv-x="152" 
d="M126 819c10 -74 15.501 -158.837 16.501 -254.504s-0.5 -180.5 -4.5 -254.5c-2 -64.667 -2 -125.334 0 -182.001c0 -7.33301 0.666992 -25.666 2 -54.999c0.666992 -10.667 1 -18.334 1 -23.001v-7v-1v-2v-1v-3l-2 -6c-1.33301 -4 -3.66602 -7.33301 -6.99902 -10
c-9.33301 -8 -19.333 -8.66699 -30 -2c-4.66699 2.66699 -8 6 -10 10c-1.33301 2 -2.16602 3.83301 -2.49902 5.5s-0.833008 3.83398 -1.5 6.50098c-0.666992 3.33301 -1.33398 8 -2.00098 14c-1.33301 8.66699 -2.33301 20.334 -3 35.001
c-0.666992 8 -1.16699 16.167 -1.5 24.5s-0.833008 15.5 -1.5 21.5v9c-2.66699 46 -4 111 -4 195c0 101.333 -0.666992 165.333 -2 192c-0.666992 7.33301 -2.16699 28.5 -4.5 63.5s-3.5 61.833 -3.5 80.5v24v2c0 0.666992 -0.333008 1.66699 -1 3c0 6 -0.333008 18 -1 36
c0 2 -0.166992 5.33301 -0.5 10s-0.5 8.33398 -0.5 11.001v11c0 2.66699 0.666992 5.33398 2 8.00098c1.33301 4 3.66602 7.33301 6.99902 10c1.33301 1.33301 3 2.66602 5 3.99902c-1.33301 6 -2.33301 12.333 -3 19s1.16602 12.834 5.49902 18.501s10 9 17 10
s13.333 -0.666992 19 -5s9.16699 -10.166 10.5 -17.499z" />
    <glyph glyph-name="M" unicode="M" horiz-adv-x="619" 
d="M156 771c-18 -8.66699 -35.6738 -25.335 -53.0068 -50.002c-2.66699 -4 -6.33398 -7 -11.001 -9c0.666992 -28.667 -0.166016 -69.667 -2.49902 -123s-3.5 -84.333 -3.5 -93c-2 -77.333 -3 -173.333 -3 -288c0 -10.667 -0.166992 -27.334 -0.5 -50.001
s-0.5 -40.167 -0.5 -52.5s0.666992 -27.333 2 -45s3.33301 -33.834 6 -48.501c0.666992 -7.33301 -1 -14 -5 -20s-9.5 -9.5 -16.5 -10.5s-13.5 0.5 -19.5 4.5s-9.66699 9.33301 -11 16c-2.66699 16.667 -4.66699 34.834 -6 54.501s-2 36 -2 49s0.166992 31.167 0.5 54.5
s0.5 39.333 0.5 48c0 114.667 1 211.334 3 290.001l3 80c1.33301 36 2.33301 64.5 3 85.5s0.5 46.333 -0.5 76s-3.16699 56.5 -6.5 80.5c-0.666992 7.33301 1.16602 13.833 5.49902 19.5s10 9 17 10s13.333 -0.666992 19 -5s9.16699 -9.83301 10.5 -16.5
c2 -14 3.33301 -28.333 4 -43l4 3c-0.666992 1.33301 -1 2.66602 -1 3.99902c-0.666992 7.33301 1.33301 13.666 6 18.999s10.667 8.33301 18 9c1.33301 0 5.5 0.333008 12.5 1s12.5 1 16.5 1c18 6.66699 35.667 8.33398 53 5.00098
c34.667 -6.66699 63.334 -29.667 86.001 -69c18.667 35.333 44.667 61.333 78 78c25.333 18.667 54.333 27.334 87 26.001c56 -2.66699 96.333 -29.334 121 -80.001c12.667 -25.333 22 -58.666 28 -99.999c7.33301 -37.333 11 -81.666 11 -132.999
c0 -60.667 -6.66699 -145 -20 -253c-1.33301 -11.333 -2.33301 -21 -3 -29c-0.666992 -5.33301 -2 -21.333 -4 -48s-3.66699 -45.334 -5 -56.001s-3.16602 -26.5 -5.49902 -47.5s-4.83301 -39.833 -7.5 -56.5s-6 -33 -10 -49c-8 -36.667 -13 -57.667 -15 -63
c-0.666992 -2 -1.33398 -3.66699 -2.00098 -5c-1.33301 -4 -4.16602 -7.5 -8.49902 -10.5s-9.5 -4.5 -15.5 -4.5c-6.66699 0 -12.667 2.33301 -18 7c-3.33301 4 -5.66602 8.66699 -6.99902 14v8v3c0.666992 3.33301 1.66699 9 3 17c10.667 58.667 16.334 93.667 17.001 105
c2 20 5.66699 48.333 11 85c4.66699 32.667 8.33398 59.667 11.001 81l7 55c0.666992 8 2.5 26.833 5.5 56.5s4.83301 49.834 5.5 60.501s2 28.5 4 53.5s3 45 3 60s-0.333008 32.833 -1 53.5s-2 40 -4 58l-3 30c-2 9.33301 -4.33301 18.333 -7 27
c-13.333 44 -33.333 73 -60 87c-30.667 16 -61 17.333 -91 4c-10 -8 -19 -18.667 -27 -32c-17.333 -28.667 -30.666 -69 -39.999 -121c10 -58 10.667 -144.667 2 -260c0 -4 1 -52.667 3 -146c0 -4 0.333008 -10.833 1 -20.5s1.33398 -22.167 2.00098 -37.5
c0.666992 -10 1.33398 -23.333 2.00098 -40c1.33301 -24.667 2.33301 -43.667 3 -57c0 -8.66699 -0.333008 -15.667 -1 -21v-8l-2 -6c-1.33301 -4.66699 -3.66602 -8.33398 -6.99902 -11.001c-3.33301 -4 -7.66602 -6.66699 -12.999 -8v-1
c-0.666992 -4.66699 -2.33398 -8.66699 -5.00098 -12c-6.66699 -11.333 -16.334 -15 -29.001 -11c-6.66699 2 -12 6 -16 12c-6 10.667 -10.667 28.667 -14 54c-2.66699 20.667 -4.66699 48 -6 82c-2.66699 62 -3 135 -1 219c2 80.667 5.66699 154.334 11 221.001v6
c-4.66699 28 -10 52.667 -16 74c-12.667 44.667 -28 75.334 -46 92.001c-8.66699 7.33301 -20 11 -34 11z" />
    <glyph glyph-name="N" unicode="N" horiz-adv-x="436" 
d="M101 733c1.33301 -14 2.49902 -33.833 3.49902 -59.5s1.83301 -44.167 2.5 -55.5c4.66699 -66.667 9 -164.334 13 -293.001s8 -223.667 12 -285c0.666992 -7.33301 -1.33301 -13.666 -6 -18.999s-10.334 -8.33301 -17.001 -9c-3.33301 -12 -11 -18.333 -23 -19
c-7.33301 -0.666992 -13.666 1.5 -18.999 6.5s-8.33301 10.833 -9 17.5c-4 70 -6.66699 169.667 -8 299c-0.666992 125.333 -1.66699 209.333 -3 252c-2.66699 91.333 -4.66699 143 -6 155c-3.33301 6 -4 12.333 -2 19c-3.33301 24 -7.66602 46 -12.999 66
c-2.66699 10.667 0 19.334 8 26.001c2 10 8 16.667 18 20c6.66699 2 13.167 1.33301 19.5 -2s10.5 -8.66602 12.5 -15.999c2.66699 -8 4.66699 -16 6 -24c55.333 30.667 108.333 30 159 -2c42.667 -26.667 76.667 -72 102 -136l4 -10
c29.333 -68.667 50.333 -178.667 63 -330c12.667 -146.667 12 -260.667 -2 -342c-2 -12 -9 -19.333 -21 -22c-5.33301 -4 -11.666 -5.66699 -18.999 -5c-6.66699 0.666992 -12.334 3.83398 -17.001 9.50098s-6.66699 12.167 -6 19.5c8 71.333 12.167 142.666 12.5 213.999
s-4 145.166 -13 221.499s-23.5 144.833 -43.5 205.5c-2 6.66699 -4 13 -6 19c-24 51.333 -55.333 84.333 -94 99c-35.333 13.333 -71.333 6.66602 -108 -20.001z" />
    <glyph glyph-name="O" unicode="O" horiz-adv-x="396" 
d="M50 84l-6.00293 11.999c-20.667 41.333 -35.334 82 -44.001 122c-7.33301 32 -13.666 77 -18.999 135c-5.33301 56 -7 112 -5 168c2 70 11 125.333 27 166c6.66699 16.667 14.334 31 23.001 43c18.667 36 52.667 55.667 102 59c26 2 51.667 -1.33301 77 -10
s46 -21.667 62 -39c37.333 -40.667 66 -107.334 86 -200.001c4.66699 -22 8.33398 -50 11.001 -84c14.667 -67.333 22.334 -134 23.001 -200s-6 -117.667 -20 -155c-14 -39.333 -33.833 -69.666 -59.5 -90.999s-54.5 -32.333 -86.5 -33h-11
c-24.667 -2 -48.667 3.33301 -72 16c-22 12 -42.333 29.333 -61 52c-8 8 -15.333 16.333 -22 25c-3.33301 4.66699 -5 9.33398 -5 14.001zM51.9971 669.999l0.00292969 -1.00195c-14 -35.333 -22 -85.333 -24 -150c-2 -53.333 -0.333008 -107 5 -161
c5.33301 -56 11 -98.667 17 -128c8 -36 21.333 -72.667 40 -110c7.33301 -14.667 16 -28.334 26 -41.001c29.333 -30 60.333 -46.667 93 -50c14 2.66699 28 9.33398 42 20.001c15.333 12.667 28.666 39.334 39.999 80.001c10 37.333 17 84 21 140
c4.66699 61.333 5 121.333 1 180l-10 39c-20 76 -46.333 135 -79 177c-34.667 44.667 -73.334 65 -116.001 61c-14 -1.33301 -26.333 -8.66602 -37 -21.999c-2.66699 -4.66699 -4.33398 -10 -5.00098 -16c-2 -8 -6.66699 -14 -14 -18z" />
    <glyph glyph-name="P" unicode="P" horiz-adv-x="354" 
d="M109 809l-0.999023 -17c0.666992 -52 0.333984 -109 -0.999023 -171c42.667 -10 77.667 -7.66699 105 7s45.333 36 54 64c9.33301 26.667 8.66602 52 -2.00098 76s-29.334 39.667 -56.001 47c-6 1.33301 -11.833 2.33301 -17.5 3s-12.5 0.666992 -20.5 0
s-13.833 -1.16699 -17.5 -1.5s-11.167 -1.5 -22.5 -3.5s-18.333 -3.33301 -21 -4zM71.001 865c87.333 28.667 156.667 26.333 208 -7c23.333 -14.667 40.333 -34.167 51 -58.5s15.334 -50.5 14.001 -78.5c-1.33301 -25.333 -7.83301 -49.833 -19.5 -73.5
s-27.334 -44.5 -47.001 -62.5s-44.5 -31 -74.5 -39s-62.333 -8.33301 -97 -1c-1.33301 -32.667 -2.66602 -72.334 -3.99902 -119.001c-7.33301 -188 -11 -317.333 -11 -388c0 -7.33301 -2.5 -13.5 -7.5 -18.5s-11.167 -7.5 -18.5 -7.5s-13.5 2.5 -18.5 7.5
s-7.5 11.167 -7.5 18.5v26c-0.666992 1.33301 -1 3 -1 5c-2.66699 38.667 -4.5 80.167 -5.5 124.5s-1.5 82.666 -1.5 114.999s1.16699 74.833 3.5 127.5s4.16602 90.834 5.49902 114.501s4 65.834 8 126.501s6.66699 99.334 8 116.001
c-0.666992 7.33301 -1 14.666 -1 21.999c0 4 0.666992 7.66699 2 11c-1.33301 2 -2.33301 4 -3 6c-2 6.66699 -1.33301 13.167 2 19.5s8.33301 10.833 15 13.5z" />
    <glyph glyph-name="Q" unicode="Q" horiz-adv-x="431" 
d="M326 843l-2.00098 12c-9.33301 -6.66699 -8.66602 -10.667 2.00098 -12zM345.999 901c14 0 22.3311 -6.66992 24.998 -20.0029v-1l2 -2c2 -5.33301 3.66699 -13.666 5 -24.999c0.666992 -4.66699 1.66699 -13 3 -25c0.666992 -9.33301 1.33398 -15.666 2.00098 -18.999
c7.33301 -43.333 7.33301 -95 0 -155c-2.66699 -24 -9 -47.667 -19 -71c-2 -32.667 -4.33301 -96.667 -7 -192s-6 -169 -10 -221c-0.666992 -4.66699 -2.33398 -17.167 -5.00098 -37.5s-4.66699 -40.5 -6 -60.5s-1.66602 -37.667 -0.999023 -53
c1.33301 -14 3.33301 -25.333 6 -34l18 13c9.33301 6.66699 15 10.667 17 12c6.66699 4 13.334 5.16699 20.001 3.5s12 -5.5 16 -11.5c2.66699 -4.66699 4 -9.66699 4 -15c4 -5.33301 5.5 -11.5 4.5 -18.5s-4.16699 -12.833 -9.5 -17.5c-28 -21.333 -52.667 -30.333 -74 -27
c-14.667 -6 -27.334 -6.66699 -38.001 -2c-6.66699 2.66699 -11.334 7.33398 -14.001 14.001c-1.33301 2 -2.16602 4.33301 -2.49902 7s-0.833008 5.66699 -1.5 9c0 5.33301 -0.333008 12.666 -1 21.999v65c0.666992 30 1.66699 69.667 3 119
c4 130.667 8 237.334 12 320.001c-48 -50 -101.667 -75 -161 -75h-3c-44.667 -7.33301 -79.667 2 -105 28c-33.333 25.333 -56.5 56.333 -69.5 93s-16.667 73.167 -11 109.5s17.834 72.5 36.501 108.5c2 5.33301 4.33301 10.333 7 15c30 64 86 114.667 168 152
c18.667 8 38.667 13.833 60 17.5s44 3.5 68 -0.5s44.333 -12.333 61 -25zM301.997 865.997c-47.333 14 -95.668 7.83496 -145.001 -18.498s-89.333 -64.833 -120 -115.5l-7 -12c-18 -48.667 -17.667 -106.334 1 -173.001c2.66699 -9.33301 6.66699 -22 12 -38
c6.66699 -18.667 11.334 -30 14.001 -34c1.33301 -2 2.66602 -3.66699 3.99902 -5c2 -2 4.33301 -3.66699 7 -5c10 -6.66699 29.667 -10 59 -10l8 2c34 8.66699 66.333 25 97 49c27.333 22 50.666 54.667 69.999 98l2 3c1.33301 22.667 3 45 5 67c0 2.66699 1 37 3 103
c0.666992 26 1.33398 46 2.00098 60c0 9.33301 0.333008 16.666 1 21.999c-2.66699 2.66699 -5.66699 4.66699 -9 6c-1.33301 0 -2.66602 0.333008 -3.99902 1z" />
    <glyph glyph-name="R" unicode="R" horiz-adv-x="304" 
d="M110 461c0 -11.333 0.330078 -21.6699 0.99707 -31.0029l9 -204c4.66699 -93.333 8 -165 10 -215c0 -7.33301 -2.33301 -13.666 -7 -18.999s-10.667 -8 -18 -8c-3.33301 0 -6.66602 0.666992 -9.99902 2c-11.333 -2.66699 -20.666 1 -27.999 11
c-2 3.33301 -3.66699 7 -5 11s-2.33301 9.66699 -3 17c-1.33301 8 -2.33301 23.333 -3 46c-2 45.333 -6.66699 98 -14 158c-15.333 124 -13.333 226 6 306c0.666992 4.66699 1.66699 9 3 13c0.666992 50.667 -0.666016 91 -3.99902 121l-4 33l-6 28
c-2 6.66699 -1.16699 13.167 2.5 19.5s9 10.333 16 12s13.667 0.666992 20 -3s10.166 -9.16699 11.499 -16.5l2 -7c0.666992 -1.33301 1.33398 -3 2.00098 -5c1.33301 -7.33301 2.33301 -14.666 3 -21.999c2 -9.33301 3.33301 -19 4 -29c1.33301 -8 2.33301 -16 3 -24
c32 41.333 73.667 67 125 77c10 4 20.333 7 31 9c8.66699 1.33301 16 -1 22 -7c9.33301 -4 14.333 -11.333 15 -22c0 -7.33301 -2.33301 -13.666 -7 -18.999s-10.667 -8 -18 -8c-10 -0.666992 -19.667 -1.66699 -29 -3c-40.667 -15.333 -72.667 -46 -96 -92
c-20 -39.333 -31.333 -82.333 -34 -129z" />
    <glyph glyph-name="S" unicode="S" horiz-adv-x="381" 
d="M350 740h-0.999023c-6 -4 -12.5 -5.5 -19.5 -4.5s-12.5 4.5 -16.5 10.5c-5.33301 7.33301 -11.333 13.333 -18 18c-18.667 8 -41.667 13.667 -69 17c-64 7.33301 -109.667 -10.667 -137 -54l-4 -6v-1c-10 -38 -12 -75.333 -6 -112c2.66699 -18.667 7.5 -36.667 14.5 -54
s17.667 -35.833 32 -55.5s26.166 -35.167 35.499 -46.5l46 -52c20 -22 35.5 -40 46.5 -54s24 -32.167 39 -54.5s26.5 -44.833 34.5 -67.5s13.333 -46.667 16 -72c2.66699 -28.667 -1.83301 -56 -13.5 -82s-28 -46.667 -49 -62s-45.333 -25.666 -73 -30.999
s-55.834 -2 -84.501 10c-4.66699 1.33301 -9.5 3.5 -14.5 6.5s-10.167 6.5 -15.5 10.5s-9.83301 7.5 -13.5 10.5s-7.66699 6.5 -12 10.5s-7.16602 6.33301 -8.49902 7c-5.33301 4.66699 -8.33301 10.5 -9 17.5s1.33301 13.5 6 19.5c4 4.66699 9 7.66699 15 9
c1.33301 2 2.66602 4.33301 3.99902 7c4.66699 5.33301 10.5 8.5 17.5 9.5s13.5 -0.5 19.5 -4.5c15.333 -12 34 -18.833 56 -20.5s42 1.5 60 9.5c18 8.66699 31.333 20.834 40 36.501s10.334 34.167 5.00098 55.5c-5.33301 20 -14.833 40.833 -28.5 62.5
s-26.334 39.167 -38.001 52.5s-30.167 33 -55.5 59l-55 62c-14 16 -28.833 37.667 -44.5 65s-26.167 54.333 -31.5 81c-15.333 72.667 -9.66602 135 17.001 187c15.333 55.333 43 90.666 83 105.999c19.333 8 44.666 9.66699 75.999 5c19.333 -2.66699 41.333 -8 66 -16
c26.667 -8.66699 46.334 -17 59.001 -25c13.333 -6.66699 26.333 -14.334 39 -23.001c6 -4 9.5 -9.5 10.5 -16.5s-0.5 -13.5 -4.5 -19.5s-9.33301 -9.66699 -16 -11z" />
    <glyph glyph-name="T" unicode="T" horiz-adv-x="329" 
d="M34 667c25.333 1.33301 51.3369 1.66504 78.0039 0.998047c-2 54 -7.33301 99.333 -16 136c-2.66699 11.333 0.666016 20.333 9.99902 27c2 10 8 16.333 18 19c6.66699 2 13.167 1.33301 19.5 -2s10.5 -8.66602 12.5 -15.999c14.667 -48 23 -104.333 25 -169
c35.333 -4 73 -9.33301 113 -16c6 -1.33301 11 -4.5 15 -9.5s6 -10.5 6 -16.5c3.33301 -5.33301 4.66602 -11.333 3.99902 -18c-1.33301 -6.66699 -4.83301 -12.167 -10.5 -16.5s-12.167 -6.16602 -19.5 -5.49902c-68.667 9.33301 -104.667 14.333 -108 15
c0 -23.333 -1.16699 -56.833 -3.5 -100.5s-3.5 -67.834 -3.5 -72.501v-10c4 -125.333 6 -244.666 6 -357.999c0 -11.333 -5 -19.333 -15 -24c-1.33301 -6 -4.33301 -11.167 -9 -15.5s-10.334 -6.5 -17.001 -6.5c-7.33301 0 -13.5 2.5 -18.5 7.5s-7.5 11.167 -7.5 18.5
c0 111.333 3 237.666 9 378.999l-6 139c-1.33301 26.667 -2 43.334 -2 50.001c-28.667 2.66699 -55.334 4 -80.001 4c-7.33301 0 -13.5 2.5 -18.5 7.5s-7.5 11.167 -7.5 18.5c0 2.66699 0.333008 5 1 7c0 7.33301 2.33301 13.5 7 18.5s10.667 7.83301 18 8.5z" />
    <glyph glyph-name="U" unicode="U" 
d="M371 264c-2 64 -1.66504 139.668 1.00195 227.001c0.666992 16 4 53.667 10 113c4.66699 45.333 6 81 4 107c-0.666992 7.33301 1.33301 13.666 6 18.999s10.667 8.33301 18 9h6c1.33301 4 3.66602 7.33301 6.99902 10c8.66699 7.33301 18.334 8.33301 29.001 3
c5.33301 -2.66699 9.33301 -7 12 -13l2 -4c1.33301 -3.33301 2 -6.66602 2 -9.99902v-11c0 -2.66699 0.333008 -5.33398 1 -8.00098v-51v-36c0 -12.667 -0.166992 -24 -0.5 -34s-0.5 -15.333 -0.5 -16c0 -13.333 -2.33301 -84.666 -7 -213.999
c-2.66699 -76.667 -4 -135.334 -4 -176.001c0 -10 0.166992 -28.5 0.5 -55.5s0.5 -47.833 0.5 -62.5c0 -2 0.166992 -5.33301 0.5 -10s0.5 -8 0.5 -10c0 -5.33301 -0.166992 -9.66602 -0.5 -12.999s-1.5 -6.33301 -3.5 -9c-6 -10.667 -14.667 -15 -26 -13
c-7.33301 0.666992 -13.333 4 -18 10c-1.33301 1.33301 -2.33301 3 -3 5c-2.66699 4.66699 -4.33398 11.667 -5.00098 21c0 1.33301 -0.333008 3 -1 5l-2 6c-6.66699 4.66699 -10.667 10.667 -12 18c-3.33301 24 -6.33301 48.667 -9 74c-10.667 -15.333 -23.667 -31 -39 -47
c-42.667 -52 -89.334 -82.667 -140.001 -92c-48 -8.66699 -84.667 9 -110 53c-10 16.667 -19 38.334 -27 65.001c-14 43.333 -24.333 95.666 -31 156.999s-10 114.333 -10 159s1 102.667 3 174s3 119.333 3 144v2v2h52v-2v-2v-15v-44
c0 -13.333 -0.166992 -38.833 -0.5 -76.5s-0.5 -66.834 -0.5 -87.501c1.33301 -102 4.33301 -181 9 -237c6 -68 14.333 -121 25 -159c4 -11.333 8 -22 12 -32c9.33301 -22.667 22.333 -36 39 -40c16 -4 36 -0.333008 60 11c26 12 51.667 30.667 77 56
c4 4.66699 8 9.66699 12 15c24.667 34.667 44 73 58 115z" />
    <glyph glyph-name="V" unicode="V" horiz-adv-x="370" 
d="M175 189c8 60 21 142.331 39 246.998c5.33301 32 13 66.667 23 104c6.66699 38.667 14.334 76 23.001 112c8 34 18 72 30 114l13 43l5 13l2 4c0 1.33301 0.333008 2.66602 1 3.99902s1.33398 2.33301 2.00098 3c1.33301 2 3 4 5 6c7.33301 5.33301 15 6.66602 23 3.99902
c8 -2 13.667 -6.66699 17 -14c1.33301 -3.33301 2 -6.33301 2 -9c0.666992 -2.66699 0.666992 -5.66699 0 -9c0 -4 -0.666992 -9 -2 -15c-2 -10.667 -5 -23.334 -9 -38.001l-20 -74c-2 -8.66699 -8.16699 -31.5 -18.5 -68.5s-17.833 -65.5 -22.5 -85.5
c-6 -31.333 -12.333 -69 -19 -113c-18.667 -128.667 -30 -204.667 -34 -228c-5.33301 -30 -11 -57.333 -17 -82v-3l-2 -25l1 -2c0 -1.33301 0.333008 -3.16602 1 -5.49902s1 -4.16602 1 -5.49902c1.33301 -7.33301 1.66602 -13.666 0.999023 -18.999
c-2 -7.33301 -6 -13 -12 -17c-6 -4.66699 -13 -6.66699 -21 -6c-2 0.666992 -4 1 -6 1c-4 -2 -8.66699 -2.66699 -14 -2c-8 1.33301 -14.667 5 -20 11c-2 3.33301 -4 7 -6 11c-2.66699 5.33301 -5.33398 12.333 -8.00098 21c-3.33301 13.333 -7.33301 31.666 -12 54.999
c0 2.66699 -5 33.667 -15 93c-2 12 -6 32.333 -12 61c-6.66699 32 -11 53.667 -13 65l-10 78l-11 84c-2.66699 19.333 -6.66699 43.5 -12 72.5s-11.333 55.833 -18 80.5s-14 48.334 -22 71.001c-2.66699 6.66699 -2.5 13.334 0.5 20.001s7.83301 11 14.5 13
c12 4.66699 22 2 30 -8c6 0 11.333 -1.83301 16 -5.5s7.66699 -8.5 9 -14.5c40 -175.333 71 -347.666 93 -516.999c0.666992 -6 2 -14.333 4 -25z" />
    <glyph glyph-name="W" unicode="W" horiz-adv-x="558" 
d="M5 903c5.33301 8.66699 13 12.998 23 12.998c7.33301 0 13.5 -2.5 18.5 -7.5s7.5 -11.167 7.5 -18.5c0 -21.333 0.333008 -42.333 1 -63c4 -26 7.33301 -63 10 -111c2 -12.667 15 -90 39 -232c3.33301 -19.333 7.33301 -44.666 12 -75.999
c5.33301 -36 10.333 -67.333 15 -94s9.66699 -52 15 -76l5 -26c2.66699 -14 5.66699 -28.5 9 -43.5s7 -29.167 11 -42.5c1.33301 -6.66699 3 -12.667 5 -18c5.33301 16.667 12.333 41.334 21 74.001c16.667 58.667 28 97.167 34 115.5s11.333 32.833 16 43.5
c8 16.667 16.667 27.334 26 32.001c16.667 8.66699 34.334 7.33398 53.001 -3.99902c8.66699 1.33301 16 -0.666992 22 -6c4.66699 -3.33301 8.66699 -9 12 -17c1.33301 -3.33301 3 -8.33301 5 -15l12 -43l1 -5l19 -47c7.33301 -17.333 17 -41.666 29 -72.999l22 -57v40
c0 16.667 0.166992 30 0.5 40s0.5 17 0.5 21c2 34.667 4.33301 121.667 7 261c2 110 6.33301 198.333 13 265l13 129c2 25.333 4 44.666 6 57.999c0.666992 8 1.33398 14 2.00098 18c0 2.66699 0.333008 4.66699 1 6c0 1.33301 0.333008 2.66602 1 3.99902l2 4
c3.33301 7.33301 8.66602 12 15.999 14c11.333 3.33301 21 0.333008 29 -9c2.66699 -3.33301 4.66699 -7.33301 6 -12c1.33301 -4 2 -9.33301 2 -16c1.33301 -9.33301 1.66602 -22.666 0.999023 -39.999c0 -20 -1.33301 -51.667 -4 -95
c-7.33301 -118.667 -12.333 -195.667 -15 -231c-3.33301 -46 -5.66602 -86.667 -6.99902 -122c-0.666992 -41.333 -0.5 -92.833 0.5 -154.5s1.5 -102.167 1.5 -121.5c0 -28.667 -0.333008 -53 -1 -73c-1.33301 -19.333 -3 -35 -5 -47c-0.666992 -8 -2 -14.333 -4 -19
c-3.33301 -11.333 -9.33301 -19 -18 -23c-1.33301 0 -2.33301 -0.333008 -3 -1c-0.666992 -2 -1.33398 -3.66699 -2.00098 -5c-6.66699 -11.333 -16.667 -15.333 -30 -12c-3.33301 0.666992 -6.33301 2 -9 4l-4 4c-0.666992 0.666992 -1.33398 1.66699 -2.00098 3
s-1.66699 3 -3 5l-4 6c-12.667 8 -24 20 -34 36c-16.667 25.333 -32.667 63.333 -48 114c-7.33301 24.667 -17 61 -29 109l-2 5l-2 -7l-4 -13l-3 -9l-22 -60c-10.667 -29.333 -20.667 -55.333 -30 -78s-19.666 -43.334 -30.999 -62.001c0 -0.666992 -0.333008 -2 -1 -4
c-2 -4.66699 -3.66699 -8 -5 -10c-8 -16 -19.667 -23.333 -35 -22h-3c-9.33301 -13.333 -20 -20.333 -32 -21c-5.33301 0 -10 1 -14 3s-7 4 -9 6l-2 4c-2 2 -3.66699 5 -5 9c-2.66699 4.66699 -5.33398 11.667 -8.00098 21c-4.66699 14 -10 33.333 -16 58
c-9.33301 38.667 -17.666 76.667 -24.999 114c-20.667 98.667 -40.667 241.667 -60 429c-2 20 -4 48.333 -6 85c-4.66699 37.333 -7.66699 73.666 -9 108.999c-3.33301 17.333 -7 34 -11 50c-3.33301 13.333 0.666992 23.333 12 30z" />
    <glyph glyph-name="X" unicode="X" horiz-adv-x="353" 
d="M44 21c0 22 1.83203 44.999 5.49902 68.999s8.5 51 14.5 81c6 28 10.333 49 13 63c16.667 96.667 35.667 194 57 292c-36 120.667 -75.667 217 -119 289c-6 10 -5.66699 20 1 30c-5.33301 12 -2.66602 22 8.00098 30c5.33301 4.66699 11.666 6.66699 18.999 6
s13 -4 17 -10c38 -47.333 71.667 -123 101 -227c8 33.333 16 64 24 92c6.66699 23.333 13 49 19 77v7c1.33301 7.33301 2 11.333 2 12c0.666992 6 1.66699 10.667 3 14s3 6 5 8c7.33301 8.66699 16.333 11.667 27 9c6.66699 -2 12 -6 16 -12
c0.666992 -2 1.66699 -4.33301 3 -7c4 -12 4 -30.667 0 -56c-3.33301 -18 -8.66602 -41 -15.999 -69c-4 -16 -10 -37.333 -18 -64l-14 -51c-6.66699 -28.667 -13 -58.334 -19 -89.001l3 -17c16 -55.333 29.667 -111 41 -167
c28.667 -107.333 63.334 -211.666 104.001 -312.999c2.66699 -6.66699 2.66699 -13.334 0 -20.001s-7.33398 -11.334 -14.001 -14.001s-13.334 -2.66699 -20.001 0s-11.334 7.33398 -14.001 14.001v1c-13.333 -1.33301 -22.666 4 -27.999 16
c-12 28.667 -23.333 62.334 -34 101.001s-17.667 67 -21 85l-21 102l-3 16l-17 67c-6.66699 -37.333 -15.167 -90.666 -25.5 -159.999s-17.5 -116 -21.5 -140c-1.33301 -6 -4.16602 -11 -8.49902 -15s-9.5 -6.33301 -15.5 -7c-1.33301 -14.667 -2 -29 -2 -43
c0 -7.33301 -2.5 -13.5 -7.5 -18.5s-11.167 -7.5 -18.5 -7.5s-13.5 2.5 -18.5 7.5s-7.5 11.167 -7.5 18.5z" />
    <glyph glyph-name="Y" unicode="Y" horiz-adv-x="366" 
d="M72 908c0.666992 -6 2.00098 -32.6699 4.00098 -80.0029c2 -39.333 5 -71.666 9 -96.999c6 -34.667 14.5 -61 25.5 -79s25.167 -27.667 42.5 -29c29.333 -2 55.666 11.333 78.999 40c19.333 24 35.333 55 48 93c0.666992 18.667 1.66699 34.667 3 48
c1.33301 12 2.66602 22 3.99902 30c2 12 5.33301 20.667 10 26l3 3v5v5v7v7c-0.666992 4 -1 7 -1 9c0.666992 1.33301 1 2.66602 1 3.99902c0 2.66699 1.33301 6 4 10c4 6.66699 9.66699 10.334 17 11.001c9.33301 2 17 -0.333008 23 -7l6 -10
c0.666992 -0.666992 1 -1.66699 1 -3c0 -0.666992 0.333008 -1.66699 1 -3c2.66699 -19.333 4.16699 -40.5 4.5 -63.5s-0.166992 -43 -1.5 -60s-3.33301 -38 -6 -63s-4.33398 -43.833 -5.00098 -56.5c-2.66699 -39.333 -3 -93.666 -1 -162.999
c2.66699 -87.333 3.66699 -143.333 3 -168c-2.66699 -93.333 -12 -194.333 -28 -303c-1.33301 -6.66699 -4.5 -12 -9.5 -16s-10.833 -6 -17.5 -6c-4 -11.333 -12 -17 -24 -17c-7.33301 0 -13.5 2.5 -18.5 7.5s-7.5 11.167 -7.5 18.5c0 72 5 170 15 294
c11.333 141.333 17.666 238 18.999 290c0 0.666992 0.333008 13.667 1 39c-41.333 -52 -84.333 -77 -129 -75c-33.333 1.33301 -60.666 19.666 -81.999 54.999c-15.333 25.333 -28.333 60 -39 104c-6.66699 28.667 -13.167 65.667 -19.5 111s-10.333 71.5 -12 78.5
s-0.5 13.5 3.5 19.5s9.33301 9.66699 16 11c8.66699 2 16.334 0 23.001 -6l6 2c7.33301 0.666992 13.833 -1.16602 19.5 -5.49902s8.83398 -10.166 9.50098 -17.499z" />
    <glyph glyph-name="Z" unicode="Z" horiz-adv-x="291" 
d="M45 858c3.33301 0 12.002 0.668945 26.002 2.00195c16 1.33301 28.667 1.66602 38 0.999023c18 0 32.667 -2 44 -6h2c27.333 -4.66699 45.333 -19.667 54 -45c4.66699 -14 5.33398 -37 2.00098 -69c-2.66699 -24 -7 -54.333 -13 -91l-8 -41l-9 -73
c-6 -44.667 -14.333 -102.167 -25 -172.5s-16.667 -112.5 -18 -126.5c-8 -74 -13.333 -119 -16 -135c-1.33301 -4.66699 -3.33301 -10.667 -6 -18v-3c0.666992 -14 2.66699 -22 6 -24c4.66699 -2.66699 16.667 -4 36 -4c6 0 15.5 0.333008 28.5 1s22.5 1 28.5 1
c4 0.666992 8 1 12 1h21h8h1h1h1c0.666992 0 1.66699 -0.333008 3 -1c1.33301 0 2.66602 -0.333008 3.99902 -1c5.33301 -2 9.66602 -6 12.999 -12c4 -7.33301 4 -15 0 -23c-2 -4 -5 -7.33301 -9 -10c-2 -2 -4.33301 -3.33301 -7 -4c-2 -0.666992 -3.33301 -1 -4 -1h-5h-32
c-51.333 -4.66699 -81 -6.66699 -89 -6h-5c-2.66699 0 -4.83398 0.166992 -6.50098 0.5s-4.33398 0.666016 -8.00098 0.999023s-6.83398 0.833008 -9.50098 1.5l-8 3c-3.33301 0.666992 -6.33301 1.66699 -9 3s-5.66699 3 -9 5s-6.16602 4.33301 -8.49902 7
s-4.5 5.66699 -6.5 9l-6 12c-4.66699 14 -3.33398 29.667 3.99902 47l3 8c0.666992 19.333 3.33398 50.333 8.00098 93c13.333 114 28 219.333 44 316l6 26l8 42l9 45c4 36.667 6.66699 69 8 97c1.33301 26 1.33301 46.667 0 62c-1.33301 14 -3 22.667 -5 26l-2 2
c-2.66699 0 -7.66699 -0.166992 -15 -0.5s-13.666 -0.5 -18.999 -0.5c-6 0 -11.333 2 -16 6c-3.33301 0 -8 -0.333008 -14 -1c-16 -1.33301 -26.333 -2 -31 -2c-7.33301 0 -13.5 2.5 -18.5 7.5s-7.5 11.167 -7.5 18.5s2.5 13.5 7.5 18.5s11.167 7.5 18.5 7.5z" />
    <glyph glyph-name="bracketleft" unicode="[" horiz-adv-x="292" 
d="M222 819c0.666992 -6.66699 -1.33301 -12.6621 -6 -17.9951s-10.667 -8.33301 -18 -9c-25.333 -2 -43.333 -21.333 -54 -58c-2 -5.33301 -3.66699 -11 -5 -17c0.666992 -8.66699 1.33398 -18.334 2.00098 -29.001c4 -68 6 -105 6 -111
c-0.666992 -40.667 -3.66699 -99.667 -9 -177l-9 -130c0 -4.66699 -0.333008 -11.334 -1 -20.001l-4 -34c-2 -14.667 -3.33301 -26.334 -4 -35.001c5.33301 -26.667 12.333 -47.667 21 -63c6.66699 -12 15 -22 25 -30h7c30.667 0.666992 53 -1.33301 67 -6
c10.667 -4 18.667 -7.33301 24 -10c4 -2.66699 7.33301 -5.33398 10 -8.00098c8.66699 -9.33301 10.667 -19.333 6 -30c-3.33301 -8 -9.33301 -13.333 -18 -16c-3.33301 -1.33301 -7 -2.33301 -11 -3h-23c-28.667 0.666992 -54.334 7.66699 -77.001 21
c-17.333 0.666992 -32.333 3.66699 -45 9c-20 9.33301 -33.333 22 -40 38c-2 4.66699 -3.33301 11.667 -4 21c0 5.33301 0.333008 12.333 1 21c0.666992 13.333 2 31.333 4 54c-8.66699 47.333 -12.667 106.666 -12 177.999c0.666992 86.667 7 175.667 19 267
c0.666992 4.66699 1.66699 13.5 3 26.5s2.83301 25.5 4.5 37.5s3.5 23.333 5.5 34c0 30.667 2.66699 56.667 8 78c7.33301 30 23.333 49.667 48 59c14 5.33301 35.333 7.66602 64 6.99902c6.66699 0 12.5 -2.66699 17.5 -8s7.5 -11.666 7.5 -18.999
c0 -8 -3.33301 -14.667 -10 -20z" />
    <glyph glyph-name="backslash" unicode="\" horiz-adv-x="362" 
d="M113 846c15.333 -28.667 28.8301 -61.334 40.4971 -98.001s22.667 -77.167 33 -121.5s18.833 -76.5 25.5 -96.5l27 -84l32 -100c8.66699 -27.333 17 -55.666 25 -84.999c24.667 -88.667 37.334 -133.667 38.001 -135c0 -0.666992 1 -2.33398 3 -5.00098
c0 -0.666992 1 -2.33398 3 -5.00098l5 -8c4 -7.33301 6.33301 -14 7 -20c2 -14.667 -3.33301 -25.667 -16 -33c-9.33301 -6 -18.666 -6 -27.999 0c-2.66699 2 -5 4.33301 -7 7c-2 2 -3.66699 4.66699 -5 8c-2.66699 4.66699 -6 11.334 -10 20.001
c-6 13.333 -13.667 32.333 -23 57c-17.333 43.333 -29.666 75.666 -36.999 96.999c-58 170 -110 341.333 -156 514c-4 14 0.333008 24 13 30c-4.66699 11.333 -10 22 -16 32c-3.33301 6.66699 -4 13.334 -2 20.001s6.16699 11.834 12.5 15.501s12.833 4.5 19.5 2.5
s12 -6 16 -12z" />
    <glyph glyph-name="bracketright" unicode="]" horiz-adv-x="269" 
d="M179 55c0.666992 4.66699 1.00391 11.002 1.00391 19.002c0 10.667 -0.333008 25.667 -1 45c0 6 -0.333008 19 -1 39c-0.666992 11.333 -1 19.666 -1 24.999v6v17c1.33301 36.667 1.33301 92.834 0 168.501s-1.33301 132.167 0 169.5c0.666992 10 2.5 33.667 5.5 71
s5.16699 67 6.5 89c2 34 2.33301 62.333 1 85c-1.33301 24 -4.33301 39.667 -9 47c-1.33301 2 -5 4 -11 6c-8 2 -18.667 2.66699 -32 2c-8.66699 0 -32 -3 -70 -9c-7.33301 -0.666992 -13.833 1.16602 -19.5 5.49902s-9 10 -10 17s0.666992 13.333 5 19
s9.83301 9.16699 16.5 10.5c34.667 4.66699 53 7.33398 55 8.00098c5.33301 4.66699 11.666 6.66699 18.999 6c0.666992 0 5.66699 -0.333008 15 -1s15.666 -1.33398 18.999 -2.00098s9.5 -2 18.5 -4s16 -4.5 21 -7.5s10.667 -7.33301 17 -13s11.5 -12.167 15.5 -19.5
c7.33301 -12 12.333 -30 15 -54c2.66699 -19.333 4.33398 -44 5.00098 -74c0 -44 -2.66699 -109 -8 -195c-2.66699 -42 -5.66699 -85 -9 -129l-10 -131c-2.66699 -35.333 -4 -62.666 -4 -81.999c0 -6.66699 0.333008 -17 1 -31c2 -38.667 3 -58.334 3 -59.001
c1.33301 -20.667 1.66602 -37.334 0.999023 -50.001c-0.666992 -18.667 -2.66699 -32.334 -6 -41.001c-4.66699 -9.33301 -13.334 -16 -26.001 -20c-6 -1.33301 -13 -2.66602 -21 -3.99902c-11.333 -1.33301 -21.666 -2 -30.999 -2h-23c-4 0.666992 -7 1 -9 1
c-2.66699 0.666992 -5.33398 1.66699 -8.00098 3c-12 6.66699 -16.333 16.667 -13 30c1.33301 7.33301 5.33301 12.666 12 15.999c1.33301 1.33301 3 2.33301 5 3s4.33301 1.33398 7 2.00098c1.33301 0 6 1.33301 14 4c15.333 3.33301 26.666 6.33301 33.999 9z" />
    <glyph glyph-name="asciicircum" unicode="^" horiz-adv-x="492" 
d="M194 536c7.33301 20.667 27.6699 86.9951 61.0029 198.995l29 98l9 31c2 4.66699 3.33301 8.33398 4 11.001c0.666992 2 1.5 3.66699 2.5 5s1.83301 2.66602 2.5 3.99902c3.33301 4 7.66602 7 12.999 9c14.667 4.66699 28.667 0.333984 42 -12.999
c7.33301 -7.33301 14.666 -18 21.999 -32c10.667 -21.333 22.334 -51.666 35.001 -90.999c8 -26.667 23 -83 45 -169c1.33301 -4.66699 3.33301 -12.667 6 -24l6 -24v-1c1.33301 -1.33301 3.33301 -4.33301 6 -9c3.33301 -6 5 -11.667 5 -17
c1.33301 -12 -2.66699 -21.667 -12 -29c-11.333 -8 -23 -8.33301 -35 -1c-4.66699 2.66699 -9.33398 7 -14.001 13c-5.33301 6.66699 -11 16.5 -17 29.5s-12.333 29.167 -19 48.5l-31 81l-34 87c-8 -31.333 -12.333 -50 -13 -56c-7.33301 -49.333 -14 -86.666 -20 -111.999
c-1.33301 -6.66699 -5 -12 -11 -16s-12.667 -5 -20 -3h-1c-4.66699 -15.333 -9 -27.666 -13 -36.999c-2 -6.66699 -6.33301 -11.5 -13 -14.5s-13.334 -3.33301 -20.001 -1s-11.5 6.83301 -14.5 13.5s-3.16699 13.334 -0.5 20.001z" />
    <glyph glyph-name="underscore" unicode="_" horiz-adv-x="551" 
d="M205 30c10 0 20.6689 -1.00098 32.002 -3.00098c4 4 9 6 15 6c69.333 2.66699 129.666 2.66699 180.999 0c0.666992 0 16 -1.66699 46 -5l10 -1l4 4h3h10c6.66699 -0.666992 12.667 -2 18 -4c11.333 -6 17 -15.333 17 -28c0 -9.33301 -4 -16.666 -12 -21.999
c-2.66699 -1.33301 -5.33398 -2.33301 -8.00098 -3c-1.33301 -0.666992 -3 -1 -5 -1h-3h-2c-2.66699 0 -6 0.333008 -10 1c-6.66699 0 -16 0.666992 -28 2c-5.33301 0.666992 -11.5 1.5 -18.5 2.5s-12.5 1.66699 -16.5 2s-6.33301 0.5 -7 0.5c-40 2 -84 2.33301 -132 1
c-42.667 -2 -73.334 -3.33301 -92.001 -4c-7.33301 0 -13.666 2.5 -18.999 7.5s-8 11 -8 18s2.5 13.167 7.5 18.5s10.833 8 17.5 8z" />
    <glyph glyph-name="grave" unicode="`" horiz-adv-x="279" 
d="M141 877c35.333 -43.333 65.667 -87.001 91 -131.001c1.33301 -3.33301 7.33301 -15.333 18 -36l12 -23c1.33301 -4 2.66602 -7 3.99902 -9c0.666992 -1.33301 1 -2.33301 1 -3c0.666992 -1.33301 1 -2.66602 1 -3.99902c0.666992 -2.66699 1 -5.33398 1 -8.00098
c-0.666992 -4.66699 -2 -8.66699 -4 -12c-5.33301 -8 -12.666 -12 -21.999 -12c-4.66699 0 -8.66699 1 -12 3c-1.33301 0.666992 -2.66602 1.66699 -3.99902 3c-0.666992 0 -1.33398 0.666992 -2.00098 2c-0.666992 0 -1.33398 0.333008 -2.00098 1l-1 1l-1 2l-4 5l-12 17
l-39 52l-62 83c-8 10.667 -7.66699 21.334 1 32.001l-4 5c-4.66699 5.33301 -6.66699 11.5 -6 18.5s3.83398 12.833 9.50098 17.5s12 6.66699 19 6s12.833 -4 17.5 -10z" />
    <glyph glyph-name="a" unicode="a" horiz-adv-x="467" 
d="M172 75c0 -1.33301 0.667969 -3.66699 2.00098 -7c1.33301 -2 6.33301 -4.66699 15 -8c11.333 -3.33301 25.666 -5.66602 42.999 -6.99902c10 -0.666992 20 -0.333984 30 0.999023c-24 14 -52.333 21.333 -85 22h-2c-1.33301 -0.666992 -2.33301 -1 -3 -1z
M3.00098 697.999c14 31.333 38.3271 62.6611 72.9941 93.9941c35.333 31.333 73 55 113 71c21.333 8.66699 42 14 62 16c58 12 103.667 6 137 -18c38 -27.333 60.333 -77 67 -149l2 -34c0.666992 -11.333 0.833984 -23.333 0.500977 -36s-0.666016 -23.667 -0.999023 -33
s-1.16602 -21 -2.49902 -35l-3 -33c-0.666992 -7.33301 -2.16699 -19 -4.5 -35s-3.83301 -26.667 -4.5 -32s-2.33398 -16.666 -5.00098 -33.999l-5 -33c-2 -12.667 -6.5 -44.5 -13.5 -95.5s-13.5 -92.833 -19.5 -125.5c-6 -31.333 -13 -63.333 -21 -96
c-6 -24 -13.667 -41.333 -23 -52c-8.66699 -18.667 -27.334 -32.334 -56.001 -41.001c-22 -6.66699 -48 -9.66699 -78 -9c-29.333 0 -55.333 3.66699 -78 11c-29.333 9.33301 -48.666 22.333 -57.999 39c-8 14.667 -10 28.334 -6 41.001
c3.33301 12.667 11.333 22.834 24 30.501s29.334 12.5 50.001 14.5c4.66699 2.66699 10.334 5 17.001 7c28.667 8.66699 56 9.33398 82 2.00098c17.333 -4.66699 41 -18.667 71 -42c2.66699 12.667 5 27 7 43s3.83301 34 5.5 54s3.16699 35.667 4.5 47
c1.33301 10.667 4.66602 35.5 9.99902 74.5l14 104.5c3.33301 30.667 6 61.334 8 92.001c8 116 2.33301 202.667 -17 260c-11.333 34 -30.333 55 -57 63c-4.66699 1.33301 -9.66699 2.33301 -15 3c-20.667 -2.66699 -42.667 -8.33398 -66 -17.001
c-28.667 -11.333 -54.667 -25.166 -78 -41.499s-39.666 -32.166 -48.999 -47.499c-4.66699 -8 -11.667 -12 -21 -12c-10 -12.667 -17.333 -24.667 -22 -36c-2.66699 -6 -7 -10.167 -13 -12.5s-12.167 -2.16602 -18.5 0.500977s-10.666 7 -12.999 13
s-2.16602 12.333 0.500977 19z" />
    <glyph glyph-name="b" unicode="b" horiz-adv-x="413" 
d="M132 339l12.998 7.99512c14.667 15.333 30.667 27.333 48 36c22.667 14 48.667 19.333 78 16s56 -17 80 -41c22 -22.667 37.167 -51 45.5 -85s9.83301 -67.667 4.5 -101s-15.666 -63 -30.999 -89c-22 -38.667 -65.667 -67.667 -131 -87c-41.333 -12 -76 -14.333 -104 -7
c-7.33301 0 -13.666 2.33301 -18.999 7c-14 7.33301 -23.667 16.333 -29 27c-4.66699 8.66699 -7.66699 25.334 -9 50.001c-1.33301 16.667 -2 38.667 -2 66c0 18 0.333008 40.333 1 67s1 42 1 46v420c0 12 0.666992 31 2 57s1.66602 45.333 0.999023 58
c-1.33301 18.667 -3.33301 35.667 -6 51v2l-4 10c-1.33301 4 -3.5 8.66699 -6.5 14s-5.5 10.666 -7.5 15.999c-2.66699 6.66699 -2.66699 13.334 0 20.001s7.33398 11.334 14.001 14.001c10 4 19 2.66699 27 -4c8 -2.66699 13.667 -8.33398 17 -17.001
c4 -13.333 7.66699 -27.666 11 -42.999c4 -16 6.33301 -35 7 -57c0.666992 -15.333 1 -31.666 1 -48.999s-0.166992 -36.166 -0.5 -56.499s-0.5 -35.166 -0.5 -44.499c0 -16 -0.333008 -66.667 -1 -152s-0.666992 -136 0 -152zM156.998 45.9951
c1.33301 0 2.66309 0.333008 3.99609 1c68 11.333 117.333 29 148 53c18.667 15.333 30.334 41 35.001 77c4 38 -1 72.667 -15 104c-14 30.667 -34 48 -60 52c-25.333 4 -55.666 -4.66699 -90.999 -26c-16.667 -18.667 -28.667 -38.667 -36 -60
c-1.33301 -4 -3.66602 -7.66699 -6.99902 -11c1.33301 -27.333 5 -63 11 -107c6.66699 -49.333 10.334 -77 11.001 -83z" />
    <glyph glyph-name="c" unicode="c" horiz-adv-x="365" 
d="M279 782c-4.66699 0.666992 -11.002 -0.000976562 -19.002 -2.00098c-28.667 -6.66699 -58 -29.667 -88 -69c-49.333 -62.667 -78.666 -136.334 -87.999 -221.001l-2 -21v-3c-0.666992 -62.667 7.66602 -123.667 24.999 -183c7.33301 -26 16.333 -50 27 -72
c19.333 -38 43.333 -72 72 -102c17.333 -18.667 40.666 -35.334 69.999 -50.001c2.66699 -1.33301 11.334 -3.33301 26.001 -6c20 -3.33301 34.667 -10 44 -20c4 -3.33301 6.66699 -7.33301 8 -12c2.66699 -11.333 -0.333008 -20.666 -9 -27.999
c-4 -2.66699 -8.66699 -4.33398 -14 -5.00098c-2 -0.666992 -4 -1 -6 -1c-4 0.666992 -9.66699 1.66699 -17 3c-8 1.33301 -19.667 4.33301 -35 9h-1l-11 3c-39.333 10.667 -71 27.667 -95 51c-52 50.667 -92.333 128.334 -121 233.001c-14.667 53.333 -19.667 114 -15 182
c0.666992 52.667 7.33398 101.334 20.001 146.001c33.333 117.333 78.333 192 135 224c9.33301 4.66699 20.333 8 33 10c10 6 20 10 30 12c27.333 6.66699 58 1.33398 92 -15.999c6.66699 -2.66699 11.167 -7.5 13.5 -14.5s1.83301 -13.5 -1.5 -19.5
c-2.66699 -6 -6.66699 -10.333 -12 -13c-1.33301 -6 -4.66602 -11.333 -9.99902 -16c-8 -8.66699 -17.667 -11.667 -29 -9c-4.66699 0.666992 -9.66699 2.66699 -15 6z" />
    <glyph glyph-name="d" unicode="d" horiz-adv-x="451" 
d="M421 116l11.999 -86.001c0.666992 -6.66699 -1.16602 -12.834 -5.49902 -18.501s-10.166 -9.16699 -17.499 -10.5c-12.667 -1.33301 -21.667 3.66699 -27 15c-1.33301 2.66699 -2.33301 5.33398 -3 8.00098c-4 22.667 -7.33301 46 -10 70
c-28 -10.667 -64.333 -19.334 -109 -26.001l-22 -7c-42 -11.333 -77.333 -17.333 -106 -18c-40 -0.666992 -71 8.33301 -93 27c-32.667 28.667 -45.667 60.667 -39 96c5.33301 27.333 22.666 54 51.999 80c22.667 20 49.5 37.667 80.5 53s57.833 25.333 80.5 30
c22 5.33301 44 7.33301 66 6c22.667 6 42.667 10 60 12l-4 41c-3.33301 36 -7.33301 124.333 -12 265c0 16.667 -0.333008 31.667 -1 45c-4.66699 62 -9.66699 120.667 -15 176c-1.33301 12.667 -3.33301 25.334 -6 38.001c-0.666992 4 0 8.33301 2 13l-1 5
c-0.666992 6.66699 1.33301 12.834 6 18.501s10.5 8.83398 17.5 9.50098s13.333 -1.33301 19 -6s8.83398 -10.667 9.50098 -18l5 -55c6.66699 -50 11.667 -109.333 15 -178c6 -79.333 13 -178.333 21 -297l15 -213l3 -24c6.66699 0 12.5 -2 17.5 -6
s8.16699 -9.33301 9.5 -16c0.666992 -6.66699 -0.833008 -12.834 -4.5 -18.501s-8.83398 -9.16699 -15.501 -10.5zM348.999 267.999c-22 8 -43.332 13 -63.999 15c-38 -10.667 -74.333 -23.667 -109 -39c-41.333 -18.667 -72 -37.667 -92 -57
c-18.667 -17.333 -25.667 -32.333 -21 -45c4 -10 16.667 -17.667 38 -23c23.333 -6 53.666 -8 90.999 -6c18.667 0.666992 38 2.66699 58 6c12.667 3.33301 38 11.333 76 24l36 11c-0.666992 10.667 -1.66699 21.334 -3 32.001c-4.66699 39.333 -8 66.666 -10 81.999z" />
    <glyph glyph-name="e" unicode="e" horiz-adv-x="409" 
d="M33 655c-4 4 -6.66797 8.99805 -8.00098 14.998c-1.33301 12.667 3.33398 21.667 14.001 27c2.66699 18.667 5.66699 36.334 9 53.001c14.667 66.667 39 113.334 73 140.001l3 1c26 30 56 48.667 90 56c34.667 8 67 5.66699 97 -7s53 -32 69 -58
c16.667 -24.667 22.834 -53.334 18.501 -86.001s-19.833 -62 -46.5 -88c-4 -4 -8.66699 -8 -14 -12c-26.667 -20 -67 -33 -121 -39c-20 -2 -50.333 -3.66699 -91 -5c-19.333 -0.666992 -32.333 -1 -39 -1c-2.66699 -30 -4 -62.333 -4 -97
c0.666992 -53.333 4 -109.333 10 -168c21.333 -125.333 60.666 -240.666 117.999 -345.999c15.333 -2 23.666 -3 24.999 -3c6.66699 -1.33301 12 -5 16 -11s5.5 -12.5 4.5 -19.5s-4.5 -12.5 -10.5 -16.5s-12.667 -5.66699 -20 -5c-1.33301 0.666992 -3.66602 1 -6.99902 1
c-1.33301 -1.33301 -3 -2.33301 -5 -3c-6 -4 -12.5 -5 -19.5 -3s-12.167 6 -15.5 12l-3 4c-10.667 4.66699 -19.334 10.667 -26.001 18c-18 17.333 -35 48 -51 92c-9.33301 26 -18.666 58 -27.999 96c-12 46 -21.667 105 -29 177c-16.667 98.667 -19.667 190.667 -9 276z
M96.999 712.998c5.33301 0 16.333 -0.333008 33 -1c32 0 57 0.666992 75 2c47.333 2.66699 81 10.667 101 24c8.66699 6 14.667 13.333 18 22c10 20.667 11 39.334 3 56.001c-8 15.333 -23 28 -45 38c-20.667 9.33301 -42.5 13.833 -65.5 13.5s-42.167 -5.5 -57.5 -15.5
c-6.66699 -7.33301 -13 -16 -19 -26c-18 -30.667 -32.333 -68.334 -43 -113.001z" />
    <glyph glyph-name="f" unicode="f" horiz-adv-x="331" 
d="M100 32c0 47.333 -2.49902 121.502 -7.49902 222.502s-7 191.667 -6 272s7.5 155.833 19.5 226.5c10.667 61.333 27.334 108.333 50.001 141c16.667 24 37 39.667 61 47c26.667 8.66699 56.334 5.66699 89.001 -9c6.66699 -3.33301 11.167 -8.33301 13.5 -15
s2 -13.334 -1 -20.001s-7.83301 -11.167 -14.5 -13.5s-13.334 -2.16602 -20.001 0.500977c-6 3.33301 -11.667 5.66602 -17 6.99902c-2.66699 -1.33301 -5.33398 -2.33301 -8.00098 -3c-32.667 -7.33301 -55 -30.333 -67 -69c-2 -7.33301 -3.83301 -14.833 -5.5 -22.5
s-3.16699 -16.5 -4.5 -26.5l-2 -24c-0.666992 -6 -1.5 -15 -2.5 -27s-1.5 -20.333 -1.5 -25c-14 -180 -20.667 -321 -20 -423h19c5.33301 5.33301 11.666 7.66602 18.999 6.99902c11.333 -0.666992 19.666 -1.33398 24.999 -2.00098
c3.33301 -0.666992 6 -1.33398 8 -2.00098c3.33301 -0.666992 6.33301 -1.66699 9 -3c4.66699 -3.33301 8 -8 10 -14c3.33301 -9.33301 1.66602 -17.666 -5.00098 -24.999c-1.33301 -2 -3.16602 -3.83301 -5.49902 -5.5s-3.83301 -2.5 -4.5 -2.5l-2 -1
c-2 0 -3.66699 -0.333008 -5 -1c-2 0 -4.33301 -0.333008 -7 -1c-4 0 -9.66699 -0.333008 -17 -1c-5.33301 0 -20 -0.333008 -44 -1c0.666992 -7.33301 1 -14.666 1 -21.999c0.666992 -18 2.66699 -42.667 6 -74c4.66699 -36.667 7.33398 -62.334 8.00098 -77.001
c0.666992 -7.33301 -1.33301 -13.666 -6 -18.999s-10.334 -8.33301 -17.001 -9c-5.33301 -8 -12.666 -12 -21.999 -12c-7.33301 0 -13.5 2.5 -18.5 7.5s-7.5 11.167 -7.5 18.5z" />
    <glyph glyph-name="g" unicode="g" horiz-adv-x="486" 
d="M341 317c34 4.66699 61.3291 2.99805 81.9961 -5.00195h4c6.66699 0 12.5 -2 17.5 -6s8.16699 -9.33301 9.5 -16c9.33301 -11.333 15 -25.333 17 -42c4.66699 -6.66699 6 -13.667 4 -21c-1.33301 -6.66699 -3.33301 -14 -6 -22
c-7.33301 -33.333 -23.666 -69.333 -48.999 -108c0.666992 -27.333 1 -44 1 -50c0 -7.33301 -2.5 -13.5 -7.5 -18.5s-11.167 -7.5 -18.5 -7.5c-8 0 -14.667 3 -20 9l-5 -4c-18 -21.333 -35 -35.333 -51 -42c-52 -21.333 -107 -14.333 -165 21
c-46.667 28.667 -84 67 -112 115c-32.667 57.333 -56 124.5 -70 201.5s-18.167 153.167 -12.5 228.5s19.167 144.666 40.5 207.999c24 68.667 62.333 123.334 115 164.001c64 49.333 130.667 61 200 35c10.667 -4 16.334 -11.667 17.001 -23
c2.66699 -5.33301 3.66699 -11 3 -17c-1.33301 -6.66699 -5 -12 -11 -16s-12.667 -5.66699 -20 -5c-57.333 10.667 -104.333 1.33398 -141 -27.999c-32 -26 -57 -67.667 -75 -125c-25.333 -82.667 -34.666 -194.334 -27.999 -335.001
c0.666992 -14 1.33398 -37.833 2.00098 -71.5s1.5 -59.167 2.5 -76.5s4.5 -38 10.5 -62s14.333 -44.667 25 -62c12 -18.667 29.667 -36.167 53 -52.5s48 -27.833 74 -34.5c44.667 -11.333 80.334 -6.33301 107.001 15c3.33301 4 6.66602 8.33301 9.99902 13
c0.666992 6 2.66699 11 6 15c5.33301 5.33301 10.333 11.333 15 18l2 6v20c0.666992 40 6 72 16 96c0 0.666992 1 3.33398 3 8.00098s3.66699 8.33398 5 11.001c0.666992 2.66699 1.66699 4.66699 3 6c-7.33301 -0.666992 -15.333 -1.66699 -24 -3l-29 -6l-27 -5
c-6.66699 -0.666992 -13 1 -19 5s-9.5 9.5 -10.5 16.5s0.5 13.5 4.5 19.5s9.66699 9.66699 17 11l14 2c2.66699 11.333 9.66699 18 21 20z" />
    <glyph glyph-name="h" unicode="h" horiz-adv-x="378" 
d="M113 860c28 -158 38.6621 -332.332 31.9951 -522.999c18.667 17.333 38.667 28.666 60 33.999c30 7.33301 57.333 2.5 82 -14.5s44 -45.167 58 -84.5c12 -33.333 19 -66.333 21 -99c3.33301 -57.333 3.33301 -109.333 0 -156c-0.666992 -6.66699 -3.66699 -12.5 -9 -17.5
s-11.666 -7.16699 -18.999 -6.5c-6 0.666992 -11 3 -15 7c-2 -6 -5.66699 -10.667 -11 -14s-11 -4.66602 -17 -3.99902c-7.33301 0.666992 -13.166 3.83398 -17.499 9.50098s-6.16602 12.167 -5.49902 19.5c8.66699 76.667 10.334 137.667 5.00098 183
c-3.33301 35.333 -10.666 61.333 -21.999 78c-10.667 16 -25 23 -43 21c-19.333 -2 -37 -8.33301 -53 -19c-7.33301 -10 -13.666 -21 -18.999 -33l-2 -30c-5.33301 -76.667 -8 -117.334 -8 -122.001v-43v-14v-13v-9v-3v-1v-1v-3l-2 -4c-0.666992 -2.66699 -1.66699 -5 -3 -7
c-5.33301 -6.66699 -12.333 -10 -21 -10c-10 0 -17.667 4.33301 -23 13c-1.33301 1.33301 -2.33301 3 -3 5c-5.33301 5.33301 -8 11.666 -8 18.999c0 20 -0.666992 62 -2 126c-2 61.333 -2.33301 110.333 -1 147c5.33301 154 8 252 8 294
c0 65.333 -1.66699 119.666 -5 162.999c-4 49.333 -10 83 -18 101c-2.66699 6.66699 -2.83398 13.334 -0.500977 20.001s6.83301 11.667 13.5 15c10 4 19 3 27 -3c11.333 -2.66699 18.333 -9.66699 21 -21z" />
    <glyph glyph-name="i" unicode="i" horiz-adv-x="157" 
d="M88 965c11.333 7.33301 21.6689 6 31.002 -4c12.667 -12 20.667 -23.333 24 -34c2.66699 -9.33301 1.66699 -18 -3 -26c-4 -7.33301 -10.333 -12 -19 -14c-2 -7.33301 -6.33301 -12.666 -13 -15.999s-13.334 -3.83301 -20.001 -1.5s-11.667 6.5 -15 12.5l-12 24
c-3.33301 6 -4 12 -2 18c-1.33301 1.33301 -2.33301 2.66602 -3 3.99902c-3.33301 6.66699 -4 13.334 -2 20.001s6 12 12 16c7.33301 3.33301 14.666 3.66602 21.999 0.999023zM138.003 796c8 -99.333 10.667 -222.332 8 -368.999
c-0.666992 -27.333 -1.66699 -65.666 -3 -114.999s-2.5 -94.333 -3.5 -135s-1.5 -79.334 -1.5 -116.001c0 -7.33301 -2.5 -13.5 -7.5 -18.5s-11.167 -7.5 -18.5 -7.5s-13.5 2.5 -18.5 7.5s-7.5 11.167 -7.5 18.5v33v3v385c0 12.667 0.166992 33.167 0.5 61.5
s0.333008 50.5 0 66.5s-0.666016 35.667 -0.999023 59s-1.5 45 -3.5 65s-4.66699 39.667 -8 59c-0.666992 6.66699 1 13 5 19s9.66699 9.66699 17 11c5.33301 0.666992 10.666 -0.333008 15.999 -3c6.66699 0 12.5 -2.33301 17.5 -7s7.83301 -10.334 8.5 -17.001z" />
    <glyph glyph-name="j" unicode="j" horiz-adv-x="232" 
d="M203 851c6 -18.667 9.83301 -38.6748 11.5 -60.0078s2.16699 -47.666 1.5 -78.999s-1 -49.666 -1 -54.999c2 -128 3 -257.333 3 -388c0 -9.33301 0.666992 -27 2 -53s2 -46 2 -60c1.33301 -56 -3 -95.667 -13 -119c-15.333 -36.667 -43.666 -56.667 -84.999 -60
c-6 -0.666992 -12 -0.666992 -18 0c-22.667 -0.666992 -49 5 -79 17c-6.66699 2.66699 -11.334 7.33398 -14.001 14.001s-2.66699 13.334 0 20.001s7.33398 11.334 14.001 14.001c10.667 10.667 22 11.667 34 3c13.333 -9.33301 28.333 -14.666 45 -15.999
c2.66699 0 5.33398 0.333008 8.00098 1c11.333 2.66699 20 10 26 22c11.333 21.333 16.666 64 15.999 128c-0.666992 30.667 -2.33398 83.667 -5.00098 159s-4 133.333 -4 174c0 20.667 0.333008 50.334 1 89.001s1 64.667 1 78c0.666992 65.333 -1 120.333 -5 165
c-0.666992 6.66699 1.33301 12.834 6 18.501s10.667 8.83398 18 9.50098c6 0.666992 11.667 -1 17 -5c8.66699 -2.66699 14.667 -8.33398 18 -17.001z" />
    <glyph glyph-name="k" unicode="k" horiz-adv-x="342" 
d="M243 62l-2 -0.00292969c-4 -6 -9.66699 -10 -17 -12c-6.66699 -2 -13.167 -1.16699 -19.5 2.5s-10.166 9.16699 -11.499 16.5c-21.333 83.333 -43.666 146.333 -66.999 189l-16 -19c-0.666992 -1.33301 -1.33398 -2.33301 -2.00098 -3l-3 -52
c-0.666992 -5.33301 -0.333984 -28.333 0.999023 -69c1.33301 -34 -0.666992 -60 -6 -78c-0.666992 -2 -1.33398 -3.66699 -2.00098 -5c-4 -7.33301 -9.66699 -11.666 -17 -12.999c-5.33301 -1.33301 -10 -1.33301 -14 0c-2 -0.666992 -4 -1 -6 -1
c-7.33301 -0.666992 -13.666 1.33301 -18.999 6s-8.33301 10.667 -9 18c-10 117.333 -12.667 282 -8 494c0.666992 22.667 2.5 54.834 5.5 96.501s4.5 71.834 4.5 90.501s-1.66699 49.334 -5 92.001c-1.33301 11.333 3 20 13 26l-1 7
c-0.666992 7.33301 1.16602 13.833 5.49902 19.5s10 9 17 10s13.333 -0.666992 19 -5s9.16699 -9.83301 10.5 -16.5c4.66699 -33.333 7 -69 7 -107l4 -29c6.66699 -44.667 10.334 -81 11.001 -109c2.66699 -76.667 2 -163.334 -2 -260.001l56 54l64 65l54 55
c4.66699 5.33301 10.667 8 18 8s13.333 -2.66699 18 -8c6 -5.33301 8.66699 -12 8 -20c0.666992 -8.66699 -2 -16 -8 -22c-46.667 -44 -101 -104.333 -163 -181l1 -2c56 -45.333 100.667 -123.666 134 -234.999c2 -6.66699 1.33301 -13.167 -2 -19.5s-8.5 -10.5 -15.5 -12.5
s-13.667 -1.33301 -20 2s-10.5 8.66602 -12.5 15.999z" />
    <glyph glyph-name="l" unicode="l" horiz-adv-x="152" 
d="M126 819c10 -74 15.501 -158.837 16.501 -254.504s-0.5 -180.5 -4.5 -254.5c-2 -64.667 -2 -125.334 0 -182.001c0 -7.33301 0.666992 -25.666 2 -54.999c0.666992 -10.667 1 -18.334 1 -23.001v-7v-1v-2v-1v-3l-2 -6c-1.33301 -4 -3.66602 -7.33301 -6.99902 -10
c-9.33301 -8 -19.333 -8.66699 -30 -2c-4.66699 2.66699 -8 6 -10 10c-1.33301 2 -2.16602 3.83301 -2.49902 5.5s-0.833008 3.83398 -1.5 6.50098c-0.666992 3.33301 -1.33398 8 -2.00098 14c-1.33301 8.66699 -2.33301 20.334 -3 35.001
c-0.666992 8 -1.16699 16.167 -1.5 24.5s-0.833008 15.5 -1.5 21.5v9c-2.66699 46 -4 111 -4 195c0 101.333 -0.666992 165.333 -2 192c-0.666992 7.33301 -2.16699 28.5 -4.5 63.5s-3.5 61.833 -3.5 80.5v24v2c0 0.666992 -0.333008 1.66699 -1 3c0 6 -0.333008 18 -1 36
c0 2 -0.166992 5.33301 -0.5 10s-0.5 8.33398 -0.5 11.001v11c0 2.66699 0.666992 5.33398 2 8.00098c1.33301 4 3.66602 7.33301 6.99902 10c1.33301 1.33301 3 2.66602 5 3.99902c-1.33301 6 -2.33301 12.333 -3 19s1.16602 12.834 5.49902 18.501s10 9 17 10
s13.333 -0.666992 19 -5s9.16699 -10.166 10.5 -17.499z" />
    <glyph glyph-name="m" unicode="m" horiz-adv-x="619" 
d="M156 771c-18 -8.66699 -35.6738 -25.335 -53.0068 -50.002c-2.66699 -4 -6.33398 -7 -11.001 -9c0.666992 -28.667 -0.166016 -69.667 -2.49902 -123s-3.5 -84.333 -3.5 -93c-2 -77.333 -3 -173.333 -3 -288c0 -10.667 -0.166992 -27.334 -0.5 -50.001
s-0.5 -40.167 -0.5 -52.5s0.666992 -27.333 2 -45s3.33301 -33.834 6 -48.501c0.666992 -7.33301 -1 -14 -5 -20s-9.5 -9.5 -16.5 -10.5s-13.5 0.5 -19.5 4.5s-9.66699 9.33301 -11 16c-2.66699 16.667 -4.66699 34.834 -6 54.501s-2 36 -2 49s0.166992 31.167 0.5 54.5
s0.5 39.333 0.5 48c0 114.667 1 211.334 3 290.001l3 80c1.33301 36 2.33301 64.5 3 85.5s0.5 46.333 -0.5 76s-3.16699 56.5 -6.5 80.5c-0.666992 7.33301 1.16602 13.833 5.49902 19.5s10 9 17 10s13.333 -0.666992 19 -5s9.16699 -9.83301 10.5 -16.5
c2 -14 3.33301 -28.333 4 -43l4 3c-0.666992 1.33301 -1 2.66602 -1 3.99902c-0.666992 7.33301 1.33301 13.666 6 18.999s10.667 8.33301 18 9c1.33301 0 5.5 0.333008 12.5 1s12.5 1 16.5 1c18 6.66699 35.667 8.33398 53 5.00098
c34.667 -6.66699 63.334 -29.667 86.001 -69c18.667 35.333 44.667 61.333 78 78c25.333 18.667 54.333 27.334 87 26.001c56 -2.66699 96.333 -29.334 121 -80.001c12.667 -25.333 22 -58.666 28 -99.999c7.33301 -37.333 11 -81.666 11 -132.999
c0 -60.667 -6.66699 -145 -20 -253c-1.33301 -11.333 -2.33301 -21 -3 -29c-0.666992 -5.33301 -2 -21.333 -4 -48s-3.66699 -45.334 -5 -56.001s-3.16602 -26.5 -5.49902 -47.5s-4.83301 -39.833 -7.5 -56.5s-6 -33 -10 -49c-8 -36.667 -13 -57.667 -15 -63
c-0.666992 -2 -1.33398 -3.66699 -2.00098 -5c-1.33301 -4 -4.16602 -7.5 -8.49902 -10.5s-9.5 -4.5 -15.5 -4.5c-6.66699 0 -12.667 2.33301 -18 7c-3.33301 4 -5.66602 8.66699 -6.99902 14v8v3c0.666992 3.33301 1.66699 9 3 17c10.667 58.667 16.334 93.667 17.001 105
c2 20 5.66699 48.333 11 85c4.66699 32.667 8.33398 59.667 11.001 81l7 55c0.666992 8 2.5 26.833 5.5 56.5s4.83301 49.834 5.5 60.501s2 28.5 4 53.5s3 45 3 60s-0.333008 32.833 -1 53.5s-2 40 -4 58l-3 30c-2 9.33301 -4.33301 18.333 -7 27
c-13.333 44 -33.333 73 -60 87c-30.667 16 -61 17.333 -91 4c-10 -8 -19 -18.667 -27 -32c-17.333 -28.667 -30.666 -69 -39.999 -121c10 -58 10.667 -144.667 2 -260c0 -4 1 -52.667 3 -146c0 -4 0.333008 -10.833 1 -20.5s1.33398 -22.167 2.00098 -37.5
c0.666992 -10 1.33398 -23.333 2.00098 -40c1.33301 -24.667 2.33301 -43.667 3 -57c0 -8.66699 -0.333008 -15.667 -1 -21v-8l-2 -6c-1.33301 -4.66699 -3.66602 -8.33398 -6.99902 -11.001c-3.33301 -4 -7.66602 -6.66699 -12.999 -8v-1
c-0.666992 -4.66699 -2.33398 -8.66699 -5.00098 -12c-6.66699 -11.333 -16.334 -15 -29.001 -11c-6.66699 2 -12 6 -16 12c-6 10.667 -10.667 28.667 -14 54c-2.66699 20.667 -4.66699 48 -6 82c-2.66699 62 -3 135 -1 219c2 80.667 5.66699 154.334 11 221.001v6
c-4.66699 28 -10 52.667 -16 74c-12.667 44.667 -28 75.334 -46 92.001c-8.66699 7.33301 -20 11 -34 11z" />
    <glyph glyph-name="n" unicode="n" horiz-adv-x="436" 
d="M101 733c1.33301 -14 2.49902 -33.833 3.49902 -59.5s1.83301 -44.167 2.5 -55.5c4.66699 -66.667 9 -164.334 13 -293.001s8 -223.667 12 -285c0.666992 -7.33301 -1.33301 -13.666 -6 -18.999s-10.334 -8.33301 -17.001 -9c-3.33301 -12 -11 -18.333 -23 -19
c-7.33301 -0.666992 -13.666 1.5 -18.999 6.5s-8.33301 10.833 -9 17.5c-4 70 -6.66699 169.667 -8 299c-0.666992 125.333 -1.66699 209.333 -3 252c-2.66699 91.333 -4.66699 143 -6 155c-3.33301 6 -4 12.333 -2 19c-3.33301 24 -7.66602 46 -12.999 66
c-2.66699 10.667 0 19.334 8 26.001c2 10 8 16.667 18 20c6.66699 2 13.167 1.33301 19.5 -2s10.5 -8.66602 12.5 -15.999c2.66699 -8 4.66699 -16 6 -24c55.333 30.667 108.333 30 159 -2c42.667 -26.667 76.667 -72 102 -136l4 -10
c29.333 -68.667 50.333 -178.667 63 -330c12.667 -146.667 12 -260.667 -2 -342c-2 -12 -9 -19.333 -21 -22c-5.33301 -4 -11.666 -5.66699 -18.999 -5c-6.66699 0.666992 -12.334 3.83398 -17.001 9.50098s-6.66699 12.167 -6 19.5c8 71.333 12.167 142.666 12.5 213.999
s-4 145.166 -13 221.499s-23.5 144.833 -43.5 205.5c-2 6.66699 -4 13 -6 19c-24 51.333 -55.333 84.333 -94 99c-35.333 13.333 -71.333 6.66602 -108 -20.001z" />
    <glyph glyph-name="o" unicode="o" horiz-adv-x="396" 
d="M50 84l-6.00293 11.999c-20.667 41.333 -35.334 82 -44.001 122c-7.33301 32 -13.666 77 -18.999 135c-5.33301 56 -7 112 -5 168c2 70 11 125.333 27 166c6.66699 16.667 14.334 31 23.001 43c18.667 36 52.667 55.667 102 59c26 2 51.667 -1.33301 77 -10
s46 -21.667 62 -39c37.333 -40.667 66 -107.334 86 -200.001c4.66699 -22 8.33398 -50 11.001 -84c14.667 -67.333 22.334 -134 23.001 -200s-6 -117.667 -20 -155c-14 -39.333 -33.833 -69.666 -59.5 -90.999s-54.5 -32.333 -86.5 -33h-11
c-24.667 -2 -48.667 3.33301 -72 16c-22 12 -42.333 29.333 -61 52c-8 8 -15.333 16.333 -22 25c-3.33301 4.66699 -5 9.33398 -5 14.001zM51.9971 669.999l0.00292969 -1.00195c-14 -35.333 -22 -85.333 -24 -150c-2 -53.333 -0.333008 -107 5 -161
c5.33301 -56 11 -98.667 17 -128c8 -36 21.333 -72.667 40 -110c7.33301 -14.667 16 -28.334 26 -41.001c29.333 -30 60.333 -46.667 93 -50c14 2.66699 28 9.33398 42 20.001c15.333 12.667 28.666 39.334 39.999 80.001c10 37.333 17 84 21 140
c4.66699 61.333 5 121.333 1 180l-10 39c-20 76 -46.333 135 -79 177c-34.667 44.667 -73.334 65 -116.001 61c-14 -1.33301 -26.333 -8.66602 -37 -21.999c-2.66699 -4.66699 -4.33398 -10 -5.00098 -16c-2 -8 -6.66699 -14 -14 -18z" />
    <glyph glyph-name="p" unicode="p" horiz-adv-x="354" 
d="M109 809l-0.999023 -17c0.666992 -52 0.333984 -109 -0.999023 -171c42.667 -10 77.667 -7.66699 105 7s45.333 36 54 64c9.33301 26.667 8.66602 52 -2.00098 76s-29.334 39.667 -56.001 47c-6 1.33301 -11.833 2.33301 -17.5 3s-12.5 0.666992 -20.5 0
s-13.833 -1.16699 -17.5 -1.5s-11.167 -1.5 -22.5 -3.5s-18.333 -3.33301 -21 -4zM71.001 865c87.333 28.667 156.667 26.333 208 -7c23.333 -14.667 40.333 -34.167 51 -58.5s15.334 -50.5 14.001 -78.5c-1.33301 -25.333 -7.83301 -49.833 -19.5 -73.5
s-27.334 -44.5 -47.001 -62.5s-44.5 -31 -74.5 -39s-62.333 -8.33301 -97 -1c-1.33301 -32.667 -2.66602 -72.334 -3.99902 -119.001c-7.33301 -188 -11 -317.333 -11 -388c0 -7.33301 -2.5 -13.5 -7.5 -18.5s-11.167 -7.5 -18.5 -7.5s-13.5 2.5 -18.5 7.5
s-7.5 11.167 -7.5 18.5v26c-0.666992 1.33301 -1 3 -1 5c-2.66699 38.667 -4.5 80.167 -5.5 124.5s-1.5 82.666 -1.5 114.999s1.16699 74.833 3.5 127.5s4.16602 90.834 5.49902 114.501s4 65.834 8 126.501s6.66699 99.334 8 116.001
c-0.666992 7.33301 -1 14.666 -1 21.999c0 4 0.666992 7.66699 2 11c-1.33301 2 -2.33301 4 -3 6c-2 6.66699 -1.33301 13.167 2 19.5s8.33301 10.833 15 13.5z" />
    <glyph glyph-name="q" unicode="q" horiz-adv-x="431" 
d="M326 843l-2.00098 12c-9.33301 -6.66699 -8.66602 -10.667 2.00098 -12zM345.999 901c14 0 22.3311 -6.66992 24.998 -20.0029v-1l2 -2c2 -5.33301 3.66699 -13.666 5 -24.999c0.666992 -4.66699 1.66699 -13 3 -25c0.666992 -9.33301 1.33398 -15.666 2.00098 -18.999
c7.33301 -43.333 7.33301 -95 0 -155c-2.66699 -24 -9 -47.667 -19 -71c-2 -32.667 -4.33301 -96.667 -7 -192s-6 -169 -10 -221c-0.666992 -4.66699 -2.33398 -17.167 -5.00098 -37.5s-4.66699 -40.5 -6 -60.5s-1.66602 -37.667 -0.999023 -53
c1.33301 -14 3.33301 -25.333 6 -34l18 13c9.33301 6.66699 15 10.667 17 12c6.66699 4 13.334 5.16699 20.001 3.5s12 -5.5 16 -11.5c2.66699 -4.66699 4 -9.66699 4 -15c4 -5.33301 5.5 -11.5 4.5 -18.5s-4.16699 -12.833 -9.5 -17.5c-28 -21.333 -52.667 -30.333 -74 -27
c-14.667 -6 -27.334 -6.66699 -38.001 -2c-6.66699 2.66699 -11.334 7.33398 -14.001 14.001c-1.33301 2 -2.16602 4.33301 -2.49902 7s-0.833008 5.66699 -1.5 9c0 5.33301 -0.333008 12.666 -1 21.999v65c0.666992 30 1.66699 69.667 3 119
c4 130.667 8 237.334 12 320.001c-48 -50 -101.667 -75 -161 -75h-3c-44.667 -7.33301 -79.667 2 -105 28c-33.333 25.333 -56.5 56.333 -69.5 93s-16.667 73.167 -11 109.5s17.834 72.5 36.501 108.5c2 5.33301 4.33301 10.333 7 15c30 64 86 114.667 168 152
c18.667 8 38.667 13.833 60 17.5s44 3.5 68 -0.5s44.333 -12.333 61 -25zM301.997 865.997c-47.333 14 -95.668 7.83496 -145.001 -18.498s-89.333 -64.833 -120 -115.5l-7 -12c-18 -48.667 -17.667 -106.334 1 -173.001c2.66699 -9.33301 6.66699 -22 12 -38
c6.66699 -18.667 11.334 -30 14.001 -34c1.33301 -2 2.66602 -3.66699 3.99902 -5c2 -2 4.33301 -3.66699 7 -5c10 -6.66699 29.667 -10 59 -10l8 2c34 8.66699 66.333 25 97 49c27.333 22 50.666 54.667 69.999 98l2 3c1.33301 22.667 3 45 5 67c0 2.66699 1 37 3 103
c0.666992 26 1.33398 46 2.00098 60c0 9.33301 0.333008 16.666 1 21.999c-2.66699 2.66699 -5.66699 4.66699 -9 6c-1.33301 0 -2.66602 0.333008 -3.99902 1z" />
    <glyph glyph-name="r" unicode="r" horiz-adv-x="304" 
d="M110 461c0 -11.333 0.330078 -21.6699 0.99707 -31.0029l9 -204c4.66699 -93.333 8 -165 10 -215c0 -7.33301 -2.33301 -13.666 -7 -18.999s-10.667 -8 -18 -8c-3.33301 0 -6.66602 0.666992 -9.99902 2c-11.333 -2.66699 -20.666 1 -27.999 11
c-2 3.33301 -3.66699 7 -5 11s-2.33301 9.66699 -3 17c-1.33301 8 -2.33301 23.333 -3 46c-2 45.333 -6.66699 98 -14 158c-15.333 124 -13.333 226 6 306c0.666992 4.66699 1.66699 9 3 13c0.666992 50.667 -0.666016 91 -3.99902 121l-4 33l-6 28
c-2 6.66699 -1.16699 13.167 2.5 19.5s9 10.333 16 12s13.667 0.666992 20 -3s10.166 -9.16699 11.499 -16.5l2 -7c0.666992 -1.33301 1.33398 -3 2.00098 -5c1.33301 -7.33301 2.33301 -14.666 3 -21.999c2 -9.33301 3.33301 -19 4 -29c1.33301 -8 2.33301 -16 3 -24
c32 41.333 73.667 67 125 77c10 4 20.333 7 31 9c8.66699 1.33301 16 -1 22 -7c9.33301 -4 14.333 -11.333 15 -22c0 -7.33301 -2.33301 -13.666 -7 -18.999s-10.667 -8 -18 -8c-10 -0.666992 -19.667 -1.66699 -29 -3c-40.667 -15.333 -72.667 -46 -96 -92
c-20 -39.333 -31.333 -82.333 -34 -129z" />
    <glyph glyph-name="s" unicode="s" horiz-adv-x="381" 
d="M350 740h-0.999023c-6 -4 -12.5 -5.5 -19.5 -4.5s-12.5 4.5 -16.5 10.5c-5.33301 7.33301 -11.333 13.333 -18 18c-18.667 8 -41.667 13.667 -69 17c-64 7.33301 -109.667 -10.667 -137 -54l-4 -6v-1c-10 -38 -12 -75.333 -6 -112c2.66699 -18.667 7.5 -36.667 14.5 -54
s17.667 -35.833 32 -55.5s26.166 -35.167 35.499 -46.5l46 -52c20 -22 35.5 -40 46.5 -54s24 -32.167 39 -54.5s26.5 -44.833 34.5 -67.5s13.333 -46.667 16 -72c2.66699 -28.667 -1.83301 -56 -13.5 -82s-28 -46.667 -49 -62s-45.333 -25.666 -73 -30.999
s-55.834 -2 -84.501 10c-4.66699 1.33301 -9.5 3.5 -14.5 6.5s-10.167 6.5 -15.5 10.5s-9.83301 7.5 -13.5 10.5s-7.66699 6.5 -12 10.5s-7.16602 6.33301 -8.49902 7c-5.33301 4.66699 -8.33301 10.5 -9 17.5s1.33301 13.5 6 19.5c4 4.66699 9 7.66699 15 9
c1.33301 2 2.66602 4.33301 3.99902 7c4.66699 5.33301 10.5 8.5 17.5 9.5s13.5 -0.5 19.5 -4.5c15.333 -12 34 -18.833 56 -20.5s42 1.5 60 9.5c18 8.66699 31.333 20.834 40 36.501s10.334 34.167 5.00098 55.5c-5.33301 20 -14.833 40.833 -28.5 62.5
s-26.334 39.167 -38.001 52.5s-30.167 33 -55.5 59l-55 62c-14 16 -28.833 37.667 -44.5 65s-26.167 54.333 -31.5 81c-15.333 72.667 -9.66602 135 17.001 187c15.333 55.333 43 90.666 83 105.999c19.333 8 44.666 9.66699 75.999 5c19.333 -2.66699 41.333 -8 66 -16
c26.667 -8.66699 46.334 -17 59.001 -25c13.333 -6.66699 26.333 -14.334 39 -23.001c6 -4 9.5 -9.5 10.5 -16.5s-0.5 -13.5 -4.5 -19.5s-9.33301 -9.66699 -16 -11z" />
    <glyph glyph-name="t" unicode="t" horiz-adv-x="329" 
d="M34 667c25.333 1.33301 51.3369 1.66504 78.0039 0.998047c-2 54 -7.33301 99.333 -16 136c-2.66699 11.333 0.666016 20.333 9.99902 27c2 10 8 16.333 18 19c6.66699 2 13.167 1.33301 19.5 -2s10.5 -8.66602 12.5 -15.999c14.667 -48 23 -104.333 25 -169
c35.333 -4 73 -9.33301 113 -16c6 -1.33301 11 -4.5 15 -9.5s6 -10.5 6 -16.5c3.33301 -5.33301 4.66602 -11.333 3.99902 -18c-1.33301 -6.66699 -4.83301 -12.167 -10.5 -16.5s-12.167 -6.16602 -19.5 -5.49902c-68.667 9.33301 -104.667 14.333 -108 15
c0 -23.333 -1.16699 -56.833 -3.5 -100.5s-3.5 -67.834 -3.5 -72.501v-10c4 -125.333 6 -244.666 6 -357.999c0 -11.333 -5 -19.333 -15 -24c-1.33301 -6 -4.33301 -11.167 -9 -15.5s-10.334 -6.5 -17.001 -6.5c-7.33301 0 -13.5 2.5 -18.5 7.5s-7.5 11.167 -7.5 18.5
c0 111.333 3 237.666 9 378.999l-6 139c-1.33301 26.667 -2 43.334 -2 50.001c-28.667 2.66699 -55.334 4 -80.001 4c-7.33301 0 -13.5 2.5 -18.5 7.5s-7.5 11.167 -7.5 18.5c0 2.66699 0.333008 5 1 7c0 7.33301 2.33301 13.5 7 18.5s10.667 7.83301 18 8.5z" />
    <glyph glyph-name="u" unicode="u" 
d="M371 264c-2 64 -1.66504 139.668 1.00195 227.001c0.666992 16 4 53.667 10 113c4.66699 45.333 6 81 4 107c-0.666992 7.33301 1.33301 13.666 6 18.999s10.667 8.33301 18 9h6c1.33301 4 3.66602 7.33301 6.99902 10c8.66699 7.33301 18.334 8.33301 29.001 3
c5.33301 -2.66699 9.33301 -7 12 -13l2 -4c1.33301 -3.33301 2 -6.66602 2 -9.99902v-11c0 -2.66699 0.333008 -5.33398 1 -8.00098v-51v-36c0 -12.667 -0.166992 -24 -0.5 -34s-0.5 -15.333 -0.5 -16c0 -13.333 -2.33301 -84.666 -7 -213.999
c-2.66699 -76.667 -4 -135.334 -4 -176.001c0 -10 0.166992 -28.5 0.5 -55.5s0.5 -47.833 0.5 -62.5c0 -2 0.166992 -5.33301 0.5 -10s0.5 -8 0.5 -10c0 -5.33301 -0.166992 -9.66602 -0.5 -12.999s-1.5 -6.33301 -3.5 -9c-6 -10.667 -14.667 -15 -26 -13
c-7.33301 0.666992 -13.333 4 -18 10c-1.33301 1.33301 -2.33301 3 -3 5c-2.66699 4.66699 -4.33398 11.667 -5.00098 21c0 1.33301 -0.333008 3 -1 5l-2 6c-6.66699 4.66699 -10.667 10.667 -12 18c-3.33301 24 -6.33301 48.667 -9 74c-10.667 -15.333 -23.667 -31 -39 -47
c-42.667 -52 -89.334 -82.667 -140.001 -92c-48 -8.66699 -84.667 9 -110 53c-10 16.667 -19 38.334 -27 65.001c-14 43.333 -24.333 95.666 -31 156.999s-10 114.333 -10 159s1 102.667 3 174s3 119.333 3 144v2v2h52v-2v-2v-15v-44
c0 -13.333 -0.166992 -38.833 -0.5 -76.5s-0.5 -66.834 -0.5 -87.501c1.33301 -102 4.33301 -181 9 -237c6 -68 14.333 -121 25 -159c4 -11.333 8 -22 12 -32c9.33301 -22.667 22.333 -36 39 -40c16 -4 36 -0.333008 60 11c26 12 51.667 30.667 77 56
c4 4.66699 8 9.66699 12 15c24.667 34.667 44 73 58 115z" />
    <glyph glyph-name="v" unicode="v" horiz-adv-x="370" 
d="M175 189c8 60 21 142.331 39 246.998c5.33301 32 13 66.667 23 104c6.66699 38.667 14.334 76 23.001 112c8 34 18 72 30 114l13 43l5 13l2 4c0 1.33301 0.333008 2.66602 1 3.99902s1.33398 2.33301 2.00098 3c1.33301 2 3 4 5 6c7.33301 5.33301 15 6.66602 23 3.99902
c8 -2 13.667 -6.66699 17 -14c1.33301 -3.33301 2 -6.33301 2 -9c0.666992 -2.66699 0.666992 -5.66699 0 -9c0 -4 -0.666992 -9 -2 -15c-2 -10.667 -5 -23.334 -9 -38.001l-20 -74c-2 -8.66699 -8.16699 -31.5 -18.5 -68.5s-17.833 -65.5 -22.5 -85.5
c-6 -31.333 -12.333 -69 -19 -113c-18.667 -128.667 -30 -204.667 -34 -228c-5.33301 -30 -11 -57.333 -17 -82v-3l-2 -25l1 -2c0 -1.33301 0.333008 -3.16602 1 -5.49902s1 -4.16602 1 -5.49902c1.33301 -7.33301 1.66602 -13.666 0.999023 -18.999
c-2 -7.33301 -6 -13 -12 -17c-6 -4.66699 -13 -6.66699 -21 -6c-2 0.666992 -4 1 -6 1c-4 -2 -8.66699 -2.66699 -14 -2c-8 1.33301 -14.667 5 -20 11c-2 3.33301 -4 7 -6 11c-2.66699 5.33301 -5.33398 12.333 -8.00098 21c-3.33301 13.333 -7.33301 31.666 -12 54.999
c0 2.66699 -5 33.667 -15 93c-2 12 -6 32.333 -12 61c-6.66699 32 -11 53.667 -13 65l-10 78l-11 84c-2.66699 19.333 -6.66699 43.5 -12 72.5s-11.333 55.833 -18 80.5s-14 48.334 -22 71.001c-2.66699 6.66699 -2.5 13.334 0.5 20.001s7.83301 11 14.5 13
c12 4.66699 22 2 30 -8c6 0 11.333 -1.83301 16 -5.5s7.66699 -8.5 9 -14.5c40 -175.333 71 -347.666 93 -516.999c0.666992 -6 2 -14.333 4 -25z" />
    <glyph glyph-name="w" unicode="w" horiz-adv-x="558" 
d="M5 903c5.33301 8.66699 13 12.998 23 12.998c7.33301 0 13.5 -2.5 18.5 -7.5s7.5 -11.167 7.5 -18.5c0 -21.333 0.333008 -42.333 1 -63c4 -26 7.33301 -63 10 -111c2 -12.667 15 -90 39 -232c3.33301 -19.333 7.33301 -44.666 12 -75.999
c5.33301 -36 10.333 -67.333 15 -94s9.66699 -52 15 -76l5 -26c2.66699 -14 5.66699 -28.5 9 -43.5s7 -29.167 11 -42.5c1.33301 -6.66699 3 -12.667 5 -18c5.33301 16.667 12.333 41.334 21 74.001c16.667 58.667 28 97.167 34 115.5s11.333 32.833 16 43.5
c8 16.667 16.667 27.334 26 32.001c16.667 8.66699 34.334 7.33398 53.001 -3.99902c8.66699 1.33301 16 -0.666992 22 -6c4.66699 -3.33301 8.66699 -9 12 -17c1.33301 -3.33301 3 -8.33301 5 -15l12 -43l1 -5l19 -47c7.33301 -17.333 17 -41.666 29 -72.999l22 -57v40
c0 16.667 0.166992 30 0.5 40s0.5 17 0.5 21c2 34.667 4.33301 121.667 7 261c2 110 6.33301 198.333 13 265l13 129c2 25.333 4 44.666 6 57.999c0.666992 8 1.33398 14 2.00098 18c0 2.66699 0.333008 4.66699 1 6c0 1.33301 0.333008 2.66602 1 3.99902l2 4
c3.33301 7.33301 8.66602 12 15.999 14c11.333 3.33301 21 0.333008 29 -9c2.66699 -3.33301 4.66699 -7.33301 6 -12c1.33301 -4 2 -9.33301 2 -16c1.33301 -9.33301 1.66602 -22.666 0.999023 -39.999c0 -20 -1.33301 -51.667 -4 -95
c-7.33301 -118.667 -12.333 -195.667 -15 -231c-3.33301 -46 -5.66602 -86.667 -6.99902 -122c-0.666992 -41.333 -0.5 -92.833 0.5 -154.5s1.5 -102.167 1.5 -121.5c0 -28.667 -0.333008 -53 -1 -73c-1.33301 -19.333 -3 -35 -5 -47c-0.666992 -8 -2 -14.333 -4 -19
c-3.33301 -11.333 -9.33301 -19 -18 -23c-1.33301 0 -2.33301 -0.333008 -3 -1c-0.666992 -2 -1.33398 -3.66699 -2.00098 -5c-6.66699 -11.333 -16.667 -15.333 -30 -12c-3.33301 0.666992 -6.33301 2 -9 4l-4 4c-0.666992 0.666992 -1.33398 1.66699 -2.00098 3
s-1.66699 3 -3 5l-4 6c-12.667 8 -24 20 -34 36c-16.667 25.333 -32.667 63.333 -48 114c-7.33301 24.667 -17 61 -29 109l-2 5l-2 -7l-4 -13l-3 -9l-22 -60c-10.667 -29.333 -20.667 -55.333 -30 -78s-19.666 -43.334 -30.999 -62.001c0 -0.666992 -0.333008 -2 -1 -4
c-2 -4.66699 -3.66699 -8 -5 -10c-8 -16 -19.667 -23.333 -35 -22h-3c-9.33301 -13.333 -20 -20.333 -32 -21c-5.33301 0 -10 1 -14 3s-7 4 -9 6l-2 4c-2 2 -3.66699 5 -5 9c-2.66699 4.66699 -5.33398 11.667 -8.00098 21c-4.66699 14 -10 33.333 -16 58
c-9.33301 38.667 -17.666 76.667 -24.999 114c-20.667 98.667 -40.667 241.667 -60 429c-2 20 -4 48.333 -6 85c-4.66699 37.333 -7.66699 73.666 -9 108.999c-3.33301 17.333 -7 34 -11 50c-3.33301 13.333 0.666992 23.333 12 30z" />
    <glyph glyph-name="x" unicode="x" horiz-adv-x="353" 
d="M44 21c0 22 1.83203 44.999 5.49902 68.999s8.5 51 14.5 81c6 28 10.333 49 13 63c16.667 96.667 35.667 194 57 292c-36 120.667 -75.667 217 -119 289c-6 10 -5.66699 20 1 30c-5.33301 12 -2.66602 22 8.00098 30c5.33301 4.66699 11.666 6.66699 18.999 6
s13 -4 17 -10c38 -47.333 71.667 -123 101 -227c8 33.333 16 64 24 92c6.66699 23.333 13 49 19 77v7c1.33301 7.33301 2 11.333 2 12c0.666992 6 1.66699 10.667 3 14s3 6 5 8c7.33301 8.66699 16.333 11.667 27 9c6.66699 -2 12 -6 16 -12
c0.666992 -2 1.66699 -4.33301 3 -7c4 -12 4 -30.667 0 -56c-3.33301 -18 -8.66602 -41 -15.999 -69c-4 -16 -10 -37.333 -18 -64l-14 -51c-6.66699 -28.667 -13 -58.334 -19 -89.001l3 -17c16 -55.333 29.667 -111 41 -167
c28.667 -107.333 63.334 -211.666 104.001 -312.999c2.66699 -6.66699 2.66699 -13.334 0 -20.001s-7.33398 -11.334 -14.001 -14.001s-13.334 -2.66699 -20.001 0s-11.334 7.33398 -14.001 14.001v1c-13.333 -1.33301 -22.666 4 -27.999 16
c-12 28.667 -23.333 62.334 -34 101.001s-17.667 67 -21 85l-21 102l-3 16l-17 67c-6.66699 -37.333 -15.167 -90.666 -25.5 -159.999s-17.5 -116 -21.5 -140c-1.33301 -6 -4.16602 -11 -8.49902 -15s-9.5 -6.33301 -15.5 -7c-1.33301 -14.667 -2 -29 -2 -43
c0 -7.33301 -2.5 -13.5 -7.5 -18.5s-11.167 -7.5 -18.5 -7.5s-13.5 2.5 -18.5 7.5s-7.5 11.167 -7.5 18.5z" />
    <glyph glyph-name="y" unicode="y" horiz-adv-x="366" 
d="M72 908c0.666992 -6 2.00098 -32.6699 4.00098 -80.0029c2 -39.333 5 -71.666 9 -96.999c6 -34.667 14.5 -61 25.5 -79s25.167 -27.667 42.5 -29c29.333 -2 55.666 11.333 78.999 40c19.333 24 35.333 55 48 93c0.666992 18.667 1.66699 34.667 3 48
c1.33301 12 2.66602 22 3.99902 30c2 12 5.33301 20.667 10 26l3 3v5v5v7v7c-0.666992 4 -1 7 -1 9c0.666992 1.33301 1 2.66602 1 3.99902c0 2.66699 1.33301 6 4 10c4 6.66699 9.66699 10.334 17 11.001c9.33301 2 17 -0.333008 23 -7l6 -10
c0.666992 -0.666992 1 -1.66699 1 -3c0 -0.666992 0.333008 -1.66699 1 -3c2.66699 -19.333 4.16699 -40.5 4.5 -63.5s-0.166992 -43 -1.5 -60s-3.33301 -38 -6 -63s-4.33398 -43.833 -5.00098 -56.5c-2.66699 -39.333 -3 -93.666 -1 -162.999
c2.66699 -87.333 3.66699 -143.333 3 -168c-2.66699 -93.333 -12 -194.333 -28 -303c-1.33301 -6.66699 -4.5 -12 -9.5 -16s-10.833 -6 -17.5 -6c-4 -11.333 -12 -17 -24 -17c-7.33301 0 -13.5 2.5 -18.5 7.5s-7.5 11.167 -7.5 18.5c0 72 5 170 15 294
c11.333 141.333 17.666 238 18.999 290c0 0.666992 0.333008 13.667 1 39c-41.333 -52 -84.333 -77 -129 -75c-33.333 1.33301 -60.666 19.666 -81.999 54.999c-15.333 25.333 -28.333 60 -39 104c-6.66699 28.667 -13.167 65.667 -19.5 111s-10.333 71.5 -12 78.5
s-0.5 13.5 3.5 19.5s9.33301 9.66699 16 11c8.66699 2 16.334 0 23.001 -6l6 2c7.33301 0.666992 13.833 -1.16602 19.5 -5.49902s8.83398 -10.166 9.50098 -17.499z" />
    <glyph glyph-name="z" unicode="z" horiz-adv-x="291" 
d="M45 858c3.33301 0 12.002 0.668945 26.002 2.00195c16 1.33301 28.667 1.66602 38 0.999023c18 0 32.667 -2 44 -6h2c27.333 -4.66699 45.333 -19.667 54 -45c4.66699 -14 5.33398 -37 2.00098 -69c-2.66699 -24 -7 -54.333 -13 -91l-8 -41l-9 -73
c-6 -44.667 -14.333 -102.167 -25 -172.5s-16.667 -112.5 -18 -126.5c-8 -74 -13.333 -119 -16 -135c-1.33301 -4.66699 -3.33301 -10.667 -6 -18v-3c0.666992 -14 2.66699 -22 6 -24c4.66699 -2.66699 16.667 -4 36 -4c6 0 15.5 0.333008 28.5 1s22.5 1 28.5 1
c4 0.666992 8 1 12 1h21h8h1h1h1c0.666992 0 1.66699 -0.333008 3 -1c1.33301 0 2.66602 -0.333008 3.99902 -1c5.33301 -2 9.66602 -6 12.999 -12c4 -7.33301 4 -15 0 -23c-2 -4 -5 -7.33301 -9 -10c-2 -2 -4.33301 -3.33301 -7 -4c-2 -0.666992 -3.33301 -1 -4 -1h-5h-32
c-51.333 -4.66699 -81 -6.66699 -89 -6h-5c-2.66699 0 -4.83398 0.166992 -6.50098 0.5s-4.33398 0.666016 -8.00098 0.999023s-6.83398 0.833008 -9.50098 1.5l-8 3c-3.33301 0.666992 -6.33301 1.66699 -9 3s-5.66699 3 -9 5s-6.16602 4.33301 -8.49902 7
s-4.5 5.66699 -6.5 9l-6 12c-4.66699 14 -3.33398 29.667 3.99902 47l3 8c0.666992 19.333 3.33398 50.333 8.00098 93c13.333 114 28 219.333 44 316l6 26l8 42l9 45c4 36.667 6.66699 69 8 97c1.33301 26 1.33301 46.667 0 62c-1.33301 14 -3 22.667 -5 26l-2 2
c-2.66699 0 -7.66699 -0.166992 -15 -0.5s-13.666 -0.5 -18.999 -0.5c-6 0 -11.333 2 -16 6c-3.33301 0 -8 -0.333008 -14 -1c-16 -1.33301 -26.333 -2 -31 -2c-7.33301 0 -13.5 2.5 -18.5 7.5s-7.5 11.167 -7.5 18.5s2.5 13.5 7.5 18.5s11.167 7.5 18.5 7.5z" />
    <glyph glyph-name="braceleft" unicode="{" horiz-adv-x="404" 
d="M142 399l-1.99609 4.99805c-14.667 27.333 -23.334 48.666 -26.001 63.999c-6 40.667 -5 85.334 3 134.001c8 47.333 22.333 93 43 137c22 46.667 50 86.334 84 119.001c34.667 33.333 74.334 54.333 119.001 63c6.66699 2 13 1 19 -3s9.83301 -9.5 11.5 -16.5
s0.5 -13.5 -3.5 -19.5s-9.66699 -9.66699 -17 -11c-20.667 -4.66699 -40.667 -13 -60 -25c5.33301 -12.667 2.33301 -23 -9 -31c-46.667 -34.667 -77.334 -76 -92.001 -124s-16 -103.667 -4 -167c0 -3.33301 1.33301 -10 4 -20s4.66699 -19.5 6 -28.5
s1.66602 -18.5 0.999023 -28.5c-2 -19.333 -7.33301 -37 -16 -53c3.33301 -10 5.66602 -19.333 6.99902 -28c2.66699 -23.333 -7.33301 -41.333 -30 -54c-8 -4.66699 -24 -10.334 -48 -17.001l-9 -3c-6.66699 -17.333 -8.33398 -39 -5.00098 -65l32 -57
c38 -66 59.667 -102.667 65 -110l11 -8l25 -19l24 -18c4 -3.33301 7 -5.66602 9 -6.99902l4 -4c0.666992 -0.666992 1.33398 -1.66699 2.00098 -3c1.33301 -1.33301 2.33301 -2.66602 3 -3.99902c2.66699 -5.33301 3.66699 -10.666 3 -15.999
c-4 -22 -20.333 -35.333 -49 -40c-8.66699 -2 -21.334 -2.66699 -38.001 -2c-58.667 2 -98.334 41.667 -119.001 119c-4 15.333 -7.33301 32.166 -10 50.499s-5.16699 38.833 -7.5 61.5s-3.83301 36 -4.5 40l-4 8c-6 10.667 -10.667 19.334 -14 26.001
c-2 3.33301 -3.33301 6.33301 -4 9c-2 4 -3.33301 7.66699 -4 11c-4 25.333 4.66699 45.333 26 60c4.66699 3.33301 10.667 6.66602 18 9.99902c6.66699 11.333 15.667 23 27 35l15 15c6.66699 6.66699 11.334 11.667 14.001 15zM220.004 -9.00195l-26 20
c-10 7.33301 -16.333 13 -19 17c-4.66699 6 -17.667 26.667 -39 62c1.33301 -6.66699 3 -12.667 5 -18c14 -52.667 37.333 -79.667 70 -81h9z" />
    <glyph glyph-name="bar" unicode="|" horiz-adv-x="204" 
d="M194 851c-1.33301 -28 -3.66309 -72.3369 -6.99609 -133.004l-8 -144c-2 -35.333 -4 -78.666 -6 -129.999c-2 -46.667 -3.33301 -93.667 -4 -141c-0.666992 -30.667 0.333008 -79 3 -145c2.66699 -69.333 4 -118.333 4 -147v-4v-2c0 -2.66699 -0.666992 -5 -2 -7
c-1.33301 -3.33301 -3 -6 -5 -8c-6 -6.66699 -13.333 -9.66699 -22 -9c-7.33301 0.666992 -13 4 -17 10c-2 1.33301 -3.33301 3.33301 -4 6c-1.33301 2.66699 -2 4.66699 -2 6v3c-0.666992 3.33301 -1.33398 9 -2.00098 17c-1.33301 24.667 -2.33301 38.667 -3 42l-3 34
c-4.66699 4.66699 -7.33398 10.334 -8.00098 17.001c-3.33301 46 -5 97 -5 153c-2.66699 37.333 -6.33398 92 -11.001 164l-9 158c-2 33.333 -3 73 -3 119v62c0.666992 8 1.66699 14 3 18c3.33301 8.66699 9.16602 14.334 17.499 17.001s16.5 1.33398 24.5 -3.99902
c5.33301 -3.33301 10 -8 14 -14l3 64c0.666992 7.33301 3.66699 13.5 9 18.5s11.5 7.16699 18.5 6.5s13 -3.66699 18 -9s7.16699 -11.333 6.5 -18z" />
    <glyph glyph-name="braceright" unicode="}" horiz-adv-x="396" 
d="M35 894c94 0 159.002 -38.334 195.002 -115.001c27.333 -58.667 34.666 -133.667 21.999 -225c-2 -10.667 -5 -25 -9 -43l-5 -24v-14c2 -38 15 -68.333 39 -91h16c30.667 -2 53.667 -11.333 69 -28c19.333 -21.333 27.333 -55 24 -101
c-1.33301 -17.333 -4.66602 -34.666 -9.99902 -51.999c-2 -23.333 -9 -47 -21 -71c-20.667 -42 -52 -80 -94 -114c-8 -7.33301 -18 -14 -30 -20c-9.33301 -7.33301 -19 -13.666 -29 -18.999c-5.33301 -2.66699 -12.333 -5.66699 -21 -9
c-4.66699 -2 -8.33398 -3.33301 -11.001 -4h-7c-4.66699 0 -8.66699 1 -12 3c-10 6 -14.333 14.333 -13 25c0 5.33301 1.66699 10 5 14l4 4c0.666992 0.666992 2 1.66699 4 3c8 5.33301 22.333 13 43 23l8 4c8 6.66699 17 15.334 27 26.001c51.333 58.667 83.333 107 96 145
c1.33301 18.667 -2 36 -10 52c-1.33301 4 -3 7.66699 -5 11l-6 10c-2 2.66699 -4.5 5.66699 -7.5 9s-5.16699 5.83301 -6.5 7.5s-4 4.16699 -8 7.5s-6.66699 5.66602 -8 6.99902s-4.16602 4 -8.49902 8s-7.16602 6.33301 -8.49902 7
c-10.667 0.666992 -19.334 1.66699 -26.001 3c-30 5.33301 -47.667 22.666 -53 51.999c-4.66699 25.333 -3 57 5 95l3 13c0 18 2 45.333 6 82c5.33301 48.667 7.66602 82.334 6.99902 101.001c-0.666992 33.333 -6.83398 61.166 -18.501 83.499s-32.167 39.833 -61.5 52.5
c-8.66699 4 -14 10.333 -16 19c-19.333 7.33301 -42 11 -68 11c-7.33301 0 -13.5 2.5 -18.5 7.5s-7.5 11.167 -7.5 18.5s2.5 13.5 7.5 18.5s11.167 7.5 18.5 7.5z" />
    <glyph glyph-name="asciitilde" unicode="~" horiz-adv-x="802" 
d="M650 371c-12 -6 -25.667 -11.667 -41 -17c14 3.33301 27.667 9 41 17zM63 338l28.001 24c18.667 15.333 30.834 25.166 36.501 29.499s17.5 12.5 35.5 24.5s32.5 20.167 43.5 24.5s25 8.66602 42 12.999s32.833 6.16602 47.5 5.49902c24.667 -1.33301 52.667 -9 84 -23
c10 -2.66699 20.167 -5.66699 30.5 -9s21.833 -7.5 34.5 -12.5s21.334 -8.16699 26.001 -9.5c40 -14 74.333 -16.667 103 -8c52 15.333 98.667 43 140 83l2 2l4 6c1.33301 2.66699 3 5.33398 5 8.00098c11.333 16.667 24.666 24.667 39.999 24
c11.333 -0.666992 19.666 -6 24.999 -16c2.66699 -5.33301 3.33398 -11.333 2.00098 -18c0 -6 -2 -13 -6 -21c-5.33301 -13.333 -14 -29 -26 -47c-30 -44.667 -57.333 -75 -82 -91c-24.667 -15.333 -50.834 -24.166 -78.501 -26.499s-51.5 -0.5 -71.5 5.5
s-42.333 15.333 -67 28l-45 24c-20 11.333 -35 19.333 -45 24l-8 4c-6.66699 1.33301 -13.334 2.33301 -20.001 3c-24.667 2.66699 -53.667 -3.66602 -87 -18.999c-10 -4.66699 -25.333 -12.334 -46 -23.001l-48 -25c-11.333 -4.66699 -21.333 -2.66699 -30 6l-37 -30
c-5.33301 -4.66699 -11.5 -6.66699 -18.5 -6s-12.833 3.83398 -17.5 9.50098s-6.66699 12 -6 19s4 12.833 10 17.5z" />
    <glyph glyph-name="quoteleft" unicode="&#x2018;" horiz-adv-x="197" 
d="M173 822c-14 -50.667 -18.334 -104 -13.001 -160c1.33301 -12 5.33301 -28 12 -48c0.666992 -2 3.66699 -9.33301 9 -22c2.66699 -4.66699 4.33398 -8 5.00098 -10c0 -1.33301 0.333008 -3 1 -5v-10c-1.33301 -7.33301 -5.33301 -13 -12 -17
c-8 -4.66699 -16 -5.33398 -24 -2.00098l-9 7c-0.666992 0.666992 -1.33398 1.5 -2.00098 2.5s-1.33398 2.16699 -2.00098 3.5c-21.333 35.333 -35.166 72.833 -41.499 112.5s-2.83301 80.167 10.5 121.5c2 5.33301 5 9.33301 9 12c2 10 4.33301 19.667 7 29
c2 6.66699 6.16699 11.834 12.5 15.501s12.833 4.5 19.5 2.5s11.834 -6.16699 15.501 -12.5s4.5 -12.833 2.5 -19.5z" />
    <glyph glyph-name="quoteright" unicode="&#x2019;" horiz-adv-x="229" 
d="M168 874c0.666992 0 1.3291 0.333008 1.99609 1c6.66699 2 13.334 1.5 20.001 -1.5s11.334 -7.83301 14.001 -14.5c12.667 -36 17.334 -78.333 14.001 -127c1.33301 -20.667 1.33301 -42.334 0 -65.001c-2 -31.333 -6.66699 -60 -14 -86
c-2.66699 -11.333 -5.66699 -20.666 -9 -27.999l-7 -12c-6.66699 -8 -14.667 -12 -24 -12c-10.667 0 -18.667 4.66699 -24 14c-2 4 -3.33301 8.33301 -4 13c-0.666992 4 -0.333984 9 0.999023 15c0.666992 8 2.66699 18.667 6 32c1.33301 7.33301 4 18.333 8 33
c2.66699 10.667 4 17 4 19c6 30 9.66699 55.667 11 77c-4 46 -16 81.667 -36 107c-4.66699 5.33301 -6.66699 11.5 -6 18.5s4 12.833 10 17.5c4.66699 4 10.334 5.83301 17.001 5.5s12.334 -2.5 17.001 -6.5z" />
    <glyph glyph-name="quotedblleft" unicode="&#x201c;" horiz-adv-x="312" 
d="M190 772c-20.667 -36 -28.999 -82.3301 -24.999 -138.997c4.66699 -58 21 -98.667 49 -122c6 -4.66699 9.33301 -10.5 10 -17.5s-1.33301 -13.333 -6 -19s-10.5 -8.83398 -17.5 -9.50098s-13.167 1.33301 -18.5 6c-40.667 32.667 -63.667 85.334 -69 158.001
c-4.66699 67.333 5.66602 123.666 30.999 168.999c4 6 9.33301 10 16 12s13.167 1.16699 19.5 -2.5s10.5 -8.83398 12.5 -15.501s1.33301 -13.334 -2 -20.001zM279.001 802.003c-29.333 -126 -23 -220.334 19 -283.001c4 -6 5.16699 -12.5 3.5 -19.5s-5.5 -12.5 -11.5 -16.5
s-12.5 -5.16699 -19.5 -3.5s-12.5 5.5 -16.5 11.5c-50 74.667 -58.333 182.334 -25 323.001c1.33301 6.66699 5 12 11 16s12.5 5.16699 19.5 3.5s12.5 -5.5 16.5 -11.5s5 -12.667 3 -20z" />
    <glyph glyph-name="quotedblright" unicode="&#x201d;" horiz-adv-x="314" 
d="M189 861c47.333 -106 41.0029 -230.669 -18.9971 -374.002c-2.66699 -6.66699 -7.33398 -11.334 -14.001 -14.001s-13.334 -2.66699 -20.001 0s-11.334 7.33398 -14.001 14.001s-2.66699 13.334 0 20.001c54 130 60.333 240.667 19 332
c-2.66699 6.66699 -2.83398 13.334 -0.500977 20.001s6.83301 11.5 13.5 14.5s13.334 3.33301 20.001 1s11.667 -6.83301 15 -13.5zM284.003 835.998c17.333 -56.667 23.332 -114.331 17.999 -172.998s-19.666 -114.334 -42.999 -167.001
c-3.33301 -6.66699 -8.33301 -11.167 -15 -13.5s-13.334 -2 -20.001 1s-11.167 7.83301 -13.5 14.5s-2.16602 13.334 0.500977 20.001c21.333 46.667 34.5 96.5 39.5 149.5s-0.5 103.167 -16.5 150.5c-2 7.33301 -1.5 14.166 1.5 20.499s8 10.666 15 12.999s13.667 2 20 -1
s10.833 -7.83301 13.5 -14.5z" />
    <glyph glyph-name="uni3000" unicode="&#x3000;" horiz-adv-x="1000" 
 />
    <glyph glyph-name=".null" horiz-adv-x="0" 
 />
    <glyph glyph-name="nonmarkingreturn" horiz-adv-x="333" 
 />
  </font>
</defs>
</svg>
