<?xml version="1.0" standalone="no"?>
<!DOCTYPE svg PUBLIC "-//W3C//DTD SVG 1.1//EN" "http://www.w3.org/Graphics/SVG/1.1/DTD/svg11.dtd" >
<svg>
<metadata>
Created by FontForge 20090914 at Fri Oct 28 09:34:34 2016
 By www-data
Des
</metadata>
<defs>
<font id="LoveSweets" horiz-adv-x="607" >
  <font-face 
    font-family="LoveSweets"
    font-weight="500"
    font-stretch="normal"
    units-per-em="1000"
    panose-1="2 0 6 3 0 0 0 0 0 0"
    ascent="1000"
    descent="0"
    x-height="532"
    cap-height="764.998"
    bbox="-49.0801 -73.2946 934.344 892.029"
    underline-thickness="50"
    underline-position="-100"
    unicode-range="U+0020-U+3000"
  />
<missing-glyph horiz-adv-x="364" 
d="M66 33h199v600h-199v-600zM33 0v666h265v-666h-265z" />
    <glyph glyph-name=".notdef" horiz-adv-x="364" 
d="M66 33h199v600h-199v-600zM33 0v666h265v-666h-265z" />
    <glyph glyph-name="space" unicode=" " horiz-adv-x="300" 
 />
    <glyph glyph-name="exclam" unicode="!" horiz-adv-x="210" 
d="M156 829c0 -24 2.33301 -58.334 7 -103.001c5.33301 -51.333 8.33301 -86.666 9 -105.999c2.66699 -83.333 4 -230 4 -440c0 -6 -2.16699 -11.167 -6.5 -15.5s-9.5 -6.5 -15.5 -6.5s-11.167 2.16699 -15.5 6.5s-6.5 9.5 -6.5 15.5c0 210.667 -1.33301 356.667 -4 438
c-0.666992 16 -3.66699 50.667 -9 104c-4.66699 45.333 -7 81 -7 107c0 6 2.16699 11.167 6.5 15.5s9.5 6.5 15.5 6.5s11.167 -2.16699 15.5 -6.5s6.5 -9.5 6.5 -15.5zM200 85.999c0 -6 -2.16699 -11.167 -6.5 -15.5s-9.5 -6.5 -15.5 -6.5s-11.167 2.16699 -15.5 6.5
s-6.5 9.5 -6.5 15.5s2.16699 11.167 6.5 15.5s9.5 6.5 15.5 6.5s11.167 -2.16699 15.5 -6.5s6.5 -9.5 6.5 -15.5z" />
    <glyph glyph-name="quotedbl" unicode="&#x22;" horiz-adv-x="296" 
d="M156 755c-4 -50.667 0.998047 -101.666 14.998 -152.999c2 -6 1.5 -11.667 -1.5 -17s-7.5 -8.83301 -13.5 -10.5s-11.667 -1 -17 2s-8.66602 7.5 -9.99902 13.5c-15.333 56 -21 112.333 -17 169c0.666992 6 3.33398 11 8.00098 15s10 5.66699 16 5
s11 -3.33398 15 -8.00098s5.66699 -10 5 -16zM249.998 777.001c0.666992 -41.333 12.335 -94.333 35.002 -159c2 -5.33301 1.66699 -10.833 -1 -16.5s-6.83398 -9.5 -12.501 -11.5s-11.334 -1.66699 -17.001 1s-9.5 7 -11.5 13c-23.333 70 -35.666 127.667 -36.999 173
c0 6 2 11.167 6 15.5s9.16699 6.5 15.5 6.5s11.666 -2 15.999 -6s6.5 -9.33301 6.5 -16z" />
    <glyph glyph-name="numbersign" unicode="#" horiz-adv-x="944" 
d="M-6 379c-14 34 -20.999 70.168 -20.999 108.501s6.33301 74.333 19 108s32.667 64 60 91s59.333 46.5 96 58.5c3.33301 0.666992 6.66602 1 9.99902 1c16.667 19.333 39.667 38.666 69 57.999c28.667 18.667 59 34.334 91 47.001c87.333 34 153.333 33.333 198 -2
c5.33301 -4.66699 8.5 -10.334 9.5 -17.001s-0.666992 -12.667 -5 -18s-9.83301 -8.5 -16.5 -9.5s-12.667 0.5 -18 4.5c-30.667 24 -80.334 22.667 -149.001 -4c-30 -12 -58.333 -26.833 -85 -44.5s-46.667 -34.834 -60 -51.501
c-5.33301 -7.33301 -12.666 -10.333 -21.999 -9c-2 -1.33301 -4 -2.33301 -6 -3c-29.333 -9.33301 -54.833 -24.833 -76.5 -46.5s-37.834 -46.167 -48.501 -73.5s-16.167 -56.833 -16.5 -88.5s5.5 -62.167 17.5 -91.5c2.66699 -6 2.66699 -12.167 0 -18.5
s-7.16699 -10.833 -13.5 -13.5s-12.666 -2.66699 -18.999 0s-10.833 7.33398 -13.5 14.001zM566.001 822.001c30.667 45.333 80.334 68.665 149.001 69.998c50.667 0.666992 102.667 -9.66602 156 -30.999c6.66699 -2.66699 11.334 -7.16699 14.001 -13.5
s2.66699 -12.666 0 -18.999s-7.16699 -10.833 -13.5 -13.5s-12.5 -2.66699 -18.5 0c-47.333 18.667 -93 27.667 -137 27c-51.333 -0.666992 -87.333 -16.667 -108 -48c-4 -5.33301 -9.33301 -8.83301 -16 -10.5s-12.834 -0.5 -18.501 3.5s-9.33398 9.33301 -11.001 16
s-0.5 13 3.5 19zM128.001 354c4.66699 -20 15.8311 -34.3359 33.498 -43.0029s39.834 -10.667 66.501 -6c2 0 7 2.66699 15 8s16.333 11.333 25 18v2c0 16 3.66699 28.333 11 37c6.66699 8 15 12.333 25 13c8 0.666992 16.333 -1.66602 25 -6.99902
c11.333 -8 15.333 -19 12 -33c-1.33301 -6 -4.33301 -12 -9 -18c-2.66699 -4 -6.33398 -8.33301 -11.001 -13l2 -4c16.667 -10 37 -10.333 61 -1c16.667 6.66699 39.334 20.667 68.001 42c5.33301 4 11.5 5.5 18.5 4.5s12.5 -4.16699 16.5 -9.5s5.5 -11.5 4.5 -18.5
s-4.16699 -12.5 -9.5 -16.5c-32 -24 -58.333 -40 -79 -48c-39.333 -16 -74.666 -15 -105.999 3c-5.33301 4 -10.333 9 -15 15l-12 -8c-14 -8.66699 -25.333 -14 -34 -16c-36 -6 -69 -1.83301 -99 12.5s-49 39.833 -57 76.5c-2 6.66699 -1.16699 12.834 2.5 18.501
s9 9.33398 16 11.001s13.333 0.666992 19 -3s9.16699 -9.16699 10.5 -16.5zM606.998 361.997c26 -14 50.3301 -16.668 72.9971 -8.00098c0.666992 6 1.33398 12.333 2.00098 19c3.33301 18.667 9 36 17 52c4 8.66699 8.33301 15.667 13 21
c6.66699 8.66699 14.334 14 23.001 16c14 4 25.667 0 35 -12c5.33301 -6.66699 9.33301 -16.334 12 -29.001c1.33301 -10.667 -0.333984 -21.667 -5.00098 -33c-1.33301 -2.66699 -3.33301 -6 -6 -10s-4 -6.33301 -4 -7c-7.33301 -14 -16.333 -26 -27 -36
c6 -3.33301 10.333 -6.33301 13 -9c5.33301 -4 8.33301 -9.5 9 -16.5s-1.16602 -13.167 -5.49902 -18.5s-10 -8.33301 -17 -9s-13.167 1.33301 -18.5 6c-0.666992 0.666992 -1.5 1.33398 -2.5 2.00098s-2.5 1.5 -4.5 2.5s-4 2.16699 -6 3.5
c-5.33301 3.33301 -9.66602 7 -12.999 11c-36 -13.333 -73.333 -9.66602 -112 11.001c-6 3.33301 -10 8.33301 -12 15s-1.33301 13 2 19s8.33301 10 15 12s13 1.33301 19 -2zM825.995 710.996c29.333 0 52.833 -6.5 70.5 -19.5s29.167 -30.833 34.5 -53.5
c8 -34.667 1.66699 -76 -19 -124c-2.66699 -6 -7.16699 -10.333 -13.5 -13s-12.666 -2.66699 -18.999 0s-10.833 7.16699 -13.5 13.5s-2.66699 12.833 0 19.5c16 38 21.333 69 16 93c-4.66699 22.667 -23.334 34 -56.001 34c-6.66699 0 -12.5 2.5 -17.5 7.5
s-7.5 10.833 -7.5 17.5s2.5 12.5 7.5 17.5s10.833 7.5 17.5 7.5zM847.995 357.996l-25 -16c-5.33301 -4 -11.333 -5.16699 -18 -3.5s-12 5.33398 -16 11.001s-5.16699 11.834 -3.5 18.501s5.5 12 11.5 16l25 16c5.33301 4 11.333 5.16699 18 3.5s12 -5.33398 16 -11.001
s5.16699 -11.834 3.5 -18.501s-5.5 -12 -11.5 -16zM103.995 197.996c4.66699 -28.667 9 -52.333 13 -71c3.33301 -15.333 6.66602 -28 9.99902 -38s6 -16.333 8 -19c1.33301 -2 5.66602 -4 12.999 -6c8 -2 19 -3 33 -3c10 -0.666992 22.667 -0.333984 38 0.999023
c18 0.666992 28.667 1 32 1c42 0 105.333 2.66699 190 8c95.333 6 159.666 9.66699 192.999 11c6 0 15 -0.333008 27 -1c19.333 -1.33301 29.666 -2.33301 30.999 -3c22.667 -1.33301 37 -0.666016 43 2.00098c1.33301 0.666992 3.33301 3.66699 6 9
c3.33301 7.33301 6.33301 17.333 9 30c2 9.33301 4 21.666 6 36.999c2 16.667 3.33301 27 4 31c1.33301 6.66699 5 12 11 16s12.333 5.33301 19 4s12 -5 16 -11s5.33301 -12.333 4 -19c-0.666992 -2.66699 -2 -12 -4 -28s-4.33301 -29.333 -7 -40
c-3.33301 -16.667 -7.66602 -30.334 -12.999 -41.001c-7.33301 -16.667 -17.666 -27.834 -30.999 -33.501s-35.333 -7.5 -66 -5.5c-1.33301 0 -12 0.666992 -32 2c-10 0.666992 -17 1 -21 1c-33.333 -1.33301 -97 -5 -191 -11c-83.333 -5.33301 -148 -8 -194 -8
c-2.66699 0 -12.667 -0.333008 -30 -1c-16.667 -1.33301 -30.667 -1.66602 -42 -0.999023c-17.333 0 -32 1.66699 -44 5c-18 4.66699 -31.333 12.667 -40 24c-5.33301 6.66699 -10.666 18 -15.999 34c-3.33301 11.333 -7 25.333 -11 42
c-4 18.667 -8.66699 43.334 -14 74.001c-0.666992 6.66699 1 12.834 5 18.501s9.33301 9 16 10s12.834 -0.5 18.501 -4.5s9.16699 -9.33301 10.5 -16zM245.995 199.997c7.33301 -16.667 15.0029 -36.001 23.0029 -58.001c2.66699 -6.66699 2.5 -13.167 -0.5 -19.5
s-7.66699 -10.666 -14 -12.999s-12.666 -2 -18.999 1s-10.5 7.5 -12.5 13.5c-8 22 -15.667 40.667 -23 56c-2.66699 6 -2.83398 12.167 -0.500977 18.5s6.66602 11 12.999 14s12.666 3.33301 18.999 1s11.166 -6.83301 14.499 -13.5zM377.998 201.996
c6.66699 -20.667 13.667 -40.6689 21 -60.002c2.66699 -6 2.66699 -12.167 0 -18.5s-7.16699 -10.833 -13.5 -13.5s-12.666 -2.66699 -18.999 0s-10.833 7.33398 -13.5 14.001c-8.66699 20.667 -16.334 41.334 -23.001 62.001c-2 6.66699 -1.5 13.167 1.5 19.5
s7.83301 10.5 14.5 12.5s13.167 1.5 19.5 -1.5s10.5 -7.83301 12.5 -14.5zM527.998 209.994c0.666992 -9.33301 1.33691 -16.668 2.00391 -22.001v-7c0.666992 -0.666992 1 -1.5 1 -2.5s0.166992 -2 0.5 -3s1.16602 -3.33301 2.49902 -7s2.66602 -7.83398 3.99902 -12.501
c2 -6.66699 1.33301 -13 -2 -19s-8.33301 -10 -15 -12s-13 -1.33301 -19 2s-10 8.33301 -12 15c-0.666992 2.66699 -1.5 5.5 -2.5 8.5s-1.66699 5.33301 -2 7s-0.833008 3.5 -1.5 5.5l-1.5 4.5c-0.333008 1 -0.5 1.83301 -0.5 2.5l-1 2c-0.666992 2.66699 -1 6.66699 -1 12
c-0.666992 8 -1.33398 15.333 -2.00098 22s1.16602 12.667 5.49902 18s10 8.33301 17 9s13.167 -1.16602 18.5 -5.49902s8.33301 -10.166 9 -17.499zM675.001 180.992l1 -25c0 -6.66699 -2.33301 -12.667 -7 -18s-10.334 -8 -17.001 -8s-12.667 2.33301 -18 7
s-8 10.334 -8 17.001l-1 25c0 6.66699 2.33301 12.667 7 18s10.334 8 17.001 8s12.667 -2.33301 18 -7s8 -10.334 8 -17.001zM265.001 611.992c26 30 57.3291 54.999 93.9961 74.999c55.333 30 98.666 31.333 129.999 4c7.33301 -6 13 -13 17 -21h2
c6.66699 2 13.834 3.5 21.501 4.5s15.834 1.5 24.501 1.5h21c5.33301 0 12.833 -0.333008 22.5 -1s15.834 -1 18.501 -1c6.66699 0 12.334 -2.66699 17.001 -8s7 -11.333 7 -18s-2.66699 -12.334 -8 -17.001s-11.333 -7 -18 -7c-4 0 -10.667 0.333008 -20 1s-16.333 1 -21 1
h-17c-7.33301 0 -13.833 -0.333008 -19.5 -1s-11.167 -1.66699 -16.5 -3c-1.33301 -0.666992 -3.66602 -1.66699 -6.99902 -3c-0.666992 -6.66699 -2 -12.667 -4 -18c-4.66699 -16 -12.667 -30.167 -24 -42.5s-25.666 -18.166 -42.999 -17.499c-12.667 0.666992 -23 3 -31 7
c-13.333 8 -18.666 19.667 -15.999 35c2 8 6.33301 16 13 24c5.33301 5.33301 11.666 11 18.999 17c9.33301 8 20.666 15.667 33.999 23c-1.33301 2.66699 -2.66602 4.66699 -3.99902 6c-14.667 12.667 -39.334 9.33398 -74.001 -9.99902
c-31.333 -17.333 -58 -38.333 -80 -63c-4.66699 -5.33301 -10.5 -8.33301 -17.5 -9s-13 1.33301 -18 6s-7.83301 10.5 -8.5 17.5s1.33301 12.833 6 17.5zM241.997 488.991l14 -25c3.33301 -6 4 -12.333 2 -19s-6 -11.667 -12 -15s-12.333 -4 -19 -2s-11.667 6 -15 12l-14 25
c-3.33301 6 -4 12.333 -2 19s6 11.667 12 15s12.333 4 19 2s11.667 -6 15 -12zM505.997 464.991c0 -6.66699 -2.5 -12.5 -7.5 -17.5s-10.833 -7.5 -17.5 -7.5s-12.5 2.5 -17.5 7.5s-7.5 10.833 -7.5 17.5s2.5 12.5 7.5 17.5s10.833 7.5 17.5 7.5s12.5 -2.5 17.5 -7.5
s7.5 -10.833 7.5 -17.5zM714.997 518.991c0 -6.66699 -2.5 -12.5 -7.5 -17.5s-10.833 -7.5 -17.5 -7.5s-12.5 2.5 -17.5 7.5s-7.5 10.833 -7.5 17.5s2.5 12.5 7.5 17.5s10.833 7.5 17.5 7.5s12.5 -2.5 17.5 -7.5s7.5 -10.833 7.5 -17.5zM202.997 615.991
c0 -6.66699 -2.5 -12.5 -7.5 -17.5s-10.833 -7.5 -17.5 -7.5s-12.5 2.5 -17.5 7.5s-7.5 10.833 -7.5 17.5s2.5 12.5 7.5 17.5s10.833 7.5 17.5 7.5s12.5 -2.5 17.5 -7.5s7.5 -10.833 7.5 -17.5zM617.997 748.991c0 -6.66699 -2.5 -12.5 -7.5 -17.5s-10.833 -7.5 -17.5 -7.5
s-12.5 2.5 -17.5 7.5s-7.5 10.833 -7.5 17.5s2.5 12.5 7.5 17.5s10.833 7.5 17.5 7.5s12.5 -2.5 17.5 -7.5s7.5 -10.833 7.5 -17.5z" />
    <glyph glyph-name="dollar" unicode="$" horiz-adv-x="899" 
d="M93 344c-14.667 0 -28.6611 2.33105 -41.9941 6.99805c-24 8.66699 -40.667 22.834 -50 42.501s-11.333 39.834 -6 60.501c4 14 11 26.5 21 37.5s22.333 18.833 37 23.5c-11.333 66.667 16.667 133.334 84 200.001c60 59.333 134.333 103.333 223 132
c94.667 30.667 174.334 32 239.001 4c67.333 -28.667 106 -84 116 -166c1.33301 0.666992 2.66602 1 3.99902 1c42.667 2.66699 74.667 2 96 -2c21.333 -4.66699 38.333 -12.667 51 -24c16 -15.333 23.667 -34.666 23 -57.999c-0.666992 -32 -14.334 -57.333 -41.001 -76
c-8.66699 -6 -16.5 -10 -23.5 -12s-14.5 -2.33301 -22.5 -1c-6.66699 2 -12.334 2.33301 -17.001 1s-13.334 -7 -26.001 -17c-6.66699 -5.33301 -13 -9.33301 -19 -12c12.667 -2.66699 19.334 -10.334 20.001 -23.001c0.666992 -6 2.66699 -29.667 6 -71l8 -103
c3.33301 -46.667 5.66602 -81 6.99902 -103c1.33301 -20 2 -32 2 -36v-12c-0.666992 -5.33301 -1.33398 -9.66602 -2.00098 -12.999c-4.66699 -13.333 -15.334 -23 -32.001 -29c-10 -3.33301 -22 -5.66602 -36 -6.99902c-10 -0.666992 -21.333 -1.33398 -34 -2.00098h-7h-8
h-4c-14.667 -0.666992 -43.834 -1.66699 -87.501 -3s-79.167 -3.33301 -106.5 -6s-54.666 -7 -81.999 -13c-2.66699 -0.666992 -9.66699 -3 -21 -7c-12.667 -4 -23 -7 -31 -9c-14 -4 -26.333 -6 -37 -6c-16 -0.666992 -29 2.66602 -39 9.99902c-2.66699 2 -5 4.66699 -7 8
c-0.666992 1.33301 -1.66699 3 -3 5s-3 5.33301 -5 10l-11 26c-11.333 28.667 -17.333 43 -18 43c-36 75.333 -74 137.666 -114 186.999c-2.66699 4 -4.33398 8.33301 -5.00098 13zM733.006 142.998l0.000976562 4.99902c-0.666992 4.66699 -1.33398 16 -2.00098 34
c-1.33301 20.667 -3.66602 54.667 -6.99902 102l-8 103c-3.33301 41.333 -5.33301 65 -6 71c-0.666992 8.66699 2.33301 15.667 9 21c-6 0 -12.333 0.333008 -19 1c-12 2 -21.667 5 -29 9c-19.333 -38 -48.333 -59.667 -87 -65c-28 -3.33301 -51 5.33398 -69 26.001
c-20 -27.333 -43.333 -43.666 -70 -48.999c-9.33301 -2.66699 -21 -1.66699 -35 3c-8.66699 2.66699 -19 6.66699 -31 12l-13 6c-2 -4.66699 -4.33301 -9.33398 -7 -14.001c-17.333 -28.667 -48 -40 -92 -34l-24 4c-5.33301 1.33301 -12.5 4 -21.5 8
s-17.167 9.33301 -24.5 16c-2.66699 -8 -6.33398 -14.333 -11.001 -19c-12 -12.667 -25.667 -22.334 -41 -29.001c39.333 -51.333 77 -114 113 -188c0 -1.33301 6 -16.333 18 -45l11 -26l2 -3h5c6 0 14.333 1.33301 25 4c7.33301 2 17 5 29 9c12.667 4 20.667 6.33301 24 7
c30 7.33301 59.667 12.333 89 15s66.5 4.66699 111.5 6s73.5 2.33301 85.5 3h4h8h8c11.333 0.666992 21.333 1.33398 30 2.00098c10 1.33301 18 3 24 5h1zM84.0068 467.997c-10 1.33301 -18.666 -0.669922 -25.999 -6.00293s-12 -12.666 -14 -21.999
c-6 -20 1.66699 -33.667 23 -41c15.333 -6 30.333 -7.33301 45 -4s27.334 10.666 38.001 21.999c0 0.666992 1.66699 7 5 19c2.66699 9.33301 5.66699 16.666 9 21.999c7.33301 11.333 17.666 17 30.999 17c10.667 0 19.334 -4.66699 26.001 -14
c2.66699 -3.33301 5 -8 7 -14c0 -1.33301 0.333008 -3 1 -5c0 -1.33301 0.333008 -2 1 -2c5.33301 -5.33301 10.666 -8.83301 15.999 -10.5s15 -3.5 29 -5.5c21.333 -3.33301 35 0 41 10c2 3.33301 4.33301 9 7 17c1.33301 4.66699 2.66602 8.33398 3.99902 11.001
c4 8.66699 10.333 14.334 19 17.001c2 0.666992 4.33301 1 7 1s4.66699 -0.333008 6 -1h2l6 -2c2 -0.666992 5 -2 9 -4l24 -12c9.33301 -4 17.333 -7 24 -9l11 -3c2.66699 0.666992 5.66699 2 9 4l10 7c3.33301 2.66699 6 5.33398 8 8.00098l8 9c4 4 6.66699 6.33301 8 7
l-1 -1l1 1v3v3c0.666992 6 2.33398 11.333 5.00098 16c6 12 16 17 30 15c10.667 -2 20 -8.66699 28 -20c0.666992 -1.33301 2.66699 -4.33301 6 -9c2 -3.33301 3.66699 -6 5 -8c6 -8 14.667 -11.333 26 -10c23.333 2.66699 40.333 17 51 43v8c0 6.66699 1 12 3 16
c4.66699 11.333 12.667 17.666 24 18.999c14.667 1.33301 26.334 -5.66699 35.001 -21l4 -6c2.66699 -1.33301 7 -2.33301 13 -3c7.33301 -1.33301 13.666 0.333984 18.999 5.00098c18.667 14.667 34 23.667 46 27s24.667 3.33301 38 0h1
c0.666992 0.666992 1.66699 1.5 3 2.5s3 2.16699 5 3.5c12.667 8.66699 19 20 19 34c0 9.33301 -2.33301 16.333 -7 21c-6 5.33301 -15 9.33301 -27 12c-17.333 3.33301 -44.666 3.66602 -81.999 0.999023c-2.66699 0 -5 0.333008 -7 1c-4 -12 -12 -18 -24 -18
c-6.66699 0 -12.5 2.5 -17.5 7.5s-7.5 10.833 -7.5 17.5c0 82.667 -29 136.334 -87 161.001c-53.333 23.333 -121.666 21.666 -204.999 -5.00098c-80.667 -26 -148.334 -66.333 -203.001 -121c-55.333 -55.333 -78.333 -108 -69 -158v-9
c6.66699 -5.33301 9.66699 -12.666 9 -21.999c-0.666992 -6.66699 -3.83398 -12.167 -9.50098 -16.5s-11.834 -6.16602 -18.501 -5.49902zM274.008 331.994c18.667 -17.333 38.0029 -42 58.0029 -74c26 -43.333 40.667 -67.333 44 -72c4 -6 5.5 -12.333 4.5 -19
s-4.33301 -12 -10 -16s-11.834 -5.5 -18.501 -4.5s-12 4.16699 -16 9.5c-4.66699 6 -20.334 31.333 -47.001 76c-16.667 28 -33 48.667 -49 62c-4.66699 4.66699 -7.33398 10.5 -8.00098 17.5s1.33301 13 6 18s10.5 7.83301 17.5 8.5s13.167 -1.33301 18.5 -6z
M415.011 326.994c8 -17.333 20.002 -41.332 36.002 -71.999s27 -52.334 33 -65.001c3.33301 -6 3.83301 -12.333 1.5 -19s-6.5 -11.5 -12.5 -14.5s-12.333 -3.33301 -19 -1s-11.334 6.5 -14.001 12.5l-34 64l-37 73c-2.66699 6 -2.83398 12.333 -0.500977 19
s6.5 11.5 12.5 14.5s12.333 3.33301 19 1s11.667 -6.5 15 -12.5zM541.013 330.995l50 -113c2.66699 -6.66699 2.66699 -13.167 0 -19.5s-7.16699 -10.833 -13.5 -13.5s-12.666 -2.66699 -18.999 0s-10.833 7 -13.5 13l-50 113c-2.66699 6.66699 -2.66699 13.167 0 19.5
s7.16699 10.833 13.5 13.5s12.666 2.66699 18.999 0s10.833 -7 13.5 -13zM638.013 351.995c5.33301 -13.333 13.666 -35.667 24.999 -67s20.333 -55 27 -71c2.66699 -6.66699 2.66699 -13.167 0 -19.5s-7.16699 -10.833 -13.5 -13.5s-12.666 -2.66699 -18.999 0
s-10.833 7 -13.5 13c-6.66699 16.667 -15.667 40.834 -27 72.501s-19.666 54.167 -24.999 67.5c-2.66699 6 -2.66699 12.167 0 18.5s7.16699 10.833 13.5 13.5s12.666 2.66699 18.999 0s10.833 -7.33398 13.5 -14.001zM142.013 585.994l15 26c4 6 9.33301 10 16 12
s12.834 1.16699 18.501 -2.5s9.5 -8.83398 11.5 -15.501s1.33301 -12.667 -2 -18l-15 -26c-4 -6 -9.33301 -10 -16 -12s-12.834 -1.16699 -18.501 2.5s-9.5 8.83398 -11.5 15.501s-1.33301 12.667 2 18zM258.013 657.994l23 13c6 3.33301 12.333 4 19 2s11.667 -6 15 -12
s4 -12.333 2 -19s-6 -11.667 -12 -15l-23 -13c-6 -3.33301 -12.333 -4 -19 -2s-11.667 6 -15 12s-4 12.333 -2 19s6 11.667 12 15zM330.013 552.994l-17 -28c-3.33301 -6 -8.33301 -9.83301 -15 -11.5s-13 -0.666992 -19 3s-9.83301 8.83398 -11.5 15.501s-0.5 13 3.5 19
l17 28c3.33301 6 8.33301 9.83301 15 11.5s13 0.666992 19 -3s9.83301 -8.83398 11.5 -15.501s0.5 -13 -3.5 -19zM422.013 606.994c5.33301 -1.33301 9.83398 -2.33398 13.501 -3.00098s6.16699 -1.16699 7.5 -1.5s2.33301 -0.5 3 -0.5h3h3
c1.33301 0 4.16602 0.166992 8.49902 0.5s9.5 0.833008 15.5 1.5c7.33301 0.666992 13.5 -1.33301 18.5 -6s7.83301 -10.5 8.5 -17.5s-1.33301 -13 -6 -18s-10.334 -7.83301 -17.001 -8.5c-21.333 -1.33301 -32.333 -2 -33 -2c-1.33301 0 -12.333 1.66699 -33 5
c-6.66699 1.33301 -12 4.83301 -16 10.5s-5.5 11.834 -4.5 18.501s4.33301 12 10 16s11.834 5.66699 18.501 5zM462.014 714.993l29 -2c6.66699 -0.666992 12.334 -3.5 17.001 -8.5s6.66699 -11 6 -18s-3.5 -12.833 -8.5 -17.5s-11.167 -6.66699 -18.5 -6l-29 2
c-6.66699 0.666992 -12.334 3.5 -17.001 8.5s-6.66699 11 -6 18s3.5 12.833 8.5 17.5s11.167 6.66699 18.5 6zM592.014 711.993l25 -16c6 -4 9.83301 -9.33301 11.5 -16s0.5 -12.834 -3.5 -18.501s-9.33301 -9.33398 -16 -11.001s-12.667 -0.5 -18 3.5l-25 16
c-6 4 -9.83301 9.33301 -11.5 16s-0.5 12.834 3.5 18.501s9.33301 9.33398 16 11.001s12.667 0.5 18 -3.5zM614.014 571.993c0 -6.66699 -2.5 -12.5 -7.5 -17.5s-10.833 -7.5 -17.5 -7.5s-12.5 2.5 -17.5 7.5s-7.5 10.833 -7.5 17.5s2.5 12.5 7.5 17.5s10.833 7.5 17.5 7.5
s12.5 -2.5 17.5 -7.5s7.5 -10.833 7.5 -17.5zM445.014 746.993c0 -6.66699 -2.5 -12.5 -7.5 -17.5s-10.833 -7.5 -17.5 -7.5s-12.5 2.5 -17.5 7.5s-7.5 10.833 -7.5 17.5s2.5 12.5 7.5 17.5s10.833 7.5 17.5 7.5s12.5 -2.5 17.5 -7.5s7.5 -10.833 7.5 -17.5z" />
    <glyph glyph-name="percent" unicode="%" horiz-adv-x="700" 
d="M523 495c25.333 -5.33301 38.332 -17.666 38.999 -36.999c0.666992 -16 -7.66602 -29 -24.999 -39c-20 -12 -36.333 -10.667 -49 4c-12 13.333 -12.667 34.666 -2 63.999c2 6 5.83301 10.333 11.5 13s11.167 3 16.5 1c4 -1.33301 7 -3.33301 9 -6zM101.999 469
c8 -17.333 17.6689 -40.5029 29.002 -69.5029s20.5 -51.333 27.5 -67s17.667 -33.667 32 -54s31.5 -38.166 51.5 -53.499c52.667 -41.333 116.667 -62 192 -62c91.333 0 153 47.333 185 142c22 65.333 30.667 158.333 26 279c0 6 2 11.333 6 16s9 7 15 7s11.333 -2 16 -6
s7 -9 7 -15c4.66699 -126.667 -4.66602 -225 -27.999 -295c-38.667 -114.667 -114.334 -172 -227.001 -172c-85.333 0 -158.666 24 -219.999 72c-22 17.333 -41.5 37.666 -58.5 60.999s-29.333 43.833 -37 61.5s-17.334 41.5 -29.001 71.5s-20.834 52 -27.501 66
c-2.66699 5.33301 -2.83398 10.833 -0.500977 16.5s6.16602 9.83398 11.499 12.501s10.833 2.83398 16.5 0.500977s9.83398 -6.16602 12.501 -11.499zM269.001 431.997l17 -17c4 -4.66699 6 -10 6 -16s-2.16699 -11.167 -6.5 -15.5s-9.5 -6.5 -15.5 -6.5s-11.333 2 -16 6
l-17 17c-4 4.66699 -6 10 -6 16s2.16699 11.167 6.5 15.5s9.5 6.5 15.5 6.5s11.333 -2 16 -6z" />
    <glyph glyph-name="ampersand" unicode="&#x26;" horiz-adv-x="499" 
d="M383 322c-0.666992 1.33301 -1.33301 2.00098 -2 2.00098c-4.66699 1.33301 -12 1 -22 -1c-7.33301 -2 -15.333 -5 -24 -9c15.333 0 28.333 1.33301 39 4c3.33301 1.33301 6.33301 2.66602 9 3.99902zM263.001 801.001c11.333 -33.333 21.334 -90.666 30.001 -171.999
c0.666992 -6 -1 -11.333 -5 -16s-9 -7.33398 -15 -8.00098s-11.333 1 -16 5s-7.33398 9 -8.00098 15c-8.66699 76.667 -18 130.667 -28 162c-2 6 -1.5 11.667 1.5 17s7.33301 9 13 11s11.167 1.5 16.5 -1.5s9 -7.16699 11 -12.5zM285.002 472.001
c-4.66699 24.667 -13.3369 39.002 -26.0039 43.002c-11.333 3.33301 -24.333 -0.333984 -39 -11.001c-17.333 -12 -29.666 -28.5 -36.999 -49.5s-6.66602 -42.833 2.00098 -65.5c14 -31.333 43 -53.333 87 -66l8 8c16.667 15.333 39.667 26.666 69 33.999
c17.333 4.66699 32.666 5 45.999 1c18.667 -6 30 -19.333 34 -40c2.66699 -13.333 -2 -25 -14 -35c-7.33301 -6.66699 -17.333 -11.667 -30 -15c-22.667 -6.66699 -49.667 -8 -81 -4l-14 2c-4 -10 -6 -24 -6 -42c0 -14.667 5.16699 -25.5 15.5 -32.5
s25.833 -11.5 46.5 -13.5c20.667 -0.666992 34.834 -0.833984 42.501 -0.500977s21.334 1.5 41.001 3.5s31.5 3.33301 35.5 4c6 0.666992 11.333 -1 16 -5s7.33398 -9 8.00098 -15s-1 -11.333 -5 -16s-9 -7.33398 -15 -8.00098c-1.33301 0 -12.666 -1.16699 -33.999 -3.5
s-36.333 -3.66602 -45 -3.99902s-24.667 -0.166016 -48 0.500977c-28.667 2.66699 -51.334 10 -68.001 22c-22 15.333 -33.333 38 -34 68c-0.666992 20.667 1.66602 38.334 6.99902 53.001c-50.667 17.333 -84.667 46 -102 86c-10 22.667 -13.667 45 -11 67
c3.33301 22 10.333 41.667 21 59s23.667 31.666 39 42.999c26.667 19.333 52.667 25 78 17c28.667 -9.33301 47.667 -34.333 57 -75c0.666992 -6 -0.5 -11.667 -3.5 -17s-7.5 -8.5 -13.5 -9.5s-11.667 0 -17 3s-8.66602 7.5 -9.99902 13.5zM412.999 89.0029l8 -25
c2 -6 1.5 -11.667 -1.5 -17s-7.33301 -9 -13 -11s-11.167 -1.5 -16.5 1.5s-9 7.16699 -11 12.5l-8 25c-2 6 -1.5 11.667 1.5 17s7.33301 9 13 11s11.167 1.5 16.5 -1.5s9 -7.16699 11 -12.5z" />
    <glyph glyph-name="quotesingle" unicode="'" horiz-adv-x="157" 
d="M131 811c3.33301 -25.333 6.33496 -59.333 9.00195 -102c3.33301 -56.667 5.66602 -90 6.99902 -100c0.666992 -6 -1 -11.333 -5 -16s-9 -7.33398 -15 -8.00098s-11.333 1 -16 5s-7.33398 9 -8.00098 15c-2 18.667 -4.33301 52.334 -7 101.001
c-2.66699 44.667 -5.66699 77.667 -9 99c-0.666992 6 0.833008 11.333 4.5 16s8.5 7.5 14.5 8.5s11.333 -0.333008 16 -4s7.66699 -8.5 9 -14.5z" />
    <glyph glyph-name="parenleft" unicode="(" horiz-adv-x="269" 
d="M257 756c-60.667 -135.333 -96.666 -256.331 -107.999 -362.998c-16 -145.333 14.667 -258.666 92 -339.999c4 -4 6 -9.16699 6 -15.5s-2.16699 -11.5 -6.5 -15.5s-9.66602 -6 -15.999 -6s-11.5 2.33301 -15.5 7c-86.667 91.333 -121.334 216.333 -104.001 375
c12 110.667 49.333 236 112 376c2.66699 5.33301 6.83398 9.16602 12.501 11.499s11.167 2.16602 16.5 -0.500977s9.16602 -6.83398 11.499 -12.501s2.16602 -11.167 -0.500977 -16.5z" />
    <glyph glyph-name="parenright" unicode=")" horiz-adv-x="260" 
d="M120 748c38.667 -41.333 68.6689 -92.668 90.002 -154.001c22 -60 35 -125 39 -195c4 -66.667 0.666992 -132.334 -10 -197.001s-28 -122 -52 -172c-2.66699 -5.33301 -6.83398 -9 -12.501 -11s-11.334 -1.66699 -17.001 1s-9.5 6.83398 -11.5 12.501
s-1.66699 11.5 1 17.5c22 46 38.333 99.333 49 160c10 60.667 13 122.667 9 186c-4 65.333 -15.667 126 -35 182c-20 56.667 -47.333 103.334 -82 140.001c-4 4.66699 -6 10 -6 16s2.33301 11 7 15s10 6 16 6s11 -2.33301 15 -7z" />
    <glyph glyph-name="asterisk" unicode="*" horiz-adv-x="772" 
d="M366 321h-5v-2zM518 448l-68 -100c47.333 14.667 89.666 24 126.999 28c8 0.666992 37.333 -0.333008 88 -3h4l-11 6c-9.33301 4.66699 -23.5 11.167 -42.5 19.5s-36.667 16.5 -53 24.5s-31.166 16.333 -44.499 25zM258 374c-14 -33.333 -29.333 -72.667 -46 -118
c-4 -27.333 -10.667 -57 -20 -89l48 65c-2.66699 5.33301 -3.33398 11 -2.00098 17c2.66699 12 7.33398 41.333 14.001 88c2 14 4 26.333 6 37zM338 555.999c-3.33301 9.33301 -7.33398 18.333 -12.001 27l-17 -31c10.667 0.666992 20.334 2 29.001 4zM378.999 572.999
l3 1.99902l-10 14c2.66699 -5.33301 5 -10.666 7 -15.999zM391.999 529.998c5.33301 -26.667 6.33301 -53 3 -79l38 77l-2 -2c-4.66699 -4 -10 -5.66699 -16 -5s-11 3.33398 -15 8.00098c-0.666992 1.33301 -1.66699 2.66602 -3 3.99902zM263.999 711.998
c0.666992 -2.66699 0.99707 -5.33105 0.99707 -7.99805c-0.666992 -21.333 -1 -32.333 -1 -33c0 -1.33301 0.666992 -4.66602 2 -9.99902c2.66699 -10 5 -20 7 -30c0.666992 -6 -0.666016 -11.5 -3.99902 -16.5s-8 -8 -14 -9s-11.5 0.166992 -16.5 3.5s-8.16699 8 -9.5 14
l-2 12l-2 -6c-0.666992 -4 -2.66699 -7.33301 -6 -10l-2 -14c-9.33301 -50 -15.333 -88.667 -18 -116c5.33301 0 10.333 -0.333008 15 -1c6.66699 -0.666992 11.667 -3.66699 15 -9c2.66699 5.33301 7.33398 15.666 14.001 30.999l15 36l15 31c6 12.667 12 24.167 18 34.5
s12.333 20.166 19 29.499c4 6 9.66699 9.33301 17 10l-37 49c-21.333 27.333 -38.666 47.666 -51.999 60.999l-3 2c1.33301 -10 2 -18 2 -24c5.33301 1.33301 10.333 1 15 -1c12 -5.33301 16 -14 12 -26zM478.996 522.001l-46.002 -94.9961c-19.333 -39.333 -36 -71 -50 -95
c-2 -3.33301 -4.66699 -6 -8 -8l22 7c-3.33301 8 -2.66602 15.333 2.00098 22c18.667 25.333 46.667 66.333 84 123c-4 8.66699 -3 16.667 3 24c4 4.66699 9 7.33398 15 8.00098s11.333 -1 16 -5l7 -6c0.666992 0 1.33398 -0.333008 2.00098 -1
c13.333 -10 27.833 -19 43.5 -27s34.5 -17 56.5 -27l52 -23c19.333 -10 37.666 -21 54.999 -33c0.666992 -0.666992 2 -1.33398 4 -2.00098s4.66699 -2 8 -4c5.33301 -2.66699 9.33301 -5.66699 12 -9c4.66699 -6 6.33398 -12.667 5.00098 -20
c-1.33301 -6.66699 -5.33301 -12 -12 -16c-4.66699 -2.66699 -11 -4.66699 -19 -6c-5.33301 -0.666992 -11.666 -1 -18.999 -1c-12 0 -28.333 0.333008 -49 1c-48.667 2.66699 -76 3.66699 -82 3c-17.333 -2 -36.333 -5.33301 -57 -10s-36.167 -8.5 -46.5 -11.5
s-30 -9.16699 -59 -18.5s-46.167 -15 -51.5 -17s-10.666 -1.66699 -15.999 1s-9 6.33398 -11 11.001c-67.333 -85.333 -111.333 -143 -132 -173l-6 -9c-4 -6.66699 -7.33301 -12 -10 -16l-14 -17c-8 -8 -16.333 -12 -25 -12s-15 3.66699 -19 11c-1.33301 2 -2.33301 4 -3 6
v4v4c0 2 0.333008 4.33301 1 7c0.666992 6.66699 1.66699 14 3 22c3.33301 22 8 43.333 14 64c4 13.333 7.33301 26 10 38c-3.33301 6 -4 12 -2 18l12 33c3.33301 24 4.66602 47.667 3.99902 71h-2c-49.333 5.33301 -79 9 -89 11c-21.333 3.33301 -38 7.33301 -50 12
c-8.66699 4 -15.667 8.33301 -21 13c-9.33301 8.66699 -12.333 18.667 -9 30c0.666992 4.66699 3 8.66699 7 12c1.33301 1.33301 2.66602 2.33301 3.99902 3c2 1.33301 4.66699 3 8 5c4 2 9.66699 4.33301 17 7l17 7c5.33301 2 8 3.33301 8 4l20 10l23 12
c6 2.66699 13.5 5.83398 22.5 9.50098s17.5 6.5 25.5 8.5c2.66699 31.333 9 75 19 131c10.667 61.333 17.334 103.666 20.001 126.999v6c0 2.66699 -0.333008 6 -1 10l-2 12c-2 21.333 4 36.666 18 45.999c10.667 7.33301 23 6.66602 37 -2.00098
c6.66699 -4 14.667 -10.667 24 -20c14.667 -14.667 33 -36.334 55 -65.001c2 -2 36.667 -48.667 104 -140c1.33301 -2 2.33301 -4 3 -6c18 12 45.667 27.333 83 46l60 30l53 27l23 10c3.33301 1.33301 6 2.33301 8 3c1.33301 0.666992 2.66602 1 3.99902 1
c2 0.666992 3.66699 1 5 1c3.33301 0 6.66602 -0.666992 9.99902 -2c8.66699 -3.33301 13 -10 13 -20c0 -7.33301 -3 -15.333 -9 -24c-4 -5.33301 -9.66699 -12 -17 -20c-10.667 -12 -26 -27 -46 -45l-82 -71c-4.66699 -4 -10 -5.83301 -16 -5.5s-11 2.66602 -15 6.99902
s-5.83301 9.5 -5.5 15.5s2.5 11 6.5 15l65 57c-60.667 -30.667 -95 -48.667 -103 -54c0.666992 0 1.33398 -0.333008 2.00098 -1c5.33301 -2.66699 9 -6.83398 11 -12.501s1.33301 -11.167 -2 -16.5zM214.994 427.005l-52.998 -5.99902
c-8.66699 -0.666992 -15.334 2.66602 -20.001 9.99902c-0.666992 0 -20.334 -9.66699 -59.001 -29c-2 -0.666992 -6 -2.33398 -12 -5.00098l-3 -1c6.66699 -1.33301 14 -2.66602 22 -3.99902c8.66699 -1.33301 37 -4.66602 85 -9.99902c10.667 -1.33301 17 -7 19 -17
c4 0 8 -1 12 -3c8 21.333 16.333 41.333 25 60c-1.33301 0 -2.33301 0.333008 -3 1c-3.33301 1.33301 -6 3.33301 -8 6c-1.33301 -0.666992 -3 -1.33398 -5 -2.00098zM342.996 418.006c10 30.667 12.332 62.665 6.99902 95.998c-8.66699 -2.66699 -18 -4.66699 -28 -6
c0 -2.66699 -1 -5.66699 -3 -9c-10 -17.333 -19.667 -35.666 -29 -54.999c3.33301 0.666992 6.66602 0.333984 9.99902 -0.999023c6 -2 10.333 -5.83301 13 -11.5s3 -11.167 1 -16.5c-7.33301 -20.667 -13.666 -48.667 -18.999 -84l-5 -35l32 40
c4.66699 6.66699 11.334 9.33398 20.001 8.00098c0 3.33301 1 6.66602 3 9.99902l19 35c-2 0 -4.33301 0.333008 -7 1c-6 2 -10.333 5.66699 -13 11s-3 11 -1 17z" />
    <glyph glyph-name="plus" unicode="+" horiz-adv-x="777" 
d="M382 490c16 48.667 43.0029 97.6641 81.0029 146.997c25.333 34.667 53.166 64.334 83.499 89.001s60.5 41.334 90.5 50.001c23.333 6.66699 41 9.66699 53 9c23.333 -1.33301 41.666 -12.333 54.999 -33c22 -35.333 28 -81.666 18 -138.999
c-8 -46 -25.667 -98.667 -53 -158c-38.667 -81.333 -91.334 -168 -158.001 -260c-10.667 -14 -28 -34.333 -52 -61c-22.667 -24 -38.667 -43 -48 -57c-5.33301 -7.33301 -12.333 -10.333 -21 -9c-1.33301 -2 -3 -3.66699 -5 -5c-4.66699 -4 -10 -5.66699 -16 -5
s-11 3.33398 -15 8.00098c-15.333 18.667 -51.666 56.334 -108.999 113.001c-58 57.333 -102 104.333 -132 141c-103.333 126.667 -131 235 -83 325c11.333 21.333 26.666 35.666 45.999 42.999c16.667 6 36.667 7 60 3c55.333 -10.667 107 -48.334 155 -113.001
c20 -28 36.667 -57.333 50 -88zM424.003 112.997c-4.66699 -0.666992 -9 0 -13 2l8 -9zM209.003 493.997c0 0.666992 -0.667969 0.335938 -2.00098 -0.99707c-3.33301 -2.66699 -7.33301 -8 -12 -16l-6 -13l-8 -14c-9.33301 -15.333 -20.666 -22.666 -33.999 -21.999
c-4.66699 0 -9 1.66699 -13 5c-2 1.33301 -3.66699 2.66602 -5 3.99902l-7 7c10 -18.667 22.333 -38.334 37 -59.001c42 3.33301 110.333 6.66602 205 9.99902c-0.666992 1.33301 -1 2.66602 -1 3.99902c-2 19.333 -7.66699 40.333 -17 63
c-4 0.666992 -7.66699 2.33398 -11 5.00098c-6.66699 7.33301 -12.667 13 -18 17c-4.66699 -14 -8.66699 -23.333 -12 -28c-4.66699 -8 -11 -13.667 -19 -17c-8.66699 -3.33301 -18.334 -3.33301 -29.001 0c-8 2.66699 -15.333 8.66699 -22 18
c-3.33301 3.33301 -7.66602 9.66602 -12.999 18.999c-4.66699 7.33301 -8 12.333 -10 15zM528.002 491.999c0.666992 0 1.66895 0.332031 3.00195 0.999023c3.33301 2.66699 8 8 14 16c8.66699 12 14.667 19.667 18 23c9.33301 10 19 16.333 29 19
c12.667 4 30.334 3.33301 53.001 -2c13.333 -3.33301 25.666 -3 36.999 1c6.66699 2.66699 13 2.33398 19 -0.999023c8.66699 26 15 49.667 19 71c8 46.667 3.66699 82.667 -13 108c-4.66699 8.66699 -11.334 13 -20.001 13
c-6.66699 0.666992 -19.334 -1.66602 -38.001 -6.99902c-24 -6.66699 -49.333 -21 -76 -43c-26 -22 -51 -48.667 -75 -80c-28.667 -38.667 -50.667 -76.667 -66 -114c4 -4 8 -7.33301 12 -10v1c2.66699 5.33301 4.66699 9 6 11c8 14 18.667 21.667 32 23
c14 1.33301 25 -1.33398 33 -8.00098c6.66699 -4.66699 11 -12 13 -22zM487.004 475.998c-0.666992 -0.666992 -1.66699 -2.99414 -3 -6.99414c-2.66699 -5.33301 -5 -9.33301 -7 -12c-4.66699 -6 -9.66699 -10.333 -15 -13c-8 -3.33301 -16.333 -4 -25 -2
c-6 1.33301 -12.667 4.66602 -20 9.99902c-1.33301 -7.33301 -2.33301 -14.333 -3 -21s-3.66699 -12 -9 -16l2 -10c0 -3.33301 -0.333008 -6.33301 -1 -9c94 3.33301 170.667 9 230 17h3c11.333 21.333 21.666 41.666 30.999 60.999l14 31
c-15.333 -3.33301 -31.666 -3 -48.999 1c-14.667 3.33301 -25 4.33301 -31 3c-2 -0.666992 -5 -3 -9 -7c-2 -2.66699 -7.33301 -9.33398 -16 -20.001c-8 -10.667 -15 -18.334 -21 -23.001c-11.333 -9.33301 -23 -13.333 -35 -12c-13.333 1.33301 -23.333 6.66602 -30 15.999
c-2.66699 3.33301 -4.66699 7.66602 -6 12.999zM298.004 349.004l-107.002 -5c18 -22 39.333 -45.667 64 -71c13.333 23.333 20.833 36 22.5 38s3.33398 5.33301 5.00098 10s3.83398 9 6.50098 13c2.66699 6 5.66699 11 9 15zM390.002 297.004l15 21.002l20 29l4 6
c-9.33301 -0.666992 -20 -1 -32 -1c-10 -0.666992 -24.667 -1.33398 -44 -2.00098l6 -6c6 -6.66699 13 -16.334 21 -29.001zM510.002 324.006l4.00098 5c4.66699 6 11.667 15.667 21 29l-44 -2c3.33301 -3.33301 6.33301 -7 9 -11
c3.33301 -5.33301 6.66602 -12.333 9.99902 -21zM425.003 191.006c4 -13.333 9.33301 -29.667 16 -49c0.666992 -2 1 -4 1 -6l25 28l27 29c-20 -2 -43 -2.66699 -69 -2zM379.003 192.005c-26 0.666992 -41 1.33105 -45 1.99805c30 -30 51.667 -52.333 65 -67v1
c-6.66699 18.667 -13 39.334 -19 62.001c0 0.666992 -0.333008 1.33398 -1 2.00098zM111.003 541.002l30.001 -47l8 -12l1 2l7 14c7.33301 13.333 14.666 23 21.999 29c13.333 11.333 28.333 14.333 45 9c8 -2.66699 15.667 -8.66699 23 -18
c3.33301 -4 7.66602 -10.333 12.999 -19c4.66699 -8 8 -13.333 10 -16c0.666992 1.33301 1.66699 3.66602 3 6.99902l4 12c7.33301 18 18.666 27.333 33.999 28c-4.66699 7.33301 -9.66699 14.333 -15 21c-40.667 56 -83 88 -127 96
c-15.333 3.33301 -27.666 3.33301 -36.999 0s-17 -10.666 -23 -21.999c-12 -23.333 -18 -48 -18 -74c8.66699 0 15.334 -3.33301 20.001 -10zM309.004 238.002c14 0 37.1641 -0.667969 69.4971 -2.00098s59.666 -1.66602 81.999 -0.999023s43.5 3 63.5 7
c2.66699 0.666992 5.33398 1 8.00098 1c29.333 41.333 56 82 80 122l-20 -2c-4 -5.33301 -10.333 -14.333 -19 -27c-10.667 -16 -19 -27.667 -25 -35c-6.66699 -8.66699 -13 -15.334 -19 -20.001c-8 -6.66699 -16 -10 -24 -10c-10 0 -18 4.33301 -24 13
c-3.33301 3.33301 -6 8.33301 -8 15c-5.33301 12.667 -8.66602 20 -9.99902 22c-0.666992 0.666992 -1 1.33398 -1 2.00098l-2 -2c-2.66699 -3.33301 -9 -12.333 -19 -27c-8.66699 -14 -15.667 -24 -21 -30c-4 -5.33301 -8 -9.33301 -12 -12c-6.66699 -6 -13.667 -9 -21 -9
c-6 0 -11.333 2 -16 6c-2 1.33301 -3.66699 3.33301 -5 6c-2 2 -4.33301 5.33301 -7 10l-17 27c-6 9.33301 -11 16.333 -15 21c-7.33301 -15.333 -11.666 -24 -12.999 -26c-1.33301 -2.66699 -10.666 -18 -27.999 -46l8 -9c4.66699 4 9.66699 6 15 6z" />
    <glyph glyph-name="comma" unicode="," horiz-adv-x="174" 
d="M152 111c6 -20.667 9.83301 -38.834 11.5 -54.501s-0.333008 -33.167 -6 -52.5s-16.5 -36.666 -32.5 -51.999c-4.66699 -4 -10 -6 -16 -6s-11 2.33301 -15 7s-6 10 -6 16s2.33301 11 7 15c14.667 14 22.834 30.5 24.501 49.5s-1.5 40.833 -9.5 65.5
c-2 6 -1.5 11.667 1.5 17s7.5 8.83301 13.5 10.5s11.667 1 17 -2s8.66602 -7.5 9.99902 -13.5z" />
    <glyph glyph-name="hyphen" unicode="-" horiz-adv-x="296" 
d="M74 368c91.333 2.66699 154.667 4 190 4c6 0 11.167 -2.16699 15.5 -6.5s6.5 -9.5 6.5 -15.5s-2.16699 -11.167 -6.5 -15.5s-9.5 -6.5 -15.5 -6.5c-35.333 0 -98 -1.33301 -188 -4c-6 0 -11.333 2 -16 6s-7 9 -7 15s2 11.333 6 16s9 7 15 7z" />
    <glyph glyph-name="period" unicode="." horiz-adv-x="322" 
d="M148 104c13.333 20 30.333 36.332 51 48.999s40.334 19.667 59.001 21c28 2 45.333 -8 52 -30c6.66699 -19.333 0.666992 -43.666 -18 -72.999c-7.33301 -11.333 -18.666 -24.666 -33.999 -39.999c-16 -16.667 -26.333 -28.334 -31 -35.001
c-7.33301 -9.33301 -16.666 -11 -27.999 -5v-2c-2 -6 -5.66699 -10.333 -11 -13s-11 -3 -17 -1c-0.666992 0 -10 2.83301 -28 8.5s-32.333 10.5 -43 14.5c-16.667 6 -30.334 11.667 -41.001 17c-14.667 8 -25 16 -31 24c-18.667 27.333 -20.334 49 -5.00098 65
c11.333 11.333 29.666 16.333 54.999 15c17.333 -0.666992 36.333 -4.33398 57 -11.001c4.66699 -1.33301 9 -2.66602 13 -3.99902zM151 53.999c-4.66699 4 -14.3311 8.00488 -28.998 12.0049c-16.667 5.33301 -32.334 8.33301 -47.001 9
c-7.33301 0.666992 -13 0.666992 -17 0c1.33301 -2.66699 3.33301 -6 6 -10c2 -2.66699 7 -6.33398 15 -11.001c8 -3.33301 20 -8 36 -14c12 -4.66699 26.333 -9.33398 43 -14.001c17.333 -6 26.333 -9 27 -9l4 -2c0.666992 3.33301 2 6.33301 4 9
c5.33301 6.66699 16.333 19 33 37c13.333 13.333 22.666 24.666 27.999 33.999c10.667 15.333 15.667 26.666 15 33.999c-2 0.666992 -4.66699 1 -8 1c-11.333 -0.666992 -24.333 -5.5 -39 -14.5s-27 -20.833 -37 -35.5c4 -8 3 -15.667 -3 -23
c-4 -4.66699 -9 -7.33398 -15 -8.00098s-11.333 1 -16 5z" />
    <glyph glyph-name="slash" unicode="/" horiz-adv-x="364" 
d="M36 58c8.66699 31.333 23 73.3311 43 125.998c23.333 60.667 38.666 101.667 45.999 123c56 166.667 118.333 319.334 187 458.001c2.66699 5.33301 7 9 13 11s11.667 1.66699 17 -1s9 -7 11 -13s1.66699 -11.667 -1 -17c-70 -140 -131.667 -290.667 -185 -452
c-7.33301 -23.333 -23 -64.666 -47 -123.999c-19.333 -50.667 -33.333 -91.667 -42 -123c-1.33301 -6 -4.66602 -10.5 -9.99902 -13.5s-11 -3.66699 -17 -2s-10.5 5.16699 -13.5 10.5s-3.5 11 -1.5 17z" />
    <glyph glyph-name="zero" unicode="0" horiz-adv-x="651" 
d="M297 539c3.33301 6 8.33496 10.001 15.002 12.001c86 17.333 157.333 9 214 -25c56 -34.667 92 -85 108 -151c15.333 -64 8.66602 -129 -20.001 -195c-28 -66 -75.667 -119.667 -143 -161c-47.333 -28.667 -91 -44.334 -131 -47.001c-63.333 -4 -115.333 6.33301 -156 31
s-69 59.667 -85 105c-13.333 44 -16.833 90.5 -10.5 139.5s21.166 97.5 44.499 145.5c22 44 46.333 79 73 105c30.667 29.333 61 43 91 41zM315.002 489.001c-23.333 12.667 -49.3359 5 -78.0029 -23c-23.333 -22.667 -44.666 -53.667 -63.999 -93
c-22 -43.333 -35.833 -87.166 -41.5 -131.499s-2.5 -83.833 9.5 -118.5c26.667 -77.333 92.334 -113 197.001 -107c32.667 2 69.667 15.667 111 41c58.667 36 100.334 82.833 125.001 140.5s30.667 113.5 18 167.5c-12 50.667 -39 90.167 -81 118.5
s-96.333 37.833 -163 28.5c0.666992 -5.33301 -0.333008 -10.333 -3 -15c-2.66699 -5.33301 -7 -8.83301 -13 -10.5s-11.667 -0.833984 -17 2.49902zM279.999 138.001c12 -5.33301 23.6631 -8.33105 34.9961 -8.99805s22.833 1 34.5 5s22.834 9 33.501 15s22.667 14 36 24
c4.66699 3.33301 10 4.5 16 3.5s10.833 -3.83301 14.5 -8.5s5 -10 4 -16s-3.83301 -11 -8.5 -15c-14.667 -10.667 -28 -19.334 -40 -26.001s-26 -13 -42 -19s-32.5 -8.5 -49.5 -7.5s-34.167 5.5 -51.5 13.5c-5.33301 2.66699 -9.16602 6.83398 -11.499 12.501
s-2.16602 11.167 0.500977 16.5s6.83398 9.16602 12.501 11.499s11.167 2.16602 16.5 -0.500977zM255.995 300.003c0 -6 -2.16699 -11.167 -6.5 -15.5s-9.5 -6.5 -15.5 -6.5s-11.167 2.16699 -15.5 6.5s-6.5 9.5 -6.5 15.5s2.16699 11.167 6.5 15.5s9.5 6.5 15.5 6.5
s11.167 -2.16699 15.5 -6.5s6.5 -9.5 6.5 -15.5zM460.995 335.003c0 -6 -2.16699 -11.167 -6.5 -15.5s-9.5 -6.5 -15.5 -6.5s-11.167 2.16699 -15.5 6.5s-6.5 9.5 -6.5 15.5s2.16699 11.167 6.5 15.5s9.5 6.5 15.5 6.5s11.167 -2.16699 15.5 -6.5s6.5 -9.5 6.5 -15.5z" />
    <glyph glyph-name="one" unicode="1" horiz-adv-x="407" 
d="M322 624c13.333 -44 24.668 -93.8301 34.001 -149.497s15.5 -98.667 18.5 -129s7.16699 -83.5 12.5 -159.5s8.66602 -121 9.99902 -135c0.666992 -6 -1 -11.333 -5 -16s-9 -7.33398 -15 -8.00098s-11.333 1 -16 5s-7.33398 9 -8.00098 15
c-1.33301 16 -4.66602 61.667 -9.99902 137s-9.5 127.666 -12.5 156.999s-9 71 -18 125s-19.833 102.667 -32.5 146c-2 5.33301 -1.5 10.666 1.5 15.999s7.33301 9 13 11s11.167 1.5 16.5 -1.5s9 -7.5 11 -13.5z" />
    <glyph glyph-name="two" unicode="2" horiz-adv-x="584" 
d="M168 498c-17.333 32.667 -8 67.666 28 104.999c29.333 30 68 53.667 116 71c24 8.66699 47.833 14.167 71.5 16.5s47.167 1.33301 70.5 -3s44.5 -14.5 63.5 -30.5s33.167 -37.333 42.5 -64c8.66699 -24.667 13.334 -50.5 14.001 -77.5s-0.666016 -51 -3.99902 -72
s-10.333 -45.833 -21 -74.5s-19.667 -51 -27 -67l-32 -65c-4.66699 -8.66699 -8 -15.334 -10 -20.001l-25 -46l-34 -58l-27 -45h31c8.66699 0.666992 18.834 1.33398 30.501 2.00098s21.5 1.16699 29.5 1.5s13.333 0.5 16 0.5c6 0 11.167 -2.16699 15.5 -6.5
s6.5 -9.5 6.5 -15.5s-2.16699 -11.167 -6.5 -15.5s-9.5 -6.5 -15.5 -6.5c-2.66699 0 -7.83398 -0.166992 -15.501 -0.5s-17.167 -0.833008 -28.5 -1.5s-21.333 -1 -30 -1c-19.333 -1.33301 -34.333 -1.66602 -45 -0.999023c-7.33301 0 -13.333 0.333008 -18 1
c-8.66699 1.33301 -15.334 4 -20.001 8c-8 6.66699 -10.667 15.334 -8 26.001c1.33301 4.66699 3.66602 9.33398 6.99902 14.001c1.33301 1.33301 3.33301 3.66602 6 6.99902l2 2l29 48l34 58c9.33301 16.667 18 33 26 49c2 3.33301 4.66699 8.66602 8 15.999l33 66
c7.33301 15.333 16 36.166 26 62.499s16.5 48.666 19.5 66.999s4.16699 39.333 3.5 63s-4.66699 46.167 -12 67.5c-8 23.333 -21.833 40.833 -41.5 52.5s-42.167 17.334 -67.5 17.001s-52.666 -5.5 -81.999 -15.5c-42 -15.333 -75.333 -35.666 -100 -60.999
c-21.333 -22 -28.333 -40 -21 -54c3.33301 -5.33301 4 -10.833 2 -16.5s-5.66699 -10 -11 -13s-10.833 -3.5 -16.5 -1.5s-9.83398 5.66699 -12.501 11z" />
    <glyph glyph-name="three" unicode="3" horiz-adv-x="667" 
d="M159 571c15.333 28 43 51.6738 83 71.0068c38.667 20 80.667 32.333 126 37c30.667 3.33301 59 2.66602 85 -2.00098c26.667 -4.66699 51.5 -15.334 74.5 -32.001s38.5 -39.334 46.5 -68.001c13.333 -46.667 3 -93.667 -31 -141
c-16.667 -22.667 -48.667 -55.334 -96 -98.001l-31 -27c56.667 4 103 -2.66699 139 -20c24 -12 45.5 -28.667 64.5 -50s31.167 -45.333 36.5 -72c6.66699 -34.667 -2.33301 -64 -27 -88c-18 -18 -45.333 -32.333 -82 -43c-34 -10 -90.333 -18 -169 -24
c-6 -0.666992 -11.333 1 -16 5s-7.33398 9 -8.00098 15s1 11.333 5 16s9 7.33398 15 8.00098c76 5.33301 129.667 12.666 161 21.999c29.333 8.66699 50.5 19.5 63.5 32.5s17.5 29.167 13.5 48.5c-3.33301 18 -12.166 35.167 -26.499 51.5s-31.166 29.166 -50.499 38.499
c-20 10 -43.667 15.667 -71 17s-54 0 -80 -4h-2l-2.5 -1c-1.66699 -0.666992 -3.83398 -1.66699 -6.50098 -3c-15.333 -4 -27.333 -1 -36 9c-4 4.66699 -5.66699 10.334 -5 17.001c0.666992 2 1.33398 4.33301 2.00098 7c0.666992 1.33301 1.66699 2.66602 3 3.99902
c0.666992 1.33301 1.66699 2.66602 3 3.99902l8 8l24 22l45 41c45.333 39.333 75.333 69.333 90 90c26 35.333 34.333 69.666 25 102.999c-8 27.333 -26.333 47 -55 59s-63.667 16 -105 12c-39.333 -4.66699 -75.5 -15.167 -108.5 -31.5s-55.167 -34.833 -66.5 -55.5
c-2.66699 -5.33301 -7 -8.83301 -13 -10.5s-11.667 -1 -17 2s-8.83301 7.5 -10.5 13.5s-0.833984 11.667 2.49902 17z" />
    <glyph glyph-name="four" unicode="4" horiz-adv-x="603" 
d="M320 321c-14.667 100.667 -36.334 187.334 -65.001 260.001l-105 -121c-32 -38 -55.333 -68.333 -70 -91c-7.33301 -12 -12.666 -21 -15.999 -27c2.66699 -0.666992 5.66699 -1.33398 9 -2.00098c12.667 -2.66699 30 -5 52 -7c25.333 -2.66699 78 -6 158 -10zM259 657
c8 4.66699 15.6689 4.66797 23.002 0.000976562c5.33301 -3.33301 8.83301 -8 10.5 -14s0.833984 -11.333 -2.49902 -16l-4 -6c36 -83.333 62 -184.333 78 -303c112.667 -6.66699 184 -15 214 -25c6 -2 10.333 -5.66699 13 -11s3 -11 1 -17s-5.66699 -10.333 -11 -13
s-11 -3 -17 -1c-26 8.66699 -90.667 16.334 -194 23.001c3.33301 -28.667 6.33301 -59.667 9 -93c0.666992 -9.33301 1.66699 -28.333 3 -57s3.16602 -51.834 5.49902 -69.501s6.16602 -34.5 11.499 -50.5c2 -6 1.5 -11.667 -1.5 -17s-7.33301 -9 -13 -11
s-11.167 -1.5 -16.5 1.5s-9 7.16699 -11 12.5c-6 18 -10.333 37 -13 57s-4.66699 45.333 -6 76s-2.33301 48.667 -3 54c-2.66699 36 -6 69 -10 99l-44 3c-103.333 7.33301 -156.666 11 -159.999 11c-24 2 -42.667 4.33301 -56 7c-8 1.33301 -14.667 2.66602 -20 3.99902
c-8 2.66699 -14 6.33398 -18 11.001c-10 10 -11.667 24.333 -5 43c4 10 11 22.667 21 38c15.333 23.333 40 55 74 95l61 72l58 67c-2.66699 5.33301 -2.83398 10.666 -0.500977 15.999s6.16602 9.33301 11.499 12c4 2 8 2.66699 12 2z" />
    <glyph glyph-name="five" unicode="5" horiz-adv-x="595" 
d="M469 524c-19.333 2 -68.6641 4.33691 -147.997 7.00391c-39.333 1.33301 -68.666 1.66602 -87.999 0.999023c-10 0 -18 -0.333008 -24 -1l3 -9c2 -14 5.66699 -46.667 11 -98c4.66699 -39.333 9.66699 -68.666 15 -87.999c3.33301 1.33301 6.33301 2.33301 9 3
c20.667 6 35.667 10 45 12c20.667 2 41.834 3.33301 63.501 4s44.167 -1.83301 67.5 -7.5s44.833 -13.167 64.5 -22.5s37.667 -22.833 54 -40.5s28.5 -38.167 36.5 -61.5c10 -30 10.333 -56.667 1 -80c-8.66699 -20 -24.667 -36.667 -48 -50
c-25.333 -14 -67.666 -25.667 -126.999 -35c-1.33301 0 -7.5 -1 -18.5 -3s-19.833 -3.66699 -26.5 -5c-11.333 -1.33301 -21 -2 -29 -2c-12 0.666992 -21.667 3 -29 7s-13 11.333 -17 22c-1.33301 2.66699 -2 5 -2 7c-0.666992 1.33301 -1.33398 2.33301 -2.00098 3
c-2.66699 5.33301 -3 10.833 -1 16.5s5.66699 10 11 13s10.833 3.5 16.5 1.5s10.167 -5.66699 13.5 -11c1.33301 -2.66699 3 -7.33398 5 -14.001c2 -0.666992 4 -1 6 -1c6 0 13.333 0.666992 22 2c7.33301 0.666992 16.166 2 26.499 4s16.5 3.33301 18.5 4
c53.333 8 90.666 18 111.999 30c14 8 23.333 17.333 28 28c5.33301 13.333 4.66602 29.666 -2.00098 48.999c-14 41.333 -44.167 70.166 -90.5 86.499s-94.833 20.166 -145.5 11.499c-8 -1.33301 -21.667 -4.66602 -41 -9.99902c-0.666992 0 -1.16699 -0.166992 -1.5 -0.5
s-1.16602 -1 -2.49902 -2s-3.33301 -1.83301 -6 -2.5c-10.667 -6 -20.667 -7.66699 -30 -5c-11.333 3.33301 -18.333 11.666 -21 24.999c-0.666992 2 -1.33398 4.66699 -2.00098 8v3c-6.66699 22.667 -12 55 -16 97c-5.33301 50 -9.33301 81.333 -12 94
c0 1.33301 -0.333008 3.66602 -1 6.99902c-1.33301 4 -2.33301 7.33301 -3 10c-2 14.667 1 26 9 34c4 4 9.33301 6.66699 16 8c3.33301 0.666992 7.33301 1.33398 12 2.00098c7.33301 0.666992 17.666 1 30.999 1c23.333 0.666992 53.333 0.333984 90 -0.999023
c76.667 -2 127 -4.33301 151 -7c6 -0.666992 11 -3.33398 15 -8.00098s5.66699 -10 5 -16s-3.33398 -11 -8.00098 -15s-10 -5.66699 -16 -5z" />
    <glyph glyph-name="six" unicode="6" horiz-adv-x="601" 
d="M285 142l1 -0.00292969l2 -2l5 -2.5c2 -1 3.66699 -2.16699 5 -3.5c42 -8 80 -5.33301 114 8c16 6 33.5 16.5 52.5 31.5s35.5 32.167 49.5 51.5c32.667 44 42 81.667 28 113c-2.66699 6.66699 -9.16699 13.5 -19.5 20.5s-21.166 12.5 -32.499 16.5
c-21.333 8.66699 -45.166 6.33398 -71.499 -6.99902s-51.5 -34.666 -75.5 -63.999c-22.667 -28 -39.334 -57.167 -50.001 -87.5s-13.334 -55.166 -8.00098 -74.499zM181 662.997c2.66699 -25.333 1.83398 -53.001 -2.49902 -83.001s-10.833 -64.167 -19.5 -102.5
s-14.334 -65.166 -17.001 -80.499c-4.66699 -29.333 -6.83398 -56.5 -6.50098 -81.5s6 -49.5 17 -73.5s27.833 -45.667 50.5 -65c10.667 -8.66699 22.667 -16.334 36 -23.001c-2 26.667 3.66699 56 17 88s31 61.667 53 89c27.333 34 58.5 60 93.5 78s69.5 20.667 103.5 8
c14.667 -6 29.5 -14.167 44.5 -24.5s25.5 -22.5 31.5 -36.5c20.667 -47.333 9.66699 -99.666 -33 -156.999c-16 -22.667 -35.167 -42.834 -57.5 -60.501s-43.5 -30.5 -63.5 -38.5c-39.333 -14.667 -83.333 -18 -132 -10s-89 25.667 -121 53c-28 24 -49 51.167 -63 81.5
s-20.833 59.833 -20.5 88.5s2.5 59 6.5 91c3.33301 20 9.33301 48.5 18 85.5s15 68.5 19 94.5c4 26.667 4.66699 51.667 2 75c-0.666992 6 1 11.333 5 16s9 7.33398 15 8.00098s11.333 -1 16 -5s7.33398 -9 8.00098 -15z" />
    <glyph glyph-name="seven" unicode="7" horiz-adv-x="413" 
d="M136 621c7.33301 0 23.333 1.16699 48 3.5s44 3.83301 58 4.5c24 2 44 3 60 3c22 -0.666992 38 -2.66699 48 -6c28 -10 44.333 -38.333 49 -85c1.33301 -12.667 2 -28.334 2 -47.001v-36c3.33301 -22.667 3.66602 -91.167 0.999023 -205.5s-4 -182.833 -4 -205.5
c0 -6 -2.16699 -11.167 -6.5 -15.5s-9.5 -6.5 -15.5 -6.5s-11.167 2.16699 -15.5 6.5s-6.5 9.5 -6.5 15.5c0 22.667 1.33301 90.834 4 204.501s2.33398 181.834 -0.999023 204.501v38c0 17.333 -0.666992 31.666 -2 42.999c-2.66699 28 -9 43.667 -19 47
c-6 2 -17.333 3.33301 -34 4c-14.667 0 -33.667 -0.666992 -57 -2c-14 -1.33301 -33.5 -3 -58.5 -5s-41.167 -3.33301 -48.5 -4c-6 0 -11.333 2 -16 6s-7 9 -7 15s2 11.333 6 16s9 7 15 7z" />
    <glyph glyph-name="eight" unicode="8" horiz-adv-x="592" 
d="M382 278c45.333 10.667 81.001 29.1699 107.001 55.5029s41.667 55.166 47 86.499c7.33301 42 -4.16699 79.5 -34.5 112.5s-76.833 49.5 -139.5 49.5c-6 0 -11.167 2.16699 -15.5 6.5s-6.5 9.5 -6.5 15.5c0 3.33301 0.666992 6.66602 2 9.99902
c-40.667 -12.667 -79.334 -34.334 -116.001 -65.001s-65 -64 -85 -100c-26 -47.333 -31.333 -86.666 -16 -117.999c18 -36.667 63.333 -57.334 136 -62.001h4l11 12c4 4 9 6.16699 15 6.5s11.333 -1.5 16 -5.5c4 -3.33301 6.33301 -8 7 -14l24 2
c5.33301 6.66699 12 9.66699 20 9c4.66699 -0.666992 12.667 -1 24 -1zM284.001 224.003c-14.667 -18.667 -25 -35.999 -31 -51.999c-14.667 -39.333 -10 -69.333 14 -90c23.333 -20 58 -29.667 104 -29c46 1.33301 84 12.666 114 33.999c30.667 21.333 42.667 48 36 80
c-2.66699 14.667 -10.5 26.5 -23.5 35.5s-30.5 16.833 -52.5 23.5c-13.333 4 -33.333 6.33301 -60 7c-31.333 -6.66699 -65 -9.66699 -101 -9zM416.001 624.004l-16.998 0.00195312c64 -7.33301 112.333 -31.5 145 -72.5s44.667 -87.5 36 -139.5
c-5.33301 -29.333 -17.5 -57 -36.5 -83s-43.833 -47.667 -74.5 -65c55.333 -18.667 87.333 -48.334 96 -89.001c10 -50 -8 -91.333 -54 -124c-38 -26.667 -84.333 -40.667 -139 -42c-57.333 -1.33301 -102 12 -134 40c-39.333 34 -48.333 80.333 -27 139
c5.33301 13.333 12.333 26.666 21 39.999c-74.667 9.33301 -123.334 37 -146.001 83c-22.667 44.667 -17.334 97.667 15.999 159c30 54.667 75 102 135 142s120.333 58.667 181 56c6 0 11 -2.33301 15 -7s6 -10 6 -16s-2.33301 -11 -7 -15s-10 -6 -16 -6z" />
    <glyph glyph-name="nine" unicode="9" horiz-adv-x="628" 
d="M543 541c-20 21.333 -51.3301 36 -93.9971 44c-56.667 10.667 -102.334 12 -137.001 4c-32.667 -8 -64.667 -23 -96 -45c-30.667 -22 -56.334 -48 -77.001 -78c-46.667 -66.667 -56.334 -132 -29.001 -196c14 -31.333 34.5 -57.166 61.5 -77.499s56.667 -33 89 -38
s65 -4.5 98 1.5s63.5 19.667 91.5 41s49.667 48 65 80c16.667 35.333 25 91.666 25 168.999v53v22v7v2v1v2c0 1.33301 0.333008 2.33301 1 3c0 2 0.666992 3.66699 2 5zM566.003 287c-3.33301 -10 -6.99805 -19.332 -10.998 -27.999c-18 -38 -43.833 -69.833 -77.5 -95.5
s-70 -42.334 -109 -50.001s-77.833 -8.5 -116.5 -2.5s-74.667 21.333 -108 46c-32.667 24.667 -57.334 56.334 -74.001 95.001c-12 27.333 -18 55.333 -18 84c-0.666992 29.333 3.5 56.666 12.5 81.999s21.5 50 37.5 74c24 34 53.667 63.333 89 88s72.333 41.667 111 51
c40.667 10 92.334 9.33301 155.001 -2c69.333 -13.333 117.333 -44.333 144 -93c3.33301 -5.33301 4.16602 -11 2.49902 -17s-5.16699 -10.333 -10.5 -13l1 -4c2.66699 -14.667 5 -33.667 7 -57c4 -37.333 7 -87.666 9 -150.999l2 -103l3 -103
c0.666992 -26.667 1.66699 -46.334 3 -59.001c0.666992 -6 -1 -11.333 -5 -16s-9 -7.33398 -15 -8.00098s-11.333 1 -16 5s-7.33398 9 -8.00098 15c-1.33301 12.667 -2.33301 32.334 -3 59.001l-3 102z" />
    <glyph glyph-name="colon" unicode=":" horiz-adv-x="216" 
d="M167 480l8.00098 0.000976562c6 -1.33301 10.667 -4.5 14 -9.5s4.66602 -10.5 3.99902 -16.5c-3.33301 -16 -10.833 -29.333 -22.5 -40s-24.5 -13 -38.5 -7c-16 5.33301 -23.667 17.666 -23 36.999c0 14 6 30 18 48c3.33301 5.33301 7.83301 8.5 13.5 9.5
s11.167 -0.166992 16.5 -3.5c6.66699 -4 10 -10 10 -18zM200.001 140.001c4.66699 -5.33301 6.66797 -11.333 6.00098 -18c-4 -25.333 -9.33301 -43.333 -16 -54c-6.66699 -10 -15 -15 -25 -15c-11.333 0 -19.333 6 -24 18c-4.66699 10.667 -5.33398 24 -2.00098 40
c4 17.333 11.667 33.333 23 48c3.33301 5.33301 8 8.33301 14 9s11.333 -1 16 -5c8 -6 10.667 -13.667 8 -23z" />
    <glyph glyph-name="semicolon" unicode=";" horiz-adv-x="200" 
d="M134 461c-4 9.33301 -2.66699 17.665 4 24.998c4 4.66699 9 7 15 7s11.333 -2 16 -6c12 -11.333 18.667 -24.166 20 -38.499s-0.666992 -26.666 -6 -36.999s-12.333 -18.833 -21 -25.5c-20 -15.333 -37.333 -16 -52 -2c-12 12.667 -13.667 33.667 -5 63
c2 6 5.66699 10.5 11 13.5s10.666 3.5 15.999 1.5c0.666992 0 1.33398 -0.333008 2.00098 -1zM189 109.999c-2.66699 -36.667 -4.33203 -57.334 -4.99902 -62.001c-6.66699 -24 -22.334 -42.667 -47.001 -56c-5.33301 -3.33301 -11 -4.16602 -17 -2.49902
s-10.5 5.16699 -13.5 10.5s-3.66699 11 -2 17s5.16699 10.333 10.5 13c14.667 8 23.334 17.667 26.001 29c0.666992 2 2 19.667 4 53c0.666992 6.66699 3.16699 12 7.5 16s9.66602 5.66699 15.999 5s11.5 -3.16699 15.5 -7.5s5.66699 -9.5 5 -15.5z" />
    <glyph glyph-name="less" unicode="&#x3c;" horiz-adv-x="480" 
d="M437 419c-54.667 -20.667 -121.669 -48.666 -201.002 -83.999l-81 -38c14.667 -2.66699 32.334 -5 53.001 -7c6 -0.666992 18.833 -1.83398 38.5 -3.50098s34.834 -3.16699 45.501 -4.5c70.667 -8 126.334 -23 167.001 -45c5.33301 -2.66699 8.83301 -7 10.5 -13
s1 -11.667 -2 -17s-7.5 -8.83301 -13.5 -10.5s-11.667 -0.833984 -17 2.49902c-34.667 19.333 -84.667 32.333 -150 39c-10.667 1.33301 -25.667 3 -45 5s-32 3 -38 3c-34 3.33301 -62 7.33301 -84 12c0 0.666992 -1.33301 1 -4 1h-10
c-6.66699 0.666992 -12 2.33398 -16 5.00098c-9.33301 5.33301 -14 13.333 -14 24c0 5.33301 2 10.333 6 15c1.33301 2 3 3.66699 5 5c2 2 5.33301 4.33301 10 7c6.66699 4.66699 16.334 10 29.001 16c22 12 52.667 26.667 92 44c81.333 36.667 149 65.334 203 86.001
c6 2 11.667 1.66699 17 -1s9.16602 -6.83398 11.499 -12.501s2.16602 -11.167 -0.500977 -16.5s-6.66699 -9.33301 -12 -12z" />
    <glyph glyph-name="equal" unicode="=" horiz-adv-x="433" 
d="M77 217c30.667 11.333 67 19.8311 109 25.498s77.167 9 105.5 10s64.833 1.5 109.5 1.5c6 0 11.167 -2.16699 15.5 -6.5s6.5 -9.5 6.5 -15.5s-2.16699 -11.167 -6.5 -15.5s-9.5 -6.5 -15.5 -6.5c-44 0 -80 -0.5 -108 -1.5s-61.333 -4.16699 -100 -9.5
s-72.667 -13.333 -102 -24c-5.33301 -2 -10.833 -1.66699 -16.5 1s-9.5 6.83398 -11.5 12.501s-1.66699 11.334 1 17.001s7 9.5 13 11.5zM122 361.998c59.333 8 123.667 14.668 193 20.001c6 0.666992 11.333 -1 16 -5s7.33398 -9 8.00098 -15s-1 -11.333 -5 -16
s-9 -7.33398 -15 -8.00098c-68.667 -5.33301 -132.334 -12 -191.001 -20c-6 -0.666992 -11.5 0.833008 -16.5 4.5s-7.83301 8.5 -8.5 14.5s0.833008 11.5 4.5 16.5s8.5 7.83301 14.5 8.5z" />
    <glyph glyph-name="greater" unicode="&#x3e;" horiz-adv-x="533" 
d="M111 559c47.333 -11.333 118.332 -31.3301 212.999 -59.9971c54 -16 96 -29.667 126 -41c18.667 -6.66699 33 -12.334 43 -17.001c6.66699 -2.66699 11.667 -5.33398 15 -8.00098c7.33301 -4.66699 12 -10.334 14 -17.001c5.33301 -18 0.333008 -34.333 -15 -49
c-18.667 -18 -63.667 -45.333 -135 -82l-144 -72c-5.33301 -2.66699 -10.833 -3 -16.5 -1s-10 5.66699 -13 11s-3.5 10.833 -1.5 16.5s5.66699 10.167 11 13.5l144 72c67.333 34 109 58.667 125 74l1 1l-3 1l-39 16c-30.667 10.667 -72 24 -124 40
c-92.667 27.333 -163 47.333 -211 60c-6 1.33301 -10.667 4.5 -14 9.5s-4.16602 10.5 -2.49902 16.5s5 10.667 10 14s10.5 4 16.5 2z" />
    <glyph glyph-name="question" unicode="?" horiz-adv-x="690" 
d="M106 699c-12 22 -10.998 45.002 3.00195 69.002c10 16.667 26.667 33.334 50 50.001c36 25.333 74.667 44.333 116 57c38 13.333 77.167 18.5 117.5 15.5s78 -11.333 113 -25s66.667 -35.334 95 -65.001s49.5 -64.834 63.5 -105.501c18 -56 21 -110 9 -162
s-35.333 -99.167 -70 -141.5s-76.667 -75.833 -126 -100.5c-8.66699 -4 -35 -12 -79 -24l-42 -12c-4.66699 -1.33301 -8.66699 -2.33301 -12 -3l-1 -7c-0.666992 -6.66699 -0.666992 -16 0 -28c0 -0.666992 2.66699 -19.334 8 -56.001
c0.666992 -6 -0.833008 -11.5 -4.5 -16.5s-8.5 -7.83301 -14.5 -8.5s-11.5 0.833008 -16.5 4.5s-7.83301 8.5 -8.5 14.5c-4.66699 37.333 -7.33398 57 -8.00098 59c-0.666992 14 -0.666992 26 0 36c2 16 7 27.667 15 35c2.66699 2 5.66699 3.66699 9 5
c1.33301 1.33301 3.33301 2.33301 6 3c3.33301 1.33301 8.33301 3 15 5c7.33301 2 21.666 5.66699 42.999 11c40.667 11.333 64 18.666 70 21.999c68 33.333 118.333 83 151 149c32.667 65.333 37.334 132.333 14.001 201c-11.333 34 -29 63.667 -53 89
c-24 24.667 -51 43 -81 55s-62.5 19.167 -97.5 21.5s-69.5 -2.16699 -103.5 -13.5c-36 -11.333 -70.333 -28.333 -103 -51c-18 -13.333 -30.333 -25.666 -37 -36.999c-6 -9.33301 -7 -17.333 -3 -24c3.33301 -5.33301 4.16602 -11 2.49902 -17s-5.16699 -10.5 -10.5 -13.5
s-11 -3.66699 -17 -2s-10.333 5.16699 -13 10.5zM368.002 55.002c0 -6 -2.16699 -11.167 -6.5 -15.5s-9.5 -6.5 -15.5 -6.5s-11.167 2.16699 -15.5 6.5s-6.5 9.5 -6.5 15.5s2.16699 11.167 6.5 15.5s9.5 6.5 15.5 6.5s11.167 -2.16699 15.5 -6.5s6.5 -9.5 6.5 -15.5z" />
    <glyph glyph-name="at" unicode="@" horiz-adv-x="578" 
d="M496 364c-2.66699 -14 -6.00977 -27.6631 -10.0098 -40.9961c-22 -70 -59.167 -123.333 -111.5 -160s-114.166 -45.334 -185.499 -26.001c-49.333 13.333 -85.166 36.666 -107.499 69.999s-33.166 72.333 -32.499 117c0.666992 37.333 8.33398 76 23.001 116
s33 76 55 108c20 30.667 35 52 45 64c22.667 26.667 45.667 44 69 52c26 8 53.5 10.333 82.5 7s56.167 -12 81.5 -26c24 -12 44.333 -27.833 61 -47.5s26.667 -41.834 30 -66.501l1 -1l2 -3c0 -0.666992 0.666992 -1.66699 2 -3c4.66699 -6 9 -16 13 -30
c-3.33301 18.667 -6.66602 31.667 -9.99902 39c-23.333 61.333 -61.333 109.833 -114 145.5s-108 45.5 -166 29.5c-50 -14 -94.667 -46.833 -134 -98.5s-67 -111.167 -83 -178.5c-9.33301 -46 -13.166 -89.333 -11.499 -130s11.167 -78.334 28.5 -113.001
s41.666 -61.667 72.999 -81c22.667 -14.667 46.5 -25 71.5 -31s47.833 -8.83301 68.5 -8.5s45.334 4.33301 74.001 12s52.334 15.167 71.001 22.5l76 31c6 2.66699 11.833 2.83398 17.5 0.500977s9.66699 -6.33301 12 -12s2.33301 -11.334 0 -17.001
s-6.16602 -9.5 -11.499 -11.5c-24 -10.667 -42.333 -18.5 -55 -23.5s-30.667 -11.667 -54 -20s-42.666 -13.833 -57.999 -16.5s-34.166 -5.33398 -56.499 -8.00098s-42.333 -2.5 -60 0.5s-37 8 -58 15s-41.5 16.5 -61.5 28.5c-28.667 18.667 -52.5 42.167 -71.5 70.5
s-32.333 59 -40 92s-11.167 67.167 -10.5 102.5s5 71 13 107c17.333 73.333 48.166 139 92.499 197s96.166 95.333 155.499 112c38.667 10 75.334 11.5 110.001 4.5s66.667 -20.833 96 -41.5s54.833 -45.167 76.5 -73.5s38.834 -58.5 51.501 -90.5
c10 -26 17 -62.667 21 -110c2 -26.667 1.66699 -48.667 -1 -66c-4.66699 -27.333 -16.667 -43.333 -36 -48c-12 -3.33301 -21.333 0.333984 -28 11.001c-2 4 -3.33301 9 -4 15c0 0.666992 -0.333008 3.66699 -1 9v2zM453.99 511.004c0 19.333 -6.17285 37.333 -18.5059 54
s-29.166 30.334 -50.499 41.001c-21.333 11.333 -43.666 18.666 -66.999 21.999c-23.333 2.66699 -44.333 0.666992 -63 -6c-15.333 -5.33301 -31.666 -18.333 -48.999 -39c-9.33301 -10 -23.666 -29.667 -42.999 -59s-35.666 -62 -48.999 -98s-20.333 -70.333 -21 -103
c-1.33301 -76 34.667 -124 108 -144c57.333 -15.333 107.333 -8.33301 150 21s73.667 75 93 137c10 32 16 70 18 114c0.666992 17.333 0.333984 32 -0.999023 44c-4.66699 4 -7 9.33301 -7 16z" />
    <glyph glyph-name="A" unicode="A" horiz-adv-x="608" 
d="M520 355l-6.99902 85.998c0 1.33301 -0.333008 5.66602 -1 12.999l-2 25c-1.33301 10 -2.33301 19.333 -3 28c-1.33301 17.333 -2.33301 31 -3 41c-27.333 43.333 -72.666 70 -135.999 80c-32 4.66699 -63.667 3.83398 -95 -2.49902s-58.333 -17.166 -81 -32.499
c-30 -20.667 -55.667 -49 -77 -85s-36.666 -76 -45.999 -120c-10 -42 -13 -84.167 -9 -126.5s14.667 -78.833 32 -109.5c20 -35.333 50.667 -62.333 92 -81s84.666 -26.334 129.999 -23.001c45.333 2.66699 84.666 16.334 117.999 41.001c36 26.667 62 73.334 78 140.001
c7.33301 32.667 10.666 74.667 9.99902 126zM552.001 532.998l4.00391 -38.9961c1.33301 -18 2.33301 -32.333 3 -43c2.66699 -42.667 4.33398 -74 5.00098 -94c9.33301 -126.667 20.666 -224.334 33.999 -293.001c0.666992 -6 -0.666016 -11.5 -3.99902 -16.5s-8 -8 -14 -9
s-11.5 0.166992 -16.5 3.5s-8.16699 8 -9.5 14c-6.66699 34 -12.334 71 -17.001 111c-18.667 -50 -45 -88 -79 -114c-38.667 -28.667 -84.834 -45 -138.501 -49s-105.167 5.16699 -154.5 27.5s-86.333 55.166 -111 98.499c-20.667 36.667 -33.334 79.167 -38.001 127.5
s-1.33398 95.166 9.99902 140.499c10.667 48 28 92.5 52 133.5s53.333 73.5 88 97.5c28 19.333 60.667 32.666 98 39.999s74.333 8 111 2c66 -10 117 -36.667 153 -80c2 0 4 -0.333008 6 -1c7.33301 -2 12.666 -7 15.999 -15c1.33301 -4 2 -9 2 -15v-7v-1
c2.66699 -6 2.66699 -12.333 0 -19z" />
    <glyph glyph-name="B" unicode="B" 
d="M278 371c-21.333 -9.33301 -40.668 -17.3291 -58.001 -23.9961c-19.333 -8 -35.666 -13.667 -48.999 -17c-16.667 -4.66699 -29.334 -6.66699 -38.001 -6c-3.33301 0.666992 -6.33301 1.66699 -9 3c-4 2 -7.33301 5 -10 9c0.666992 -26.667 1 -59.334 1 -98.001
c0 -13.333 -0.333008 -35.333 -1 -66s-0.833984 -57 -0.500977 -79s1.83301 -43 4.5 -63c0 5.33301 2 10 6 14c4.66699 4.66699 10 7 16 7c36 0 61.833 0.166992 77.5 0.5s37.5 1.66602 65.5 3.99902s52.667 6.16602 74 11.499c64.667 16.667 115.667 44 153 82
c42.667 43.333 54 91.666 34 144.999c-15.333 42 -49.333 68.333 -102 79c-37.333 7.33301 -88.666 7 -153.999 -1c-3.33301 0 -6.66602 -0.333008 -9.99902 -1zM265.998 413.004l61.001 29.001c45.333 22 84.666 43 117.999 63c17.333 10 31.333 19 42 27
c10 7.33301 16 12.333 18 15c3.33301 5.33301 4.66602 12 3.99902 20s-3.66699 15.333 -9 22c-27.333 36 -89.666 52 -186.999 48c-33.333 -2 -74.666 -6.33301 -123.999 -13c-64 -8.66699 -96.333 -13 -97 -13c12.667 -72.667 20 -157.334 22 -254.001l4 6
c1.33301 1.33301 3 2.33301 5 3c2.66699 2 7 4.33301 13 7c8.66699 4 20.667 8.66699 36 14c39.333 13.333 70.666 22 93.999 26zM117.999 26.0049c0 -4.66699 -1.33203 -8.66895 -3.99902 -12.002c-4 -5.33301 -9 -8.33301 -15 -9s-11.5 0.833008 -16.5 4.5
s-7.83301 8.5 -8.5 14.5c-2.66699 21.333 -4.16699 43.666 -4.5 66.999s-0.166016 50.833 0.500977 82.5s1 53.167 1 64.5c0 94.667 -2.33301 176 -7 244s-15 135.667 -31 203c-2 6 -1.33301 11.5 2 16.5s8 8.33301 14 10s11.5 0.833984 16.5 -2.49902s8.16699 -8 9.5 -14
c3.33301 -13.333 6.33301 -27 9 -41c5.33301 0.666992 38.333 5.33398 99 14.001c50.667 6.66699 93.334 11 128.001 13c112.667 4.66699 187.667 -17.333 225 -66c9.33301 -12.667 15 -27.167 17 -43.5s-2 -32.5 -12 -48.5c-4.66699 -8 -14 -17 -28 -27l-45 -29l-82 -45
c23.333 0 44.666 -2 63.999 -6c69.333 -13.333 114.666 -48.666 135.999 -105.999c25.333 -71.333 10.333 -135.333 -45 -192c-42.667 -44 -100.667 -75 -174 -93c-22.667 -6 -49.167 -10.333 -79.5 -13s-53.333 -4.16699 -69 -4.5s-41.834 -0.5 -78.501 -0.5
c-6 0 -11.333 2.33301 -16 7c-3.33301 3.33301 -5.33301 7.33301 -6 12z" />
    <glyph glyph-name="C" unicode="C" horiz-adv-x="586" 
d="M485 433c-2.66699 32.667 -14.665 64.6689 -35.998 96.002s-48 57 -80 77c-33.333 20 -66.666 31 -99.999 33s-65.333 -7 -96 -27c-51.333 -35.333 -87.666 -90 -108.999 -164s-24.333 -144 -9 -210c13.333 -54 43.666 -99.667 90.999 -137c46 -36.667 98 -59 156 -67
c58.667 -8 108 0.666992 148 26c44 28 70.333 72.333 79 133c6.66699 47.333 4.33398 88.666 -6.99902 123.999c-2 6 -1.5 11.667 1.5 17s7.33301 9 13 11s11.167 1.5 16.5 -1.5s9 -7.16699 11 -12.5c13.333 -42.667 16.333 -90.667 9 -144
c-10.667 -74.667 -44 -129.334 -100 -164.001c-49.333 -31.333 -108.333 -42.333 -177 -33c-65.333 8.66699 -125.333 34.667 -180 78c-54 42.667 -88.333 96 -103 160c-9.33301 33.333 -12.833 70.333 -10.5 111s8.5 79.834 18.5 117.501s26 73.834 48 108.501
s48 62.334 78 83.001c25.333 17.333 52.666 28.166 81.999 32.499s57.5 3 84.5 -4s53.167 -18.167 78.5 -33.5c37.333 -23.333 68.666 -53.333 93.999 -90s39.666 -75.334 42.999 -116.001c0.666992 -6 -1 -11.333 -5 -16s-9 -7.33398 -15 -8.00098s-11.333 1 -16 5
s-7.33398 9 -8.00098 15z" />
    <glyph glyph-name="D" unicode="D" horiz-adv-x="569" 
d="M89 25c2 0.666992 4.33594 1.00391 7.00293 1.00391c121.333 0 219.333 26.667 294 80c83.333 59.333 125 145 125 257c0 33.333 -5.83301 67.166 -17.5 101.499s-27.834 65.5 -48.501 93.5c-17.333 24 -42.833 47.833 -76.5 71.5s-69.167 42.5 -106.5 56.5
c-84.667 31.333 -149.334 28 -194.001 -10c5.33301 -24.667 8.83301 -50.334 10.5 -77.001s2.66699 -58.334 3 -95.001s0.833008 -61 1.5 -73c1.33301 -40.667 2.16602 -82.334 2.49902 -125.001s0.333008 -94.167 0 -154.5s-0.5 -101.833 -0.5 -124.5v-2zM54.0029 717.004
c56.667 41.333 132.337 44.668 227.004 10.001c41.333 -15.333 80.5 -36 117.5 -62s65.833 -53 86.5 -81c22.667 -31.333 40.667 -66.333 54 -105s20 -77.334 20 -116.001c0 -127.333 -47.667 -225 -143 -293c-82.667 -58.667 -189.334 -88 -320.001 -88
c-6 0 -11.167 2.16699 -15.5 6.5s-6.5 9.5 -6.5 15.5v2c-2 -0.666992 -4.33301 -1 -7 -1c-6 0 -11.167 2.16699 -15.5 6.5s-6.5 9.5 -6.5 15.5c0 22.667 0.166992 64 0.5 124s0.333008 111.333 0 154s-1.16602 84 -2.49902 124c-0.666992 22 -1 44.333 -1 67
c-0.666992 28 -1.33398 50.833 -2.00098 68.5s-2.33398 38.334 -5.00098 62.001s-6.33398 45.167 -11.001 64.5c-2 6 -1.33301 11.667 2 17s7.66602 8.66602 12.999 9.99902s10.333 1 15 -1z" />
    <glyph glyph-name="E" unicode="E" horiz-adv-x="585" 
d="M479 313v3.00195c2 30.667 -3.16699 66 -15.5 106s-29.5 76.667 -51.5 110c-24 36 -51.167 62.667 -81.5 80s-61.833 22.333 -94.5 15c-22 -4.66699 -43.167 -15.334 -63.5 -32.001s-41.5 -38.334 -63.5 -65.001c-44 -52 -67 -111 -69 -177
c-0.666992 -21.333 1 -42.333 5 -63l234 12l149 8l49 3h2zM56 247.002c16 -43.333 41.5 -79.501 76.5 -108.501s74.167 -48.167 117.5 -57.5c28 -7.33301 56.667 -9 86 -5s56.5 12 81.5 24s47.667 30.167 68 54.5s35.833 53.5 46.5 87.5c2 5.33301 5.66699 9.5 11 12.5
s10.833 3.5 16.5 1.5s10 -5.66699 13 -11s3.5 -11 1.5 -17c-12.667 -39.333 -31.167 -73.5 -55.5 -102.5s-51.333 -50.5 -81 -64.5s-61.667 -23.5 -96 -28.5s-67.833 -3.16699 -100.5 5.5c-34 7.33301 -65.833 19.833 -95.5 37.5s-56 39.667 -79 66s-40.833 58 -53.5 95
s-18.334 76.5 -17.001 118.5c2.66699 75.333 29 143 79 203c15.333 18 29 33.167 41 45.5s28.333 25.5 49 39.5s41 23.333 61 28c44.667 9.33301 86 3 124 -19s70.667 -53.667 98 -95c24.667 -37.333 43.834 -78.166 57.501 -122.499s19.5 -84.5 17.5 -120.5v-3v-8
c0 -11.333 -3.33301 -20 -10 -26c-2 -2 -4.66699 -3.66699 -8 -5c-0.666992 0 -1.5 -0.166992 -2.5 -0.5s-1.83301 -0.5 -2.5 -0.5c-1.33301 0 -3 -0.333008 -5 -1c-3.33301 0 -8.33301 -0.333008 -15 -1l-49 -3l-149 -8z" />
    <glyph glyph-name="F" unicode="F" horiz-adv-x="391" 
d="M112 19c2.66699 59.333 -3.66797 146.667 -19.001 262c-16.667 126.667 -25.334 216.334 -26.001 269.001c0 3.33301 -0.333008 9.33301 -1 18s-1.66699 20.167 -3 34.5s-2.33301 26.5 -3 36.5c-2 22.667 -3 40.667 -3 54v20c0 3.33301 0.333008 6.33301 1 9
c1.33301 5.33301 3.33301 9.66602 6 12.999c5.33301 6.66699 14.333 12 27 16c8.66699 3.33301 19.667 6 33 8c21.333 4 50 7.33301 86 10c20.667 1.33301 48.334 2.83301 83.001 4.5s56 2.83398 64 3.50098c6 0.666992 11.333 -1 16 -5s7.33398 -9 8.00098 -15
s-1 -11.333 -5 -16s-9 -7.33398 -15 -8.00098c-7.33301 -0.666992 -28.666 -1.83398 -63.999 -3.50098s-63.333 -3.16699 -84 -4.5c-34.667 -2.66699 -62 -5.66699 -82 -9c-10.667 -2 -19.334 -4 -26.001 -6l-4 -2v-14c0 -12.667 1 -30 3 -52
c0.666992 -10 1.66699 -22.333 3 -37s2.33301 -26.667 3 -36s1 -15.666 1 -18.999c0.666992 -46 5.33398 -102.667 14.001 -170c17.333 0 45 0.333008 83 1s67 1 87 1c6 0 11.167 -2.16699 15.5 -6.5s6.5 -9.5 6.5 -15.5s-2.16699 -11.167 -6.5 -15.5s-9.5 -6.5 -15.5 -6.5
c-20 0 -48.5 -0.333008 -85.5 -1s-63.167 -1 -78.5 -1l6 -49c15.333 -114.667 21.666 -204.667 18.999 -270c0 -6 -2.33301 -11 -7 -15s-10 -6 -16 -6s-11 2.33301 -15 7s-6 10 -6 16z" />
    <glyph glyph-name="G" unicode="G" horiz-adv-x="547" 
d="M484 362l-3.00098 28.998c0 2 -0.333008 8 -1 18l-4 36c-1.33301 14 -2.33301 27.333 -3 40c-2 24 -3.33301 42.667 -4 56v7c-15.333 18.667 -32.833 33 -52.5 43s-44.167 18.667 -73.5 26c-69.333 16 -128.666 9 -177.999 -21c-23.333 -14 -45 -34.667 -65 -62
c-20 -28 -35.333 -58.667 -46 -92c-24.667 -73.333 -23 -134.666 5 -183.999c19.333 -34 44 -62.167 74 -84.5s61.333 -37 94 -44s66.167 -5.16699 100.5 5.5s64.833 30.334 91.5 59.001c35.333 38 57 94 65 168zM488.999 590.998
c3.33301 0.666992 7 0.658203 11 -0.00878906c7.33301 -2 12.333 -6.66699 15 -14c2 -4 3 -9 3 -15v-6c0 -2 -0.166992 -3.16699 -0.5 -3.5s-0.166016 -0.833008 0.500977 -1.5c8.66699 -43.333 13 -81.666 13 -114.999c0 -27.333 -1 -52 -3 -74
c6 -69.333 9.33301 -125 10 -167c1.33301 -96.667 -8.33398 -163.667 -29.001 -201c-5.33301 -10 -11.5 -18.5 -18.5 -25.5s-15.333 -13.167 -25 -18.5s-17.167 -9.16602 -22.5 -11.499s-14 -5.83301 -26 -10.5c-6 -2 -11.833 -1.66699 -17.5 1s-9.5 6.83398 -11.5 12.501
s-1.66699 11.334 1 17.001s6.66699 9.5 12 11.5l32 12c6.66699 2.66699 13.5 6.83398 20.5 12.501s12.833 12.834 17.5 21.501c16.667 30 24.334 89.667 23.001 179c0 9.33301 -0.333008 19.333 -1 30c-11.333 -23.333 -25.333 -43.666 -42 -60.999
c-32.667 -35.333 -69.834 -59.333 -111.501 -72s-82 -14.5 -121 -5.5s-76.167 26.5 -111.5 52.5s-64 58.333 -86 97c-17.333 30.667 -26.5 66.334 -27.5 107.001s5.16699 78.334 18.5 113.001c12.667 38 30.334 72.833 53.001 104.5s48.667 56.167 78 73.5
c59.333 36 129.333 44.333 210 25c59.333 -13.333 104.666 -36 135.999 -68z" />
    <glyph glyph-name="H" unicode="H" horiz-adv-x="606" 
d="M23 358c-0.666992 10 -1.33594 18.9941 -2.00293 26.9941c-0.666992 14 -1 33.333 -1 58s-0.166992 44.334 -0.5 59.001s-2.16602 31.834 -5.49902 51.501s-8 37.5 -14 53.5c-2.66699 5.33301 -2.83398 10.833 -0.500977 16.5s6.33301 9.66699 12 12
s11.334 2.33301 17.001 0s9.5 -6.5 11.5 -12.5c15.333 -36 23.333 -83.667 24 -143c9.33301 14.667 20 28.334 32 41.001c35.333 34.667 76.666 59.667 123.999 75c47.333 16 94.666 20.667 141.999 14c49.333 -6.66699 93 -25 131 -55s65 -70.667 81 -122
c12 -39.333 19.167 -80.666 21.5 -123.999s1.83301 -94.833 -1.5 -154.5s-5 -99.5 -5 -119.5c0 -6 -2.16699 -11.167 -6.5 -15.5s-9.5 -6.5 -15.5 -6.5s-11.167 2.16699 -15.5 6.5s-6.5 9.5 -6.5 15.5c0 24.667 1.66699 65.834 5 123.501s4 106.5 2 146.5
s-8.66699 78.667 -20 116c-13.333 42 -35.5 75.333 -66.5 100s-67.5 40 -109.5 46c-40 5.33301 -80.667 1.16602 -122 -12.501s-76.666 -35.5 -105.999 -65.5c-32 -31.333 -52.333 -75.333 -61 -132c0 -6 1.33301 -24.333 4 -55c3.33301 -38.667 5 -67.667 5 -87
c0 -10 1.66699 -44.333 5 -103c0 -1.33301 1.33301 -16.333 4 -45c0.666992 -10 1.33398 -17.333 2.00098 -22v-9l-2 -8c-2 -6 -6 -10 -12 -12c-9.33301 -4 -17.666 -2.66699 -24.999 4c-4 4 -7 10 -9 18c-1.33301 4.66699 -2.66602 10.667 -3.99902 18
c-2 11.333 -3.66699 26.333 -5 45c-1.33301 10.667 -2.5 24.834 -3.5 42.501s-1.83301 27.834 -2.5 30.501c-8.66699 72.667 -9 134 -1 184z" />
    <glyph glyph-name="I" unicode="I" horiz-adv-x="161" 
d="M117 669c5.33301 -18.667 9.50098 -40.002 12.501 -64.002s5 -42.667 6 -56s2 -36.166 3 -68.499s1.5 -50.833 1.5 -55.5c7.33301 -191.333 11 -325.666 11 -402.999c0 -6 -2.16699 -11.167 -6.5 -15.5s-9.5 -6.5 -15.5 -6.5s-11.167 2.16699 -15.5 6.5
s-6.5 9.5 -6.5 15.5c0 77.333 -3.66699 211 -11 401c0 6.66699 -0.5 25.834 -1.5 57.501s-1.83301 53.667 -2.5 66s-2.5 29.666 -5.5 51.999s-6.83301 41.833 -11.5 58.5c-2 6 -1.5 11.667 1.5 17s7.5 8.83301 13.5 10.5s11.667 1 17 -2s8.66602 -7.5 9.99902 -13.5z
M98.001 742.998c0 -6 -2.16699 -11.167 -6.5 -15.5s-9.5 -6.5 -15.5 -6.5s-11.167 2.16699 -15.5 6.5s-6.5 9.5 -6.5 15.5s2.16699 11.167 6.5 15.5s9.5 6.5 15.5 6.5s11.167 -2.16699 15.5 -6.5s6.5 -9.5 6.5 -15.5z" />
    <glyph glyph-name="J" unicode="J" horiz-adv-x="374" 
d="M309 752c24.667 -54.667 41.666 -160.002 50.999 -316.002c9.33301 -154 5.66602 -261.667 -11.001 -323c-13.333 -51.333 -34.666 -86.333 -63.999 -105c-27.333 -18.667 -58.333 -21.334 -93 -8.00098c-28.667 10.667 -55.5 30.5 -80.5 59.5s-43.833 60.833 -56.5 95.5
c-2 6 -1.66699 11.833 1 17.5s6.83398 9.5 12.501 11.5s11.334 1.66699 17.001 -1s9.5 -6.66699 11.5 -12c10.667 -30 26.334 -57.167 47.001 -81.5s42 -40.5 64 -48.5c20 -8 37.667 -7 53 3c19.333 13.333 34.666 40.333 45.999 81c15.333 55.333 18.333 158.333 9 309
c-9.33301 151.333 -25 251.333 -47 300c-2.66699 5.33301 -2.83398 10.833 -0.500977 16.5s6.16602 9.83398 11.499 12.501s10.833 2.83398 16.5 0.500977s9.83398 -6.16602 12.501 -11.499z" />
    <glyph glyph-name="K" unicode="K" horiz-adv-x="521" 
d="M162 248c84.667 3.33301 195.668 -15.332 333.001 -55.999c6 -1.33301 10.5 -4.83301 13.5 -10.5s3.66699 -11.334 2 -17.001s-5.33398 -10 -11.001 -13s-11.167 -3.5 -16.5 -1.5c-144.667 42.667 -259 60 -343 52c2 -52 3 -107.667 3 -167
c0 -6 -2.16699 -11.167 -6.5 -15.5s-9.5 -6.5 -15.5 -6.5s-11.167 2.16699 -15.5 6.5s-6.5 9.5 -6.5 15.5c0 66.667 -1.33301 129 -4 187c-2.66699 6 -3 12 -1 18c-8 167.333 -26.333 291.333 -55 372c-2 5.33301 -1.66699 10.833 1 16.5s6.83398 9.5 12.501 11.5
s11.334 1.66699 17.001 -1s9.5 -7 11.5 -13c27.333 -76.667 45.666 -190.667 54.999 -342c18 19.333 46.333 51.666 85 96.999c53.333 62.667 95.333 107.667 126 135c4.66699 4 10 5.83301 16 5.5s11 -2.66602 15 -6.99902s5.83301 -9.5 5.5 -15.5s-2.5 -11 -6.5 -15
c-30.667 -28 -71.334 -71.667 -122.001 -131c-43.333 -50.667 -74.333 -85.667 -93 -105z" />
    <glyph glyph-name="L" unicode="L" horiz-adv-x="311" 
d="M100 586c6.66699 -21.333 12.666 -44.5 17.999 -69.5s9.5 -46.333 12.5 -64s6.16699 -41.667 9.5 -72s5.5 -51.833 6.5 -64.5s2.66699 -36.834 5 -72.501s3.83301 -57.167 4.5 -64.5c0 -1.33301 1.66699 -19.333 5 -54c2 -22 3 -40.667 3 -56
c0 -1.33301 -0.333008 -3.33301 -1 -6h4c9.33301 -1.33301 22.333 -2 39 -2c11.333 0.666992 25.666 1.16699 42.999 1.5s27.333 0.5 30 0.5c6 0 11.167 -2.16699 15.5 -6.5s6.5 -9.5 6.5 -15.5s-2.16699 -11.167 -6.5 -15.5s-9.5 -6.5 -15.5 -6.5
c-2.66699 0 -12.5 -0.166992 -29.5 -0.5s-31.5 -0.833008 -43.5 -1.5c-17.333 0 -31.666 0.666992 -42.999 2c-6.66699 0.666992 -12.667 1.33398 -18 2.00098c-8 2 -14 5 -18 9c-8 7.33301 -11 17.333 -9 30c0.666992 4 1.33398 6.66699 2.00098 8v1c0 14 -1 31.333 -3 52
c-3.33301 34.667 -5 52.667 -5 54c-0.666992 8 -2.16699 30 -4.5 66s-4 60 -5 72s-3 32.833 -6 62.5s-6 53 -9 70s-7 37.333 -12 61s-10.833 45.5 -17.5 65.5c-2 6 -1.5 11.667 1.5 17s7.33301 9 13 11s11.167 1.5 16.5 -1.5s9 -7.16699 11 -12.5z" />
    <glyph glyph-name="M" unicode="M" horiz-adv-x="779" 
d="M358 470c-26 88 -69.3311 131.999 -129.998 131.999c-41.333 0 -73.666 -12.333 -96.999 -37c-15.333 -16 -27.333 -38.333 -36 -67c2 -28 3.16699 -56.833 3.5 -86.5s0.333008 -66.5 0 -110.5s-0.5 -70.333 -0.5 -79v-128c0 -2 0.166992 -6.5 0.5 -13.5
s0.666016 -15.333 0.999023 -25s0.833008 -17.834 1.5 -24.501v-28c0 -1.33301 -0.333008 -2.66602 -1 -3.99902c-0.666992 -2.66699 -1.66699 -5 -3 -7c-6.66699 -8.66699 -14.667 -11.667 -24 -9c-6 1.33301 -10.333 4.66602 -13 9.99902
c-1.33301 1.33301 -2 2.66602 -2 3.99902c-0.666992 1.33301 -1 2.66602 -1 3.99902c-0.666992 2.66699 -1.66699 7.66699 -3 15c-4.66699 36 -9.33398 104.333 -14.001 205c0 2 -0.833008 15.833 -2.5 41.5s-2.5 44 -2.5 55s-0.166992 27.5 -0.5 49.5s0.5 42 2.5 60
s4.66699 35.333 8 52c1.33301 8 3 16 5 24c-2.66699 38.667 -7.33398 73 -14.001 103c-1.33301 6 -0.5 11.5 2.5 16.5s7.5 8.16699 13.5 9.5s11.5 0.5 16.5 -2.5s8.16699 -7.5 9.5 -13.5l8 -37c4 6 8.33301 11.667 13 17c32 33.333 75 50 129 50
c64.667 0 114 -33.667 148 -101l4 10c14 31.333 36.333 56.333 67 75s64 29.667 100 33c36.667 2.66699 71 -3.33301 103 -18s56.667 -38 74 -70c34.667 -66.667 49.334 -159.334 44.001 -278.001c-0.666992 -23.333 -2.33398 -49.166 -5.00098 -77.499
s-5 -50.166 -7 -65.499s-5.5 -40.5 -10.5 -75.5s-7.83301 -55.167 -8.5 -60.5c-0.666992 -6 -3.5 -10.833 -8.5 -14.5s-10.5 -5.16699 -16.5 -4.5s-10.833 3.5 -14.5 8.5s-5.16699 10.5 -4.5 16.5c1.33301 6.66699 4.33301 26.5 9 59.5s8 57.5 10 73.5
s4.33301 37.833 7 65.5s4.33398 53.167 5.00098 76.5c4.66699 110.667 -8.66602 196 -39.999 256c-11.333 22.667 -29.166 39.5 -53.499 50.5s-50.833 15.5 -79.5 13.5c-29.333 -2.66699 -55.833 -11.167 -79.5 -25.5s-40.834 -33.166 -51.501 -56.499
c-8 -17.333 -13.667 -38.333 -17 -63c1.33301 -5.33301 2.66602 -10.333 3.99902 -15c3.33301 -13.333 6.33301 -27 9 -41s4.66699 -28.667 6 -44l5 -40c1.33301 -12 2.33301 -26 3 -42l2 -37l1 -35c0.666992 -16 1 -25.333 1 -28c0.666992 -22.667 0 -59.667 -2 -111
c-0.666992 -23.333 -1.33398 -39.666 -2.00098 -48.999c-0.666992 -6.66699 -1 -11.667 -1 -15c-0.666992 -2 -1 -3.66699 -1 -5v-3c-0.666992 -0.666992 -1 -1.66699 -1 -3l-2 -4c-3.33301 -5.33301 -8 -8.66602 -14 -9.99902c-7.33301 -2 -14 -1.33301 -20 2
s-10.333 8.33301 -13 15c-2 5.33301 -2.66699 12.666 -2 21.999c0 2.66699 0.666992 8.33398 2 17.001c0.666992 6 1 9.66699 1 11c-2.66699 70.667 -4.66699 114 -6 130l-8 77c-4.66699 44 -7.66699 78.667 -9 104c-2 38 -1.33301 71.333 2 100z" />
    <glyph glyph-name="N" unicode="N" horiz-adv-x="571" 
d="M54 388c-7.33301 85.333 -17.001 153.33 -29.001 203.997c-2 6 -1.33301 11.5 2 16.5s8 8.33301 14 10s11.5 0.833984 16.5 -2.49902s8.16699 -8 9.5 -14c8.66699 -34 15.667 -72 21 -114c14.667 25.333 36.834 47.666 66.501 66.999s62.5 34 98.5 44
c32 10.667 66.667 15 104 13s68.666 -11.667 93.999 -29c18.667 -12 37.667 -34.333 57 -67c35.333 -60 53 -138 53 -234c0 -26.667 -1.66699 -66.334 -5 -119.001s-5 -90.334 -5 -113.001c0 -6 -2.16699 -11.167 -6.5 -15.5s-9.5 -6.5 -15.5 -6.5
s-11.167 2.16699 -15.5 6.5s-6.5 9.5 -6.5 15.5c0 24.667 1.66699 63.334 5 116.001s5 91.334 5 116.001c0 88 -15.667 158.667 -47 212c-16 26.667 -30.333 44.334 -43 53.001c-18.667 12 -42.667 18.833 -72 20.5s-59.333 -1.83301 -90 -10.5
c-31.333 -9.33301 -59.5 -22 -84.5 -38s-43.167 -33.667 -54.5 -53c-13.333 -23.333 -22.666 -49.666 -27.999 -78.999c6.66699 -82 11.334 -132.667 14.001 -152c8.66699 -74.667 13.334 -116.667 14.001 -126c0 -2 0.333008 -4.5 1 -7.5s1.66699 -6.83301 3 -11.5l2 -13
c2 -9.33301 2.66699 -16.333 2 -21c-1.33301 -11.333 -7.33301 -18.333 -18 -21c-8 -2 -15.667 0 -23 6c-5.33301 4.66699 -9.33301 11.667 -12 21c-1.33301 5.33301 -2.66602 12 -3.99902 20c-0.666992 4.66699 -1.33398 10.667 -2.00098 18
c-0.666992 6 -1.33398 9.66699 -2.00098 11c0 2 -1.33301 10.167 -4 24.5s-4.33398 23.166 -5.00098 26.499s-2 11.833 -4 25.5s-3.33301 23.334 -4 29.001s-1.83398 14.834 -3.50098 27.501s-2.66699 22.5 -3 29.5s-0.666016 16.333 -0.999023 28s-0.333008 21.667 0 30
s0.833008 17.5 1.5 27.5s2 19.667 4 29zM122.999 75.9971v-2v2z" />
    <glyph glyph-name="O" unicode="O" horiz-adv-x="550" 
d="M173 567c-28 -10.667 -52.3311 -34.332 -72.998 -70.999c-20 -36.667 -34.333 -81 -43 -133c-8.66699 -50 -10.334 -97.667 -5.00098 -143c4.66699 -46 15 -81.333 31 -106c23.333 -34.667 65.333 -58.334 126 -71.001c55.333 -12 103.666 -10.333 144.999 5
c51.333 18.667 89 51 113 97s33 97.667 27 155c-5.33301 57.333 -24.333 110 -57 158s-75 81.667 -127 101c-50 19.333 -95.667 22 -137 8zM158.002 609.002c52 17.333 107.999 14.666 167.999 -8.00098c60.667 -23.333 109.667 -62.333 147 -117s59 -114.334 65 -179.001
c4 -42.667 1 -83.167 -9 -121.5s-28.667 -73.666 -56 -105.999s-61.666 -56.166 -102.999 -71.499c-50 -18 -107 -20.333 -171 -7c-71.333 15.333 -122 45.666 -152 90.999c-20.667 30 -33.667 71.667 -39 125c-6 52.667 -4.33301 104.334 5 155.001
c10.667 57.333 27.667 107.333 51 150c24 44 55 73.333 93 88z" />
    <glyph glyph-name="P" unicode="P" horiz-adv-x="645" 
d="M132 107c4.66699 2.66699 9.66699 3.6709 15 3.00391c74.667 -13.333 142.334 -15 203.001 -5c41.333 6.66699 78.333 19 111 37s58.5 39 77.5 63s33 49.667 42 77s12.5 54.666 10.5 81.999s-9.33301 53 -22 77s-30.334 45.333 -53.001 64s-52 32.334 -88 41.001
c-36 9.33301 -76.667 11.666 -122 6.99902c-34.667 -3.33301 -68.667 -11 -102 -23c-34 -12.667 -62.667 -28.334 -86 -47.001c-3.33301 -2.66699 -7.33301 -4.33398 -12 -5.00098c2 -12 3.83301 -24.333 5.5 -37s3.16699 -26.334 4.5 -41.001s2.5 -26.667 3.5 -36
s1.83301 -23 2.5 -41s1.16699 -30 1.5 -36s0.833008 -19.333 1.5 -40s1 -32.667 1 -36c0.666992 -24 2.66699 -58.667 6 -104zM135 67.0039c3.33301 -45.333 5 -82.9971 5 -112.997c0 -6 -2.16699 -11.167 -6.5 -15.5s-9.5 -6.5 -15.5 -6.5s-11.167 2.16699 -15.5 6.5
s-6.5 9.5 -6.5 15.5c0 29.333 -2 71.333 -6 126c-4.66699 64 -7.33398 107 -8.00098 129c0 4 -0.333008 15.333 -1 34s-1.16699 30.667 -1.5 36s-0.833008 16.5 -1.5 33.5s-1.33398 28.833 -2.00098 35.5s-1.5 17.667 -2.5 33s-2 27.166 -3 35.499s-2.5 19.166 -4.5 32.499
s-4 24.666 -6 33.999l-7 31c-2.66699 12 -5.66699 23.333 -9 34c-2 5.33301 -1.5 10.666 1.5 15.999s7.33301 9 13 11s11.167 1.5 16.5 -1.5s9 -7.5 11 -13.5c4 -12 7.33301 -24.667 10 -38c27.333 20.667 59.5 37.5 96.5 50.5s73.5 21.167 109.5 24.5
c50 4.66699 95.833 1.83398 137.5 -8.49902s76.167 -26.5 103.5 -48.5s48.833 -47.833 64.5 -77.5s24.834 -61.5 27.501 -95.5c3.33301 -45.333 -4.66699 -89 -24 -131s-51 -79.167 -95 -111.5s-96.667 -53.5 -158 -63.5c-66 -10.667 -139 -9 -219 5
c-1.33301 0.666992 -2.66602 1 -3.99902 1z" />
    <glyph glyph-name="Q" unicode="Q" horiz-adv-x="640" 
d="M310 666c-6.66699 -3.33301 -12.9961 -3.33398 -18.9961 -0.000976562c-4.66699 2 -9.33398 3.66699 -14.001 5c-6.66699 0.666992 -13.334 1 -20.001 1c-2.66699 0 -5.33398 0.333008 -8.00098 1c-26 -2 -54 -17.333 -84 -46c-37.333 -34.667 -69 -79 -95 -133
c-24 -50 -36 -116 -36 -198c0 -96.667 29.333 -167.667 88 -213c55.333 -42.667 132.666 -59.667 231.999 -51c46.667 4 86.334 15.333 119.001 34c-10 6.66699 -24 15 -42 25c-5.33301 2.66699 -8.83301 7 -10.5 13s-1 11.667 2 17s7.5 8.83301 13.5 10.5
s11.667 0.833984 17 -2.49902c25.333 -14.667 44.666 -26.667 57.999 -36c16.667 14.667 30.667 31.667 42 51c34.667 60 43 132.667 25 218c-16 74 -48.333 139.833 -97 197.5s-105.667 93.167 -171 106.5zM511.004 37.999c-42 -28 -92.998 -44.668 -152.998 -50.001
c-110 -10 -197.333 10 -262 60c-70.667 54 -106 136.667 -106 248c0 89.333 13.333 162 40 218c28 58 63 106.333 105 145c51.333 48.667 101 67.334 149 56.001c56 -5.33301 108.167 -25.333 156.5 -60s87.5 -76.667 117.5 -126s51 -102 63 -158c20 -96 10 -179 -30 -249
c-12 -20.667 -27 -39.334 -45 -56.001c8 -7.33301 15.333 -15 22 -23c4 -4.66699 5.66699 -10 5 -16s-3.33398 -11 -8.00098 -15s-10 -5.66699 -16 -5s-11 3.33398 -15 8.00098c-6.66699 8 -14.334 15.667 -23.001 23z" />
    <glyph glyph-name="R" unicode="R" horiz-adv-x="472" 
d="M59 447c-3.33301 82.667 -11.3311 142.339 -23.998 179.006c-2 5.33301 -1.66699 10.833 1 16.5s6.83398 9.5 12.501 11.5s11.334 1.66699 17.001 -1s9.5 -7 11.5 -13c8 -22.667 14 -52.334 18 -89.001c17.333 24 41 44.833 71 62.5s61.667 30.167 95 37.5
c32.667 9.33301 67.5 10.666 104.5 3.99902s67.167 -22.334 90.5 -47.001c4 -4.66699 6 -10 6 -16s-2.33301 -11 -7 -15s-10 -6 -16 -6s-11 2.33301 -15 7c-16.667 17.333 -38.667 28.666 -66 33.999c-28 5.33301 -57 4.33301 -87 -3c-30.667 -7.33301 -59 -19 -85 -35
s-45.667 -34 -59 -54c-10.667 -16.667 -18.334 -39 -23.001 -67c-0.666992 -2 -1 -4.33301 -1 -7v-15c0.666992 -32.667 1 -58.167 1 -76.5s-0.166992 -42.333 -0.5 -72s-0.5 -49.834 -0.5 -60.501c0 -28 -1 -69.333 -3 -124v-14c0 -6 0.166992 -13.167 0.5 -21.5
s0.5 -14.833 0.5 -19.5c0.666992 -12 0.666992 -20.333 0 -25c-0.666992 -3.33301 -2 -6.33301 -4 -9c-2.66699 -4.66699 -6.33398 -8 -11.001 -10c-8 -2.66699 -15 -1.66699 -21 3c-4 2 -7 5.33301 -9 10c-0.666992 2 -1.33398 4.33301 -2.00098 7
c-3.33301 10.667 -5.33301 38 -6 82c-0.666992 34.667 -0.333984 79.667 0.999023 135c2.66699 103.333 6 173.666 10 210.999z" />
    <glyph glyph-name="S" unicode="S" horiz-adv-x="553" 
d="M431 472c5.33301 26.667 1.8291 52.1738 -10.5039 76.5068s-30.833 45.166 -55.5 62.499s-51.667 29.666 -81 36.999c-30 6.66699 -58.333 7.33398 -85 2.00098c-34.667 -6.66699 -69.334 -29.334 -104.001 -68.001c-32.667 -36.667 -52 -73.667 -58 -111
c-5.33301 -32.667 1.66699 -56 21 -70c18 -13.333 47.667 -21.333 89 -24c22.667 -1.33301 63.334 0 122.001 4c51.333 3.33301 85.333 3.66602 102 0.999023c28.667 -4.66699 56 -16.167 82 -34.5s46.333 -39.833 61 -64.5c18.667 -32 28.334 -63 29.001 -93
c0.666992 -51.333 -18.833 -94.666 -58.5 -129.999s-87.167 -57 -142.5 -65c-36 -5.33301 -70.667 -4 -104 4c-34 8 -65.5 24.833 -94.5 50.5s-49.5 58.834 -61.5 99.501c-2 5.33301 -1.5 10.666 1.5 15.999s7.33301 9 13 11s11.167 1.5 16.5 -1.5s9 -7.5 11 -13.5
c14.667 -47.333 41.667 -81.333 81 -102c38.667 -20.667 82.334 -27.334 131.001 -20.001c46.667 6.66699 85.667 24 117 52s46.666 61 45.999 99c-0.666992 21.333 -8.33398 45 -23.001 71c-11.333 19.333 -27.333 36.166 -48 50.499s-41.667 23.166 -63 26.499
c-14 2.66699 -45 2.33398 -93 -0.999023c-57.333 -4 -99.666 -5.33301 -126.999 -4c-50 3.33301 -87.667 14 -113 32c-34 25.333 -47 63.333 -39 114c7.33301 45.333 30.666 89.666 69.999 132.999c40.667 45.333 83.334 72.666 128.001 81.999
c32.667 6 66.834 4.83301 102.501 -3.5s67.834 -22.833 96.501 -43.5c31.333 -22 55 -48.833 71 -80.5s20.667 -65.834 14 -102.501c-1.33301 -6 -4.5 -10.667 -9.5 -14s-10.5 -4.5 -16.5 -3.5s-10.667 4 -14 9s-4.66602 10.5 -3.99902 16.5z" />
    <glyph glyph-name="T" unicode="T" horiz-adv-x="280" 
d="M107 484l-72 -2c-6 0 -11.333 2 -16 6s-7 9 -7 15s2 11.333 6 16s9 7 15 7l72 2c-3.33301 48 -7.66602 93.667 -12.999 137c-0.666992 6 0.833008 11.5 4.5 16.5s8.5 7.83301 14.5 8.5s11.5 -0.833008 16.5 -4.5s7.83301 -8.5 8.5 -14.5
c5.33301 -48.667 9.66602 -96 12.999 -142h43c6 0 11.167 -2.16699 15.5 -6.5s6.5 -9.5 6.5 -15.5s-2.16699 -11.167 -6.5 -15.5s-9.5 -6.5 -15.5 -6.5h-41c1.33301 -30.667 2.33301 -62.334 3 -95.001c0 -11.333 -0.333008 -36 -1 -74
c-0.666992 -35.333 -0.666992 -65.666 0 -90.999c2 -69.333 11.333 -118 28 -146c2 -3.33301 4 -6.33301 6 -9s4.66699 -5 8 -7s6 -3.66699 8 -5s5.66699 -2.66602 11 -3.99902l11 -4c2 -0.666992 6.66699 -2 14 -4s12.333 -3.33301 15 -4
c6 -1.33301 10.5 -4.66602 13.5 -9.99902s3.66699 -11 2 -17s-5.16699 -10.5 -10.5 -13.5s-11 -3.5 -17 -1.5c-1.33301 0 -6.5 1.16699 -15.5 3.5s-15.167 4 -18.5 5s-9 3.16699 -17 6.5s-14.167 6.66602 -18.5 9.99902s-9.33301 7.66602 -15 12.999
s-10.5 11.666 -14.5 18.999c-20.667 34.667 -32 90.334 -34 167.001c-0.666992 23.333 -0.666992 54 0 92s1 62.667 1 74c-0.666992 32.667 -1.66699 64 -3 94z" />
    <glyph glyph-name="U" unicode="U" 
d="M75 512c2 -21.333 2.32715 -55.9971 0.994141 -103.997c-0.666992 -42 0.333008 -74.667 3 -98c4 -36 13.667 -70 29 -102c15.333 -31.333 34.333 -58.833 57 -82.5s50 -41.334 82 -53.001s65.333 -14.834 100 -9.50098c24.667 3.33301 46.334 10.666 65.001 21.999
s34 24.666 46 39.999s22.167 34.166 30.5 56.499s14.666 44.333 18.999 66s7.83301 46.167 10.5 73.5l2 24l-5 79c-1.33301 22 -2 38 -2 48c0 6.66699 0.333008 12 1 16c0.666992 7.33301 2 13 4 17c2.66699 4.66699 6.33398 8.33398 11.001 11.001
c5.33301 2.66699 11 3 17 1c4.66699 -1.33301 8.33398 -4 11.001 -8c4 -4 6.33301 -10.667 7 -20c2 -12 3 -33.333 3 -64c0 -29.333 -1 -56 -3 -80c2 -18 3.66699 -36.667 5 -56c11.333 -126 20.333 -201 27 -225c2 -6 1.5 -11.667 -1.5 -17s-7.5 -8.83301 -13.5 -10.5
s-11.667 -1 -17 2s-8.66602 7.5 -9.99902 13.5c-4.66699 16.667 -10.667 60 -18 130c-32 -96 -93 -150.333 -183 -163c-43.333 -6 -84.166 -1.83301 -122.499 12.5s-70.666 35.5 -96.999 63.5s-48 60.167 -65 96.5s-28.167 73.833 -33.5 112.5
c-3.33301 24.667 -4.33301 59.667 -3 105c1.33301 46.667 1 79.667 -1 99c-0.666992 6 1 11.333 5 16s9 7.33398 15 8.00098s11.333 -1 16 -5s7.33398 -9 8.00098 -15z" />
    <glyph glyph-name="V" unicode="V" horiz-adv-x="471" 
d="M49 528c20.667 -16.667 40.1699 -36.502 58.5029 -59.502s36 -50.5 53 -82.5s29.5 -56.667 37.5 -74l36 -79l40 -94c2 8 4 17.667 6 29c2.66699 12.667 4.33398 19.667 5.00098 21c39.333 147.333 84.333 264.333 135 351c3.33301 5.33301 7.83301 8.83301 13.5 10.5
s11.167 0.833984 16.5 -2.49902s8.83301 -7.83301 10.5 -13.5s0.833984 -11.167 -2.49902 -16.5c-48.667 -83.333 -92.334 -197 -131.001 -341c0 -0.666992 -1.33301 -6.66699 -4 -18c-2.66699 -14 -5 -25.667 -7 -35c-3.33301 -14.667 -6.66602 -26.334 -9.99902 -35.001
c-2 -6 -4 -10.667 -6 -14c-4.66699 -8 -10.334 -13.333 -17.001 -16c-4 -1.33301 -7.66699 -1.66602 -11 -0.999023s-6 1.66699 -8 3l-3 3c-1.33301 0.666992 -2.33301 1.66699 -3 3s-1.33398 2.5 -2.00098 3.5s-1.33398 2.16699 -2.00098 3.5c-0.666992 2.66699 -2 6 -4 10
l-15 35l-41 96c-15.333 34.667 -27.333 61 -36 79s-20.834 41.667 -36.501 71s-31.667 54.333 -48 75s-33.833 38.667 -52.5 54c-4.66699 4 -7.33398 9 -8.00098 15s1 11.333 5 16s9 7.33398 15 8.00098s11.333 -1 16 -5z" />
    <glyph glyph-name="W" unicode="W" horiz-adv-x="675" 
d="M36 541c18 -29.333 35.167 -63.498 51.5 -102.498s33.666 -86 51.999 -141s30.833 -90.5 37.5 -106.5l21 -53l16 -42l1 1c6.66699 19.333 15.334 50.666 26.001 93.999c13.333 58 21.666 92.667 24.999 104c4.66699 17.333 9 31.333 13 42c5.33301 14 11 24.333 17 31
c13.333 12.667 29.333 14.667 48 6c4.66699 -2 9.33398 -5.66699 14.001 -11c3.33301 -3.33301 7.33301 -8 12 -14c7.33301 -10 16.333 -23.667 27 -41l66 -115l62 -112l4 -8c1.33301 7.33301 2.66602 16 3.99902 26c4 27.333 9.33301 72.333 16 135
c14.667 137.333 26.667 230 36 278c3.33301 15.333 9.66602 38.333 18.999 69c8.66699 27.333 14.334 48.666 17.001 63.999c1.33301 6 4.5 10.667 9.5 14s10.5 4.5 16.5 3.5s10.667 -4 14 -9s4.66602 -10.5 3.99902 -16.5c-3.33301 -16.667 -9.5 -39.667 -18.5 -69
s-14.833 -50.666 -17.5 -63.999c-8 -36.667 -20 -128 -36 -274c-5.33301 -48.667 -11 -94.334 -17 -137.001c-3.33301 -26 -6.33301 -45 -9 -57c-2 -8 -3.66699 -14.333 -5 -19l-5 -10c-6.66699 -8.66699 -15 -12 -25 -10c-2 0.666992 -4.16699 1.66699 -6.5 3
s-4.16602 2.66602 -5.49902 3.99902l-1 1c-0.666992 1.33301 -2 3 -4 5c-2 2.66699 -4.33301 6.66699 -7 12c-5.33301 8 -12.666 20.667 -21.999 38l-62 112c-27.333 49.333 -49 87 -65 113c-10 16 -18.333 28.667 -25 38c-3.33301 4 -6 7.33301 -8 10v1
c-2 -3.33301 -4 -7.66602 -6 -12.999c-3.33301 -9.33301 -7.33301 -21.666 -12 -36.999l-25 -103c-12 -48.667 -21 -81.667 -27 -99c-5.33301 -15.333 -10.666 -27 -15.999 -35c-10 -14.667 -21.667 -21.334 -35 -20.001c-10 1.33301 -17.333 6.33301 -22 15
c-2 4 -3 8.66699 -3 14l-1 8c-4 11.333 -11 29.333 -21 54l-23 57c-7.33301 19.333 -20 56 -38 110s-34.5 99.333 -49.5 136s-31.5 68.667 -49.5 96c-2.66699 5.33301 -3.33398 11 -2.00098 17s4.5 10.5 9.5 13.5s10.5 3.83301 16.5 2.5s10.667 -4.33301 14 -9z" />
    <glyph glyph-name="X" unicode="X" horiz-adv-x="483" 
d="M366 539c-6.66699 -18 -17.332 -40.0039 -31.999 -66.0039c-17.333 -30.667 -28 -50.667 -32 -60l-17 -37l10 -12c66 -79.333 124.333 -161.333 175 -246c3.33301 -4.66699 4.16602 -10 2.49902 -16s-5 -10.667 -10 -14s-10.5 -4.16602 -16.5 -2.49902
s-10.667 5.16699 -14 10.5c-48.667 80.667 -104 158.667 -166 234l-42 -103c-20.667 -52.667 -37.334 -93 -50.001 -121c-2.66699 -5.33301 -6.83398 -9.16602 -12.501 -11.499s-11.167 -2.16602 -16.5 0.500977s-9.16602 6.83398 -11.499 12.501
s-2.16602 11.167 0.500977 16.5c12.667 28.667 30 70.667 52 126s38 94.666 48 117.999c-72 81.333 -132.667 131 -182 149c-5.33301 2.66699 -9.33301 6.66699 -12 12s-2.83398 10.833 -0.500977 16.5s6.16602 9.83398 11.499 12.501s11 3 17 1
c52.667 -20 114.334 -69 185.001 -147l9 19c4.66699 10.667 16 31.667 34 63c13.333 24 22.666 43.667 27.999 59c2 6 5.83301 10.333 11.5 13s11.334 3 17.001 1s9.83398 -5.83301 12.501 -11.5s3 -11.167 1 -16.5z" />
    <glyph glyph-name="Y" unicode="Y" horiz-adv-x="603" 
d="M42 630c1.33301 -10.667 3.33203 -28.333 5.99902 -53s4.83398 -42.667 6.50098 -54s5.16699 -25.666 10.5 -42.999s12.333 -33.333 21 -48c15.333 -25.333 36.833 -46.833 64.5 -64.5s57.834 -29.5 90.501 -35.5c33.333 -6 65 -4.83301 95 3.5s55.333 23.5 76 45.5
c40 44 70.667 100.333 92 169c6.66699 22 11.667 42.667 15 62c0 1.33301 0.166992 3.16602 0.5 5.49902s0.666016 4.33301 0.999023 6s0.5 2.83398 0.5 3.50098c0.666992 3.33301 1.66699 6.33301 3 9c5.33301 10.667 14 15 26 13c7.33301 -2 12.666 -6.66699 15.999 -14
c2 -2.66699 3.33301 -6 4 -10c1.33301 -4.66699 2.33301 -11.334 3 -20.001c1.33301 -12.667 2 -30.334 2 -53.001c0.666992 -14.667 0.833984 -32.5 0.500977 -53.5s-0.5 -32.167 -0.5 -33.5c0 -14.667 2.66699 -46.334 8 -95.001
c5.33301 -55.333 8.66602 -98.333 9.99902 -129c2 -50.667 0.333008 -92.667 -5 -126c-6.66699 -44.667 -20.334 -76.667 -41.001 -96c-3.33301 -3.33301 -7 -6.16602 -11 -8.49902s-8.5 -4.33301 -13.5 -6s-9.5 -3 -13.5 -4s-8.66699 -1.83301 -14 -2.5s-9.33301 -1 -12 -1
s-6.5 -0.166992 -11.5 -0.5s-7.83301 -0.5 -8.5 -0.5c-6 0 -11.333 2 -16 6s-7 9 -7 15s2 11.333 6 16s9 7 15 7c30.667 1.33301 49.334 5 56.001 11c13.333 12.667 22.666 36.334 27.999 71.001c4.66699 30 6 69 4 117c-1.33301 30 -4.66602 72 -9.99902 126
s-8 87.333 -8 100v29c-21.333 -55.333 -50.333 -103 -87 -143c-26 -28 -57.667 -47.167 -95 -57.5s-75.666 -11.833 -114.999 -4.5c-38.667 6.66699 -74.667 20.5 -108 41.5s-59.333 47.5 -78 79.5c-10 16.667 -18.167 35.167 -24.5 55.5s-10.5 37 -12.5 50
s-4.33301 32.333 -7 58s-4.66699 42.5 -6 50.5c-0.666992 6 0.833008 11.5 4.5 16.5s8.5 7.83301 14.5 8.5s11.5 -0.833008 16.5 -4.5s7.83301 -8.5 8.5 -14.5z" />
    <glyph glyph-name="Z" unicode="Z" horiz-adv-x="538" 
d="M48 641c26.667 -3.33301 54.3301 -5.33398 82.9971 -6.00098s63.834 -0.5 105.501 0.5s70.5 1.5 86.5 1.5c4 0 10.333 0.333008 19 1c14 1.33301 22 2 24 2c23.333 2 41 1 53 -3c16.667 -5.33301 27.667 -14 33 -26c2.66699 -5.33301 3.33398 -12.333 2.00098 -21
c-0.666992 -5.33301 -2.33398 -11.666 -5.00098 -18.999c-3.33301 -12.667 -9.33301 -29.334 -18 -50.001c-13.333 -34.667 -33.333 -80.667 -60 -138l-105 -223l-13 -31l-17 -39l-17 -32c12.667 -0.666992 28.667 -1 48 -1h103c15.333 0 38 -0.5 68 -1.5
s52.667 -1.5 68 -1.5c6 0 11.167 -2.16699 15.5 -6.5s6.5 -9.5 6.5 -15.5s-2.16699 -11.167 -6.5 -15.5s-9.5 -6.5 -15.5 -6.5c-15.333 0 -38 0.5 -68 1.5s-52.667 1.5 -68 1.5h-103c-26 0 -46.333 0.333008 -61 1c-9.33301 0.666992 -16.666 1.33398 -21.999 2.00098
c-3.33301 0.666992 -6 1.33398 -8 2.00098c-2 0 -4 0.666992 -6 2c-5.33301 2 -9 5.66699 -11 11c-4 8.66699 -3.33301 17 2 25c2 3.33301 5 6.66602 9 9.99902c2.66699 2 4.33398 3 5.00098 3c6 10 11.667 20.667 17 32l18 41l16 36l105 223
c26 57.333 46 102.666 60 135.999c7.33301 20 12.666 35.667 15.999 47c1.33301 3.33301 2.33301 6.33301 3 9c-1.33301 0.666992 -3 1.33398 -5 2.00098c-6 2 -18 2.33301 -36 1c-1.33301 0 -9 -0.666992 -23 -2c-10 -0.666992 -17.667 -1 -23 -1
c-14 0 -42.167 -0.5 -84.5 -1.5s-78.5 -1.16699 -108.5 -0.5c-29.333 0.666992 -58.666 2.66699 -87.999 6c-6 0.666992 -10.833 3.5 -14.5 8.5s-5.16699 10.5 -4.5 16.5s3.5 10.833 8.5 14.5s10.5 5.16699 16.5 4.5z" />
    <glyph glyph-name="bracketleft" unicode="[" horiz-adv-x="203" 
d="M177 654c-2 -0.666992 -5.66602 -1.66602 -10.999 -2.99902l-14 -4c-4.66699 -1.33301 -9 -2.66602 -13 -3.99902c-13.333 -4.66699 -22 -9.33398 -26 -14.001c-2.66699 -3.33301 -4.66699 -9 -6 -17c-3.33301 -14 -3 -34 1 -60c6 -38.667 9 -61.667 9 -69
c1.33301 -30 2 -61.167 2 -93.5s-0.166992 -70.333 -0.5 -114s-0.5 -74.834 -0.5 -93.501c0 -5.33301 -0.5 -18 -1.5 -38s-1.83301 -35 -2.5 -45c-0.666992 -18.667 -0.666992 -33.667 0 -45c0 -8.66699 0.333008 -14.667 1 -18c1.33301 -0.666992 3 -1 5 -1
c0.666992 -0.666992 4 -0.833984 10 -0.500977s10 0.5 12 0.5c6 0 11.167 -2.16699 15.5 -6.5s6.5 -9.5 6.5 -15.5s-2.16699 -11.167 -6.5 -15.5s-9.5 -6.5 -15.5 -6.5h-27c-18.667 2 -31.667 10 -39 24c-3.33301 7.33301 -5.33301 20 -6 38
c-0.666992 12 -0.333984 28 0.999023 48c0 10 0.5 24.833 1.5 44.5s1.5 31.834 1.5 36.501c0 19.333 0.166992 50.5 0.5 93.5s0.5 80.667 0.5 113s-0.666992 63.166 -2 92.499c0 6 -3 27.667 -9 65c-4 30.667 -4.33301 55.334 -1 74.001
c3.33301 16 8.66602 28.333 15.999 37c8.66699 11.333 23.667 20.666 45 27.999c0.666992 0 14.334 3.66699 41.001 11c6 2 11.667 1.5 17 -1.5s8.83301 -7.5 10.5 -13.5s1 -11.667 -2 -17s-7.5 -8.66602 -13.5 -9.99902z" />
    <glyph glyph-name="backslash" unicode="\" horiz-adv-x="333" 
d="M110 624c2.66699 -10 6.00195 -19.998 10.002 -29.998l16 -33c6 -12.667 11 -24 15 -34c34.667 -82.667 66.334 -162.667 95.001 -240c11.333 -32.667 24.666 -76.667 39.999 -132l36 -130c2 -5.33301 1.5 -10.833 -1.5 -16.5s-7.33301 -9.33398 -13 -11.001
s-11.334 -1 -17.001 2s-9.16699 7.5 -10.5 13.5c-2.66699 7.33301 -14.667 51 -36 131c-14.667 50.667 -28 93 -40 127c-30 82 -61 162 -93 240c-2.66699 6 -7.33398 15.667 -14.001 29s-12.5 26.166 -17.5 38.499s-8.83301 24.166 -11.5 35.499c-2 6 -1.33301 11.5 2 16.5
s8 8.33301 14 10s11.5 0.833984 16.5 -2.49902s8.16699 -8 9.5 -14z" />
    <glyph glyph-name="bracketright" unicode="]" horiz-adv-x="237" 
d="M68 739c19.333 8.66699 33.6689 14.335 43.002 17.002c27.333 7.33301 48 6.33301 62 -3c10 -7.33301 17.333 -20.666 22 -39.999c3.33301 -14 6 -31 8 -51l4 -86c0 -4.66699 0.833008 -20.334 2.5 -47.001s3.5 -59.334 5.5 -98.001s3.66699 -74.334 5 -107.001
c3.33301 -66 5.66602 -117.667 6.99902 -155v-53c0 -7.33301 -0.333008 -13.333 -1 -18c0 -2.66699 -0.333008 -5 -1 -7c-0.666992 -4 -2 -7.33301 -4 -10c-8 -12.667 -24.667 -21.667 -50 -27c-5.33301 -0.666992 -13 -2 -23 -4
c-8.66699 -0.666992 -14.334 -1.33398 -17.001 -2.00098c-6 -2 -11.5 -1.33301 -16.5 2s-8.33301 8 -10 14s-0.833984 11.5 2.49902 16.5s8 8.16699 14 9.5c4 1.33301 11 2.66602 21 3.99902l21 3c8.66699 2 15.334 4.33301 20.001 7v13v51
c-1.33301 37.333 -3.33301 88.333 -6 153c-2 33.333 -4 69.333 -6 108s-3.83301 71.167 -5.5 97.5s-2.5 42.166 -2.5 47.499c0 2.66699 -0.166992 9.33398 -0.5 20.001s-0.833008 21.334 -1.5 32.001l-2 32c-1.33301 18.667 -3.33301 33.334 -6 44.001
c-2.66699 8.66699 -4.66699 13.667 -6 15h-3h-4c-2 0 -4.33301 -0.333008 -7 -1s-5.66699 -1.66699 -9 -3c-8 -2 -21.333 -6.66699 -40 -14c-5.33301 -2.66699 -10.833 -2.83398 -16.5 -0.500977s-9.66699 6.33301 -12 12s-2.33301 11.334 0 17.001s6.5 9.5 12.5 11.5z" />
    <glyph glyph-name="asciicircum" unicode="^" horiz-adv-x="471" 
d="M230 579c2.66699 14 13.999 52.001 33.999 114.001c8.66699 28 16.334 50.667 23.001 68c3.33301 10 6.33301 18 9 24c1.33301 3.33301 2.33301 6 3 8c1.33301 1.33301 2.33301 2.66602 3 3.99902c2 3.33301 4.33301 5.66602 7 6.99902c12 8 24.667 8.66699 38 2
c8 -4 16 -11.333 24 -22c11.333 -14 24 -36 38 -66c8.66699 -18.667 19 -43.334 31 -74.001c10.667 -27.333 17 -42.666 19 -45.999c2.66699 -5.33301 3 -11 1 -17s-5.66699 -10.333 -11 -13s-11 -3 -17 -1s-10.333 5.66699 -13 11c-2 4.66699 -8.66699 21.334 -20 50.001
c-12 30 -22 54 -30 72c-12.667 26 -23.334 45 -32.001 57l-4 4l-5 -15c-6 -16.667 -13.333 -39 -22 -67c-19.333 -60 -30.666 -96.667 -33.999 -110c-0.666992 -6 -3.66699 -10.5 -9 -13.5s-11 -4 -17 -3s-10.5 4.16699 -13.5 9.5s-3.83301 11 -2.5 17z" />
    <glyph glyph-name="underscore" unicode="_" horiz-adv-x="630" 
d="M152 51c28.667 -2 70.5 0.833008 125.5 8.5s87.833 11.834 98.5 12.501c33.333 2.66699 107.333 4 222 4c6 0 11.167 -2.16699 15.5 -6.5s6.5 -9.5 6.5 -15.5s-2.16699 -11.167 -6.5 -15.5s-9.5 -6.5 -15.5 -6.5c-113.333 0 -186 -1.33301 -218 -4
c-3.33301 0 -35 -4 -95 -12s-105.667 -11 -137 -9c-6 0.666992 -11 3.16699 -15 7.5s-5.66699 9.66602 -5 15.999s3.16699 11.5 7.5 15.5s9.83301 5.66699 16.5 5z" />
    <glyph glyph-name="grave" unicode="`" horiz-adv-x="247" 
d="M83 853c27.333 -9.33301 56 -31.6699 86 -67.0029c5.33301 -6 16.333 -20 33 -42c13.333 -17.333 23 -29.333 29 -36c4.66699 -4.66699 6.66699 -10 6 -16s-3.16699 -11.167 -7.5 -15.5s-9.5 -6.16602 -15.5 -5.49902s-11 3 -15 7c-7.33301 8 -18 21 -32 39
c-14 18.667 -24.667 32.334 -32 41.001c-24.667 28.667 -46.667 46.334 -66 53.001c-6 2 -10.333 5.66699 -13 11s-3 11 -1 17s5.66699 10.333 11 13s11 3 17 1z" />
    <glyph glyph-name="a" unicode="a" horiz-adv-x="608" 
d="M520 355l-6.99902 85.998c0 1.33301 -0.333008 5.66602 -1 12.999l-2 25c-1.33301 10 -2.33301 19.333 -3 28c-1.33301 17.333 -2.33301 31 -3 41c-27.333 43.333 -72.666 70 -135.999 80c-32 4.66699 -63.667 3.83398 -95 -2.49902s-58.333 -17.166 -81 -32.499
c-30 -20.667 -55.667 -49 -77 -85s-36.666 -76 -45.999 -120c-10 -42 -13 -84.167 -9 -126.5s14.667 -78.833 32 -109.5c20 -35.333 50.667 -62.333 92 -81s84.666 -26.334 129.999 -23.001c45.333 2.66699 84.666 16.334 117.999 41.001c36 26.667 62 73.334 78 140.001
c7.33301 32.667 10.666 74.667 9.99902 126zM552.001 532.998l4.00391 -38.9961c1.33301 -18 2.33301 -32.333 3 -43c2.66699 -42.667 4.33398 -74 5.00098 -94c9.33301 -126.667 20.666 -224.334 33.999 -293.001c0.666992 -6 -0.666016 -11.5 -3.99902 -16.5s-8 -8 -14 -9
s-11.5 0.166992 -16.5 3.5s-8.16699 8 -9.5 14c-6.66699 34 -12.334 71 -17.001 111c-18.667 -50 -45 -88 -79 -114c-38.667 -28.667 -84.834 -45 -138.501 -49s-105.167 5.16699 -154.5 27.5s-86.333 55.166 -111 98.499c-20.667 36.667 -33.334 79.167 -38.001 127.5
s-1.33398 95.166 9.99902 140.499c10.667 48 28 92.5 52 133.5s53.333 73.5 88 97.5c28 19.333 60.667 32.666 98 39.999s74.333 8 111 2c66 -10 117 -36.667 153 -80c2 0 4 -0.333008 6 -1c7.33301 -2 12.666 -7 15.999 -15c1.33301 -4 2 -9 2 -15v-7v-1
c2.66699 -6 2.66699 -12.333 0 -19z" />
    <glyph glyph-name="b" unicode="b" 
d="M278 371c-21.333 -9.33301 -40.668 -17.3291 -58.001 -23.9961c-19.333 -8 -35.666 -13.667 -48.999 -17c-16.667 -4.66699 -29.334 -6.66699 -38.001 -6c-3.33301 0.666992 -6.33301 1.66699 -9 3c-4 2 -7.33301 5 -10 9c0.666992 -26.667 1 -59.334 1 -98.001
c0 -13.333 -0.333008 -35.333 -1 -66s-0.833984 -57 -0.500977 -79s1.83301 -43 4.5 -63c0 5.33301 2 10 6 14c4.66699 4.66699 10 7 16 7c36 0 61.833 0.166992 77.5 0.5s37.5 1.66602 65.5 3.99902s52.667 6.16602 74 11.499c64.667 16.667 115.667 44 153 82
c42.667 43.333 54 91.666 34 144.999c-15.333 42 -49.333 68.333 -102 79c-37.333 7.33301 -88.666 7 -153.999 -1c-3.33301 0 -6.66602 -0.333008 -9.99902 -1zM265.998 413.004l61.001 29.001c45.333 22 84.666 43 117.999 63c17.333 10 31.333 19 42 27
c10 7.33301 16 12.333 18 15c3.33301 5.33301 4.66602 12 3.99902 20s-3.66699 15.333 -9 22c-27.333 36 -89.666 52 -186.999 48c-33.333 -2 -74.666 -6.33301 -123.999 -13c-64 -8.66699 -96.333 -13 -97 -13c12.667 -72.667 20 -157.334 22 -254.001l4 6
c1.33301 1.33301 3 2.33301 5 3c2.66699 2 7 4.33301 13 7c8.66699 4 20.667 8.66699 36 14c39.333 13.333 70.666 22 93.999 26zM117.999 26.0049c0 -4.66699 -1.33203 -8.66895 -3.99902 -12.002c-4 -5.33301 -9 -8.33301 -15 -9s-11.5 0.833008 -16.5 4.5
s-7.83301 8.5 -8.5 14.5c-2.66699 21.333 -4.16699 43.666 -4.5 66.999s-0.166016 50.833 0.500977 82.5s1 53.167 1 64.5c0 94.667 -2.33301 176 -7 244s-15 135.667 -31 203c-2 6 -1.33301 11.5 2 16.5s8 8.33301 14 10s11.5 0.833984 16.5 -2.49902s8.16699 -8 9.5 -14
c3.33301 -13.333 6.33301 -27 9 -41c5.33301 0.666992 38.333 5.33398 99 14.001c50.667 6.66699 93.334 11 128.001 13c112.667 4.66699 187.667 -17.333 225 -66c9.33301 -12.667 15 -27.167 17 -43.5s-2 -32.5 -12 -48.5c-4.66699 -8 -14 -17 -28 -27l-45 -29l-82 -45
c23.333 0 44.666 -2 63.999 -6c69.333 -13.333 114.666 -48.666 135.999 -105.999c25.333 -71.333 10.333 -135.333 -45 -192c-42.667 -44 -100.667 -75 -174 -93c-22.667 -6 -49.167 -10.333 -79.5 -13s-53.333 -4.16699 -69 -4.5s-41.834 -0.5 -78.501 -0.5
c-6 0 -11.333 2.33301 -16 7c-3.33301 3.33301 -5.33301 7.33301 -6 12z" />
    <glyph glyph-name="c" unicode="c" horiz-adv-x="586" 
d="M485 433c-2.66699 32.667 -14.665 64.6689 -35.998 96.002s-48 57 -80 77c-33.333 20 -66.666 31 -99.999 33s-65.333 -7 -96 -27c-51.333 -35.333 -87.666 -90 -108.999 -164s-24.333 -144 -9 -210c13.333 -54 43.666 -99.667 90.999 -137c46 -36.667 98 -59 156 -67
c58.667 -8 108 0.666992 148 26c44 28 70.333 72.333 79 133c6.66699 47.333 4.33398 88.666 -6.99902 123.999c-2 6 -1.5 11.667 1.5 17s7.33301 9 13 11s11.167 1.5 16.5 -1.5s9 -7.16699 11 -12.5c13.333 -42.667 16.333 -90.667 9 -144
c-10.667 -74.667 -44 -129.334 -100 -164.001c-49.333 -31.333 -108.333 -42.333 -177 -33c-65.333 8.66699 -125.333 34.667 -180 78c-54 42.667 -88.333 96 -103 160c-9.33301 33.333 -12.833 70.333 -10.5 111s8.5 79.834 18.5 117.501s26 73.834 48 108.501
s48 62.334 78 83.001c25.333 17.333 52.666 28.166 81.999 32.499s57.5 3 84.5 -4s53.167 -18.167 78.5 -33.5c37.333 -23.333 68.666 -53.333 93.999 -90s39.666 -75.334 42.999 -116.001c0.666992 -6 -1 -11.333 -5 -16s-9 -7.33398 -15 -8.00098s-11.333 1 -16 5
s-7.33398 9 -8.00098 15z" />
    <glyph glyph-name="d" unicode="d" horiz-adv-x="569" 
d="M89 25c2 0.666992 4.33594 1.00391 7.00293 1.00391c121.333 0 219.333 26.667 294 80c83.333 59.333 125 145 125 257c0 33.333 -5.83301 67.166 -17.5 101.499s-27.834 65.5 -48.501 93.5c-17.333 24 -42.833 47.833 -76.5 71.5s-69.167 42.5 -106.5 56.5
c-84.667 31.333 -149.334 28 -194.001 -10c5.33301 -24.667 8.83301 -50.334 10.5 -77.001s2.66699 -58.334 3 -95.001s0.833008 -61 1.5 -73c1.33301 -40.667 2.16602 -82.334 2.49902 -125.001s0.333008 -94.167 0 -154.5s-0.5 -101.833 -0.5 -124.5v-2zM54.0029 717.004
c56.667 41.333 132.337 44.668 227.004 10.001c41.333 -15.333 80.5 -36 117.5 -62s65.833 -53 86.5 -81c22.667 -31.333 40.667 -66.333 54 -105s20 -77.334 20 -116.001c0 -127.333 -47.667 -225 -143 -293c-82.667 -58.667 -189.334 -88 -320.001 -88
c-6 0 -11.167 2.16699 -15.5 6.5s-6.5 9.5 -6.5 15.5v2c-2 -0.666992 -4.33301 -1 -7 -1c-6 0 -11.167 2.16699 -15.5 6.5s-6.5 9.5 -6.5 15.5c0 22.667 0.166992 64 0.5 124s0.333008 111.333 0 154s-1.16602 84 -2.49902 124c-0.666992 22 -1 44.333 -1 67
c-0.666992 28 -1.33398 50.833 -2.00098 68.5s-2.33398 38.334 -5.00098 62.001s-6.33398 45.167 -11.001 64.5c-2 6 -1.33301 11.667 2 17s7.66602 8.66602 12.999 9.99902s10.333 1 15 -1z" />
    <glyph glyph-name="e" unicode="e" horiz-adv-x="585" 
d="M479 313v3.00195c2 30.667 -3.16699 66 -15.5 106s-29.5 76.667 -51.5 110c-24 36 -51.167 62.667 -81.5 80s-61.833 22.333 -94.5 15c-22 -4.66699 -43.167 -15.334 -63.5 -32.001s-41.5 -38.334 -63.5 -65.001c-44 -52 -67 -111 -69 -177
c-0.666992 -21.333 1 -42.333 5 -63l234 12l149 8l49 3h2zM56 247.002c16 -43.333 41.5 -79.501 76.5 -108.501s74.167 -48.167 117.5 -57.5c28 -7.33301 56.667 -9 86 -5s56.5 12 81.5 24s47.667 30.167 68 54.5s35.833 53.5 46.5 87.5c2 5.33301 5.66699 9.5 11 12.5
s10.833 3.5 16.5 1.5s10 -5.66699 13 -11s3.5 -11 1.5 -17c-12.667 -39.333 -31.167 -73.5 -55.5 -102.5s-51.333 -50.5 -81 -64.5s-61.667 -23.5 -96 -28.5s-67.833 -3.16699 -100.5 5.5c-34 7.33301 -65.833 19.833 -95.5 37.5s-56 39.667 -79 66s-40.833 58 -53.5 95
s-18.334 76.5 -17.001 118.5c2.66699 75.333 29 143 79 203c15.333 18 29 33.167 41 45.5s28.333 25.5 49 39.5s41 23.333 61 28c44.667 9.33301 86 3 124 -19s70.667 -53.667 98 -95c24.667 -37.333 43.834 -78.166 57.501 -122.499s19.5 -84.5 17.5 -120.5v-3v-8
c0 -11.333 -3.33301 -20 -10 -26c-2 -2 -4.66699 -3.66699 -8 -5c-0.666992 0 -1.5 -0.166992 -2.5 -0.5s-1.83301 -0.5 -2.5 -0.5c-1.33301 0 -3 -0.333008 -5 -1c-3.33301 0 -8.33301 -0.333008 -15 -1l-49 -3l-149 -8z" />
    <glyph glyph-name="f" unicode="f" horiz-adv-x="391" 
d="M112 19c2.66699 59.333 -3.66797 146.667 -19.001 262c-16.667 126.667 -25.334 216.334 -26.001 269.001c0 3.33301 -0.333008 9.33301 -1 18s-1.66699 20.167 -3 34.5s-2.33301 26.5 -3 36.5c-2 22.667 -3 40.667 -3 54v20c0 3.33301 0.333008 6.33301 1 9
c1.33301 5.33301 3.33301 9.66602 6 12.999c5.33301 6.66699 14.333 12 27 16c8.66699 3.33301 19.667 6 33 8c21.333 4 50 7.33301 86 10c20.667 1.33301 48.334 2.83301 83.001 4.5s56 2.83398 64 3.50098c6 0.666992 11.333 -1 16 -5s7.33398 -9 8.00098 -15
s-1 -11.333 -5 -16s-9 -7.33398 -15 -8.00098c-7.33301 -0.666992 -28.666 -1.83398 -63.999 -3.50098s-63.333 -3.16699 -84 -4.5c-34.667 -2.66699 -62 -5.66699 -82 -9c-10.667 -2 -19.334 -4 -26.001 -6l-4 -2v-14c0 -12.667 1 -30 3 -52
c0.666992 -10 1.66699 -22.333 3 -37s2.33301 -26.667 3 -36s1 -15.666 1 -18.999c0.666992 -46 5.33398 -102.667 14.001 -170c17.333 0 45 0.333008 83 1s67 1 87 1c6 0 11.167 -2.16699 15.5 -6.5s6.5 -9.5 6.5 -15.5s-2.16699 -11.167 -6.5 -15.5s-9.5 -6.5 -15.5 -6.5
c-20 0 -48.5 -0.333008 -85.5 -1s-63.167 -1 -78.5 -1l6 -49c15.333 -114.667 21.666 -204.667 18.999 -270c0 -6 -2.33301 -11 -7 -15s-10 -6 -16 -6s-11 2.33301 -15 7s-6 10 -6 16z" />
    <glyph glyph-name="g" unicode="g" horiz-adv-x="547" 
d="M484 362l-3.00098 28.998c0 2 -0.333008 8 -1 18l-4 36c-1.33301 14 -2.33301 27.333 -3 40c-2 24 -3.33301 42.667 -4 56v7c-15.333 18.667 -32.833 33 -52.5 43s-44.167 18.667 -73.5 26c-69.333 16 -128.666 9 -177.999 -21c-23.333 -14 -45 -34.667 -65 -62
c-20 -28 -35.333 -58.667 -46 -92c-24.667 -73.333 -23 -134.666 5 -183.999c19.333 -34 44 -62.167 74 -84.5s61.333 -37 94 -44s66.167 -5.16699 100.5 5.5s64.833 30.334 91.5 59.001c35.333 38 57 94 65 168zM488.999 590.998
c3.33301 0.666992 7 0.658203 11 -0.00878906c7.33301 -2 12.333 -6.66699 15 -14c2 -4 3 -9 3 -15v-6c0 -2 -0.166992 -3.16699 -0.5 -3.5s-0.166016 -0.833008 0.500977 -1.5c8.66699 -43.333 13 -81.666 13 -114.999c0 -27.333 -1 -52 -3 -74
c6 -69.333 9.33301 -125 10 -167c1.33301 -96.667 -8.33398 -163.667 -29.001 -201c-5.33301 -10 -11.5 -18.5 -18.5 -25.5s-15.333 -13.167 -25 -18.5s-17.167 -9.16602 -22.5 -11.499s-14 -5.83301 -26 -10.5c-6 -2 -11.833 -1.66699 -17.5 1s-9.5 6.83398 -11.5 12.501
s-1.66699 11.334 1 17.001s6.66699 9.5 12 11.5l32 12c6.66699 2.66699 13.5 6.83398 20.5 12.501s12.833 12.834 17.5 21.501c16.667 30 24.334 89.667 23.001 179c0 9.33301 -0.333008 19.333 -1 30c-11.333 -23.333 -25.333 -43.666 -42 -60.999
c-32.667 -35.333 -69.834 -59.333 -111.501 -72s-82 -14.5 -121 -5.5s-76.167 26.5 -111.5 52.5s-64 58.333 -86 97c-17.333 30.667 -26.5 66.334 -27.5 107.001s5.16699 78.334 18.5 113.001c12.667 38 30.334 72.833 53.001 104.5s48.667 56.167 78 73.5
c59.333 36 129.333 44.333 210 25c59.333 -13.333 104.666 -36 135.999 -68z" />
    <glyph glyph-name="h" unicode="h" horiz-adv-x="606" 
d="M23 358c-0.666992 10 -1.33594 18.9941 -2.00293 26.9941c-0.666992 14 -1 33.333 -1 58s-0.166992 44.334 -0.5 59.001s-2.16602 31.834 -5.49902 51.501s-8 37.5 -14 53.5c-2.66699 5.33301 -2.83398 10.833 -0.500977 16.5s6.33301 9.66699 12 12
s11.334 2.33301 17.001 0s9.5 -6.5 11.5 -12.5c15.333 -36 23.333 -83.667 24 -143c9.33301 14.667 20 28.334 32 41.001c35.333 34.667 76.666 59.667 123.999 75c47.333 16 94.666 20.667 141.999 14c49.333 -6.66699 93 -25 131 -55s65 -70.667 81 -122
c12 -39.333 19.167 -80.666 21.5 -123.999s1.83301 -94.833 -1.5 -154.5s-5 -99.5 -5 -119.5c0 -6 -2.16699 -11.167 -6.5 -15.5s-9.5 -6.5 -15.5 -6.5s-11.167 2.16699 -15.5 6.5s-6.5 9.5 -6.5 15.5c0 24.667 1.66699 65.834 5 123.501s4 106.5 2 146.5
s-8.66699 78.667 -20 116c-13.333 42 -35.5 75.333 -66.5 100s-67.5 40 -109.5 46c-40 5.33301 -80.667 1.16602 -122 -12.501s-76.666 -35.5 -105.999 -65.5c-32 -31.333 -52.333 -75.333 -61 -132c0 -6 1.33301 -24.333 4 -55c3.33301 -38.667 5 -67.667 5 -87
c0 -10 1.66699 -44.333 5 -103c0 -1.33301 1.33301 -16.333 4 -45c0.666992 -10 1.33398 -17.333 2.00098 -22v-9l-2 -8c-2 -6 -6 -10 -12 -12c-9.33301 -4 -17.666 -2.66699 -24.999 4c-4 4 -7 10 -9 18c-1.33301 4.66699 -2.66602 10.667 -3.99902 18
c-2 11.333 -3.66699 26.333 -5 45c-1.33301 10.667 -2.5 24.834 -3.5 42.501s-1.83301 27.834 -2.5 30.501c-8.66699 72.667 -9 134 -1 184z" />
    <glyph glyph-name="i" unicode="i" horiz-adv-x="161" 
d="M117 669c5.33301 -18.667 9.50098 -40.002 12.501 -64.002s5 -42.667 6 -56s2 -36.166 3 -68.499s1.5 -50.833 1.5 -55.5c7.33301 -191.333 11 -325.666 11 -402.999c0 -6 -2.16699 -11.167 -6.5 -15.5s-9.5 -6.5 -15.5 -6.5s-11.167 2.16699 -15.5 6.5
s-6.5 9.5 -6.5 15.5c0 77.333 -3.66699 211 -11 401c0 6.66699 -0.5 25.834 -1.5 57.501s-1.83301 53.667 -2.5 66s-2.5 29.666 -5.5 51.999s-6.83301 41.833 -11.5 58.5c-2 6 -1.5 11.667 1.5 17s7.5 8.83301 13.5 10.5s11.667 1 17 -2s8.66602 -7.5 9.99902 -13.5z
M98.001 742.998c0 -6 -2.16699 -11.167 -6.5 -15.5s-9.5 -6.5 -15.5 -6.5s-11.167 2.16699 -15.5 6.5s-6.5 9.5 -6.5 15.5s2.16699 11.167 6.5 15.5s9.5 6.5 15.5 6.5s11.167 -2.16699 15.5 -6.5s6.5 -9.5 6.5 -15.5z" />
    <glyph glyph-name="j" unicode="j" horiz-adv-x="374" 
d="M309 752c24.667 -54.667 41.666 -160.002 50.999 -316.002c9.33301 -154 5.66602 -261.667 -11.001 -323c-13.333 -51.333 -34.666 -86.333 -63.999 -105c-27.333 -18.667 -58.333 -21.334 -93 -8.00098c-28.667 10.667 -55.5 30.5 -80.5 59.5s-43.833 60.833 -56.5 95.5
c-2 6 -1.66699 11.833 1 17.5s6.83398 9.5 12.501 11.5s11.334 1.66699 17.001 -1s9.5 -6.66699 11.5 -12c10.667 -30 26.334 -57.167 47.001 -81.5s42 -40.5 64 -48.5c20 -8 37.667 -7 53 3c19.333 13.333 34.666 40.333 45.999 81c15.333 55.333 18.333 158.333 9 309
c-9.33301 151.333 -25 251.333 -47 300c-2.66699 5.33301 -2.83398 10.833 -0.500977 16.5s6.16602 9.83398 11.499 12.501s10.833 2.83398 16.5 0.500977s9.83398 -6.16602 12.501 -11.499z" />
    <glyph glyph-name="k" unicode="k" horiz-adv-x="521" 
d="M162 248c84.667 3.33301 195.668 -15.332 333.001 -55.999c6 -1.33301 10.5 -4.83301 13.5 -10.5s3.66699 -11.334 2 -17.001s-5.33398 -10 -11.001 -13s-11.167 -3.5 -16.5 -1.5c-144.667 42.667 -259 60 -343 52c2 -52 3 -107.667 3 -167
c0 -6 -2.16699 -11.167 -6.5 -15.5s-9.5 -6.5 -15.5 -6.5s-11.167 2.16699 -15.5 6.5s-6.5 9.5 -6.5 15.5c0 66.667 -1.33301 129 -4 187c-2.66699 6 -3 12 -1 18c-8 167.333 -26.333 291.333 -55 372c-2 5.33301 -1.66699 10.833 1 16.5s6.83398 9.5 12.501 11.5
s11.334 1.66699 17.001 -1s9.5 -7 11.5 -13c27.333 -76.667 45.666 -190.667 54.999 -342c18 19.333 46.333 51.666 85 96.999c53.333 62.667 95.333 107.667 126 135c4.66699 4 10 5.83301 16 5.5s11 -2.66602 15 -6.99902s5.83301 -9.5 5.5 -15.5s-2.5 -11 -6.5 -15
c-30.667 -28 -71.334 -71.667 -122.001 -131c-43.333 -50.667 -74.333 -85.667 -93 -105z" />
    <glyph glyph-name="l" unicode="l" horiz-adv-x="311" 
d="M100 586c6.66699 -21.333 12.666 -44.5 17.999 -69.5s9.5 -46.333 12.5 -64s6.16699 -41.667 9.5 -72s5.5 -51.833 6.5 -64.5s2.66699 -36.834 5 -72.501s3.83301 -57.167 4.5 -64.5c0 -1.33301 1.66699 -19.333 5 -54c2 -22 3 -40.667 3 -56
c0 -1.33301 -0.333008 -3.33301 -1 -6h4c9.33301 -1.33301 22.333 -2 39 -2c11.333 0.666992 25.666 1.16699 42.999 1.5s27.333 0.5 30 0.5c6 0 11.167 -2.16699 15.5 -6.5s6.5 -9.5 6.5 -15.5s-2.16699 -11.167 -6.5 -15.5s-9.5 -6.5 -15.5 -6.5
c-2.66699 0 -12.5 -0.166992 -29.5 -0.5s-31.5 -0.833008 -43.5 -1.5c-17.333 0 -31.666 0.666992 -42.999 2c-6.66699 0.666992 -12.667 1.33398 -18 2.00098c-8 2 -14 5 -18 9c-8 7.33301 -11 17.333 -9 30c0.666992 4 1.33398 6.66699 2.00098 8v1c0 14 -1 31.333 -3 52
c-3.33301 34.667 -5 52.667 -5 54c-0.666992 8 -2.16699 30 -4.5 66s-4 60 -5 72s-3 32.833 -6 62.5s-6 53 -9 70s-7 37.333 -12 61s-10.833 45.5 -17.5 65.5c-2 6 -1.5 11.667 1.5 17s7.33301 9 13 11s11.167 1.5 16.5 -1.5s9 -7.16699 11 -12.5z" />
    <glyph glyph-name="m" unicode="m" horiz-adv-x="779" 
d="M358 470c-26 88 -69.3311 131.999 -129.998 131.999c-41.333 0 -73.666 -12.333 -96.999 -37c-15.333 -16 -27.333 -38.333 -36 -67c2 -28 3.16699 -56.833 3.5 -86.5s0.333008 -66.5 0 -110.5s-0.5 -70.333 -0.5 -79v-128c0 -2 0.166992 -6.5 0.5 -13.5
s0.666016 -15.333 0.999023 -25s0.833008 -17.834 1.5 -24.501v-28c0 -1.33301 -0.333008 -2.66602 -1 -3.99902c-0.666992 -2.66699 -1.66699 -5 -3 -7c-6.66699 -8.66699 -14.667 -11.667 -24 -9c-6 1.33301 -10.333 4.66602 -13 9.99902
c-1.33301 1.33301 -2 2.66602 -2 3.99902c-0.666992 1.33301 -1 2.66602 -1 3.99902c-0.666992 2.66699 -1.66699 7.66699 -3 15c-4.66699 36 -9.33398 104.333 -14.001 205c0 2 -0.833008 15.833 -2.5 41.5s-2.5 44 -2.5 55s-0.166992 27.5 -0.5 49.5s0.5 42 2.5 60
s4.66699 35.333 8 52c1.33301 8 3 16 5 24c-2.66699 38.667 -7.33398 73 -14.001 103c-1.33301 6 -0.5 11.5 2.5 16.5s7.5 8.16699 13.5 9.5s11.5 0.5 16.5 -2.5s8.16699 -7.5 9.5 -13.5l8 -37c4 6 8.33301 11.667 13 17c32 33.333 75 50 129 50
c64.667 0 114 -33.667 148 -101l4 10c14 31.333 36.333 56.333 67 75s64 29.667 100 33c36.667 2.66699 71 -3.33301 103 -18s56.667 -38 74 -70c34.667 -66.667 49.334 -159.334 44.001 -278.001c-0.666992 -23.333 -2.33398 -49.166 -5.00098 -77.499
s-5 -50.166 -7 -65.499s-5.5 -40.5 -10.5 -75.5s-7.83301 -55.167 -8.5 -60.5c-0.666992 -6 -3.5 -10.833 -8.5 -14.5s-10.5 -5.16699 -16.5 -4.5s-10.833 3.5 -14.5 8.5s-5.16699 10.5 -4.5 16.5c1.33301 6.66699 4.33301 26.5 9 59.5s8 57.5 10 73.5
s4.33301 37.833 7 65.5s4.33398 53.167 5.00098 76.5c4.66699 110.667 -8.66602 196 -39.999 256c-11.333 22.667 -29.166 39.5 -53.499 50.5s-50.833 15.5 -79.5 13.5c-29.333 -2.66699 -55.833 -11.167 -79.5 -25.5s-40.834 -33.166 -51.501 -56.499
c-8 -17.333 -13.667 -38.333 -17 -63c1.33301 -5.33301 2.66602 -10.333 3.99902 -15c3.33301 -13.333 6.33301 -27 9 -41s4.66699 -28.667 6 -44l5 -40c1.33301 -12 2.33301 -26 3 -42l2 -37l1 -35c0.666992 -16 1 -25.333 1 -28c0.666992 -22.667 0 -59.667 -2 -111
c-0.666992 -23.333 -1.33398 -39.666 -2.00098 -48.999c-0.666992 -6.66699 -1 -11.667 -1 -15c-0.666992 -2 -1 -3.66699 -1 -5v-3c-0.666992 -0.666992 -1 -1.66699 -1 -3l-2 -4c-3.33301 -5.33301 -8 -8.66602 -14 -9.99902c-7.33301 -2 -14 -1.33301 -20 2
s-10.333 8.33301 -13 15c-2 5.33301 -2.66699 12.666 -2 21.999c0 2.66699 0.666992 8.33398 2 17.001c0.666992 6 1 9.66699 1 11c-2.66699 70.667 -4.66699 114 -6 130l-8 77c-4.66699 44 -7.66699 78.667 -9 104c-2 38 -1.33301 71.333 2 100z" />
    <glyph glyph-name="n" unicode="n" horiz-adv-x="571" 
d="M54 388c-7.33301 85.333 -17.001 153.33 -29.001 203.997c-2 6 -1.33301 11.5 2 16.5s8 8.33301 14 10s11.5 0.833984 16.5 -2.49902s8.16699 -8 9.5 -14c8.66699 -34 15.667 -72 21 -114c14.667 25.333 36.834 47.666 66.501 66.999s62.5 34 98.5 44
c32 10.667 66.667 15 104 13s68.666 -11.667 93.999 -29c18.667 -12 37.667 -34.333 57 -67c35.333 -60 53 -138 53 -234c0 -26.667 -1.66699 -66.334 -5 -119.001s-5 -90.334 -5 -113.001c0 -6 -2.16699 -11.167 -6.5 -15.5s-9.5 -6.5 -15.5 -6.5
s-11.167 2.16699 -15.5 6.5s-6.5 9.5 -6.5 15.5c0 24.667 1.66699 63.334 5 116.001s5 91.334 5 116.001c0 88 -15.667 158.667 -47 212c-16 26.667 -30.333 44.334 -43 53.001c-18.667 12 -42.667 18.833 -72 20.5s-59.333 -1.83301 -90 -10.5
c-31.333 -9.33301 -59.5 -22 -84.5 -38s-43.167 -33.667 -54.5 -53c-13.333 -23.333 -22.666 -49.666 -27.999 -78.999c6.66699 -82 11.334 -132.667 14.001 -152c8.66699 -74.667 13.334 -116.667 14.001 -126c0 -2 0.333008 -4.5 1 -7.5s1.66699 -6.83301 3 -11.5l2 -13
c2 -9.33301 2.66699 -16.333 2 -21c-1.33301 -11.333 -7.33301 -18.333 -18 -21c-8 -2 -15.667 0 -23 6c-5.33301 4.66699 -9.33301 11.667 -12 21c-1.33301 5.33301 -2.66602 12 -3.99902 20c-0.666992 4.66699 -1.33398 10.667 -2.00098 18
c-0.666992 6 -1.33398 9.66699 -2.00098 11c0 2 -1.33301 10.167 -4 24.5s-4.33398 23.166 -5.00098 26.499s-2 11.833 -4 25.5s-3.33301 23.334 -4 29.001s-1.83398 14.834 -3.50098 27.501s-2.66699 22.5 -3 29.5s-0.666016 16.333 -0.999023 28s-0.333008 21.667 0 30
s0.833008 17.5 1.5 27.5s2 19.667 4 29zM122.999 75.9971v-2v2z" />
    <glyph glyph-name="o" unicode="o" horiz-adv-x="550" 
d="M173 567c-28 -10.667 -52.3311 -34.332 -72.998 -70.999c-20 -36.667 -34.333 -81 -43 -133c-8.66699 -50 -10.334 -97.667 -5.00098 -143c4.66699 -46 15 -81.333 31 -106c23.333 -34.667 65.333 -58.334 126 -71.001c55.333 -12 103.666 -10.333 144.999 5
c51.333 18.667 89 51 113 97s33 97.667 27 155c-5.33301 57.333 -24.333 110 -57 158s-75 81.667 -127 101c-50 19.333 -95.667 22 -137 8zM158.002 609.002c52 17.333 107.999 14.666 167.999 -8.00098c60.667 -23.333 109.667 -62.333 147 -117s59 -114.334 65 -179.001
c4 -42.667 1 -83.167 -9 -121.5s-28.667 -73.666 -56 -105.999s-61.666 -56.166 -102.999 -71.499c-50 -18 -107 -20.333 -171 -7c-71.333 15.333 -122 45.666 -152 90.999c-20.667 30 -33.667 71.667 -39 125c-6 52.667 -4.33301 104.334 5 155.001
c10.667 57.333 27.667 107.333 51 150c24 44 55 73.333 93 88z" />
    <glyph glyph-name="p" unicode="p" horiz-adv-x="645" 
d="M132 107c4.66699 2.66699 9.66699 3.6709 15 3.00391c74.667 -13.333 142.334 -15 203.001 -5c41.333 6.66699 78.333 19 111 37s58.5 39 77.5 63s33 49.667 42 77s12.5 54.666 10.5 81.999s-9.33301 53 -22 77s-30.334 45.333 -53.001 64s-52 32.334 -88 41.001
c-36 9.33301 -76.667 11.666 -122 6.99902c-34.667 -3.33301 -68.667 -11 -102 -23c-34 -12.667 -62.667 -28.334 -86 -47.001c-3.33301 -2.66699 -7.33301 -4.33398 -12 -5.00098c2 -12 3.83301 -24.333 5.5 -37s3.16699 -26.334 4.5 -41.001s2.5 -26.667 3.5 -36
s1.83301 -23 2.5 -41s1.16699 -30 1.5 -36s0.833008 -19.333 1.5 -40s1 -32.667 1 -36c0.666992 -24 2.66699 -58.667 6 -104zM135 67.0039c3.33301 -45.333 5 -82.9971 5 -112.997c0 -6 -2.16699 -11.167 -6.5 -15.5s-9.5 -6.5 -15.5 -6.5s-11.167 2.16699 -15.5 6.5
s-6.5 9.5 -6.5 15.5c0 29.333 -2 71.333 -6 126c-4.66699 64 -7.33398 107 -8.00098 129c0 4 -0.333008 15.333 -1 34s-1.16699 30.667 -1.5 36s-0.833008 16.5 -1.5 33.5s-1.33398 28.833 -2.00098 35.5s-1.5 17.667 -2.5 33s-2 27.166 -3 35.499s-2.5 19.166 -4.5 32.499
s-4 24.666 -6 33.999l-7 31c-2.66699 12 -5.66699 23.333 -9 34c-2 5.33301 -1.5 10.666 1.5 15.999s7.33301 9 13 11s11.167 1.5 16.5 -1.5s9 -7.5 11 -13.5c4 -12 7.33301 -24.667 10 -38c27.333 20.667 59.5 37.5 96.5 50.5s73.5 21.167 109.5 24.5
c50 4.66699 95.833 1.83398 137.5 -8.49902s76.167 -26.5 103.5 -48.5s48.833 -47.833 64.5 -77.5s24.834 -61.5 27.501 -95.5c3.33301 -45.333 -4.66699 -89 -24 -131s-51 -79.167 -95 -111.5s-96.667 -53.5 -158 -63.5c-66 -10.667 -139 -9 -219 5
c-1.33301 0.666992 -2.66602 1 -3.99902 1z" />
    <glyph glyph-name="q" unicode="q" horiz-adv-x="640" 
d="M310 666c-6.66699 -3.33301 -12.9961 -3.33398 -18.9961 -0.000976562c-4.66699 2 -9.33398 3.66699 -14.001 5c-6.66699 0.666992 -13.334 1 -20.001 1c-2.66699 0 -5.33398 0.333008 -8.00098 1c-26 -2 -54 -17.333 -84 -46c-37.333 -34.667 -69 -79 -95 -133
c-24 -50 -36 -116 -36 -198c0 -96.667 29.333 -167.667 88 -213c55.333 -42.667 132.666 -59.667 231.999 -51c46.667 4 86.334 15.333 119.001 34c-10 6.66699 -24 15 -42 25c-5.33301 2.66699 -8.83301 7 -10.5 13s-1 11.667 2 17s7.5 8.83301 13.5 10.5
s11.667 0.833984 17 -2.49902c25.333 -14.667 44.666 -26.667 57.999 -36c16.667 14.667 30.667 31.667 42 51c34.667 60 43 132.667 25 218c-16 74 -48.333 139.833 -97 197.5s-105.667 93.167 -171 106.5zM511.004 37.999c-42 -28 -92.998 -44.668 -152.998 -50.001
c-110 -10 -197.333 10 -262 60c-70.667 54 -106 136.667 -106 248c0 89.333 13.333 162 40 218c28 58 63 106.333 105 145c51.333 48.667 101 67.334 149 56.001c56 -5.33301 108.167 -25.333 156.5 -60s87.5 -76.667 117.5 -126s51 -102 63 -158c20 -96 10 -179 -30 -249
c-12 -20.667 -27 -39.334 -45 -56.001c8 -7.33301 15.333 -15 22 -23c4 -4.66699 5.66699 -10 5 -16s-3.33398 -11 -8.00098 -15s-10 -5.66699 -16 -5s-11 3.33398 -15 8.00098c-6.66699 8 -14.334 15.667 -23.001 23z" />
    <glyph glyph-name="r" unicode="r" horiz-adv-x="472" 
d="M59 447c-3.33301 82.667 -11.3311 142.339 -23.998 179.006c-2 5.33301 -1.66699 10.833 1 16.5s6.83398 9.5 12.501 11.5s11.334 1.66699 17.001 -1s9.5 -7 11.5 -13c8 -22.667 14 -52.334 18 -89.001c17.333 24 41 44.833 71 62.5s61.667 30.167 95 37.5
c32.667 9.33301 67.5 10.666 104.5 3.99902s67.167 -22.334 90.5 -47.001c4 -4.66699 6 -10 6 -16s-2.33301 -11 -7 -15s-10 -6 -16 -6s-11 2.33301 -15 7c-16.667 17.333 -38.667 28.666 -66 33.999c-28 5.33301 -57 4.33301 -87 -3c-30.667 -7.33301 -59 -19 -85 -35
s-45.667 -34 -59 -54c-10.667 -16.667 -18.334 -39 -23.001 -67c-0.666992 -2 -1 -4.33301 -1 -7v-15c0.666992 -32.667 1 -58.167 1 -76.5s-0.166992 -42.333 -0.5 -72s-0.5 -49.834 -0.5 -60.501c0 -28 -1 -69.333 -3 -124v-14c0 -6 0.166992 -13.167 0.5 -21.5
s0.5 -14.833 0.5 -19.5c0.666992 -12 0.666992 -20.333 0 -25c-0.666992 -3.33301 -2 -6.33301 -4 -9c-2.66699 -4.66699 -6.33398 -8 -11.001 -10c-8 -2.66699 -15 -1.66699 -21 3c-4 2 -7 5.33301 -9 10c-0.666992 2 -1.33398 4.33301 -2.00098 7
c-3.33301 10.667 -5.33301 38 -6 82c-0.666992 34.667 -0.333984 79.667 0.999023 135c2.66699 103.333 6 173.666 10 210.999z" />
    <glyph glyph-name="s" unicode="s" horiz-adv-x="553" 
d="M431 472c5.33301 26.667 1.8291 52.1738 -10.5039 76.5068s-30.833 45.166 -55.5 62.499s-51.667 29.666 -81 36.999c-30 6.66699 -58.333 7.33398 -85 2.00098c-34.667 -6.66699 -69.334 -29.334 -104.001 -68.001c-32.667 -36.667 -52 -73.667 -58 -111
c-5.33301 -32.667 1.66699 -56 21 -70c18 -13.333 47.667 -21.333 89 -24c22.667 -1.33301 63.334 0 122.001 4c51.333 3.33301 85.333 3.66602 102 0.999023c28.667 -4.66699 56 -16.167 82 -34.5s46.333 -39.833 61 -64.5c18.667 -32 28.334 -63 29.001 -93
c0.666992 -51.333 -18.833 -94.666 -58.5 -129.999s-87.167 -57 -142.5 -65c-36 -5.33301 -70.667 -4 -104 4c-34 8 -65.5 24.833 -94.5 50.5s-49.5 58.834 -61.5 99.501c-2 5.33301 -1.5 10.666 1.5 15.999s7.33301 9 13 11s11.167 1.5 16.5 -1.5s9 -7.5 11 -13.5
c14.667 -47.333 41.667 -81.333 81 -102c38.667 -20.667 82.334 -27.334 131.001 -20.001c46.667 6.66699 85.667 24 117 52s46.666 61 45.999 99c-0.666992 21.333 -8.33398 45 -23.001 71c-11.333 19.333 -27.333 36.166 -48 50.499s-41.667 23.166 -63 26.499
c-14 2.66699 -45 2.33398 -93 -0.999023c-57.333 -4 -99.666 -5.33301 -126.999 -4c-50 3.33301 -87.667 14 -113 32c-34 25.333 -47 63.333 -39 114c7.33301 45.333 30.666 89.666 69.999 132.999c40.667 45.333 83.334 72.666 128.001 81.999
c32.667 6 66.834 4.83301 102.501 -3.5s67.834 -22.833 96.501 -43.5c31.333 -22 55 -48.833 71 -80.5s20.667 -65.834 14 -102.501c-1.33301 -6 -4.5 -10.667 -9.5 -14s-10.5 -4.5 -16.5 -3.5s-10.667 4 -14 9s-4.66602 10.5 -3.99902 16.5z" />
    <glyph glyph-name="t" unicode="t" horiz-adv-x="280" 
d="M107 484l-72 -2c-6 0 -11.333 2 -16 6s-7 9 -7 15s2 11.333 6 16s9 7 15 7l72 2c-3.33301 48 -7.66602 93.667 -12.999 137c-0.666992 6 0.833008 11.5 4.5 16.5s8.5 7.83301 14.5 8.5s11.5 -0.833008 16.5 -4.5s7.83301 -8.5 8.5 -14.5
c5.33301 -48.667 9.66602 -96 12.999 -142h43c6 0 11.167 -2.16699 15.5 -6.5s6.5 -9.5 6.5 -15.5s-2.16699 -11.167 -6.5 -15.5s-9.5 -6.5 -15.5 -6.5h-41c1.33301 -30.667 2.33301 -62.334 3 -95.001c0 -11.333 -0.333008 -36 -1 -74
c-0.666992 -35.333 -0.666992 -65.666 0 -90.999c2 -69.333 11.333 -118 28 -146c2 -3.33301 4 -6.33301 6 -9s4.66699 -5 8 -7s6 -3.66699 8 -5s5.66699 -2.66602 11 -3.99902l11 -4c2 -0.666992 6.66699 -2 14 -4s12.333 -3.33301 15 -4
c6 -1.33301 10.5 -4.66602 13.5 -9.99902s3.66699 -11 2 -17s-5.16699 -10.5 -10.5 -13.5s-11 -3.5 -17 -1.5c-1.33301 0 -6.5 1.16699 -15.5 3.5s-15.167 4 -18.5 5s-9 3.16699 -17 6.5s-14.167 6.66602 -18.5 9.99902s-9.33301 7.66602 -15 12.999
s-10.5 11.666 -14.5 18.999c-20.667 34.667 -32 90.334 -34 167.001c-0.666992 23.333 -0.666992 54 0 92s1 62.667 1 74c-0.666992 32.667 -1.66699 64 -3 94z" />
    <glyph glyph-name="u" unicode="u" 
d="M75 512c2 -21.333 2.32715 -55.9971 0.994141 -103.997c-0.666992 -42 0.333008 -74.667 3 -98c4 -36 13.667 -70 29 -102c15.333 -31.333 34.333 -58.833 57 -82.5s50 -41.334 82 -53.001s65.333 -14.834 100 -9.50098c24.667 3.33301 46.334 10.666 65.001 21.999
s34 24.666 46 39.999s22.167 34.166 30.5 56.499s14.666 44.333 18.999 66s7.83301 46.167 10.5 73.5l2 24l-5 79c-1.33301 22 -2 38 -2 48c0 6.66699 0.333008 12 1 16c0.666992 7.33301 2 13 4 17c2.66699 4.66699 6.33398 8.33398 11.001 11.001
c5.33301 2.66699 11 3 17 1c4.66699 -1.33301 8.33398 -4 11.001 -8c4 -4 6.33301 -10.667 7 -20c2 -12 3 -33.333 3 -64c0 -29.333 -1 -56 -3 -80c2 -18 3.66699 -36.667 5 -56c11.333 -126 20.333 -201 27 -225c2 -6 1.5 -11.667 -1.5 -17s-7.5 -8.83301 -13.5 -10.5
s-11.667 -1 -17 2s-8.66602 7.5 -9.99902 13.5c-4.66699 16.667 -10.667 60 -18 130c-32 -96 -93 -150.333 -183 -163c-43.333 -6 -84.166 -1.83301 -122.499 12.5s-70.666 35.5 -96.999 63.5s-48 60.167 -65 96.5s-28.167 73.833 -33.5 112.5
c-3.33301 24.667 -4.33301 59.667 -3 105c1.33301 46.667 1 79.667 -1 99c-0.666992 6 1 11.333 5 16s9 7.33398 15 8.00098s11.333 -1 16 -5s7.33398 -9 8.00098 -15z" />
    <glyph glyph-name="v" unicode="v" horiz-adv-x="471" 
d="M49 528c20.667 -16.667 40.1699 -36.502 58.5029 -59.502s36 -50.5 53 -82.5s29.5 -56.667 37.5 -74l36 -79l40 -94c2 8 4 17.667 6 29c2.66699 12.667 4.33398 19.667 5.00098 21c39.333 147.333 84.333 264.333 135 351c3.33301 5.33301 7.83301 8.83301 13.5 10.5
s11.167 0.833984 16.5 -2.49902s8.83301 -7.83301 10.5 -13.5s0.833984 -11.167 -2.49902 -16.5c-48.667 -83.333 -92.334 -197 -131.001 -341c0 -0.666992 -1.33301 -6.66699 -4 -18c-2.66699 -14 -5 -25.667 -7 -35c-3.33301 -14.667 -6.66602 -26.334 -9.99902 -35.001
c-2 -6 -4 -10.667 -6 -14c-4.66699 -8 -10.334 -13.333 -17.001 -16c-4 -1.33301 -7.66699 -1.66602 -11 -0.999023s-6 1.66699 -8 3l-3 3c-1.33301 0.666992 -2.33301 1.66699 -3 3s-1.33398 2.5 -2.00098 3.5s-1.33398 2.16699 -2.00098 3.5c-0.666992 2.66699 -2 6 -4 10
l-15 35l-41 96c-15.333 34.667 -27.333 61 -36 79s-20.834 41.667 -36.501 71s-31.667 54.333 -48 75s-33.833 38.667 -52.5 54c-4.66699 4 -7.33398 9 -8.00098 15s1 11.333 5 16s9 7.33398 15 8.00098s11.333 -1 16 -5z" />
    <glyph glyph-name="w" unicode="w" horiz-adv-x="675" 
d="M36 541c18 -29.333 35.167 -63.498 51.5 -102.498s33.666 -86 51.999 -141s30.833 -90.5 37.5 -106.5l21 -53l16 -42l1 1c6.66699 19.333 15.334 50.666 26.001 93.999c13.333 58 21.666 92.667 24.999 104c4.66699 17.333 9 31.333 13 42c5.33301 14 11 24.333 17 31
c13.333 12.667 29.333 14.667 48 6c4.66699 -2 9.33398 -5.66699 14.001 -11c3.33301 -3.33301 7.33301 -8 12 -14c7.33301 -10 16.333 -23.667 27 -41l66 -115l62 -112l4 -8c1.33301 7.33301 2.66602 16 3.99902 26c4 27.333 9.33301 72.333 16 135
c14.667 137.333 26.667 230 36 278c3.33301 15.333 9.66602 38.333 18.999 69c8.66699 27.333 14.334 48.666 17.001 63.999c1.33301 6 4.5 10.667 9.5 14s10.5 4.5 16.5 3.5s10.667 -4 14 -9s4.66602 -10.5 3.99902 -16.5c-3.33301 -16.667 -9.5 -39.667 -18.5 -69
s-14.833 -50.666 -17.5 -63.999c-8 -36.667 -20 -128 -36 -274c-5.33301 -48.667 -11 -94.334 -17 -137.001c-3.33301 -26 -6.33301 -45 -9 -57c-2 -8 -3.66699 -14.333 -5 -19l-5 -10c-6.66699 -8.66699 -15 -12 -25 -10c-2 0.666992 -4.16699 1.66699 -6.5 3
s-4.16602 2.66602 -5.49902 3.99902l-1 1c-0.666992 1.33301 -2 3 -4 5c-2 2.66699 -4.33301 6.66699 -7 12c-5.33301 8 -12.666 20.667 -21.999 38l-62 112c-27.333 49.333 -49 87 -65 113c-10 16 -18.333 28.667 -25 38c-3.33301 4 -6 7.33301 -8 10v1
c-2 -3.33301 -4 -7.66602 -6 -12.999c-3.33301 -9.33301 -7.33301 -21.666 -12 -36.999l-25 -103c-12 -48.667 -21 -81.667 -27 -99c-5.33301 -15.333 -10.666 -27 -15.999 -35c-10 -14.667 -21.667 -21.334 -35 -20.001c-10 1.33301 -17.333 6.33301 -22 15
c-2 4 -3 8.66699 -3 14l-1 8c-4 11.333 -11 29.333 -21 54l-23 57c-7.33301 19.333 -20 56 -38 110s-34.5 99.333 -49.5 136s-31.5 68.667 -49.5 96c-2.66699 5.33301 -3.33398 11 -2.00098 17s4.5 10.5 9.5 13.5s10.5 3.83301 16.5 2.5s10.667 -4.33301 14 -9z" />
    <glyph glyph-name="x" unicode="x" horiz-adv-x="483" 
d="M366 539c-6.66699 -18 -17.332 -40.0039 -31.999 -66.0039c-17.333 -30.667 -28 -50.667 -32 -60l-17 -37l10 -12c66 -79.333 124.333 -161.333 175 -246c3.33301 -4.66699 4.16602 -10 2.49902 -16s-5 -10.667 -10 -14s-10.5 -4.16602 -16.5 -2.49902
s-10.667 5.16699 -14 10.5c-48.667 80.667 -104 158.667 -166 234l-42 -103c-20.667 -52.667 -37.334 -93 -50.001 -121c-2.66699 -5.33301 -6.83398 -9.16602 -12.501 -11.499s-11.167 -2.16602 -16.5 0.500977s-9.16602 6.83398 -11.499 12.501
s-2.16602 11.167 0.500977 16.5c12.667 28.667 30 70.667 52 126s38 94.666 48 117.999c-72 81.333 -132.667 131 -182 149c-5.33301 2.66699 -9.33301 6.66699 -12 12s-2.83398 10.833 -0.500977 16.5s6.16602 9.83398 11.499 12.501s11 3 17 1
c52.667 -20 114.334 -69 185.001 -147l9 19c4.66699 10.667 16 31.667 34 63c13.333 24 22.666 43.667 27.999 59c2 6 5.83301 10.333 11.5 13s11.334 3 17.001 1s9.83398 -5.83301 12.501 -11.5s3 -11.167 1 -16.5z" />
    <glyph glyph-name="y" unicode="y" horiz-adv-x="603" 
d="M42 630c1.33301 -10.667 3.33203 -28.333 5.99902 -53s4.83398 -42.667 6.50098 -54s5.16699 -25.666 10.5 -42.999s12.333 -33.333 21 -48c15.333 -25.333 36.833 -46.833 64.5 -64.5s57.834 -29.5 90.501 -35.5c33.333 -6 65 -4.83301 95 3.5s55.333 23.5 76 45.5
c40 44 70.667 100.333 92 169c6.66699 22 11.667 42.667 15 62c0 1.33301 0.166992 3.16602 0.5 5.49902s0.666016 4.33301 0.999023 6s0.5 2.83398 0.5 3.50098c0.666992 3.33301 1.66699 6.33301 3 9c5.33301 10.667 14 15 26 13c7.33301 -2 12.666 -6.66699 15.999 -14
c2 -2.66699 3.33301 -6 4 -10c1.33301 -4.66699 2.33301 -11.334 3 -20.001c1.33301 -12.667 2 -30.334 2 -53.001c0.666992 -14.667 0.833984 -32.5 0.500977 -53.5s-0.5 -32.167 -0.5 -33.5c0 -14.667 2.66699 -46.334 8 -95.001
c5.33301 -55.333 8.66602 -98.333 9.99902 -129c2 -50.667 0.333008 -92.667 -5 -126c-6.66699 -44.667 -20.334 -76.667 -41.001 -96c-3.33301 -3.33301 -7 -6.16602 -11 -8.49902s-8.5 -4.33301 -13.5 -6s-9.5 -3 -13.5 -4s-8.66699 -1.83301 -14 -2.5s-9.33301 -1 -12 -1
s-6.5 -0.166992 -11.5 -0.5s-7.83301 -0.5 -8.5 -0.5c-6 0 -11.333 2 -16 6s-7 9 -7 15s2 11.333 6 16s9 7 15 7c30.667 1.33301 49.334 5 56.001 11c13.333 12.667 22.666 36.334 27.999 71.001c4.66699 30 6 69 4 117c-1.33301 30 -4.66602 72 -9.99902 126
s-8 87.333 -8 100v29c-21.333 -55.333 -50.333 -103 -87 -143c-26 -28 -57.667 -47.167 -95 -57.5s-75.666 -11.833 -114.999 -4.5c-38.667 6.66699 -74.667 20.5 -108 41.5s-59.333 47.5 -78 79.5c-10 16.667 -18.167 35.167 -24.5 55.5s-10.5 37 -12.5 50
s-4.33301 32.333 -7 58s-4.66699 42.5 -6 50.5c-0.666992 6 0.833008 11.5 4.5 16.5s8.5 7.83301 14.5 8.5s11.5 -0.833008 16.5 -4.5s7.83301 -8.5 8.5 -14.5z" />
    <glyph glyph-name="z" unicode="z" horiz-adv-x="538" 
d="M48 641c26.667 -3.33301 54.3301 -5.33398 82.9971 -6.00098s63.834 -0.5 105.501 0.5s70.5 1.5 86.5 1.5c4 0 10.333 0.333008 19 1c14 1.33301 22 2 24 2c23.333 2 41 1 53 -3c16.667 -5.33301 27.667 -14 33 -26c2.66699 -5.33301 3.33398 -12.333 2.00098 -21
c-0.666992 -5.33301 -2.33398 -11.666 -5.00098 -18.999c-3.33301 -12.667 -9.33301 -29.334 -18 -50.001c-13.333 -34.667 -33.333 -80.667 -60 -138l-105 -223l-13 -31l-17 -39l-17 -32c12.667 -0.666992 28.667 -1 48 -1h103c15.333 0 38 -0.5 68 -1.5
s52.667 -1.5 68 -1.5c6 0 11.167 -2.16699 15.5 -6.5s6.5 -9.5 6.5 -15.5s-2.16699 -11.167 -6.5 -15.5s-9.5 -6.5 -15.5 -6.5c-15.333 0 -38 0.5 -68 1.5s-52.667 1.5 -68 1.5h-103c-26 0 -46.333 0.333008 -61 1c-9.33301 0.666992 -16.666 1.33398 -21.999 2.00098
c-3.33301 0.666992 -6 1.33398 -8 2.00098c-2 0 -4 0.666992 -6 2c-5.33301 2 -9 5.66699 -11 11c-4 8.66699 -3.33301 17 2 25c2 3.33301 5 6.66602 9 9.99902c2.66699 2 4.33398 3 5.00098 3c6 10 11.667 20.667 17 32l18 41l16 36l105 223
c26 57.333 46 102.666 60 135.999c7.33301 20 12.666 35.667 15.999 47c1.33301 3.33301 2.33301 6.33301 3 9c-1.33301 0.666992 -3 1.33398 -5 2.00098c-6 2 -18 2.33301 -36 1c-1.33301 0 -9 -0.666992 -23 -2c-10 -0.666992 -17.667 -1 -23 -1
c-14 0 -42.167 -0.5 -84.5 -1.5s-78.5 -1.16699 -108.5 -0.5c-29.333 0.666992 -58.666 2.66699 -87.999 6c-6 0.666992 -10.833 3.5 -14.5 8.5s-5.16699 10.5 -4.5 16.5s3.5 10.833 8.5 14.5s10.5 5.16699 16.5 4.5z" />
    <glyph glyph-name="braceleft" unicode="{" horiz-adv-x="347" 
d="M305 815c-32 16.667 -65.334 11.3271 -100.001 -16.0059c-34 -27.333 -57 -61.666 -69 -102.999c-7.33301 -24.667 -11.333 -51.667 -12 -81c-1.33301 -29.333 1 -56.333 7 -81l13 -36c8.66699 -24 14 -38 16 -42c13.333 -39.333 17 -71 11 -95
c-4.66699 -21.333 -19.334 -39.666 -44.001 -54.999c-18.667 -11.333 -29.667 -19.666 -33 -24.999c-14.667 -28 -12.334 -63.667 6.99902 -107c18 -40.667 42.333 -73 73 -97c2.66699 -2 5.5 -3.83301 8.5 -5.5s5.83301 -3 8.5 -4s6.33398 -2.16699 11.001 -3.5
s8.16699 -2.16602 10.5 -2.49902s6.83301 -1.16602 13.5 -2.49902s11 -2 13 -2c6 -1.33301 10.667 -4.5 14 -9.5s4.5 -10.5 3.5 -16.5s-4 -10.667 -9 -14s-10.5 -4.66602 -16.5 -3.99902c-2 0.666992 -6.16699 1.5 -12.5 2.5s-11 1.83301 -14 2.5
s-7.66699 1.83398 -14 3.50098s-11.5 3.33398 -15.5 5.00098s-8.66699 4 -14 7s-10.333 6.16699 -15 9.5c-35.333 28 -63.666 65.667 -84.999 113c-25.333 56.667 -27 105 -5 145c1.33301 4 3.5 7.66699 6.5 11s5.66699 6.16602 8 8.49902s5.33301 4.83301 9 7.5
s6.5 4.66699 8.5 6s5 3.16602 9 5.49902s6.33301 3.5 7 3.5c14 9.33301 22.333 18.666 25 27.999c3.33301 16 -0.333984 39.333 -11.001 70c-1.33301 4.66699 -6.66602 18.667 -15.999 42c-6 17.333 -10.333 31 -13 41c-7.33301 28.667 -10.333 59.5 -9 92.5s6 63.5 14 91.5
c6.66699 22.667 17.334 45.334 32.001 68.001s31.667 41.667 51 57c50 40 99.333 47.333 148 22c5.33301 -3.33301 9 -7.83301 11 -13.5s1.5 -11.167 -1.5 -16.5s-7.33301 -9 -13 -11s-11.167 -1.66699 -16.5 1z" />
    <glyph glyph-name="bar" unicode="|" horiz-adv-x="167" 
d="M118 744c10 -50 17.668 -105.831 23.001 -167.498s8.66602 -114.667 9.99902 -159s2.33301 -102.5 3 -174.5s1.66699 -125 3 -159c0 -6 -2 -11.333 -6 -16s-9 -7 -15 -7s-11.333 2 -16 6s-7 9 -7 15c-1.33301 36 -2.33301 89.833 -3 161.5s-1.66699 129.167 -3 172.5
s-4.66602 95.166 -9.99902 155.499s-13 115.166 -23 164.499c-0.666992 6 0.666016 11.5 3.99902 16.5s8 8 14 9s11.5 -0.166992 16.5 -3.5s8.16699 -8 9.5 -14z" />
    <glyph glyph-name="braceright" unicode="}" horiz-adv-x="341" 
d="M19 868c51.333 2 87.666 2 108.999 0c68.667 -6.66699 114.334 -32 137.001 -76c16.667 -34 20 -80.333 10 -139c-2.66699 -14 -6 -29 -10 -45l-13 -53l-12 -43c-11.333 -46.667 -14 -78 -8 -94c3.33301 -7.33301 17 -15 41 -23c20 -6.66699 30.333 -10 31 -10
c6.66699 -2.66699 11.667 -5.33398 15 -8.00098c8.66699 -6.66699 12.667 -14.667 12 -24c-0.666992 -5.33301 -2.33398 -10 -5.00098 -14l-5 -5c-2 -2 -5 -4.66699 -9 -8l-25 -21c-10.667 -8.66699 -19 -16 -25 -22l-9 -10c-1.33301 -4 -1 -10 1 -18
c0.666992 -3.33301 1.66699 -8 3 -14c2 -7.33301 3.33301 -12.333 4 -15c16.667 -68.667 15.334 -122.334 -3.99902 -161.001c-20 -41.333 -62.667 -74 -128 -98c-6 -2 -11.833 -1.66699 -17.5 1s-9.5 6.83398 -11.5 12.501s-1.66699 11.334 1 17.001s6.66699 9.5 12 11.5
c54.667 19.333 89.667 44.333 105 75c14 29.333 14.333 73.333 1 132l-4 12c-2 7.33301 -3.33301 13 -4 17c-4 16.667 -4 30.667 0 42c2.66699 8 9.66699 17.333 21 28c6 6.66699 15 14.667 27 24l13 11l-12 3c-37.333 12.667 -60 29 -68 49
c-10 24.667 -8.33301 64.667 5 120l11 42l14 52c4 16 7 30.667 9 44c8.66699 50 6.66699 87.333 -6 112c-14.667 30 -48.334 47.333 -101.001 52c-19.333 2 -53.666 2 -102.999 0c-6 0 -11.333 2 -16 6s-7 9 -7 15s2 11.333 6 16s9 7 15 7z" />
    <glyph glyph-name="asciitilde" unicode="~" horiz-adv-x="650" 
d="M93 297c0 1.33301 -0.168945 2.16602 -0.501953 2.49902s-1 1.33301 -2 3s-2.16699 3.5 -3.5 5.5c-5.33301 10 -6.66602 19.667 -3.99902 29c5.33301 24 26 43.667 62 59c28 11.333 53.333 16.666 76 15.999c20.667 -0.666992 50 -9 88 -25
c9.33301 -3.33301 25 -9.66602 47 -18.999l51 -23c38 -14.667 69 -23.667 93 -27c28 -3.33301 50 1 66 13c4 2.66699 7.5 6.33398 10.5 11.001s6.66699 11.667 11 21s8 16.666 11 21.999s7.5 8.83301 13.5 10.5s11.667 1 17 -2s8.83301 -7.5 10.5 -13.5
s0.833984 -11.667 -2.49902 -17l-7 -13c-3.33301 -8 -6.5 -14.667 -9.5 -20s-7 -11.333 -12 -18s-10.5 -12.334 -16.5 -17.001c-25.333 -18.667 -57.666 -25.334 -96.999 -20.001c-28 3.33301 -62.667 13.333 -104 30c-12 4.66699 -29 11.667 -51 21l-48 21
c-32.667 13.333 -57 20.333 -73 21s-35 -3.66602 -57 -12.999c-20 -8 -32 -16.667 -36 -26c5.33301 -10 8.33301 -15.333 9 -16c2 -6 1.66699 -11.667 -1 -17s-6.83398 -9.16602 -12.501 -11.499s-11.167 -2.16602 -16.5 0.500977s-9.33301 6.66699 -12 12z" />
    <glyph glyph-name="quoteleft" unicode="&#x2018;" horiz-adv-x="197" 
d="M140 806c-8 -44 -12.666 -75.333 -13.999 -94c-2 -20.667 -2 -37.334 0 -50.001c1.33301 -11.333 3 -18 5 -20c1.33301 -1.33301 5 -2.33301 11 -3c17.333 -1.33301 26.333 -2 27 -2c6 -1.33301 10.667 -4.66602 14 -9.99902s4.5 -10.833 3.5 -16.5
s-4.16699 -10.167 -9.5 -13.5s-10.666 -4.66602 -15.999 -3.99902c-2 0.666992 -4 1.16699 -6 1.5s-4.66699 0.5 -8 0.5h-9c-14.667 2 -26.334 6.33301 -35.001 13c-11.333 9.33301 -18.333 25.666 -21 48.999c-2 16 -2 35.667 0 59c2 20 6.66699 52.667 14 98
c1.33301 6 4.5 10.667 9.5 14s10.5 4.5 16.5 3.5s10.667 -4 14 -9s4.66602 -10.5 3.99902 -16.5z" />
    <glyph glyph-name="quoteright" unicode="&#x2019;" horiz-adv-x="181" 
d="M158 788c10.667 -39.333 15 -75.502 13 -108.502s-10.667 -67.833 -26 -104.5c-2 -6 -5.83301 -10.167 -11.5 -12.5s-11.334 -2.33301 -17.001 0s-9.66699 6.33301 -12 12s-2.16602 11.167 0.500977 16.5c12.667 32.667 19.834 63.167 21.501 91.5
s-1.83301 59.5 -10.5 93.5c-2 6 -1.33301 11.667 2 17s7.83301 8.83301 13.5 10.5s11.167 0.833984 16.5 -2.49902s8.66602 -7.66602 9.99902 -12.999z" />
    <glyph glyph-name="quotedblleft" unicode="&#x201c;" horiz-adv-x="250" 
d="M118 768c-2 -25.333 -2.33105 -52 -0.998047 -80c1.33301 -26.667 5.66602 -51 12.999 -73c2 -6 1.66699 -11.667 -1 -17s-7 -9 -13 -11s-11.667 -1.66699 -17 1s-9 7 -11 13c-8 25.333 -12.833 53.833 -14.5 85.5s-1.5 59.5 0.5 83.5c0 6 2.16699 11 6.5 15
s9.66602 6 15.999 6s11.5 -2.16699 15.5 -6.5s6 -9.83301 6 -16.5zM193.002 752c0 -30 3.00098 -55.334 9.00098 -76.001s17 -40.667 33 -60c4 -4.66699 5.66699 -10 5 -16s-3.33398 -11 -8.00098 -15s-10 -5.66699 -16 -5s-11 3.33398 -15 8.00098
c-20 24 -33.667 48.833 -41 74.5s-11 55.5 -11 89.5c0 6 2.16699 11.167 6.5 15.5s9.5 6.5 15.5 6.5s11.167 -2.16699 15.5 -6.5s6.5 -9.5 6.5 -15.5z" />
    <glyph glyph-name="quotedblright" unicode="&#x201d;" horiz-adv-x="244" 
d="M109 765c33.333 -67.333 42.333 -133.667 27 -199c-1.33301 -6 -4.5 -10.5 -9.5 -13.5s-10.5 -3.83301 -16.5 -2.5s-10.5 4.5 -13.5 9.5s-3.83301 10.5 -2.5 16.5c12 54.667 3.66699 111 -25 169c-2.66699 5.33301 -3 11 -1 17s5.66699 10.333 11 13s11 3 17 1
s10.333 -5.66699 13 -11zM225 768.999c6 -36.667 9.00098 -92.333 9.00098 -167c0 -6 -2.16699 -11.167 -6.5 -15.5s-9.5 -6.5 -15.5 -6.5s-11.167 2.16699 -15.5 6.5s-6.5 9.5 -6.5 15.5c0 72.667 -3 125.667 -9 159c-0.666992 6 0.666016 11.5 3.99902 16.5s8 8 14 9
s11.5 -0.166992 16.5 -3.5s8.16699 -8 9.5 -14z" />
    <glyph glyph-name="uni3000" unicode="&#x3000;" horiz-adv-x="1000" 
 />
    <glyph glyph-name=".null" horiz-adv-x="0" 
 />
    <glyph glyph-name="nonmarkingreturn" horiz-adv-x="333" 
 />
  </font>
</defs>
</svg>
